<?xml version="1.0" encoding="utf-8"?>
<!-- Generator: Adobe Illustrator 23.0.1, SVG Export Plug-In . SVG Version: 6.00 Build 0)  -->
<svg version="1.1" id="Layer_1" xmlns="http://www.w3.org/2000/svg" xmlns:xlink="http://www.w3.org/1999/xlink" x="0px" y="0px"
	 viewBox="0 0 300 300" style="enable-background:new 0 0 300 300;" xml:space="preserve">
<style type="text/css">
	.st0{fill:none;}
	.st1{stroke:#000000;stroke-width:12;stroke-linecap:round;stroke-linejoin:round;stroke-miterlimit:10;}
	.st2{fill:none;stroke:#000000;stroke-width:16;stroke-linecap:round;stroke-linejoin:round;stroke-miterlimit:10;}
	.st3{fill:#E3E3E3;}
	.st4{fill:#00FF00;}
	.st5{fill:#0000FF;}
	.st6{fill:#333333;}
	.st7{stroke:#000000;stroke-miterlimit:10;}
	.st8{fill:none;stroke:#000000;stroke-width:15;stroke-linecap:round;stroke-linejoin:round;stroke-miterlimit:10;}
</style>
<g>
	<g>
		<path d="M222.3,250.01v24.95h-24.63c2.87-2.69,5.37-5.83,7.38-9.33c0.05-0.09,0.19-0.32,0.19-0.32c2.72-4.85,4.64-9.96,5.73-15.3
			H222.3z"/>
		<path d="M79.8,25.04c-30.25,0-54.8,24.53-54.8,54.8v140.31c0,30.26,24.54,54.8,54.8,54.8h40.27c-2.88-2.69-5.38-5.82-7.38-9.33
			c-0.05-0.09-0.19-0.32-0.19-0.32c-2.72-4.85-4.64-9.96-5.73-15.3H93.1c-13.27,0-24.46-10.5-24.65-23.76
			c-0.1-6.81,2.61-12.97,7.06-17.4c4.35-4.37,10.38-7.06,17.05-7.06h28.3c0.85-0.87,1.72-1.71,2.64-2.51
			c3.38-2.99,5.76-6.95,6.9-11.45l0.51-2.03v-0.01l0.15-2.13c0.04-0.57,0.06-1.14,0.06-1.69v-0.14c0-4.11,1.51-7.8,4.36-10.65
			c2.84-2.85,6.54-4.36,10.65-4.36h2.87c1.22-2.08,2.53-4.13,3.91-6.14c0.08-0.12,0.16-0.22,0.24-0.33c0.26-0.37,0.52-0.76,0.8-1.14
			c1.64-10.99,6.28-25.92,18.68-38.85c12-12.51,28.64-20.41,49.65-23.61V25.04H79.8z M91.98,165.22c0,4.78-3.88,8.65-8.65,8.65
			c-4.78,0-8.65-3.88-8.65-8.65V64.85c0-4.78,3.88-8.65,8.65-8.65c2.39,0,4.55,0.97,6.11,2.54c1.57,1.56,2.54,3.73,2.54,6.11V165.22
			z"/>
		<path d="M222.3,173.65v8.29c0,10.95-8.88,19.84-19.83,19.84h-5.69c-0.84-0.85-1.7-1.68-2.59-2.47c-3.37-3-5.74-6.96-6.86-11.46
			l-0.5-2.01v-0.02l-0.15-2.17c-0.03-0.51-0.06-1.04-0.06-1.56v-0.27c0-0.7-0.04-1.4-0.13-2.08
			C199.1,179,211.06,176.96,222.3,173.65z"/>
		<path d="M94.82,219.48h14.55c-1.41,3.54-2.42,7.19-3.02,10.96H94.82c-1.59,0-2.88-1.29-2.88-2.88v-5.19
			C91.94,220.78,93.23,219.48,94.82,219.48z"/>
		<path d="M222.38,222.37v5.19c0,1.59-1.29,2.88-2.88,2.88h-8.11c-0.61-3.77-1.63-7.42-3.05-10.96h11.16
			C221.08,219.48,222.38,220.78,222.38,222.37z"/>
	</g>
	<g>
		<g>
			<path d="M203.42,239.1c0,3.76-0.44,7.4-1.32,10.9c-0.95,3.83-2.42,7.51-4.41,11.05c-0.03,0.07-0.07,0.14-0.12,0.2
				c-3.59,6.31-9.18,11.06-15.71,13.69h-45.98c-6.53-2.63-12.13-7.38-15.71-13.69c-0.04-0.06-0.08-0.13-0.12-0.2
				c-1.99-3.54-3.46-7.22-4.41-11.05c-0.88-3.51-1.32-7.14-1.32-10.9c0-2.97,0.27-5.86,0.81-8.66c0.74-3.8,1.97-7.45,3.7-10.96
				c0.69-1.41,1.47-2.8,2.32-4.17c2.28-3.63,4.97-6.82,8.08-9.57c1.38-1.22,2.63-2.54,3.74-3.97c2.11-2.67,3.76-5.67,4.9-8.87
				c0.35-0.97,0.65-1.97,0.91-2.98h40.14c0.25,1.01,0.55,2,0.9,2.98c1.12,3.19,2.76,6.19,4.86,8.87c1.11,1.43,2.37,2.77,3.74,3.99
				c3.07,2.74,5.77,5.92,8.07,9.55c0.87,1.37,1.65,2.75,2.35,4.17c1.75,3.51,3,7.16,3.74,10.96
				C203.14,233.25,203.42,236.14,203.42,239.1z"/>
		</g>
		<g>
			<path d="M291,108.69c0,0-7.49,17.35-27.48,33.8c-11.38,0.7-25.18,0.85-32.37-1.68c0,0,0,7.76,9.27,16.55
				c-5.5,2.71-11.53,5.17-18.13,7.25c-14.76,4.66-32.36,7.38-53.18,6.72c0,0,12.66-15.27,53.18-38.06
				c6.93-3.89,14.68-8.01,23.32-12.31c-8.49,2.38-16.24,5-23.32,7.78c-27.94,11.01-45.43,24.74-56.37,37.45
				c-0.27,0.32-0.54,0.63-0.8,0.93c0,0.01-0.01,0.01-0.01,0.02c-0.31,0.43-0.61,0.87-0.91,1.29c-0.22,0.32-0.44,0.63-0.65,0.95
				c-1.34,2-2.58,4.03-3.72,6.07h11.75c1.8,0,3.31,0.61,4.53,1.83c1.09,1.09,1.7,2.42,1.81,3.99c0.02,0.18,0.02,0.36,0.02,0.54v0.27
				c0,0.72,0.03,1.45,0.08,2.16h-38.35c0.06-0.76,0.09-1.52,0.09-2.3v-0.14c0-0.18,0.01-0.36,0.02-0.54
				c0.11-1.57,0.72-2.9,1.81-3.99c1.22-1.22,2.73-1.83,4.53-1.83h8.32c0-0.39,0.1-0.8,0.29-1.18c1.56-2.94,3.34-5.87,5.31-8.71
				c0.06-0.09,0.12-0.17,0.18-0.27c0.58-0.84,1.18-1.67,1.8-2.5c0.06-0.08,0.13-0.16,0.2-0.23c1.89-15.97,11.69-49.12,60.06-57.07
				C239.72,102.63,262.15,103.04,291,108.69z"/>
		</g>
	</g>
</g>
</svg>
