<?xml version="1.0" encoding="utf-8"?>
<!-- Generator: Adobe Illustrator 23.0.1, SVG Export Plug-In . SVG Version: 6.00 Build 0)  -->
<svg version="1.1" id="Layer_1" xmlns="http://www.w3.org/2000/svg" xmlns:xlink="http://www.w3.org/1999/xlink" x="0px" y="0px"
	 viewBox="0 0 300 300" style="enable-background:new 0 0 300 300;" xml:space="preserve">
<style type="text/css">
	.st0{stroke:#000000;stroke-width:3;stroke-miterlimit:10;}
	.st1{fill:#E3E3E3;}
</style>
<path d="M287.61,70.96H21.39c-4.63,0-8.39-3.76-8.39-8.39v0c0-4.2,3.41-7.61,7.61-7.61l267.78,0c4.2,0,7.61,3.41,7.61,7.61v0
	C296,67.2,292.24,70.96,287.61,70.96z"/>
<circle cx="53" cy="79.96" r="4"/>
<circle cx="53" cy="97.96" r="4"/>
<circle cx="53" cy="115.96" r="4"/>
<circle cx="71" cy="79.96" r="4"/>
<circle cx="17" cy="79.96" r="4"/>
<circle cx="35" cy="79.96" r="4"/>
<circle cx="17" cy="97.96" r="4"/>
<circle cx="35" cy="97.96" r="4"/>
<circle cx="17" cy="115.96" r="4"/>
<circle cx="35" cy="115.96" r="4"/>
<circle cx="17" cy="133.96" r="4"/>
<circle cx="35" cy="133.96" r="4"/>
<circle cx="71" cy="97.96" r="4"/>
<circle cx="89" cy="79.96" r="4"/>
<circle cx="89" cy="97.96" r="4"/>
<circle cx="107" cy="79.96" r="4"/>
<circle cx="107" cy="97.96" r="4"/>
<circle cx="125" cy="79.96" r="4"/>
<circle cx="125" cy="97.96" r="4"/>
<circle cx="143" cy="79.96" r="4"/>
<circle cx="143" cy="97.96" r="4"/>
<circle cx="161" cy="79.96" r="4"/>
<circle cx="161" cy="97.96" r="4"/>
<circle cx="179" cy="79.96" r="4"/>
<circle cx="179" cy="97.96" r="4"/>
<circle cx="197" cy="79.96" r="4"/>
<circle cx="215" cy="79.96" r="4"/>
<circle cx="233" cy="79.96" r="4"/>
<circle cx="251" cy="79.96" r="4"/>
<circle cx="287" cy="79.96" r="4"/>
<path d="M194.95,108.24c2.97-0.84,5.06-1.85,6.62-3.37c1.61-1.58,2.65-3.72,3.53-6.81c0.39-1.34,2.31-1.34,2.71,0
	c1.66,5.76,3.87,8.23,9.3,9.9c0.28,0.11,0.57,0.19,0.87,0.28c0.67,0.17,1,0.72,1.03,1.27c0.03,0.61-0.32,1.23-1.03,1.44
	c-0.13,0.04-0.26,0.07-0.39,0.11c-1.61,0.48-2.92,1-4.05,1.65c-0.97,0.54-1.79,1.18-2.49,1.93c-1.45,1.54-2.41,3.59-3.24,6.48
	c-0.4,1.35-2.32,1.35-2.71,0c-1.72-6.06-4.08-8.45-10.15-10.17C193.58,110.54,193.58,108.62,194.95,108.24z"/>
<path d="M240.78,112.64c0.86-0.25,1.69-0.5,2.48-0.76c0.57-0.19,1.12-0.38,1.66-0.58c0.99-0.36,1.93-0.74,2.82-1.15
	c0.26-0.11,0.52-0.24,0.77-0.36c2.18-1.05,4.03-2.26,5.63-3.67c3.8-3.39,6.18-8.07,8.16-15c0.81-2.89,4.91-2.89,5.72,0
	c3.66,12.84,8.68,17.86,21.53,21.52c2.87,0.81,2.87,4.9,0,5.71c-6.29,1.81-10.72,3.92-14.04,7.15v0.01
	c-2.48,2.43-4.32,5.46-5.87,9.41c0.08,0.03,0.15,0.06,0.23,0.08c-0.12,0.39-0.24,0.79-0.36,1.21c-0.13,0.46-0.38,0.82-0.7,1.06
	c-0.09,0.28-0.18,0.57-0.27,0.86c-0.18,0.57-0.35,1.15-0.52,1.75c-0.32,1.17-1.19,1.86-2.17,2.08c-1.13,0.26-2.4-0.13-3.12-1.15
	c-0.19-0.27-0.33-0.58-0.43-0.93c-0.51-1.82-1.06-3.47-1.65-4.99c-0.67-1.74-1.41-3.3-2.22-4.7c-0.99-1.02-1.85-2.2-2.6-3.61
	c-1.22-1.37-2.61-2.56-4.2-3.62c-1.64-1.08-3.51-2.03-5.66-2.87c-0.4-0.16-0.81-0.32-1.22-0.47c-1.23-0.45-2.55-0.87-3.97-1.27
	C237.9,117.54,237.9,113.46,240.78,112.64z"/>
<path d="M223.6,133.42c-0.01,0-0.03-0.01-0.04-0.01c0.01-0.01,0.03-0.01,0.04-0.02h0.01v-0.01h0.01c0.2-0.4,0.4-0.8,0.58-1.21
	c0.63-1.36,1.22-2.8,1.78-4.33c0.29-0.81,0.58-1.63,0.87-2.49c0.03-0.1,0.06-0.2,0.09-0.3c0.12-0.38,0.24-0.76,0.36-1.16
	c0.21-0.64,0.4-1.31,0.59-1.98c0.03-0.13,0.08-0.26,0.15-0.38c0.26-0.77,0.72-1.37,1.27-1.8c0.05-0.05,0.11-0.09,0.16-0.12
	c0.01-0.01,0.01-0.01,0.01-0.01c0.24-0.17,0.48-0.3,0.74-0.41c0.96-0.44,2.05-0.5,3.04-0.21v0.02c1.28,0.36,2.39,1.34,2.83,2.91
	c0.43,1.52,0.88,2.96,1.35,4.33c0.19,0.59,0.4,1.17,0.6,1.73c0.73,1.98,1.5,3.81,2.33,5.49c0.67,1.31,1.35,2.54,2.09,3.69
	c0.92,0.68,1.54,1.56,2.09,2.86c1.18,1.45,2.45,2.75,3.87,3.95c2.47,2.09,5.34,3.83,8.74,5.35l0.01,0.01c2.2,0.98,4.62,1.87,7.3,2.7
	c0.01,0.01,0.01,0.01,0.02,0c0.8,0.26,1.62,0.5,2.47,0.74c1.66,0.48,2.65,1.73,2.97,3.1c0.2,0.84,0.14,1.74-0.16,2.55
	c-0.42,1.17-1.35,2.14-2.81,2.58c-8.29,2.36-14.31,5.12-18.91,9.13c-0.27,0.23-0.53,0.47-0.79,0.71c-1.12,1.04-2.14,2.17-3.09,3.39
	c-1.96,2.5-3.61,5.41-5.05,8.83c-1.11,2.61-2.1,5.52-3.03,8.79c-1.16,4.13-7.02,4.13-8.2,0c-5.25-18.41-12.46-25.61-30.88-30.85
	c-1.79-0.52-2.8-1.9-3.04-3.4c-0.32-1.97,0.69-4.15,3.04-4.83c6.06-1.72,10.91-3.66,14.88-6.13
	C217.05,143.39,220.71,139.24,223.6,133.42z"/>
<path d="M283.11,98.88c-0.07-0.3-0.11-0.61-0.11-0.93c0-2.21,1.79-4,4-4s4,1.79,4,4c0,1.76-1.13,3.25-2.71,3.78
	c-0.41,0.14-0.84,0.22-1.29,0.22C285.11,101.96,283.53,100.64,283.11,98.88z"/>
<path d="M229,97.96c0-0.38,0.05-0.76,0.16-1.11c0.48-1.67,2.02-2.89,3.84-2.89c2.21,0,4,1.79,4,4c0,1.17-0.5,2.23-1.31,2.96
	c-0.71,0.64-1.66,1.04-2.69,1.04C230.79,101.96,229,100.16,229,97.96z"/>
<path d="M279.79,159.62c-0.15,0.75-0.36,1.5-0.63,2.23c-1.54,4.24-4.95,7.41-9.35,8.72l-0.11,0.03c-5.78,1.65-9.95,3.4-13.05,5.5
	c-1.21,3.07-3.49,5.49-6.35,6.87c-1.73,2.92-3.19,6.67-4.59,11.6c-1.41,5.01-5.28,8.7-10.13,9.92c7.6,2.2,13.4,8.92,14.18,17
	c1.23,12.52-9.15,22.91-21.68,21.68c-9.26-0.91-16.76-8.4-17.66-17.67c-1.05-10.71,6.39-19.85,16.4-21.51
	c-4.08-1.57-7.28-4.97-8.54-9.41c-4.28-15-9-19.71-24.01-23.97c-5.98-1.72-10.05-6.91-10.34-13.02H151v-32.96h42.84l10.98,14.52
	c0.63-0.32,1.21-0.66,1.77-1.01c3.69-2.31,6.22-5.22,8.38-9.82c-2.11,2.38-5.16,3.8-8.52,3.8c-5.12,0-9.53-3.3-10.95-8.22
	c-0.56-1.96-0.93-2.44-0.95-2.47c-0.01,0-0.13-0.09-0.49-0.24c-0.35-0.16-0.93-0.38-1.84-0.64c-4.96-1.41-8.3-5.81-8.3-10.97
	c0-1.67,0.36-3.28,1.02-4.72H71.91L32.36,157.6C17.73,157.6,6,169.33,6,183.96v16.62c0,12.66,10.26,22.93,22.92,22.93h3.44
	c0,21.88,17.67,39.54,39.55,39.54c21.88,0,39.54-17.66,39.54-39.54h79.1c0,21.88,17.66,39.54,39.54,39.54
	c21.88,0,39.55-17.66,39.55-39.54h0.9c14.06,0,25.46-11.4,25.46-25.46v-14.09C296,173,289.31,163.6,279.79,159.62z M69.67,243.15
	c-9.08-1-16.42-8.34-17.41-17.41c-1.31-11.95,7.97-22.02,19.65-22.02c10.94,0,19.77,8.83,19.77,19.78
	C91.68,235.17,81.62,244.46,69.67,243.15z M131.23,157.6H56.88l24.92-32.96h49.43V157.6z"/>
</svg>
