<?xml version="1.0" encoding="utf-8"?>
<!-- Generator: Adobe Illustrator 23.0.1, SVG Export Plug-In . SVG Version: 6.00 Build 0)  -->
<svg version="1.1" id="Layer_1" xmlns="http://www.w3.org/2000/svg" xmlns:xlink="http://www.w3.org/1999/xlink" x="0px" y="0px"
	 viewBox="0 0 300 300" style="enable-background:new 0 0 300 300;" xml:space="preserve">
<style type="text/css">
	.st0{fill:none;}
	.st1{fill:#FFFFFF;}
</style>
<g>
	<path d="M142,154.74c-1.18,0.5-2.41,0.82-3.68,0.95c-0.45,0.04-0.9,0.07-1.36,0.07s-0.9-0.02-1.36-0.07
		c-1.27-0.13-2.5-0.45-3.68-0.95c-1.54-0.65-2.93-1.59-4.11-2.78c-1.14-1.12-2.03-2.43-2.68-3.88c-0.03-0.08-0.07-0.15-0.1-0.23
		c-0.32-0.76-0.57-1.54-0.74-2.35c-0.19-0.88-0.28-1.78-0.28-2.69c0-1.75,0.34-3.44,1.01-5.04c0.65-1.54,1.59-2.93,2.78-4.11
		c0.15-0.17,0.32-0.32,0.49-0.47c0.68-0.61,1.41-1.14,2.19-1.59c0.46-0.26,0.94-0.51,1.43-0.72c1.6-0.67,3.29-1.01,5.04-1.01
		s3.44,0.34,5.04,1.01c0.5,0.21,0.97,0.45,1.43,0.72c0.78,0.45,1.51,0.98,2.19,1.59c0.17,0.15,0.33,0.31,0.49,0.47
		c1.19,1.18,2.13,2.57,2.78,4.11c0.67,1.6,1.01,3.29,1.01,5.04c0,0.92-0.09,1.81-0.28,2.69c-0.17,0.8-0.42,1.59-0.74,2.35
		c-0.03,0.08-0.07,0.15-0.1,0.23c-0.65,1.46-1.54,2.76-2.68,3.88C144.93,153.15,143.54,154.09,142,154.74z"/>
	<path d="M184.53,117.25l-34.71,11.28c-1-0.92-2.08-1.7-3.25-2.37V89.66c3.91,0.71,7.73,1.83,11.41,3.4
		c6.43,2.72,12.2,6.61,17.17,11.56C178.91,108.38,182.05,112.62,184.53,117.25z"/>
	<path d="M83.44,135.54l34.71,11.28c0.25,1.19,0.62,2.36,1.1,3.48c0.04,0.11,0.09,0.23,0.14,0.34l-21.44,29.51
		c-4.56-4.76-8.17-10.24-10.74-16.32c-2.82-6.67-4.24-13.74-4.24-21.02C82.96,140.37,83.12,137.93,83.44,135.54z"/>
	<path d="M239.69,188.25l-59.68,59.67l-21.37,21.37l-5.55,0.02l-10.89-10.89c-0.6-0.6-0.92-1.36-0.95-2.13
		c-0.02-0.86,0.29-1.73,0.95-2.39L190,206.11c1.23-1.26,1.23-3.27,0-4.53l-1.87-1.86l-6.5-6.49c-1.23-1.26-3.27-1.26-4.51,0
		l-0.79,0.77c-1.25,1.26-3.27,1.26-4.52,0l-1.94-1.93c-2.02-2.02-5.46-0.6-5.46,2.25v6.49c0,0.86-0.35,1.68-0.94,2.26l-2.12,2.12
		c-1.25,1.25-3.27,1.25-4.52,0l-18.41-18.41c-1.25-1.25-1.25-3.27,0-4.52l2.11-2.12c0.6-0.6,1.41-0.94,2.26-0.94h6.5
		c0.71,0,1.32-0.21,1.82-0.56c1.52-1.06,1.95-3.37,0.43-4.89l-1.75-1.75c-1.25-1.25-1.25-3.27,0-4.52l9.83-9.83l14.83-14.82
		c1.32-1.33,2.7-2.47,4.13-3.41c1.29-0.86,2.63-1.55,4.01-2.09c2.46-0.96,4.98-1.51,7.53-1.65l0.36-0.12c0,0.03,0.01,0.07,0.01,0.1
		c0.33-0.01,0.66-0.02,0.99-0.02c3.04,0,6.01,0.56,8.91,1.7c1.9,0.75,3.7,1.76,5.44,3.1c1.53,1.18,1.69,3.45,0.31,4.82l-12.76,12.77
		c-1.26,1.23-1.26,3.27,0,4.51l4.94,4.96c1.26,1.25,1.26,3.27,0,4.52l-0.78,0.78c-1.25,1.25-1.25,3.27,0,4.52l4.99,5.01l3.37,3.37
		c1.25,1.23,3.27,1.23,4.52,0l13.42-13.42c0.82-0.82,1.15-2.02,0.82-3.12c-0.25-0.86-0.47-1.73-0.67-2.62
		c-0.31-1.52-0.46-3.03-0.46-4.55c0-7.45,2.56-13.74,7.68-18.85c5.1-5.13,11.39-7.68,18.85-7.68h0.21c0.11,0,0.22,0,0.33,0.01
		c1.7,0.03,3.32,0.23,4.86,0.56c0.01,0.01,0.02,0.01,0.04,0.01c2.43,0.55,3.24,3.61,1.49,5.37l-6.6,6.6l-6.23,6.22
		c-1.25,1.26-1.25,3.27,0,4.53l4.52,4.51l1.92,1.92l2.69,2.69c1.25,1.26,3.27,1.26,4.52,0l12.92-12.9c1.76-1.79,4.89-0.93,5.37,1.55
		c0,0.02,0.01,0.03,0.01,0.06c0.32,1.71,0.47,3.52,0.47,5.4c0,7.46-2.56,13.75-7.67,18.86c-4.99,4.98-11.1,7.55-18.31,7.66
		c-0.18,0.01-0.36,0.01-0.54,0.01c-1.52,0-3.04-0.13-4.56-0.39c-0.85-0.13-1.7-0.34-2.52-0.62c-0.51-0.17-1.03-0.2-1.53-0.13
		C240.79,187.46,240.18,187.76,239.69,188.25z"/>
	<path d="M130.62,174.45c-2.69,2.68-4.17,6.25-4.17,10.05c0,3.8,1.48,7.36,4.17,10.05l2.08,2.08c-5.79-0.44-11.41-1.81-16.77-4.08
		c-0.83-0.34-1.63-0.72-2.44-1.1l21.44-29.52c0.67,0.08,1.35,0.11,2.02,0.11s1.34-0.03,2.02-0.11l0.63,0.87
		c-1.06,1.91-1.66,4.04-1.76,6.26c-1.91,0.71-3.66,1.82-5.12,3.26L130.62,174.45z"/>
	<path d="M124.1,128.53l-34.71-11.28c2.48-4.63,5.62-8.86,9.38-12.62c4.96-4.95,10.74-8.84,17.17-11.56
		c3.68-1.57,7.5-2.69,11.41-3.4v36.49C126.18,126.83,125.1,127.61,124.1,128.53z"/>
	<path d="M274.14,253.89c1.25,1.25,1.25,3.27,0,4.52l-11.4,11.4c-1.26,1.25-3.27,1.25-4.53,0l-13.67-13.68l-23.31-23.3
		c-1.25-1.25-1.25-3.27,0-4.52l11.4-11.4c1.26-1.26,3.27-1.26,4.53,0L274.14,253.89z"/>
	<path d="M164.39,216.13l-29.93,29.92c-2.71,2.69-4.21,6.27-4.21,10.1v0.01c-12.95-0.74-25.54-3.66-37.49-8.72
		c-13.53-5.72-25.67-13.9-36.08-24.33c-10.43-10.42-18.61-22.56-24.33-36.08c-5.93-14.01-8.93-28.88-8.93-44.21
		c0-15.32,3-30.2,8.93-44.21c5.72-13.53,13.9-25.67,24.33-36.08c10.42-10.43,22.56-18.61,36.08-24.33
		c14.01-5.93,28.88-8.93,44.21-8.93s30.2,3,44.21,8.93c13.53,5.72,25.67,13.9,36.08,24.33c10.43,10.42,18.61,22.56,24.33,36.08
		c3.53,8.32,6.02,16.96,7.44,25.81c-10.02,0.22-18.64,3.89-25.61,10.88c-2.07,2.07-3.86,4.29-5.35,6.64
		c-0.28-3.96-2.2-7.62-5.34-10.12c-5.35-37.02-37.3-65.56-75.77-65.56c-42.21,0-76.57,34.35-76.57,76.57
		c0,42.21,34.35,76.57,76.57,76.57c6.7,0,13.22-0.87,19.41-2.5c0.88,0.18,1.79,0.26,2.71,0.26
		C160.94,217.14,162.73,216.79,164.39,216.13z"/>
</g>
</svg>
