<?xml version="1.0" encoding="UTF-8" standalone="no"?><!DOCTYPE svg PUBLIC "-//W3C//DTD SVG 1.1//EN" "http://www.w3.org/Graphics/SVG/1.1/DTD/svg11.dtd"><svg width="100%" height="100%" viewBox="0 0 300 300" version="1.1" xmlns="http://www.w3.org/2000/svg" xmlns:xlink="http://www.w3.org/1999/xlink" xml:space="preserve" xmlns:serif="http://www.serif.com/" style="fill-rule:evenodd;clip-rule:evenodd;stroke-linejoin:round;stroke-miterlimit:2;"><path d="M96.877,145.238c0,-0.741 0.317,-1.481 0.741,-2.01c1.27,2.645 2.222,5.502 2.645,8.358c-2.116,-1.693 -3.386,-3.915 -3.386,-6.348Z" style="fill-rule:nonzero;"/><path d="M52.335,237.918c-0.635,-3.915 -1.799,-7.618 -3.386,-11.215c-0.529,-1.375 -1.164,-2.645 -1.904,-3.809c-2.433,-4.655 -5.502,-8.781 -9.205,-12.484c-4.655,-4.655 -10.051,-8.358 -16.293,-11.003c-3.597,-1.587 -7.406,-2.645 -11.215,-3.386c-4.655,-0.846 -8.676,3.28 -7.935,7.935c0.635,3.915 1.799,7.618 3.386,11.215c2.751,6.242 6.348,11.638 11.003,16.293c4.655,4.655 10.051,8.358 16.293,11.003c3.597,1.587 7.406,2.645 11.215,3.386c3.174,0.529 6.136,-1.27 7.406,-4.02c0.741,-1.164 0.952,-2.539 0.635,-3.915Zm-27.402,-14.389c-4.126,-4.126 -7.089,-8.781 -9.099,-14.283c5.396,2.01 10.157,5.078 14.283,9.099c4.126,4.02 7.089,8.781 9.099,14.283c-5.502,-2.01 -10.263,-5.078 -14.283,-9.099Z" style="fill-rule:nonzero;"/><path d="M95.713,196.022c-3.915,0.635 -7.618,1.799 -11.215,3.386c-6.242,2.751 -11.638,6.348 -16.293,11.003c-4.655,4.655 -8.358,10.051 -11.003,16.293c-1.587,3.597 -2.645,7.406 -3.386,11.215c-0.846,4.655 3.28,8.676 7.935,7.935c3.915,-0.635 7.618,-1.799 11.215,-3.386c6.242,-2.751 11.638,-6.348 16.293,-11.003c4.655,-4.655 8.358,-10.051 11.003,-16.293c1.587,-3.597 2.645,-7.3 3.386,-11.215c0.741,-4.655 -3.28,-8.781 -7.935,-7.935Zm-14.494,27.508c-4.126,4.02 -8.781,7.089 -14.177,9.099c2.01,-5.396 5.078,-10.157 9.099,-14.283c4.126,-4.126 8.781,-7.089 14.283,-9.099c-2.01,5.396 -5.078,10.157 -9.205,14.283Z" style="fill-rule:nonzero;"/><path d="M95.713,196.022c-3.915,0.635 -7.618,1.799 -11.215,3.386c-6.242,2.751 -11.638,6.348 -16.293,11.003c-4.655,4.655 -8.358,10.051 -11.003,16.293c-1.587,3.597 -2.645,7.406 -3.386,11.215c-0.846,4.655 3.28,8.676 7.935,7.935c3.915,-0.635 7.618,-1.799 11.215,-3.386c6.242,-2.751 11.638,-6.348 16.293,-11.003c4.655,-4.655 8.358,-10.051 11.003,-16.293c1.587,-3.597 2.645,-7.3 3.386,-11.215c0.741,-4.655 -3.28,-8.781 -7.935,-7.935Zm-14.494,27.508c-4.126,4.02 -8.781,7.089 -14.177,9.099c2.01,-5.396 5.078,-10.157 9.099,-14.283c4.126,-4.126 8.781,-7.089 14.283,-9.099c-2.01,5.396 -5.078,10.157 -9.205,14.283Zm-28.883,14.389c-0.635,-3.915 -1.799,-7.618 -3.386,-11.215c-0.529,-1.375 -1.164,-2.645 -1.904,-3.809c-2.433,-4.655 -5.502,-8.781 -9.205,-12.484c-4.655,-4.655 -10.051,-8.358 -16.293,-11.003c-3.597,-1.587 -7.406,-2.645 -11.215,-3.386c-4.655,-0.846 -8.676,3.28 -7.935,7.935c0.635,3.915 1.799,7.618 3.386,11.215c2.751,6.242 6.348,11.638 11.003,16.293c4.655,4.655 10.051,8.358 16.293,11.003c3.597,1.587 7.406,2.645 11.215,3.386c3.174,0.529 6.136,-1.27 7.406,-4.02c0.741,-1.164 0.952,-2.539 0.635,-3.915Zm-27.402,-14.389c-4.126,-4.126 -7.089,-8.781 -9.099,-14.283c5.396,2.01 10.157,5.078 14.283,9.099c4.126,4.02 7.089,8.781 9.099,14.283c-5.502,-2.01 -10.263,-5.078 -14.283,-9.099Z" style="fill-rule:nonzero;"/><path d="M52.335,237.918c-0.635,-3.915 -1.799,-7.618 -3.386,-11.215c-0.529,-1.375 -1.164,-2.645 -1.904,-3.809l-0.423,4.973c-0.423,5.184 1.164,9.734 4.761,13.648c0.106,0.106 0.317,0.317 0.423,0.423c0.635,-1.27 0.846,-2.645 0.529,-4.02Zm43.378,-41.896c-3.915,0.635 -7.618,1.799 -11.215,3.386c-6.242,2.751 -11.638,6.348 -16.293,11.003c-4.655,4.655 -8.358,10.051 -11.003,16.293c-1.587,3.597 -2.645,7.406 -3.386,11.215c-0.846,4.655 3.28,8.676 7.935,7.935c3.915,-0.635 7.618,-1.799 11.215,-3.386c6.242,-2.751 11.638,-6.348 16.293,-11.003c4.655,-4.655 8.358,-10.051 11.003,-16.293c1.587,-3.597 2.645,-7.3 3.386,-11.215c0.741,-4.655 -3.28,-8.781 -7.935,-7.935Zm-14.494,27.508c-4.126,4.02 -8.781,7.089 -14.177,9.099c2.01,-5.396 5.078,-10.157 9.099,-14.283c4.126,-4.126 8.781,-7.089 14.283,-9.099c-2.01,5.396 -5.078,10.157 -9.205,14.283Zm168.749,-84.216c-1.164,-12.59 -4.549,-24.228 -10.157,-35.125c-5.607,-10.897 -12.802,-20.313 -21.477,-28.354c-8.781,-7.935 -18.726,-14.283 -30.047,-18.832c-11.215,-4.549 -23.276,-6.877 -35.972,-6.877c-12.696,0 -24.651,2.328 -35.972,6.877c-11.109,4.549 -21.16,10.792 -29.835,18.832c-8.781,8.041 -15.87,17.457 -21.477,28.354c-2.116,4.232 -4.02,8.464 -5.502,13.013c3.386,0.741 6.665,2.222 9.628,4.232c2.645,1.799 4.867,3.915 6.665,6.242c2.01,0.212 3.915,0.741 5.713,1.375c0.106,-0.846 0.212,-1.693 0.423,-2.539c0.741,-4.232 1.904,-8.358 3.597,-12.378c4.02,2.539 8.252,4.444 12.802,5.819c4.444,1.375 9.099,2.01 13.86,2.01c8.041,0 15.658,-1.799 22.747,-5.502c7.089,-3.703 12.907,-8.887 17.563,-15.552c4.655,6.665 10.474,11.955 17.563,15.552c7.089,3.703 14.706,5.502 22.747,5.502c4.761,0 9.416,-0.635 13.86,-2.01c4.444,-1.375 8.781,-3.28 12.802,-5.819c1.693,4.02 2.857,8.147 3.597,12.378c0.741,4.232 1.164,8.676 1.164,13.331c0,12.484 -2.751,23.805 -8.252,33.961c1.375,-0.952 2.857,-1.799 4.444,-2.328c14.283,-4.655 19.255,-9.522 23.805,-23.805c1.058,-3.386 3.174,-6.136 5.925,-8.041l-0.212,-0.317Zm-72.578,96.806c-5.819,-1.904 -9.839,-7.3 -9.839,-13.436c0,-6.136 3.915,-11.532 9.839,-13.436c6.031,-1.904 9.205,-3.809 11.532,-7.512c-10.792,6.454 -22.958,9.734 -36.501,9.734c-14.283,0 -26.979,-3.597 -38.299,-10.792c0.212,1.693 0.212,3.386 -0.106,5.078c-0.846,4.655 -2.116,9.31 -4.02,13.648c-3.174,7.406 -7.723,13.965 -13.225,19.573c-3.068,3.174 -6.56,5.925 -10.263,8.252l104.318,0c-2.645,-6.242 -5.713,-8.57 -13.436,-11.109Z" style="fill-rule:nonzero;"/><path d="M88.942,172.005c-0.635,-1.904 -1.587,-3.597 -2.857,-5.184c1.375,-1.587 2.328,-3.386 2.962,-5.184c0.635,-1.799 0.952,-3.809 0.952,-5.819c0,-4.867 -1.693,-9.099 -5.184,-12.59c-1.164,-1.27 -2.539,-2.222 -4.02,-3.068c-2.328,-1.27 -4.973,-2.01 -7.723,-2.222l-2.222,0c-0.423,0 -0.846,0.106 -1.27,0.106c-1.375,-3.28 -3.491,-6.031 -6.454,-8.041c-2.01,-1.375 -4.126,-2.328 -6.454,-2.751c-1.164,-0.212 -2.328,-0.317 -3.597,-0.317c-3.703,0 -7.089,1.058 -10.051,3.068c-2.962,2.01 -5.184,4.761 -6.454,8.041c-0.529,0 -0.846,0 -1.27,-0.106c-0.423,0 -0.846,-0.106 -1.27,-0.106c-5.607,0 -10.263,2.222 -13.965,6.771c-1.693,2.01 -2.857,4.444 -3.386,6.983c-0.741,3.491 -0.529,6.771 0.529,9.945c0.635,1.904 1.587,3.597 2.857,5.184c-1.375,1.587 -2.328,3.386 -2.962,5.184c-0.635,1.799 -0.952,3.809 -0.952,5.713c0,4.973 1.799,9.205 5.29,12.696c3.491,3.491 7.723,5.29 12.696,5.29c0.529,0 0.846,0 1.27,-0.106c0.423,0 0.846,-0.106 1.27,-0.106c1.375,3.28 3.491,6.031 6.454,8.041c1.799,1.164 3.597,2.01 5.607,2.539c1.375,0.317 2.857,0.529 4.444,0.529c3.703,0 7.089,-1.058 10.051,-3.068c2.962,-2.01 5.184,-4.761 6.454,-8.041c0.529,0 0.846,0 1.27,0.106c0.423,0.106 0.846,0.106 1.27,0.106c5.607,0 10.263,-2.222 13.965,-6.771c1.693,-2.01 2.857,-4.444 3.386,-6.983c0.529,-2.433 0.635,-4.761 0.212,-6.983c-0.212,-0.952 -0.529,-1.904 -0.846,-2.857Zm-59.565,-20.737c1.27,-1.27 2.857,-1.904 4.655,-1.904c0.741,0 1.481,0.106 2.116,0.317c0.635,0.212 1.164,0.423 1.587,0.846l4.549,3.28c-0.741,0.635 -1.481,1.375 -2.116,2.116c-0.635,0.741 -1.27,1.587 -1.693,2.433c-0.423,0.846 -0.846,1.799 -1.27,2.751c-0.423,0.952 -0.635,2.01 -0.846,3.068l-4.973,-2.433c-1.164,-0.529 -2.116,-1.375 -2.751,-2.433c-0.741,-1.058 -1.058,-2.222 -1.058,-3.386c-0.106,-1.904 0.529,-3.386 1.799,-4.655Zm8.358,31.846c-0.529,0.423 -1.164,0.741 -1.693,0.952c-0.529,0.106 -1.27,0.212 -2.01,0.212c-1.799,0 -3.28,-0.635 -4.444,-1.904c-1.164,-1.27 -1.799,-2.751 -1.904,-4.549c0,-1.27 0.317,-2.328 0.952,-3.386c0.635,-1.058 1.587,-1.904 2.645,-2.433l4.973,-2.433c0.212,1.058 0.423,2.116 0.846,3.068c0.423,0.952 0.846,1.904 1.27,2.751c0.423,0.846 1.058,1.693 1.799,2.433c0.741,0.741 1.481,1.481 2.222,2.116l-4.655,3.174Zm20.102,10.368c-1.375,1.27 -2.962,1.799 -4.761,1.799c-1.164,0 -2.328,-0.317 -3.386,-0.846c-0.529,-0.317 -0.952,-0.635 -1.375,-0.952c-1.375,-1.27 -2.01,-2.751 -1.799,-4.444l0.741,-6.242c0.952,0.423 1.904,0.635 2.857,0.846c0.212,0 0.423,0.106 0.635,0.106c0.741,0.106 1.587,0.212 2.328,0.212c1.058,0 2.01,-0.106 2.962,-0.317c0.952,-0.212 1.904,-0.423 2.857,-0.846l0.741,6.242c0.212,1.693 -0.423,3.174 -1.799,4.444Zm-10.474,-26.661c0,-1.587 0.529,-2.962 1.587,-4.02c1.058,-1.058 2.328,-1.587 3.809,-1.587l0.317,0c1.587,0 2.962,0.529 4.02,1.587c1.058,1.058 1.587,2.433 1.587,4.02c0,1.587 -0.529,2.962 -1.587,4.02c-1.058,1.058 -2.433,1.587 -4.02,1.587c-0.423,0 -0.952,0 -1.27,-0.106c-1.058,-0.212 -1.904,-0.741 -2.751,-1.481c-1.164,-1.058 -1.693,-2.433 -1.693,-4.02Zm12.273,-22.218l-0.741,6.242c-0.952,-0.423 -1.904,-0.635 -2.857,-0.846c-0.741,-0.106 -1.481,-0.212 -2.222,-0.317l-0.741,0c-1.058,0 -2.01,0.106 -2.962,0.317c-0.952,0.212 -1.904,0.529 -2.857,0.846l-0.741,-6.242c-0.212,-1.693 0.423,-3.174 1.799,-4.444c1.375,-1.27 2.962,-1.904 4.761,-1.904c0.635,0 1.164,0.106 1.799,0.212c1.058,0.317 2.116,0.846 2.962,1.587c1.375,1.375 2.01,2.857 1.799,4.549Zm8.781,5.819c0.529,-0.423 1.164,-0.635 1.693,-0.846c0.529,-0.212 1.27,-0.317 2.01,-0.317c1.799,0 3.28,0.635 4.549,1.904c1.164,1.164 1.799,2.645 1.799,4.232c0.106,1.27 -0.212,2.645 -0.952,3.703c-0.635,1.058 -1.587,1.904 -2.751,2.433l-4.973,2.433c-0.212,-1.058 -0.529,-2.116 -0.846,-3.068c-0.423,-0.952 -0.846,-1.904 -1.27,-2.751c-0.423,-0.846 -1.058,-1.693 -1.799,-2.433c-0.741,-0.741 -1.481,-1.481 -2.222,-2.116l4.761,-3.174Zm8.358,31.951c-1.27,1.27 -2.857,1.904 -4.655,1.904c-0.741,0 -1.481,-0.106 -2.116,-0.317c-0.635,-0.212 -1.164,-0.529 -1.587,-0.846l-4.549,-3.28c0.741,-0.635 1.481,-1.375 2.116,-2.116c0.635,-0.741 1.27,-1.587 1.693,-2.433c0.423,-0.846 0.846,-1.799 1.27,-2.751c0.423,-0.952 0.635,-2.01 0.846,-3.068l4.973,2.433c1.164,0.529 2.116,1.375 2.751,2.328c0.741,0.952 1.058,2.116 1.058,3.491c0.106,1.904 -0.529,3.386 -1.799,4.655Z" style="fill-rule:nonzero;"/><g><g><path d="M135.917,145.238c0,6.348 -8.252,10.897 -19.573,10.897c-6.983,0 -12.802,-1.799 -16.187,-4.549c-2.116,-1.799 -3.386,-3.915 -3.386,-6.348c0,-0.741 0.317,-1.481 0.741,-2.01c0.635,-0.741 1.481,-1.27 2.539,-1.27c1.799,0 3.28,1.481 3.28,3.28c0,1.058 4.02,4.338 13.013,4.338c8.993,0 13.013,-3.386 13.013,-4.338c0,-1.799 1.481,-3.28 3.28,-3.28c1.799,0 3.28,1.481 3.28,3.28Z" style="fill-rule:nonzero;"/></g></g><g><g><path d="M208.601,145.238c0,6.348 -8.252,10.897 -19.573,10.897c-11.32,0 -19.573,-4.549 -19.573,-10.897c0,-1.799 1.481,-3.28 3.28,-3.28c1.799,0 3.28,1.481 3.28,3.28c0,1.058 4.02,4.338 13.013,4.338c8.887,0 13.013,-3.386 13.013,-4.338c0,-1.799 1.481,-3.28 3.28,-3.28c1.799,0 3.28,1.481 3.28,3.28Z" style="fill-rule:nonzero;"/></g></g><g><path d="M152.527,198.561c-11.744,0 -20.948,-6.983 -20.948,-15.87c0,-2.222 1.799,-4.126 4.126,-4.126c2.222,0 4.126,1.799 4.126,4.126c0,4.126 5.925,7.723 12.802,7.723c6.771,0 12.802,-3.597 12.802,-7.723c0,-2.222 1.799,-4.126 4.126,-4.126c2.222,0 4.126,1.799 4.126,4.126c-0.212,8.887 -9.416,15.87 -21.16,15.87Z" style="fill-rule:nonzero;"/></g><path d="M294.615,191.261c-17.457,5.607 -24.969,13.119 -30.682,30.682c-0.952,2.857 -3.703,3.915 -6.031,3.386c-1.587,-0.423 -3.068,-1.481 -3.703,-3.386c-5.607,-17.457 -13.119,-24.969 -30.682,-30.682c-4.761,-1.481 -4.761,-8.252 0,-9.734c15.023,-4.867 22.747,-11.109 28.143,-23.911c0.846,-2.116 1.693,-4.338 2.539,-6.771c1.481,-4.761 8.252,-4.761 9.734,0c5.607,17.457 13.119,24.969 30.682,30.682c4.655,1.481 4.655,8.147 0,9.734Z" style="fill-rule:nonzero;"/><path d="M230.184,226.069c-12.167,3.915 -17.351,9.099 -21.266,21.16c0,0.106 -0.106,0.106 -0.106,0.212c-1.058,3.28 -5.713,3.28 -6.771,0c0,-0.106 -0.106,-0.212 -0.106,-0.212c-3.915,-12.061 -9.205,-17.245 -21.266,-21.16c-3.28,-1.058 -3.28,-5.713 0,-6.771c12.167,-3.915 17.457,-9.205 21.371,-21.371c1.058,-3.28 5.713,-3.28 6.771,0c3.915,12.167 9.205,17.457 21.371,21.371c3.386,1.058 3.386,5.713 0,6.771Z" style="fill-rule:nonzero;"/></svg>