<?xml version="1.0" encoding="utf-8"?>
<!-- Generator: Adobe Illustrator 23.0.1, SVG Export Plug-In . SVG Version: 6.00 Build 0)  -->
<svg version="1.1" id="Layer_1" xmlns="http://www.w3.org/2000/svg" xmlns:xlink="http://www.w3.org/1999/xlink" x="0px" y="0px"
	 viewBox="0 0 300 300" style="enable-background:new 0 0 300 300;" xml:space="preserve">
<style type="text/css">
	.st0{fill:none;stroke:#000000;stroke-width:6;stroke-miterlimit:10;}
	.st1{fill:none;}
	.st2{stroke:#000000;stroke-width:2;stroke-miterlimit:10;}
	.st3{fill:#FFFFFF;}
</style>
<path d="M99.8,145.5c0-0.7,0.3-1.4,0.7-1.9c1.2,2.5,2.1,5.2,2.5,7.9C101,149.9,99.8,147.8,99.8,145.5z"/>
<path d="M57.7,233.1c-0.6-3.7-1.7-7.2-3.2-10.6c-0.5-1.3-1.1-2.5-1.8-3.6c-2.3-4.4-5.2-8.3-8.7-11.8c-4.4-4.4-9.5-7.9-15.4-10.4
	c-3.4-1.5-7-2.5-10.6-3.2c-4.4-0.8-8.2,3.1-7.5,7.5c0.6,3.7,1.7,7.2,3.2,10.6c2.6,5.9,6,11,10.4,15.4c4.4,4.4,9.5,7.9,15.4,10.4
	c3.4,1.5,7,2.5,10.6,3.2c3,0.5,5.8-1.2,7-3.8C57.8,235.7,58,234.4,57.7,233.1z M31.8,219.5c-3.9-3.9-6.7-8.3-8.6-13.5
	c5.1,1.9,9.6,4.8,13.5,8.6c3.9,3.8,6.7,8.3,8.6,13.5C40.1,226.2,35.6,223.3,31.8,219.5z"/>
<path d="M98.7,193.5c-3.7,0.6-7.2,1.7-10.6,3.2c-5.9,2.6-11,6-15.4,10.4c-4.4,4.4-7.9,9.5-10.4,15.4c-1.5,3.4-2.5,7-3.2,10.6
	c-0.8,4.4,3.1,8.2,7.5,7.5c3.7-0.6,7.2-1.7,10.6-3.2c5.9-2.6,11-6,15.4-10.4s7.9-9.5,10.4-15.4c1.5-3.4,2.5-6.9,3.2-10.6
	C106.9,196.6,103.1,192.7,98.7,193.5z M85,219.5c-3.9,3.8-8.3,6.7-13.4,8.6c1.9-5.1,4.8-9.6,8.6-13.5c3.9-3.9,8.3-6.7,13.5-8.6
	C91.8,211.1,88.9,215.6,85,219.5z"/>
<path d="M98.7,193.5c-3.7,0.6-7.2,1.7-10.6,3.2c-5.9,2.6-11,6-15.4,10.4c-4.4,4.4-7.9,9.5-10.4,15.4c-1.5,3.4-2.5,7-3.2,10.6
	c-0.8,4.4,3.1,8.2,7.5,7.5c3.7-0.6,7.2-1.7,10.6-3.2c5.9-2.6,11-6,15.4-10.4s7.9-9.5,10.4-15.4c1.5-3.4,2.5-6.9,3.2-10.6
	C106.9,196.6,103.1,192.7,98.7,193.5z M85,219.5c-3.9,3.8-8.3,6.7-13.4,8.6c1.9-5.1,4.8-9.6,8.6-13.5c3.9-3.9,8.3-6.7,13.5-8.6
	C91.8,211.1,88.9,215.6,85,219.5z M57.7,233.1c-0.6-3.7-1.7-7.2-3.2-10.6c-0.5-1.3-1.1-2.5-1.8-3.6c-2.3-4.4-5.2-8.3-8.7-11.8
	c-4.4-4.4-9.5-7.9-15.4-10.4c-3.4-1.5-7-2.5-10.6-3.2c-4.4-0.8-8.2,3.1-7.5,7.5c0.6,3.7,1.7,7.2,3.2,10.6c2.6,5.9,6,11,10.4,15.4
	c4.4,4.4,9.5,7.9,15.4,10.4c3.4,1.5,7,2.5,10.6,3.2c3,0.5,5.8-1.2,7-3.8C57.8,235.7,58,234.4,57.7,233.1z M31.8,219.5
	c-3.9-3.9-6.7-8.3-8.6-13.5c5.1,1.9,9.6,4.8,13.5,8.6c3.9,3.8,6.7,8.3,8.6,13.5C40.1,226.2,35.6,223.3,31.8,219.5z"/>
<path d="M57.7,233.1c-0.6-3.7-1.7-7.2-3.2-10.6c-0.5-1.3-1.1-2.5-1.8-3.6l-0.4,4.7c-0.4,4.9,1.1,9.2,4.5,12.9
	c0.1,0.1,0.3,0.3,0.4,0.4C57.8,235.7,58,234.4,57.7,233.1z M98.7,193.5c-3.7,0.6-7.2,1.7-10.6,3.2c-5.9,2.6-11,6-15.4,10.4
	c-4.4,4.4-7.9,9.5-10.4,15.4c-1.5,3.4-2.5,7-3.2,10.6c-0.8,4.4,3.1,8.2,7.5,7.5c3.7-0.6,7.2-1.7,10.6-3.2c5.9-2.6,11-6,15.4-10.4
	s7.9-9.5,10.4-15.4c1.5-3.4,2.5-6.9,3.2-10.6C106.9,196.6,103.1,192.7,98.7,193.5z M85,219.5c-3.9,3.8-8.3,6.7-13.4,8.6
	c1.9-5.1,4.8-9.6,8.6-13.5c3.9-3.9,8.3-6.7,13.5-8.6C91.8,211.1,88.9,215.6,85,219.5z M244.5,139.9c-1.1-11.9-4.3-22.9-9.6-33.2
	c-5.3-10.3-12.1-19.2-20.3-26.8c-8.3-7.5-17.7-13.5-28.4-17.8c-10.6-4.3-22-6.5-34-6.5s-23.3,2.2-34,6.5
	C107.7,66.4,98.2,72.3,90,79.9c-8.3,7.6-15,16.5-20.3,26.8c-2,4-3.8,8-5.2,12.3c3.2,0.7,6.3,2.1,9.1,4c2.5,1.7,4.6,3.7,6.3,5.9
	c1.9,0.2,3.7,0.7,5.4,1.3c0.1-0.8,0.2-1.6,0.4-2.4c0.7-4,1.8-7.9,3.4-11.7c3.8,2.4,7.8,4.2,12.1,5.5c4.2,1.3,8.6,1.9,13.1,1.9
	c7.6,0,14.8-1.7,21.5-5.2c6.7-3.5,12.2-8.4,16.6-14.7c4.4,6.3,9.9,11.3,16.6,14.7c6.7,3.5,13.9,5.2,21.5,5.2c4.5,0,8.9-0.6,13.1-1.9
	c4.2-1.3,8.3-3.1,12.1-5.5c1.6,3.8,2.7,7.7,3.4,11.7c0.7,4,1.1,8.2,1.1,12.6c0,11.8-2.6,22.5-7.8,32.1c1.3-0.9,2.7-1.7,4.2-2.2
	c13.5-4.4,18.2-9,22.5-22.5c1-3.2,3-5.8,5.6-7.6L244.5,139.9z M175.9,231.4c-5.5-1.8-9.3-6.9-9.3-12.7c0-5.8,3.7-10.9,9.3-12.7
	c5.7-1.8,8.7-3.6,10.9-7.1c-10.2,6.1-21.7,9.2-34.5,9.2c-13.5,0-25.5-3.4-36.2-10.2c0.2,1.6,0.2,3.2-0.1,4.8
	c-0.8,4.4-2,8.8-3.8,12.9c-3,7-7.3,13.2-12.5,18.5c-2.9,3-6.2,5.6-9.7,7.8h98.6C186.1,236,183.2,233.8,175.9,231.4z"/>
<path d="M92.3,170.8c-0.6-1.8-1.5-3.4-2.7-4.9c1.3-1.5,2.2-3.2,2.8-4.9s0.9-3.6,0.9-5.5c0-4.6-1.6-8.6-4.9-11.9
	c-1.1-1.2-2.4-2.1-3.8-2.9c-2.2-1.2-4.7-1.9-7.3-2.1c-0.8,0-1.5,0-2.1,0c-0.4,0-0.8,0.1-1.2,0.1c-1.3-3.1-3.3-5.7-6.1-7.6
	c-1.9-1.3-3.9-2.2-6.1-2.6c-1.1-0.2-2.2-0.3-3.4-0.3c-3.5,0-6.7,1-9.5,2.9c-2.8,1.9-4.9,4.5-6.1,7.6c-0.5,0-0.8,0-1.2-0.1
	c-0.4,0-0.8-0.1-1.2-0.1c-5.3,0-9.7,2.1-13.2,6.4c-1.6,1.9-2.7,4.2-3.2,6.6c-0.7,3.3-0.5,6.4,0.5,9.4c0.6,1.8,1.5,3.4,2.7,4.9
	c-1.3,1.5-2.2,3.2-2.8,4.9s-0.9,3.6-0.9,5.4c0,4.7,1.7,8.7,5,12c3.3,3.3,7.3,5,12,5c0.5,0,0.8,0,1.2-0.1c0.4,0,0.8-0.1,1.2-0.1
	c1.3,3.1,3.3,5.7,6.1,7.6c1.7,1.1,3.4,1.9,5.3,2.4c1.3,0.3,2.7,0.5,4.2,0.5c3.5,0,6.7-1,9.5-2.9c2.8-1.9,4.9-4.5,6.1-7.6
	c0.5,0,0.8,0,1.2,0.1c0.4,0.1,0.8,0.1,1.2,0.1c5.3,0,9.7-2.1,13.2-6.4c1.6-1.9,2.7-4.2,3.2-6.6c0.5-2.3,0.6-4.5,0.2-6.6
	C92.9,172.6,92.6,171.7,92.3,170.8z M36,151.2c1.2-1.2,2.7-1.8,4.4-1.8c0.7,0,1.4,0.1,2,0.3c0.6,0.2,1.1,0.4,1.5,0.8l4.3,3.1
	c-0.7,0.6-1.4,1.3-2,2c-0.6,0.7-1.2,1.5-1.6,2.3s-0.8,1.7-1.2,2.6c-0.4,0.9-0.6,1.9-0.8,2.9l-4.7-2.3c-1.1-0.5-2-1.3-2.6-2.3
	c-0.7-1-1-2.1-1-3.2C34.2,153.8,34.8,152.4,36,151.2z M43.9,181.3c-0.5,0.4-1.1,0.7-1.6,0.9c-0.5,0.1-1.2,0.2-1.9,0.2
	c-1.7,0-3.1-0.6-4.2-1.8c-1.1-1.2-1.7-2.6-1.8-4.3c0-1.2,0.3-2.2,0.9-3.2c0.6-1,1.5-1.8,2.5-2.3l4.7-2.3c0.2,1,0.4,2,0.8,2.9
	c0.4,0.9,0.8,1.8,1.2,2.6s1,1.6,1.7,2.3c0.7,0.7,1.4,1.4,2.1,2L43.9,181.3z M62.9,191.1c-1.3,1.2-2.8,1.7-4.5,1.7
	c-1.1,0-2.2-0.3-3.2-0.8c-0.5-0.3-0.9-0.6-1.3-0.9c-1.3-1.2-1.9-2.6-1.7-4.2l0.7-5.9c0.9,0.4,1.8,0.6,2.7,0.8c0.2,0,0.4,0.1,0.6,0.1
	c0.7,0.1,1.5,0.2,2.2,0.2c1,0,1.9-0.1,2.8-0.3c0.9-0.2,1.8-0.4,2.7-0.8l0.7,5.9C64.8,188.5,64.2,189.9,62.9,191.1z M53,165.9
	c0-1.5,0.5-2.8,1.5-3.8c1-1,2.2-1.5,3.6-1.5c0.1,0,0.2,0,0.3,0c1.5,0,2.8,0.5,3.8,1.5c1,1,1.5,2.3,1.5,3.8c0,1.5-0.5,2.8-1.5,3.8
	c-1,1-2.3,1.5-3.8,1.5c-0.4,0-0.9,0-1.2-0.1c-1-0.2-1.8-0.7-2.6-1.4C53.5,168.7,53,167.4,53,165.9z M64.6,144.9l-0.7,5.9
	c-0.9-0.4-1.8-0.6-2.7-0.8c-0.7-0.1-1.4-0.2-2.1-0.3c-0.2,0-0.5,0-0.7,0c-1,0-1.9,0.1-2.8,0.3c-0.9,0.2-1.8,0.5-2.7,0.8l-0.7-5.9
	c-0.2-1.6,0.4-3,1.7-4.2c1.3-1.2,2.8-1.8,4.5-1.8c0.6,0,1.1,0.1,1.7,0.2c1,0.3,2,0.8,2.8,1.5C64.2,141.9,64.8,143.3,64.6,144.9z
	 M72.9,150.4c0.5-0.4,1.1-0.6,1.6-0.8c0.5-0.2,1.2-0.3,1.9-0.3c1.7,0,3.1,0.6,4.3,1.8c1.1,1.1,1.7,2.5,1.7,4
	c0.1,1.2-0.2,2.5-0.9,3.5c-0.6,1-1.5,1.8-2.6,2.3l-4.7,2.3c-0.2-1-0.5-2-0.8-2.9c-0.4-0.9-0.8-1.8-1.2-2.6s-1-1.6-1.7-2.3
	c-0.7-0.7-1.4-1.4-2.1-2L72.9,150.4z M80.8,180.6c-1.2,1.2-2.7,1.8-4.4,1.8c-0.7,0-1.4-0.1-2-0.3c-0.6-0.2-1.1-0.5-1.5-0.8l-4.3-3.1
	c0.7-0.6,1.4-1.3,2-2c0.6-0.7,1.2-1.5,1.6-2.3s0.8-1.7,1.2-2.6c0.4-0.9,0.6-1.9,0.8-2.9l4.7,2.3c1.1,0.5,2,1.3,2.6,2.2
	c0.7,0.9,1,2,1,3.3C82.6,178,82,179.4,80.8,180.6z"/>
<g>
	<g>
		<path d="M136.7,145.5c0,6-7.8,10.3-18.5,10.3c-6.6,0-12.1-1.7-15.3-4.3c-2-1.7-3.2-3.7-3.2-6c0-0.7,0.3-1.4,0.7-1.9
			c0.6-0.7,1.4-1.2,2.4-1.2c1.7,0,3.1,1.4,3.1,3.1c0,1,3.8,4.1,12.3,4.1s12.3-3.2,12.3-4.1c0-1.7,1.4-3.1,3.1-3.1
			C135.3,142.4,136.7,143.8,136.7,145.5z"/>
	</g>
</g>
<g>
	<g>
		<path d="M205.4,145.5c0,6-7.8,10.3-18.5,10.3c-10.7,0-18.5-4.3-18.5-10.3c0-1.7,1.4-3.1,3.1-3.1c1.7,0,3.1,1.4,3.1,3.1
			c0,1,3.8,4.1,12.3,4.1c8.4,0,12.3-3.2,12.3-4.1c0-1.7,1.4-3.1,3.1-3.1C204,142.4,205.4,143.8,205.4,145.5z"/>
	</g>
</g>
<g>
	<path d="M152.4,195.9c-11.1,0-19.8-6.6-19.8-15c0-2.1,1.7-3.9,3.9-3.9c2.1,0,3.9,1.7,3.9,3.9c0,3.9,5.6,7.3,12.1,7.3
		c6.4,0,12.1-3.4,12.1-7.3c0-2.1,1.7-3.9,3.9-3.9c2.1,0,3.9,1.7,3.9,3.9C172.2,189.3,163.5,195.9,152.4,195.9z"/>
</g>
<path d="M286.7,189c-16.5,5.3-23.6,12.4-29,29c-0.9,2.7-3.5,3.7-5.7,3.2v0c-1.5-0.4-2.9-1.4-3.5-3.2c-5.3-16.5-12.4-23.6-29-29
	c-4.5-1.4-4.5-7.8,0-9.2c14.2-4.6,21.5-10.5,26.6-22.6c0.8-2,1.6-4.1,2.4-6.4c1.4-4.5,7.8-4.5,9.2,0c5.3,16.5,12.4,23.6,29,29
	C291.1,181.2,291.1,187.5,286.7,189z"/>
<path d="M225.8,221.9c-11.5,3.7-16.4,8.6-20.1,20c0,0.1-0.1,0.1-0.1,0.2c-1,3.1-5.4,3.1-6.4,0c0-0.1-0.1-0.2-0.1-0.2
	c-3.7-11.4-8.7-16.3-20.1-20c-3.1-1-3.1-5.4,0-6.4c11.5-3.7,16.5-8.7,20.2-20.2c1-3.1,5.4-3.1,6.4,0c3.7,11.5,8.7,16.5,20.2,20.2
	C229,216.5,229,220.9,225.8,221.9z"/>
</svg>
