<?xml version="1.0" encoding="utf-8"?>
<!-- Generator: Adobe Illustrator 23.0.1, SVG Export Plug-In . SVG Version: 6.00 Build 0)  -->
<svg version="1.1" id="Layer_1" xmlns="http://www.w3.org/2000/svg" xmlns:xlink="http://www.w3.org/1999/xlink" x="0px" y="0px"
	 viewBox="0 0 300 300" style="enable-background:new 0 0 300 300;" xml:space="preserve">
<style type="text/css">
	.st0{fill:none;}
	.st1{stroke:#000000;stroke-width:12;stroke-linecap:round;stroke-linejoin:round;stroke-miterlimit:10;}
	.st2{fill:none;stroke:#000000;stroke-width:16;stroke-linecap:round;stroke-linejoin:round;stroke-miterlimit:10;}
	.st3{fill:#E3E3E3;}
	.st4{fill:#00FF00;}
	.st5{fill:#0000FF;}
	.st6{fill:#333333;}
</style>
<path d="M231.84,195.42c0.63-1.51,1.19-2.87,1.71-4.14c-3.04-12.99-14.7-22.65-28.61-22.65c-11.59,0-21.61,6.7-26.4,16.44
	c1.73,0.47,3.45,0.97,5.14,1.52c5.21,1.69,10.26,3.74,15.11,6.13h0.82v-12.93c0-2.94,2.39-5.33,5.33-5.33s5.33,2.39,5.33,5.33v12.93
	h12.93c2.94,0,5.33,2.39,5.33,5.33c0,1.43-0.56,2.76-1.56,3.77c-1.01,1-2.35,1.56-3.77,1.56h-12.93v12.93
	c0,2.94-2.39,5.33-5.33,5.33c-1.42,0-2.76-0.55-3.77-1.55c-1.01-1.01-1.56-2.35-1.56-3.78v-2.81c-3.83,3.06-7.94,5.78-12.28,8.11
	c4.91,3.69,11.01,5.86,17.61,5.86c15.42,0,28.07-11.88,29.3-26.99L231.84,195.42z M241.94,216.63
	c-6.46,12.83-19.4,21.86-34.49,22.76l2.19,1.05l21.73,10.34l18.18-18.18L241.94,216.63z M274.08,135.58l-27.81-9.89l-6.55-2.34
	c-3.1-7.47-4.65-11.24-7.75-18.72l3-6.29l14.71-30.89c-9.09-9.09-9.09-9.09-18.18-18.19l-30.85,14.7l-6.33,3.02
	c-7.47-3.1-11.24-4.65-18.72-7.75l-2.37-6.63l-9.94-27.82l-1.57-4.4H136l-1.57,4.4l-9.93,27.91l-2.31,6.48
	c-7.48,3.09-11.25,4.65-18.73,7.74l-6.12-2.9L66.29,49.2L48.1,67.38l14.85,31.16l2.87,6.03c-3.1,7.47-4.65,11.25-7.75,18.71
	l-6.26,2.24l-28.17,10.06l-4.43,1.58v25.73l4.43,1.58l28.27,10.05L58,176.7c0.4,0.95,0.77,1.84,1.12,2.69
	c0.17,0.4,0.33,0.8,0.48,1.18c0.2,0.46,0.38,0.93,0.57,1.37c0.12,0.29,0.24,0.58,0.36,0.88c0.16,0.37,0.31,0.75,0.46,1.12
	c0.15,0.35,0.3,0.71,0.44,1.07c0.63,1.5,1.24,2.97,1.9,4.56c0.11,0.27,0.22,0.54,0.34,0.82c0.63,1.52,1.3,3.17,2.08,5.03l-2.76,5.78
	l-14.95,31.4l18.18,18.18l31.38-14.95l5.8-2.76c7.47,3.1,11.24,4.65,18.72,7.75l2.18,6.12l10.06,28.27l1.57,4.4h25.72l1.57-4.4
	l10.02-28.14l2.22-6.25c5.02-2.08,8.37-3.46,12.29-5.08c-4.71-2.17-8.95-5.18-12.52-8.85c-8.22,2.82-17.03,4.34-26.21,4.34
	c-25.66,0-48.44-11.89-63.47-30.52c0-0.01-0.01-0.02-0.02-0.02c8.9-6.03,18.67-10.84,29.1-14.18c10.84-3.48,22.39-5.37,34.39-5.37
	c5.97,0,11.82,0.47,17.53,1.37c6.15-15.16,21.04-25.88,38.39-25.88c14.93,0,28.04,7.95,35.32,19.83l5.92-2.1l27.9-9.9l4.43-1.57
	v-25.73L274.08,135.58z M177.44,155.61c-0.15,0.21-0.33,0.4-0.5,0.58c-0.45,0.52-0.93,1.02-1.42,1.51
	c-0.12,0.13-0.24,0.25-0.36,0.37c-0.2,0.19-0.39,0.37-0.59,0.56c-0.09,0.08-0.18,0.16-0.27,0.25c-6.67,6.06-15.54,9.75-25.28,9.75
	c-20.79,0-37.57-16.79-37.57-37.57c0-7.76,2.34-14.95,6.35-20.93c1.47-2.19,3.17-4.23,5.06-6.06c0.41-0.4,0.83-0.78,1.26-1.16
	c0.35-0.31,0.71-0.61,1.07-0.9c0.17-0.15,0.33-0.28,0.5-0.4c0.19-0.15,0.38-0.29,0.57-0.42c6.3-4.84,14.2-7.69,22.76-7.69
	c12.78,0,24.04,6.33,30.82,16.04c4.25,6.09,6.75,13.5,6.75,21.52C186.59,140.46,183.16,149.04,177.44,155.61z"/>
<path d="M233.55,191.28c-3.04-12.99-14.7-22.65-28.61-22.65c-11.59,0-21.61,6.7-26.4,16.44c-1.94,3.92-3.02,8.32-3.02,12.98
	c0,9.64,4.64,18.2,11.81,23.56c4.91,3.69,11.01,5.86,17.61,5.86c15.42,0,28.07-11.88,29.3-26.99c0.08-0.8,0.11-1.61,0.11-2.43
	C234.35,195.72,234.08,193.45,233.55,191.28z M226.97,201.82c-1.01,1-2.35,1.56-3.77,1.56h-12.93v12.93c0,2.94-2.39,5.33-5.33,5.33
	c-1.42,0-2.76-0.55-3.77-1.55c-1.01-1.01-1.56-2.35-1.56-3.78v-12.93h-12.93c-2.94,0-5.33-2.39-5.33-5.33s2.39-5.33,5.33-5.33h12.93
	v-12.93c0-2.94,2.39-5.33,5.33-5.33s5.33,2.39,5.33,5.33v12.93h12.93c2.94,0,5.33,2.39,5.33,5.33
	C228.53,199.48,227.97,200.81,226.97,201.82z"/>
<path d="M233.55,191.28c-3.04-12.99-14.7-22.65-28.61-22.65c-11.59,0-21.61,6.7-26.4,16.44c-1.94,3.92-3.02,8.32-3.02,12.98
	c0,9.64,4.64,18.2,11.81,23.56c4.91,3.69,11.01,5.86,17.61,5.86c15.42,0,28.07-11.88,29.3-26.99c0.08-0.8,0.11-1.61,0.11-2.43
	C234.35,195.72,234.08,193.45,233.55,191.28z M226.97,201.82c-1.01,1-2.35,1.56-3.77,1.56h-12.93v12.93c0,2.94-2.39,5.33-5.33,5.33
	c-1.42,0-2.76-0.55-3.77-1.55c-1.01-1.01-1.56-2.35-1.56-3.78v-12.93h-12.93c-2.94,0-5.33-2.39-5.33-5.33s2.39-5.33,5.33-5.33h12.93
	v-12.93c0-2.94,2.39-5.33,5.33-5.33s5.33,2.39,5.33,5.33v12.93h12.93c2.94,0,5.33,2.39,5.33,5.33
	C228.53,199.48,227.97,200.81,226.97,201.82z"/>
</svg>
