<?xml version="1.0" encoding="UTF-8"?>
<svg version="1.1" xmlns="http://www.w3.org/2000/svg" width="1000" height="1000">
<path d="M0 0 C0.98709961 0.41137207 0.98709961 0.41137207 1.99414062 0.83105469 C33.62457468 14.25744002 62.27189197 35.6525989 90.07080078 55.61523438 C92.13599437 57.0976158 94.20668485 58.57213921 96.27734375 60.046875 C105.5082211 66.64542684 114.58394229 73.42700262 123.56933594 80.35644531 C124.80345215 81.30535645 124.80345215 81.30535645 126.0625 82.2734375 C126.77535156 82.82435059 127.48820313 83.37526367 128.22265625 83.94287109 C132.4190243 87.05104595 136.71265907 90.01909225 141 93 C140.99111755 92.31619263 140.98223511 91.63238525 140.9730835 90.92785645 C140.88436607 83.78988023 140.82416418 76.65206149 140.78027344 69.51367188 C140.76246351 66.85189753 140.73293715 64.19098972 140.69824219 61.52929688 C140.64954452 57.6965042 140.62698884 53.86429637 140.609375 50.03125 C140.58872986 48.84760864 140.56808472 47.66396729 140.54681396 46.44445801 C140.54469278 38.57710743 141.45689233 33.10588317 146.74609375 26.9765625 C147.30425781 26.53054687 147.86242187 26.08453125 148.4375 25.625 C148.99308594 25.16351563 149.54867187 24.70203125 150.12109375 24.2265625 C155.31564794 20.83552297 159.96154424 20.70297388 165.9777832 20.70947266 C167.32022598 20.69939682 167.32022598 20.69939682 168.68978882 20.68911743 C171.64350971 20.67014593 174.59700324 20.66621355 177.55078125 20.6640625 C179.60955396 20.65763362 181.66832576 20.65090519 183.72709656 20.64389038 C188.04196286 20.63191947 192.35674912 20.62820933 196.67163086 20.62939453 C202.18960879 20.62959762 207.70707112 20.60230457 213.22492695 20.56785011 C217.47755776 20.54556686 221.73006482 20.54155744 225.98274803 20.54261398 C228.01643842 20.54025983 230.05013232 20.53144681 232.08376503 20.51594925 C234.93421714 20.49626218 237.78356168 20.50213823 240.6340332 20.51416016 C241.46703445 20.50292114 242.30003571 20.49168213 243.15827942 20.48010254 C249.77649472 20.55071288 254.97763498 22.39189737 260.0234375 26.74609375 C260.46945312 27.30425781 260.91546875 27.86242187 261.375 28.4375 C261.83648438 28.99308594 262.29796875 29.54867187 262.7734375 30.12109375 C265.6318094 34.49968256 266.24068851 38.20559745 266.16407776 43.39146423 C266.14397141 45.32771667 266.14397141 45.32771667 266.12345886 47.30308533 C266.09871311 48.72671595 266.07391585 50.15034569 266.04907227 51.57397461 C266.03053105 53.07905783 266.01312428 54.58415539 265.99676514 56.08926392 C265.96084841 59.32827485 265.92024868 62.56718315 265.87704659 65.80610466 C265.81201147 70.9392268 265.77833952 76.0722492 265.75291443 81.20570374 C265.74854435 82.07352586 265.74417427 82.94134799 265.73967177 83.83546776 C265.72652846 86.50814898 265.71381684 89.180832 265.70117188 91.85351562 C265.6484679 102.90178488 265.57348177 113.94825342 265.40014648 124.99536133 C265.2738402 133.0592437 265.20850473 141.12110027 265.2128033 149.1860047 C265.21276812 153.44851875 265.18283594 157.70589509 265.07852364 161.96723747 C263.82747928 180.61538964 263.82747928 180.61538964 270.61227417 197.04055786 C274.02755384 200.1754264 277.68548431 202.51864311 281.75980949 204.7034626 C285.64931527 206.9545612 288.9612442 209.91030106 292.375 212.8125 C293.69665005 213.88987754 295.02052171 214.96454188 296.34765625 216.03515625 C301.24458116 220.00779769 306.12264152 224.00337848 311 228 C312.83321648 229.50014281 314.66655146 231.00014082 316.5 232.5 C317.41007813 233.24507812 318.32015625 233.99015625 319.2578125 234.7578125 C321.06324411 236.2340486 322.87049141 237.70806736 324.6796875 239.1796875 C330.25270639 243.718871 335.75881905 248.32775994 341.23388672 252.98388672 C344.44853729 255.70999437 347.6962813 258.38165568 351 261 C355.4488493 264.52591136 359.78016208 268.17570365 364.10229492 271.85449219 C367.6395736 274.86125731 371.21006755 277.82115257 374.8125 280.75 C375.69808594 281.47703125 376.58367188 282.2040625 377.49609375 282.953125 C379.08088567 284.24864913 380.67609004 285.53162636 382.28515625 286.796875 C388.11043857 291.54420788 391.62128336 296.86385008 394 304 C394.97089006 314.60605212 394.37502886 323.00161856 388 332 C385.886922 334.48538222 383.75947444 336.27103469 381 338 C380.37867188 338.40992188 379.75734375 338.81984375 379.1171875 339.2421875 C371.99370692 343.16958173 363.86480311 342.94377637 356 342 C352.03674712 340.65326358 348.01043718 339.01043718 345 336 C344.70284076 334.19566621 344.41199748 332.39008451 344.15161133 330.58007812 C339.92504189 301.53876874 328.57783813 273.83525937 310 251 C309.54753906 250.44070801 309.09507812 249.88141602 308.62890625 249.30517578 C281.28970662 215.73315726 241.24644256 193.57176679 198 189 C192.1923688 188.63014993 186.37982803 188.61058425 180.5625 188.625 C179.77241547 188.62521149 178.98233093 188.62542297 178.16830444 188.62564087 C165.08564208 188.66048657 152.71058785 189.72340915 140 193 C139.25347168 193.18191895 138.50694336 193.36383789 137.73779297 193.55126953 C115.71497161 198.99494903 94.57204732 209.7040971 77 224 C76.44070801 224.45246094 75.88141602 224.90492188 75.30517578 225.37109375 C42.56382224 252.03384566 20.71310448 290.73586106 15.3046875 332.7890625 C11.0866383 377.24081172 21.43984254 421.89480645 50 457 C50.45246094 457.55929199 50.90492188 458.11858398 51.37109375 458.69482422 C61.64334091 471.30894887 72.88624378 481.50613582 86.20947266 490.84985352 C87.33554932 491.63960571 87.33554932 491.63960571 88.484375 492.4453125 C89.16209961 492.91469238 89.83982422 493.38407227 90.53808594 493.86767578 C91.2617334 494.42817627 91.2617334 494.42817627 92 495 C92 495.33 92 495.66 92 496 C91.4335527 496.00364563 90.86710541 496.00729126 90.28349304 496.01104736 C52.41643352 495.91581214 52.41643352 495.91581214 15 501 C14.09846191 501.19110352 13.19692383 501.38220703 12.26806641 501.57910156 C-24.64545229 509.61807546 -58.7257183 525.8652711 -87 551 C-87.99128906 551.86882813 -88.98257812 552.73765625 -90.00390625 553.6328125 C-126.90160386 586.46423323 -148.77313602 636.05595327 -155.45703125 684.359375 C-156 688 -156 688 -157 691 C-173.87296825 691.1171052 -190.74580861 691.20512057 -207.61909103 691.25906086 C-215.45469547 691.28477854 -223.29004654 691.31980472 -231.12548828 691.37719727 C-237.95953434 691.42723074 -244.79339679 691.45933774 -251.62762094 691.47044247 C-255.24216984 691.47692782 -258.85619377 691.49203278 -262.47057343 691.52865028 C-266.51804814 691.5693181 -270.56462599 691.56993677 -274.61230469 691.56762695 C-275.79410812 691.58560333 -276.97591156 691.60357971 -278.19352722 691.62210083 C-290.07377784 691.54911154 -300.49076445 687.40773373 -309 679 C-311.36817907 676.15500636 -313.30883004 673.2918266 -315 670 C-315.32741818 669.37069537 -315.65483635 668.74139074 -315.99217629 668.09301627 C-319.57417826 660.35466498 -319.56614902 652.87017571 -319.51898193 644.52304077 C-319.52486467 642.96347797 -319.53249562 641.40392096 -319.541713 639.8443743 C-319.56190238 635.57987334 -319.55743798 631.31570639 -319.54880548 627.05117965 C-319.54384943 622.44459427 -319.56195944 617.83809158 -319.57722473 613.23153687 C-319.60051307 605.25734926 -319.60928633 597.28325253 -319.60811615 589.30903244 C-319.6064454 577.77976353 -319.62679706 566.25061561 -319.65247145 554.721379 C-319.69353372 536.01461663 -319.71686062 517.30787606 -319.72900391 498.60107422 C-319.7408359 480.43243312 -319.76103943 462.26383305 -319.79248047 444.09521484 C-319.79538462 442.41449019 -319.79538462 442.41449019 -319.79834744 440.6998115 C-319.80811217 435.07850681 -319.81804125 429.45720242 -319.82805204 423.83589816 C-319.91084918 377.22395212 -319.96485069 330.61200469 -320 284 C-320.42559204 284.37024292 -320.85118408 284.74048584 -321.28967285 285.12194824 C-323.24448248 286.8217077 -325.20035797 288.5202362 -327.15625 290.21875 C-328.16026855 291.09225098 -328.16026855 291.09225098 -329.18457031 291.98339844 C-332.90944434 295.2164798 -336.66350169 298.39904623 -340.5 301.5 C-346.82710863 306.62730136 -352.94414026 311.98983868 -359.0859375 317.3359375 C-363.84579921 321.47410299 -368.62268959 325.59166192 -373.43359375 329.67041016 C-374.88708886 330.90415928 -376.33443622 332.1451412 -377.78125 333.38671875 C-386.75200441 340.87619118 -394.17123515 344.0791502 -405.98046875 343.51171875 C-413.56358568 342.79544527 -420.30202674 339.22166058 -425.5 333.6875 C-426.8203125 331.8828125 -426.8203125 331.8828125 -428 330 C-428.40992188 329.37867188 -428.81984375 328.75734375 -429.2421875 328.1171875 C-433.60231876 320.20881149 -433.46446583 310.21792867 -431.0703125 301.6875 C-427.355232 293.24613366 -420.97952773 287.70386706 -414 282 C-413.11054688 281.26394531 -412.22109375 280.52789062 -411.3046875 279.76953125 C-409.53338302 278.31811907 -407.75583147 276.87430306 -405.97265625 275.4375 C-402.46681395 272.56280145 -399.04332653 269.60274222 -395.625 266.625 C-389.3273148 261.14127967 -382.97901869 255.72293943 -376.59277344 250.34277344 C-374.43575184 248.52431562 -372.28222817 246.70174231 -370.12890625 244.87890625 C-368.50560208 243.50474229 -366.88170882 242.13127662 -365.2578125 240.7578125 C-363.06301858 238.90088223 -360.87057029 237.04123031 -358.6796875 235.1796875 C-352.77146221 230.1632698 -346.82386172 225.20546884 -340.8125 220.3125 C-337.68200334 217.73853608 -334.58827539 215.12430914 -331.5 212.5 C-326.65179875 208.38016701 -321.75154155 204.33204036 -316.81640625 200.31640625 C-313.66214618 197.72212578 -310.54803805 195.08385983 -307.4375 192.4375 C-302.83956466 188.52891837 -298.18544116 184.70767627 -293.45703125 180.95703125 C-288.9321586 177.35295939 -284.47174634 173.66961105 -280 170 C-272.41089956 163.77923737 -264.80241224 157.58273542 -257.18359375 151.3984375 C-254.42288746 149.15717397 -251.66522 146.91225796 -248.91015625 144.6640625 C-240.90989503 138.1398963 -232.8538833 131.6966436 -224.71777344 125.34277344 C-221.80728339 123.06766041 -218.90412568 120.78322692 -216 118.5 C-214.82943288 117.58072178 -213.65885997 116.66145094 -212.48828125 115.7421875 C-210.19162503 113.93790057 -207.89753308 112.13042849 -205.60546875 110.3203125 C-203.3207561 108.51609275 -201.02976262 106.72030164 -198.734375 104.9296875 C-195.97276823 102.7739587 -193.24163806 100.58334304 -190.515625 98.3828125 C-188.98996373 97.17139577 -187.46392758 95.96045101 -185.9375 94.75 C-185.22295654 94.16428223 -184.50841309 93.57856445 -183.7722168 92.97509766 C-183.09328369 92.44190918 -182.41435059 91.9087207 -181.71484375 91.359375 C-180.81946899 90.63959473 -180.81946899 90.63959473 -179.90600586 89.90527344 C-177.19182333 88.61614973 -175.84888161 89.11327063 -173 90 C-168.8812957 91.74618933 -164.88461725 93.73675396 -160.87963867 95.72729492 C-158.94735672 96.68262678 -157.00460907 97.61384818 -155.06054688 98.54492188 C-153.81959394 99.15740043 -152.57933499 99.7712875 -151.33984375 100.38671875 C-150.21956787 100.93545654 -149.09929199 101.48419434 -147.94506836 102.04956055 C-142.57348586 105.60701496 -140.45144492 110.87480706 -137.9765625 116.6484375 C-137.42473113 117.91417238 -136.87263962 119.17979387 -136.3203125 120.4453125 C-135.47195738 122.40719487 -134.6269651 124.37040103 -133.78710938 126.3359375 C-128.01337511 140.43925056 -128.01337511 140.43925056 -116.9375 150.375 C-116.12152344 150.83648437 -115.30554688 151.29796875 -114.46484375 151.7734375 C-105.2773969 156.34532072 -96.88682177 156.8919666 -87 154 C-75.2165007 148.98380448 -68.95579625 139.67999454 -63.9140625 128.27734375 C-53.78681675 105.42592498 -53.78681675 105.42592498 -45.3125 101.8125 C-43.29142494 101.03818556 -41.27071299 100.35258141 -39.20068359 99.72070312 C-35.02723104 98.35393677 -31.09160443 96.43396552 -27.125 94.5625 C-26.31699951 94.18585205 -25.50899902 93.8092041 -24.67651367 93.42114258 C-15.06148015 88.80080271 -6.71195051 82.33239903 -3 72 C-0.12835266 60.97120949 -0.81503259 51.52851516 -6.37255859 41.5144043 C-13.06637846 31.17242247 -24.79950255 26.82984967 -35.52075195 21.84912109 C-37.66244772 20.84780259 -39.79404612 19.82699913 -41.92578125 18.8046875 C-42.57686356 18.51077118 -43.22794586 18.21685486 -43.89875793 17.91403198 C-48.4140985 15.74203575 -50.61380552 13.37450837 -53 9 C-53.75 6.125 -53.75 6.125 -54 4 C-51.83657484 3.03375112 -49.66968741 2.0770057 -47.5 1.125 C-46.2934375 0.59132812 -45.086875 0.05765625 -43.84375 -0.4921875 C-29.89495819 -6.21028139 -13.81870697 -5.82678197 0 0 Z M-225 129 C-229.07878069 133.00959243 -231.6379433 137.01585194 -233.86303711 142.25390625 C-237.73464648 151.15791094 -241.71915783 154.84382618 -250.6796875 158.38647461 C-251.40671875 158.67143799 -252.13375 158.95640137 -252.8828125 159.25 C-259.96417621 162.05795966 -265.74573376 167.23387921 -269.5 173.875 C-273.39691142 183.22758741 -273.60406015 191.63539239 -270.25 201.12109375 C-265.07609212 212.97026671 -254.27368735 218.14999263 -243 223 C-242.34 223 -241.68 223 -241 223 C-240.62875 224.258125 -240.2575 225.51625 -239.875 226.8125 C-236.08383747 238.15022191 -230.35951223 247.77694703 -219.80859375 253.734375 C-211.796343 257.34490246 -203.28595339 258.00465083 -195 255 C-185.80933311 250.70465865 -180.08733346 245.04559181 -176.13696289 235.74609375 C-172.26535352 226.84208906 -168.28084217 223.15617382 -159.3203125 219.61352539 C-158.59328125 219.32856201 -157.86625 219.04359863 -157.1171875 218.75 C-150.03582379 215.94204034 -144.25426624 210.76612079 -140.5 204.125 C-136.60308858 194.77241259 -136.39593985 186.36460761 -139.75 176.87890625 C-144.92390788 165.02973329 -155.72631265 159.85000737 -167 155 C-167.66 155 -168.32 155 -169 155 C-169.37125 153.741875 -169.7425 152.48375 -170.125 151.1875 C-173.91616253 139.84977809 -179.64048777 130.22305297 -190.19140625 124.265625 C-202.3959383 118.76594713 -214.64126797 120.76313728 -225 129 Z M-252 285 C-257.90408836 292.46787392 -258.14985097 299.61147543 -258.14526367 308.82568359 C-258.14862228 309.79882004 -258.1519809 310.77195648 -258.15544128 311.77458191 C-258.16491833 314.98254686 -258.16689272 318.19045943 -258.16796875 321.3984375 C-258.1711834 323.63514223 -258.17454763 325.87184674 -258.17805481 328.10855103 C-258.18403783 332.794052 -258.18589554 337.47953454 -258.18530273 342.16503906 C-258.18520112 348.15925078 -258.19885654 354.15334404 -258.21607494 360.14752769 C-258.22721055 364.76643412 -258.22922147 369.38531203 -258.22869301 374.0042305 C-258.22987064 376.21374546 -258.23428023 378.42326121 -258.24202538 380.63276291 C-258.25185737 383.72710143 -258.24893455 386.82118442 -258.24291992 389.91552734 C-258.24853943 390.82176346 -258.25415894 391.72799957 -258.25994873 392.66169739 C-258.22082053 400.61101634 -257.31024637 407.71155036 -252 414 C-244.53212608 419.90408836 -237.38852457 420.14985097 -228.17431641 420.14526367 C-227.20117996 420.14862228 -226.22804352 420.1519809 -225.22541809 420.15544128 C-222.01745314 420.16491833 -218.80954057 420.16689272 -215.6015625 420.16796875 C-213.36485777 420.1711834 -211.12815326 420.17454763 -208.89144897 420.17805481 C-204.205948 420.18403783 -199.52046546 420.18589554 -194.83496094 420.18530273 C-188.84074922 420.18520112 -182.84665596 420.19885654 -176.85247231 420.21607494 C-172.23356588 420.22721055 -167.61468797 420.22922147 -162.9957695 420.22869301 C-160.78625454 420.22987064 -158.57673879 420.23428023 -156.36723709 420.24202538 C-153.27289857 420.25185737 -150.17881558 420.24893455 -147.08447266 420.24291992 C-146.17823654 420.24853943 -145.27200043 420.25415894 -144.33830261 420.25994873 C-136.38898366 420.22082053 -129.28844964 419.31024637 -123 414 C-117.09591164 406.53212608 -116.85014903 399.38852457 -116.85473633 390.17431641 C-116.85137772 389.20117996 -116.8480191 388.22804352 -116.84455872 387.22541809 C-116.83508167 384.01745314 -116.83310728 380.80954057 -116.83203125 377.6015625 C-116.8288166 375.36485777 -116.82545237 373.12815326 -116.82194519 370.89144897 C-116.81596217 366.205948 -116.81410446 361.52046546 -116.81469727 356.83496094 C-116.81479888 350.84074922 -116.80114346 344.84665596 -116.78392506 338.85247231 C-116.77278945 334.23356588 -116.77077853 329.61468797 -116.77130699 324.9957695 C-116.77012936 322.78625454 -116.76571977 320.57673879 -116.75797462 318.36723709 C-116.74814263 315.27289857 -116.75106545 312.17881558 -116.75708008 309.08447266 C-116.75146057 308.17823654 -116.74584106 307.27200043 -116.74005127 306.33830261 C-116.77917947 298.38898366 -117.68975363 291.28844964 -123 285 C-130.46787392 279.09591164 -137.61147543 278.85014903 -146.82568359 278.85473633 C-147.79882004 278.85137772 -148.77195648 278.8480191 -149.77458191 278.84455872 C-152.98254686 278.83508167 -156.19045943 278.83310728 -159.3984375 278.83203125 C-161.63514223 278.8288166 -163.87184674 278.82545237 -166.10855103 278.82194519 C-170.794052 278.81596217 -175.47953454 278.81410446 -180.16503906 278.81469727 C-186.15925078 278.81479888 -192.15334404 278.80114346 -198.14752769 278.78392506 C-202.76643412 278.77278945 -207.38531203 278.77077853 -212.0042305 278.77130699 C-214.21374546 278.77012936 -216.42326121 278.76571977 -218.63276291 278.75797462 C-221.72710143 278.74814263 -224.82118442 278.75106545 -227.91552734 278.75708008 C-229.27488152 278.74865082 -229.27488152 278.74865082 -230.66169739 278.74005127 C-238.61101634 278.77917947 -245.71155036 279.68975363 -252 285 Z " fill="#000000" transform="translate(473,137)"/>
<path d="M0 0 C0.70476471 0.00248749 1.40952942 0.00497498 2.13565063 0.00753784 C12.75466041 0.06544358 22.97052002 0.38862347 33.25 3.3125 C34.06436523 3.54356445 34.87873047 3.77462891 35.71777344 4.01269531 C72.83114844 14.88815905 102.95835706 38.08419134 121.9296875 71.93359375 C132.79849255 92.04400374 137.48150058 113.43666393 137.5 136.1875 C137.50067474 136.92926483 137.50134949 137.67102966 137.50204468 138.43527222 C137.48624559 149.35008076 137.09412579 159.71270588 134.25 170.3125 C134.07839355 170.96347656 133.90678711 171.61445312 133.72998047 172.28515625 C127.53152713 195.28424319 116.38951762 214.85930071 100.25 232.3125 C99.48945312 233.14394531 98.72890625 233.97539063 97.9453125 234.83203125 C76.65505545 257.09711692 44.72258317 272.91712219 13.76513672 274.48950195 C-20.89781011 275.04331479 -20.89781011 275.04331479 -36.75 270.3125 C-37.84320557 269.99104004 -37.84320557 269.99104004 -38.95849609 269.66308594 C-75.23806461 258.64692524 -104.67380895 233.69755908 -122.62011719 200.484375 C-137.99704498 170.92665036 -142.25940134 132.41577577 -132.75 100.3125 C-132.53569336 99.58224609 -132.32138672 98.85199219 -132.10058594 98.09960938 C-121.06329816 61.75849589 -96.08343351 32.39494232 -62.84472656 14.39501953 C-54.6453131 10.15770027 -45.93124762 7.24832597 -37.125 4.5625 C-36.48111328 4.36358154 -35.83722656 4.16466309 -35.17382812 3.9597168 C-23.618283 0.60947106 -11.97403197 -0.06775584 0 0 Z " fill="#000000" transform="translate(652.75,353.6875)"/>
<path d="M0 0 C1.63593938 0.01481897 3.27193026 0.02468476 4.90792847 0.02989197 C8.33725156 0.05275755 11.76279239 0.1141359 15.19091797 0.20727539 C19.51325153 0.32470167 23.83313554 0.37965839 28.15687275 0.40959644 C50.65014373 0.56957921 72.94223054 1.43916725 94.8671875 6.96484375 C95.89618164 7.21975586 96.92517578 7.47466797 97.98535156 7.73730469 C122.78468695 14.10644974 146.40866842 24.44015506 167.3046875 39.27734375 C168.18616455 39.89633545 168.18616455 39.89633545 169.08544922 40.52783203 C208.72520809 68.77101918 230.57849689 111.26400153 239.859375 158.1484375 C240.29958937 161.24152267 240.33563957 164.15851494 240.3046875 167.27734375 C212.51491577 167.30108796 184.72514563 167.31852056 156.93536568 167.32915592 C144.0215228 167.33423332 131.10768641 167.34113177 118.19384766 167.3527832 C56.88958861 167.40702283 -4.39810127 167.26719753 -65.6953125 166.27734375 C-64.27739089 162.65596174 -62.69377088 159.31170387 -60.7890625 155.91796875 C-60.21462402 154.89243896 -59.64018555 153.86690918 -59.04833984 152.81030273 C-58.43684082 151.72692627 -57.8253418 150.6435498 -57.1953125 149.52734375 C-56.56963379 148.41367432 -55.94395508 147.30000488 -55.29931641 146.15258789 C-51.25086769 138.96863688 -47.14306258 131.82335446 -42.89257812 124.75683594 C-38.30288414 117.08180286 -34.81528415 109.29177916 -31.8046875 100.87109375 C-31.45521057 99.90578735 -31.10573364 98.94048096 -30.7456665 97.94592285 C-29.64097543 94.89135825 -28.54304409 91.83441539 -27.4453125 88.77734375 C-26.69315534 86.69384899 -25.94055556 84.61051396 -25.1875 82.52734375 C-23.35164874 77.4458462 -21.52132687 72.36238386 -19.6953125 67.27734375 C-20.10763626 66.79913177 -20.51996002 66.3209198 -20.94477844 65.82821655 C-21.4854747 65.19960724 -22.02617096 64.57099792 -22.58325195 63.92333984 C-23.38736259 62.98945938 -23.38736259 62.98945938 -24.2077179 62.03671265 C-31.34405448 53.59661171 -35.3511753 45.21891727 -34.9765625 34.04296875 C-34.24764381 26.8752683 -32.24912777 21.09228541 -27.5241394 15.6075592 C-25.58712882 13.2546826 -25.58712882 13.2546826 -23.98391724 10.29441833 C-17.74728327 0.10755294 -11.16513457 -0.3912404 0 0 Z " fill="#000000" transform="translate(735.6953125,660.72265625)"/>
<path d="M0 0 C3.37814325 -0.03584801 6.75301534 -0.10590887 10.12988281 -0.20507812 C14.25195574 -0.32585004 18.37096739 -0.38697653 22.49472427 -0.40634537 C24.05066119 -0.42335304 25.60652661 -0.46074424 27.16143417 -0.51983261 C39.21175863 -0.95395526 39.21175863 -0.95395526 44.04351807 3.39007568 C46.33745577 6.43401849 48.25913144 9.51854475 50.17382812 12.81005859 C51.4923054 14.48850228 52.82283134 16.15767751 54.17382812 17.81005859 C55.40429688 20.12646484 55.40429688 20.12646484 56.36132812 22.37255859 C56.68488281 23.11634766 57.0084375 23.86013672 57.34179688 24.62646484 C60.65197964 33.313752 59.78612064 42.34078849 56.17382812 50.81005859 C53.60482286 55.43275243 50.50275178 59.45493868 47.06176758 63.45385742 C46.25072319 64.39724724 46.25072319 64.39724724 45.42329407 65.35969543 C45.01097031 65.83831528 44.59864655 66.31693512 44.17382812 66.81005859 C56.8383375 104.26692726 56.8383375 104.26692726 75.37597656 139.01464844 C78.59900932 144.02601794 81.5870082 149.17733659 84.61132812 154.31005859 C85.45497925 155.71130981 85.45497925 155.71130981 86.31567383 157.14086914 C86.82445068 157.99076416 87.33322754 158.84065918 87.85742188 159.71630859 C88.30657959 160.46203125 88.7557373 161.20775391 89.21850586 161.97607422 C90.17382812 163.81005859 90.17382812 163.81005859 90.17382812 165.81005859 C69.25716834 165.84189027 48.34050826 165.86143091 27.42382812 165.87255859 C26.63151543 165.8729929 25.83920273 165.8734272 25.02288055 165.87387466 C-28.92861725 165.90262678 -82.87612193 165.70246098 -136.82617188 165.31005859 C-138.06070256 165.30109802 -138.06070256 165.30109802 -139.32017326 165.29195642 C-160.15558001 165.1405469 -180.99091172 164.98049817 -201.82617188 164.81005859 C-201.86535607 160.39253236 -201.72103602 156.48552894 -200.68945312 152.18505859 C-200.32231201 150.64217163 -200.32231201 150.64217163 -199.94775391 149.06811523 C-199.5472583 147.4553772 -199.5472583 147.4553772 -199.13867188 145.81005859 C-198.86394043 144.69300537 -198.58920898 143.57595215 -198.30615234 142.42504883 C-186.4986663 95.2532191 -158.9333624 53.15674318 -116.84472656 27.80322266 C-80.50259641 6.52344657 -41.4546378 0.39776238 0 0 Z " fill="#000000" transform="translate(547.826171875,661.18994140625)"/>
<path d="M0 0 C0.92425781 -0.02835937 1.84851563 -0.05671875 2.80078125 -0.0859375 C6.63379521 0.52609991 8.6948774 1.92574217 11.6875 4.375 C13.3828125 6.87890625 13.3828125 6.87890625 14.8125 9.9375 C15.1115625 10.52192871 15.410625 11.10635742 15.71875 11.70849609 C17.79994227 15.91770746 19.19238245 20.06835751 20.4296875 24.59765625 C24.81602988 38.79566127 29.57689513 45.79642233 42.609375 52.79110718 C49.46119974 56.29601739 56.47407587 59.52736292 63.5949707 62.44854736 C68.9191916 64.70098008 72.02760687 67.05521375 74.6875 72.375 C74.99609375 74.73046875 74.99609375 74.73046875 75.125 77.5625 C75.18558594 78.48417969 75.24617187 79.40585938 75.30859375 80.35546875 C74.3656087 84.93991808 72.27102535 87.4154777 68.6875 90.375 C64.43327635 92.90462711 60.00429812 94.95681322 55.5 97 C53.74719727 97.81984375 53.74719727 97.81984375 51.95898438 98.65625 C48.54374648 100.24863086 45.11682862 101.81324689 41.6875 103.375 C40.61677246 103.87354492 39.54604492 104.37208984 38.44287109 104.88574219 C37.45496582 105.34368164 36.46706055 105.80162109 35.44921875 106.2734375 C34.57612061 106.67997559 33.70302246 107.08651367 32.8034668 107.50537109 C30.6875 108.375 30.6875 108.375 28.6875 108.375 C28.43009033 109.21216553 28.17268066 110.04933105 27.9074707 110.91186523 C26.58063465 114.67835902 24.93875171 118.21427865 23.16796875 121.78515625 C22.82752029 122.47508163 22.48707184 123.16500702 22.13630676 123.87583923 C21.41815224 125.32658546 20.69779197 126.77624167 19.9753418 128.22485352 C18.87896191 130.4295331 17.7977481 132.64123922 16.71679688 134.85351562 C16.01394263 136.26868736 15.31019593 137.68341627 14.60546875 139.09765625 C14.28756882 139.75298843 13.96966888 140.40832062 13.64213562 141.08351135 C10.92517419 146.46476115 7.68412682 150.04391545 2.6875 153.375 C0.19921875 153.7109375 0.19921875 153.7109375 -2.625 153.75 C-3.54925781 153.77835938 -4.47351563 153.80671875 -5.42578125 153.8359375 C-9.25879521 153.22390009 -11.3198774 151.82425783 -14.3125 149.375 C-16.0078125 146.87109375 -16.0078125 146.87109375 -17.4375 143.8125 C-17.73366211 143.22952148 -18.02982422 142.64654297 -18.33496094 142.04589844 C-20.41429968 137.81811906 -21.86996632 133.60257626 -23.1953125 129.08203125 C-27.89871975 114.57332066 -32.96866194 107.21001311 -46.36621094 100.26464844 C-51.70234868 97.64055352 -57.1053869 95.1507479 -62.60317993 92.883255 C-67.69729912 90.77450839 -72.41855097 88.45834394 -76.1875 84.3125 C-77.93417478 79.75173806 -78.44428184 75.14510876 -77.3125 70.375 C-73.2590153 62.91485171 -65.50035698 60.09552275 -58.125 56.75 C-56.95646484 56.2034375 -55.78792969 55.656875 -54.58398438 55.09375 C-51.16874648 53.50136914 -47.74182862 51.93675311 -44.3125 50.375 C-43.24177246 49.87645508 -42.17104492 49.37791016 -41.06787109 48.86425781 C-40.07996582 48.40631836 -39.09206055 47.94837891 -38.07421875 47.4765625 C-36.76457153 46.86675537 -36.76457153 46.86675537 -35.4284668 46.24462891 C-33.3125 45.375 -33.3125 45.375 -31.3125 45.375 C-30.9263855 44.11925171 -30.9263855 44.11925171 -30.5324707 42.83813477 C-29.20563465 39.07164098 -27.56375171 35.53572135 -25.79296875 31.96484375 C-25.45252029 31.27491837 -25.11207184 30.58499298 -24.76130676 29.87416077 C-24.04315224 28.42341454 -23.32279197 26.97375833 -22.6003418 25.52514648 C-21.50396191 23.3204669 -20.4227481 21.10876078 -19.34179688 18.89648438 C-18.63894263 17.48131264 -17.93519593 16.06658373 -17.23046875 14.65234375 C-16.91256882 13.99701157 -16.59466888 13.34167938 -16.26713562 12.66648865 C-12.72708527 5.65501803 -8.1972291 0.113378 0 0 Z " fill="#000000" transform="translate(377.3125,119.625)"/>
<path d="M0 0 C0.84046875 -0.04898438 1.6809375 -0.09796875 2.546875 -0.1484375 C6.46896523 0.6110424 8.82884464 2.29696752 11.25 5.375 C12.58035017 8.14723968 13.64886292 10.96183237 14.72338867 13.8425293 C18.52047064 23.91285187 21.92076792 30.88233682 31.9375 35.5625 C34.27336161 36.56615173 36.62012276 37.51261972 38.99365234 38.42333984 C43.95450415 40.5156792 48.24439066 42.86658599 51.25 47.375 C51.5859375 49.64453125 51.5859375 49.64453125 51.625 52.1875 C51.65335937 53.01894531 51.68171875 53.85039062 51.7109375 54.70703125 C51.07294688 58.39980747 50.02292135 60.88437456 47.25 63.375 C44.43115429 64.79108548 41.55697901 65.91160904 38.61621094 67.05224609 C25.92983946 72.03736074 19.36522215 77.16210134 13.6875 89.6328125 C12.90870278 91.42303468 12.13797019 93.21679595 11.37695312 95.01464844 C9.53697207 98.86840425 7.15481948 102.42259026 3.25 104.375 C1.078125 104.6484375 1.078125 104.6484375 -1.5 104.75 C-2.34046875 104.79898438 -3.1809375 104.84796875 -4.046875 104.8984375 C-7.96896523 104.1389576 -10.32884464 102.45303248 -12.75 99.375 C-14.08035017 96.60276032 -15.14886292 93.78816763 -16.22338867 90.9074707 C-20.02047064 80.83714813 -23.42076792 73.86766318 -33.4375 69.1875 C-35.77336161 68.18384827 -38.12012276 67.23738028 -40.49365234 66.32666016 C-45.45450415 64.2343208 -49.74439066 61.88341401 -52.75 57.375 C-53.0859375 55.10546875 -53.0859375 55.10546875 -53.125 52.5625 C-53.15335938 51.73105469 -53.18171875 50.89960938 -53.2109375 50.04296875 C-52.57294688 46.35019253 -51.52292135 43.86562544 -48.75 41.375 C-45.93115429 39.95891452 -43.05697901 38.83839096 -40.11621094 37.69775391 C-27.42983946 32.71263926 -20.86522215 27.58789866 -15.1875 15.1171875 C-14.40870278 13.32696532 -13.63797019 11.53320405 -12.87695312 9.73535156 C-10.02531628 3.76272917 -6.75503646 0.2661075 0 0 Z " fill="#000000" transform="translate(196.75,143.625)"/>
<path d="M0 0 C0.825 -0.0103125 1.65 -0.020625 2.5 -0.03125 C6.09681412 0.733073 7.47305881 1.77929974 10 4.5 C11.15487646 7.01342512 12.08652409 9.56839526 13.03027344 12.16821289 C16.65896962 21.96909145 20.078387 28.05105201 29.75 32.5625 C32.1182497 33.57666261 34.49775591 34.55286993 36.88867188 35.51220703 C40.64102468 37.2677597 44.11503957 39.73007915 46 43.5 C46.2734375 45.453125 46.2734375 45.453125 46.375 47.75 C46.42398438 48.49765625 46.47296875 49.2453125 46.5234375 50.015625 C45.73175601 53.77315805 43.93559341 56.14794429 41 58.5 C38.47646637 59.66437763 35.92050233 60.55727214 33.29467773 61.46630859 C24.0410172 64.74250215 18.3228577 67.93885004 13.77392578 76.86328125 C12.48504971 79.76784377 11.28868858 82.69333131 10.12109375 85.6484375 C8.46241183 89.78551224 7.06203897 92.30937806 3 94.5 C0.5 95.03125 0.5 95.03125 -2 95 C-2.825 95.0103125 -3.65 95.020625 -4.5 95.03125 C-8.09681412 94.266927 -9.47305881 93.22070026 -12 90.5 C-13.15487646 87.98657488 -14.08652409 85.43160474 -15.03027344 82.83178711 C-18.65896962 73.03090855 -22.078387 66.94894799 -31.75 62.4375 C-34.1182497 61.42333739 -36.49775591 60.44713007 -38.88867188 59.48779297 C-42.64102468 57.7322403 -46.11503957 55.26992085 -48 51.5 C-48.2734375 49.546875 -48.2734375 49.546875 -48.375 47.25 C-48.42398438 46.50234375 -48.47296875 45.7546875 -48.5234375 44.984375 C-47.73175601 41.22684195 -45.93559341 38.85205571 -43 36.5 C-40.47646637 35.33562237 -37.92050233 34.44272786 -35.29467773 33.53369141 C-26.0410172 30.25749785 -20.3228577 27.06114996 -15.77392578 18.13671875 C-14.48504971 15.23215623 -13.28868858 12.30666869 -12.12109375 9.3515625 C-9.72052781 3.36408498 -6.79504595 -0.08493807 0 0 Z " fill="#000000" transform="translate(269,278.5)"/>
<path d="M0 0 C13.86 0 27.72 0 42 0 C41.34 4.29 40.68 8.58 40 13 C39.0999327 28.15113281 42.58297411 40.80910472 50 54 C51 56 51 56 50.31005859 58.6159668 C49.02093928 62.31507271 47.7210835 66.00878105 46.375 69.6875 C46.00952057 70.69384491 46.00952057 70.69384491 45.63665771 71.72052002 C40.78398542 84.9610729 34.46113863 97.02910666 27 109 C26.50725586 109.7930957 26.01451172 110.58619141 25.50683594 111.40332031 C24.34230711 113.27164028 23.1718588 115.13626884 22 117 C18.24348853 115.74782951 17.96268459 114.68699856 16.07421875 111.29296875 C15.52797852 110.32053223 14.98173828 109.3480957 14.41894531 108.34619141 C13.84756836 107.30382324 13.27619141 106.26145508 12.6875 105.1875 C12.09936523 104.12450684 11.51123047 103.06151367 10.90527344 101.96630859 C9.78500572 99.93328793 8.66894052 97.89794214 7.55834961 95.85961914 C6.50447607 93.92572901 5.43447142 92.00055647 4.34985352 90.08374023 C2.74064755 87.10770375 1.35313708 84.09995905 0 81 C-0.42933838 80.05576172 -0.85867676 79.11152344 -1.30102539 78.13867188 C-10.1901826 58.12091247 -10.1901826 58.12091247 -8.15625 51.83203125 C-6.3125 48.4375 -6.3125 48.4375 -4.140625 45.25 C4.62547755 31.9408808 2.27173358 14.76626827 0 0 Z " fill="#000000" transform="translate(633,678)"/>
</svg>
