<?xml version="1.0" encoding="utf-8"?>
<!-- Generator: Adobe Illustrator 23.0.1, SVG Export Plug-In . SVG Version: 6.00 Build 0)  -->
<svg version="1.1" id="Layer_1" xmlns="http://www.w3.org/2000/svg" xmlns:xlink="http://www.w3.org/1999/xlink" x="0px" y="0px"
	 viewBox="0 0 300 300" style="enable-background:new 0 0 300 300;" xml:space="preserve">
<style type="text/css">
	.st0{fill:none;}
	.st1{stroke:#000000;stroke-width:12;stroke-linecap:round;stroke-linejoin:round;stroke-miterlimit:10;}
	.st2{fill:none;stroke:#000000;stroke-width:16;stroke-linecap:round;stroke-linejoin:round;stroke-miterlimit:10;}
	.st3{fill:#E3E3E3;}
	.st4{fill:#00FF00;}
	.st5{fill:#0000FF;}
	.st6{fill:#333333;}
	.st7{stroke:#000000;stroke-miterlimit:10;}
	.st8{fill:none;stroke:#000000;stroke-width:15;stroke-linecap:round;stroke-linejoin:round;stroke-miterlimit:10;}
</style>
<g>
	<g>
		<path d="M270.37,97.98c-1.46,1.99-3.6,3.29-6.04,3.67c-4.63,0.71-9.01-2.17-10.28-6.56c-0.11-0.38-0.2-0.77-0.26-1.17l-2.35-15.23
			c-0.26-1.67-1.63-2.13-2.04-2.23c-0.42-0.1-1.84-0.33-2.84,1.03l-20.09,27.41l-21.4,29.2c-1.46,1.99-3.61,3.3-6.04,3.67
			c-1.54,0.24-3.08,0.09-4.5-0.42c-0.83-0.3-1.63-0.72-2.37-1.26L136.88,95.6c-1.21-0.89-2.91-0.62-3.8,0.59l-36.23,49.44
			c-2.28-5.43-5.44-10.31-9.4-14.55c-1.03-1.1-2.1-2.14-3.18-3.1l40.52-55.29c3.01-4.11,8.8-5,12.91-1.99l6.52,4.78l48.76,35.73
			c0.46,0.34,0.99,0.52,1.55,0.52c0.16,0,0.32-0.01,0.47-0.03c0.72-0.11,1.35-0.49,1.78-1.08l5.15-7.02l28.03-38.25
			c1-1.36,0.35-2.65,0.13-3.02c-0.22-0.36-1.07-1.53-2.74-1.28l-15.24,2.35c-2.44,0.38-4.88-0.22-6.87-1.68
			c-1.99-1.46-3.3-3.6-3.67-6.04c-0.38-2.44,0.22-4.88,1.68-6.87c1.46-1.99,3.6-3.29,6.04-3.67l45.23-6.98
			c2.44-0.38,4.88,0.22,6.87,1.68c1.99,1.46,3.29,3.6,3.67,6.04l2.25,14.61l4.72,30.62C272.42,93.55,271.83,95.99,270.37,97.98z"/>
	</g>
	<path d="M138.58,142.66h26c1.64,0,2.97,1.33,2.97,2.97v86.89c0,1.64-1.33,2.97-2.97,2.97h-26c-1.64,0-2.97-1.33-2.97-2.97v-86.89
		C135.61,143.99,136.94,142.66,138.58,142.66z"/>
	<path d="M90.21,216.77c0,7.84-1.72,14.28-5.18,19.32c-1.18,1.72-2.56,3.27-4.14,4.66c-1.25,1.11-2.57,2.13-3.96,3.07
		c-1.87,1.28-3.86,2.39-5.96,3.35c-3.99,1.83-8.38,3.09-13.17,3.79v18.65H40.04v-19.09c-0.11-0.03-0.22-0.05-0.33-0.08
		c-7.71-1.79-14.38-5.18-19.99-10.14c-5.7-5.03-9.88-12.14-12.54-21.31l16.43-6.66c2.22,7.1,5.51,12.5,9.87,16.21
		c1.84,1.55,3.91,2.78,6.23,3.68c3.2,1.25,6.86,1.87,10.99,1.87c3.21,0,6.16-0.39,8.85-1.15c2.4-0.69,4.59-1.67,6.58-2.96
		c2.17-1.42,3.79-3.23,4.84-5.46c0.99-2.08,1.48-4.52,1.48-7.31c0-2.86-0.49-5.39-1.48-7.59c-0.8-1.79-1.94-3.37-3.4-4.73
		c-1.61-1.51-4.29-3.11-8.02-4.83c-3.79-1.73-8.66-3.56-14.63-5.5c-1.82-0.57-3.55-1.16-5.21-1.76c-9.93-3.61-16.92-7.8-20.99-12.56
		c-1.88-2.21-3.39-4.61-4.52-7.2c-1.72-3.93-2.58-8.3-2.58-13.11c0-8.68,2.52-15.61,7.58-20.79c0.54-0.57,1.13-1.12,1.74-1.64
		c6.12-5.24,12.37-8.27,18.77-9.07c0.11-0.01,0.22-0.03,0.33-0.04v-18.65H57.8v18.65c0.59,0.1,1.18,0.2,1.75,0.32
		c6.62,1.31,12.14,3.91,16.57,7.79c0.39,0.34,0.77,0.69,1.14,1.04c0.54,0.52,1.07,1.05,1.58,1.6c3.44,3.67,6.05,7.94,7.83,12.79
		l-5.55,2.4l-10.89,4.7c-1.77-4.73-4.29-8.29-7.55-10.65c-0.94-0.69-1.98-1.28-3.13-1.76c-2.8-1.2-6.2-1.8-10.19-1.8
		c-3.72,0-6.94,0.48-9.65,1.42c-2.03,0.71-3.77,1.68-5.22,2.91c-3.41,2.89-5.11,6.48-5.11,10.78c0,4.88,2.22,8.73,6.66,11.54
		c0.82,0.52,1.75,1.04,2.78,1.57c0.29,0.15,0.59,0.29,0.89,0.44c4.57,2.2,11.05,4.5,19.42,6.87c0.14,0.04,0.28,0.08,0.42,0.12
		c4.24,1.26,8.04,2.82,11.42,4.68c1.61,0.9,3.11,1.85,4.53,2.88c2.61,1.9,4.89,4.04,6.84,6.42
		C87.59,200.89,90.21,208.33,90.21,216.77z"/>
	<path d="M108.04,176.42v56.11c0,1.64-1.33,2.97-2.97,2.97h-1.81c-2.01,0-3.42-1.94-2.83-3.86c1.45-4.66,2.17-9.82,2.17-15.46
		c0-11.19-3.54-21.2-10.54-29.77c-3.93-4.81-8.91-8.9-14.8-12.16c-0.39-0.21-0.78-0.43-1.17-0.63v-0.16h28.97
		C106.71,173.45,108.04,174.78,108.04,176.42z"/>
	<path d="M286.59,62.86v169.66c0,1.64-1.33,2.97-2.97,2.97h-26c-1.64,0-2.97-1.33-2.97-2.97V115.17c0-1.93,1.82-3.35,3.69-2.87
		c1.68,0.43,3.42,0.65,5.17,0.65c1.07,0,2.15-0.08,3.22-0.25c5.55-0.86,10.43-3.83,13.74-8.35c3.32-4.53,4.68-10.08,3.83-15.64
		l-3.92-25.4c-0.28-1.8,1.11-3.42,2.94-3.42h0.3C285.26,59.89,286.59,61.22,286.59,62.86z"/>
	<path d="M215.18,140.49l6.52-8.9c1.7-2.32,5.37-1.12,5.37,1.76v99.18c0,1.64-1.33,2.97-2.97,2.97h-26c-1.64,0-2.97-1.33-2.97-2.97
		v-80.47c0-1.67,1.37-2.97,3.04-2.97c0.01,0,0.02,0,0.03,0c1.07,0,2.16-0.08,3.22-0.25C206.98,147.99,211.87,145.02,215.18,140.49z"
		/>
	<path d="M59.55,97.95H39.71V40.31c0-5.48,4.44-9.92,9.92-9.92c2.74,0,5.22,1.11,7.01,2.91c1.79,1.79,2.91,4.28,2.91,7.01V97.95z"/>
	<path d="M292.82,256.27c0,5.48-4.44,9.92-9.92,9.92H69.59v-3.34c2.18-0.69,4.27-1.5,6.27-2.42c4.68-2.14,8.99-4.93,12.82-8.3
		c2-1.76,3.77-3.69,5.33-5.78H282.9C288.38,246.35,292.82,250.79,292.82,256.27z"/>
</g>
</svg>
