<?xml version="1.0" encoding="UTF-8" standalone="no"?><!DOCTYPE svg PUBLIC "-//W3C//DTD SVG 1.1//EN" "http://www.w3.org/Graphics/SVG/1.1/DTD/svg11.dtd"><svg width="100%" height="100%" viewBox="0 0 300 300" version="1.1" xmlns="http://www.w3.org/2000/svg" xmlns:xlink="http://www.w3.org/1999/xlink" xml:space="preserve" xmlns:serif="http://www.serif.com/" style="fill-rule:evenodd;clip-rule:evenodd;stroke-linejoin:round;stroke-miterlimit:2;"><path d="M65.496,225.396c-4.109,0 -7.771,-2.576 -9.155,-6.441l-20.45,-56.815c-0.671,-1.884 -0.703,-3.662 -0.096,-5.333c0.607,-1.682 1.842,-2.853 3.726,-3.524l20.141,-7.452c1.884,-0.809 3.662,-0.841 5.333,-0.096c1.682,0.735 2.651,2.182 2.917,4.333l7.25,64.522c0.649,5.749 -3.864,10.805 -9.666,10.805Zm-41.496,7.654c-3.492,1.075 -6.643,-0.234 -9.464,-3.928c-2.821,-3.694 -3.289,-7.356 -1.405,-10.975l7.186,-14.616c3.79,-7.718 14.999,-7.09 17.895,1.011l4.333,12.115c1.863,5.206 -0.979,10.922 -6.26,12.572l-12.285,3.822Zm89.954,-100.025c-1.544,-1.544 -3.46,-2.31 -5.749,-2.31l-21.749,0c-2.289,0 -4.205,0.766 -5.749,2.31c-1.544,1.544 -2.182,3.46 -1.916,5.749l8.708,77.967c0.554,4.929 4.716,8.655 9.677,8.655l0.309,0c4.961,0 9.123,-3.726 9.677,-8.655l8.697,-77.967c0.277,-2.289 -0.362,-4.205 -1.906,-5.749Zm29.946,56.74l0,-40.73l-8.697,-3.215c-2.15,-0.671 -3.992,-0.639 -5.536,0.096c-1.544,0.745 -2.459,2.118 -2.725,4.13l-7.409,64.501c-0.671,5.78 3.854,10.848 9.666,10.848l0.17,0c4.109,0 7.771,-2.576 9.155,-6.441l6.685,-18.566c-0.873,-3.375 -1.309,-6.92 -1.309,-10.624Zm12.125,29.179c-1.15,-1.15 -2.214,-2.331 -3.204,-3.556l-0.543,1.501c-1.852,5.12 0.841,10.763 5.993,12.53l10.571,3.63c3.066,1.054 6.121,0.213 9.187,-2.566c-8.335,-1.373 -15.713,-5.248 -22.004,-11.54Z" style="fill-rule:nonzero;"/><path d="M288.008,117.622c-3.002,-3.002 -6.611,-4.503 -10.826,-4.503l-114.971,0c-4.237,0 -7.665,3.428 -7.665,7.665l0,68.983c0,4.801 0.979,9.219 2.928,13.232c1.469,3.023 3.492,5.834 6.079,8.421c5.365,5.365 11.689,8.325 18.992,8.9c0.873,0.075 1.757,0.106 2.661,0.106l45.988,0c8.431,0 15.649,-3.002 21.653,-9.006c6.004,-6.004 9.006,-13.222 9.006,-21.653l0,-15.329c0,-4.237 3.428,-7.665 7.665,-7.665l7.665,0c4.216,0 7.824,-1.501 10.826,-4.503c3.002,-3.002 4.503,-6.611 4.503,-10.826l0,-22.994c0,-4.216 -1.501,-7.824 -4.503,-10.826Zm-18.491,33.821c-4.237,0 -7.665,-3.428 -7.665,-7.665l0,-7.665c0,-4.237 3.428,-7.665 7.665,-7.665c4.237,0 7.665,3.428 7.665,7.665l0,7.665c0,4.226 -3.428,7.665 -7.665,7.665Z" style="fill-rule:nonzero;"/><path d="M7.489,251.084c0,-4.237 3.428,-7.665 7.665,-7.665l254.374,0c4.237,0 7.665,3.428 7.665,7.665c0,4.237 -3.428,7.665 -7.665,7.665l-254.374,0c-4.237,0 -7.665,-3.438 -7.665,-7.665Z" style="fill-rule:nonzero;"/><g><path d="M188.813,106.827c-1.043,0 -2.087,-0.309 -3.013,-0.937c-1.075,-0.745 -10.55,-7.569 -10.55,-17.661c0,-6.26 3.556,-11.891 10.55,-16.713l0.405,-0.255c1.235,-0.692 2.257,-3.609 1.725,-7.633c-0.649,-4.971 -3.598,-10.582 -8.697,-11.902c-2.842,-0.735 -4.556,-3.641 -3.822,-6.483c0.735,-2.842 3.641,-4.556 6.483,-3.822c10.592,2.747 15.553,12.934 16.586,20.833c1.054,8.091 -1.544,15.01 -6.813,18.151c-2.672,1.874 -5.78,4.705 -5.791,7.814c-0.021,3.854 4.418,7.846 5.972,8.942c2.395,1.682 2.991,5.003 1.309,7.399c-1.011,1.469 -2.661,2.267 -4.343,2.267Z" style="fill-rule:nonzero;"/></g><g><path d="M212.287,106.827c-1.043,0 -2.087,-0.309 -3.013,-0.937c-1.075,-0.745 -10.55,-7.569 -10.55,-17.661c0,-6.26 3.556,-11.891 10.55,-16.713l0.405,-0.255c1.235,-0.692 2.257,-3.609 1.725,-7.633c-0.649,-4.971 -3.598,-10.582 -8.697,-11.902c-2.842,-0.735 -4.556,-3.641 -3.822,-6.483c0.735,-2.842 3.641,-4.556 6.483,-3.822c10.592,2.747 15.553,12.934 16.586,20.833c1.054,8.091 -1.544,15.01 -6.813,18.151c-2.672,1.874 -5.78,4.705 -5.791,7.814c-0.021,3.854 4.418,7.846 5.972,8.942c2.395,1.682 2.991,5.003 1.309,7.399c-1.001,1.469 -2.661,2.267 -4.343,2.267Z" style="fill-rule:nonzero;"/></g><g><path d="M235.771,106.827c-1.043,0 -2.087,-0.309 -3.013,-0.937c-1.075,-0.745 -10.55,-7.569 -10.55,-17.661c0,-6.26 3.556,-11.891 10.55,-16.713l0.405,-0.255c1.235,-0.692 2.257,-3.609 1.725,-7.633c-0.649,-4.971 -3.598,-10.582 -8.697,-11.902c-2.842,-0.735 -4.556,-3.641 -3.822,-6.483c0.735,-2.842 3.641,-4.556 6.483,-3.822c10.592,2.747 15.553,12.934 16.586,20.833c1.054,8.091 -1.544,15.01 -6.813,18.151c-2.672,1.874 -5.78,4.705 -5.791,7.814c-0.021,3.854 4.418,7.846 5.972,8.942c2.395,1.682 2.991,5.003 1.309,7.399c-1.011,1.469 -2.661,2.267 -4.343,2.267Z" style="fill-rule:nonzero;"/></g></svg>