<?xml version="1.0" encoding="utf-8"?>
<!-- Generator: Adobe Illustrator 23.0.1, SVG Export Plug-In . SVG Version: 6.00 Build 0)  -->
<svg version="1.1" id="Layer_1" xmlns="http://www.w3.org/2000/svg" xmlns:xlink="http://www.w3.org/1999/xlink" x="0px" y="0px"
	 viewBox="0 0 300 300" style="enable-background:new 0 0 300 300;" xml:space="preserve">
<style type="text/css">
	.st0{stroke:#000000;stroke-width:3;stroke-miterlimit:10;}
	.st1{fill:#E3E3E3;}
</style>
<g>
	<path d="M114.62,71.34c-0.19-0.38-0.35-0.77-0.51-1.16h0.02C114.28,70.57,114.45,70.96,114.62,71.34z"/>
	<path d="M127.42,87.02c-0.17-0.12-0.34-0.25-0.51-0.38c-0.2-0.14-0.4-0.29-0.59-0.45c-0.07-0.05-0.14-0.11-0.21-0.16
		c-0.15-0.12-0.31-0.25-0.46-0.38c0.29,0.24,0.58,0.47,0.88,0.69L127.42,87.02z"/>
	<path d="M181.24,78.47c-0.08,0.11-0.15,0.21-0.24,0.32c-0.15,0.22-0.32,0.43-0.48,0.64c-0.1,0.12-0.19,0.24-0.29,0.36
		c-0.05,0.07-0.11,0.14-0.17,0.21c-0.32,0.4-0.66,0.8-1.01,1.19c-0.03,0.05-0.08,0.09-0.12,0.14c-0.36,0.41-0.73,0.8-1.11,1.19
		c-0.24,0.25-0.48,0.49-0.72,0.72c-0.06,0.06-0.11,0.12-0.17,0.17c-0.18,0.18-0.37,0.36-0.56,0.53c-0.33,0.31-0.66,0.61-1.01,0.91
		c-0.07,0.06-0.15,0.13-0.23,0.19c-0.34,0.3-0.7,0.59-1.06,0.87c-0.12,0.1-0.25,0.2-0.38,0.29c-0.4,0.32-0.82,0.63-1.24,0.93
		l1.03-0.79C176.46,84.06,179.06,81.42,181.24,78.47z"/>
	<path d="M185.9,70.18c-0.16,0.4-0.33,0.79-0.52,1.18c0.18-0.39,0.35-0.78,0.5-1.18H185.9z"/>
	<path d="M272.03,68.81v15.76c0,5.37-4.35,9.72-9.72,9.72h-61.56c-7.51,0-12.11-8.11-8.38-14.64c0.06-0.11,0.13-0.23,0.19-0.34
		c0.14-0.25,0.28-0.5,0.41-0.75c0.14-0.25,0.27-0.5,0.39-0.75c0.16-0.3,0.32-0.6,0.46-0.91c0.19-0.38,0.37-0.76,0.54-1.15
		c0.18-0.36,0.34-0.73,0.48-1.1c0.11-0.22,0.2-0.45,0.3-0.68c0.19-0.49,0.39-0.98,0.57-1.48c0.06-0.15,0.12-0.31,0.18-0.47
		c0.04-0.11,0.08-0.21,0.11-0.32c0.02-0.05,0.04-0.11,0.06-0.16c0.16-0.45,0.31-0.9,0.45-1.36c0.15-0.46,0.29-0.92,0.41-1.38
		c0.09-0.28,0.17-0.56,0.23-0.84c0.13-0.46,0.24-0.92,0.35-1.38c0-0.01,0-0.01,0.01-0.02c1.04-4.42,5.09-7.47,9.63-7.47h55.17
		C267.68,59.09,272.03,63.44,272.03,68.81z"/>
	<path d="M245.89,104.29H54.12c-2.82,0-5.1,2.28-5.1,5.1V191c0,2.82,2.28,5.1,5.1,5.1h10.07c2.82,0,5.1-2.28,5.1-5.1v-50.65
		c0-9.54,7.73-17.27,17.26-17.27h38.05c9.53,0,17.26,7.73,17.26,17.27V191c0,2.82,2.28,5.1,5.1,5.1h98.93c2.82,0,5.1-2.28,5.1-5.1
		v-81.61C250.99,106.57,248.71,104.29,245.89,104.29z M230.86,153.9c0,2.82-2.28,5.1-5.1,5.1h-62.37c-2.82,0-5.1-2.28-5.1-5.1v-8.54
		c0-12.35,10.01-22.36,22.36-22.36h27.85c12.35,0,22.36,10.01,22.36,22.36V153.9z"/>
	<path d="M114.62,71.34c-0.19-0.38-0.35-0.77-0.51-1.16c-0.13-0.32-0.24-0.66-0.36-0.99c0.12,0.33,0.25,0.67,0.38,0.99
		C114.28,70.57,114.45,70.96,114.62,71.34z"/>
	<path d="M127.42,87.02c-0.17-0.12-0.34-0.25-0.51-0.38c-0.2-0.14-0.4-0.29-0.59-0.45c-0.07-0.05-0.14-0.11-0.21-0.16
		c-0.15-0.12-0.31-0.25-0.46-0.38c0.29,0.24,0.58,0.47,0.88,0.69L127.42,87.02z"/>
	<polygon points="150.04,104.29 149.97,104.29 150.01,104.26 	"/>
	<path d="M99.26,94.29H37.7c-5.37,0-9.72-4.35-9.72-9.72V68.81c0-5.37,4.35-9.72,9.72-9.72h55.17c4.54,0,8.59,3.05,9.63,7.47
		c0.01,0.01,0.01,0.01,0.01,0.02c0.11,0.46,0.22,0.92,0.35,1.38c0.06,0.28,0.14,0.56,0.23,0.84c0.12,0.46,0.26,0.92,0.41,1.38
		c0.18,0.57,0.37,1.15,0.58,1.71c0.02,0.07,0.04,0.14,0.07,0.2c0.18,0.52,0.38,1.03,0.59,1.54c0.27,0.69,0.56,1.38,0.88,2.05
		c0.22,0.51,0.46,1.01,0.71,1.5c0.22,0.45,0.45,0.9,0.69,1.35c0.2,0.37,0.41,0.75,0.62,1.12C111.37,86.18,106.77,94.29,99.26,94.29z
		"/>
	<path d="M114.62,71.34c-0.19-0.38-0.35-0.77-0.51-1.16c-0.13-0.32-0.24-0.66-0.36-0.99c0.12,0.33,0.25,0.67,0.38,0.99
		C114.28,70.57,114.45,70.96,114.62,71.34z"/>
	<path d="M127.42,87.02c-0.17-0.12-0.34-0.25-0.51-0.38c-0.2-0.14-0.4-0.29-0.59-0.45c-0.07-0.05-0.14-0.11-0.21-0.16
		c-0.15-0.12-0.31-0.25-0.46-0.38c0.29,0.24,0.58,0.47,0.88,0.69L127.42,87.02z"/>
	<path d="M181.24,78.47c-0.08,0.11-0.15,0.21-0.24,0.32c-0.15,0.22-0.32,0.43-0.48,0.64c-0.1,0.12-0.19,0.24-0.29,0.36
		c-0.05,0.07-0.11,0.14-0.17,0.21c-0.32,0.4-0.66,0.8-1.01,1.19c-0.03,0.05-0.08,0.09-0.12,0.14c-0.36,0.41-0.73,0.8-1.11,1.19
		c-0.24,0.25-0.48,0.49-0.72,0.72c-0.06,0.06-0.11,0.12-0.17,0.17c-0.18,0.18-0.37,0.36-0.56,0.53c-0.33,0.31-0.66,0.61-1.01,0.91
		c-0.07,0.06-0.15,0.13-0.23,0.19c-0.34,0.3-0.7,0.59-1.06,0.87c-0.12,0.1-0.25,0.2-0.38,0.29c-0.4,0.32-0.82,0.63-1.24,0.93
		l1.03-0.79C176.46,84.06,179.06,81.42,181.24,78.47z"/>
	<path d="M186.43,68.78c-0.16,0.47-0.34,0.94-0.53,1.4c-0.16,0.4-0.33,0.79-0.52,1.18c0.18-0.39,0.35-0.78,0.5-1.18
		C186.07,69.72,186.26,69.25,186.43,68.78z"/>
	<polygon points="150.01,104.26 150.04,104.29 149.97,104.29 	"/>
	<path d="M181.24,78.47c-0.08,0.11-0.15,0.21-0.24,0.32c-0.15,0.22-0.32,0.43-0.48,0.64c-0.1,0.12-0.19,0.24-0.29,0.36
		c-0.05,0.07-0.11,0.14-0.17,0.21c-0.32,0.4-0.66,0.8-1.01,1.19c-0.03,0.05-0.08,0.09-0.12,0.14c-0.36,0.41-0.73,0.8-1.11,1.19
		c-0.24,0.25-0.48,0.49-0.72,0.72c-0.06,0.06-0.11,0.12-0.17,0.17c-0.18,0.18-0.37,0.36-0.56,0.53c-0.33,0.31-0.66,0.61-1.01,0.91
		c-0.07,0.06-0.15,0.13-0.23,0.19c-0.34,0.3-0.7,0.59-1.06,0.87c-0.12,0.1-0.25,0.2-0.38,0.29c-0.4,0.32-0.82,0.63-1.24,0.93
		l1.03-0.79C176.46,84.06,179.06,81.42,181.24,78.47z"/>
	<path d="M186.43,68.78c-0.16,0.47-0.34,0.94-0.53,1.4c-0.16,0.4-0.33,0.79-0.52,1.18c0.18-0.39,0.35-0.78,0.5-1.18
		C186.07,69.72,186.26,69.25,186.43,68.78z"/>
	<path d="M274.51,245.35v10.1c0,5.37-4.35,9.72-9.72,9.72H35.21c-5.37,0-9.72-4.35-9.72-9.72v-10.1c0-2.5,0.94-4.76,2.49-6.48
		c1.77-1.99,4.35-3.24,7.23-3.24h229.58c2.88,0,5.46,1.25,7.23,3.24C273.57,240.59,274.51,242.85,274.51,245.35z"/>
	<path d="M37.98,215.91v-0.09c0-5.37,4.35-9.72,9.72-9.72h204.6c5.37,0,9.72,4.35,9.72,9.72v0.09c0,5.37-4.35,9.72-9.72,9.72H47.7
		C42.33,225.63,37.98,221.28,37.98,215.91z"/>
	<path d="M185.88,70.18c-0.15,0.4-0.32,0.79-0.5,1.18c0.19-0.39,0.36-0.78,0.52-1.18c0.19-0.46,0.37-0.93,0.53-1.4
		C186.26,69.25,186.07,69.72,185.88,70.18z M180.11,79.91c-0.15,0.2-0.32,0.4-0.48,0.59c-0.04,0.04-0.07,0.08-0.1,0.12
		c-0.18,0.21-0.37,0.42-0.55,0.63c-0.05,0.06-0.11,0.12-0.16,0.17c-0.12,0.13-0.23,0.26-0.35,0.38c-0.44,0.48-0.9,0.95-1.38,1.41
		c-0.24,0.23-0.47,0.46-0.71,0.68c-0.25,0.23-0.49,0.45-0.74,0.67c-0.26,0.23-0.52,0.46-0.79,0.67c-0.18,0.16-0.36,0.31-0.55,0.46
		l-0.01,0.01c-0.26,0.22-0.53,0.43-0.81,0.64l-1.03,0.79c0.42-0.3,0.84-0.61,1.24-0.93c0.13-0.09,0.26-0.19,0.38-0.29
		c0.36-0.28,0.72-0.57,1.06-0.87c0.08-0.06,0.16-0.13,0.23-0.19c0.35-0.3,0.68-0.6,1.01-0.91c0.19-0.17,0.38-0.35,0.56-0.53
		c0.06-0.05,0.11-0.11,0.17-0.17c0.24-0.23,0.48-0.47,0.72-0.72c0.38-0.39,0.75-0.78,1.11-1.19c0.04-0.05,0.09-0.09,0.12-0.14
		c0.35-0.39,0.69-0.79,1.01-1.19c0.06-0.07,0.12-0.14,0.17-0.21c0.1-0.12,0.19-0.24,0.29-0.36c0.04-0.05,0.08-0.11,0.12-0.17
		C180.47,79.48,180.3,79.7,180.11,79.91z M126.53,86.34c0.13,0.1,0.25,0.2,0.38,0.3c0.17,0.13,0.34,0.26,0.51,0.38L126.53,86.34z
		 M126.04,85.96c-0.13-0.1-0.26-0.2-0.39-0.31c0.15,0.13,0.31,0.26,0.46,0.38c0.07,0.05,0.14,0.11,0.21,0.16
		C126.22,86.11,126.13,86.04,126.04,85.96z M114.13,70.18c-0.13-0.32-0.26-0.66-0.38-0.99c0.12,0.33,0.23,0.67,0.36,0.99
		c0.16,0.39,0.32,0.78,0.51,1.16C114.45,70.96,114.28,70.57,114.13,70.18z"/>
	<path d="M185.88,70.18c-0.15,0.4-0.32,0.79-0.5,1.18c0.19-0.39,0.36-0.78,0.52-1.18c0.19-0.46,0.37-0.93,0.53-1.4
		C186.26,69.25,186.07,69.72,185.88,70.18z M180.11,79.91c-0.15,0.2-0.32,0.4-0.48,0.59c-0.04,0.04-0.07,0.08-0.1,0.12
		c-0.18,0.21-0.37,0.42-0.55,0.63c-0.05,0.06-0.11,0.12-0.16,0.17c-0.12,0.13-0.23,0.26-0.35,0.38c-0.44,0.48-0.9,0.95-1.38,1.41
		c-0.24,0.23-0.47,0.46-0.71,0.68c-0.25,0.23-0.49,0.45-0.74,0.67c-0.26,0.23-0.52,0.46-0.79,0.67c-0.18,0.16-0.36,0.31-0.55,0.46
		l-0.01,0.01c-0.26,0.22-0.53,0.43-0.81,0.64l-1.03,0.79c0.42-0.3,0.84-0.61,1.24-0.93c0.13-0.09,0.26-0.19,0.38-0.29
		c0.36-0.28,0.72-0.57,1.06-0.87c0.08-0.06,0.16-0.13,0.23-0.19c0.35-0.3,0.68-0.6,1.01-0.91c0.19-0.17,0.38-0.35,0.56-0.53
		c0.06-0.05,0.11-0.11,0.17-0.17c0.24-0.23,0.48-0.47,0.72-0.72c0.38-0.39,0.75-0.78,1.11-1.19c0.04-0.05,0.09-0.09,0.12-0.14
		c0.35-0.39,0.69-0.79,1.01-1.19c0.06-0.07,0.12-0.14,0.17-0.21c0.1-0.12,0.19-0.24,0.29-0.36c0.04-0.05,0.08-0.11,0.12-0.17
		C180.47,79.48,180.3,79.7,180.11,79.91z M126.53,86.34c0.13,0.1,0.25,0.2,0.38,0.3c0.17,0.13,0.34,0.26,0.51,0.38L126.53,86.34z
		 M126.04,85.96c-0.13-0.1-0.26-0.2-0.39-0.31c0.15,0.13,0.31,0.26,0.46,0.38c0.07,0.05,0.14,0.11,0.21,0.16
		C126.22,86.11,126.13,86.04,126.04,85.96z M114.13,70.18c-0.13-0.32-0.26-0.66-0.38-0.99c0.12,0.33,0.23,0.67,0.36,0.99
		c0.16,0.39,0.32,0.78,0.51,1.16C114.45,70.96,114.28,70.57,114.13,70.18z"/>
	<path d="M150.01,16.76c-21.41,0-38.77,17.36-38.77,38.76c0,0.9,0.03,1.8,0.09,2.69c0.02,0.29,0.04,0.59,0.07,0.88
		c0.05,0.51,0.1,1.02,0.17,1.52c0.06,0.46,0.13,0.91,0.21,1.37c0.06,0.37,0.13,0.74,0.2,1.1c0.05,0.26,0.11,0.52,0.17,0.77
		c0,0.06,0.01,0.12,0.04,0.18c0.07,0.33,0.14,0.65,0.23,0.98c0.18,0.72,0.39,1.43,0.61,2.13c0,0.02,0.01,0.03,0.02,0.05
		c0.12,0.38,0.25,0.77,0.38,1.15c0.1,0.29,0.21,0.57,0.32,0.85c0.12,0.33,0.25,0.67,0.38,0.99c0.15,0.39,0.32,0.78,0.49,1.16
		c0.2,0.46,0.41,0.9,0.63,1.35c0.01,0.03,0.02,0.06,0.04,0.09c0.34,0.67,0.69,1.33,1.06,1.99c0.24,0.41,0.5,0.82,0.75,1.22
		c0.15,0.23,0.28,0.46,0.43,0.69c0.3,0.45,0.61,0.9,0.93,1.34c0.11,0.16,0.22,0.33,0.34,0.49c0.35,0.48,0.72,0.94,1.1,1.4
		c0.09,0.11,0.18,0.23,0.27,0.34c0.41,0.49,0.83,0.97,1.27,1.45c0.06,0.06,0.12,0.13,0.18,0.2c0.47,0.5,0.96,0.99,1.46,1.48
		c0.02,0.02,0.05,0.05,0.07,0.07c0.3,0.29,0.61,0.57,0.92,0.85c0.1,0.09,0.2,0.18,0.3,0.27c0.07,0.06,0.14,0.12,0.21,0.19
		c0.09,0.07,0.18,0.15,0.27,0.23c0.01,0.01,0.01,0.01,0.02,0.01c0.1,0.09,0.19,0.17,0.29,0.25c0.16,0.14,0.33,0.27,0.49,0.4
		c0.13,0.11,0.26,0.21,0.39,0.31c0.09,0.08,0.18,0.15,0.28,0.23c0.03,0.02,0.07,0.05,0.11,0.08c0.03,0.02,0.07,0.05,0.1,0.07
		l0.89,0.68c6.36,4.58,14.16,7.27,22.59,7.27c8.36,0,16.11-2.65,22.44-7.16l1.03-0.79c0.28-0.21,0.55-0.42,0.81-0.64l0.01-0.01
		c0.19-0.15,0.36-0.3,0.55-0.46c0.27-0.21,0.53-0.44,0.79-0.67c0.25-0.22,0.49-0.44,0.74-0.67c0.24-0.22,0.47-0.45,0.71-0.68
		c0.48-0.46,0.94-0.93,1.38-1.41c0.12-0.12,0.23-0.25,0.35-0.38c0.05-0.05,0.11-0.11,0.16-0.17c0.18-0.21,0.37-0.42,0.55-0.63
		c0.03-0.04,0.06-0.08,0.1-0.12c0.16-0.19,0.33-0.39,0.48-0.59c0.19-0.21,0.36-0.43,0.53-0.65c0.04-0.05,0.08-0.11,0.12-0.16
		c0.08-0.1,0.16-0.2,0.24-0.31c0.08-0.1,0.16-0.21,0.24-0.32c0.02-0.03,0.04-0.06,0.06-0.09c0.33-0.44,0.65-0.9,0.96-1.36
		c0.06-0.09,0.12-0.19,0.18-0.28c0.31-0.47,0.61-0.95,0.9-1.44c0.38-0.64,0.74-1.28,1.08-1.94c0.34-0.65,0.66-1.32,0.96-2
		c0.18-0.39,0.35-0.78,0.5-1.18c0.19-0.46,0.38-0.93,0.55-1.4c0.17-0.47,0.33-0.95,0.48-1.43c0.02-0.06,0.04-0.11,0.06-0.17
		c0.11-0.36,0.22-0.71,0.33-1.07c0.22-0.78,0.42-1.56,0.59-2.36c0.05-0.21,0.09-0.43,0.13-0.65c0.08-0.37,0.15-0.75,0.21-1.12
		c0.08-0.46,0.15-0.91,0.21-1.37c0.07-0.5,0.12-1.01,0.17-1.52c0.03-0.29,0.05-0.59,0.07-0.88c0.06-0.89,0.09-1.79,0.09-2.69
		C188.77,34.12,171.41,16.76,150.01,16.76z M173.17,59.09c-1.31,2.67-4.06,4.5-7.23,4.5h-7.83c-0.03,0-0.04,0.02-0.04,0.05v7.81
		c0,4.63-3.89,8.35-8.57,8.06c-4.31-0.27-7.57-4.06-7.56-8.37v-7.5c0-0.03-0.02-0.05-0.05-0.05h-7.82c-3.17,0-5.91-1.83-7.23-4.5
		c-0.53-1.07-0.83-2.29-0.83-3.57c0-2.23,0.9-4.24,2.36-5.7c1.46-1.47,3.47-2.37,5.7-2.37h7.82c0.03,0,0.05-0.01,0.05-0.04v-7.47
		c0-4.32,3.24-8.13,7.55-8.4c2.44-0.15,4.64,0.78,6.22,2.35c1.46,1.46,2.36,3.48,2.36,5.7v7.82c0,0.03,0.01,0.04,0.04,0.04h7.51
		c4.32,0,8.11,3.27,8.37,7.58C174.08,56.49,173.78,57.88,173.17,59.09z"/>
</g>
</svg>
