<?xml version="1.0" encoding="UTF-8" standalone="no"?><!DOCTYPE svg PUBLIC "-//W3C//DTD SVG 1.1//EN" "http://www.w3.org/Graphics/SVG/1.1/DTD/svg11.dtd"><svg width="100%" height="100%" viewBox="0 0 1000 1000" version="1.1" xmlns="http://www.w3.org/2000/svg" xmlns:xlink="http://www.w3.org/1999/xlink" xml:space="preserve" xmlns:serif="http://www.serif.com/" style="fill-rule:evenodd;clip-rule:evenodd;stroke-linejoin:round;stroke-miterlimit:2;"><path d="M337.295,617.444c1.046,-0.007 2.091,-0.013 3.168,-0.02c3.482,-0.017 6.964,-0.004 10.446,0.01c2.505,-0.006 5.011,-0.013 7.516,-0.022c6.79,-0.019 13.581,-0.012 20.371,0.002c4.245,0.008 8.491,0.006 12.736,0.002c1.059,-0.001 1.059,-0.001 2.139,-0.002c1.435,-0.001 2.869,-0.003 4.304,-0.004c13.436,-0.012 26.872,0.002 40.309,0.025c11.51,0.019 23.02,0.016 34.531,-0.004c13.387,-0.023 26.773,-0.032 40.16,-0.019c1.43,0.001 2.86,0.003 4.289,0.004c0.703,0.001 1.407,0.001 2.131,0.002c4.939,0.004 9.877,-0.003 14.815,-0.012c6.658,-0.012 13.316,-0.004 19.974,0.021c2.439,0.006 4.877,0.004 7.316,-0.005c16.457,-0.057 29.702,0.255 42.235,12.201c7.748,8.164 11.184,18.449 11.73,29.586c-0.332,11.753 -4.801,20.915 -13.28,29.037c-3.389,3.065 -6.915,5.949 -10.492,8.791c-2.581,2.054 -5.12,4.16 -7.666,6.258c-2.836,2.312 -5.675,4.62 -8.515,6.927c-0.944,0.769 -1.888,1.539 -2.86,2.331c-1.434,1.168 -1.434,1.168 -2.897,2.36c-2.182,1.81 -4.335,3.636 -6.473,5.497c-12.585,10.932 -22.596,17.467 -39.704,17.428c-1.87,0.008 -1.87,0.008 -3.777,0.017c-3.406,0.014 -6.812,0.018 -10.219,0.02c-3.575,0.005 -7.149,0.024 -10.724,0.042c-10.627,0.052 -21.255,0.085 -31.882,0.107c-8.262,0.018 -16.523,0.042 -24.785,0.088c-3.553,0.019 -7.106,0.032 -10.66,0.03c-3.966,0 -7.932,0.02 -11.898,0.043c-1.167,-0.005 -2.333,-0.01 -3.535,-0.015c-9.45,0.089 -18.105,2.029 -25.047,8.904c-5.708,8.245 -7.093,15.467 -6.349,25.395c1.312,6.403 4.574,11.625 9.523,15.872c7.444,4.684 14.228,6.475 23.012,6.49c1.188,0.005 2.376,0.009 3.6,0.014c1.288,-0 2.576,-0.001 3.903,-0.001c1.369,0.004 2.737,0.007 4.147,0.011c3.743,0.009 7.486,0.012 11.229,0.013c2.342,0.001 4.684,0.003 7.027,0.006c8.182,0.01 16.364,0.014 24.546,0.013c7.609,-0.001 15.219,0.011 22.828,0.027c6.548,0.014 13.095,0.02 19.643,0.019c3.904,-0 7.808,0.003 11.712,0.014c4.359,0.012 8.717,0.007 13.075,0.001c1.282,0.006 2.563,0.012 3.884,0.018c16.154,-0.06 26.148,-4.673 37.888,-15.643c3.237,-2.915 6.606,-5.582 10.052,-8.242c5.866,-4.541 11.536,-9.262 17.145,-14.116c5.572,-4.818 11.258,-9.484 16.979,-14.123c1.941,-1.586 3.881,-3.173 5.82,-4.762c2.835,-2.32 5.67,-4.639 8.506,-6.956c6.787,-5.546 13.554,-11.115 20.318,-16.689c5.043,-4.154 10.095,-8.296 15.154,-12.43c4.041,-3.31 8.071,-6.631 12.102,-9.953c5.975,-4.924 11.953,-9.845 17.955,-14.735c1.839,-1.507 3.668,-3.026 5.489,-4.555c26.591,-22.198 55.705,-34.331 90.696,-31.281c28.948,3.152 62.364,16.451 81.212,39.569c5.799,8.539 6.419,17.091 4.749,27.28c-3.063,9.701 -12.054,16.396 -19.703,22.469c-3.405,2.715 -6.726,5.515 -10.04,8.341c-5.131,4.362 -10.318,8.645 -15.541,12.896c-3.312,2.724 -6.586,5.49 -9.854,8.267c-5.131,4.361 -10.318,8.645 -15.541,12.896c-3.312,2.724 -6.586,5.49 -9.854,8.267c-5.131,4.361 -10.318,8.645 -15.541,12.896c-3.312,2.724 -6.586,5.49 -9.854,8.267c-5.131,4.361 -10.318,8.645 -15.541,12.896c-3.312,2.724 -6.586,5.49 -9.854,8.267c-5.131,4.361 -10.318,8.645 -15.541,12.896c-3.312,2.724 -6.586,5.49 -9.854,8.267c-5.131,4.361 -10.318,8.645 -15.541,12.896c-3.312,2.724 -6.586,5.49 -9.854,8.267c-5.139,4.367 -10.332,8.659 -15.566,12.912c-2.61,2.149 -5.182,4.335 -7.745,6.539c-21.389,18.337 -43.799,33.962 -70.796,42.779c-1.094,0.366 -1.094,0.366 -2.21,0.739c-17.2,5.304 -34.536,5.746 -52.374,5.707c-2.5,0.006 -4.999,0.013 -7.499,0.022c-6.731,0.019 -13.461,0.018 -20.192,0.012c-6.348,-0.004 -12.696,0.005 -19.045,0.012c-13.327,0.014 -26.653,0.009 -39.98,-0.003c-12.175,-0.011 -24.35,0.003 -36.526,0.028c-12.54,0.026 -25.08,0.036 -37.62,0.029c-7.025,-0.004 -14.05,-0.001 -21.076,0.017c-6.597,0.016 -13.193,0.012 -19.789,-0.008c-2.417,-0.004 -4.834,-0.001 -7.252,0.01c-3.304,0.014 -6.608,0.002 -9.912,-0.017c-0.951,0.01 -1.903,0.02 -2.883,0.031c-8.909,-0.103 -16.526,-3.145 -23.097,-9.23c-6.134,-7.12 -7.718,-14.727 -7.629,-23.865c-0.01,-1.096 -0.021,-2.191 -0.031,-3.32c-0.028,-3.645 -0.019,-7.289 -0.009,-10.933c-0.012,-2.624 -0.027,-5.247 -0.044,-7.871c-0.035,-6.37 -0.045,-12.74 -0.044,-19.11c-0,-7.427 -0.028,-14.853 -0.058,-22.28c-0.051,-13.255 -0.078,-26.51 -0.09,-39.765c-0.012,-12.847 -0.041,-25.694 -0.089,-38.541c-0.003,-0.791 -0.006,-1.583 -0.009,-2.398c-0.003,-0.79 -0.006,-1.58 -0.009,-2.394c-0.006,-1.591 -0.012,-3.182 -0.018,-4.773c-0.003,-0.785 -0.006,-1.57 -0.009,-2.378c-0.045,-12.265 -0.074,-24.531 -0.102,-36.796c-0.01,-4.437 -0.023,-8.874 -0.037,-13.311c-0.025,-7.698 -0.039,-15.396 -0.041,-23.095c-0.002,-2.554 -0.008,-5.107 -0.018,-7.661c-0.013,-3.49 -0.012,-6.98 -0.008,-10.469c-0.007,-1.007 -0.013,-2.013 -0.02,-3.051c0.048,-12.009 2.521,-21.019 11.182,-29.68c7.671,-4.816 14.122,-6.644 23.155,-6.556Z" style="fill-rule:nonzero;"/><path d="M302.174,159.675c1.256,-0.006 1.256,-0.006 2.537,-0.012c0.914,0.001 1.827,0.002 2.768,0.003c1.463,-0.005 1.463,-0.005 2.956,-0.01c3.277,-0.009 6.553,-0.011 9.83,-0.012c2.346,-0.005 4.693,-0.01 7.039,-0.016c6.382,-0.014 12.764,-0.021 19.146,-0.025c3.989,-0.003 7.978,-0.007 11.967,-0.012c11.054,-0.013 22.108,-0.024 33.162,-0.027c0.707,-0 1.415,-0 2.143,-0.001c0.709,-0 1.418,-0 2.148,-0.001c1.437,-0 2.873,-0.001 4.31,-0.001c1.069,-0 1.069,-0 2.159,-0.001c11.531,-0.004 23.062,-0.023 34.592,-0.047c11.852,-0.025 23.704,-0.038 35.556,-0.04c6.649,-0.001 13.298,-0.007 19.947,-0.026c6.26,-0.017 12.52,-0.02 18.78,-0.01c2.291,0.001 4.583,-0.004 6.874,-0.014c17.577,-0.076 32.135,0.239 45.474,13.041c10.327,11.138 11.921,22.526 11.885,37.244c0.004,1.537 0.009,3.073 0.015,4.61c0.013,4.214 0.013,8.427 0.01,12.641c-0,4.548 0.011,9.096 0.021,13.643c0.018,8.906 0.023,17.812 0.025,26.717c0.001,7.239 0.005,14.477 0.012,21.716c0.019,20.524 0.028,41.049 0.027,61.573c-0,1.106 -0,2.212 -0,3.352c-0,1.107 -0,2.215 -0,3.356c-0.001,17.955 0.019,35.91 0.049,53.865c0.03,18.438 0.045,36.876 0.043,55.314c-0.001,10.351 0.005,20.702 0.028,31.052c0.019,8.811 0.024,17.622 0.01,26.433c-0.007,4.495 -0.007,8.99 0.011,13.485c0.017,4.117 0.014,8.233 -0.005,12.349c-0.003,1.487 0.001,2.975 0.012,4.462c0.065,8.793 0.055,16.218 -6.267,22.98c-6.691,5.986 -12.781,6.12 -21.33,6.099c-1.139,0.006 -2.279,0.011 -3.452,0.017c-3.824,0.016 -7.648,0.017 -11.473,0.017c-2.739,0.008 -5.478,0.017 -8.218,0.027c-7.446,0.024 -14.892,0.033 -22.339,0.038c-4.651,0.003 -9.302,0.01 -13.953,0.018c-12.881,0.021 -25.763,0.038 -38.644,0.041c-1.236,0 -1.236,0 -2.497,0.001c-1.67,0 -3.341,0.001 -5.011,0.001c-0.829,0 -1.658,0 -2.513,0.001c-0.83,0 -1.66,0 -2.516,0.001c-13.453,0.004 -26.906,0.032 -40.359,0.072c-13.818,0.04 -27.635,0.061 -41.453,0.061c-7.756,0.001 -15.512,0.01 -23.267,0.04c-7.295,0.029 -14.589,0.03 -21.883,0.013c-2.677,-0.002 -5.354,0.005 -8.031,0.022c-3.655,0.022 -7.309,0.011 -10.965,-0.009c-1.059,0.014 -2.117,0.028 -3.208,0.042c-6.939,-0.083 -11.451,-1.558 -16.844,-5.983c-5.186,-5.323 -6.611,-10.893 -6.621,-18.205c-0.007,-1.303 -0.014,-2.606 -0.021,-3.948c0.003,-1.437 0.006,-2.874 0.01,-4.311c-0.004,-1.534 -0.009,-3.067 -0.015,-4.601c-0.013,-4.21 -0.013,-8.42 -0.01,-12.629c0,-4.542 -0.011,-9.084 -0.021,-13.626c-0.018,-8.898 -0.023,-17.796 -0.025,-26.693c-0.001,-7.234 -0.005,-14.468 -0.012,-21.702c-0.019,-20.514 -0.028,-41.029 -0.027,-61.543c0,-1.106 0,-2.212 0,-3.351c0,-1.107 0,-2.214 0,-3.355c0.001,-17.939 -0.019,-35.879 -0.049,-53.818c-0.03,-18.425 -0.045,-36.849 -0.043,-55.274c0.001,-10.342 -0.005,-20.684 -0.028,-31.026c-0.019,-8.807 -0.024,-17.613 -0.01,-26.42c0.007,-4.491 0.007,-8.982 -0.011,-13.473c-0.017,-4.117 -0.014,-8.233 0.005,-12.35c0.003,-1.484 -0.001,-2.968 -0.012,-4.452c-0.104,-14.034 3.094,-25.823 12.804,-36.296c6.676,-6.173 15.546,-11.005 24.775,-11.022Zm80.744,114.747c-7.965,9.257 -11.926,18.228 -13.028,30.355c-0.668,-0.01 -1.337,-0.019 -2.025,-0.029c-10.598,0.351 -20.859,4.733 -28.66,11.999c-11.524,13.124 -13.761,28.162 -12.871,45.082c0.961,12.187 6.039,22.879 15.029,31.202c8.151,6.625 17.792,11.209 28.528,11.209c0.091,0.794 0.183,1.588 0.277,2.406c1.77,12.89 6.655,22.661 16.645,31.124c14.022,10.272 31.549,10.645 48.198,8.258c13.08,-3.21 22.609,-10.49 29.541,-21.849c2.198,-4.062 3.618,-8.084 4.803,-12.532c0.419,-1.433 0.837,-2.866 1.257,-4.299c0.284,-1.026 0.567,-2.051 0.86,-3.108c0.858,-0.155 1.716,-0.311 2.6,-0.471c13.398,-2.714 23.698,-7.757 31.95,-18.798c8.487,-12.824 9.518,-28.766 7.204,-43.656c-3.092,-13.455 -9.447,-23.666 -21.32,-31.115c-6.523,-3.59 -13.132,-5.244 -20.435,-6.481c-0.262,-0.982 -0.524,-1.964 -0.794,-2.976c-4.058,-13.921 -9.332,-24.385 -21.427,-33c-21.473,-11.165 -47.914,-9.168 -66.331,6.679Z" style="fill-rule:nonzero;"/><path d="M146.274,617.674c0.787,-0.007 1.574,-0.014 2.386,-0.022c2.589,-0.02 5.178,-0.024 7.767,-0.027c1.813,-0.007 3.627,-0.014 5.44,-0.021c3.799,-0.013 7.597,-0.017 11.396,-0.015c4.841,0 9.681,-0.029 14.522,-0.065c3.747,-0.024 7.493,-0.028 11.24,-0.027c1.783,-0.002 3.566,-0.012 5.349,-0.028c14.078,-0.118 25.164,1.431 36.186,10.878c8.215,8.129 12.199,17.785 12.304,29.292c-0.011,1.449 -0.011,1.449 -0.021,2.928c0.005,1.051 0.01,2.103 0.015,3.186c0.013,3.502 0.003,7.003 -0.007,10.505c0.004,2.519 0.01,5.038 0.017,7.557c0.013,6.119 0.011,12.238 0.002,18.357c-0.007,4.976 -0.008,9.951 -0.005,14.927c0,0.71 0.001,1.419 0.001,2.15c0.001,1.442 0.002,2.883 0.003,4.325c0.009,13.502 -0.001,27.004 -0.018,40.507c-0.014,11.572 -0.012,23.144 0.003,34.717c0.017,13.456 0.024,26.911 0.014,40.367c-0.001,1.436 -0.002,2.873 -0.003,4.309c-0,0.707 -0.001,1.413 -0.001,2.141c-0.003,4.967 0.002,9.933 0.009,14.9c0.009,6.691 0.003,13.382 -0.016,20.073c-0.004,2.453 -0.003,4.906 0.004,7.359c0.009,3.353 -0.002,6.706 -0.018,10.06c0.007,0.966 0.014,1.932 0.021,2.928c-0.099,10.851 -3.4,19.164 -11.006,26.961c-7.663,6.237 -14.673,8.784 -24.584,8.772c-0.851,0.007 -1.702,0.014 -2.578,0.022c-2.8,0.02 -5.6,0.024 -8.401,0.027c-1.958,0.007 -3.917,0.014 -5.875,0.021c-4.102,0.013 -8.204,0.017 -12.306,0.015c-5.235,-0 -10.469,0.029 -15.703,0.065c-4.045,0.024 -8.09,0.028 -12.135,0.027c-1.929,0.002 -3.857,0.012 -5.786,0.028c-13.457,0.104 -24.299,-0.419 -34.576,-10.114c-7.544,-8.283 -9.582,-16.585 -9.546,-27.553c-0.005,-1.075 -0.01,-2.149 -0.015,-3.256c-0.013,-3.599 -0.012,-7.198 -0.01,-10.797c-0.006,-2.581 -0.014,-5.162 -0.022,-7.744c-0.017,-6.283 -0.023,-12.566 -0.025,-18.849c-0.001,-5.109 -0.005,-10.218 -0.012,-15.326c-0.019,-14.494 -0.028,-28.988 -0.027,-43.482c0,-0.781 0,-1.562 0,-2.366c0,-0.782 0,-1.564 0,-2.369c0.001,-12.669 -0.019,-25.337 -0.049,-38.006c-0.03,-13.018 -0.045,-26.035 -0.043,-39.053c0.001,-7.305 -0.005,-14.609 -0.028,-21.914c-0.021,-6.871 -0.021,-13.741 -0.005,-20.612c0.002,-2.52 -0.003,-5.039 -0.016,-7.559c-0.016,-3.444 -0.007,-6.887 0.01,-10.331c-0.011,-0.993 -0.022,-1.986 -0.033,-3.009c0.104,-9.995 4.08,-18.951 11.137,-26.084c7.84,-5.759 15.264,-8.785 25.042,-8.772Z" style="fill-rule:nonzero;"/><path d="M860.809,358.092c16.864,14.676 27.374,35.734 29.016,58.056c0.615,14.092 -2.256,28.489 -8.862,40.998c-0.406,0.881 -0.813,1.762 -1.232,2.67c-8.962,18.291 -26.962,31.113 -42.436,43.639c-3.227,2.641 -6.398,5.343 -9.569,8.052c-4.694,4.003 -9.474,7.862 -14.351,11.639c-6.079,4.714 -11.91,9.667 -17.698,14.734c-4.745,4.151 -9.574,8.176 -14.476,12.141c-2.587,2.119 -5.131,4.28 -7.666,6.461c-25.908,22.213 -48.034,35.305 -83.035,33.988c-20.877,-1.624 -37.981,-12.834 -52.009,-27.829c-9.397,-11.021 -14.516,-23.834 -17.827,-37.774c-0.307,-1.211 -0.307,-1.211 -0.62,-2.447c-3.327,-21.597 1.639,-43.871 14.045,-61.834c8.166,-10.47 17.792,-18.914 28.284,-26.941c3.916,-3.011 7.663,-6.198 11.395,-9.432c6.194,-5.36 12.484,-10.582 18.848,-15.74c6.247,-5.076 12.451,-10.194 18.583,-15.409c4.868,-4.138 9.797,-8.183 14.801,-12.156c5.905,-4.699 11.788,-9.433 17.467,-14.405c34.731,-30.309 78.982,-39.412 117.34,-8.411Zm-140.813,71.08c-0.983,0.866 -0.983,0.866 -1.985,1.749c-0.698,0.623 -1.396,1.246 -2.115,1.888c-1.448,1.275 -2.897,2.548 -4.348,3.819c-0.707,0.62 -1.414,1.24 -2.143,1.879c-3.273,2.834 -6.656,5.518 -10.054,8.198c-3.623,2.862 -7.19,5.791 -10.755,8.725c-2.606,2.143 -5.232,4.26 -7.862,6.374c-1.594,1.291 -3.188,2.582 -4.782,3.873c-0.75,0.598 -1.501,1.197 -2.274,1.813c-7.858,6.393 -14.087,13.084 -18.095,22.458c-0.415,0.917 -0.829,1.833 -1.257,2.778c-4.136,12.089 -2.883,26.792 2.658,38.2c1.535,2.667 3.171,5.184 4.948,7.696c0.7,1.011 0.7,1.011 1.414,2.042c7.341,9.547 18.747,14.747 30.33,17.004c12.703,1.383 25.054,-0.927 35.517,-8.51c4.663,-3.75 9.196,-7.646 13.706,-11.577c3.141,-2.735 6.335,-5.394 9.569,-8.019c4.845,-3.934 9.618,-7.945 14.367,-11.995c2.811,-2.391 5.637,-4.752 8.527,-7.047c1.043,-0.831 2.087,-1.661 3.162,-2.517c1.397,-1.095 1.397,-1.095 2.823,-2.211c2.242,-2.062 3.132,-3.603 4.385,-6.32c-0.399,-0.484 -0.798,-0.968 -1.209,-1.467c-6.879,-8.347 -13.755,-16.697 -20.599,-25.073c-3.848,-4.697 -7.714,-9.378 -11.578,-14.061c-3.799,-4.611 -7.576,-9.239 -11.333,-13.883c-7.394,-9.637 -7.394,-9.637 -15.595,-18.526c-2.782,0 -3.367,0.88 -5.423,2.711Z" style="fill-rule:nonzero;"/><path d="M440.032,286.272c4.595,3.718 7.745,7.369 9.217,13.214c0.365,4.397 0.3,8.753 0.198,13.16c-0.021,1.767 -0.021,1.767 -0.043,3.569c-0.037,2.889 -0.089,5.777 -0.155,8.665c0.693,-0.017 1.386,-0.033 2.1,-0.05c3.18,-0.067 6.359,-0.107 9.54,-0.148c1.09,-0.027 2.18,-0.053 3.302,-0.081c7.999,-0.076 14.289,0.547 20.704,5.768c6.497,7.901 8.581,13.257 8.333,23.609c0.012,1.052 0.023,2.103 0.035,3.187c-0.078,7.822 -1.549,13.607 -6.71,19.588c-0.591,0.472 -1.181,0.944 -1.79,1.43c-0.588,0.488 -1.176,0.977 -1.781,1.48c-4.458,2.91 -8.299,3.675 -13.582,3.621c-1.176,-0.007 -2.353,-0.014 -3.565,-0.021c-1.826,-0.027 -1.826,-0.027 -3.689,-0.054c-1.238,-0.01 -2.476,-0.019 -3.751,-0.029c-3.049,-0.025 -6.097,-0.06 -9.145,-0.103c0.017,0.768 0.033,1.536 0.05,2.328c0.066,3.501 0.107,7.001 0.148,10.502c0.027,1.208 0.053,2.417 0.081,3.662c0.073,8.397 -0.759,14.03 -6.826,20.212c-0.561,0.593 -1.121,1.187 -1.699,1.798c-6.405,4.682 -13.112,5.39 -20.852,5.278c-0.85,0.012 -1.7,0.025 -2.575,0.037c-7.104,-0.035 -12.644,-1.614 -18.786,-5.328c-6.199,-6.366 -8.956,-13.657 -8.899,-22.473c0.003,-0.938 0.007,-1.875 0.01,-2.842c0.013,-1.448 0.013,-1.448 0.027,-2.924c0.005,-0.985 0.01,-1.971 0.014,-2.986c0.012,-2.421 0.03,-4.843 0.052,-7.264c-1.079,0.042 -1.079,0.042 -2.18,0.084c-3.307,0.111 -6.614,0.179 -9.922,0.247c-1.131,0.044 -2.263,0.089 -3.429,0.134c-7.704,0.118 -13.231,-0.947 -19.387,-5.756c-6.829,-7.079 -8.514,-14.056 -8.796,-23.675c0.147,-7.933 1.477,-14.335 5.687,-21.096c8.044,-7.36 15.87,-8.905 26.519,-8.465c1.113,0.024 2.226,0.048 3.373,0.072c2.713,0.062 5.423,0.148 8.134,0.258c-0.017,-0.591 -0.033,-1.182 -0.05,-1.792c-0.067,-2.731 -0.108,-5.463 -0.148,-8.195c-0.027,-0.93 -0.053,-1.859 -0.081,-2.817c-0.109,-9.868 2.018,-17.339 8.851,-24.591c10.372,-9.07 30.345,-8.559 41.465,-1.215Z" style="fill:#010000;fill-rule:nonzero;"/><path d="M362.547,65.214c2.071,-0.011 2.071,-0.011 4.184,-0.022c3.771,-0.019 7.542,-0.018 11.314,-0.012c3.155,0.003 6.311,-0.003 9.466,-0.01c7.447,-0.015 14.894,-0.013 22.341,-0.001c7.668,0.012 15.335,-0.003 23.003,-0.031c6.598,-0.023 13.196,-0.03 19.794,-0.024c3.934,0.004 7.868,0.001 11.802,-0.017c4.389,-0.019 8.778,-0.004 13.167,0.014c1.294,-0.01 2.587,-0.02 3.92,-0.031c8.964,0.078 14.802,1.26 21.477,7.638c5.75,8.707 5.994,17.485 5.903,27.69c-0.017,2.264 -0,4.526 0.02,6.79c0.015,8.834 -0.123,16.984 -5.353,24.407c-0.603,0.558 -1.206,1.116 -1.827,1.691c-0.896,0.865 -0.896,0.865 -1.81,1.748c-4.249,3.13 -8.196,3.874 -13.399,3.898c-1.215,0.011 -2.43,0.021 -3.681,0.032c-1.323,0.001 -2.646,0.001 -4.01,0.002c-1.415,0.008 -2.83,0.017 -4.246,0.027c-3.837,0.023 -7.674,0.033 -11.511,0.038c-2.4,0.004 -4.8,0.01 -7.199,0.018c-8.38,0.026 -16.76,0.04 -25.14,0.043c-7.799,0.004 -15.597,0.035 -23.396,0.08c-6.706,0.037 -13.411,0.053 -20.117,0.054c-4.001,0.001 -8.001,0.01 -12.001,0.04c-3.765,0.028 -7.53,0.03 -11.295,0.013c-2.03,-0.003 -4.061,0.02 -6.091,0.045c-8.675,-0.073 -13.845,-1.609 -20.26,-7.424c-7.069,-7.48 -6.17,-17.893 -6.139,-27.492c0.003,-2.197 -0.022,-4.392 -0.048,-6.588c-0.044,-9.131 0.091,-18.508 6.467,-25.707c0.712,-0.847 0.712,-0.847 1.438,-1.711c7.08,-5.647 14.551,-5.229 23.227,-5.197Z" style="fill-rule:nonzero;"/></svg>