<?xml version="1.0" encoding="utf-8"?>
<!-- Generator: Adobe Illustrator 23.0.1, SVG Export Plug-In . SVG Version: 6.00 Build 0)  -->
<svg version="1.1" id="Layer_1" xmlns="http://www.w3.org/2000/svg" xmlns:xlink="http://www.w3.org/1999/xlink" x="0px" y="0px"
	 viewBox="0 0 300 300" style="enable-background:new 0 0 300 300;" xml:space="preserve">
<style type="text/css">
	.st0{stroke:#000000;stroke-width:3;stroke-miterlimit:10;}
	.st1{fill:#E3E3E3;}
</style>
<g>
	<path d="M260.5,223.67c-3.77,1.63-7.78,2.46-11.93,2.46c-3.06,0-6.09-0.46-9.01-1.37l-0.29-0.09h-3.15l0.32-1.03l-1.51-0.76
		c-2.12-1.06-4.12-2.38-5.95-3.93l-2.04-1.72l-3.29,7.44h-3.8l4.63-10.44l-0.65-0.93c-1.71-2.42-3.05-5.07-3.98-7.88
		c-0.33-0.97-0.6-1.96-0.81-2.94l-0.34-1.58h-22.4v-2.86c0-1.97-1.6-3.57-3.57-3.57h-5.67c-1.97,0-3.58,1.6-3.58,3.57v2.86h-8.35
		c-1.97,0-3.58,1.6-3.58,3.57v23.02c0,1.97,1.61,3.57,3.58,3.57h8.35v21.77h-3.37c-1.97,0-3.58,1.6-3.58,3.57v1.3
		c0,0.86,0.31,1.68,0.87,2.32l0.24,0.26l0.31,0.17c1.02,0.54,2.11,0.82,3.26,0.82h74.84c1.08,0,2.1-0.49,2.74-1.3
		c0.54-0.62,0.83-1.43,0.83-2.27v-1.3c0-1.97-1.6-3.57-3.57-3.57h-4.68v-21.77h8.36c1.97,0,3.57-1.6,3.57-3.57v-5.04L260.5,223.67z
		 M175.95,206.86c0-0.3,0.08-0.58,0.22-0.81c0.28-0.46,0.77-0.76,1.35-0.76h5.47c0.59,0,1.07,0.31,1.35,0.76
		c0.26,0.41,0.31,0.94,0.09,1.45l-1.59,3.59l-2.59,5.85l-1.04,2.35l-0.26,0.58c-0.67,1.51-2.88,1.09-3-0.5V206.86z M194.6,205.29
		h4.72c0.59,0,1.08,0.31,1.35,0.76c0.25,0.41,0.32,0.94,0.1,1.45L193.9,223l-1.21,2.73c-0.25,0.57-0.81,0.94-1.44,0.94h-4.73
		c-0.5,0-0.93-0.22-1.21-0.57c-0.36-0.44-0.48-1.06-0.22-1.64l4.1-9.27l3.97-8.97C193.41,205.65,193.98,205.29,194.6,205.29z
		 M238.55,231.06v21.77H196.3v-21.77H238.55z M217.1,207.5l-8.07,18.23c-0.25,0.57-0.82,0.94-1.44,0.94h-4.73
		c-1.14,0-1.89-1.17-1.44-2.21l8.08-18.24c0.02-0.06,0.06-0.12,0.09-0.17c0.28-0.47,0.8-0.76,1.35-0.76h4.72
		c0.58,0,1.08,0.31,1.34,0.76C217.26,206.46,217.33,206.99,217.1,207.5z"/>
</g>
<g>
	<g>
		<path d="M166.92,218.09c-2-2.26-4.58-3.99-7.51-4.95c-1.69-0.56-3.49-0.86-5.36-0.86H35.68c-9.47,0-17.15,7.68-17.15,17.15v15.1
			c0,9.47,7.68,17.15,17.15,17.15h118.37c0.38,0,0.76-0.01,1.13-0.04c5.2-0.34,9.77-3,12.68-6.95c2.1-2.85,3.34-6.36,3.34-10.16
			v-15.1C171.2,225.09,169.58,221.11,166.92,218.09z M65.48,241.37h-21.2c-1.22,0-2.31-0.49-3.11-1.29
			c-0.79-0.79-1.28-1.89-1.28-3.1c0-2.42,1.96-4.39,4.39-4.39h21.2c1.22,0,2.31,0.49,3.11,1.29c0.79,0.79,1.28,1.89,1.28,3.1
			C69.87,239.4,67.91,241.37,65.48,241.37z M105.47,241.37H84.26c-1.21,0-2.31-0.49-3.1-1.29c-0.8-0.79-1.29-1.89-1.29-3.1
			c0-2.42,1.97-4.39,4.39-4.39h21.21c1.21,0,2.31,0.49,3.1,1.29c0.8,0.79,1.29,1.89,1.29,3.1
			C109.86,239.4,107.89,241.37,105.47,241.37z M145.45,241.37h-21.2c-1.21,0-2.31-0.49-3.11-1.29c-0.79-0.79-1.28-1.89-1.28-3.1
			c0-2.42,1.96-4.39,4.39-4.39h21.2c1.21,0,2.31,0.49,3.11,1.29c0.79,0.79,1.28,1.89,1.28,3.1
			C149.84,239.4,147.88,241.37,145.45,241.37z"/>
	</g>
	<g>
		<g>
			<path d="M243.91,33.89V52.2c3.48-0.29,6.68-1.58,9.31-3.57V33.89H243.91z"/>
		</g>
	</g>
	<g>
		<g>
			<path d="M253.22,33.89v14.74c-2.63,1.99-5.83,3.28-9.31,3.57V33.89H253.22z"/>
			<path d="M253.22,33.89v14.74c-2.63,1.99-5.83,3.28-9.31,3.57V33.89H253.22z"/>
		</g>
	</g>
	<g>
		<path d="M123.45,181.05c0,0,0,0,0,0.01c-0.1,0.19-0.24,0.37-0.39,0.53c-0.42,0.42-1,0.69-1.66,0.69H66.24
			c-1.28,0-2.32-1.04-2.32-2.32v-35.59c0-1.28,1.04-2.32,2.32-2.32h7.27c8.07,0,15.79,1.78,22.95,5.29c3.4,1.66,6.62,3.7,9.62,6.08
			c8.4,6.69,14.48,15.65,17.54,25.88c0,0.01,0.01,0.02,0.01,0.03c0.03,0.1,0.06,0.21,0.07,0.31
			C123.78,180.14,123.68,180.63,123.45,181.05z M153.25,147.8c-3.99-6.84-8.86-13.14-14.51-18.78l53.1-40.44L153.25,147.8z
			 M254.67,174.45l-1.45-0.41V160.2h11.19c2.56,0,4.65-2.09,4.65-4.65c0-2.57-2.09-4.66-4.65-4.66h-11.19V48.63
			c-2.63,1.99-5.83,3.28-9.31,3.57V33.89h9.31v14.74c4.36-3.29,7.18-8.52,7.18-14.41c0-9.97-8.08-18.05-18.05-18.05
			c-9.97,0-18.06,8.08-18.06,18.05c0,1.42,0.17,2.81,0.48,4.14l-8.42,6.41L114.03,122.7l-8.77,6.68c-9.59-4.7-20.36-7.33-31.75-7.33
			H57.82c-7.68,0-13.9,6.22-13.9,13.9v64.01c0,1.28,1.04,2.32,2.32,2.32h97.25c0.27,0,0.54-0.05,0.78-0.13
			c0.9-0.33,1.54-1.18,1.54-2.19v-4.09l3.86-5.92l5.2-7.99l8.96-13.76l69.9-107.28c1.37,0.45,2.78,0.78,4.21,1.01
			c1.45,0.23,2.93,0.34,4.41,0.34c0.52,0,1.04-0.01,1.56-0.05v88.67h-11.18c-2.57,0-4.66,2.09-4.66,4.66c0,2.56,2.09,4.65,4.66,4.65
			h11.18v18.06c0,2.56,2.09,4.65,4.66,4.65c7.14,0,12.95,5.81,12.95,12.96c0,2.59-0.76,5-2.08,7.03c-2.2,3.39-5.95,5.7-10.24,5.9
			c-0.21,0.01-0.42,0.02-0.63,0.02c-2.46,0-4.76-0.69-6.72-1.88c-1.68-1.02-3.1-2.4-4.16-4.04c-1.32-2.03-2.08-4.44-2.08-7.03
			c0-2.57-2.09-4.66-4.65-4.66c-2.57,0-4.66,2.09-4.66,4.66c0,2.45,0.4,4.82,1.14,7.03c0.27,0.82,0.59,1.62,0.96,2.39
			c0.93,1.99,2.15,3.82,3.61,5.44c1.72,1.91,3.76,3.53,6.05,4.75c2.18,1.18,4.58,2,7.12,2.39c1.11,0.17,2.24,0.26,3.39,0.26
			c1.68,0,3.32-0.19,4.9-0.54c1.92-0.44,3.75-1.12,5.45-2.03c0.83-0.43,1.62-0.92,2.38-1.45c5.76-4.02,9.53-10.7,9.53-18.24
			C270.83,185.98,264.19,177.17,254.67,174.45z"/>
		<path d="M253.22,33.89v14.74c-2.63,1.99-5.83,3.28-9.31,3.57V33.89H253.22z"/>
	</g>
</g>
</svg>
