<?xml version="1.0" encoding="utf-8"?>
<!-- Generator: Adobe Illustrator 23.0.1, SVG Export Plug-In . SVG Version: 6.00 Build 0)  -->
<svg version="1.1" id="Layer_1" xmlns="http://www.w3.org/2000/svg" xmlns:xlink="http://www.w3.org/1999/xlink" x="0px" y="0px"
	 viewBox="0 0 300 300" style="enable-background:new 0 0 300 300;" xml:space="preserve">
<style type="text/css">
	.st0{fill:none;}
	.st1{fill:#FFFFFF;}
</style>
<g>
	<path d="M129.06,133.02c0.46-0.18,0.94-0.34,1.41-0.49c0.18-0.22,0.37-0.45,0.54-0.66L129.06,133.02z"/>
	<path d="M171.98,85.74c-7.87,2.85-13.31,10.38-13.31,19v21.41h-15.21c-1.59,0-3.12,0.22-4.58,0.65c-3.1,0.9-5.81,2.69-7.87,5.08
		l-1.96,1.14c-2.87,1.02-5.57,2.44-8.02,4.16c-4.75,3.32-8.63,7.79-11.23,12.98c-1.53,0.02-2.99,0.27-4.37,0.75
		c-0.57-1.71-1.45-3.3-2.57-4.66c2.07-2.54,3.32-5.78,3.32-9.3c0-3.44-1.16-6.69-3.32-9.31c2.08-2.54,3.32-5.77,3.32-9.3v-2.52
		c0-12.49-5.66-23.69-14.55-31.16h3.52c-4.33-2.97-7.18-7.96-7.18-13.6c0-9.1,7.38-16.47,16.47-16.47c3.19,0,6.16,0.9,8.68,2.47
		c2.05,1.26,3.79,2.98,5.11,4.98c0.54-2.4,1.53-4.63,2.86-6.59c3.53-5.25,9.52-8.7,16.32-8.7c10.85,0,19.65,8.8,19.65,19.66
		c0,8.29-5.12,15.36-12.38,18.26h22.69C169.02,84.67,170.58,85.05,171.98,85.74z"/>
	<path d="M169.66,121.97v-17.23c0-4.44,3.14-8.23,7.46-9.05l0.68-0.12l57.42-10.75c5.6-1.04,10.78,3.3,10.78,9.05V131h-12.22
		l-1.68-4.67l-0.27-0.77c-0.52-1.44-1.21-2.8-2.05-4.07c-4.15-6.32-12.04-10.45-20.59-10.45h-18.6c-4.6,0-9.02,1.2-12.77,3.3
		C174.43,116.23,171.59,118.85,169.66,121.97z"/>
	<path d="M246,93.88V131h-12.22l-1.68-4.67l-0.27-0.77c-0.52-1.44-1.21-2.8-2.05-4.07c-4.15-6.32-12.04-10.45-20.59-10.45h-18.6
		c-4.6,0-9.02,1.2-12.77,3.3c-3.37,1.89-6.21,4.52-8.14,7.64v-17.23c0-4.44,3.14-8.23,7.46-9.05l0.68-0.12l57.42-10.75
		C240.82,83.78,246,88.12,246,93.88z"/>
	<g>
		<path d="M208.34,169.26c-2.68-0.8-5.53-1.23-8.46-1.23s-5.78,0.43-8.46,1.23c-12.14,3.65-21.01,14.92-21.01,28.24
			c0,16.25,13.22,29.47,29.47,29.47s29.47-13.22,29.47-29.47C229.35,184.18,220.48,172.91,208.34,169.26z M199.88,226.41
			c-15.94,0-28.91-12.96-28.91-28.91c0-12.67,8.48-24.05,20.62-27.69c2.7-0.8,5.48-1.21,8.29-1.21c2.8,0,5.59,0.41,8.27,1.2
			c12.16,3.65,20.63,15.04,20.63,27.7C228.78,213.45,215.81,226.41,199.88,226.41z"/>
		<path d="M259.14,142.56h-33.49l-0.59-1.66l-4.11-11.44c-1.44-4-6.63-6.86-11.77-6.86h-18.61c-5.14,0-10.33,2.86-11.77,6.86
			l-1,2.79l-3.69,10.31h-5.76c0-1.34-0.55-2.56-1.41-3.43c-0.88-0.88-2.09-1.43-3.43-1.43h-20.05c-2.68,0-4.84,2.17-4.84,4.86v0.08
			c-7.84,0.69-14.55,5.31-18.11,11.89c2.63,2.66,4.26,6.33,4.26,10.33c0,9.96-2.44,19.53-7.02,28.06v36.68
			c0,12.63,10.23,22.86,22.86,22.86h118.53c12.63,0,22.86-10.23,22.86-22.86v-64.19C282,152.79,271.77,142.56,259.14,142.56z
			 M199.88,226.97c-16.25,0-29.47-13.22-29.47-29.47c0-13.32,8.87-24.59,21.01-28.24c2.68-0.8,5.53-1.23,8.46-1.23
			s5.78,0.43,8.46,1.23c12.14,3.65,21.01,14.92,21.01,28.24C229.35,213.75,216.13,226.97,199.88,226.97z M263.54,166.04h-20.67
			c-1.27,0-2.43-0.44-3.34-1.18c-0.14-0.12-0.3-0.25-0.43-0.37c-0.96-0.97-1.55-2.3-1.55-3.77c0-2.93,2.37-5.33,5.32-5.33h20.67
			c1.46,0,2.79,0.61,3.76,1.57c0.95,0.96,1.55,2.29,1.55,3.76C268.85,163.67,266.47,166.04,263.54,166.04z"/>
		<path d="M218.36,197.5c0,10.2-8.3,18.48-18.48,18.48c-10.2,0-18.48-8.29-18.48-18.48c0-8.1,5.42-15.38,13.16-17.71
			c1.73-0.51,3.51-0.77,5.32-0.77c1.81,0,3.59,0.26,5.3,0.77C212.95,182.12,218.36,189.4,218.36,197.5z"/>
	</g>
	<g>
		<path d="M95.23,167.42c0,0.2-0.02,0.38-0.04,0.57v-0.57H95.23z"/>
		<path d="M35.67,168.04v-12.49c0-2.05,1.67-3.73,3.73-3.73h14.88c2.05,0,3.71-1.66,3.71-3.71v-3.73c0-2.05-1.66-3.71-3.71-3.71
			H39.4c-1.03,0-1.96-0.42-2.64-1.09c-0.67-0.67-1.09-1.6-1.09-2.63c0-2.05,1.67-3.73,3.73-3.73h14.88c2.05,0,3.71-1.66,3.71-3.71
			v-3.73c0-2.05-1.66-3.71-3.71-3.71H39.4c-2.05,0-3.73-1.67-3.73-3.73v-2.52c0-8.21,3.33-15.65,8.71-21.03
			c5.38-5.38,12.82-8.71,21.04-8.71c3.46,0,6.79,0.59,9.88,1.68c11.58,4.08,19.88,15.1,19.88,28.07v2.52c0,2.05-1.67,3.73-3.73,3.73
			H76.58c-2.05,0-3.71,1.66-3.71,3.71v3.73c0,2.05,1.66,3.71,3.71,3.71h14.88c1.03,0,1.96,0.42,2.64,1.09
			c0.67,0.67,1.09,1.6,1.09,2.64c0,2.04-1.67,3.71-3.73,3.71H76.58c-2.05,0-3.71,1.66-3.71,3.71v3.73c0,2.05,1.66,3.71,3.71,3.71
			h14.88c2.05,0,3.73,1.67,3.73,3.73V168c0,0.01,0,0.02,0,0.02c-1.58,15.02-14.34,26.77-29.76,26.77
			C50,194.79,37.27,183.05,35.67,168.04z"/>
		<path d="M113.78,164.86c0,9-2.45,17.63-7.02,25.12c-1.99,3.25-4.38,6.3-7.14,9.07c-7.35,7.35-16.66,12.05-26.75,13.59v28.47
			c0,0.01,0.01,0.01,0.01,0.01h7.43c1.22,0,2.37,0.3,3.38,0.81c3.26,1.68,2.04,6.63-1.63,6.63H48.79c-3.67,0-4.89-4.94-1.63-6.63
			c1.01-0.52,2.16-0.81,3.38-0.81h7.43c0,0,0.01,0,0.01-0.01v-28.46c-8.89-1.37-17.26-5.22-24.1-11.14
			c-10.78-9.32-16.78-22.47-16.81-36.55c0-2.19,1.84-3.98,4.01-3.8c1.92,0.14,3.43,1.75,3.43,3.7c0,1.26,0.05,2.52,0.18,3.75v0.07
			c1.93,20.78,19.46,37.1,40.74,37.1c21.29,0,38.82-16.33,40.74-37.13c0-0.01,0.01-0.03,0-0.05c0.12-1.19,0.18-2.38,0.18-3.6
			c0-0.69,0.19-1.35,0.51-1.91c0-0.01,0-0.01,0-0.01c0.68-1.22,1.98-2.01,3.47-1.91C112.25,161.28,113.78,162.9,113.78,164.86z"/>
	</g>
</g>
</svg>
