<?xml version="1.0" encoding="utf-8"?>
<!-- Generator: Adobe Illustrator 23.0.1, SVG Export Plug-In . SVG Version: 6.00 Build 0)  -->
<svg version="1.1" id="Layer_1" xmlns="http://www.w3.org/2000/svg" xmlns:xlink="http://www.w3.org/1999/xlink" x="0px" y="0px"
	 viewBox="0 0 300 300" style="enable-background:new 0 0 300 300;" xml:space="preserve">
<style type="text/css">
	.st0{stroke:#000000;stroke-width:3;stroke-miterlimit:10;}
	.st1{fill:#E3E3E3;}
</style>
<path d="M163.28,226.06l-27.45,27.44c-1.34,1.34-2.68,2.35-4.02,3.03c-1.36,0.67-2.7,1.01-4.04,1.01c-2.85,0-5.25-1.01-7.17-3.03
	c-1.94-2.01-2.89-4.45-2.89-7.3c0-1.34,0.33-2.68,1-4.04c0.67-1.34,1.68-2.68,3.02-4.02l35.18-35.18
	C157.85,211.79,160.04,219.22,163.28,226.06z"/>
<path d="M239.12,123.78c-3.49-0.52-7.04-0.78-10.64-0.78c-25.82,0-49.82,13.97-62.63,36.44c-0.6,1.04-1.18,2.13-1.76,3.29
	c-1.5,2.99-2.8,6.09-3.85,9.2c-1.29,3.79-2.26,7.68-2.89,11.55c-0.35,2.12-0.6,4.26-0.76,6.41c-0.45-0.09-0.9-0.14-1.35-0.14
	c-1.69,0-3.38,0.63-4.67,1.92l-38.15,38.15c-1.36,1.34-2.7,2.36-4.04,3.03c-1.34,0.67-2.68,1.01-4.04,1.01
	c-2.86,0-5.29-0.97-7.3-2.91c-2.01-1.92-3.01-4.32-3.01-7.18c0-1.34,0.33-2.68,1-4.02c0.67-1.34,1.68-2.69,3.02-4.03l38.17-38.16
	c2.57-2.57,2.57-6.75,0-9.32c-1.29-1.29-2.98-1.94-4.67-1.94c-1.68,0-3.37,0.65-4.66,1.94l-38.15,38.17
	c-1.36,1.34-2.7,2.34-4.04,3.01c-1.34,0.67-2.68,1.01-4.04,1.01c-2.85,0-5.29-1.01-7.3-3.02c-2.01-2.02-3.01-4.46-3.01-7.31
	c0-1.34,0.33-2.68,1-4.02c0.67-1.34,1.68-2.7,3.02-4.04l38.17-38.16c2.57-2.57,2.57-6.75,0-9.32c-1.29-1.29-2.98-1.92-4.66-1.92
	c-1.69,0-3.38,0.63-4.67,1.92l-38.15,38.17c-1.36,1.34-2.7,2.34-4.04,3.01c-1.34,0.67-2.68,1.01-4.04,1.01
	c-2.83,0-5.29-1.01-7.3-3.02c-2.01-2.02-3.01-4.46-3.01-7.31c0-1.34,0.33-2.68,1-4.02c0.67-1.34,1.68-2.7,3.02-4.04l53.53-53.53
	c2.57-2.57,6.75-2.57,9.32,0l15.75,15.75c2.86,2.85,6.12,4.92,9.82,6.17c3.68,1.27,7.48,1.88,11.34,1.88
	c6.87,0,12.64-2.31,17.24-6.91c4.62-4.62,6.93-10.38,6.93-17.26c0-3.86-0.83-7.6-2.52-11.21c-1.68-3.62-3.69-6.6-6.03-8.94
	l-25.29-25.27c-2.96-2.98-2.48-7.98,1.08-10.21c1.94-1.19,4-2.22,6.19-3.06c4.79-1.85,9.94-2.77,15.5-2.77
	c7.05,0,13.34,1.06,18.88,3.15c5.55,2.1,9.66,4.48,12.34,7.18l27.72,27.7c6.05,6.05,10.36,11.88,12.97,17.51
	C237.41,112.75,238.62,117.82,239.12,123.78z"/>
<path d="M164.55,114.46c0,3.86-1.39,7.18-4.16,9.94c-2.77,2.77-6.08,4.16-9.94,4.16c-2.36,0-4.8-0.42-7.32-1.25
	c-2.5-0.85-4.69-2.19-6.54-4.04l-22.8-22.8c-2.57-2.57-6.74-2.57-9.33-0.02L42.91,161.8c-2.54,2.52-6.63,2.56-9.2,0.07l-1.9-1.82
	c-4.53-4.37-7.99-8.9-10.33-13.61c-2.34-4.69-3.53-9.98-3.53-15.87c0-6.21,1-12.01,3.01-17.38c2.03-5.36,4.8-9.82,8.32-13.35
	L64.3,64.58c3.86-3.86,8.18-6.75,12.98-8.69C82.06,53.97,87.05,53,92.26,53c5.87,0,11.37,0.92,16.49,2.77
	c5.13,1.85,9.63,4.8,13.49,8.82l36.02,36.02c1.83,1.85,3.35,3.98,4.53,6.42C163.97,109.47,164.55,111.94,164.55,114.46z"/>
<path d="M223.23,242.44v1.61h1.28L223.23,242.44z M223.23,242.44v1.61h1.28L223.23,242.44z M223.23,242.44v1.61h1.28L223.23,242.44z
	 M223.23,242.44v1.61h1.28L223.23,242.44z M223.23,242.44v1.61h1.28L223.23,242.44z M223.23,242.44v1.61h1.28L223.23,242.44z
	 M223.23,242.44v1.61h1.28L223.23,242.44z M223.23,242.44v1.61h1.28L223.23,242.44z M223.23,242.44v1.61h1.28L223.23,242.44z"/>
<path d="M283.94,167.22c-8.7-17.25-25.15-29.88-44.75-33.3c-3.48-0.6-7.06-0.92-10.71-0.92c-23.1,0-43.25,12.64-53.95,31.41
	c-0.53,0.92-1.02,1.85-1.5,2.81c-1.28,2.55-2.4,5.2-3.32,7.93c-1.09,3.21-1.94,6.52-2.49,9.95c-0.55,3.32-0.83,6.71-0.83,10.15
	c0,8.21,1.58,16.05,4.46,23.23c9.18,22.9,31.52,39.06,57.63,39.06c2.19,0,4.36-0.11,6.48-0.34c2.41-0.25,4.78-0.63,7.09-1.15
	c7.05-1.57,13.67-4.35,19.59-8.14c17.4-11.02,28.95-30.47,28.95-52.66C290.59,185.15,288.2,175.65,283.94,167.22z M252.9,231.93
	c-2.37,2.09-5.01,3.81-7.84,5.09c-1.18,0.56-2.42,1.05-3.73,1.46v12.9h-25.42v-13.61c-3.65-1.47-6.97-3.53-9.9-6.11
	c-4.51-3.96-7.81-9.52-9.81-16.46l-1.86-6.38l1.62-0.65l17.63-7.11c-3.78-2.01-6.75-4.26-8.9-6.79c-1.51-1.76-2.77-3.74-3.73-5.89
	c-0.06-0.12-0.11-0.23-0.16-0.35c-1.46-3.33-2.19-7.01-2.19-10.92c0-5.2,1.18-9.8,3.52-13.69c0.87-1.49,1.96-2.88,3.19-4.15
	c0.47-0.49,0.99-0.98,1.57-1.47c2.9-2.49,5.91-4.36,9.02-5.58v-13.08h25.42v13.06c3.28,1.19,6.18,2.92,8.69,5.12
	c0.7,0.64,1.4,1.3,2.06,1.99c1.15,1.23,2.16,2.5,3.05,3.84c1.32,1.95,2.45,4.18,3.31,6.54l2.4,6.51l-18.81,8.15
	c1.25,0.53,2.41,1.12,3.55,1.75c3.59,1.97,6.65,4.49,9.06,7.45c4.26,5.27,6.43,11.41,6.43,18.23
	C261.07,220.38,258.33,227.17,252.9,231.93z"/>
<path d="M253.76,211.78c0,6.42-1.89,11.32-5.68,14.65c-1.81,1.6-3.82,2.92-6.03,3.93c-2.43,1.12-5.1,1.89-8.03,2.31v11.38h-9.51
	l-1.28-1.61V232.4c-4.79-1.1-8.9-3.16-12.39-6.24c-3.47-3.06-6-7.4-7.63-13.01l10.01-4.06c0.27,0.88,0.58,1.73,0.91,2.53
	c1.28,3.11,2.98,5.57,5.08,7.36c2.68,2.26,6.17,3.38,10.5,3.38c3.69,0,6.82-0.84,9.38-2.51c1.33-0.86,2.32-1.95,2.96-3.32
	c0.6-1.28,0.89-2.77,0.89-4.46c0-1.75-0.29-3.29-0.89-4.64c-0.5-1.08-1.19-2.06-2.07-2.88c-0.72-0.67-1.77-1.37-3.15-2.09
	c-2.48-1.31-6.02-2.71-10.65-4.22c-7.74-2.43-13.05-5.35-15.94-8.73c-1.14-1.34-2.07-2.81-2.76-4.41c-0.33-0.78-0.62-1.58-0.84-2.41
	c-0.48-1.74-0.73-3.59-0.73-5.58c0-3.86,0.82-7.16,2.47-9.89c0.61-1.01,1.32-1.95,2.16-2.81c0.33-0.35,0.67-0.67,1.06-0.99
	c3.79-3.26,7.65-5.12,11.63-5.57v-11.38h10.79v11.38c4.52,0.73,8.22,2.38,11.15,4.97c0.59,0.51,1.13,1.04,1.66,1.59
	c0.83,0.88,1.57,1.81,2.22,2.81c1.03,1.54,1.88,3.21,2.54,4.99l-10,4.36c-0.33-0.89-0.7-1.7-1.12-2.45
	c-0.93-1.71-2.09-3.06-3.47-4.06c-1.98-1.45-4.69-2.16-8.11-2.16c-3.97,0-6.98,0.87-9.05,2.63c-2.08,1.77-3.1,3.96-3.1,6.58
	c0,2.46,0.92,4.48,2.77,6.09c0.39,0.34,0.81,0.66,1.28,0.96c0.49,0.3,1.06,0.64,1.68,0.94c2.81,1.43,6.92,2.92,12.36,4.48
	c2.69,0.76,5.1,1.76,7.22,2.93c2.79,1.54,5.09,3.43,6.9,5.67C252.15,202.11,253.76,206.64,253.76,211.78z"/>
<polygon points="224.51,244.05 223.23,244.05 223.23,242.44 "/>
</svg>
