<?xml version="1.0" encoding="utf-8"?>
<!-- Generator: Adobe Illustrator 23.0.1, SVG Export Plug-In . SVG Version: 6.00 Build 0)  -->
<svg version="1.1" id="Layer_1" xmlns="http://www.w3.org/2000/svg" xmlns:xlink="http://www.w3.org/1999/xlink" x="0px" y="0px"
	 viewBox="0 0 300 300" style="enable-background:new 0 0 300 300;" xml:space="preserve">
<style type="text/css">
	.st0{fill:none;}
	.st1{stroke:#000000;stroke-width:12;stroke-linecap:round;stroke-linejoin:round;stroke-miterlimit:10;}
	.st2{fill:none;stroke:#000000;stroke-width:16;stroke-linecap:round;stroke-linejoin:round;stroke-miterlimit:10;}
	.st3{fill:#E3E3E3;}
	.st4{fill:#00FF00;}
	.st5{fill:#0000FF;}
	.st6{fill:#333333;}
	.st7{stroke:#000000;stroke-miterlimit:10;}
	.st8{fill:none;stroke:#000000;stroke-width:15;stroke-linecap:round;stroke-linejoin:round;stroke-miterlimit:10;}
</style>
<path d="M78.58,168.27l3.48-3.47C81.01,166.07,79.85,167.24,78.58,168.27z"/>
<path d="M149.99,23.63C80.2,23.63,23.63,80.21,23.63,150c0,21.21,5.23,41.2,14.46,58.76l40.48-40.49c-4.04,3.28-9.19,5.24-14.8,5.24
	c-12.98,0-23.51-10.52-23.51-23.51c0-12.98,10.53-23.51,23.51-23.51c12.99,0,23.51,10.53,23.51,23.51c0,5.61-1.96,10.76-5.23,14.8
	l13.65-13.66c4.13-4.12,9.6-6.38,15.4-6.38c1.34,0,2.67,0.12,3.98,0.37c1.25-5.91,4.21-11.44,8.55-15.78
	c1.54-1.53,3.24-2.92,5.08-4.12c3.13-2.31,6.83-4.24,11.01-5.74c4.93-1.79,9.98-2.8,14.27-3.55c3.43-0.6,6.94-1.08,10.47-1.43
	c0.09-0.03,0.18-0.07,0.27-0.11c1.55-0.61,3.18-0.91,4.78-0.91c3.59,0,7.11,1.49,9.62,4.25c0.9,0.99,1.76,2.04,2.56,3.13
	c2.92,3.96,3.35,9.22,1.13,13.6c-0.43,0.83-0.86,1.45-1.05,1.73c-0.15,0.21-0.3,0.42-0.46,0.62c-2.83,3.58-4.25,8.49-3.86,13.22
	c0.13,0.83,0.18,1.67,0.16,2.51c0,1.55-0.26,3.11-0.76,4.59c-0.09,0.33-0.19,0.66-0.3,0.98c-1.28,5.93-4.21,11.3-8.53,15.62
	c-4.39,4.39-9.85,7.34-15.79,8.57c1.02,5.54-0.14,11.33-3.42,16.14c-0.73,1.09-1.62,2.18-2.62,3.17l-13.43,13.44l-32.11,32.1
	l-12.86,12.87c18.36,10.4,39.58,16.34,62.2,16.34c69.8,0,126.37-56.58,126.37-126.37C276.37,80.21,219.79,23.63,149.99,23.63z
	 M105.65,105.66c-9.18,9.18-24.07,9.18-33.25,0c-9.18-9.18-9.18-24.07,0-33.25c9.18-9.18,24.07-9.18,33.25,0
	C114.84,81.59,114.84,96.48,105.65,105.66z M149.99,87.29c-12.98,0-23.51-10.53-23.51-23.51c0-12.98,10.53-23.51,23.51-23.51
	c12.99,0,23.51,10.53,23.51,23.51C173.5,76.76,162.98,87.29,149.99,87.29z M149.99,259.73c-12.98,0-23.51-10.52-23.51-23.51
	c0-12.98,10.53-23.51,23.51-23.51c12.99,0,23.51,10.53,23.51,23.51C173.5,249.21,162.98,259.73,149.99,259.73z M194.35,72.41
	c9.18-9.18,24.06-9.18,33.25,0c9.18,9.18,9.18,24.07,0,33.25c-9.19,9.18-24.07,9.18-33.25,0C185.17,96.48,185.17,81.59,194.35,72.41
	z M227.6,227.59c-9.19,9.18-24.07,9.18-33.25,0s-9.18-24.06,0-33.25c9.18-9.18,24.06-9.18,33.25,0
	C236.77,203.53,236.77,218.41,227.6,227.59z M236.22,173.51c-12.99,0-23.51-10.52-23.51-23.51c0-12.98,10.52-23.51,23.51-23.51
	c12.98,0,23.51,10.53,23.51,23.51C259.73,162.99,249.2,173.51,236.22,173.51z"/>
<path d="M171.12,128.76c-5.11,6.47-7.41,14.94-6.54,23.08c0.05,0.18,0.06,0.36,0.03,0.54c0.05,0.29-0.02,0.58-0.16,0.84
	c-0.07,0.37-0.19,0.73-0.34,1.08c-0.02,0.05-0.05,0.09-0.08,0.14c-0.6,3.69-2.33,7.25-5.19,10.11c-3.73,3.73-8.65,5.54-13.52,5.43
	h-0.01c-4.57-0.1-9.08-1.89-12.55-5.36c-3.47-3.47-5.25-7.98-5.35-12.54c-0.12-4.88,1.69-9.8,5.43-13.54
	c1.02-1.02,2.13-1.89,3.3-2.63c2.4-1.82,5.17-3.17,8-4.19c3.9-1.42,8.01-2.26,12.09-2.97c4.17-0.73,8.38-1.25,12.61-1.57
	c0.1-0.13,0.2-0.26,0.31-0.4c0.1-0.13,0.23-0.23,0.38-0.29c0.61,0.67,1.18,1.37,1.71,2.09C171.2,128.64,171.15,128.7,171.12,128.76z
	"/>
<path d="M138.58,182.17c1.5,2.81,1.33,6.28-0.5,8.97c-0.31,0.46-0.67,0.89-1.07,1.29l-2.41,2.41l-11.02,11.03l-12.11,12.11
	L96.03,233.4l-4.57,4.57l-13.11,13.12l-1.78,1.78l-10.68,10.68h-0.01l-2.8,2.79l0.01,0.01l-0.71,0.71c-0.64,0.63-1.3,1.23-1.98,1.77
	c-8.6,6.83-20.95,6.6-29.21-0.72c-9.09-8.05-9.98-21.75-2.66-31.15c0.59-0.75,1.23-1.48,1.93-2.17l14.5-14.51l14.41-14.41
	l32.09-32.1l10.99-10.99l2.45-2.45c2.8-2.79,7.01-3.31,10.31-1.54c0.73,0.39,1.42,0.9,2.03,1.51l6.27,6.27
	c0.46,0.66,0.98,1.27,1.54,1.84c0.59,0.61,1.22,1.17,1.9,1.67c0.22,0.19,0.44,0.39,0.66,0.59l0.9,0.9l4.22,4.22l4.31,4.31
	c0.62,0.62,1.13,1.32,1.53,2.06V182.17z"/>
</svg>
