<?xml version="1.0" encoding="utf-8"?>
<!-- Generator: Adobe Illustrator 23.0.1, SVG Export Plug-In . SVG Version: 6.00 Build 0)  -->
<svg version="1.1" id="Layer_1" xmlns="http://www.w3.org/2000/svg" xmlns:xlink="http://www.w3.org/1999/xlink" x="0px" y="0px"
	 viewBox="0 0 300 300" style="enable-background:new 0 0 300 300;" xml:space="preserve">
<style type="text/css">
	.st0{fill:none;}
	.st1{stroke:#000000;stroke-width:12;stroke-linecap:round;stroke-linejoin:round;stroke-miterlimit:10;}
	.st2{fill:none;stroke:#000000;stroke-width:16;stroke-linecap:round;stroke-linejoin:round;stroke-miterlimit:10;}
	.st3{fill:#E3E3E3;}
	.st4{fill:#00FF00;}
	.st5{fill:#0000FF;}
	.st6{fill:#333333;}
	.st7{stroke:#000000;stroke-miterlimit:10;}
	.st8{fill:none;stroke:#000000;stroke-width:15;stroke-linecap:round;stroke-linejoin:round;stroke-miterlimit:10;}
</style>
<g>
	<g>
		<path d="M87.63,278.08c-10.41-0.64-18.8-9.01-19.56-19.42c-0.93-12.9,9.82-23.65,22.77-22.49c9.94,0.89,17.96,8.81,18.98,18.74
			C111.17,267.88,100.51,278.86,87.63,278.08z"/>
		<path d="M192.71,278.08c-10.41-0.64-18.8-9.01-19.56-19.42c-0.93-12.9,9.82-23.65,22.77-22.49c9.94,0.89,17.96,8.81,18.98,18.74
			C216.25,267.88,205.58,278.86,192.71,278.08z"/>
		<path d="M189.16,143.7l-0.97,1.76c0.76,0.29,1.54,0.57,2.33,0.82C190.05,145.43,189.6,144.57,189.16,143.7z M88.93,204.56
			l11.56-21.01h78.28c7.47,0,14.09-3.87,17.79-9.82c-6.67-0.95-13.11-2.76-19.25-5.4c-3.87-1.67-7.56-3.61-11.06-5.8h-61.24
			L80.1,109.99h50.53c-0.81-4.52-1.21-9.17-1.21-13.89c0-2.4,0.1-4.77,0.32-7.12H70.12l-9.88-21.02H25.88v21.02H46.9l37.83,79.75
			l-14.19,25.64c-7.67,14.08,2.42,31.21,18.39,31.21h126.09v-21.02H88.93z"/>
	</g>
</g>
<path d="M189.16,143.7l-0.97,1.76c0.76,0.29,1.54,0.57,2.33,0.82C190.05,145.43,189.6,144.57,189.16,143.7z"/>
<path d="M241.53,55.22c4.81,4.09,8.81,8.9,12.02,14.43h-19.57c-1-4.2-2.24-8.27-3.73-12.19c-1.5-3.93-3.24-7.72-5.23-11.37
	C231.21,48.08,236.72,51.13,241.53,55.22z M200.31,55.88c2.1-4.31,4.59-8.46,7.46-12.44c2.88,3.98,5.36,8.13,7.47,12.44
	c2.1,4.31,3.81,8.9,5.14,13.77h-25.21C196.49,64.78,198.21,60.19,200.31,55.88z M156.35,109.46c-0.55-2.22-0.96-4.4-1.24-6.56
	c-0.28-2.15-0.42-4.39-0.42-6.71c0-2.33,0.14-4.57,0.42-6.72c0.02-0.16,0.04-0.33,0.07-0.49c0.27-2,0.66-4.02,1.17-6.06h22.56
	c-0.31,2.04-0.54,4.06-0.71,6.06c-0.01,0.16-0.03,0.33-0.04,0.49c-0.16,2.15-0.24,4.39-0.24,6.72c0,2.32,0.08,4.56,0.24,6.71
	c0.17,2.16,0.42,4.34,0.75,6.56H156.35z M185.3,57.46c-1.5,3.92-2.74,7.99-3.74,12.19h-19.57c3.21-5.53,7.22-10.34,12.03-14.43
	c4.81-4.09,10.31-7.14,16.5-9.13C188.53,49.74,186.79,53.53,185.3,57.46z M268.89,70.39c-3.48-8.01-8.23-15.04-14.26-21.06
	c-6.03-6.03-13.05-10.78-21.07-14.27c-8.01-3.48-16.58-5.22-25.71-5.22c-9.12,0-17.72,1.74-25.79,5.22
	c-8.07,3.49-15.12,8.24-21.15,14.27c-6.02,6.02-10.78,13.05-14.26,21.06c-2.56,5.9-4.18,12.1-4.86,18.59
	c-0.25,2.34-0.37,4.71-0.37,7.12c0,4.78,0.48,9.41,1.44,13.89c0.86,4.09,2.13,8.06,3.79,11.91c3.48,8.07,8.24,15.12,14.26,21.14
	c5.95,5.95,12.89,10.65,20.82,14.12c0.11,0.05,0.22,0.1,0.33,0.15c6.59,2.84,13.53,4.52,20.82,5.05c1.64,0.11,3.3,0.17,4.97,0.17
	c9.13,0,17.7-1.74,25.71-5.22c8.02-3.49,15.04-8.24,21.07-14.27c6.03-6.02,10.78-13.07,14.26-21.14c3.49-8.08,5.23-16.67,5.23-25.8
	C274.12,86.98,272.38,78.41,268.89,70.39z M188.19,145.46c-5.25-1.96-9.97-4.73-14.17-8.3c-4.81-4.1-8.82-8.91-12.03-14.44h19.57
	c1,4.21,2.24,8.27,3.74,12.2c1.14,3,2.43,5.93,3.86,8.78c0.44,0.87,0.89,1.73,1.36,2.58C189.73,146.03,188.95,145.75,188.19,145.46z
	 M215.24,136.49c-2.11,4.31-4.59,8.46-7.47,12.44c-2.87-3.98-5.36-8.13-7.46-12.44c-1.15-2.37-2.19-4.82-3.11-7.35
	c-0.76-2.08-1.43-4.22-2.03-6.42h25.21C219.05,127.59,217.34,132.18,215.24,136.49z M224.11,102.9c-0.17,2.16-0.42,4.34-0.75,6.56
	h-31.18c-0.33-2.22-0.58-4.4-0.75-6.56c-0.16-2.15-0.25-4.39-0.25-6.71c0-2.33,0.09-4.57,0.25-6.72c0.01-0.16,0.03-0.33,0.04-0.49
	c0.17-2,0.4-4.02,0.71-6.06h31.18c0.31,2.04,0.54,4.06,0.71,6.06c0.01,0.16,0.03,0.33,0.04,0.49c0.17,2.15,0.25,4.39,0.25,6.72
	C224.36,98.51,224.28,100.75,224.11,102.9z M241.53,137.16c-4.81,4.09-10.32,7.13-16.51,9.12c1.99-3.65,3.73-7.44,5.23-11.36
	c1.49-3.93,2.73-7.99,3.73-12.2h19.57C250.34,128.25,246.34,133.06,241.53,137.16z M260.43,102.9c-0.27,2.16-0.69,4.34-1.24,6.56
	h-22.56c0.33-2.22,0.58-4.4,0.75-6.56c0.16-2.15,0.25-4.39,0.25-6.71c0-2.33-0.09-4.57-0.25-6.72c-0.17-2.16-0.42-4.34-0.75-6.55
	h22.56c0.55,2.21,0.97,4.39,1.24,6.55c0.28,2.15,0.42,4.39,0.42,6.72C260.85,98.51,260.71,100.75,260.43,102.9z"/>
</svg>
