<?xml version="1.0" encoding="utf-8"?>
<!-- Generator: Adobe Illustrator 23.0.1, SVG Export Plug-In . SVG Version: 6.00 Build 0)  -->
<svg version="1.1" id="Layer_1" xmlns="http://www.w3.org/2000/svg" xmlns:xlink="http://www.w3.org/1999/xlink" x="0px" y="0px"
	 viewBox="0 0 300 300" style="enable-background:new 0 0 300 300;" xml:space="preserve">
<style type="text/css">
	.st0{fill:none;}
	.st1{stroke:#000000;stroke-width:12;stroke-linecap:round;stroke-linejoin:round;stroke-miterlimit:10;}
	.st2{fill:none;stroke:#000000;stroke-width:16;stroke-linecap:round;stroke-linejoin:round;stroke-miterlimit:10;}
	.st3{fill:#E3E3E3;}
	.st4{fill:#00FF00;}
	.st5{fill:#0000FF;}
	.st6{fill:#333333;}
	.st7{stroke:#000000;stroke-miterlimit:10;}
	.st8{fill:none;stroke:#000000;stroke-width:15;stroke-linecap:round;stroke-linejoin:round;stroke-miterlimit:10;}
</style>
<g>
	<polygon points="236.49,154.08 238.49,153.6 238.49,155.65 236.49,156.13 	"/>
	<path d="M286.61,115.14c-0.1,0.3-0.21,0.6-0.33,0.89c-0.58,1.5-1.31,2.85-2.21,3.97c-1.25,1.6-2.81,2.73-4.68,3.18l-7.29,1.75
		v-7.25c0-3.3-2.37-6.13-5.63-6.7l-41.94-7.35l-1.7-0.3h-0.01l-13.35-2.34h-0.01l-1.69-0.3l-55.11-9.65
		c-3.7-0.65-7.23,1.83-7.88,5.53c-0.27,1.58,0.02,3.12,0.73,4.42c0.95,1.76,2.68,3.09,4.8,3.46l56.27,9.86l14.44,2.53l22.61,3.96
		l13.22,2.31l0.01,0.01l1.63,0.28v4.81l-10.82,2.61l-9.18,2.21l-2,0.48l-2.21,0.53l-84.96,20.47c-0.98,0.23-1.97,0.22-2.94-0.04
		l-93.6-25.29l-21.63-5.85l-2-0.54l-8.71-2.35c-11.35-3.06-11.21-31.28,0.17-34.03l130.08-31.33c0.97-0.23,1.96-0.22,2.93,0.04
		l125.94,34.03C287.49,91.29,289.81,105.7,286.61,115.14z"/>
	<path d="M283.52,219.64c-1.19,1.19-2.74,1.78-4.3,1.78c-1.55,0-3.1-0.59-4.29-1.78c-0.36-0.36-0.71-0.72-1.06-1.08
		c-1.51-1.58-2.87-3.15-4.1-4.7c-0.44-0.55-0.85-1.09-1.25-1.63c-0.66-0.88-1.26-1.74-1.83-2.59c-0.78-1.17-1.49-2.32-2.13-3.43
		c-0.49,0.79-1.02,1.58-1.6,2.39c-0.2,0.29-0.41,0.59-0.62,0.88c-0.58,0.81-1.2,1.63-1.87,2.46c-0.38,0.48-0.77,0.95-1.18,1.44
		c-0.08,0.09-0.16,0.19-0.24,0.28c-0.21,0.24-0.42,0.48-0.64,0.73c-0.8,0.91-1.65,1.84-2.57,2.76c-0.12,0.13-0.26,0.27-0.39,0.4
		c-0.22,0.22-0.46,0.43-0.71,0.61c-0.68,0.5-1.45,0.83-2.24,1.01h-0.01c-0.44,0.1-0.88,0.15-1.33,0.15c-1.5,0-3-0.55-4.17-1.65
		v-0.01c-0.04-0.03-0.09-0.07-0.13-0.11c-2.37-2.38-2.37-6.22,0-8.6c0.61-0.6,1.18-1.2,1.73-1.8c0.08-0.09,0.16-0.18,0.24-0.27
		c0.1-0.1,0.18-0.2,0.27-0.29c0.7-0.79,1.35-1.56,1.95-2.32c0.1-0.13,0.2-0.25,0.3-0.38c0.04-0.05,0.08-0.1,0.12-0.15
		c0.29-0.37,0.57-0.74,0.84-1.1l0.01-0.01c0.2-0.29,0.4-0.56,0.6-0.84c0.52-0.74,1-1.47,1.44-2.17c0.41-0.64,0.78-1.27,1.13-1.87
		c0.71-1.27,1.31-2.45,1.8-3.52c-0.43-0.46-0.82-0.96-1.17-1.48c-1.04-1.58-1.69-3.44-1.8-5.45c-0.01-0.21-0.02-0.43-0.02-0.65
		c0-3.51,1.64-6.65,4.19-8.68v-27.12l2-0.49l11.61-2.8v30.24c2.68,2.03,4.4,5.24,4.4,8.85c0,0.88-0.1,1.73-0.29,2.55
		c-0.02,0.06-0.03,0.12-0.05,0.18c-0.13,0.52-0.3,1.02-0.5,1.51c-0.63,1.51-1.57,2.86-2.77,3.95c-0.06,0.06-0.12,0.11-0.18,0.16
		c-0.04,0.04-0.08,0.08-0.13,0.12c0.83,1.98,2.05,4.44,3.81,7.16c0.61,0.94,1.29,1.92,2.04,2.91c0.59,0.8,1.23,1.61,1.93,2.42
		c0.04,0.06,0.09,0.11,0.14,0.17c0.92,1.08,1.92,2.17,3.02,3.27C285.89,213.42,285.89,217.27,283.52,219.64z"/>
	<path d="M253.71,198.93l1.78-1.18c-0.35,0.6-0.72,1.23-1.13,1.87c-0.44,0.7-0.92,1.43-1.44,2.17c-0.2,0.28-0.4,0.55-0.6,0.84
		l-0.01,0.01c-0.27,0.36-0.55,0.73-0.84,1.1c-0.04,0.05-0.08,0.1-0.12,0.15l-1.57-2.34L253.71,198.93z"/>
	<polygon points="258.49,148.78 260.49,148.3 260.49,150.36 258.49,150.85 	"/>
	<path d="M280.71,207.35c-0.07,0.15-0.14,0.29-0.21,0.43c-0.05-0.06-0.1-0.11-0.14-0.17C280.48,207.53,280.6,207.44,280.71,207.35z"
		/>
	<polygon points="260.49,148.3 260.49,150.36 258.49,150.85 258.49,148.78 	"/>
	<path d="M254.36,199.62c-0.44,0.7-0.92,1.43-1.44,2.17c-0.2,0.28-0.4,0.55-0.6,0.84l-0.01,0.01c-0.27,0.36-0.55,0.73-0.84,1.1
		c-0.04,0.05-0.08,0.1-0.12,0.15l-1.57-2.34l3.93-2.62L254.36,199.62z"/>
	<path d="M252.31,202.64c-0.27,0.36-0.55,0.73-0.84,1.1l-0.27-0.34L252.31,202.64z"/>
	<polygon points="236.49,154.08 238.49,153.6 238.49,155.65 236.49,156.13 	"/>
	<polygon points="260.49,125.67 260.49,125.68 258.7,126.11 258.49,126.16 258.49,126.15 	"/>
	<path d="M253.71,198.93l1.78-1.18c-0.35,0.6-0.72,1.23-1.13,1.87c-0.44,0.7-0.92,1.43-1.44,2.17c-0.2,0.28-0.4,0.55-0.6,0.84
		l-0.01,0.01c-0.27,0.36-0.55,0.73-0.84,1.1c-0.04,0.05-0.08,0.1-0.12,0.15l-1.57-2.34L253.71,198.93z"/>
	<polygon points="260.49,148.3 260.49,150.36 258.49,150.85 258.49,148.78 	"/>
	<polygon points="238.49,153.6 238.49,155.65 236.49,156.13 236.49,154.08 	"/>
	<g>
		<g>
			<g>
				<polygon points="236.49,154.08 238.49,153.6 238.49,155.65 236.49,156.13 				"/>
				<polygon points="260.49,148.3 260.49,150.36 258.49,150.85 258.49,148.78 				"/>
				<polygon points="260.49,125.67 260.49,125.68 258.7,126.11 258.49,126.16 258.49,126.15 				"/>
				<polygon points="270.97,190.25 270.97,190.25 270.97,190.25 				"/>
				<polygon points="270.97,190.25 270.97,190.25 270.97,190.25 				"/>
				<polygon points="270.97,190.25 270.97,190.25 270.97,190.25 				"/>
				<polygon points="270.97,190.25 270.97,190.25 270.97,190.25 				"/>
				<polygon points="270.97,190.25 270.97,190.25 270.97,190.25 				"/>
				<polygon points="270.97,190.25 270.97,190.25 270.97,190.25 				"/>
				<polygon points="270.97,190.25 270.97,190.25 270.97,190.25 				"/>
				<polygon points="270.97,190.25 270.97,190.25 270.97,190.25 				"/>
				<path d="M254.36,199.62c-0.44,0.7-0.92,1.43-1.44,2.17c-0.2,0.28-0.4,0.55-0.6,0.84l-0.01,0.01c-0.27,0.36-0.55,0.73-0.84,1.1
					c-0.04,0.05-0.08,0.1-0.12,0.15l-1.57-2.34l3.93-2.62L254.36,199.62z"/>
				<path d="M252.31,202.64c-0.27,0.36-0.55,0.73-0.84,1.1l-0.27-0.34L252.31,202.64z"/>
				<path d="M253.71,198.93l1.78-1.18c-0.35,0.6-0.72,1.23-1.13,1.87c-0.44,0.7-0.92,1.43-1.44,2.17c-0.2,0.28-0.4,0.55-0.6,0.84
					l-0.01,0.01c-0.27,0.36-0.55,0.73-0.84,1.1c-0.04,0.05-0.08,0.1-0.12,0.15l-1.57-2.34L253.71,198.93z"/>
				<path d="M280.71,207.35c-0.07,0.15-0.14,0.29-0.21,0.43c-0.05-0.06-0.1-0.11-0.14-0.17
					C280.48,207.53,280.6,207.44,280.71,207.35z"/>
				<path d="M280.71,207.35c-0.07,0.15-0.14,0.29-0.21,0.43c-0.05-0.06-0.1-0.11-0.14-0.17
					C280.48,207.53,280.6,207.44,280.71,207.35z"/>
			</g>
		</g>
		<g>
			<polygon points="270.97,190.25 270.97,190.25 270.97,190.25 			"/>
			<polygon points="270.97,190.25 270.97,190.25 270.97,190.25 			"/>
			<polygon points="270.97,190.25 270.97,190.25 270.97,190.25 			"/>
			<polygon points="270.97,190.25 270.97,190.25 270.97,190.25 			"/>
			<polygon points="270.97,190.25 270.97,190.25 270.97,190.25 			"/>
			<polygon points="270.97,190.25 270.97,190.25 270.97,190.25 			"/>
			<polygon points="270.97,190.25 270.97,190.25 270.97,190.25 			"/>
			<polygon points="270.97,190.25 270.97,190.25 270.97,190.25 			"/>
		</g>
		<g>
			<polygon points="270.97,190.25 270.97,190.25 270.97,190.25 			"/>
			<polygon points="270.97,190.25 270.97,190.25 270.97,190.25 			"/>
			<polygon points="270.97,190.25 270.97,190.25 270.97,190.25 			"/>
			<polygon points="270.97,190.25 270.97,190.25 270.97,190.25 			"/>
			<polygon points="270.97,190.25 270.97,190.25 270.97,190.25 			"/>
			<polygon points="270.97,190.25 270.97,190.25 270.97,190.25 			"/>
			<polygon points="270.97,190.25 270.97,190.25 270.97,190.25 			"/>
			<polygon points="270.97,190.25 270.97,190.25 270.97,190.25 			"/>
			<path d="M254.36,199.62c-0.44,0.7-0.92,1.43-1.44,2.17c-0.2,0.28-0.4,0.55-0.6,0.84l-0.01,0.01c-0.27,0.36-0.55,0.73-0.84,1.1
				c-0.04,0.05-0.08,0.1-0.12,0.15l-1.57-2.34l3.93-2.62L254.36,199.62z"/>
			<path d="M252.31,202.64c-0.27,0.36-0.55,0.73-0.84,1.1l-0.27-0.34L252.31,202.64z"/>
			<path d="M253.71,198.93l1.78-1.18c-0.35,0.6-0.72,1.23-1.13,1.87c-0.44,0.7-0.92,1.43-1.44,2.17c-0.2,0.28-0.4,0.55-0.6,0.84
				l-0.01,0.01c-0.27,0.36-0.55,0.73-0.84,1.1c-0.04,0.05-0.08,0.1-0.12,0.15l-1.57-2.34L253.71,198.93z"/>
			<path d="M280.71,207.35c-0.07,0.15-0.14,0.29-0.21,0.43c-0.05-0.06-0.1-0.11-0.14-0.17C280.48,207.53,280.6,207.44,280.71,207.35
				z"/>
			<path d="M280.71,207.35c-0.07,0.15-0.14,0.29-0.21,0.43c-0.05-0.06-0.1-0.11-0.14-0.17C280.48,207.53,280.6,207.44,280.71,207.35
				z"/>
			<path d="M253.71,198.93l1.78-1.18c-0.35,0.6-0.72,1.23-1.13,1.87c-0.44,0.7-0.92,1.43-1.44,2.17c-0.2,0.28-0.4,0.55-0.6,0.84
				l-0.01,0.01c-0.27,0.36-0.55,0.73-0.84,1.1c-0.04,0.05-0.08,0.1-0.12,0.15l-1.57-2.34L253.71,198.93z"/>
			<path d="M280.71,207.35c-0.07,0.15-0.14,0.29-0.21,0.43c-0.05-0.06-0.1-0.11-0.14-0.17C280.48,207.53,280.6,207.44,280.71,207.35
				z"/>
			<path d="M280.71,207.35c-0.07,0.15-0.14,0.29-0.21,0.43c-0.05-0.06-0.1-0.11-0.14-0.17C280.48,207.53,280.6,207.44,280.71,207.35
				z"/>
			<polygon points="270.97,190.25 270.97,190.25 270.97,190.25 			"/>
			<polygon points="270.97,190.25 270.97,190.25 270.97,190.25 			"/>
			<polygon points="270.97,190.25 270.97,190.25 270.97,190.25 			"/>
			<polygon points="270.97,190.25 270.97,190.25 270.97,190.25 			"/>
		</g>
		<g>
			<path d="M254.36,199.62c-0.44,0.7-0.92,1.43-1.44,2.17c-0.2,0.28-0.4,0.55-0.6,0.84l-0.01,0.01c-0.27,0.36-0.55,0.73-0.84,1.1
				c-0.04,0.05-0.08,0.1-0.12,0.15l-1.57-2.34l3.93-2.62L254.36,199.62z"/>
			<path d="M252.31,202.64c-0.27,0.36-0.55,0.73-0.84,1.1l-0.27-0.34L252.31,202.64z"/>
			<path d="M253.71,198.93l1.78-1.18c-0.35,0.6-0.72,1.23-1.13,1.87c-0.44,0.7-0.92,1.43-1.44,2.17c-0.2,0.28-0.4,0.55-0.6,0.84
				l-0.01,0.01c-0.27,0.36-0.55,0.73-0.84,1.1c-0.04,0.05-0.08,0.1-0.12,0.15l-1.57-2.34L253.71,198.93z"/>
			<path d="M280.71,207.35c-0.07,0.15-0.14,0.29-0.21,0.43c-0.05-0.06-0.1-0.11-0.14-0.17C280.48,207.53,280.6,207.44,280.71,207.35
				z"/>
			<path d="M280.71,207.35c-0.07,0.15-0.14,0.29-0.21,0.43c-0.05-0.06-0.1-0.11-0.14-0.17C280.48,207.53,280.6,207.44,280.71,207.35
				z"/>
			<path d="M253.71,198.93l1.78-1.18c-0.35,0.6-0.72,1.23-1.13,1.87c-0.44,0.7-0.92,1.43-1.44,2.17c-0.2,0.28-0.4,0.55-0.6,0.84
				l-0.01,0.01c-0.27,0.36-0.55,0.73-0.84,1.1c-0.04,0.05-0.08,0.1-0.12,0.15l-1.57-2.34L253.71,198.93z"/>
			<path d="M280.71,207.35c-0.07,0.15-0.14,0.29-0.21,0.43c-0.05-0.06-0.1-0.11-0.14-0.17C280.48,207.53,280.6,207.44,280.71,207.35
				z"/>
			<path d="M280.71,207.35c-0.07,0.15-0.14,0.29-0.21,0.43c-0.05-0.06-0.1-0.11-0.14-0.17C280.48,207.53,280.6,207.44,280.71,207.35
				z"/>
			<polygon points="270.97,190.25 270.97,190.25 270.97,190.25 			"/>
			<polygon points="270.97,190.25 270.97,190.25 270.97,190.25 			"/>
			<polygon points="270.97,190.25 270.97,190.25 270.97,190.25 			"/>
			<polygon points="270.97,190.25 270.97,190.25 270.97,190.25 			"/>
			<path d="M236.49,170.5c-2.72,4.86-4.19,10.39-4.19,16.15c0,0.56,0.02,1.11,0.04,1.67l0.01,0.18c0.02,0.37,0.05,0.73,0.08,1.09
				c0.07,0.77,0.17,1.54,0.29,2.3l-0.45,0.51c-0.27,0.29-0.55,0.59-0.85,0.88l-0.15,0.15c-3.32,3.34-5.63,7.31-6.92,11.53
				c-1.84,6.01-1.63,12.52,0.64,18.42v3.8c0,0,6.9,6.49,7.04,6.62c0.83,0.77,1.7,1.49,2.61,2.14c-6.84,5.72-15.64,9.14-25.23,9.14
				H90.59c-21.78,0-39.44-17.65-39.44-39.44v-54.11l89.52,24.18c2.36,0.64,4.8,0.96,7.25,0.96c2.16,0,4.32-0.25,6.44-0.74
				l82.13-19.8V170.5z"/>
			<path d="M254.36,199.62c-0.44,0.7-0.92,1.43-1.44,2.17c-0.2,0.28-0.4,0.55-0.6,0.84l-0.01,0.01c-0.27,0.36-0.55,0.73-0.84,1.1
				c-0.04,0.05-0.08,0.1-0.12,0.15l-1.57-2.34l3.93-2.62L254.36,199.62z"/>
			<path d="M252.31,202.64c-0.27,0.36-0.55,0.73-0.84,1.1l-0.27-0.34L252.31,202.64z"/>
			<path d="M253.71,198.93l1.78-1.18c-0.35,0.6-0.72,1.23-1.13,1.87c-0.44,0.7-0.92,1.43-1.44,2.17c-0.2,0.28-0.4,0.55-0.6,0.84
				l-0.01,0.01c-0.27,0.36-0.55,0.73-0.84,1.1c-0.04,0.05-0.08,0.1-0.12,0.15l-1.57-2.34L253.71,198.93z"/>
			<path d="M280.71,207.35c-0.07,0.15-0.14,0.29-0.21,0.43c-0.05-0.06-0.1-0.11-0.14-0.17C280.48,207.53,280.6,207.44,280.71,207.35
				z"/>
			<path d="M280.71,207.35c-0.07,0.15-0.14,0.29-0.21,0.43c-0.05-0.06-0.1-0.11-0.14-0.17C280.48,207.53,280.6,207.44,280.71,207.35
				z"/>
			<path d="M253.71,198.93l1.78-1.18c-0.35,0.6-0.72,1.23-1.13,1.87c-0.44,0.7-0.92,1.43-1.44,2.17c-0.2,0.28-0.4,0.55-0.6,0.84
				l-0.01,0.01c-0.27,0.36-0.55,0.73-0.84,1.1c-0.04,0.05-0.08,0.1-0.12,0.15l-1.57-2.34L253.71,198.93z"/>
			<path d="M280.71,207.35c-0.07,0.15-0.14,0.29-0.21,0.43c-0.05-0.06-0.1-0.11-0.14-0.17C280.48,207.53,280.6,207.44,280.71,207.35
				z"/>
			<path d="M280.71,207.35c-0.07,0.15-0.14,0.29-0.21,0.43c-0.05-0.06-0.1-0.11-0.14-0.17C280.48,207.53,280.6,207.44,280.71,207.35
				z"/>
			<polygon points="270.97,190.25 270.97,190.25 270.97,190.25 			"/>
			<polygon points="270.97,190.25 270.97,190.25 270.97,190.25 			"/>
			<polygon points="270.97,190.25 270.97,190.25 270.97,190.25 			"/>
			<polygon points="270.97,190.25 270.97,190.25 270.97,190.25 			"/>
		</g>
	</g>
</g>
</svg>
