<?xml version="1.0" encoding="utf-8"?>
<!-- Generator: Adobe Illustrator 23.0.1, SVG Export Plug-In . SVG Version: 6.00 Build 0)  -->
<svg version="1.1" id="Layer_1" xmlns="http://www.w3.org/2000/svg" xmlns:xlink="http://www.w3.org/1999/xlink" x="0px" y="0px"
	 viewBox="0 0 300 300" style="enable-background:new 0 0 300 300;" xml:space="preserve">
<style type="text/css">
	.st0{fill:none;}
	.st1{fill:#FFFFFF;}
</style>
<g>
	<g>
		<path d="M136.52,75.52H85.99c-1.08,0-2.14,0.06-3.21,0.17c0-2.87,0.81-5.77,2.49-8.35c2.01-3.08,4.91-5.2,8.16-6.24
			c0.37-1.88,1.1-3.74,2.22-5.44c3.67-5.64,10.43-8.07,16.62-6.51h0.01c1.61,0.4,3.15,1.08,4.61,2.03c0.26,0.16,0.51,0.34,0.75,0.52
			c2,1.47,3.54,3.36,4.59,5.43c2.62,0.14,5.24,0.94,7.6,2.48c0.4,0.26,0.79,0.54,1.15,0.84c2.27,1.8,3.92,4.12,4.86,6.7
			c0.01,0.03,0.03,0.05,0.04,0.08C136.85,69.86,137.08,72.73,136.52,75.52z"/>
		<path d="M155.59,42.55c-0.57,0.32-1.12,0.64-1.64,1c-1.17,0.79-2.28,1.66-3.3,2.62c-3.8,0.45-7.45,1.78-10.71,3.91l-0.86,0.55
			l-0.16,0.16c-0.71,0.52-1.39,1.08-2.05,1.67c-0.08,0.06-0.15,0.12-0.22,0.2c-0.51-0.38-1.04-0.76-1.58-1.12
			c-1.58-1.03-3.28-1.88-5.05-2.53c0,0-0.01-0.01-0.02,0c-0.67-0.26-1.37-0.47-2.06-0.66c-1.33-1.63-2.86-3.11-4.55-4.36
			c-0.42-0.32-0.87-0.62-1.32-0.91c-1.17-0.76-2.39-1.41-3.65-1.95c3.04-1.99,6.53-2.78,9.88-2.44c1.09-1.6,2.49-3,4.19-4.12
			c7.06-4.69,16.59-2.77,21.29,4.3C154.58,40.04,155.17,41.28,155.59,42.55z"/>
		<path d="M191.59,75.54c-0.31-0.02-0.61-0.02-0.9-0.02h-44.45c0.02-0.1,0.03-0.19,0.04-0.3c0.41-3.75-0.03-7.56-1.31-11.13
			l-0.3-0.92l-0.16-0.27c-0.43-1.05-0.92-2.05-1.49-3.02c0.64-0.62,1.35-1.18,2.11-1.69c0.03-0.03,0.06-0.04,0.08-0.06
			c3.05-1.99,6.53-2.78,9.88-2.44c1.1-1.6,2.5-3,4.19-4.12c0.67-0.45,1.37-0.84,2.09-1.15c6.75-3.12,14.96-0.94,19.2,5.45
			c1.57,2.35,2.39,4.96,2.55,7.59c2.36,1.15,4.44,2.93,6.01,5.29C190.52,70.85,191.33,73.19,191.59,75.54z"/>
	</g>
	<g>
		<path d="M288.22,126.55l-9.54-4.8c-4.45-2.25-9.95-0.83-12.79,3.3c-4.08,5.94-12.02,7.96-18.46,4.7
			c-6.45-3.25-9.54-10.84-7.18-17.65c1.64-4.74-0.48-10.01-4.94-12.26l-9.52-4.81c-4.94-2.49-10.97-0.5-13.46,4.43l-0.71,1.41
			l-21.23,42.04l-16.64,32.96l-5.59,11.07l3.84,3.84l0.64,0.64c0.18,0.18,0.36,0.37,0.53,0.56l5.44-10.77l5.82,2.93l7.63,3.86
			l-6.08,12.04l-3.59-1.82L175,194.5c1.31,2.24,2,4.8,2,7.46v0.6l4.44,2.24l15.93,8.05l34.56,17.46l-12.62,24.99l-3.86-1.94
			c2.82-12.35-3.14-25.38-14.68-31.21c-1.46-0.74-2.96-1.33-4.49-1.79c-5.68-1.71-11.68-1.54-17.14,0.3
			c-0.72,0.25-1.44,0.52-2.14,0.84v16.39c4.15-5.04,11.33-6.69,17.31-3.86c0.13,0.05,0.25,0.11,0.38,0.17
			c6.45,3.25,9.53,10.85,7.18,17.65c-1.65,4.74,0.48,10.01,4.93,12.26l9.53,4.82c4.93,2.49,10.97,0.5,13.46-4.44l62.85-124.48
			C295.13,135.08,293.14,129.04,288.22,126.55z M213.33,213.85l-13.67-6.91l6.07-12.04l13.67,6.9L213.33,213.85z M240.45,227.55
			L227,220.76l6.07-12.05l13.46,6.79L240.45,227.55z M243.69,207.01l-42.38-21.4l-13.84-6.99l20.81-41.19l14.53-28.78l3.85,1.94
			c-2.82,12.36,3.15,25.38,14.68,31.21c11.54,5.83,25.57,2.88,33.83-6.71l3.86,1.94L243.69,207.01z"/>
	</g>
	<g>
		<path d="M239.69,173.99c-6.15-0.74-9.99,0.52-14.5,4.77c-1.77,1.66-4.62,0.22-4.34-2.19c0.74-6.15-0.52-9.99-4.77-14.5
			c-1.66-1.77-0.22-4.62,2.18-4.34c6.15,0.74,9.99-0.52,14.51-4.77c1.76-1.66,4.61-0.22,4.33,2.19c-0.74,6.15,0.53,9.98,4.77,14.5
			C243.53,171.42,242.09,174.28,239.69,173.99z"/>
	</g>
	<g>
		<path d="M194.19,85.41c-0.37-0.05-0.74-0.1-1.12-0.15l-1.89-0.12H86.01c-0.24,0-0.49,0-0.73,0.01c-0.25,0.01-0.49,0.02-0.73,0.04
			c-0.25,0.02-0.49,0.04-0.73,0.06c-3.14,0.33-6.15,1.33-8.83,2.91c-2.01,1.19-3.83,2.7-5.39,4.5c-4.15,4.78-6,11.12-5.09,17.37
			l7.2,49.79h0.23c8.21,0,14.9,6.68,14.9,14.9v2.95c0,6.68-4.42,12.35-10.49,14.24l1.02,7.03h17.1L81.26,107.6
			c-0.12-0.75-0.05-1.41,0.11-1.97c0.25-0.87,0.7-1.51,1.02-1.89c0.54-0.63,1.74-1.67,3.68-1.67h9.08l0.48,4.78l5.97,59.71
			c2.66-4.06,7.26-6.74,12.46-6.74h0.48l-4.59-45.89l-1.19-11.86h22.51v57.75h3.59c3.65,0,7.23,1.38,9.95,3.81v-61.56h22.71
			l-0.57,5.67l-7.1,70.9l1.15,1.14l15.4-30.5l3.66-36.6l1.07-10.61h9.56c1.93,0,3.13,1.04,3.67,1.67c0.54,0.62,1.41,1.96,1.13,3.87
			l-0.58,4.07l-0.2,1.35l9.04-17.91c0.66-1.3,1.44-2.5,2.34-3.6C202.85,88.27,198.68,86.14,194.19,85.41z M117.82,192.58h-3.76
			c-3.97,0-7.6-1.57-10.27-4.12l1.05,10.48h13.61L117.82,192.58z M190.35,242.79c-0.67-0.35-1.4-0.52-2.17-0.52
			c-1.63,0-3.14,0.78-4.03,2.07c-1.86,2.7-4.33,4.85-7.15,6.32v14.62c0,1.29-0.16,2.54-0.47,3.73c7.9-2.4,14.06-9.23,15.28-17.73
			l0.86-5.94C192.24,244.27,191.44,243.32,190.35,242.79z"/>
		<path d="M194.19,85.41c-0.37-0.05-0.74-0.1-1.12-0.15l-1.89-0.12H86.01c-0.24,0-0.49,0-0.73,0.01c-0.25,0.01-0.49,0.02-0.73,0.04
			c-0.25,0.02-0.49,0.04-0.73,0.06c-3.14,0.33-6.15,1.33-8.83,2.91c-2.01,1.19-3.83,2.7-5.39,4.5c-4.15,4.78-6,11.12-5.09,17.37
			l7.2,49.79h0.23c8.21,0,14.9,6.68,14.9,14.9v2.95c0,6.68-4.42,12.35-10.49,14.24l1.02,7.03h17.1L81.26,107.6
			c-0.12-0.75-0.05-1.41,0.11-1.97c0.25-0.87,0.7-1.51,1.02-1.89c0.54-0.63,1.74-1.67,3.68-1.67h9.08l0.48,4.78l5.97,59.71
			c2.66-4.06,7.26-6.74,12.46-6.74h0.48l-4.59-45.89l-1.19-11.86h22.51v57.75h3.59c3.65,0,7.23,1.38,9.95,3.81v-61.56h22.71
			l-0.57,5.67l-7.1,70.9l1.15,1.14l15.4-30.5l3.66-36.6l1.07-10.61h9.56c1.93,0,3.13,1.04,3.67,1.67c0.54,0.62,1.41,1.96,1.13,3.87
			l-0.58,4.07l-0.2,1.35l9.04-17.91c0.66-1.3,1.44-2.5,2.34-3.6C202.85,88.27,198.68,86.14,194.19,85.41z M117.82,192.58h-3.76
			c-3.97,0-7.6-1.57-10.27-4.12l1.05,10.48h13.61L117.82,192.58z M190.35,242.79c-0.67-0.35-1.4-0.52-2.17-0.52
			c-1.63,0-3.14,0.78-4.03,2.07c-1.86,2.7-4.33,4.85-7.15,6.32v14.62c0,1.29-0.16,2.54-0.47,3.73c7.9-2.4,14.06-9.23,15.28-17.73
			l0.86-5.94C192.24,244.27,191.44,243.32,190.35,242.79z"/>
	</g>
</g>
<g>
	<path d="M165.56,198.49l-2.15-2.15l-13.76-13.77l-11.31-11.31c-0.92-0.92-2.18-1.44-3.48-1.44h-20.8c-2.7,0-4.9,2.19-4.9,4.9v2.95
		c0,2.71,2.2,4.9,4.9,4.9h15.53c0.58,0,1.15,0.1,1.68,0.3c0.67,0.25,1.27,0.63,1.78,1.14l11.76,11.75l4.81,4.81
		c3.08,3.09,0.9,8.37-3.47,8.37H39.85c-4.37,0-6.55-5.28-3.47-8.37l16.57-16.56c0.92-0.92,2.16-1.44,3.46-1.44h15.53
		c1.09,0,2.11-0.36,2.92-0.98c1.2-0.88,1.98-2.31,1.98-3.92v-2.95c0-2.28-1.56-4.19-3.66-4.74c-0.4-0.1-0.81-0.16-1.24-0.16h-20.8
		c-1.31,0-2.56,0.52-3.48,1.44l-0.42,0.43l-26.8,26.8c-0.92,0.92-1.44,2.17-1.44,3.47v63.32c0,2.71,2.19,4.9,4.9,4.9h47.37
		c1.85,0,3.54-1.03,4.37-2.67l5.07-9.96c0.83-1.64,2.52-2.68,4.37-2.68h15.85c1.84,0,3.53,1.04,4.36,2.68l5.08,9.96
		c0.6,1.19,1.65,2.06,2.89,2.44h50.33c1.98-0.63,3.41-2.48,3.41-4.67v-63.32C167,200.66,166.48,199.41,165.56,198.49z M77.26,247.42
		c0,2.71-2.19,4.9-4.9,4.9H39.64c-2.71,0-4.9-2.19-4.9-4.9v-15.71c0-2.71,2.19-4.91,4.9-4.91h32.72c2.71,0,4.9,2.2,4.9,4.91V247.42z
		 M151.26,247.42c0,2.71-2.19,4.9-4.9,4.9h-32.72c-1.44,0-2.73-0.62-3.62-1.6c-0.79-0.87-1.28-2.02-1.28-3.3v-15.71
		c0-2.71,2.19-4.91,4.9-4.91h32.72c0.76,0,1.47,0.17,2.1,0.48c1.66,0.78,2.8,2.47,2.8,4.43V247.42z"/>
</g>
</svg>
