<?xml version="1.0" encoding="UTF-8"?>
<svg version="1.1" xmlns="http://www.w3.org/2000/svg" width="1000" height="1000">
<path d="M0 0 C0.99939564 -0.00538554 1.99879129 -0.01077108 3.02847165 -0.01631981 C6.36930152 -0.0305999 9.7097352 -0.02349533 13.05058289 -0.01637268 C15.44915587 -0.02207626 17.84772613 -0.02904047 20.24629211 -0.03717041 C26.08077258 -0.05325612 31.91512933 -0.05520171 37.74962727 -0.04995751 C42.49433239 -0.04591083 47.23900573 -0.04736527 51.98370934 -0.05270576 C52.65983718 -0.05345419 53.33596503 -0.05420261 54.03258159 -0.05497371 C55.40629855 -0.05650525 56.7800155 -0.05804359 58.15373244 -0.05958868 C71.02876754 -0.07330827 83.90374183 -0.06788028 96.77877554 -0.05640347 C108.54394682 -0.04647583 120.30896073 -0.05940453 132.07410774 -0.08333766 C144.16778671 -0.10775281 156.26139246 -0.11733034 168.35509557 -0.11068493 C175.13944937 -0.10719753 181.92368224 -0.10939279 188.70801735 -0.12693596 C195.08977732 -0.14241475 201.47123723 -0.13843869 207.85298538 -0.11963081 C210.1918361 -0.11594735 212.53070908 -0.11904625 214.86953926 -0.1295166 C218.06929489 -0.14274454 221.26805984 -0.131162 224.46777344 -0.11352539 C225.38715252 -0.1231304 226.3065316 -0.1327354 227.25377065 -0.14263147 C236.14243281 -0.04224787 243.81033275 2.60562858 250.29936218 8.82518005 C251.09084656 9.56639099 251.88233093 10.30760193 252.69779968 11.0712738 C261.30560349 20.02641004 264.39031491 30.0881249 264.18998718 42.3915863 C262.85077731 57.49708595 253.05534532 65.84120417 242.1516571 75.06517029 C237.97351763 78.55361015 233.73926948 81.96785521 229.46733093 85.34080505 C227.04754959 87.2885246 224.67442694 89.28388919 222.31254578 91.30125427 C219.52896923 93.67828759 216.72902473 96.03558626 213.92436218 98.38768005 C213.33542175 98.88300232 212.74648132 99.37832458 212.13969421 99.88865662 C210.35035627 101.38227222 208.5461464 102.85582046 206.73686218 104.32518005 C206.20351257 104.7735321 205.67016296 105.22188416 205.12065125 105.68382263 C196.72924147 112.40888016 188.18726066 113.97857631 177.64091492 113.87010193 C176.45422211 113.87401443 175.2675293 113.87792694 174.0448761 113.88195801 C170.81954682 113.88945244 167.5948062 113.87976123 164.36952853 113.86345863 C160.97712195 113.85160532 157.58483473 113.86563055 154.19244385 113.87779236 C145.58221158 113.90443405 136.97211791 113.89783882 128.36186218 113.88768005 C119.05965943 113.87670811 109.75767478 113.87161056 100.45550877 113.90497446 C97.08665008 113.91610729 93.71822185 113.91883641 90.34937859 113.90182495 C86.59214873 113.88529408 82.83564467 113.89285234 79.07841492 113.90525818 C77.97634201 113.89394363 76.8742691 113.88262909 75.73880005 113.87097168 C67.36946399 113.93686714 61.63448152 115.96183279 54.67436218 120.51268005 C49.21887408 126.21614489 46.18704834 132.97295562 45.80326843 140.8837738 C46.19380887 148.95914217 49.14199531 154.36649262 54.40092468 160.37986755 C62.32691899 166.68630884 70.2518703 166.97025932 80.09794617 166.92112732 C81.51161088 166.92819704 82.92526802 166.93694646 84.33891296 166.94723511 C88.1551709 166.96962143 91.97101201 166.96681484 95.78731036 166.95791364 C98.98297974 166.95278139 102.17857232 166.96011437 105.37423378 166.96738571 C112.91778645 166.98435059 120.46113667 166.98085349 128.00468445 166.96409607 C135.76597395 166.94717701 143.52670091 166.96301371 151.287929 166.99531895 C157.97190534 167.02207788 164.65570726 167.02927395 171.33973175 167.02080387 C175.32286163 167.01589307 179.30565324 167.01798932 183.28874016 167.03859138 C187.0360145 167.0570483 190.78248446 167.05086962 194.52971649 167.02639198 C196.54590134 167.01905814 198.5621297 167.03616158 200.57824707 167.05421448 C212.3973439 166.93170522 219.88738882 162.95234116 228.42436218 155.07518005 C229.72782018 153.90974099 231.03250621 152.7456739 232.33842468 151.58299255 C232.95749695 151.02772888 233.57656921 150.47246521 234.21440125 149.90037537 C237.09676943 147.35052481 240.1176415 144.9873623 243.13920593 142.60643005 C246.91603664 139.59767852 250.63767491 136.52370751 254.36186218 133.45018005 C255.85013962 132.22231085 257.3384208 130.99444618 258.82670593 129.7665863 C259.53424011 129.18280212 260.24177429 128.59901794 260.9707489 127.99754333 C263.4500488 125.95449116 265.93623388 123.91996806 268.42436218 121.88768005 C275.9428018 115.74345674 283.43113218 109.56259635 290.92436218 103.38768005 C299.27673964 96.50476953 307.62982469 89.62309513 316.01029968 82.7743988 C321.16520493 78.55235174 326.30587153 74.31301421 331.44779968 70.07518005 C334.4090266 67.63484988 337.37265323 65.19748487 340.33842468 62.76268005 C341.41628235 61.87685242 341.41628235 61.87685242 342.51591492 60.97312927 C343.95179824 59.79369429 345.38880643 58.61562739 346.82695007 57.43894958 C350.03895368 54.80286838 353.22104213 52.1496462 356.31889343 49.37986755 C379.16208315 29.05197187 407.69445263 20.81355822 437.92436218 22.38768005 C466.58837421 24.9719506 494.94780596 37.56363357 514.92436218 58.38768005 C521.22193991 66.56914856 521.79082794 74.41324862 520.92436218 84.38768005 C517.78498791 95.39015997 508.45593326 102.10435668 499.91264343 108.9697113 C496.70830972 111.56249897 493.56257722 114.2157247 490.42436218 116.88768005 C485.5752114 121.00920903 480.67274118 125.05760413 475.73686218 129.07518005 C472.60636552 131.64914398 469.51263758 134.26337092 466.42436218 136.88768005 C461.57476837 141.00869639 456.67275412 145.05759359 451.73686218 149.07518005 C448.60636552 151.64914398 445.51263758 154.26337092 442.42436218 156.88768005 C437.57476837 161.00869639 432.67275412 165.05759359 427.73686218 169.07518005 C424.60636552 171.64914398 421.51263758 174.26337092 418.42436218 176.88768005 C413.57476837 181.00869639 408.67275412 185.05759359 403.73686218 189.07518005 C400.60636552 191.64914398 397.51263758 194.26337092 394.42436218 196.88768005 C389.57476837 201.00869639 384.67275412 205.05759359 379.73686218 209.07518005 C376.60636552 211.64914398 373.51263758 214.26337092 370.42436218 216.88768005 C365.57476837 221.00869639 360.67275412 225.05759359 355.73686218 229.07518005 C352.04342308 232.11200776 348.40137732 235.20728961 344.75810242 238.30393982 C340.48102764 241.93303049 336.14244024 245.4810711 331.78764343 249.0165863 C329.13238791 251.21541318 326.5306232 253.46247961 323.93461609 255.73020935 C290.10444318 285.18263589 254.15191911 299.68493535 209.30058289 299.69407654 C206.9208297 299.70170813 204.54107896 299.71013733 202.16133118 299.71929932 C195.72981165 299.74114141 189.29833961 299.75002831 182.8667872 299.75512576 C178.8445584 299.75839782 174.82233903 299.7649288 170.80011559 299.77212715 C159.64173985 299.79166343 148.48337277 299.808088 137.32497883 299.81100368 C136.61332149 299.81119125 135.90166414 299.81137882 135.16844143 299.81157208 C133.72610931 299.8119383 132.28377719 299.812302 130.84144507 299.81266319 C129.76765139 299.81293741 129.76765139 299.81293741 128.67216492 299.81321716 C127.59704777 299.81348799 127.59704777 299.81348799 126.50021108 299.81376428 C114.87119596 299.81731052 103.24236544 299.84437418 91.61341438 299.88171505 C79.64611335 299.91983256 67.67890395 299.93916136 55.71154088 299.9394632 C49.00323266 299.94004658 42.29517886 299.94898131 35.5869236 299.97746086 C29.28220495 300.00363334 22.97792398 300.00585078 16.67317581 299.98980522 C14.36333575 299.98799064 12.05347053 299.99468211 9.74368477 300.01062393 C6.58349005 300.0311019 3.4248247 300.02052175 0.26464844 300.00241089 C-0.64285603 300.01561086 -1.55036049 300.02881082 -2.48536509 300.04241079 C-10.0828078 299.94337869 -16.58972103 297.6035515 -22.2325117 292.39789385 C-29.1113132 285.1150559 -30.52289335 278.50632272 -30.470047 268.7805481 C-30.4761381 267.72398272 -30.4822292 266.66741734 -30.48850489 265.57883483 C-30.50513087 262.04454779 -30.50035949 258.51062118 -30.49555969 254.9763031 C-30.50290026 252.43980027 -30.51148645 249.90330079 -30.52122498 247.36680603 C-30.54114372 241.19543761 -30.54682145 235.02420143 -30.54503709 228.85280522 C-30.54372793 223.8344535 -30.54754144 218.81613103 -30.55496216 213.79778481 C-30.55706143 212.35059939 -30.55915903 210.90341397 -30.56125498 209.45622855 C-30.56229851 208.73585061 -30.56334203 208.01547268 -30.56441718 207.2732651 C-30.58330836 193.6571436 -30.58227292 180.041076 -30.57544786 166.42494682 C-30.56987423 153.9807661 -30.59069205 141.53679137 -30.62380832 129.09265878 C-30.65757914 116.30289081 -30.67270938 103.51322142 -30.6680913 90.72340804 C-30.66584989 83.54778512 -30.67104125 76.37235254 -30.69598389 69.19676781 C-30.71924642 62.4472488 -30.71637321 55.6982279 -30.69605637 48.94867706 C-30.69264617 46.47436757 -30.6977357 44.00002924 -30.71203995 41.52575874 C-30.73024949 38.14192875 -30.71746857 34.75954974 -30.69709778 31.37576294 C-30.70961563 30.40191058 -30.72213347 29.42805823 -30.73503065 28.42469519 C-30.63463027 20.61917797 -28.45347461 14.04491549 -23.0858779 8.23333663 C-15.99196913 1.52355457 -9.49225914 -0.06160315 0 0 Z " fill="#000000" transform="translate(308.0756378173828,584.6123199462891)"/>
<path d="M0 0 C1.00909424 0.24943359 1.00909424 0.24943359 2.03857422 0.50390625 C24.49096216 6.1053336 44.60680853 16.76367488 62 32 C62.80050781 32.67933594 63.60101562 33.35867187 64.42578125 34.05859375 C90.14372132 56.23221267 107.09117819 89.98511064 110.83447266 123.64111328 C112.02216982 140.56667376 112.19373722 158.48880819 108 175 C107.70198486 176.19061035 107.70198486 176.19061035 107.39794922 177.40527344 C101.71843201 199.40010787 91.79194714 218.72369108 77 236 C75.93652344 237.24716797 75.93652344 237.24716797 74.8515625 238.51953125 C66.29490966 248.2921295 56.77297698 256.50239387 45.9781208 263.67789268 C44.7271227 264.51401642 43.48401273 265.36217431 42.25242424 266.22663307 C28.70777978 275.55806181 15.27864232 275.34093039 -0.71484375 275.23046875 C-2.70638653 275.23690643 -4.69793143 275.24338054 -6.68945891 275.25349981 C-12.93266562 275.28503482 -19.17462123 275.27201318 -25.41772461 275.22827148 C-31.80294376 275.18416716 -38.18520094 275.20880346 -44.57022566 275.26862639 C-50.10564842 275.31842248 -55.64017737 275.32834051 -61.17578226 275.30691797 C-64.4587011 275.29435712 -67.73974349 275.29895156 -71.02256584 275.33238792 C-87.61629657 275.47059457 -99.42981433 273.88075957 -113 264 C-114.18318891 263.17624639 -115.36718583 262.35365176 -116.55210876 261.53239441 C-123.13013702 256.85777329 -129.1418524 251.53861228 -135 246 C-135.74894531 245.30390625 -136.49789062 244.6078125 -137.26953125 243.890625 C-163.80792095 218.42120722 -177.77444635 181.90425856 -179.12890625 145.5390625 C-179.76028619 106.0567702 -165.33489873 68.44361108 -137.9296875 39.9609375 C-102.98418368 4.37882073 -48.93916961 -12.87053453 0 0 Z " fill="#000000" transform="translate(536,184)"/>
<path d="M0 0 C1.14523888 -0.01007584 1.14523888 -0.01007584 2.31361389 -0.02035522 C4.82543541 -0.039275 7.3369887 -0.04325682 9.84887695 -0.04541016 C11.60757046 -0.05184394 13.36626291 -0.05857273 15.12495422 -0.06558228 C18.80923948 -0.07754122 22.49343109 -0.08126469 26.17773438 -0.08007812 C30.87373087 -0.0798754 35.56911903 -0.10713534 40.26497173 -0.14162254 C43.89836829 -0.16398458 47.53162083 -0.16791278 51.16507912 -0.16685867 C52.89485577 -0.16920227 54.62463715 -0.177955 56.35434532 -0.19352341 C68.56846292 -0.29313668 79.39344861 0.4053446 89.30200195 8.46240234 C98.13005843 17.19713898 102.08004404 27.43675529 102.27829266 39.76277637 C102.28504505 41.47870472 102.28639277 43.19465979 102.28337097 44.91059875 C102.28563653 45.86099177 102.28790208 46.81138479 102.29023629 47.79057759 C102.29655093 50.96545937 102.29574856 54.14029819 102.29492188 57.31518555 C102.29791494 59.59553075 102.30131781 61.87587545 102.30509949 64.15621948 C102.31392851 70.34429829 102.31627714 76.53236328 102.31691527 82.72044778 C102.31762638 86.58819678 102.31976185 90.45594228 102.32241249 94.32369041 C102.33118498 107.12532373 102.33583266 119.92694588 102.33508202 132.72858176 C102.33504206 133.41796668 102.3350021 134.10735159 102.33496094 134.81762695 C102.33492006 135.50785858 102.33487918 136.19809021 102.33483706 136.90923794 C102.33443071 148.09237577 102.34399878 159.27547992 102.3580993 170.45860801 C102.37248063 181.95562778 102.3791856 193.45262677 102.37850553 204.94965619 C102.37825076 211.39863067 102.38109025 217.84756701 102.39168358 224.29653358 C102.40137676 230.36303563 102.40143531 236.42946317 102.39416695 242.49596786 C102.39312264 244.71871614 102.39547483 246.94146909 102.4015274 249.16420937 C102.40927203 252.20606159 102.40458612 255.24765808 102.39689636 258.289505 C102.40203993 259.16219271 102.40718349 260.03488041 102.41248292 260.93401319 C102.35010169 272.15505799 100.30089674 282.03866105 92.5871582 290.47802734 C82.09627575 300.02677141 71.26363391 300.02819174 57.83325195 299.91943359 C55.96720746 299.92026393 54.10116305 299.92272952 52.23512268 299.92674255 C48.34092972 299.92958772 44.44731599 299.91502404 40.55322266 299.88745117 C35.58479055 299.8533469 30.61739137 299.85940685 25.64890957 299.87811375 C21.80104602 299.88872746 17.95341907 299.87970676 14.10557747 299.86472893 C12.27452359 299.8595803 10.44344466 299.85998817 8.61239433 299.86627388 C-4.08690931 299.89351571 -14.41024638 299.37025392 -24.09643555 290.21240234 C-31.51545475 282.08287574 -33.15324333 273.83550413 -33.11776733 263.13896179 C-33.12229845 262.13139904 -33.12682956 261.12383629 -33.13149798 260.08574134 C-33.14413486 256.7173516 -33.14252205 253.34912368 -33.14086914 249.98071289 C-33.14685481 247.56243685 -33.15366044 245.14416273 -33.16122437 242.72589111 C-33.1770533 236.84331218 -33.18333256 230.96077103 -33.18444912 225.07817515 C-33.18540097 220.29438304 -33.18951808 215.51060411 -33.19585037 210.72681618 C-33.21345443 197.15045364 -33.22269051 183.57412267 -33.22118942 169.99774864 C-33.22110951 169.26654579 -33.2210296 168.53534293 -33.22094727 167.78198242 C-33.2208655 167.04988219 -33.22078374 166.31778195 -33.2206995 165.56349687 C-33.21988676 153.70133365 -33.23902358 141.83929745 -33.267224 129.97717097 C-33.29598154 117.78405822 -33.30976273 105.59100737 -33.30803645 93.39785987 C-33.30737355 86.55760665 -33.31282166 79.71748661 -33.33439255 72.87726402 C-33.35455391 66.44301454 -33.35390135 60.00897339 -33.33935928 53.57470703 C-33.33726972 51.21650087 -33.34198077 48.85827714 -33.3540802 46.50010109 C-33.36955717 43.27408656 -33.36020749 40.04903812 -33.34481812 36.82304382 C-33.35510524 35.89588285 -33.36539237 34.96872187 -33.37599123 34.01346511 C-33.27330955 24.23391005 -29.708451 15.34544763 -22.8503418 8.29052734 C-15.7299322 2.53795227 -9.20151372 -0.01175962 0 0 Z " fill="#000000" transform="translate(127.850341796875,584.70947265625)"/>
<path d="M0 0 C1.00370636 -0.0071553 2.00741272 -0.01431061 3.04153442 -0.02168274 C4.1418399 -0.02437164 5.24214539 -0.02706055 6.37579346 -0.02983093 C7.53541595 -0.03640213 8.69503845 -0.04297333 9.88980103 -0.04974365 C13.7357184 -0.06948959 17.58159671 -0.08114194 21.42755127 -0.09111023 C22.73997047 -0.09518576 24.05238968 -0.09926128 25.40457916 -0.10346031 C31.63401047 -0.12250739 37.86342996 -0.13673882 44.09288478 -0.14507228 C51.27528819 -0.15484005 58.45738304 -0.18114917 65.63967776 -0.22157317 C71.19649218 -0.25177133 76.75321833 -0.26654468 82.31011319 -0.26985329 C85.62648417 -0.27219982 88.94245064 -0.28309128 92.25875092 -0.30631447 C95.96207797 -0.33063671 99.66459864 -0.32975294 103.36798096 -0.32279968 C104.46018951 -0.33560974 105.55239807 -0.3484198 106.67770386 -0.36161804 C113.92195489 -0.31205798 118.40902073 0.73426269 123.87286377 5.74482727 C128.87344792 12.21109988 128.81341052 18.18514344 128.13067627 26.14717102 C126.46984841 31.57570551 122.59250013 34.91946865 118.13067627 38.14717102 C115.20431846 39.12262362 113.30951222 39.27942188 110.26135254 39.29434204 C109.25764618 39.30149734 108.25393982 39.30865265 107.21981812 39.31602478 C105.56935989 39.32005814 105.56935989 39.32005814 103.88555908 39.32417297 C102.72593658 39.33074417 101.56631409 39.33731537 100.37155151 39.34408569 C96.52563414 39.36383163 92.67975583 39.37548398 88.83380127 39.38545227 C87.52138206 39.3895278 86.20896286 39.39360332 84.85677338 39.39780235 C78.62734207 39.41684943 72.39792258 39.43108086 66.16846776 39.43941432 C58.98606435 39.44918209 51.8039695 39.47549121 44.62167478 39.51591522 C39.06486036 39.54611337 33.5081342 39.56088672 27.95123935 39.56419533 C24.63486837 39.56654186 21.3189019 39.57743332 18.00260162 39.60065651 C14.29927457 39.62497875 10.5967539 39.62409498 6.89337158 39.61714172 C5.80116302 39.62995178 4.70895447 39.64276184 3.58364868 39.65596008 C-3.66060236 39.60640002 -8.14766819 38.56007935 -13.61151123 33.54951477 C-18.61209538 27.08324216 -18.55205798 21.1091986 -17.86932373 13.14717102 C-16.20849587 7.71863653 -12.33114759 4.37487339 -7.86932373 1.14717102 C-4.94296592 0.17171842 -3.04815968 0.01492016 0 0 Z " fill="#000000" transform="translate(444.86932373046875,466.8528289794922)"/>
<path d="M0 0 C7.18126792 4.2688322 14.44337312 8.39975845 21.69775391 12.54272461 C44.20671565 25.46389696 44.20671565 25.46389696 47.046875 33.984375 C47.78959168 40.83928473 47.09930123 46.3004525 43.046875 51.984375 C38.72897898 56.19155573 34.57530951 58.04971379 28.609375 58.546875 C21.20975677 58.32002539 15.29936133 54.57634508 9.046875 50.984375 C8.20350586 50.50129883 7.36013672 50.01822266 6.49121094 49.52050781 C1.50732205 46.65270315 -3.45329464 43.74777804 -8.40234375 40.8203125 C-12.91410469 38.15909187 -17.45824445 35.56975695 -22.03515625 33.0234375 C-23.21280289 32.36305407 -24.39021382 31.70225012 -25.56738281 31.04101562 C-27.80871494 29.78546339 -30.05647859 28.54130024 -32.31152344 27.31054688 C-39.34220594 23.34655592 -46.28704141 18.98262576 -48.953125 10.984375 C-49.46061417 4.76763271 -49.7251083 -0.78351913 -45.953125 -6.015625 C-31.23729154 -21.79616992 -14.76742319 -8.8006406 0 0 Z " fill="#000000" transform="translate(314.953125,185.015625)"/>
<path d="M0 0 C8.3995609 4.94714296 12.64757722 15.16384503 17.25 23.375 C18.29892263 25.23287091 19.34969155 27.08968921 20.40061951 28.94642639 C21.12013122 30.2178294 21.83900977 31.48959093 22.55726624 32.76170349 C25.03704285 37.14907574 27.55027739 41.51580675 30.0859375 45.87109375 C30.4281282 46.45969177 30.77031891 47.04828979 31.12287903 47.65472412 C32.75353487 50.45891645 34.38767603 53.26098113 36.02709961 56.06005859 C45.15053628 71.7651789 45.15053628 71.7651789 43.8125 80.5 C41.93221646 86.41705047 38.83702173 89.97214432 33.8125 93.5 C28.45198786 95.28683738 22.13791999 95.45621051 16.6796875 93.88671875 C7.69771433 89.31517635 3.05209221 77.97065393 -1.625 69.625 C-2.67393512 67.76608366 -3.72464641 65.90817981 -4.77561951 64.05041504 C-5.49511318 62.77854393 -6.21399186 61.50632474 -6.93226624 60.23376465 C-9.40664231 55.85626074 -11.92112449 51.50388356 -14.4609375 47.1640625 C-15.14658452 45.98943152 -15.83221309 44.81478978 -16.51782227 43.64013672 C-17.80808001 41.43339709 -19.1026219 39.22915494 -20.40209961 37.02783203 C-25.54708664 28.19955835 -29.7521697 20.89825268 -27.1875 10.5 C-24.49175208 5.30105759 -21.02874795 2.07847108 -15.9375 -0.75 C-10.44361292 -2.24833284 -5.27778621 -2.28501855 0 0 Z " fill="#000000" transform="translate(383.1875,81.5)"/>
<path d="M0 0 C5.36941848 3.11707814 8.6079351 7.15193031 10.5859375 13.0859375 C11.2778612 18.47305774 11.00297539 22.89815571 8.45703125 27.74609375 C8.00102539 28.61516357 7.54501953 29.4842334 7.07519531 30.37963867 C4.55663318 34.9564028 1.93506665 39.46613079 -0.7265625 43.9609375 C-4.77415692 50.8333871 -8.78998924 57.71872948 -12.7109375 64.6640625 C-13.2460218 65.60978622 -13.2460218 65.60978622 -13.79191589 66.57461548 C-15.90084741 70.30219071 -15.90084741 70.30219071 -17.99771118 74.03656006 C-27.87247935 91.68735701 -27.87247935 91.68735701 -36.2890625 94.7734375 C-43.26969898 95.80000169 -48.40846921 94.68231022 -54.4140625 91.0859375 C-58.67800902 86.71265902 -60.71711893 82.69118828 -60.9140625 76.5859375 C-60.79048157 71.82637103 -59.99722673 68.58368189 -57.78515625 64.375 C-56.9660376 62.81217285 -56.9660376 62.81217285 -56.13037109 61.21777344 C-53.4973226 56.41311538 -50.77115318 51.67325811 -47.9765625 46.9609375 C-46.74914949 44.87810514 -45.52262002 42.79475191 -44.296875 40.7109375 C-43.66426758 39.63585937 -43.03166016 38.56078125 -42.37988281 37.453125 C-40.34531276 33.96817838 -38.33979325 30.46801698 -36.34375 26.9609375 C-35.66989544 25.78007932 -34.99598644 24.59925221 -34.32202148 23.41845703 C-33.03580541 21.16156297 -31.75386668 18.90222431 -30.47680664 16.64013672 C-23.611314 4.6252899 -15.45834622 -5.85316022 0 0 Z " fill="#000000" transform="translate(633.4140625,79.9140625)"/>
<path d="M0 0 C5.22138038 2.72225815 8.629249 6.9153056 10.890625 12.265625 C11.66282982 18.04818205 11.65371528 24.2008479 8.62109375 29.32421875 C4.33768137 34.12976266 -1.57555888 37.108157 -7.109375 40.265625 C-7.93969238 40.74128906 -8.77000977 41.21695313 -9.62548828 41.70703125 C-14.37403442 44.41800996 -19.13821127 47.099996 -23.91015625 49.76953125 C-31.40405475 53.97430132 -38.81301525 58.32249809 -46.21630859 62.68432617 C-61.00175558 71.36690294 -61.00175558 71.36690294 -71.109375 70.265625 C-77.15439096 68.13867494 -80.9056757 64.50699612 -83.921875 58.890625 C-85.85587516 52.98683503 -85.66458536 47.95758696 -83.21899414 42.28173828 C-79.24233143 35.056374 -70.17884022 31.19332427 -63.296875 27.328125 C-61.57032418 26.34641392 -59.84378129 25.36468857 -58.1177063 24.38214111 C-56.92694295 23.70496945 -55.7355915 23.02883095 -54.54367065 22.35369873 C-50.33808804 19.97129961 -46.15068872 17.55926076 -41.97265625 15.12890625 C-40.81030465 14.45369136 -39.64795116 13.77847974 -38.4855957 13.10327148 C-36.29446205 11.82953344 -34.10414548 10.55438836 -31.91479492 9.27758789 C-9.92939862 -3.45690174 -9.92939862 -3.45690174 0 0 Z " fill="#000000" transform="translate(722.109375,170.734375)"/>
<path d="M0 0 C4.75144381 1.6581721 7.83567967 4.28149066 10.4375 8.5625 C12.73014689 13.60632316 13.13066361 17.37611898 13.16113281 22.93652344 C13.16858017 23.9715097 13.16858017 23.9715097 13.17617798 25.02740479 C13.19075357 27.30473845 13.19759461 29.5820024 13.203125 31.859375 C13.20888114 33.44875082 13.21463881 35.03812663 13.22039795 36.62750244 C13.23089548 39.95967938 13.23674601 43.29183229 13.24023438 46.62402344 C13.24571027 50.87858789 13.26972401 55.1328309 13.29820633 59.38729477 C13.31689987 62.67141627 13.32204191 65.95546146 13.32357025 69.23963165 C13.32658321 70.80721032 13.33456554 72.37478808 13.34775543 73.94231415 C13.42050449 83.2542253 13.37107381 90.76902339 8.1875 98.8125 C3.82018354 103.17981646 -0.90396428 104.68468781 -7 105 C-13.91963949 104.12131562 -18.45109966 101.32840674 -23 96 C-25.11719875 91.8218713 -25.29086603 87.95978133 -25.2746582 83.36743164 C-25.27976913 82.61556076 -25.28488007 81.86368988 -25.29014587 81.08903503 C-25.30400435 78.61266031 -25.303088 76.13656506 -25.30078125 73.66015625 C-25.30467015 71.93289589 -25.30900522 70.20563647 -25.31376648 68.4783783 C-25.32122056 64.86128639 -25.32094324 61.24429211 -25.31567383 57.62719727 C-25.30987925 52.99915567 -25.32681375 48.37151429 -25.3500185 43.74353886 C-25.36477221 40.17725806 -25.36562533 36.61107329 -25.36250877 33.04476738 C-25.36302113 31.33878219 -25.36824275 29.63279151 -25.37832069 27.92683601 C-25.39070021 25.53828267 -25.38388491 23.15050445 -25.37231445 20.76196289 C-25.37995819 20.06203217 -25.38760193 19.36210144 -25.39547729 18.64096069 C-25.33740001 13.19841452 -24.00160352 9.12642512 -20.24609375 5.13671875 C-19.64925781 4.65847656 -19.05242187 4.18023437 -18.4375 3.6875 C-17.83808594 3.19636719 -17.23867188 2.70523438 -16.62109375 2.19921875 C-11.80535218 -1.36326959 -5.72015456 -0.58205082 0 0 Z " fill="#000000" transform="translate(506,47)"/>
<path d="M0 0 C1.38682272 -0.01149748 2.77360197 -0.03191439 4.16015625 -0.06152344 C13.19833363 -0.25439823 19.24804389 -0.3751155 26.08300781 5.89282227 C31.08359196 12.35909487 31.02355456 18.33313844 30.34082031 26.29516602 C28.67999245 31.7237005 24.80264417 35.06746365 20.34082031 38.29516602 C15.28071359 39.98186826 9.98093602 39.55975437 4.68164062 39.59033203 C3.2948179 39.60182951 1.90803865 39.62224642 0.52148438 39.65185547 C-8.516693 39.84473026 -14.56640327 39.96544753 -21.40136719 33.69750977 C-26.40195134 27.23123716 -26.34191394 21.25719359 -25.65917969 13.29516602 C-23.99835183 7.86663153 -20.12100355 4.52286838 -15.65917969 1.29516602 C-10.59907297 -0.39153622 -5.29929539 0.03057766 0 0 Z " fill="#000000" transform="translate(496.6591796875,522.704833984375)"/>
</svg>
