<?xml version="1.0" encoding="UTF-8" standalone="no"?><!DOCTYPE svg PUBLIC "-//W3C//DTD SVG 1.1//EN" "http://www.w3.org/Graphics/SVG/1.1/DTD/svg11.dtd"><svg width="100%" height="100%" viewBox="0 0 300 300" version="1.1" xmlns="http://www.w3.org/2000/svg" xmlns:xlink="http://www.w3.org/1999/xlink" xml:space="preserve" xmlns:serif="http://www.serif.com/" style="fill-rule:evenodd;clip-rule:evenodd;stroke-linejoin:round;stroke-miterlimit:2;"><path d="M199.283,157.696c-3.289,-6.578 -0.244,-14.253 5.847,-17.176c1.705,-0.731 3.533,-1.218 5.482,-1.218l49.58,0c9.502,0 15.593,9.989 11.329,18.394l-0.975,1.949c-2.193,4.264 -6.578,7.065 -11.329,7.065l-47.631,0c-4.751,0 -9.258,-2.68 -11.329,-7.065l-0.975,-1.949Z" style="fill-rule:nonzero;"/><path d="M271.643,157.696l-0.975,1.949c-2.193,4.264 -6.578,7.065 -11.329,7.065l-47.631,0c-4.751,0 -9.258,-2.68 -11.329,-7.065l-0.975,-1.949c-3.289,-6.578 -0.244,-14.253 5.847,-17.176c1.705,-0.731 3.533,-1.218 5.482,-1.218l49.58,0c9.38,-0 15.593,9.989 11.329,18.394Z" style="fill-rule:nonzero;"/><path d="M215.242,100.929l0,1.218c0,1.584 0,3.167 -0.244,4.751l0,0.122c-0.122,1.949 -0.365,3.776 -0.731,5.604c-0.365,1.949 -0.731,3.898 -1.218,5.725c-0.365,1.218 -0.731,2.558 -1.096,3.776c-0.487,1.705 -1.096,3.411 -1.705,4.995c-3.655,0 -7.187,0.853 -10.355,2.436c-5.969,2.802 -10.598,8.162 -12.791,14.374c-1.34,3.898 -1.705,7.918 -0.975,11.938c-2.193,1.462 -4.385,2.68 -6.7,3.898l-1.584,0.609c-0.244,0.122 -0.365,0.122 -0.609,0.244c-1.34,0.609 -2.802,1.218 -4.264,1.705c-0.365,0.122 -0.853,0.365 -1.218,0.487c-0.244,0.122 -0.609,0.244 -0.853,0.365c-2.802,0.975 -5.604,1.705 -8.527,2.193c-2.193,0.365 -4.385,0.731 -6.578,0.853c-1.827,0.244 -3.655,0.244 -5.482,0.244c-1.827,0 -3.655,0 -5.482,-0.244c-2.193,-0.122 -4.507,-0.487 -6.578,-0.853c-2.924,-0.487 -5.847,-1.218 -8.527,-2.193c-0.365,-0.122 -0.731,-0.244 -1.218,-0.365c-2.558,-0.853 -4.995,-1.827 -7.309,-3.045c-4.629,-2.193 -9.136,-5.116 -12.913,-8.527c-2.802,-2.193 -5.482,-4.873 -7.675,-7.675c-0.853,-1.096 -1.705,-2.193 -2.558,-3.289c-1.584,-2.071 -3.045,-4.264 -4.264,-6.578c-0.731,-1.34 -1.462,-2.68 -2.193,-4.142l0,-0.122c-0.853,-2.193 -1.827,-4.264 -2.558,-6.335c-0.122,-0.365 -0.244,-0.731 -0.365,-1.096c-1.584,-4.873 -2.558,-9.867 -3.045,-15.227c-0.244,-1.827 -0.244,-3.533 -0.244,-5.36c0,-1.827 0,-3.655 0.244,-5.482c0.365,-5.238 1.462,-10.355 3.045,-15.227c0.122,-0.365 0.244,-0.731 0.365,-1.096c0.731,-2.071 1.705,-4.264 2.558,-6.335l0,-0.122c0.609,-1.462 1.34,-2.802 2.193,-4.142c1.34,-2.315 2.802,-4.507 4.264,-6.578c0.853,-1.096 1.705,-2.193 2.558,-3.289c2.193,-2.802 4.873,-5.482 7.675,-7.675c3.776,-3.411 8.284,-6.335 12.913,-8.527c2.68,-1.462 5.482,-2.68 8.527,-3.411c4.873,-1.584 9.867,-2.68 15.227,-3.045c1.827,-0.244 3.655,-0.244 5.482,-0.244c1.827,0 3.655,0 5.482,0.244c5.238,0.365 10.355,1.462 15.227,3.045c0.244,0.122 0.609,0.244 0.853,0.365c0.365,0.122 0.853,0.365 1.34,0.487c1.462,0.487 2.802,1.096 4.264,1.705c0.244,0.122 0.365,0.122 0.609,0.244c0.487,0.244 0.975,0.487 1.584,0.609c4.629,2.436 9.136,5.238 12.913,8.527c2.68,2.193 5.238,4.873 7.675,7.675c3.411,4.02 6.335,8.284 8.527,12.913c1.462,2.68 2.558,5.482 3.411,8.527c0.365,1.218 0.731,2.558 1.096,3.776c0.487,1.949 0.975,3.776 1.218,5.725c0.365,1.827 0.487,3.776 0.731,5.604l0,0.122c-0.122,1.827 -0.122,3.533 -0.122,5.116Z" style="fill-rule:nonzero;"/><path d="M165.905,185.593c-1.218,2.68 -1.949,5.482 -1.949,8.649c0,3.655 0.975,7.065 2.558,9.989c0.244,0.365 0.487,0.853 0.731,1.218c0.731,1.096 1.462,1.949 2.315,2.924l-5.482,14.862l-0.609,1.584l-1.827,3.167l-11.451,19.856l-0.244,-0.365l-13.156,-22.658l-6.091,-16.445c0.853,-0.853 1.584,-1.827 2.315,-2.924c2.071,-3.167 3.411,-7.065 3.411,-11.207c0,-3.411 -0.853,-6.7 -2.315,-9.502c-0.975,-1.827 -2.193,-3.411 -3.533,-4.873l-0.122,-0.122l39.469,0l-0.122,0.122c-1.584,1.705 -2.924,3.655 -3.898,5.725Z" style="fill-rule:nonzero;"/><path d="M120.102,229.325l19.734,34.231l-135.461,0c4.873,-47.143 44.707,-83.811 93.069,-83.811l12.913,0l6.213,9.38c0.609,0.975 1.462,1.949 2.315,2.68c0.487,0.487 0.975,1.34 0.975,2.436c0,0.731 -0.244,1.34 -0.731,2.071c0,0 -0.122,0.122 -0.244,0.365l-7.309,7.553l8.649,23.511l0,1.584l-0.122,0Z" style="fill-rule:nonzero;"/><path d="M179.305,263.556l-18.638,0l7.553,-13.034c2.071,3.655 4.629,6.944 7.796,9.989c0.365,0.365 0.731,0.609 0.975,0.975c0.731,0.731 1.462,1.462 2.315,2.071Z" style="fill-rule:nonzero;"/><path d="M294.91,213.002c-1.462,-4.142 -3.533,-7.796 -6.335,-11.085l-14.009,-16.811c-2.436,-2.924 -5.969,-4.629 -9.745,-4.629l-58.594,0c-1.34,0 -2.68,0.244 -4.02,0.609c-2.193,0.731 -4.264,2.071 -5.847,3.898l-9.624,11.573l-2.315,2.802l-1.949,2.436c-2.802,3.289 -4.873,7.065 -6.335,11.085c-1.462,4.142 -2.193,8.284 -2.193,12.669c0,0.731 0,1.584 0.122,2.315c0.122,3.411 0.731,6.578 1.705,9.624c1.705,5.36 4.751,10.111 8.893,14.374c0.244,0.244 0.487,0.487 0.731,0.609c7.065,6.7 15.593,9.989 25.582,9.989l49.336,0c10.233,0 19.004,-3.533 26.191,-10.72c2.193,-2.193 4.02,-4.507 5.482,-6.944c3.533,-5.604 5.238,-12.06 5.238,-19.369c-0.122,-4.142 -0.853,-8.405 -2.315,-12.425Zm-46.413,29.236c-2.558,2.193 -5.604,3.533 -9.38,4.142l0,7.553l-7.187,0l0,-7.675c-3.167,-0.731 -5.969,-2.071 -8.284,-4.142c-2.315,-2.071 -4.02,-4.873 -5.116,-8.649l6.7,-2.68c0.853,2.924 2.193,5.116 4.02,6.578c1.705,1.462 4.02,2.193 6.944,2.193c2.436,0 4.507,-0.609 6.213,-1.705c1.705,-1.096 2.558,-2.802 2.558,-5.116c0,-2.071 -0.609,-3.776 -1.949,-4.995c-1.34,-1.218 -4.385,-2.558 -9.136,-4.142c-5.116,-1.584 -8.649,-3.533 -10.598,-5.847c-0.487,-0.609 -0.975,-1.218 -1.34,-1.949c-0.975,-1.827 -1.584,-3.898 -1.584,-6.335c0,-3.898 1.218,-6.944 3.776,-9.136c2.558,-2.193 5.116,-3.411 7.796,-3.655l0,-7.553l7.187,0l0,7.553c0.487,0.122 0.975,0.122 1.462,0.365c2.315,0.609 4.264,1.584 5.847,2.924c1.949,1.705 3.411,3.776 4.264,6.213l-6.7,2.924c-0.731,-1.949 -1.705,-3.411 -3.045,-4.264c-1.34,-0.975 -3.167,-1.462 -5.36,-1.462c-0.487,0 -0.975,0 -1.462,0.122c-1.949,0.122 -3.411,0.731 -4.629,1.705c-1.34,1.218 -2.071,2.68 -2.071,4.385l0,0.609c0.122,1.705 1.096,3.045 2.68,4.142c1.827,1.096 4.873,2.315 9.38,3.655c4.142,1.218 7.309,3.045 9.38,5.725c2.193,2.558 3.167,5.604 3.167,9.015c0.365,4.02 -0.975,7.309 -3.533,9.502Z" style="fill-rule:nonzero;"/></svg>