<?xml version="1.0" encoding="utf-8"?>
<!-- Generator: Adobe Illustrator 23.0.1, SVG Export Plug-In . SVG Version: 6.00 Build 0)  -->
<svg version="1.1" id="Layer_1" xmlns="http://www.w3.org/2000/svg" xmlns:xlink="http://www.w3.org/1999/xlink" x="0px" y="0px"
	 viewBox="0 0 300 300" style="enable-background:new 0 0 300 300;" xml:space="preserve">
<style type="text/css">
	.st0{fill:none;}
	.st1{stroke:#000000;stroke-width:12;stroke-linecap:round;stroke-linejoin:round;stroke-miterlimit:10;}
	.st2{fill:none;stroke:#000000;stroke-width:16;stroke-linecap:round;stroke-linejoin:round;stroke-miterlimit:10;}
	.st3{fill:#E3E3E3;}
	.st4{fill:#00FF00;}
	.st5{fill:#0000FF;}
	.st6{fill:#333333;}
	.st7{stroke:#000000;stroke-miterlimit:10;}
	.st8{fill:none;stroke:#000000;stroke-width:15;stroke-linecap:round;stroke-linejoin:round;stroke-miterlimit:10;}
</style>
<g>
	<g>
		<polygon points="181.25,275.76 181.12,276.2 181.24,275.76 		"/>
		<polygon points="175.86,254.79 174.16,260.66 174.1,260.66 175.79,254.72 		"/>
		<polygon points="181.25,275.76 181.12,276.2 181.24,275.76 		"/>
		<polygon points="181.25,275.76 181.12,276.2 181.24,275.76 		"/>
		<polygon points="253.69,168.23 245.79,176.13 245.78,176.12 		"/>
		<path d="M291.74,195.65c-0.95,2.05-2.28,4-3.99,5.7l-0.6,0.59l-25.81-25.81l0.44-0.44c1.76-1.76,3.76-3.13,5.88-4.1
			c7.3-3.34,16.05-1.99,21.45,4.14C293.95,181.22,294.8,189.04,291.74,195.65z"/>
	</g>
	<g>
		<path d="M253.69,92.74v28.01H25.58V92.74c0-12.39,10.09-22.48,22.49-22.48h3.84v8.98c0,12.99,10.58,23.56,23.58,23.56
			c12.99,0,23.57-10.57,23.57-23.56v-8.98h81.16v8.98c0,12.99,10.58,23.56,23.57,23.56c13,0,23.57-10.57,23.57-23.56v-8.98h3.85
			C243.61,70.26,253.69,80.35,253.69,92.74z"/>
		<path d="M62.91,79.24V61.28c0-6.94,5.63-12.56,12.57-12.56s12.57,5.63,12.57,12.56v17.96c0,3.46-1.41,6.61-3.68,8.88
			c-2.27,2.28-5.42,3.68-8.89,3.68C68.54,91.81,62.91,86.18,62.91,79.24z"/>
		<path d="M211.71,275.02c-0.12,0.06-0.24,0.1-0.37,0.14c-0.01,0-0.03,0.02-0.05,0.02l-5.86,1.7l-16.39,4.74l-0.31,0.08h-0.01
			l-1.22,0.36l-0.92,0.27l-0.69,0.2l-3.56,1.03c-1.63,0.48-3.09-0.97-2.61-2.6l1.23-4.24l0.13-0.44l0.02-0.05l0.13-0.44h-0.01
			l0.36-1.23l0.4-1.4l2.73-9.44l0.88-3.02l0.82-2.82l1.7-5.85c0-0.03,0.01-0.04,0.01-0.06c0.04-0.14,0.08-0.26,0.15-0.38v-0.01
			c0.82-1.86,3.32-2.44,4.76-1l19.7,19.7C214.19,271.71,213.6,274.21,211.71,275.02z"/>
		<path d="M175.79,254.72l-1.69,5.94h0.06l1.7-5.87L175.79,254.72z M245.78,176.12l0.01,0.01l7.9-7.9L245.78,176.12z"/>
		<path d="M170.68,176.25c4.27,4.28,4.27,11.22,0,15.49l-33.69,33.7c-2.06,2.06-4.81,3.21-7.74,3.21c0,0,0,0-0.01,0
			c-2.92,0-5.68-1.15-7.75-3.21l-12.9-12.91c-2.07-2.06-3.21-4.82-3.21-7.74c0-2.93,1.14-5.68,3.21-7.75
			c2.08-2.07,4.83-3.21,7.75-3.21c2.94,0,5.7,1.14,7.77,3.22l3.74,3.75c0.77,0.76,2.01,0.76,2.78,0l24.55-24.55
			C159.45,171.97,166.4,171.97,170.68,176.25z"/>
		<path d="M253.69,141.03H25.58v97.15c0,12.39,10.09,22.48,22.49,22.48H174.1l1.69-5.94l0.07,0.07l1.61-5.56v-0.03l0.18-0.63
			l0.02-0.04c1.39-4.34,4.8-7.67,8.98-9.08c0.75-3.45,2.47-6.65,5.03-9.22l54.11-54.1l-0.01-0.01l7.91-7.89V141.03z M179.88,200.94
			l-33.69,33.69c-4.5,4.51-10.52,7.01-16.94,7.01h-0.01c-6.4,0-12.42-2.49-16.94-7.01l-12.9-12.9c-4.52-4.5-7.02-10.52-7.02-16.94
			c0-6.4,2.5-12.41,7.02-16.94c4.56-4.53,10.56-7.01,16.94-7.01c4.46,0,8.72,1.2,12.43,3.45l17.22-17.23
			c4.51-4.52,10.53-7.01,16.94-7.01c6.4,0,12.42,2.49,16.95,7.01C189.22,176.4,189.22,191.6,179.88,200.94z"/>
		<path d="M279.37,209.72l-25.68,25.69l-28.42,28.42c-0.73,0.73-1.59,1.28-2.48,1.66c-2.58,1.06-5.61,0.6-7.63-1.43l-3.39-3.39
			l-12.54-12.53c-2.02-2.03-2.48-5.05-1.42-7.64c0.37-0.9,0.93-1.75,1.66-2.48l54.1-54.1l0.13,0.12L279.37,209.72z"/>
	</g>
	<path d="M216.37,61.28v17.96c0,3.46-1.41,6.61-3.68,8.88c-2.27,2.28-5.42,3.68-8.89,3.68c-6.95,0-12.57-5.63-12.57-12.56V61.28
		c0-6.94,5.63-12.56,12.57-12.56C210.74,48.71,216.37,54.34,216.37,61.28z"/>
	<g>
		<path d="M170.68,191.74l-33.69,33.7c-2.06,2.06-4.81,3.21-7.74,3.21c0,0,0,0-0.01,0c-2.92,0-5.68-1.15-7.75-3.21l-12.9-12.91
			c-2.07-2.06-3.21-4.82-3.21-7.74c0-2.93,1.14-5.68,3.21-7.75c2.08-2.07,4.83-3.21,7.75-3.21c2.94,0,5.7,1.14,7.77,3.22l3.74,3.75
			c0.77,0.76,2.01,0.76,2.78,0l24.55-24.55c4.27-4.28,11.22-4.28,15.5,0C174.95,180.53,174.95,187.47,170.68,191.74z"/>
		<path d="M170.68,191.74l-33.69,33.7c-2.06,2.06-4.81,3.21-7.74,3.21c0,0,0,0-0.01,0c-2.92,0-5.68-1.15-7.75-3.21l-12.9-12.91
			c-2.07-2.06-3.21-4.82-3.21-7.74c0-2.93,1.14-5.68,3.21-7.75c2.08-2.07,4.83-3.21,7.75-3.21c2.94,0,5.7,1.14,7.77,3.22l3.74,3.75
			c0.77,0.76,2.01,0.76,2.78,0l24.55-24.55c4.27-4.28,11.22-4.28,15.5,0C174.95,180.53,174.95,187.47,170.68,191.74z"/>
	</g>
</g>
</svg>
