<?xml version="1.0" encoding="utf-8"?>
<!-- Generator: Adobe Illustrator 23.0.1, SVG Export Plug-In . SVG Version: 6.00 Build 0)  -->
<svg version="1.1" id="Layer_1" xmlns="http://www.w3.org/2000/svg" xmlns:xlink="http://www.w3.org/1999/xlink" x="0px" y="0px"
	 viewBox="0 0 300 300" style="enable-background:new 0 0 300 300;" xml:space="preserve">
<style type="text/css">
	.st0{stroke:#000000;stroke-width:3;stroke-miterlimit:10;}
	.st1{fill:#E3E3E3;}
</style>
<g>
	<g>
		<path d="M55.82,208.44c-1.72,1.09-3.17,2.65-3.9,4.9c-0.06,0.21-0.1,0.44-0.1,0.66v54.81c0,1.15-0.93,2.08-2.07,2.08h-7.47
			c-1.14,0-2.08-0.93-2.08-2.08v-54.74c0-0.27-0.05-0.53-0.15-0.78l-8.86-21.86c-0.78-1.95,1.49-3.71,3.17-2.45l21.53,16.05
			C57.04,205.89,57.04,207.68,55.82,208.44z"/>
		<path d="M55.82,208.44c-1.72,1.09-3.17,2.65-3.9,4.9c-0.06,0.21-0.1,0.44-0.1,0.66v54.81c0,1.15-0.93,2.08-2.07,2.08h-7.47
			c-1.14,0-2.08-0.93-2.08-2.08v-54.74c0-0.27-0.05-0.53-0.15-0.78l-8.86-21.86c-0.78-1.95,1.49-3.71,3.17-2.45l21.53,16.05
			C57.04,205.89,57.04,207.68,55.82,208.44z"/>
		<path d="M225.62,260.8c-0.32,4.58,0.61,10.09-11.02,10.09h-91.01c-0.21,0-0.41-0.04-0.61-0.12c-2.11-0.82-14.57-6.31-24.35-25.28
			c-4.05-7.93-9.91-18.86-17.97-30.15c-0.7-0.99-0.16-2.39,1.04-2.61c0.86-0.17,1.36-0.91,1.36-1.65c0-0.49-0.21-0.99-0.67-1.33
			L28.28,169.4c-4.3-3.21-6.98-8.17-7.22-13.53c-0.74-16.44,1.93-42.16,26.4-39.51c0.06,0,0.13,0.01,0.19,0.02
			c10.77,1.9,20.33,9.83,28.44,19.99c10.22,12.82,18.17,29.18,23.4,41.53c1.01,2.35,1.91,4.56,2.7,6.57
			c2.02,5.07,3.39,8.88,4.08,10.59c0.02,0.07,0.05,0.12,0.09,0.19c4,7.08,15.1,25.13,28.49,36.3c5.35,4.46,11.05,7.82,16.82,8.95
			c1.09,0.22,2.18,0.35,3.27,0.4c9.52,0.41,14.87-0.94,17.87-2.56c0.37-0.2,0.71-0.41,1.02-0.62c2.76-1.88,6.26-2.29,9.29-0.88
			C196.48,243.09,225.85,257.25,225.62,260.8z"/>
		<path d="M225.62,260.8c-0.32,4.58,0.61,10.09-11.02,10.09h-91.01c-0.21,0-0.41-0.04-0.61-0.12c-2.11-0.82-14.57-6.31-24.35-25.28
			c-4.05-7.93-9.91-18.86-17.97-30.15c-0.7-0.99-0.16-2.39,1.04-2.61c0.86-0.17,1.36-0.91,1.36-1.65c0-0.49-0.21-0.99-0.67-1.33
			L28.28,169.4c-4.3-3.21-6.98-8.17-7.22-13.53c-0.74-16.44,1.93-42.16,26.4-39.51c0.06,0,0.13,0.01,0.19,0.02
			c10.77,1.9,20.33,9.83,28.44,19.99c10.22,12.82,18.17,29.18,23.4,41.53c1.01,2.35,1.91,4.56,2.7,6.57
			c2.02,5.07,3.39,8.88,4.08,10.59c0.02,0.07,0.05,0.12,0.09,0.19c4,7.08,15.1,25.13,28.49,36.3c5.35,4.46,11.05,7.82,16.82,8.95
			c1.09,0.22,2.18,0.35,3.27,0.4c9.52,0.41,14.87-0.94,17.87-2.56c0.37-0.2,0.71-0.41,1.02-0.62c2.76-1.88,6.26-2.29,9.29-0.88
			C196.48,243.09,225.85,257.25,225.62,260.8z"/>
	</g>
	<g>
		<path d="M134.85,231.55h-2.2c-2.76,0-5.43-0.36-7.97-1.02c-13.87-3.64-23.91-16.53-23.33-31.5c0.01-0.21,0.02-0.42,0.03-0.63
			l0.81-13.93c2.02,5.07,3.39,8.88,4.08,10.59c0.02,0.07,0.05,0.12,0.09,0.19C110.36,202.33,121.46,220.38,134.85,231.55z"/>
		<path d="M247.72,231.55h-52.39c-2.9-1.39-5.62-2.67-7.98-3.78c-2.54-1.18-5.24-1.77-8.04-1.77c-3.94,0-7.78,1.19-11.09,3.44
			c-0.05,0.03-0.1,0.07-0.16,0.1c-0.62,0.33-3.17,1.43-9.79,1.43c-0.92,0-1.89-0.02-2.87-0.06c-0.59-0.03-1.18-0.1-1.8-0.23
			c-12.08-2.36-27.85-21.64-38.25-39.84c-0.21-0.55-0.47-1.25-0.78-2.07c-1.2-3.19-3.22-8.53-5.87-14.77
			c-1.71-4.04-3.45-7.92-5.23-11.62l1.53-26.26l5.54,14.79c3.45,9.2,12.38,15.38,22.2,15.38h26.5v0.48
			c0,12.48,7.86,22.25,17.9,22.25h26.08c10.04,0,17.9-9.77,17.9-22.25v-0.48h28.27c9.83,0,18.76-6.18,22.21-15.39l4.01-10.65
			l3.38,58.15C280.03,216.39,265.73,231.55,247.72,231.55z"/>
		<path d="M273.93,113.27l-0.47-7.97c-0.42-7.17-6.36-12.78-13.55-12.78h-6.44c0-3.4-0.27-6.74-0.79-10
			c-4.81-30.23-31.06-53.41-62.62-53.41c-31.57,0-57.81,23.18-62.62,53.41c-0.52,3.26-0.79,6.6-0.79,10h-6.43
			c-7.19,0-13.14,5.61-13.56,12.78l-0.23,3.86l-0.12,2.11l13.47,35.95c2.01,5.35,7.13,8.9,12.84,8.9h116.65
			c5.72,0,10.84-3.55,12.85-8.9l11.93-31.84L273.93,113.27z M211,135.5h-41.64v-12.49H211V135.5z M136.65,92.52
			c0-3.42,0.32-6.76,0.95-10c4.69-24.69,26.43-43.41,52.46-43.41s47.77,18.72,52.46,43.41c0.63,3.24,0.95,6.58,0.95,10H136.65z"/>
		<path d="M211,166.12v0.48c0,6.77-3.54,12.25-7.9,12.25h-26.08c-4.36,0-7.9-5.48-7.9-12.25v-0.48H211z"/>
	</g>
</g>
</svg>
