<?xml version="1.0" encoding="utf-8"?>
<!-- Generator: Adobe Illustrator 23.0.1, SVG Export Plug-In . SVG Version: 6.00 Build 0)  -->
<svg version="1.1" id="Layer_1" xmlns="http://www.w3.org/2000/svg" xmlns:xlink="http://www.w3.org/1999/xlink" x="0px" y="0px"
	 viewBox="0 0 300 300" style="enable-background:new 0 0 300 300;" xml:space="preserve">
<style type="text/css">
	.st0{stroke:#000000;stroke-width:3;stroke-miterlimit:10;}
	.st1{fill:#E3E3E3;}
</style>
<g>
	<path d="M118.66,146.85v-20.64c3.61,1.25,5.83,3.9,7.02,8.25c0.32,1.18,1.4,2,2.62,2h5.34c1.61,0,2.87-1.39,2.71-2.99v-0.01
		c-0.77-7.39-5.84-15.65-17.69-17.71v-2.62c0-2.83-2.3-5.13-5.13-5.13c-1.41,0-2.7,0.58-3.63,1.5c-0.92,0.93-1.5,2.22-1.5,3.63v2.44
		c-10.84,1.58-18.2,9.3-18.2,19.5c0,12.04,8.51,16.79,18.2,19.77v23.84c-4.76-1.48-8.07-5.29-9.12-10.58
		c-0.12-0.64-0.47-1.19-0.94-1.58c-0.48-0.4-1.08-0.63-1.73-0.63H91.4c-1.62,0-2.88,1.4-2.72,3.01c0.6,5.52,2.76,10.18,6.16,13.64
		c3.39,3.48,8.02,5.76,13.56,6.57v4.72c0,2.83,2.3,5.13,5.13,5.13c1.41,0,2.7-0.58,3.63-1.5c0.92-0.93,1.5-2.22,1.5-3.63v-4.76
		c12.2-1.66,19.13-9.09,19.13-20.66C137.79,157.72,132.05,151.2,118.66,146.85z M108.4,143.66c-5.94-2.43-7.23-5.28-7.23-9.11
		c0-3.45,1.34-7.54,7.23-8.82V143.66z M118.66,178.87V158.1c6.6,2.85,8.04,6.29,8.04,10.72
		C126.7,174.52,124.19,177.71,118.66,178.87z M118.66,146.85v-20.64c3.61,1.25,5.83,3.9,7.02,8.25c0.32,1.18,1.4,2,2.62,2h5.34
		c1.61,0,2.87-1.39,2.71-2.99v-0.01c-0.77-7.39-5.84-15.65-17.69-17.71v-2.62c0-2.83-2.3-5.13-5.13-5.13c-1.41,0-2.7,0.58-3.63,1.5
		c-0.92,0.93-1.5,2.22-1.5,3.63v2.44c-10.84,1.58-18.2,9.3-18.2,19.5c0,12.04,8.51,16.79,18.2,19.77v23.84
		c-4.76-1.48-8.07-5.29-9.12-10.58c-0.12-0.64-0.47-1.19-0.94-1.58c-0.48-0.4-1.08-0.63-1.73-0.63H91.4c-1.62,0-2.88,1.4-2.72,3.01
		c0.6,5.52,2.76,10.18,6.16,13.64c3.39,3.48,8.02,5.76,13.56,6.57v4.72c0,2.83,2.3,5.13,5.13,5.13c1.41,0,2.7-0.58,3.63-1.5
		c0.92-0.93,1.5-2.22,1.5-3.63v-4.76c12.2-1.66,19.13-9.09,19.13-20.66C137.79,157.72,132.05,151.2,118.66,146.85z M108.4,143.66
		c-5.94-2.43-7.23-5.28-7.23-9.11c0-3.45,1.34-7.54,7.23-8.82V143.66z M118.66,178.87V158.1c6.6,2.85,8.04,6.29,8.04,10.72
		C126.7,174.52,124.19,177.71,118.66,178.87z M118.66,146.85v-20.64c3.61,1.25,5.83,3.9,7.02,8.25c0.32,1.18,1.4,2,2.62,2h5.34
		c1.61,0,2.87-1.39,2.71-2.99v-0.01c-0.77-7.39-5.84-15.65-17.69-17.71v-2.62c0-2.83-2.3-5.13-5.13-5.13c-1.41,0-2.7,0.58-3.63,1.5
		c-0.92,0.93-1.5,2.22-1.5,3.63v2.44c-10.84,1.58-18.2,9.3-18.2,19.5c0,12.04,8.51,16.79,18.2,19.77v23.84
		c-4.76-1.48-8.07-5.29-9.12-10.58c-0.12-0.64-0.47-1.19-0.94-1.58c-0.48-0.4-1.08-0.63-1.73-0.63H91.4c-1.62,0-2.88,1.4-2.72,3.01
		c0.6,5.52,2.76,10.18,6.16,13.64c3.39,3.48,8.02,5.76,13.56,6.57v4.72c0,2.83,2.3,5.13,5.13,5.13c1.41,0,2.7-0.58,3.63-1.5
		c0.92-0.93,1.5-2.22,1.5-3.63v-4.76c12.2-1.66,19.13-9.09,19.13-20.66C137.79,157.72,132.05,151.2,118.66,146.85z M108.4,143.66
		c-5.94-2.43-7.23-5.28-7.23-9.11c0-3.45,1.34-7.54,7.23-8.82V143.66z M118.66,178.87V158.1c6.6,2.85,8.04,6.29,8.04,10.72
		C126.7,174.52,124.19,177.71,118.66,178.87z M118.66,146.85v-20.64c3.61,1.25,5.83,3.9,7.02,8.25c0.32,1.18,1.4,2,2.62,2h5.34
		c1.61,0,2.87-1.39,2.71-2.99v-0.01c-0.77-7.39-5.84-15.65-17.69-17.71v-2.62c0-2.83-2.3-5.13-5.13-5.13c-1.41,0-2.7,0.58-3.63,1.5
		c-0.92,0.93-1.5,2.22-1.5,3.63v2.44c-10.84,1.58-18.2,9.3-18.2,19.5c0,12.04,8.51,16.79,18.2,19.77v23.84
		c-4.76-1.48-8.07-5.29-9.12-10.58c-0.12-0.64-0.47-1.19-0.94-1.58c-0.48-0.4-1.08-0.63-1.73-0.63H91.4c-1.62,0-2.88,1.4-2.72,3.01
		c0.6,5.52,2.76,10.18,6.16,13.64c3.39,3.48,8.02,5.76,13.56,6.57v4.72c0,2.83,2.3,5.13,5.13,5.13c1.41,0,2.7-0.58,3.63-1.5
		c0.92-0.93,1.5-2.22,1.5-3.63v-4.76c12.2-1.66,19.13-9.09,19.13-20.66C137.79,157.72,132.05,151.2,118.66,146.85z M108.4,143.66
		c-5.94-2.43-7.23-5.28-7.23-9.11c0-3.45,1.34-7.54,7.23-8.82V143.66z M118.66,178.87V158.1c6.6,2.85,8.04,6.29,8.04,10.72
		C126.7,174.52,124.19,177.71,118.66,178.87z M118.66,146.85v-20.64c3.61,1.25,5.83,3.9,7.02,8.25c0.32,1.18,1.4,2,2.62,2h5.34
		c1.61,0,2.87-1.39,2.71-2.99v-0.01c-0.77-7.39-5.84-15.65-17.69-17.71v-2.62c0-2.83-2.3-5.13-5.13-5.13c-1.41,0-2.7,0.58-3.63,1.5
		c-0.92,0.93-1.5,2.22-1.5,3.63v2.44c-10.84,1.58-18.2,9.3-18.2,19.5c0,12.04,8.51,16.79,18.2,19.77v23.84
		c-4.76-1.48-8.07-5.29-9.12-10.58c-0.12-0.64-0.47-1.19-0.94-1.58c-0.48-0.4-1.08-0.63-1.73-0.63H91.4c-1.62,0-2.88,1.4-2.72,3.01
		c0.6,5.52,2.76,10.18,6.16,13.64c3.39,3.48,8.02,5.76,13.56,6.57v4.72c0,2.83,2.3,5.13,5.13,5.13c1.41,0,2.7-0.58,3.63-1.5
		c0.92-0.93,1.5-2.22,1.5-3.63v-4.76c12.2-1.66,19.13-9.09,19.13-20.66C137.79,157.72,132.05,151.2,118.66,146.85z M108.4,143.66
		c-5.94-2.43-7.23-5.28-7.23-9.11c0-3.45,1.34-7.54,7.23-8.82V143.66z M118.66,178.87V158.1c6.6,2.85,8.04,6.29,8.04,10.72
		C126.7,174.52,124.19,177.71,118.66,178.87z M118.66,146.85v-20.64c3.61,1.25,5.83,3.9,7.02,8.25c0.32,1.18,1.4,2,2.62,2h5.34
		c1.61,0,2.87-1.39,2.71-2.99v-0.01c-0.77-7.39-5.84-15.65-17.69-17.71v-2.62c0-2.83-2.3-5.13-5.13-5.13c-1.41,0-2.7,0.58-3.63,1.5
		c-0.92,0.93-1.5,2.22-1.5,3.63v2.44c-10.84,1.58-18.2,9.3-18.2,19.5c0,12.04,8.51,16.79,18.2,19.77v23.84
		c-4.76-1.48-8.07-5.29-9.12-10.58c-0.12-0.64-0.47-1.19-0.94-1.58c-0.48-0.4-1.08-0.63-1.73-0.63H91.4c-1.62,0-2.88,1.4-2.72,3.01
		c0.6,5.52,2.76,10.18,6.16,13.64c3.39,3.48,8.02,5.76,13.56,6.57v4.72c0,2.83,2.3,5.13,5.13,5.13c1.41,0,2.7-0.58,3.63-1.5
		c0.92-0.93,1.5-2.22,1.5-3.63v-4.76c12.2-1.66,19.13-9.09,19.13-20.66C137.79,157.72,132.05,151.2,118.66,146.85z M108.4,143.66
		c-5.94-2.43-7.23-5.28-7.23-9.11c0-3.45,1.34-7.54,7.23-8.82V143.66z M118.66,178.87V158.1c6.6,2.85,8.04,6.29,8.04,10.72
		C126.7,174.52,124.19,177.71,118.66,178.87z M118.66,146.85v-20.64c3.61,1.25,5.83,3.9,7.02,8.25c0.32,1.18,1.4,2,2.62,2h5.34
		c1.61,0,2.87-1.39,2.71-2.99v-0.01c-0.77-7.39-5.84-15.65-17.69-17.71v-2.62c0-2.83-2.3-5.13-5.13-5.13c-1.41,0-2.7,0.58-3.63,1.5
		c-0.92,0.93-1.5,2.22-1.5,3.63v2.44c-10.84,1.58-18.2,9.3-18.2,19.5c0,12.04,8.51,16.79,18.2,19.77v23.84
		c-4.76-1.48-8.07-5.29-9.12-10.58c-0.12-0.64-0.47-1.19-0.94-1.58c-0.48-0.4-1.08-0.63-1.73-0.63H91.4c-1.62,0-2.88,1.4-2.72,3.01
		c0.6,5.52,2.76,10.18,6.16,13.64c3.39,3.48,8.02,5.76,13.56,6.57v4.72c0,2.83,2.3,5.13,5.13,5.13c1.41,0,2.7-0.58,3.63-1.5
		c0.92-0.93,1.5-2.22,1.5-3.63v-4.76c12.2-1.66,19.13-9.09,19.13-20.66C137.79,157.72,132.05,151.2,118.66,146.85z M108.4,143.66
		c-5.94-2.43-7.23-5.28-7.23-9.11c0-3.45,1.34-7.54,7.23-8.82V143.66z M118.66,178.87V158.1c6.6,2.85,8.04,6.29,8.04,10.72
		C126.7,174.52,124.19,177.71,118.66,178.87z M118.66,146.85v-20.64c3.61,1.25,5.83,3.9,7.02,8.25c0.32,1.18,1.4,2,2.62,2h5.34
		c1.61,0,2.87-1.39,2.71-2.99v-0.01c-0.77-7.39-5.84-15.65-17.69-17.71v-2.62c0-2.83-2.3-5.13-5.13-5.13c-1.41,0-2.7,0.58-3.63,1.5
		c-0.92,0.93-1.5,2.22-1.5,3.63v2.44c-10.84,1.58-18.2,9.3-18.2,19.5c0,12.04,8.51,16.79,18.2,19.77v23.84
		c-4.76-1.48-8.07-5.29-9.12-10.58c-0.12-0.64-0.47-1.19-0.94-1.58c-0.48-0.4-1.08-0.63-1.73-0.63H91.4c-1.62,0-2.88,1.4-2.72,3.01
		c0.6,5.52,2.76,10.18,6.16,13.64c3.39,3.48,8.02,5.76,13.56,6.57v4.72c0,2.83,2.3,5.13,5.13,5.13c1.41,0,2.7-0.58,3.63-1.5
		c0.92-0.93,1.5-2.22,1.5-3.63v-4.76c12.2-1.66,19.13-9.09,19.13-20.66C137.79,157.72,132.05,151.2,118.66,146.85z M108.4,143.66
		c-5.94-2.43-7.23-5.28-7.23-9.11c0-3.45,1.34-7.54,7.23-8.82V143.66z M118.66,178.87V158.1c6.6,2.85,8.04,6.29,8.04,10.72
		C126.7,174.52,124.19,177.71,118.66,178.87z M118.66,146.85v-20.64c3.61,1.25,5.83,3.9,7.02,8.25c0.32,1.18,1.4,2,2.62,2h5.34
		c1.61,0,2.87-1.39,2.71-2.99v-0.01c-0.77-7.39-5.84-15.65-17.69-17.71v-2.62c0-2.83-2.3-5.13-5.13-5.13c-1.41,0-2.7,0.58-3.63,1.5
		c-0.92,0.93-1.5,2.22-1.5,3.63v2.44c-10.84,1.58-18.2,9.3-18.2,19.5c0,12.04,8.51,16.79,18.2,19.77v23.84
		c-4.76-1.48-8.07-5.29-9.12-10.58c-0.12-0.64-0.47-1.19-0.94-1.58c-0.48-0.4-1.08-0.63-1.73-0.63H91.4c-1.62,0-2.88,1.4-2.72,3.01
		c0.6,5.52,2.76,10.18,6.16,13.64c3.39,3.48,8.02,5.76,13.56,6.57v4.72c0,2.83,2.3,5.13,5.13,5.13c1.41,0,2.7-0.58,3.63-1.5
		c0.92-0.93,1.5-2.22,1.5-3.63v-4.76c12.2-1.66,19.13-9.09,19.13-20.66C137.79,157.72,132.05,151.2,118.66,146.85z M108.4,143.66
		c-5.94-2.43-7.23-5.28-7.23-9.11c0-3.45,1.34-7.54,7.23-8.82V143.66z M118.66,178.87V158.1c6.6,2.85,8.04,6.29,8.04,10.72
		C126.7,174.52,124.19,177.71,118.66,178.87z M118.66,146.85v-20.64c3.61,1.25,5.83,3.9,7.02,8.25c0.32,1.18,1.4,2,2.62,2h5.34
		c1.61,0,2.87-1.39,2.71-2.99v-0.01c-0.77-7.39-5.84-15.65-17.69-17.71v-2.62c0-2.83-2.3-5.13-5.13-5.13c-1.41,0-2.7,0.58-3.63,1.5
		c-0.92,0.93-1.5,2.22-1.5,3.63v2.44c-10.84,1.58-18.2,9.3-18.2,19.5c0,12.04,8.51,16.79,18.2,19.77v23.84
		c-4.76-1.48-8.07-5.29-9.12-10.58c-0.12-0.64-0.47-1.19-0.94-1.58c-0.48-0.4-1.08-0.63-1.73-0.63H91.4c-1.62,0-2.88,1.4-2.72,3.01
		c0.6,5.52,2.76,10.18,6.16,13.64c3.39,3.48,8.02,5.76,13.56,6.57v4.72c0,2.83,2.3,5.13,5.13,5.13c1.41,0,2.7-0.58,3.63-1.5
		c0.92-0.93,1.5-2.22,1.5-3.63v-4.76c12.2-1.66,19.13-9.09,19.13-20.66C137.79,157.72,132.05,151.2,118.66,146.85z M108.4,143.66
		c-5.94-2.43-7.23-5.28-7.23-9.11c0-3.45,1.34-7.54,7.23-8.82V143.66z M118.66,178.87V158.1c6.6,2.85,8.04,6.29,8.04,10.72
		C126.7,174.52,124.19,177.71,118.66,178.87z M118.66,146.85v-20.64c3.61,1.25,5.83,3.9,7.02,8.25c0.32,1.18,1.4,2,2.62,2h5.34
		c1.61,0,2.87-1.39,2.71-2.99v-0.01c-0.77-7.39-5.84-15.65-17.69-17.71v-2.62c0-2.83-2.3-5.13-5.13-5.13c-1.41,0-2.7,0.58-3.63,1.5
		c-0.92,0.93-1.5,2.22-1.5,3.63v2.44c-10.84,1.58-18.2,9.3-18.2,19.5c0,12.04,8.51,16.79,18.2,19.77v23.84
		c-4.76-1.48-8.07-5.29-9.12-10.58c-0.12-0.64-0.47-1.19-0.94-1.58c-0.48-0.4-1.08-0.63-1.73-0.63H91.4c-1.62,0-2.88,1.4-2.72,3.01
		c0.6,5.52,2.76,10.18,6.16,13.64c3.39,3.48,8.02,5.76,13.56,6.57v4.72c0,2.83,2.3,5.13,5.13,5.13c1.41,0,2.7-0.58,3.63-1.5
		c0.92-0.93,1.5-2.22,1.5-3.63v-4.76c12.2-1.66,19.13-9.09,19.13-20.66C137.79,157.72,132.05,151.2,118.66,146.85z M108.4,143.66
		c-5.94-2.43-7.23-5.28-7.23-9.11c0-3.45,1.34-7.54,7.23-8.82V143.66z M118.66,178.87V158.1c6.6,2.85,8.04,6.29,8.04,10.72
		C126.7,174.52,124.19,177.71,118.66,178.87z M118.66,146.85v-20.64c3.61,1.25,5.83,3.9,7.02,8.25c0.32,1.18,1.4,2,2.62,2h5.34
		c1.61,0,2.87-1.39,2.71-2.99v-0.01c-0.77-7.39-5.84-15.65-17.69-17.71v-2.62c0-2.83-2.3-5.13-5.13-5.13c-1.41,0-2.7,0.58-3.63,1.5
		c-0.92,0.93-1.5,2.22-1.5,3.63v2.44c-10.84,1.58-18.2,9.3-18.2,19.5c0,12.04,8.51,16.79,18.2,19.77v23.84
		c-4.76-1.48-8.07-5.29-9.12-10.58c-0.12-0.64-0.47-1.19-0.94-1.58c-0.48-0.4-1.08-0.63-1.73-0.63H91.4c-1.62,0-2.88,1.4-2.72,3.01
		c0.6,5.52,2.76,10.18,6.16,13.64c3.39,3.48,8.02,5.76,13.56,6.57v4.72c0,2.83,2.3,5.13,5.13,5.13c1.41,0,2.7-0.58,3.63-1.5
		c0.92-0.93,1.5-2.22,1.5-3.63v-4.76c12.2-1.66,19.13-9.09,19.13-20.66C137.79,157.72,132.05,151.2,118.66,146.85z M108.4,143.66
		c-5.94-2.43-7.23-5.28-7.23-9.11c0-3.45,1.34-7.54,7.23-8.82V143.66z M118.66,178.87V158.1c6.6,2.85,8.04,6.29,8.04,10.72
		C126.7,174.52,124.19,177.71,118.66,178.87z M118.66,146.85v-20.64c3.61,1.25,5.83,3.9,7.02,8.25c0.32,1.18,1.4,2,2.62,2h5.34
		c1.61,0,2.87-1.39,2.71-2.99v-0.01c-0.77-7.39-5.84-15.65-17.69-17.71v-2.62c0-2.83-2.3-5.13-5.13-5.13c-1.41,0-2.7,0.58-3.63,1.5
		c-0.92,0.93-1.5,2.22-1.5,3.63v2.44c-10.84,1.58-18.2,9.3-18.2,19.5c0,12.04,8.51,16.79,18.2,19.77v23.84
		c-4.76-1.48-8.07-5.29-9.12-10.58c-0.12-0.64-0.47-1.19-0.94-1.58c-0.48-0.4-1.08-0.63-1.73-0.63H91.4c-1.62,0-2.88,1.4-2.72,3.01
		c0.6,5.52,2.76,10.18,6.16,13.64c3.39,3.48,8.02,5.76,13.56,6.57v4.72c0,2.83,2.3,5.13,5.13,5.13c1.41,0,2.7-0.58,3.63-1.5
		c0.92-0.93,1.5-2.22,1.5-3.63v-4.76c12.2-1.66,19.13-9.09,19.13-20.66C137.79,157.72,132.05,151.2,118.66,146.85z M108.4,143.66
		c-5.94-2.43-7.23-5.28-7.23-9.11c0-3.45,1.34-7.54,7.23-8.82V143.66z M118.66,178.87V158.1c6.6,2.85,8.04,6.29,8.04,10.72
		C126.7,174.52,124.19,177.71,118.66,178.87z M118.66,146.85v-20.64c3.61,1.25,5.83,3.9,7.02,8.25c0.32,1.18,1.4,2,2.62,2h5.34
		c1.61,0,2.87-1.39,2.71-2.99v-0.01c-0.77-7.39-5.84-15.65-17.69-17.71v-2.62c0-2.83-2.3-5.13-5.13-5.13c-1.41,0-2.7,0.58-3.63,1.5
		c-0.92,0.93-1.5,2.22-1.5,3.63v2.44c-10.84,1.58-18.2,9.3-18.2,19.5c0,12.04,8.51,16.79,18.2,19.77v23.84
		c-4.76-1.48-8.07-5.29-9.12-10.58c-0.12-0.64-0.47-1.19-0.94-1.58c-0.48-0.4-1.08-0.63-1.73-0.63H91.4c-1.62,0-2.88,1.4-2.72,3.01
		c0.6,5.52,2.76,10.18,6.16,13.64c3.39,3.48,8.02,5.76,13.56,6.57v4.72c0,2.83,2.3,5.13,5.13,5.13c1.41,0,2.7-0.58,3.63-1.5
		c0.92-0.93,1.5-2.22,1.5-3.63v-4.76c12.2-1.66,19.13-9.09,19.13-20.66C137.79,157.72,132.05,151.2,118.66,146.85z M108.4,143.66
		c-5.94-2.43-7.23-5.28-7.23-9.11c0-3.45,1.34-7.54,7.23-8.82V143.66z M118.66,178.87V158.1c6.6,2.85,8.04,6.29,8.04,10.72
		C126.7,174.52,124.19,177.71,118.66,178.87z M118.66,146.85v-20.64c3.61,1.25,5.83,3.9,7.02,8.25c0.32,1.18,1.4,2,2.62,2h5.34
		c1.61,0,2.87-1.39,2.71-2.99v-0.01c-0.77-7.39-5.84-15.65-17.69-17.71v-2.62c0-2.83-2.3-5.13-5.13-5.13c-1.41,0-2.7,0.58-3.63,1.5
		c-0.92,0.93-1.5,2.22-1.5,3.63v2.44c-10.84,1.58-18.2,9.3-18.2,19.5c0,12.04,8.51,16.79,18.2,19.77v23.84
		c-4.76-1.48-8.07-5.29-9.12-10.58c-0.12-0.64-0.47-1.19-0.94-1.58c-0.48-0.4-1.08-0.63-1.73-0.63H91.4c-1.62,0-2.88,1.4-2.72,3.01
		c0.6,5.52,2.76,10.18,6.16,13.64c3.39,3.48,8.02,5.76,13.56,6.57v4.72c0,2.83,2.3,5.13,5.13,5.13c1.41,0,2.7-0.58,3.63-1.5
		c0.92-0.93,1.5-2.22,1.5-3.63v-4.76c12.2-1.66,19.13-9.09,19.13-20.66C137.79,157.72,132.05,151.2,118.66,146.85z M108.4,143.66
		c-5.94-2.43-7.23-5.28-7.23-9.11c0-3.45,1.34-7.54,7.23-8.82V143.66z M118.66,178.87V158.1c6.6,2.85,8.04,6.29,8.04,10.72
		C126.7,174.52,124.19,177.71,118.66,178.87z M118.66,146.85v-20.64c3.61,1.25,5.83,3.9,7.02,8.25c0.32,1.18,1.4,2,2.62,2h5.34
		c1.61,0,2.87-1.39,2.71-2.99v-0.01c-0.77-7.39-5.84-15.65-17.69-17.71v-2.62c0-2.83-2.3-5.13-5.13-5.13c-1.41,0-2.7,0.58-3.63,1.5
		c-0.92,0.93-1.5,2.22-1.5,3.63v2.44c-10.84,1.58-18.2,9.3-18.2,19.5c0,12.04,8.51,16.79,18.2,19.77v23.84
		c-4.76-1.48-8.07-5.29-9.12-10.58c-0.12-0.64-0.47-1.19-0.94-1.58c-0.48-0.4-1.08-0.63-1.73-0.63H91.4c-1.62,0-2.88,1.4-2.72,3.01
		c0.6,5.52,2.76,10.18,6.16,13.64c3.39,3.48,8.02,5.76,13.56,6.57v4.72c0,2.83,2.3,5.13,5.13,5.13c1.41,0,2.7-0.58,3.63-1.5
		c0.92-0.93,1.5-2.22,1.5-3.63v-4.76c12.2-1.66,19.13-9.09,19.13-20.66C137.79,157.72,132.05,151.2,118.66,146.85z M108.4,143.66
		c-5.94-2.43-7.23-5.28-7.23-9.11c0-3.45,1.34-7.54,7.23-8.82V143.66z M118.66,178.87V158.1c6.6,2.85,8.04,6.29,8.04,10.72
		C126.7,174.52,124.19,177.71,118.66,178.87z M228.91,60H65.09c-3.31,0-6.48,0.62-9.39,1.75C45.93,65.51,39,74.99,39,86.09v90.93
		c0,0.94,0.04,1.89,0.11,2.84c0.03,0.45,0.07,0.9,0.12,1.35c0.16,1.44,0.4,2.87,0.7,4.29c0.1,0.47,0.21,0.93,0.33,1.39
		c0.11,0.45,0.23,0.9,0.36,1.35c0.01,0.02,0.01,0.03,0.01,0.04c0.26,0.88,0.53,1.74,0.84,2.59c0.02,0.05,0.03,0.1,0.05,0.15
		c0.16,0.43,0.32,0.85,0.48,1.27c0.14,0.35,0.28,0.69,0.43,1.02c0.41,1,0.87,1.98,1.37,2.93c0.15,0.29,0.31,0.58,0.47,0.87
		c0.26,0.49,0.54,0.98,0.84,1.46c0.06,0.12,0.14,0.24,0.21,0.36c3.34,5.41,7.76,9.61,12.59,11.47l122.22,47.12
		c10.42,4.02,18.87-4.39,18.87-18.78v-95.7c0-14.39-8.45-29.33-18.87-33.36L142,94.94l-12.85-4.97l-0.02-0.01
		c-0.93-0.37-1.7-1.02-2.25-1.81c-0.56-0.81-0.88-1.79-0.88-2.83c0-3.51,3.53-5.93,6.8-4.66l50.94,19.7
		c14.4,5.56,25.26,23.91,25.26,42.68V203c0,2.17,1.38,4.01,3.31,4.71v-9.85c-0.08-0.57-0.12-1.15-0.12-1.73V152h0.12
		c0-2.07,0.52-4.08,1.53-5.96c1.48-2.79,4.01-5.29,7.41-7.23c2.9-1.67,5.78-2.9,8.75-3.72c3.56-1.06,6.83-1.76,10-2.13
		c2.74-0.39,5.74-0.57,9.42-0.57c3.63,0,7.17,0.25,10.58,0.77V91.09C260,73.92,246.08,60,228.91,60z M182,167c0-2.76,2.24-5,5-5
		s5,2.24,5,5v31c0,2.76-2.24,5-5,5s-5-2.24-5-5V167z M127.76,107.98c12.01,4.88,17.47,15.4,18.49,24.08l0.01,0.05l0.04,0.37
		c0.35,3.57-0.82,7.14-3.23,9.8c-1.44,1.58-3.24,2.77-5.22,3.46c5.42,4.69,9.94,11.81,9.94,22.67c0,13.65-7.26,24.02-19.45,28.53
		c-1.44,6.85-7.53,12.02-14.81,12.02c-7.31,0-13.43-5.22-14.83-12.12c-11.18-4.42-18.59-14.16-19.96-26.87
		c-0.38-3.61,0.79-7.2,3.2-9.87c1.93-2.14,4.52-3.55,7.32-4.03c-4.99-4.42-9.06-11.03-9.06-21c0-12.48,7.61-22.95,19.23-27.44
		c2.21-5.63,7.69-9.63,14.1-9.63C120.07,98,125.65,102.17,127.76,107.98z M118.66,113.13c0-2.83-2.3-5.13-5.13-5.13
		c-1.41,0-2.7,0.58-3.63,1.5c-0.92,0.93-1.5,2.22-1.5,3.63v2.44c-10.84,1.58-18.2,9.3-18.2,19.5c0,12.04,8.51,16.79,18.2,19.77
		v23.84c-4.76-1.48-8.07-5.29-9.12-10.58c-0.12-0.64-0.47-1.19-0.94-1.58c-0.48-0.4-1.08-0.63-1.73-0.63H91.4
		c-1.62,0-2.88,1.4-2.72,3.01c0.6,5.52,2.76,10.18,6.16,13.64c3.39,3.48,8.02,5.76,13.56,6.57v4.72c0,2.83,2.3,5.13,5.13,5.13
		c1.41,0,2.7-0.58,3.63-1.5c0.92-0.93,1.5-2.22,1.5-3.63v-4.76c12.2-1.66,19.13-9.09,19.13-20.66c0-10.69-5.74-17.21-19.13-21.56
		v-20.64c3.61,1.25,5.83,3.9,7.02,8.25c0.32,1.18,1.4,2,2.62,2h5.34c1.61,0,2.87-1.39,2.71-2.99v-0.01
		c-0.77-7.39-5.84-15.65-17.69-17.71V113.13z M108.4,143.66c-5.94-2.43-7.23-5.28-7.23-9.11c0-3.45,1.34-7.54,7.23-8.82V143.66z
		 M126.7,168.82c0,5.7-2.51,8.89-8.04,10.05V158.1C125.26,160.95,126.7,164.39,126.7,168.82z M118.66,146.85v-20.64
		c3.61,1.25,5.83,3.9,7.02,8.25c0.32,1.18,1.4,2,2.62,2h5.34c1.61,0,2.87-1.39,2.71-2.99v-0.01c-0.77-7.39-5.84-15.65-17.69-17.71
		v-2.62c0-2.83-2.3-5.13-5.13-5.13c-1.41,0-2.7,0.58-3.63,1.5c-0.92,0.93-1.5,2.22-1.5,3.63v2.44c-10.84,1.58-18.2,9.3-18.2,19.5
		c0,12.04,8.51,16.79,18.2,19.77v23.84c-4.76-1.48-8.07-5.29-9.12-10.58c-0.12-0.64-0.47-1.19-0.94-1.58
		c-0.48-0.4-1.08-0.63-1.73-0.63H91.4c-1.62,0-2.88,1.4-2.72,3.01c0.6,5.52,2.76,10.18,6.16,13.64c3.39,3.48,8.02,5.76,13.56,6.57
		v4.72c0,2.83,2.3,5.13,5.13,5.13c1.41,0,2.7-0.58,3.63-1.5c0.92-0.93,1.5-2.22,1.5-3.63v-4.76c12.2-1.66,19.13-9.09,19.13-20.66
		C137.79,157.72,132.05,151.2,118.66,146.85z M108.4,143.66c-5.94-2.43-7.23-5.28-7.23-9.11c0-3.45,1.34-7.54,7.23-8.82V143.66z
		 M118.66,178.87V158.1c6.6,2.85,8.04,6.29,8.04,10.72C126.7,174.52,124.19,177.71,118.66,178.87z M118.66,146.85v-20.64
		c3.61,1.25,5.83,3.9,7.02,8.25c0.32,1.18,1.4,2,2.62,2h5.34c1.61,0,2.87-1.39,2.71-2.99v-0.01c-0.77-7.39-5.84-15.65-17.69-17.71
		v-2.62c0-2.83-2.3-5.13-5.13-5.13c-1.41,0-2.7,0.58-3.63,1.5c-0.92,0.93-1.5,2.22-1.5,3.63v2.44c-10.84,1.58-18.2,9.3-18.2,19.5
		c0,12.04,8.51,16.79,18.2,19.77v23.84c-4.76-1.48-8.07-5.29-9.12-10.58c-0.12-0.64-0.47-1.19-0.94-1.58
		c-0.48-0.4-1.08-0.63-1.73-0.63H91.4c-1.62,0-2.88,1.4-2.72,3.01c0.6,5.52,2.76,10.18,6.16,13.64c3.39,3.48,8.02,5.76,13.56,6.57
		v4.72c0,2.83,2.3,5.13,5.13,5.13c1.41,0,2.7-0.58,3.63-1.5c0.92-0.93,1.5-2.22,1.5-3.63v-4.76c12.2-1.66,19.13-9.09,19.13-20.66
		C137.79,157.72,132.05,151.2,118.66,146.85z M108.4,143.66c-5.94-2.43-7.23-5.28-7.23-9.11c0-3.45,1.34-7.54,7.23-8.82V143.66z
		 M118.66,178.87V158.1c6.6,2.85,8.04,6.29,8.04,10.72C126.7,174.52,124.19,177.71,118.66,178.87z M118.66,146.85v-20.64
		c3.61,1.25,5.83,3.9,7.02,8.25c0.32,1.18,1.4,2,2.62,2h5.34c1.61,0,2.87-1.39,2.71-2.99v-0.01c-0.77-7.39-5.84-15.65-17.69-17.71
		v-2.62c0-2.83-2.3-5.13-5.13-5.13c-1.41,0-2.7,0.58-3.63,1.5c-0.92,0.93-1.5,2.22-1.5,3.63v2.44c-10.84,1.58-18.2,9.3-18.2,19.5
		c0,12.04,8.51,16.79,18.2,19.77v23.84c-4.76-1.48-8.07-5.29-9.12-10.58c-0.12-0.64-0.47-1.19-0.94-1.58
		c-0.48-0.4-1.08-0.63-1.73-0.63H91.4c-1.62,0-2.88,1.4-2.72,3.01c0.6,5.52,2.76,10.18,6.16,13.64c3.39,3.48,8.02,5.76,13.56,6.57
		v4.72c0,2.83,2.3,5.13,5.13,5.13c1.41,0,2.7-0.58,3.63-1.5c0.92-0.93,1.5-2.22,1.5-3.63v-4.76c12.2-1.66,19.13-9.09,19.13-20.66
		C137.79,157.72,132.05,151.2,118.66,146.85z M108.4,143.66c-5.94-2.43-7.23-5.28-7.23-9.11c0-3.45,1.34-7.54,7.23-8.82V143.66z
		 M118.66,178.87V158.1c6.6,2.85,8.04,6.29,8.04,10.72C126.7,174.52,124.19,177.71,118.66,178.87z M118.66,146.85v-20.64
		c3.61,1.25,5.83,3.9,7.02,8.25c0.32,1.18,1.4,2,2.62,2h5.34c1.61,0,2.87-1.39,2.71-2.99v-0.01c-0.77-7.39-5.84-15.65-17.69-17.71
		v-2.62c0-2.83-2.3-5.13-5.13-5.13c-1.41,0-2.7,0.58-3.63,1.5c-0.92,0.93-1.5,2.22-1.5,3.63v2.44c-10.84,1.58-18.2,9.3-18.2,19.5
		c0,12.04,8.51,16.79,18.2,19.77v23.84c-4.76-1.48-8.07-5.29-9.12-10.58c-0.12-0.64-0.47-1.19-0.94-1.58
		c-0.48-0.4-1.08-0.63-1.73-0.63H91.4c-1.62,0-2.88,1.4-2.72,3.01c0.6,5.52,2.76,10.18,6.16,13.64c3.39,3.48,8.02,5.76,13.56,6.57
		v4.72c0,2.83,2.3,5.13,5.13,5.13c1.41,0,2.7-0.58,3.63-1.5c0.92-0.93,1.5-2.22,1.5-3.63v-4.76c12.2-1.66,19.13-9.09,19.13-20.66
		C137.79,157.72,132.05,151.2,118.66,146.85z M108.4,143.66c-5.94-2.43-7.23-5.28-7.23-9.11c0-3.45,1.34-7.54,7.23-8.82V143.66z
		 M118.66,178.87V158.1c6.6,2.85,8.04,6.29,8.04,10.72C126.7,174.52,124.19,177.71,118.66,178.87z M118.66,146.85v-20.64
		c3.61,1.25,5.83,3.9,7.02,8.25c0.32,1.18,1.4,2,2.62,2h5.34c1.61,0,2.87-1.39,2.71-2.99v-0.01c-0.77-7.39-5.84-15.65-17.69-17.71
		v-2.62c0-2.83-2.3-5.13-5.13-5.13c-1.41,0-2.7,0.58-3.63,1.5c-0.92,0.93-1.5,2.22-1.5,3.63v2.44c-10.84,1.58-18.2,9.3-18.2,19.5
		c0,12.04,8.51,16.79,18.2,19.77v23.84c-4.76-1.48-8.07-5.29-9.12-10.58c-0.12-0.64-0.47-1.19-0.94-1.58
		c-0.48-0.4-1.08-0.63-1.73-0.63H91.4c-1.62,0-2.88,1.4-2.72,3.01c0.6,5.52,2.76,10.18,6.16,13.64c3.39,3.48,8.02,5.76,13.56,6.57
		v4.72c0,2.83,2.3,5.13,5.13,5.13c1.41,0,2.7-0.58,3.63-1.5c0.92-0.93,1.5-2.22,1.5-3.63v-4.76c12.2-1.66,19.13-9.09,19.13-20.66
		C137.79,157.72,132.05,151.2,118.66,146.85z M108.4,143.66c-5.94-2.43-7.23-5.28-7.23-9.11c0-3.45,1.34-7.54,7.23-8.82V143.66z
		 M118.66,178.87V158.1c6.6,2.85,8.04,6.29,8.04,10.72C126.7,174.52,124.19,177.71,118.66,178.87z M118.66,146.85v-20.64
		c3.61,1.25,5.83,3.9,7.02,8.25c0.32,1.18,1.4,2,2.62,2h5.34c1.61,0,2.87-1.39,2.71-2.99v-0.01c-0.77-7.39-5.84-15.65-17.69-17.71
		v-2.62c0-2.83-2.3-5.13-5.13-5.13c-1.41,0-2.7,0.58-3.63,1.5c-0.92,0.93-1.5,2.22-1.5,3.63v2.44c-10.84,1.58-18.2,9.3-18.2,19.5
		c0,12.04,8.51,16.79,18.2,19.77v23.84c-4.76-1.48-8.07-5.29-9.12-10.58c-0.12-0.64-0.47-1.19-0.94-1.58
		c-0.48-0.4-1.08-0.63-1.73-0.63H91.4c-1.62,0-2.88,1.4-2.72,3.01c0.6,5.52,2.76,10.18,6.16,13.64c3.39,3.48,8.02,5.76,13.56,6.57
		v4.72c0,2.83,2.3,5.13,5.13,5.13c1.41,0,2.7-0.58,3.63-1.5c0.92-0.93,1.5-2.22,1.5-3.63v-4.76c12.2-1.66,19.13-9.09,19.13-20.66
		C137.79,157.72,132.05,151.2,118.66,146.85z M108.4,143.66c-5.94-2.43-7.23-5.28-7.23-9.11c0-3.45,1.34-7.54,7.23-8.82V143.66z
		 M118.66,178.87V158.1c6.6,2.85,8.04,6.29,8.04,10.72C126.7,174.52,124.19,177.71,118.66,178.87z M118.66,146.85v-20.64
		c3.61,1.25,5.83,3.9,7.02,8.25c0.32,1.18,1.4,2,2.62,2h5.34c1.61,0,2.87-1.39,2.71-2.99v-0.01c-0.77-7.39-5.84-15.65-17.69-17.71
		v-2.62c0-2.83-2.3-5.13-5.13-5.13c-1.41,0-2.7,0.58-3.63,1.5c-0.92,0.93-1.5,2.22-1.5,3.63v2.44c-10.84,1.58-18.2,9.3-18.2,19.5
		c0,12.04,8.51,16.79,18.2,19.77v23.84c-4.76-1.48-8.07-5.29-9.12-10.58c-0.12-0.64-0.47-1.19-0.94-1.58
		c-0.48-0.4-1.08-0.63-1.73-0.63H91.4c-1.62,0-2.88,1.4-2.72,3.01c0.6,5.52,2.76,10.18,6.16,13.64c3.39,3.48,8.02,5.76,13.56,6.57
		v4.72c0,2.83,2.3,5.13,5.13,5.13c1.41,0,2.7-0.58,3.63-1.5c0.92-0.93,1.5-2.22,1.5-3.63v-4.76c12.2-1.66,19.13-9.09,19.13-20.66
		C137.79,157.72,132.05,151.2,118.66,146.85z M108.4,143.66c-5.94-2.43-7.23-5.28-7.23-9.11c0-3.45,1.34-7.54,7.23-8.82V143.66z
		 M118.66,178.87V158.1c6.6,2.85,8.04,6.29,8.04,10.72C126.7,174.52,124.19,177.71,118.66,178.87z M118.66,146.85v-20.64
		c3.61,1.25,5.83,3.9,7.02,8.25c0.32,1.18,1.4,2,2.62,2h5.34c1.61,0,2.87-1.39,2.71-2.99v-0.01c-0.77-7.39-5.84-15.65-17.69-17.71
		v-2.62c0-2.83-2.3-5.13-5.13-5.13c-1.41,0-2.7,0.58-3.63,1.5c-0.92,0.93-1.5,2.22-1.5,3.63v2.44c-10.84,1.58-18.2,9.3-18.2,19.5
		c0,12.04,8.51,16.79,18.2,19.77v23.84c-4.76-1.48-8.07-5.29-9.12-10.58c-0.12-0.64-0.47-1.19-0.94-1.58
		c-0.48-0.4-1.08-0.63-1.73-0.63H91.4c-1.62,0-2.88,1.4-2.72,3.01c0.6,5.52,2.76,10.18,6.16,13.64c3.39,3.48,8.02,5.76,13.56,6.57
		v4.72c0,2.83,2.3,5.13,5.13,5.13c1.41,0,2.7-0.58,3.63-1.5c0.92-0.93,1.5-2.22,1.5-3.63v-4.76c12.2-1.66,19.13-9.09,19.13-20.66
		C137.79,157.72,132.05,151.2,118.66,146.85z M108.4,143.66c-5.94-2.43-7.23-5.28-7.23-9.11c0-3.45,1.34-7.54,7.23-8.82V143.66z
		 M118.66,178.87V158.1c6.6,2.85,8.04,6.29,8.04,10.72C126.7,174.52,124.19,177.71,118.66,178.87z"/>
</g>
<g>
	<g>
		<path d="M118.66,146.85v-20.64c3.61,1.25,5.83,3.9,7.02,8.25c0.32,1.18,1.4,2,2.62,2h5.34c1.61,0,2.87-1.39,2.71-2.99v-0.01
			c-0.77-7.39-5.84-15.65-17.69-17.71v-2.62c0-2.83-2.3-5.13-5.13-5.13c-1.41,0-2.7,0.58-3.63,1.5c-0.92,0.93-1.5,2.22-1.5,3.63
			v2.44c-10.84,1.58-18.2,9.3-18.2,19.5c0,12.04,8.51,16.79,18.2,19.77v23.84c-4.76-1.48-8.07-5.29-9.12-10.58
			c-0.12-0.64-0.47-1.19-0.94-1.58c-0.48-0.4-1.08-0.63-1.73-0.63H91.4c-1.62,0-2.88,1.4-2.72,3.01c0.6,5.52,2.76,10.18,6.16,13.64
			c3.39,3.48,8.02,5.76,13.56,6.57v4.72c0,2.83,2.3,5.13,5.13,5.13c1.41,0,2.7-0.58,3.63-1.5c0.92-0.93,1.5-2.22,1.5-3.63v-4.76
			c12.2-1.66,19.13-9.09,19.13-20.66C137.79,157.72,132.05,151.2,118.66,146.85z M108.4,143.66c-5.94-2.43-7.23-5.28-7.23-9.11
			c0-3.45,1.34-7.54,7.23-8.82V143.66z M118.66,178.87V158.1c6.6,2.85,8.04,6.29,8.04,10.72
			C126.7,174.52,124.19,177.71,118.66,178.87z"/>
		<path d="M118.66,146.85v-20.64c3.61,1.25,5.83,3.9,7.02,8.25c0.32,1.18,1.4,2,2.62,2h5.34c1.61,0,2.87-1.39,2.71-2.99v-0.01
			c-0.77-7.39-5.84-15.65-17.69-17.71v-2.62c0-2.83-2.3-5.13-5.13-5.13c-1.41,0-2.7,0.58-3.63,1.5c-0.92,0.93-1.5,2.22-1.5,3.63
			v2.44c-10.84,1.58-18.2,9.3-18.2,19.5c0,12.04,8.51,16.79,18.2,19.77v23.84c-4.76-1.48-8.07-5.29-9.12-10.58
			c-0.12-0.64-0.47-1.19-0.94-1.58c-0.48-0.4-1.08-0.63-1.73-0.63H91.4c-1.62,0-2.88,1.4-2.72,3.01c0.6,5.52,2.76,10.18,6.16,13.64
			c3.39,3.48,8.02,5.76,13.56,6.57v4.72c0,2.83,2.3,5.13,5.13,5.13c1.41,0,2.7-0.58,3.63-1.5c0.92-0.93,1.5-2.22,1.5-3.63v-4.76
			c12.2-1.66,19.13-9.09,19.13-20.66C137.79,157.72,132.05,151.2,118.66,146.85z M108.4,143.66c-5.94-2.43-7.23-5.28-7.23-9.11
			c0-3.45,1.34-7.54,7.23-8.82V143.66z M118.66,178.87V158.1c6.6,2.85,8.04,6.29,8.04,10.72
			C126.7,174.52,124.19,177.71,118.66,178.87z"/>
	</g>
</g>
<path d="M212.19,144.89l1.65,1.15c-1.01,1.88-1.53,3.89-1.53,5.96h-0.12V144.89z"/>
<path d="M222.31,152c0-0.02,0-0.05,0.01-0.07c0.04-1.33,1.36-2.99,3.88-4.43c1.7-0.98,3.89-2.07,6.56-2.8
	c2.44-0.73,5.35-1.46,8.52-1.82c2.55-0.37,5.22-0.49,8.14-0.49c3.88,0,7.41,0.34,10.58,0.9c1.5,0.25,2.93,0.57,4.26,0.92
	c2.06,0.49,4.01,1.22,5.59,1.95c2.58,1.14,4.5,2.47,5.57,3.72c0.65,0.75,0.99,1.48,0.99,2.12c0,1.82-2.31,4.01-6.56,5.83
	c-1.58,0.73-3.53,1.34-5.59,1.95c-1.33,0.35-2.76,0.67-4.26,0.92c-3.17,0.56-6.7,0.9-10.58,0.9c-2.92,0-5.59-0.24-8.14-0.49
	c-3.17-0.36-5.96-1.09-8.52-1.82c-2.67-0.85-4.86-1.82-6.56-2.8C223.77,154.91,222.31,153.33,222.31,152z"/>
<path d="M222.19,174v-9.97c0.36,0.25,0.73,0.49,1.21,0.61c0.37,0.24,0.73,0.37,1.22,0.61c0.24,0.12,0.36,0.24,0.61,0.24
	c0.24,0.12,0.48,0.24,0.6,0.24s0.12,0.13,0.25,0.13c0.12,0,0.24,0.12,0.36,0.12c0.85,0.36,1.82,0.73,2.68,0.97
	c0.24,0.12,0.48,0.12,0.73,0.24c0.24,0.13,0.48,0.13,0.73,0.25c0.24,0.12,0.48,0.12,0.72,0.24c0.37,0.12,0.86,0.24,1.22,0.37
	c0.37,0.12,0.73,0.12,0.97,0.24c1.1,0.24,2.19,0.48,3.16,0.61c0.25,0,0.49,0.12,0.73,0.12c0.61,0.12,1.22,0.24,1.71,0.24
	c0.48,0.12,1.09,0.12,1.58,0.24h0.12c0.85,0.13,1.82,0.13,2.67,0.25h10.95c1.09-0.12,2.06-0.12,2.91-0.25
	c0.49,0,0.98-0.12,1.46-0.24c0.42-0.08,0.84-0.11,1.22-0.16c0.18-0.02,0.34-0.04,0.49-0.08c0.24,0,0.48-0.12,0.73-0.12
	c0.85-0.13,1.58-0.25,2.43-0.49c0.24,0,0.48-0.12,0.73-0.12c0.48-0.12,0.97-0.24,1.58-0.37c0.24-0.12,0.48-0.12,0.73-0.24l0.73-0.24
	c0.24-0.12,0.48-0.12,0.73-0.25c0.24-0.12,0.48-0.12,0.73-0.24c0.12,0,0.24-0.12,0.36-0.12c0.85-0.24,1.58-0.61,2.31-0.85
	c0.12,0,0.24-0.12,0.49-0.25c0.24-0.12,0.61-0.24,0.85-0.36s0.36-0.24,0.61-0.24c0.24-0.12,0.36-0.12,0.48-0.25h0.12
	c0.13-0.12,0.25-0.12,0.37-0.24l0.24-0.12c0.37-0.24,0.73-0.37,1.1-0.61v-0.36c0.12,0,0.24-0.13,0.36-0.25v0.61h0.49
	c-0.12,0-0.25,0.12-0.37,0.12V174c0,2.43-4.5,5.84-12.16,7.78c-1.46,0.39-3.03,0.73-4.69,1c-3.05,0.52-6.44,0.83-10.14,0.83
	c-2.92,0-5.59-0.12-8.15-0.49c-3.16-0.36-5.95-1.09-8.51-1.82c-2.67-0.85-4.86-1.83-6.56-2.8
	C223.64,176.92,222.19,175.34,222.19,174z"/>
<path d="M275.81,240.15h0.48c0,3.89-10.82,9.6-26.99,9.6c-7.3,0-13.5-1.21-18-2.79c-2.43-0.85-4.37-1.83-5.83-2.8
	c-0.24-0.24-0.61-0.36-0.85-0.61c-1.34-1.09-2.19-2.19-2.31-3.16c0-0.12,0-0.12,0-0.24v-9.97c0.36,0.24,0.73,0.48,1.21,0.61
	c0.37,0.24,0.73,0.36,1.22,0.6c0.24,0.12,0.36,0.25,0.61,0.25c0.24,0.12,0.48,0.24,0.6,0.24c0.13,0,0.13,0.12,0.25,0.12
	s0.24,0.12,0.36,0.12c0.85,0.37,1.83,0.73,2.68,0.98c0.24,0.12,0.48,0.12,0.73,0.24c0.24,0.12,0.48,0.12,0.73,0.24
	c0.24,0.12,0.48,0.12,0.73,0.25c0.36,0.12,0.85,0.24,1.21,0.36c0.37,0.12,0.73,0.12,0.97,0.24c1.1,0.25,2.19,0.49,3.17,0.61
	c0.24,0,0.48,0.12,0.73,0.12c0.6,0.12,1.21,0.25,1.7,0.25c0.48,0.12,1.09,0.12,1.58,0.24c0.97,0.12,1.82,0.24,2.8,0.24h10.94
	c1.09-0.12,2.07-0.12,2.92-0.24c0.48,0,0.97-0.12,1.46-0.24c0.6-0.13,1.21-0.13,1.7-0.25c0.24,0,0.48-0.12,0.73-0.12
	c0.97-0.24,2.06-0.36,3.16-0.61c0.49-0.12,0.97-0.24,1.58-0.36c0.24,0,0.49-0.12,0.73-0.24c0.24-0.13,0.49-0.13,0.73-0.25
	c0.24-0.12,0.48-0.12,0.73-0.24c0.24-0.12,0.48-0.12,0.73-0.24c0.97-0.37,1.82-0.61,2.67-0.98c0.12,0,0.25-0.12,0.49-0.24
	c0.24-0.12,0.61-0.24,0.85-0.36c0.24-0.13,0.49-0.25,0.61-0.37c0.24-0.12,0.36-0.24,0.61-0.24c0.12-0.12,0.24-0.12,0.36-0.25
	l0.12-0.12c0.37-0.24,0.73-0.48,1.1-0.61V240.15z"/>
<path d="M276.29,207.93h0.37c-0.12,0.12-0.25,0.12-0.37,0.24v9.97c0,0.36-0.1,0.74-0.29,1.13c-1.1,2.27-5.34,5-11.87,6.65
	c-0.73,0.25-1.46,0.37-2.31,0.61c-3.64,0.73-7.9,1.22-12.52,1.22s-8.88-0.49-12.52-1.22c-1.46-0.36-2.8-0.61-4.02-1.09
	c-2.67-0.86-4.86-1.83-6.56-2.8c-2.42-1.45-3.88-3.14-3.89-4.48c0-0.01,0-0.01,0-0.02v-9.97c0.36,0.24,0.73,0.49,1.21,0.61
	c0.37,0.24,0.73,0.36,1.22,0.61c0.24,0.12,0.36,0.24,0.61,0.24c0.24,0.12,0.48,0.24,0.6,0.24c0.13,0,0.13,0.12,0.25,0.12
	c0.12,0.13,0.24,0.13,0.36,0.13c0.85,0.36,1.83,0.72,2.68,0.97c0.24,0.12,0.48,0.12,0.73,0.24c0.24,0.12,0.48,0.12,0.73,0.24
	c0.24,0.13,0.48,0.13,0.73,0.25c0.48,0.12,0.85,0.24,1.21,0.36c0.37,0.12,0.73,0.12,0.97,0.25c1.1,0.24,2.19,0.48,3.17,0.6
	c0.24,0,0.48,0.12,0.73,0.12c0.6,0.13,1.21,0.25,1.82,0.25c0.49,0.12,1.09,0.12,1.58,0.24c0.85,0.12,1.82,0.24,2.8,0.24h10.82
	c1.09-0.12,2.07-0.12,2.92-0.24c0.48,0,0.97-0.12,1.46-0.24c0.6-0.12,1.21-0.12,1.7-0.25c0.24,0,0.48-0.12,0.73-0.12
	c0.85-0.12,1.58-0.36,2.43-0.48c0.24,0,0.49-0.12,0.73-0.12c0.49-0.13,0.97-0.25,1.58-0.37c0.24,0,0.49-0.12,0.73-0.24l0.73-0.25
	c0.24-0.12,0.48-0.12,0.73-0.24c0.24-0.12,0.48-0.12,0.73-0.24c0.12,0,0.24-0.12,0.36-0.12c0.85-0.25,1.58-0.61,2.31-0.85
	c0.12,0,0.37-0.13,0.49-0.25c0.24-0.12,0.61-0.24,0.85-0.36s0.36-0.25,0.61-0.37l0.61-0.24c0.12,0,0.24-0.12,0.36-0.24l0.24-0.13
	c0.37-0.24,0.73-0.36,1.1-0.6v-0.37c0.12,0,0.24-0.12,0.36-0.24V207.93z"/>
<path d="M276.29,185.92h0.37c-0.12,0-0.25,0.12-0.37,0.24v9.97c0,2.43-4.5,5.84-12.16,7.78c-4.13,1.1-9.12,1.83-14.83,1.83
	c-2.75,0-5.27-0.22-7.69-0.45c-0.01,0-0.01,0-0.01,0c-0.15-0.01-0.3-0.03-0.45-0.04c-3.16-0.36-5.95-0.97-8.51-1.82
	c-2.67-0.85-4.86-1.83-6.56-2.8c-2.44-1.58-3.89-3.16-3.89-4.5v-9.97c0.36,0.25,0.73,0.49,1.21,0.61c0.37,0.24,0.73,0.36,1.22,0.61
	c0.24,0.12,0.36,0.24,0.61,0.24c0.24,0.12,0.48,0.24,0.6,0.24l0.25,0.13c0.12,0,0.24,0.12,0.36,0.12c0.85,0.36,1.82,0.73,2.68,0.97
	c0.24,0.12,0.48,0.12,0.73,0.24c0.24,0.12,0.48,0.12,0.73,0.25c0.24,0.12,0.48,0.12,0.72,0.24c0.37,0.12,0.86,0.24,1.22,0.36
	c0.37,0.13,0.73,0.13,0.97,0.25c1.1,0.24,2.19,0.48,3.16,0.61c0.25,0,0.49,0.12,0.73,0.12c0.61,0.12,1.22,0.12,1.71,0.24
	c0.48,0.12,1.09,0.12,1.58,0.24h0.12c0.85,0.13,1.82,0.25,2.67,0.25h11.19c0.56-0.06,1.08-0.09,1.58-0.12
	c0.48-0.03,0.92-0.07,1.34-0.13c0.48,0,0.97-0.12,1.46-0.24c0.61-0.12,1.21-0.12,1.7-0.24c0.24,0,0.49-0.12,0.73-0.12
	c0.85-0.13,1.58-0.37,2.43-0.49c0.24-0.12,0.49-0.12,0.73-0.12c0.49-0.12,0.97-0.25,1.58-0.37c0.24,0,0.49-0.12,0.73-0.12l0.73-0.24
	c0.24-0.12,0.49-0.12,0.73-0.25c0.24-0.12,0.49-0.12,0.73-0.24c0.12,0,0.24-0.12,0.36-0.12c0.86-0.24,1.58-0.61,2.31-0.85
	c0.13,0,0.25-0.12,0.49-0.24c0.24-0.13,0.61-0.25,0.85-0.37s0.49-0.24,0.61-0.24c0.24-0.12,0.36-0.25,0.61-0.25
	c0.12-0.12,0.24-0.12,0.36-0.24l0.12-0.12c0.37-0.24,0.73-0.49,1.1-0.61v-0.36c0.12,0,0.24-0.12,0.36-0.25V185.92z"/>
</svg>
