<?xml version="1.0" encoding="UTF-8" standalone="no"?>
<!DOCTYPE svg PUBLIC "-//W3C//DTD SVG 1.1//EN" "http://www.w3.org/Graphics/SVG/1.1/DTD/svg11.dtd">
<svg width="100%" height="100%" viewBox="0 0 300 300" version="1.1" xmlns="http://www.w3.org/2000/svg" xmlns:xlink="http://www.w3.org/1999/xlink" xml:space="preserve" xmlns:serif="http://www.serif.com/" style="fill-rule:evenodd;clip-rule:evenodd;stroke-linejoin:round;stroke-miterlimit:2;">
    <path d="M275.23,135.58L247.42,125.69L240.87,123.35C237.77,115.88 236.22,112.11 233.12,104.63L236.12,98.34L250.83,67.45C241.74,58.36 241.74,58.36 232.65,49.26L201.8,63.96L195.47,66.98C188,63.88 184.23,62.33 176.75,59.23L174.38,52.6L164.44,24.78L162.87,20.38L137.15,20.38L135.58,24.78L125.65,52.69L123.34,59.17C115.86,62.26 112.09,63.82 104.61,66.91L98.49,64.01L67.44,49.2L49.25,67.38L64.1,98.54L66.97,104.57C63.87,112.04 62.32,115.82 59.22,123.28L52.96,125.52L24.79,135.58L20.36,137.16L20.36,162.89L24.79,164.47L53.06,174.52L59.15,176.7C59.55,177.65 59.92,178.54 60.27,179.39C60.44,179.79 60.6,180.19 60.75,180.57C60.95,181.03 61.13,181.5 61.32,181.94C61.44,182.23 61.56,182.52 61.68,182.82C61.84,183.19 61.99,183.57 62.14,183.94C62.29,184.29 62.44,184.65 62.58,185.01C63.21,186.51 63.82,187.98 64.48,189.57C64.59,189.84 64.7,190.11 64.82,190.39C65.45,191.91 66.12,193.56 66.9,195.42L64.14,201.2L49.19,232.6L67.37,250.78L98.75,235.83L104.55,233.07C112.02,236.17 115.79,237.72 123.27,240.82L125.45,246.94L135.51,275.21L137.08,279.61L162.8,279.61L164.37,275.21L174.39,247.07L176.61,240.82C184.09,237.72 187.86,236.17 195.34,233.07L201.39,235.96L210.79,240.44L232.52,250.78L250.7,232.6L235.94,201.63L232.99,195.42C236.09,187.94 237.63,184.17 240.73,176.7L247.33,174.36L275.23,164.46L279.66,162.89L279.66,137.16L275.23,135.58ZM96.16,158.54L95.08,157.51C92.51,155.03 90.55,152.46 89.22,149.79C87.89,147.13 87.22,144.13 87.22,140.79C87.22,137.27 87.79,133.98 88.93,130.93C90.08,127.89 91.65,125.36 93.65,123.36L113.51,103.36C115.7,101.17 118.15,99.53 120.87,98.43C123.58,97.34 126.41,96.79 129.37,96.79C132.7,96.79 135.82,97.31 138.72,98.36C141.63,99.41 144.18,101.08 146.37,103.36L166.8,123.79C167.84,124.84 168.7,126.05 169.37,127.43C170.04,128.82 170.37,130.22 170.37,131.65C170.37,133.84 169.58,135.72 168.01,137.29C166.44,138.86 164.56,139.65 162.37,139.65C161.03,139.65 159.65,139.41 158.22,138.94C156.8,138.46 155.56,137.7 154.51,136.65L141.58,123.72C140.12,122.26 137.76,122.26 136.29,123.71L101.38,158.5C99.94,159.93 97.62,159.95 96.16,158.54ZM210.23,151.58C208.51,155.15 205.61,158.98 201.51,163.08L154.08,210.51C153.32,211.27 152.56,211.84 151.8,212.23C151.03,212.61 150.27,212.8 149.51,212.8C147.89,212.8 146.53,212.23 145.44,211.08C144.34,209.94 143.8,208.56 143.8,206.94C143.8,206.18 143.99,205.42 144.37,204.65C144.75,203.89 145.32,203.13 146.08,202.37L167.73,180.72C169.19,179.26 169.19,176.9 167.73,175.44C167,174.71 166.04,174.35 165.09,174.35C164.13,174.35 163.17,174.71 162.44,175.44L140.8,197.08C140.03,197.84 139.27,198.42 138.51,198.8C137.75,199.18 136.99,199.37 136.22,199.37C134.6,199.37 133.22,198.82 132.08,197.72C130.94,196.63 130.37,195.27 130.37,193.65C130.37,192.89 130.56,192.13 130.94,191.37C131.32,190.61 131.89,189.84 132.65,189.08L154.3,167.44C155.76,165.98 155.76,163.61 154.3,162.15C153.57,161.42 152.61,161.05 151.65,161.05C150.7,161.05 149.74,161.42 149.01,162.15L127.37,183.8C126.6,184.56 125.84,185.13 125.08,185.51C124.32,185.89 123.56,186.08 122.79,186.08C121.17,186.08 119.79,185.51 118.65,184.37C117.51,183.22 116.94,181.84 116.94,180.22C116.94,179.46 117.13,178.7 117.51,177.94C117.89,177.18 118.46,176.41 119.22,175.65L140.87,154.01C142.33,152.55 142.33,150.18 140.87,148.72C140.14,147.99 139.18,147.63 138.23,147.63C137.27,147.63 136.31,147.99 135.58,148.72L113.94,170.37C113.17,171.13 112.41,171.7 111.65,172.08C110.89,172.46 110.13,172.65 109.36,172.65C107.75,172.65 106.36,172.08 105.22,170.94C104.08,169.79 103.51,168.41 103.51,166.79C103.51,166.03 103.7,165.27 104.08,164.51C104.46,163.75 105.03,162.98 105.79,162.22L136.15,131.86C137.61,130.4 139.98,130.4 141.44,131.86L150.37,140.79C151.99,142.41 153.84,143.58 155.94,144.29C158.03,145.01 160.18,145.36 162.37,145.36C166.27,145.36 169.54,144.05 172.15,141.44C174.77,138.82 176.08,135.55 176.08,131.65C176.08,129.46 175.61,127.34 174.65,125.29C173.7,123.24 172.56,121.55 171.23,120.22L156.89,105.89C155.21,104.2 155.48,101.36 157.5,100.1C158.6,99.42 159.77,98.84 161.01,98.36C163.73,97.31 166.65,96.79 169.8,96.79C173.8,96.79 177.37,97.39 180.51,98.58C183.66,99.77 185.99,101.12 187.51,102.65L203.23,118.36C206.66,121.79 209.11,125.1 210.59,128.29C212.06,131.48 212.8,135.55 212.8,140.51C212.8,144.32 211.94,148.01 210.23,151.58Z" style="fill-rule:nonzero;"/>
</svg>
