<?xml version="1.0" encoding="utf-8"?>
<!-- Generator: Adobe Illustrator 23.0.1, SVG Export Plug-In . SVG Version: 6.00 Build 0)  -->
<svg version="1.1" id="Layer_1" xmlns="http://www.w3.org/2000/svg" xmlns:xlink="http://www.w3.org/1999/xlink" x="0px" y="0px"
	 viewBox="0 0 300 300" style="enable-background:new 0 0 300 300;" xml:space="preserve">
<style type="text/css">
	.st0{stroke:#000000;stroke-width:3;stroke-miterlimit:10;}
	.st1{fill:#E3E3E3;}
</style>
<g>
	<path d="M65.9,114.43H27.07c0.51-17.11,7.3-34.06,20.36-47.12l2.12-2.12c27.17-27.18,71.24-27.18,98.42,0
		c13.59-13.59,31.4-20.39,49.21-20.39c17.82,0,35.62,6.8,49.21,20.39l2.12,2.12c11.13,11.13,17.7,25.08,19.71,39.55
		c-5.29,0.78-10.09,3.13-13.9,6.56h-41.7c-5.63,0-10.91,2.19-14.88,6.16l-22.42,22.42l-53.61-53.6c-3.97-3.97-9.26-6.16-14.88-6.16
		c-5.62,0-10.9,2.19-14.87,6.16L65.9,114.43z"/>
	<path d="M245.47,133.24c0,2.96,0.49,5.81,1.4,8.48h-14.91c-0.21-0.19-0.42-0.37-0.63-0.55c-2.31-1.95-5.04-3.75-8.11-5.36
		l-0.43-0.22l-0.89-0.37c-0.15-0.07-0.3-0.13-0.43-0.18c-0.79-0.37-1.59-0.7-2.44-1c-0.17-0.07-0.34-0.13-0.52-0.2
		c-0.26-0.1-0.49-0.18-0.7-0.25l-0.22-0.08c-3.1-1.03-6.33-1.69-9.58-1.95c-1.38-0.14-2.61-0.14-3.61-0.14c-0.74,0-1.6,0-2.55,0.06
		l3.88-3.89c1.83-1.82,4.3-2.85,6.89-2.85h34.25C245.96,127.41,245.47,130.26,245.47,133.24z"/>
	<g>
		<path d="M32.15,142.74H20c-4.25,0-8.05-3.01-8.66-7.23c-0.76-5.25,3.3-9.75,8.4-9.75h7.92C28.42,131.55,29.92,137.26,32.15,142.74
			z"/>
		<path d="M245.47,133.24c0,2.96,0.49,5.81,1.4,8.48h-14.91c-0.21-0.19-0.42-0.37-0.63-0.55c-2.31-1.95-5.04-3.75-8.11-5.36
			l-0.43-0.22l-0.89-0.37c-0.15-0.07-0.3-0.13-0.43-0.18c-0.79-0.37-1.59-0.7-2.44-1c-0.17-0.07-0.34-0.13-0.52-0.2
			c-0.26-0.1-0.49-0.18-0.7-0.25l-0.22-0.08c-3.1-1.03-6.33-1.69-9.58-1.95c-1.38-0.14-2.61-0.14-3.61-0.14c-0.74,0-1.6,0-2.55,0.06
			l3.88-3.89c1.83-1.82,4.3-2.85,6.89-2.85h34.25C245.96,127.41,245.47,130.26,245.47,133.24z"/>
		<path d="M32.15,142.74H20c-4.25,0-8.05-3.01-8.66-7.23c-0.76-5.25,3.3-9.75,8.4-9.75h7.92C28.42,131.55,29.92,137.26,32.15,142.74
			z"/>
		<path d="M245.47,133.24c0,2.96,0.49,5.81,1.4,8.48h-14.91c-0.21-0.19-0.42-0.37-0.63-0.55c-2.31-1.95-5.04-3.75-8.11-5.36
			l-0.43-0.22l-0.89-0.37c-0.15-0.07-0.3-0.13-0.43-0.18c-0.79-0.37-1.59-0.7-2.44-1c-0.17-0.07-0.34-0.13-0.52-0.2
			c-0.26-0.1-0.49-0.18-0.7-0.25l-0.22-0.08c-3.1-1.03-6.33-1.69-9.58-1.95c-1.38-0.14-2.61-0.14-3.61-0.14c-0.74,0-1.6,0-2.55,0.06
			l3.88-3.89c1.83-1.82,4.3-2.85,6.89-2.85h34.25C245.96,127.41,245.47,130.26,245.47,133.24z"/>
	</g>
	<g>
		<path d="M124.95,242.68c-1.51-1.12-2.96-2.38-4.32-3.74l-73.21-73.21c-3.62-3.62-6.75-7.53-9.39-11.66h35.58
			c5.61,0,10.91-2.19,14.88-6.16l18.34-18.34l53.6,53.59c1.39,1.39,2.94,2.56,4.6,3.48c0.05,0.15,0.1,0.29,0.15,0.44
			c0.21,0.57,0.42,1.11,0.64,1.63v0.26l0.84,1.75l0.04,0.1l0.15,0.3c0.44,0.93,0.89,1.77,1.35,2.58c0.14,0.24,0.27,0.47,0.41,0.69
			c0.69,1.16,1.45,2.32,2.23,3.37c0.48,0.67,0.99,1.34,1.5,1.99c0.43,0.55,0.88,1.08,1.34,1.59
			C150.49,203.45,130.82,220.02,124.95,242.68z"/>
		<path d="M275.18,251.87H133.42c0.14-1.42,0.36-2.82,0.63-4.19c4.17-20.88,22.59-36.57,44.66-36.57h51.19
			C253.43,211.11,272.81,229.04,275.18,251.87z"/>
		<path d="M73.61,142.74H32.15c-2.23-5.48-3.73-11.19-4.49-16.98h38.91c2.58,0,5.05-1.02,6.87-2.85l26.51-26.52
			c3.8-3.79,9.95-3.79,13.75,0l54.72,54.73l-1.76,4.24l-0.84,1.76v0.26c-0.22,0.52-0.43,1.06-0.64,1.62
			c-0.11,0.29-0.21,0.58-0.31,0.9c-1.03,3.11-1.68,6.35-1.93,9.61c-0.01,0.05-0.01,0.1-0.01,0.15l-49.23-49.23
			c-3.8-3.81-9.95-3.81-13.75,0L80.48,139.9C78.66,141.72,76.18,142.74,73.61,142.74z"/>
		<path d="M172.9,175.67c-0.1-0.86-0.1-1.72-0.1-2.61c0-0.88,0-1.76,0.1-2.65c0.19-2.56,0.69-5.02,1.47-7.38
			c0.05-0.17,0.11-0.35,0.18-0.52c0.37-1.03,0.82-2.04,1.25-3.08c0.01,0,0.02-0.02,0.02-0.04c0.32-0.68,0.67-1.35,1.04-2.01
			c0.63-1.11,1.34-2.18,2.1-3.21c0.33-0.47,0.69-0.93,1.05-1.4c0.05-0.07,0.12-0.15,0.17-0.23c1.08-1.37,2.36-2.66,3.75-3.73
			c0.82-0.74,1.7-1.41,2.62-2.04c1.17-0.79,2.4-1.49,3.67-2.1c1.28-0.69,2.67-1.28,4.14-1.67c2.36-0.79,4.82-1.29,7.38-1.48
			c0.88-0.1,1.77-0.1,2.66-0.1c0.88,0,1.78,0,2.66,0.1c2.56,0.19,5.01,0.69,7.38,1.48c0.08,0.03,0.16,0.06,0.24,0.09
			c0.06,0.02,0.12,0.03,0.18,0.06c0.2,0.08,0.41,0.15,0.61,0.23c0.7,0.25,1.38,0.53,2.06,0.85c0.1,0.04,0.2,0.08,0.28,0.12
			c0.26,0.11,0.51,0.22,0.77,0.32c2.26,1.18,4.43,2.56,6.29,4.14c1.28,1.07,2.56,2.36,3.75,3.73c0.14,0.18,0.28,0.34,0.42,0.51
			c1.49,1.82,2.72,3.73,3.71,5.79c0.69,1.29,1.28,2.66,1.67,4.14c0.21,0.61,0.39,1.22,0.54,1.84c0.25,0.93,0.45,1.86,0.61,2.81
			c0.15,0.9,0.26,1.8,0.33,2.73v0.05c0,0.01,0,0.01,0,0.02c0.09,0.77,0.1,1.55,0.1,2.32v0.59c0,0.77-0.01,1.55-0.1,2.32
			c0,0,0,0,0,0.01v0.05c-0.07,0.93-0.18,1.84-0.33,2.74c-0.01,0.08-0.03,0.17-0.05,0.26c-0.15,0.86-0.33,1.71-0.56,2.55
			c-0.15,0.63-0.33,1.24-0.54,1.85c-0.39,1.46-0.98,2.84-1.67,4.12c-1.08,2.27-2.46,4.33-4.13,6.3c-1.19,1.38-2.47,2.66-3.75,3.75
			c-1.7,1.43-3.66,2.71-5.71,3.82c-0.19,0.1-0.38,0.21-0.58,0.31l-0.77,0.32c-0.08,0.04-0.18,0.08-0.28,0.12
			c-0.68,0.31-1.36,0.59-2.06,0.84c-0.19,0.09-0.39,0.16-0.59,0.22c-0.01,0-0.02,0.01-0.02,0.01c-0.15,0.06-0.28,0.11-0.42,0.16
			c-1.36,0.45-2.75,0.81-4.17,1.06c-0.07,0.01-0.15,0.03-0.21,0.04c-0.98,0.18-1.99,0.31-3,0.38c-0.88,0.1-1.78,0.1-2.66,0.1
			c-0.89,0-1.78,0-2.66-0.1c-1.08-0.08-2.16-0.22-3.21-0.42c-1.42-0.25-2.81-0.61-4.17-1.06c-0.2-0.05-0.39-0.11-0.58-0.17
			c-1.26-0.38-2.45-0.9-3.56-1.5c-0.21-0.1-0.42-0.2-0.62-0.31c-2.04-1.03-3.98-2.3-5.67-3.82c-1.39-1.09-2.67-2.37-3.75-3.75
			c-0.42-0.53-0.83-1.07-1.22-1.62c-0.64-0.86-1.23-1.76-1.78-2.68c-0.11-0.17-0.21-0.35-0.32-0.54c-0.37-0.65-0.72-1.32-1.04-2
			c0-0.01-0.01-0.02-0.02-0.04c-0.43-1.04-0.88-2.06-1.25-3.08c-0.07-0.18-0.13-0.35-0.18-0.51c-0.57-1.72-0.98-3.49-1.24-5.31
			C173.02,177.08,172.95,176.37,172.9,175.67z"/>
		<path d="M241.68,154.34c-0.21-0.43-0.43-0.86-0.66-1.29h13.29c0.89,0.79,1.83,1.54,2.81,2.21c-2.47,3.7-5.35,7.2-8.61,10.47
			l-2.74,2.74c-0.09-0.87-0.2-1.68-0.33-2.44c-0.2-1.24-0.47-2.49-0.8-3.71c-0.18-0.73-0.39-1.46-0.64-2.22
			C243.47,158.19,242.71,156.3,241.68,154.34z"/>
		<path d="M287.49,133.23c0,8.48-6.87,15.35-15.35,15.35c-3.58,0-6.86-1.22-9.47-3.27c-1.28-1.01-2.4-2.22-3.31-3.59
			c-1.62-2.43-2.56-5.35-2.56-8.49s0.94-6.06,2.56-8.49c2.17-3.27,5.56-5.65,9.52-6.51c1.05-0.22,2.14-0.35,3.26-0.35
			C280.62,117.88,287.49,124.76,287.49,133.23z"/>
	</g>
</g>
</svg>
