<?xml version="1.0" encoding="utf-8"?>
<!-- Generator: Adobe Illustrator 23.0.1, SVG Export Plug-In . SVG Version: 6.00 Build 0)  -->
<svg version="1.1" id="Layer_1" xmlns="http://www.w3.org/2000/svg" xmlns:xlink="http://www.w3.org/1999/xlink" x="0px" y="0px"
	 viewBox="0 0 300 300" style="enable-background:new 0 0 300 300;" xml:space="preserve">
<style type="text/css">
	.st0{fill:none;}
	.st1{stroke:#000000;stroke-width:12;stroke-linecap:round;stroke-linejoin:round;stroke-miterlimit:10;}
	.st2{fill:none;stroke:#000000;stroke-width:16;stroke-linecap:round;stroke-linejoin:round;stroke-miterlimit:10;}
	.st3{fill:#E3E3E3;}
	.st4{fill:#00FF00;}
	.st5{fill:#0000FF;}
	.st6{fill:#333333;}
	.st7{stroke:#000000;stroke-miterlimit:10;}
	.st8{fill:none;stroke:#000000;stroke-width:15;stroke-linecap:round;stroke-linejoin:round;stroke-miterlimit:10;}
</style>
<g>
	<g>
		<path d="M239.02,102.18v8.22c0.55-1.15,0.82-2.49,0.82-4.03C239.84,104.79,239.57,103.4,239.02,102.18z M239.02,159.15v3.62H51.22
			V82.01h107.07c0.86-6.49,2.62-12.77,5.23-18.69H47.05c-7.51,0-13.59,6.41-13.59,14.31v89.54c0,7.9,6.09,14.31,13.59,14.31h196.14
			c7.51,0,13.59-6.4,13.59-14.31V153.4C251.17,156.11,245.21,158.05,239.02,159.15z M206.29,74.78c0-4.78,1.39-8.61,4.18-11.46
			h-32.62c-3.25,5.68-5.53,11.99-6.63,18.69h36.49C206.77,79.84,206.29,77.43,206.29,74.78z M239.02,102.18v8.22
			c0.55-1.15,0.82-2.49,0.82-4.03C239.84,104.79,239.57,103.4,239.02,102.18z M243.36,63.32c1.9,2.02,3.33,4.38,4.32,7.06
			l-9.06,3.92c-0.98-2.61-2.37-4.57-4.16-5.88c-1.8-1.31-4.25-1.96-7.35-1.96c-3.59,0-6.33,0.8-8.2,2.39
			c-1.88,1.59-2.82,3.57-2.82,5.94c0,2.69,1.22,4.81,3.67,6.36c0.45,0.28,0.96,0.58,1.53,0.87h17.73v6.68
			c2.53,1.4,4.62,3.11,6.27,5.13c2.9,3.55,4.34,7.65,4.34,12.3c0,5.8-1.71,10.2-5.14,13.22c-1.64,1.44-3.46,2.62-5.47,3.54v23.21
			c6.4-1.42,12.39-3.94,17.76-7.34V77.62C256.78,69.78,250.79,63.41,243.36,63.32z"/>
		<g>
			<path d="M256.86,186.92H33.55L17,245.17h256.41L256.86,186.92z M113.71,238.68l2.37-9.61H174l2.37,9.61H113.71z M35.55,224.05
				l8.29-29.17h202.74l8.29,29.17H35.55z"/>
		</g>
		<rect x="17.02" y="249.84" width="256.37" height="15.23"/>
	</g>
	<path d="M226.74,34.92c-20.93,0-39.19,11.43-48.88,28.39c-3.25,5.68-5.53,11.99-6.63,18.69c-0.49,2.99-0.75,6.05-0.75,9.17
		c0,31.07,25.19,56.26,56.26,56.26c4.22,0,8.33-0.46,12.28-1.35c6.4-1.42,12.39-3.94,17.76-7.34c15.76-9.97,26.22-27.55,26.22-47.58
		C283,60.11,257.81,34.92,226.74,34.92z M244.49,119.35c-1.64,1.44-3.46,2.62-5.47,3.54c-2.2,1.01-4.62,1.7-7.26,2.09v10.28h-9.79
		v-10.53c-4.33-0.98-8.06-2.86-11.2-5.63c-3.14-2.77-5.45-6.69-6.91-11.75l9.06-3.67c1.22,3.92,3.04,6.9,5.45,8.94
		c2.41,2.04,5.57,3.06,9.49,3.06c3.35,0,6.18-0.76,8.51-2.27c1.2-0.78,2.09-1.78,2.67-3.01c0.55-1.15,0.82-2.49,0.82-4.03
		c0-1.58-0.27-2.97-0.82-4.18c-0.44-0.99-1.07-1.86-1.87-2.61c-1.8-1.68-5.96-3.57-12.49-5.7c-7.02-2.2-11.83-4.83-14.45-7.9
		c-1.04-1.22-1.87-2.54-2.49-3.97c-0.95-2.17-1.42-4.58-1.42-7.23c0-4.78,1.39-8.61,4.18-11.46c0.3-0.31,0.62-0.61,0.96-0.9
		c3.43-2.94,6.94-4.61,10.53-5.02V47.11h9.79v10.28c4.08,0.66,7.45,2.14,10.1,4.47c0.53,0.46,1.03,0.95,1.5,1.45
		c1.9,2.02,3.33,4.38,4.32,7.06l-9.06,3.92c-0.98-2.61-2.37-4.57-4.16-5.88c-1.8-1.31-4.25-1.96-7.35-1.96
		c-3.59,0-6.33,0.8-8.2,2.39c-1.88,1.59-2.82,3.57-2.82,5.94c0,2.69,1.22,4.81,3.67,6.36c0.45,0.28,0.96,0.58,1.53,0.87
		c2.54,1.29,6.27,2.63,11.2,4.03c2.43,0.7,4.61,1.59,6.53,2.65c2.53,1.4,4.62,3.11,6.27,5.13c2.9,3.55,4.34,7.65,4.34,12.3
		C249.63,111.92,247.92,116.33,244.49,119.35z"/>
	<path d="M226.74,34.92c-20.93,0-39.19,11.43-48.88,28.39c-3.25,5.68-5.53,11.99-6.63,18.69c-0.49,2.99-0.75,6.05-0.75,9.17
		c0,31.07,25.19,56.26,56.26,56.26c4.22,0,8.33-0.46,12.28-1.35c6.4-1.42,12.39-3.94,17.76-7.34c15.76-9.97,26.22-27.55,26.22-47.58
		C283,60.11,257.81,34.92,226.74,34.92z M244.49,119.35c-1.64,1.44-3.46,2.62-5.47,3.54c-2.2,1.01-4.62,1.7-7.26,2.09v10.28h-9.79
		v-10.53c-4.33-0.98-8.06-2.86-11.2-5.63c-3.14-2.77-5.45-6.69-6.91-11.75l9.06-3.67c1.22,3.92,3.04,6.9,5.45,8.94
		c2.41,2.04,5.57,3.06,9.49,3.06c3.35,0,6.18-0.76,8.51-2.27c1.2-0.78,2.09-1.78,2.67-3.01c0.55-1.15,0.82-2.49,0.82-4.03
		c0-1.58-0.27-2.97-0.82-4.18c-0.44-0.99-1.07-1.86-1.87-2.61c-1.8-1.68-5.96-3.57-12.49-5.7c-7.02-2.2-11.83-4.83-14.45-7.9
		c-1.04-1.22-1.87-2.54-2.49-3.97c-0.95-2.17-1.42-4.58-1.42-7.23c0-4.78,1.39-8.61,4.18-11.46c0.3-0.31,0.62-0.61,0.96-0.9
		c3.43-2.94,6.94-4.61,10.53-5.02V47.11h9.79v10.28c4.08,0.66,7.45,2.14,10.1,4.47c0.53,0.46,1.03,0.95,1.5,1.45
		c1.9,2.02,3.33,4.38,4.32,7.06l-9.06,3.92c-0.98-2.61-2.37-4.57-4.16-5.88c-1.8-1.31-4.25-1.96-7.35-1.96
		c-3.59,0-6.33,0.8-8.2,2.39c-1.88,1.59-2.82,3.57-2.82,5.94c0,2.69,1.22,4.81,3.67,6.36c0.45,0.28,0.96,0.58,1.53,0.87
		c2.54,1.29,6.27,2.63,11.2,4.03c2.43,0.7,4.61,1.59,6.53,2.65c2.53,1.4,4.62,3.11,6.27,5.13c2.9,3.55,4.34,7.65,4.34,12.3
		C249.63,111.92,247.92,116.33,244.49,119.35z"/>
</g>
</svg>
