<?xml version="1.0" encoding="UTF-8" standalone="no"?><!DOCTYPE svg PUBLIC "-//W3C//DTD SVG 1.1//EN" "http://www.w3.org/Graphics/SVG/1.1/DTD/svg11.dtd"><svg width="100%" height="100%" viewBox="0 0 300 300" version="1.1" xmlns="http://www.w3.org/2000/svg" xmlns:xlink="http://www.w3.org/1999/xlink" xml:space="preserve" xmlns:serif="http://www.serif.com/" style="fill-rule:evenodd;clip-rule:evenodd;stroke-linejoin:round;stroke-miterlimit:2;"><g><path d="M26.463,129.284c0.365,0.104 0.74,0.219 1.104,0.354c-0.365,-0.125 -0.729,-0.229 -1.104,-0.344l0,-0.01Z" style="fill-rule:nonzero;"/><path d="M187,129.284l0,0.01c-0.25,0.073 -0.49,0.146 -0.729,0.229c0.24,-0.094 0.49,-0.167 0.729,-0.24Z" style="fill-rule:nonzero;"/><path d="M27.567,129.639c-0.365,-0.125 -0.729,-0.229 -1.104,-0.344l0,-0.01c0.365,0.104 0.74,0.219 1.104,0.354Z" style="fill-rule:nonzero;"/><path d="M187,129.284l0,0.01c-0.25,0.073 -0.49,0.146 -0.729,0.229c0.24,-0.094 0.49,-0.167 0.729,-0.24Z" style="fill-rule:nonzero;"/><path d="M27.567,129.639c-0.365,-0.135 -0.74,-0.25 -1.104,-0.354c2.667,-19.012 18.981,-33.628 38.723,-33.628l83.102,0c19.731,0 36.045,14.616 38.712,33.628c-0.24,0.073 -0.49,0.146 -0.729,0.24c-0.49,0.156 -0.969,0.333 -1.448,0.51c-0.698,0.281 -1.386,0.583 -2.063,0.927c-0.01,0 -0.021,0.01 -0.031,0.01c-0.281,0.135 -0.552,0.271 -0.823,0.427c-0.854,0.448 -1.667,0.948 -2.469,1.5c0,0 0,0.01 -0.01,0.01c-0.531,0.365 -1.052,0.74 -1.552,1.156c-0.76,0.604 -1.49,1.25 -2.188,1.948c-0.24,0.219 -0.469,0.458 -0.688,0.698c-0.469,0.479 -0.906,0.969 -1.302,1.479c-1.136,1.354 -2.146,2.823 -3.011,4.386l-0.01,0.021c-0.51,0.917 -0.979,1.865 -1.396,2.844l-47.192,0c-5.74,0 -11.064,2.021 -15.356,5.438c-4.292,-3.417 -9.616,-5.438 -15.356,-5.438l-47.192,0c-0.542,-1.261 -1.156,-2.479 -1.865,-3.636c-0.229,-0.417 -0.49,-0.823 -0.771,-1.219c-0.167,-0.281 -0.354,-0.552 -0.563,-0.823c-0.198,-0.271 -0.396,-0.542 -0.594,-0.802c-0.135,-0.188 -0.281,-0.375 -0.448,-0.563c-0.115,-0.156 -0.25,-0.313 -0.375,-0.469c-0.313,-0.375 -0.635,-0.74 -0.979,-1.094c-0.052,-0.063 -0.115,-0.125 -0.167,-0.177c-0.188,-0.208 -0.385,-0.417 -0.594,-0.594c-0.26,-0.271 -0.531,-0.531 -0.813,-0.792c-0.219,-0.198 -0.438,-0.396 -0.667,-0.583c-0.177,-0.156 -0.354,-0.313 -0.542,-0.458c-0.156,-0.135 -0.313,-0.26 -0.479,-0.375c-0.167,-0.135 -0.333,-0.26 -0.49,-0.375c-0.208,-0.156 -0.406,-0.302 -0.615,-0.448c-0.604,-0.427 -1.229,-0.823 -1.875,-1.208c-0.24,-0.135 -0.479,-0.271 -0.729,-0.396c-0.302,-0.167 -0.604,-0.323 -0.906,-0.479c-0.01,0 -0.01,-0.01 -0.021,-0.01c-0.354,-0.177 -0.719,-0.344 -1.083,-0.5c-0.323,-0.146 -0.646,-0.281 -0.969,-0.406c-0.354,-0.146 -0.719,-0.271 -1.073,-0.396Z" style="fill-rule:nonzero;"/><rect x="40.61" y="232.222" width="23.242" height="15.616"/><path d="M221.628,162.35c1.167,-5.573 0.688,-11.345 -1.24,-16.533l48.39,0c2.198,0 3.99,2 3.99,4.459l0,45.14l-58.1,0l6.959,-33.066Z" style="fill-rule:nonzero;"/><rect x="149.611" y="232.222" width="23.242" height="15.616"/><path d="M179.228,157.881c0.271,0.156 0.542,0.333 0.802,0.51c0.26,0.177 0.51,0.365 0.76,0.563c0.031,0.021 0.073,0.042 0.104,0.073c0.021,0.021 0.042,0.031 0.063,0.052c0.229,0.188 0.458,0.375 0.677,0.573c0.208,0.188 0.427,0.396 0.635,0.604c0.208,0.208 0.417,0.427 0.615,0.656c0.135,0.146 0.271,0.302 0.396,0.458c0.135,0.156 0.26,0.323 0.385,0.49c0.135,0.167 0.26,0.333 0.385,0.51c0.094,0.146 0.188,0.281 0.281,0.427c0.021,0.021 0.042,0.052 0.052,0.073c0.177,0.26 0.344,0.531 0.5,0.813c0.052,0.063 0.094,0.135 0.125,0.208c0.052,0.063 0.083,0.125 0.115,0.198c0.146,0.271 0.281,0.542 0.417,0.823c0.083,0.177 0.167,0.354 0.25,0.531c0.104,0.24 0.208,0.49 0.302,0.729c0.094,0.25 0.188,0.5 0.271,0.75c0.063,0.177 0.115,0.344 0.177,0.521c0.073,0.25 0.146,0.5 0.208,0.75c0.115,0.427 0.219,0.865 0.292,1.313c0.042,0.188 0.073,0.375 0.094,0.573c0.01,0.031 0.021,0.063 0.021,0.094c0.063,0.375 0.104,0.75 0.135,1.136c0.031,0.24 0.042,0.479 0.052,0.74c0.021,0.344 0.031,0.677 0.031,1.021c0,0.344 -0.01,0.688 -0.031,1.021c-0.021,0.438 -0.052,0.865 -0.115,1.281c-0.021,0.188 -0.042,0.354 -0.063,0.531c-0.063,0.385 -0.125,0.771 -0.208,1.146c-0.031,0.156 -0.063,0.313 -0.104,0.469c-0.042,0.156 -0.083,0.323 -0.125,0.479c-0.083,0.292 -0.167,0.583 -0.25,0.865c-0.063,0.188 -0.125,0.375 -0.188,0.552c-0.104,0.281 -0.198,0.552 -0.313,0.813c-0.063,0.156 -0.135,0.313 -0.198,0.469c-0.167,0.385 -0.354,0.75 -0.542,1.115c-0.083,0.167 -0.167,0.313 -0.26,0.469c-0.125,0.219 -0.25,0.427 -0.375,0.635c0,0.01 -0.01,0.01 -0.01,0.021c-0.042,0.063 -0.083,0.125 -0.125,0.188c-0.51,0.792 -1.073,1.521 -1.677,2.188c-0.146,0.167 -0.302,0.323 -0.448,0.479c-0.26,0.26 -0.51,0.5 -0.781,0.74c-0.01,0.021 -0.031,0.031 -0.042,0.042c-0.104,0.094 -0.208,0.188 -0.323,0.271c-0.188,0.167 -0.396,0.323 -0.594,0.479c-0.625,0.469 -1.292,0.896 -1.979,1.261c-0.073,0.042 -0.156,0.083 -0.229,0.125c-0.125,0.063 -0.26,0.135 -0.396,0.198l-0.01,0c-0.135,0.073 -0.26,0.135 -0.396,0.188c-0.094,0.031 -0.177,0.073 -0.26,0.104c-0.375,0.156 -0.76,0.302 -1.156,0.417c-0.146,0.052 -0.302,0.094 -0.458,0.135c-0.406,0.115 -0.813,0.208 -1.229,0.281c-0.125,0.031 -0.26,0.052 -0.385,0.063c-0.365,0.063 -0.74,0.104 -1.115,0.125c-0.104,0.01 -0.198,0.021 -0.302,0.021c-0.219,0.01 -0.448,0.021 -0.667,0.021l-49.932,0c-0.99,0 -1.969,-0.104 -2.917,-0.313c-0.385,-0.083 -0.76,-0.177 -1.125,-0.292c-0.229,-0.073 -0.448,-0.146 -0.677,-0.219c-0.323,-0.115 -0.635,-0.25 -0.948,-0.385c-0.052,-0.031 -0.115,-0.052 -0.167,-0.083c-0.156,-0.073 -0.313,-0.146 -0.469,-0.229c-0.354,-0.177 -0.708,-0.375 -1.052,-0.583c-0.344,-0.219 -0.688,-0.448 -1.021,-0.688c-0.083,-0.052 -0.167,-0.115 -0.25,-0.177c-0.083,-0.063 -0.156,-0.125 -0.24,-0.198l-0.042,-0.031c-2.271,-1.813 -4.084,-4.303 -5.209,-7.219c-0.802,-2.084 -1.24,-4.365 -1.24,-6.772c0,2.406 -0.438,4.688 -1.24,6.772c-1.125,2.917 -2.938,5.407 -5.209,7.219l-0.042,0.031c-0.083,0.073 -0.156,0.135 -0.24,0.198c-0.083,0.063 -0.167,0.125 -0.25,0.177c-0.333,0.24 -0.677,0.469 -1.021,0.688c-0.344,0.208 -0.698,0.406 -1.052,0.583c-0.156,0.083 -0.313,0.156 -0.469,0.229c-0.052,0.031 -0.115,0.052 -0.167,0.083c-0.313,0.135 -0.625,0.26 -0.948,0.385c-0.229,0.073 -0.448,0.146 -0.677,0.219c-0.365,0.115 -0.74,0.208 -1.125,0.292c-0.948,0.208 -1.927,0.313 -2.917,0.313l-49.922,0c-0.219,0 -0.438,-0.01 -0.667,-0.021c-0.135,0 -0.25,-0.01 -0.375,-0.021c-0.146,-0.01 -0.281,-0.021 -0.427,-0.042c-0.281,-0.031 -0.563,-0.063 -0.844,-0.115c-0.229,-0.042 -0.458,-0.083 -0.688,-0.135c-0.25,-0.063 -0.49,-0.125 -0.729,-0.188c-0.74,-0.198 -1.458,-0.458 -2.146,-0.792l-0.01,0c-0.229,-0.115 -0.458,-0.229 -0.677,-0.344c-0.229,-0.115 -0.448,-0.24 -0.677,-0.375c-0.219,-0.135 -0.438,-0.271 -0.656,-0.417c-0.198,-0.135 -0.396,-0.271 -0.594,-0.417c-0.177,-0.135 -0.354,-0.271 -0.521,-0.406c-0.167,-0.135 -0.333,-0.271 -0.49,-0.417c-0.198,-0.167 -0.396,-0.354 -0.594,-0.542c-0.26,-0.26 -0.521,-0.521 -0.771,-0.802c-0.531,-0.594 -1.011,-1.219 -1.448,-1.875c-0.302,-0.448 -0.573,-0.896 -0.833,-1.375c-0.25,-0.469 -0.49,-0.958 -0.708,-1.458c-0.208,-0.5 -0.406,-1.011 -0.583,-1.542c-0.083,-0.26 -0.167,-0.531 -0.24,-0.792c-0.156,-0.542 -0.281,-1.094 -0.375,-1.656c-0.052,-0.281 -0.094,-0.563 -0.135,-0.844c-0.01,-0.021 -0.01,-0.042 -0.01,-0.063c-0.063,-0.49 -0.115,-1 -0.135,-1.5c-0.021,-0.344 -0.031,-0.698 -0.031,-1.052c0,-0.344 0.01,-0.688 0.031,-1.031c0.01,-0.344 0.042,-0.688 0.083,-1.031c0,-0.042 0.01,-0.073 0.01,-0.115c0.031,-0.24 0.063,-0.479 0.094,-0.708c0.01,-0.042 0.01,-0.083 0.021,-0.125c0.063,-0.354 0.125,-0.719 0.198,-1.063c0.146,-0.667 0.323,-1.313 0.542,-1.948c0.135,-0.406 0.292,-0.813 0.448,-1.208c0.958,-2.344 2.396,-4.407 4.157,-6.021c0.302,-0.281 0.604,-0.552 0.927,-0.802c0.188,-0.146 0.375,-0.292 0.573,-0.427c0.427,-0.323 0.865,-0.604 1.323,-0.865c0.552,-0.313 1.115,-0.594 1.698,-0.823c0.167,-0.073 0.344,-0.135 0.51,-0.198l0.156,-0.052c1.448,-0.51 2.99,-0.792 4.594,-0.792l49.922,0c3.198,0 6.167,1.094 8.626,2.969c4.063,3.094 6.73,8.313 6.73,14.231c0,-5.917 2.667,-11.137 6.73,-14.231c2.459,-1.875 5.428,-2.969 8.626,-2.969l49.932,0c1.365,0 2.698,0.208 3.969,0.583l0.886,0.302c0.135,0.042 0.26,0.094 0.385,0.146c0.052,0.021 0.094,0.042 0.146,0.063c0.271,0.115 0.542,0.24 0.813,0.375c0.292,0.146 0.583,0.302 0.875,0.469c0.042,0.021 0.083,0.052 0.135,0.083Z" style="fill-rule:nonzero;"/><path d="M193.657,219.606c-2.261,1.406 -4.855,2.198 -7.574,2.198l-158.703,0c-7.251,0 -13.564,-5.594 -15.231,-13.501l-10.116,-48.099c-2.313,-11.001 5.136,-21.544 15.231,-21.544l1.927,0c2.459,0 4.792,0.583 6.897,1.625c2.886,1.427 5.355,3.73 7.126,6.605c-0.292,0.104 -0.594,0.219 -0.886,0.333c-2.261,0.917 -4.355,2.156 -6.24,3.667c-6.417,5.126 -10.418,13.335 -10.418,22.179c0,7.157 2.542,13.939 7.147,19.096c4.834,5.407 11.626,8.511 18.637,8.511l49.922,0c5.74,0 11.064,-2.021 15.356,-5.438c4.292,3.417 9.616,5.438 15.356,5.438l49.932,0c9.063,0 17.054,-5.042 21.638,-12.647c2.615,-4.313 4.136,-9.449 4.136,-14.96c0,-5.407 -1.438,-10.595 -4.136,-15.033c-0.865,-1.448 -1.875,-2.813 -3.011,-4.073c-1,-1.136 -2.104,-2.167 -3.271,-3.094c-1.917,-1.521 -4.021,-2.75 -6.23,-3.646c-0.292,-0.115 -0.583,-0.229 -0.886,-0.333c1.771,-2.875 4.23,-5.167 7.115,-6.594c1.938,-0.958 4.052,-1.531 6.282,-1.615c0.208,-0.021 0.417,-0.021 0.625,-0.021l1.927,0c4.292,0 8.115,1.917 10.897,4.959c2.167,2.365 3.709,5.407 4.375,8.772c0.479,2.396 0.51,4.948 0,7.532c-0.01,0.094 -0.031,0.188 -0.052,0.281l-6.23,29.618l-3.886,18.481c-1.042,4.938 -3.886,8.97 -7.657,11.303Z" style="fill-rule:nonzero;"/><g><path d="M259.122,108.522l-33.993,0c-2.927,0 -5.313,2.396 -5.313,5.313l0,2.167c0,2.927 2.396,5.313 5.313,5.313l33.993,0c2.927,0 5.313,-2.396 5.313,-5.313l0,-2.167c0,-2.927 -2.396,-5.313 -5.313,-5.313Z" style="fill-rule:nonzero;"/></g></g><path d="M203.001,66.872c-3.302,0 -5.865,-1.834 -7.699,-5.532l0,-13.71l26.273,0c2.5,0 4.521,-2.021 4.521,-4.511c0,-0.99 -0.323,-1.917 -0.886,-2.677c-0.563,-0.76 -1.354,-1.344 -2.302,-1.625c-4.115,-1.25 -7.647,-3.573 -10.574,-6.959c-2.25,-2.604 -3.802,-5.49 -4.667,-8.678c-0.906,-3.302 2.156,-6.428 5.469,-5.532c3.771,1.011 7.126,2.99 10.074,5.938c4.49,4.49 6.73,9.938 6.73,16.356c0,-6.417 2.25,-11.866 6.73,-16.356c2.948,-2.948 6.303,-4.928 10.074,-5.938c3.323,-0.896 6.376,2.229 5.469,5.532c-0.865,3.188 -2.417,6.074 -4.667,8.678c-2.927,3.386 -6.459,5.709 -10.574,6.959c-1.896,0.573 -3.188,2.323 -3.188,4.303c0,1.25 0.51,2.375 1.323,3.188c0.813,0.813 1.948,1.323 3.198,1.323l26.273,0l0,13.71c-1.834,3.698 -4.396,5.532 -7.699,5.532l-53.88,0Z" style="fill-rule:nonzero;"/><path d="M280.322,83.363l-28.534,0l1.761,-7.022c0.708,-2.854 -1.438,-5.615 -4.375,-5.615l-38.452,0c-2.948,0 -5.094,2.761 -4.386,5.615l1.761,7.022l-4.167,0c-5.667,0 -10.272,5.146 -10.272,11.501l0,33.389c0.208,-0.01 0.417,-0.01 0.625,-0.01l1.927,0c7.542,0 14.71,3.49 19.648,9.574c0.25,0.313 0.5,0.635 0.74,0.958l52.182,0c5.678,0 10.272,5.157 10.272,11.501l0,52.182l-65.861,0l-1.677,7.99c-2.125,10.074 -9.032,17.762 -17.856,20.596l0,14.637l23.086,0l0,-25.857l50.776,0l0,25.857l23.075,0l0,-150.817c0,-6.355 -4.594,-11.501 -10.272,-11.501Zm-1.271,36.879c0,6.344 -4.594,11.501 -10.272,11.501l-53.307,0c-5.678,0 -10.272,-5.157 -10.272,-11.501l0,-10.647c0,-6.344 4.594,-11.501 10.272,-11.501l53.307,0c5.678,0 10.272,5.157 10.272,11.501l0,10.647Z" style="fill-rule:nonzero;"/></svg>