<?xml version="1.0" encoding="utf-8"?>
<!-- Generator: Adobe Illustrator 23.0.1, SVG Export Plug-In . SVG Version: 6.00 Build 0)  -->
<svg version="1.1" id="Layer_1" xmlns="http://www.w3.org/2000/svg" xmlns:xlink="http://www.w3.org/1999/xlink" x="0px" y="0px"
	 viewBox="0 0 300 300" style="enable-background:new 0 0 300 300;" xml:space="preserve">
<style type="text/css">
	.st0{stroke:#000000;stroke-width:3;stroke-miterlimit:10;}
	.st1{fill:#E3E3E3;}
</style>
<g>
	<path d="M31.26,129.42c0.35,0.1,0.71,0.21,1.06,0.34c-0.35-0.12-0.7-0.22-1.06-0.33V129.42z"/>
	<path d="M185.36,129.42v0.01c-0.24,0.07-0.47,0.14-0.7,0.22C184.89,129.56,185.13,129.49,185.36,129.42z"/>
	<path d="M32.32,129.76c-0.35-0.12-0.7-0.22-1.06-0.33v-0.01C31.61,129.52,31.97,129.63,32.32,129.76z"/>
	<path d="M185.36,129.42v0.01c-0.24,0.07-0.47,0.14-0.7,0.22C184.89,129.56,185.13,129.49,185.36,129.42z"/>
	<path d="M32.32,129.76c-0.35-0.13-0.71-0.24-1.06-0.34c2.56-18.25,18.22-32.28,37.17-32.28h79.77c18.94,0,34.6,14.03,37.16,32.28
		c-0.23,0.07-0.47,0.14-0.7,0.23c-0.47,0.15-0.93,0.32-1.39,0.49c-0.67,0.27-1.33,0.56-1.98,0.89c-0.01,0-0.02,0.01-0.03,0.01
		c-0.27,0.13-0.53,0.26-0.79,0.41c-0.82,0.43-1.6,0.91-2.37,1.44c0,0,0,0.01-0.01,0.01c-0.51,0.35-1.01,0.71-1.49,1.11
		c-0.73,0.58-1.43,1.2-2.1,1.87c-0.23,0.21-0.45,0.44-0.66,0.67c-0.45,0.46-0.87,0.93-1.25,1.42c-1.09,1.3-2.06,2.71-2.89,4.21
		l-0.01,0.02c-0.49,0.88-0.94,1.79-1.34,2.73h-45.3c-5.51,0-10.62,1.94-14.74,5.22c-4.12-3.28-9.23-5.22-14.74-5.22h-45.3
		c-0.52-1.21-1.11-2.38-1.79-3.49c-0.22-0.4-0.47-0.79-0.74-1.17c-0.16-0.27-0.34-0.53-0.54-0.79c-0.19-0.26-0.38-0.52-0.57-0.77
		c-0.13-0.18-0.27-0.36-0.43-0.54c-0.11-0.15-0.24-0.3-0.36-0.45c-0.3-0.36-0.61-0.71-0.94-1.05c-0.05-0.06-0.11-0.12-0.16-0.17
		c-0.18-0.2-0.37-0.4-0.57-0.57c-0.25-0.26-0.51-0.51-0.78-0.76c-0.21-0.19-0.42-0.38-0.64-0.56c-0.17-0.15-0.34-0.3-0.52-0.44
		c-0.15-0.13-0.3-0.25-0.46-0.36c-0.16-0.13-0.32-0.25-0.47-0.36c-0.2-0.15-0.39-0.29-0.59-0.43c-0.58-0.41-1.18-0.79-1.8-1.16
		c-0.23-0.13-0.46-0.26-0.7-0.38c-0.29-0.16-0.58-0.31-0.87-0.46c-0.01,0-0.01-0.01-0.02-0.01c-0.34-0.17-0.69-0.33-1.04-0.48
		c-0.31-0.14-0.62-0.27-0.93-0.39C33.01,130,32.66,129.88,32.32,129.76z"/>
	<rect x="44.84" y="228.23" width="22.31" height="14.99"/>
	<path d="M218.6,161.16c1.12-5.35,0.66-10.89-1.19-15.87h46.45c2.11,0,3.83,1.92,3.83,4.28v43.33h-55.77L218.6,161.16z"/>
	<rect x="149.47" y="228.23" width="22.31" height="14.99"/>
	<path d="M177.9,156.87c0.26,0.15,0.52,0.32,0.77,0.49c0.25,0.17,0.49,0.35,0.73,0.54c0.03,0.02,0.07,0.04,0.1,0.07
		c0.02,0.02,0.04,0.03,0.06,0.05c0.22,0.18,0.44,0.36,0.65,0.55c0.2,0.18,0.41,0.38,0.61,0.58c0.2,0.2,0.4,0.41,0.59,0.63
		c0.13,0.14,0.26,0.29,0.38,0.44c0.13,0.15,0.25,0.31,0.37,0.47c0.13,0.16,0.25,0.32,0.37,0.49c0.09,0.14,0.18,0.27,0.27,0.41
		c0.02,0.02,0.04,0.05,0.05,0.07c0.17,0.25,0.33,0.51,0.48,0.78c0.05,0.06,0.09,0.13,0.12,0.2c0.05,0.06,0.08,0.12,0.11,0.19
		c0.14,0.26,0.27,0.52,0.4,0.79c0.08,0.17,0.16,0.34,0.24,0.51c0.1,0.23,0.2,0.47,0.29,0.7c0.09,0.24,0.18,0.48,0.26,0.72
		c0.06,0.17,0.11,0.33,0.17,0.5c0.07,0.24,0.14,0.48,0.2,0.72c0.11,0.41,0.21,0.83,0.28,1.26c0.04,0.18,0.07,0.36,0.09,0.55
		c0.01,0.03,0.02,0.06,0.02,0.09c0.06,0.36,0.1,0.72,0.13,1.09c0.03,0.23,0.04,0.46,0.05,0.71c0.02,0.33,0.03,0.65,0.03,0.98
		s-0.01,0.66-0.03,0.98c-0.02,0.42-0.05,0.83-0.11,1.23c-0.02,0.18-0.04,0.34-0.06,0.51c-0.06,0.37-0.12,0.74-0.2,1.1
		c-0.03,0.15-0.06,0.3-0.1,0.45c-0.04,0.15-0.08,0.31-0.12,0.46c-0.08,0.28-0.16,0.56-0.24,0.83c-0.06,0.18-0.12,0.36-0.18,0.53
		c-0.1,0.27-0.19,0.53-0.3,0.78c-0.06,0.15-0.13,0.3-0.19,0.45c-0.16,0.37-0.34,0.72-0.52,1.07c-0.08,0.16-0.16,0.3-0.25,0.45
		c-0.12,0.21-0.24,0.41-0.36,0.61c0,0.01-0.01,0.01-0.01,0.02c-0.04,0.06-0.08,0.12-0.12,0.18c-0.49,0.76-1.03,1.46-1.61,2.1
		c-0.14,0.16-0.29,0.31-0.43,0.46c-0.25,0.25-0.49,0.48-0.75,0.71c-0.01,0.02-0.03,0.03-0.04,0.04c-0.1,0.09-0.2,0.18-0.31,0.26
		c-0.18,0.16-0.38,0.31-0.57,0.46c-0.6,0.45-1.24,0.86-1.9,1.21c-0.07,0.04-0.15,0.08-0.22,0.12c-0.12,0.06-0.25,0.13-0.38,0.19
		h-0.01c-0.13,0.07-0.25,0.13-0.38,0.18c-0.09,0.03-0.17,0.07-0.25,0.1c-0.36,0.15-0.73,0.29-1.11,0.4
		c-0.14,0.05-0.29,0.09-0.44,0.13c-0.39,0.11-0.78,0.2-1.18,0.27c-0.12,0.03-0.25,0.05-0.37,0.06c-0.35,0.06-0.71,0.1-1.07,0.12
		c-0.1,0.01-0.19,0.02-0.29,0.02c-0.21,0.01-0.43,0.02-0.64,0.02h-47.93c-0.95,0-1.89-0.1-2.8-0.3c-0.37-0.08-0.73-0.17-1.08-0.28
		c-0.22-0.07-0.43-0.14-0.65-0.21c-0.31-0.11-0.61-0.24-0.91-0.37c-0.05-0.03-0.11-0.05-0.16-0.08c-0.15-0.07-0.3-0.14-0.45-0.22
		c-0.34-0.17-0.68-0.36-1.01-0.56c-0.33-0.21-0.66-0.43-0.98-0.66c-0.08-0.05-0.16-0.11-0.24-0.17s-0.15-0.12-0.23-0.19l-0.04-0.03
		c-2.18-1.74-3.92-4.13-5-6.93c-0.77-2-1.19-4.19-1.19-6.5c0,2.31-0.42,4.5-1.19,6.5c-1.08,2.8-2.82,5.19-5,6.93l-0.04,0.03
		c-0.08,0.07-0.15,0.13-0.23,0.19c-0.08,0.06-0.16,0.12-0.24,0.17c-0.32,0.23-0.65,0.45-0.98,0.66c-0.33,0.2-0.67,0.39-1.01,0.56
		c-0.15,0.08-0.3,0.15-0.45,0.22c-0.05,0.03-0.11,0.05-0.16,0.08c-0.3,0.13-0.6,0.25-0.91,0.37c-0.22,0.07-0.43,0.14-0.65,0.21
		c-0.35,0.11-0.71,0.2-1.08,0.28c-0.91,0.2-1.85,0.3-2.8,0.3H45.65c-0.21,0-0.42-0.01-0.64-0.02c-0.13,0-0.24-0.01-0.36-0.02
		c-0.14-0.01-0.27-0.02-0.41-0.04c-0.27-0.03-0.54-0.06-0.81-0.11c-0.22-0.04-0.44-0.08-0.66-0.13c-0.24-0.06-0.47-0.12-0.7-0.18
		c-0.71-0.19-1.4-0.44-2.06-0.76c0,0,0,0-0.01,0c-0.22-0.11-0.44-0.22-0.65-0.33c-0.22-0.11-0.43-0.23-0.65-0.36
		c-0.21-0.13-0.42-0.26-0.63-0.4c-0.19-0.13-0.38-0.26-0.57-0.4c-0.17-0.13-0.34-0.26-0.5-0.39c-0.16-0.13-0.32-0.26-0.47-0.4
		c-0.19-0.16-0.38-0.34-0.57-0.52c-0.25-0.25-0.5-0.5-0.74-0.77c-0.51-0.57-0.97-1.17-1.39-1.8c-0.29-0.43-0.55-0.86-0.8-1.32
		c-0.24-0.45-0.47-0.92-0.68-1.4c-0.2-0.48-0.39-0.97-0.56-1.48c-0.08-0.25-0.16-0.51-0.23-0.76c-0.15-0.52-0.27-1.05-0.36-1.59
		c-0.05-0.27-0.09-0.54-0.13-0.81c-0.01-0.02-0.01-0.04-0.01-0.06c-0.06-0.47-0.11-0.96-0.13-1.44c-0.02-0.33-0.03-0.67-0.03-1.01
		c0-0.33,0.01-0.66,0.03-0.99c0.01-0.33,0.04-0.66,0.08-0.99c0-0.04,0.01-0.07,0.01-0.11c0.03-0.23,0.06-0.46,0.09-0.68
		c0.01-0.04,0.01-0.08,0.02-0.12c0.06-0.34,0.12-0.69,0.19-1.02c0.14-0.64,0.31-1.26,0.52-1.87c0.13-0.39,0.28-0.78,0.43-1.16
		c0.92-2.25,2.3-4.23,3.99-5.78c0.29-0.27,0.58-0.53,0.89-0.77c0.18-0.14,0.36-0.28,0.55-0.41c0.41-0.31,0.83-0.58,1.27-0.83
		c0.53-0.3,1.07-0.57,1.63-0.79c0.16-0.07,0.33-0.13,0.49-0.19l0.15-0.05c1.39-0.49,2.87-0.76,4.41-0.76h47.92
		c3.07,0,5.92,1.05,8.28,2.85c3.9,2.97,6.46,7.98,6.46,13.66c0-5.68,2.56-10.69,6.46-13.66c2.36-1.8,5.21-2.85,8.28-2.85h47.93
		c1.31,0,2.59,0.2,3.81,0.56l0.85,0.29c0.13,0.04,0.25,0.09,0.37,0.14c0.05,0.02,0.09,0.04,0.14,0.06c0.26,0.11,0.52,0.23,0.78,0.36
		c0.28,0.14,0.56,0.29,0.84,0.45C177.81,156.81,177.85,156.84,177.9,156.87z"/>
	<path d="M191.75,216.12c-2.17,1.35-4.66,2.11-7.27,2.11H32.14c-6.96,0-13.02-5.37-14.62-12.96L7.81,159.1
		c-2.22-10.56,4.93-20.68,14.62-20.68h1.85c2.36,0,4.6,0.56,6.62,1.56c2.77,1.37,5.14,3.58,6.84,6.34c-0.28,0.1-0.57,0.21-0.85,0.32
		c-2.17,0.88-4.18,2.07-5.99,3.52c-6.16,4.92-10,12.8-10,21.29c0,6.87,2.44,13.38,6.86,18.33c4.64,5.19,11.16,8.17,17.89,8.17h47.92
		c5.51,0,10.62-1.94,14.74-5.22c4.12,3.28,9.23,5.22,14.74,5.22h47.93c8.7,0,16.37-4.84,20.77-12.14c2.51-4.14,3.97-9.07,3.97-14.36
		c0-5.19-1.38-10.17-3.97-14.43c-0.83-1.39-1.8-2.7-2.89-3.91c-0.96-1.09-2.02-2.08-3.14-2.97c-1.84-1.46-3.86-2.64-5.98-3.5
		c-0.28-0.11-0.56-0.22-0.85-0.32c1.7-2.76,4.06-4.96,6.83-6.33c1.86-0.92,3.89-1.47,6.03-1.55c0.2-0.02,0.4-0.02,0.6-0.02h1.85
		c4.12,0,7.79,1.84,10.46,4.76c2.08,2.27,3.56,5.19,4.2,8.42c0.46,2.3,0.49,4.75,0,7.23c-0.01,0.09-0.03,0.18-0.05,0.27l-5.98,28.43
		l-3.73,17.74C198.1,210.01,195.37,213.88,191.75,216.12z"/>
	<g>
		<path d="M254.59,109.49h-32.63c-2.81,0-5.1,2.3-5.1,5.1v2.08c0,2.81,2.3,5.1,5.1,5.1h32.63c2.81,0,5.1-2.3,5.1-5.1v-2.08
			C259.69,111.78,257.39,109.49,254.59,109.49z"/>
	</g>
</g>
<path d="M200.72,69.51c-3.17,0-5.63-1.76-7.39-5.31V51.04h25.22c2.4,0,4.34-1.94,4.34-4.33c0-0.95-0.31-1.84-0.85-2.57
	c-0.54-0.73-1.3-1.29-2.21-1.56c-3.95-1.2-7.34-3.43-10.15-6.68c-2.16-2.5-3.65-5.27-4.48-8.33c-0.87-3.17,2.07-6.17,5.25-5.31
	c3.62,0.97,6.84,2.87,9.67,5.7c4.31,4.31,6.46,9.54,6.46,15.7c0-6.16,2.16-11.39,6.46-15.7c2.83-2.83,6.05-4.73,9.67-5.7
	c3.19-0.86,6.12,2.14,5.25,5.31c-0.83,3.06-2.32,5.83-4.48,8.33c-2.81,3.25-6.2,5.48-10.15,6.68c-1.82,0.55-3.06,2.23-3.06,4.13
	c0,1.2,0.49,2.28,1.27,3.06c0.78,0.78,1.87,1.27,3.07,1.27h25.22V64.2c-1.76,3.55-4.22,5.31-7.39,5.31H200.72z"/>
<path d="M274.94,85.34h-27.39l1.69-6.74c0.68-2.74-1.38-5.39-4.2-5.39h-36.91c-2.83,0-4.89,2.65-4.21,5.39l1.69,6.74h-4
	c-5.44,0-9.86,4.94-9.86,11.04v32.05c0.2-0.01,0.4-0.01,0.6-0.01h1.85c7.24,0,14.12,3.35,18.86,9.19c0.24,0.3,0.48,0.61,0.71,0.92
	h50.09c5.45,0,9.86,4.95,9.86,11.04v50.09H210.5l-1.61,7.67c-2.04,9.67-8.67,17.05-17.14,19.77v14.05h22.16v-24.82h48.74v24.82
	h22.15V96.38C284.8,90.28,280.39,85.34,274.94,85.34z M273.72,120.74c0,6.09-4.41,11.04-9.86,11.04h-51.17
	c-5.45,0-9.86-4.95-9.86-11.04v-10.22c0-6.09,4.41-11.04,9.86-11.04h51.17c5.45,0,9.86,4.95,9.86,11.04V120.74z"/>
</svg>
