<?xml version="1.0" encoding="UTF-8" standalone="no"?><!DOCTYPE svg PUBLIC "-//W3C//DTD SVG 1.1//EN" "http://www.w3.org/Graphics/SVG/1.1/DTD/svg11.dtd"><svg width="100%" height="100%" viewBox="0 0 300 300" version="1.1" xmlns="http://www.w3.org/2000/svg" xmlns:xlink="http://www.w3.org/1999/xlink" xml:space="preserve" xmlns:serif="http://www.serif.com/" style="fill-rule:evenodd;clip-rule:evenodd;stroke-linejoin:round;stroke-miterlimit:2;"><g><path d="M244.011,154.437l2.174,-0.522l0,2.228l-2.174,0.522l0,-2.228Z" style="fill-rule:nonzero;"/><path d="M298.49,112.111c-0.109,0.326 -0.228,0.652 -0.359,0.967c-0.63,1.63 -1.424,3.098 -2.402,4.315c-1.359,1.739 -3.054,2.967 -5.087,3.457l-7.924,1.902l0,-7.88c0,-3.587 -2.576,-6.663 -6.12,-7.283l-45.587,-7.989l-1.848,-0.326l-0.011,0l-14.511,-2.543l-0.011,0l-1.837,-0.326l-59.903,-10.489c-4.022,-0.707 -7.859,1.989 -8.565,6.011c-0.293,1.717 0.022,3.391 0.793,4.804c1.033,1.913 2.913,3.359 5.217,3.761l61.163,10.717l15.696,2.75l24.576,4.304l14.37,2.511l0.011,0.011l1.772,0.304l0,5.228l-11.761,2.837l-9.978,2.402l-2.174,0.522l-2.402,0.576l-92.348,22.25c-1.065,0.25 -2.141,0.239 -3.196,-0.043l-101.74,-27.489l-23.511,-6.359l-2.174,-0.587l-9.467,-2.554c-12.337,-3.326 -12.185,-34 0.185,-36.989l141.392,-34.055c1.054,-0.25 2.13,-0.239 3.185,0.043l136.892,36.989c8.62,2.326 11.141,17.989 7.663,28.25Z" style="fill-rule:nonzero;"/><path d="M295.131,225.698c-1.293,1.293 -2.978,1.935 -4.674,1.935c-1.685,0 -3.37,-0.641 -4.663,-1.935c-0.391,-0.391 -0.772,-0.783 -1.152,-1.174c-1.641,-1.717 -3.12,-3.424 -4.457,-5.109c-0.478,-0.598 -0.924,-1.185 -1.359,-1.772c-0.717,-0.957 -1.37,-1.891 -1.989,-2.815c-0.848,-1.272 -1.62,-2.522 -2.315,-3.728c-0.533,0.859 -1.109,1.717 -1.739,2.598c-0.217,0.315 -0.446,0.641 -0.674,0.957c-0.63,0.88 -1.304,1.772 -2.033,2.674c-0.413,0.522 -0.837,1.033 -1.283,1.565c-0.087,0.098 -0.174,0.207 -0.261,0.304c-0.228,0.261 -0.457,0.522 -0.696,0.793c-0.87,0.989 -1.793,2 -2.793,3c-0.13,0.141 -0.283,0.293 -0.424,0.435c-0.239,0.239 -0.5,0.467 -0.772,0.663c-0.739,0.543 -1.576,0.902 -2.435,1.098l-0.011,0c-0.478,0.109 -0.957,0.163 -1.446,0.163c-1.63,0 -3.261,-0.598 -4.533,-1.793l0,-0.011c-0.043,-0.033 -0.098,-0.076 -0.141,-0.12c-2.576,-2.587 -2.576,-6.761 0,-9.348c0.663,-0.652 1.283,-1.304 1.88,-1.957c0.087,-0.098 0.174,-0.196 0.261,-0.293c0.109,-0.109 0.196,-0.217 0.293,-0.315c0.761,-0.859 1.467,-1.696 2.12,-2.522c0.109,-0.141 0.217,-0.272 0.326,-0.413c0.043,-0.054 0.087,-0.109 0.13,-0.163c0.315,-0.402 0.62,-0.804 0.913,-1.196l0.011,-0.011c0.217,-0.315 0.435,-0.609 0.652,-0.913c0.565,-0.804 1.087,-1.598 1.565,-2.359c0.446,-0.696 0.848,-1.38 1.228,-2.033c0.772,-1.38 1.424,-2.663 1.957,-3.826c-0.467,-0.5 -0.891,-1.043 -1.272,-1.609c-1.13,-1.717 -1.837,-3.739 -1.957,-5.924c-0.011,-0.228 -0.022,-0.467 -0.022,-0.707c0,-3.815 1.783,-7.228 4.554,-9.435l0,-29.478l2.174,-0.533l12.62,-3.043l0,32.87c2.913,2.207 4.783,5.696 4.783,9.62c0,0.957 -0.109,1.88 -0.315,2.772c-0.022,0.065 -0.033,0.13 -0.054,0.196c-0.141,0.565 -0.326,1.109 -0.543,1.641c-0.685,1.641 -1.707,3.109 -3.011,4.294c-0.065,0.065 -0.13,0.12 -0.196,0.174c-0.043,0.043 -0.087,0.087 -0.141,0.13c0.902,2.152 2.228,4.826 4.141,7.783c0.663,1.022 1.402,2.087 2.217,3.163c0.641,0.87 1.337,1.75 2.098,2.63c0.043,0.065 0.098,0.12 0.152,0.185c1,1.174 2.087,2.359 3.283,3.554c2.576,2.576 2.576,6.761 0,9.337Z" style="fill-rule:nonzero;"/><path d="M262.729,203.187l1.935,-1.283c-0.38,0.652 -0.783,1.337 -1.228,2.033c-0.478,0.761 -1,1.554 -1.565,2.359c-0.217,0.304 -0.435,0.598 -0.652,0.913l-0.011,0.011c-0.293,0.391 -0.598,0.793 -0.913,1.196c-0.043,0.054 -0.087,0.109 -0.13,0.163l-1.707,-2.543l4.272,-2.848Z" style="fill-rule:nonzero;"/><path d="M267.925,148.676l2.174,-0.522l0,2.239l-2.174,0.533l0,-2.25Z" style="fill-rule:nonzero;"/><path d="M292.077,212.34c-0.076,0.163 -0.152,0.315 -0.228,0.467c-0.054,-0.065 -0.109,-0.12 -0.152,-0.185c0.13,-0.087 0.261,-0.185 0.38,-0.283Z" style="fill-rule:nonzero;"/><path d="M270.099,148.154l0,2.239l-2.174,0.533l0,-2.25l2.174,-0.522Z" style="fill-rule:nonzero;"/><path d="M263.436,203.937c-0.478,0.761 -1,1.554 -1.565,2.359c-0.217,0.304 -0.435,0.598 -0.652,0.913l-0.011,0.011c-0.293,0.391 -0.598,0.793 -0.913,1.196c-0.043,0.054 -0.087,0.109 -0.13,0.163l-1.707,-2.543l4.272,-2.848l0.707,0.75Z" style="fill-rule:nonzero;"/><path d="M261.207,207.22c-0.293,0.391 -0.598,0.793 -0.913,1.196l-0.293,-0.37l1.207,-0.826Z" style="fill-rule:nonzero;"/><path d="M244.011,154.437l2.174,-0.522l0,2.228l-2.174,0.522l0,-2.228Z" style="fill-rule:nonzero;"/><path d="M270.099,123.556l0,0.011l-1.946,0.467l-0.228,0.054l0,-0.011l2.174,-0.522Z" style="fill-rule:nonzero;"/><path d="M262.729,203.187l1.935,-1.283c-0.38,0.652 -0.783,1.337 -1.228,2.033c-0.478,0.761 -1,1.554 -1.565,2.359c-0.217,0.304 -0.435,0.598 -0.652,0.913l-0.011,0.011c-0.293,0.391 -0.598,0.793 -0.913,1.196c-0.043,0.054 -0.087,0.109 -0.13,0.163l-1.707,-2.543l4.272,-2.848Z" style="fill-rule:nonzero;"/><path d="M270.099,148.154l0,2.239l-2.174,0.533l0,-2.25l2.174,-0.522Z" style="fill-rule:nonzero;"/><path d="M246.185,153.915l0,2.228l-2.174,0.522l0,-2.228l2.174,-0.522Z" style="fill-rule:nonzero;"/><g><g><g><path d="M244.011,154.437l2.174,-0.522l0,2.228l-2.174,0.522l0,-2.228Z" style="fill-rule:nonzero;"/><path d="M270.099,148.154l0,2.239l-2.174,0.533l0,-2.25l2.174,-0.522Z" style="fill-rule:nonzero;"/><path d="M270.099,123.556l0,0.011l-1.946,0.467l-0.228,0.054l0,-0.011l2.174,-0.522Z" style="fill-rule:nonzero;"/><path d="M263.436,203.937c-0.478,0.761 -1,1.554 -1.565,2.359c-0.217,0.304 -0.435,0.598 -0.652,0.913l-0.011,0.011c-0.293,0.391 -0.598,0.793 -0.913,1.196c-0.043,0.054 -0.087,0.109 -0.13,0.163l-1.707,-2.543l4.272,-2.848l0.707,0.75Z" style="fill-rule:nonzero;"/><path d="M261.207,207.22c-0.293,0.391 -0.598,0.793 -0.913,1.196l-0.293,-0.37l1.207,-0.826Z" style="fill-rule:nonzero;"/><path d="M262.729,203.187l1.935,-1.283c-0.38,0.652 -0.783,1.337 -1.228,2.033c-0.478,0.761 -1,1.554 -1.565,2.359c-0.217,0.304 -0.435,0.598 -0.652,0.913l-0.011,0.011c-0.293,0.391 -0.598,0.793 -0.913,1.196c-0.043,0.054 -0.087,0.109 -0.13,0.163l-1.707,-2.543l4.272,-2.848Z" style="fill-rule:nonzero;"/><path d="M292.077,212.34c-0.076,0.163 -0.152,0.315 -0.228,0.467c-0.054,-0.065 -0.109,-0.12 -0.152,-0.185c0.13,-0.087 0.261,-0.185 0.38,-0.283Z" style="fill-rule:nonzero;"/><path d="M292.077,212.34c-0.076,0.163 -0.152,0.315 -0.228,0.467c-0.054,-0.065 -0.109,-0.12 -0.152,-0.185c0.13,-0.087 0.261,-0.185 0.38,-0.283Z" style="fill-rule:nonzero;"/></g></g><g><path d="M263.436,203.937c-0.478,0.761 -1,1.554 -1.565,2.359c-0.217,0.304 -0.435,0.598 -0.652,0.913l-0.011,0.011c-0.293,0.391 -0.598,0.793 -0.913,1.196c-0.043,0.054 -0.087,0.109 -0.13,0.163l-1.707,-2.543l4.272,-2.848l0.707,0.75Z" style="fill-rule:nonzero;"/><path d="M261.207,207.22c-0.293,0.391 -0.598,0.793 -0.913,1.196l-0.293,-0.37l1.207,-0.826Z" style="fill-rule:nonzero;"/><path d="M262.729,203.187l1.935,-1.283c-0.38,0.652 -0.783,1.337 -1.228,2.033c-0.478,0.761 -1,1.554 -1.565,2.359c-0.217,0.304 -0.435,0.598 -0.652,0.913l-0.011,0.011c-0.293,0.391 -0.598,0.793 -0.913,1.196c-0.043,0.054 -0.087,0.109 -0.13,0.163l-1.707,-2.543l4.272,-2.848Z" style="fill-rule:nonzero;"/><path d="M292.077,212.34c-0.076,0.163 -0.152,0.315 -0.228,0.467c-0.054,-0.065 -0.109,-0.12 -0.152,-0.185c0.13,-0.087 0.261,-0.185 0.38,-0.283Z" style="fill-rule:nonzero;"/><path d="M292.077,212.34c-0.076,0.163 -0.152,0.315 -0.228,0.467c-0.054,-0.065 -0.109,-0.12 -0.152,-0.185c0.13,-0.087 0.261,-0.185 0.38,-0.283Z" style="fill-rule:nonzero;"/><path d="M262.729,203.187l1.935,-1.283c-0.38,0.652 -0.783,1.337 -1.228,2.033c-0.478,0.761 -1,1.554 -1.565,2.359c-0.217,0.304 -0.435,0.598 -0.652,0.913l-0.011,0.011c-0.293,0.391 -0.598,0.793 -0.913,1.196c-0.043,0.054 -0.087,0.109 -0.13,0.163l-1.707,-2.543l4.272,-2.848Z" style="fill-rule:nonzero;"/><path d="M292.077,212.34c-0.076,0.163 -0.152,0.315 -0.228,0.467c-0.054,-0.065 -0.109,-0.12 -0.152,-0.185c0.13,-0.087 0.261,-0.185 0.38,-0.283Z" style="fill-rule:nonzero;"/><path d="M292.077,212.34c-0.076,0.163 -0.152,0.315 -0.228,0.467c-0.054,-0.065 -0.109,-0.12 -0.152,-0.185c0.13,-0.087 0.261,-0.185 0.38,-0.283Z" style="fill-rule:nonzero;"/></g><g><path d="M263.436,203.937c-0.478,0.761 -1,1.554 -1.565,2.359c-0.217,0.304 -0.435,0.598 -0.652,0.913l-0.011,0.011c-0.293,0.391 -0.598,0.793 -0.913,1.196c-0.043,0.054 -0.087,0.109 -0.13,0.163l-1.707,-2.543l4.272,-2.848l0.707,0.75Z" style="fill-rule:nonzero;"/><path d="M261.207,207.22c-0.293,0.391 -0.598,0.793 -0.913,1.196l-0.293,-0.37l1.207,-0.826Z" style="fill-rule:nonzero;"/><path d="M262.729,203.187l1.935,-1.283c-0.38,0.652 -0.783,1.337 -1.228,2.033c-0.478,0.761 -1,1.554 -1.565,2.359c-0.217,0.304 -0.435,0.598 -0.652,0.913l-0.011,0.011c-0.293,0.391 -0.598,0.793 -0.913,1.196c-0.043,0.054 -0.087,0.109 -0.13,0.163l-1.707,-2.543l4.272,-2.848Z" style="fill-rule:nonzero;"/><path d="M292.077,212.34c-0.076,0.163 -0.152,0.315 -0.228,0.467c-0.054,-0.065 -0.109,-0.12 -0.152,-0.185c0.13,-0.087 0.261,-0.185 0.38,-0.283Z" style="fill-rule:nonzero;"/><path d="M292.077,212.34c-0.076,0.163 -0.152,0.315 -0.228,0.467c-0.054,-0.065 -0.109,-0.12 -0.152,-0.185c0.13,-0.087 0.261,-0.185 0.38,-0.283Z" style="fill-rule:nonzero;"/><path d="M262.729,203.187l1.935,-1.283c-0.38,0.652 -0.783,1.337 -1.228,2.033c-0.478,0.761 -1,1.554 -1.565,2.359c-0.217,0.304 -0.435,0.598 -0.652,0.913l-0.011,0.011c-0.293,0.391 -0.598,0.793 -0.913,1.196c-0.043,0.054 -0.087,0.109 -0.13,0.163l-1.707,-2.543l4.272,-2.848Z" style="fill-rule:nonzero;"/><path d="M292.077,212.34c-0.076,0.163 -0.152,0.315 -0.228,0.467c-0.054,-0.065 -0.109,-0.12 -0.152,-0.185c0.13,-0.087 0.261,-0.185 0.38,-0.283Z" style="fill-rule:nonzero;"/><path d="M292.077,212.34c-0.076,0.163 -0.152,0.315 -0.228,0.467c-0.054,-0.065 -0.109,-0.12 -0.152,-0.185c0.13,-0.087 0.261,-0.185 0.38,-0.283Z" style="fill-rule:nonzero;"/><path d="M244.011,172.285c-2.957,5.283 -4.554,11.294 -4.554,17.554c0,0.609 0.022,1.207 0.043,1.815l0.011,0.196c0.022,0.402 0.054,0.793 0.087,1.185c0.076,0.837 0.185,1.674 0.315,2.5l-0.489,0.554c-0.293,0.315 -0.598,0.641 -0.924,0.957l-0.163,0.163c-3.609,3.63 -6.12,7.946 -7.522,12.533c-2,6.533 -1.772,13.609 0.696,20.022l0,4.13c0,0 7.5,7.054 7.652,7.196c0.902,0.837 1.848,1.62 2.837,2.326c-7.435,6.217 -17,9.935 -27.424,9.935l-129.153,0c-23.674,0 -42.87,-19.185 -42.87,-42.87l0,-58.816l97.305,26.283c2.565,0.696 5.217,1.043 7.88,1.043c2.348,0 4.696,-0.272 7,-0.804l89.272,-21.522l0,15.62Z" style="fill-rule:nonzero;"/><path d="M263.436,203.937c-0.478,0.761 -1,1.554 -1.565,2.359c-0.217,0.304 -0.435,0.598 -0.652,0.913l-0.011,0.011c-0.293,0.391 -0.598,0.793 -0.913,1.196c-0.043,0.054 -0.087,0.109 -0.13,0.163l-1.707,-2.543l4.272,-2.848l0.707,0.75Z" style="fill-rule:nonzero;"/><path d="M261.207,207.22c-0.293,0.391 -0.598,0.793 -0.913,1.196l-0.293,-0.37l1.207,-0.826Z" style="fill-rule:nonzero;"/><path d="M262.729,203.187l1.935,-1.283c-0.38,0.652 -0.783,1.337 -1.228,2.033c-0.478,0.761 -1,1.554 -1.565,2.359c-0.217,0.304 -0.435,0.598 -0.652,0.913l-0.011,0.011c-0.293,0.391 -0.598,0.793 -0.913,1.196c-0.043,0.054 -0.087,0.109 -0.13,0.163l-1.707,-2.543l4.272,-2.848Z" style="fill-rule:nonzero;"/><path d="M292.077,212.34c-0.076,0.163 -0.152,0.315 -0.228,0.467c-0.054,-0.065 -0.109,-0.12 -0.152,-0.185c0.13,-0.087 0.261,-0.185 0.38,-0.283Z" style="fill-rule:nonzero;"/><path d="M292.077,212.34c-0.076,0.163 -0.152,0.315 -0.228,0.467c-0.054,-0.065 -0.109,-0.12 -0.152,-0.185c0.13,-0.087 0.261,-0.185 0.38,-0.283Z" style="fill-rule:nonzero;"/><path d="M262.729,203.187l1.935,-1.283c-0.38,0.652 -0.783,1.337 -1.228,2.033c-0.478,0.761 -1,1.554 -1.565,2.359c-0.217,0.304 -0.435,0.598 -0.652,0.913l-0.011,0.011c-0.293,0.391 -0.598,0.793 -0.913,1.196c-0.043,0.054 -0.087,0.109 -0.13,0.163l-1.707,-2.543l4.272,-2.848Z" style="fill-rule:nonzero;"/><path d="M292.077,212.34c-0.076,0.163 -0.152,0.315 -0.228,0.467c-0.054,-0.065 -0.109,-0.12 -0.152,-0.185c0.13,-0.087 0.261,-0.185 0.38,-0.283Z" style="fill-rule:nonzero;"/><path d="M292.077,212.34c-0.076,0.163 -0.152,0.315 -0.228,0.467c-0.054,-0.065 -0.109,-0.12 -0.152,-0.185c0.13,-0.087 0.261,-0.185 0.38,-0.283Z" style="fill-rule:nonzero;"/></g></g></g></svg>