<?xml version="1.0" encoding="utf-8"?>
<!-- Generator: Adobe Illustrator 23.0.1, SVG Export Plug-In . SVG Version: 6.00 Build 0)  -->
<svg version="1.1" id="Layer_1" xmlns="http://www.w3.org/2000/svg" xmlns:xlink="http://www.w3.org/1999/xlink" x="0px" y="0px"
	 viewBox="0 0 300 300" style="enable-background:new 0 0 300 300;" xml:space="preserve">
<style type="text/css">
	.st0{stroke:#000000;stroke-width:3;stroke-miterlimit:10;}
	.st1{fill:#E3E3E3;}
</style>
<g>
	<path d="M201.08,148.94c-1.01-2.06-1.21-4.46-0.52-6.69C199.89,144.45,200.06,146.85,201.08,148.94z"/>
	<path d="M201.2,149.21c-0.05-0.08-0.08-0.17-0.12-0.26c0.09,0.18,0.19,0.35,0.29,0.53c0.26,0.46,0.55,0.89,0.88,1.29
		C201.83,150.28,201.49,149.76,201.2,149.21z"/>
	<path d="M268.86,128.2c-2.44-2.44-5.8-3.94-9.51-3.94h-13.62l-21.19,31.08c-2.78,4.08-6.98,6.82-11.82,7.75l-0.86,0.16h-0.18
		c-0.8,0.1-1.62,0.16-2.42,0.16c-3.72,0-7.3-1.11-10.38-3.21c-2.39-1.62-4.27-3.72-5.6-6.07c-3.42-5.95-3.36-13.56,0.74-19.6
		l7-10.27H46.46c-7.46,0-13.8,5.9-13.85,13.36c-0.02,3.75,1.48,7.16,3.95,9.6c2.43,2.45,5.8,3.95,9.51,3.95h7.95L76.77,256.1
		c1.28,5.88,6.48,10.08,12.5,10.08h125.32c6.02,0,11.23-4.2,12.5-10.08l22.74-104.92h9.1c7.48,0,13.83-5.93,13.86-13.41
		C272.81,134.03,271.3,130.65,268.86,128.2z M105.27,235.75c0,2.43-0.98,4.62-2.57,6.21c-1.59,1.6-3.78,2.58-6.21,2.58
		c-4.85,0-8.78-3.93-8.78-8.79V177.9c0-4.85,3.93-8.78,8.78-8.78c4.85,0,8.78,3.93,8.78,8.78V235.75z M133.38,235.75
		c0,2.43-0.99,4.62-2.58,6.21c-1.59,1.6-3.78,2.58-6.21,2.58c-4.85,0-8.78-3.93-8.78-8.79V177.9c0-4.85,3.93-8.78,8.78-8.78
		c4.85,0,8.79,3.93,8.79,8.78V235.75z M161.49,235.75c0,2.43-0.98,4.62-2.57,6.21c-1.59,1.6-3.79,2.58-6.21,2.58
		c-4.85,0-8.79-3.93-8.79-8.79V177.9c0-4.85,3.93-8.78,8.79-8.78c4.85,0,8.78,3.93,8.78,8.78V235.75z M189.6,235.75
		c0,2.43-0.98,4.62-2.57,6.21c-1.59,1.6-3.79,2.58-6.22,2.58c-4.85,0-8.78-3.93-8.78-8.79V177.9c0-4.85,3.93-8.78,8.78-8.78
		c4.85,0,8.78,3.93,8.78,8.78V235.75z M217.71,235.75c0,2.43-0.98,4.62-2.57,6.21c-1.6,1.6-3.79,2.58-6.22,2.58
		c-4.85,0-8.78-3.93-8.78-8.79V177.9c0-4.85,3.93-8.78,8.78-8.78c4.85,0,8.79,3.93,8.79,8.78V235.75z"/>
	<path d="M268.86,128.2c-2.44-2.44-5.8-3.94-9.51-3.94h-13.6c-0.01,0-0.02,0-0.03,0.01l-21.18,31.07
		c-2.78,4.08-6.98,6.82-11.82,7.75l-0.86,0.16h-0.18c-0.8,0.1-1.62,0.16-2.42,0.16c-3.72,0-7.3-1.11-10.38-3.21
		c-2.39-1.62-4.27-3.72-5.6-6.07c-3.42-5.95-3.36-13.56,0.74-19.6l6.97-10.22c0.01-0.02,0-0.05-0.03-0.05H46.49
		c-7.48,0-13.85,5.91-13.88,13.39c-0.02,3.74,1.49,7.13,3.95,9.57c2.43,2.45,5.8,3.95,9.51,3.95h7.93c0.01,0,0.03,0.01,0.03,0.02
		l22.73,104.88c1.28,5.9,6.5,10.11,12.53,10.11h125.27c6.04,0,11.25-4.21,12.53-10.11l22.73-104.88c0-0.01,0.02-0.02,0.03-0.02h9.04
		c7.5,0,13.87-5.94,13.89-13.44C272.8,134.01,271.3,130.64,268.86,128.2z M105.27,235.75c0,2.43-0.98,4.62-2.57,6.21
		c-1.55,1.56-3.69,2.54-6.06,2.58c-4.91,0.08-8.93-4.2-8.93-9.12v-57.21c0-4.42,3.13-8.37,7.5-9c5.42-0.77,10.06,3.42,10.06,8.68
		V235.75z M133.38,235.75c0,2.43-0.99,4.62-2.58,6.21c-1.55,1.56-3.69,2.54-6.05,2.58c-4.91,0.08-8.93-4.2-8.93-9.11v-57.24
		c0-4.42,3.14-8.37,7.51-8.98c5.42-0.75,10.05,3.43,10.05,8.69V235.75z M161.49,235.75c0,2.43-0.98,4.62-2.57,6.21
		c-1.73,1.74-4.19,2.75-6.86,2.55c-4.49-0.33-8.13-4.57-8.13-9.07v-57.23c0-4.42,3.13-8.37,7.5-9c5.42-0.77,10.06,3.42,10.06,8.68
		V235.75z M189.6,235.75c0,2.43-0.98,4.62-2.57,6.21c-1.56,1.57-3.72,2.54-6.09,2.58c-4.89,0.07-8.9-4.21-8.9-9.11v-57.23
		c0-4.42,3.14-8.37,7.51-8.98c5.42-0.75,10.05,3.43,10.05,8.69V235.75z M217.71,235.75c0,2.43-0.98,4.62-2.57,6.21
		c-1.56,1.56-3.69,2.53-6.06,2.58c-4.91,0.09-8.94-4.19-8.94-9.11v-57.24c0-4.42,3.14-8.37,7.51-8.98
		c5.42-0.75,10.05,3.43,10.05,8.69V235.75z"/>
	<g>
		<path d="M148.83,95.95v9.97c0,4.97-4.03,9.01-9.01,9.01H78.99c-4.97,0-9.01-4.03-9.01-9.01v-9.97c0-0.97,0.09-1.92,0.27-2.87
			c0.17-0.95,0.44-1.91,0.8-2.87l14.34-32.97h-1.07c-1.28,0-2.42-0.27-3.43-0.8c-0.2-0.12-0.4-0.24-0.59-0.36
			c-0.09-0.06-0.19-0.13-0.29-0.2c-0.18-0.14-0.36-0.29-0.54-0.45c-0.09-0.09-0.18-0.17-0.26-0.25c-0.08-0.09-0.17-0.17-0.25-0.27
			c-0.09-0.09-0.16-0.17-0.24-0.27c-0.74-0.9-1.23-1.94-1.44-3.1c-0.09-0.47-0.13-0.97-0.13-1.47V42.9c0-0.5,0.04-0.99,0.13-1.46
			c0.21-1.16,0.7-2.2,1.44-3.11c0.08-0.1,0.15-0.18,0.24-0.28c0.08-0.08,0.17-0.16,0.25-0.25l0.26-0.26
			c0.18-0.15,0.36-0.3,0.54-0.45c0.1-0.06,0.2-0.13,0.29-0.19c0.19-0.13,0.39-0.26,0.59-0.36c1.01-0.53,2.15-0.8,3.43-0.8h50.17
			c1.27,0,2.4,0.27,3.42,0.8c0.2,0.1,0.4,0.23,0.59,0.36c0.09,0.06,0.2,0.13,0.29,0.19c0.19,0.15,0.36,0.3,0.54,0.45
			c0.09,0.08,0.18,0.17,0.26,0.26c0.09,0.09,0.17,0.17,0.25,0.25c0.08,0.1,0.16,0.18,0.24,0.28c0.75,0.91,1.23,1.95,1.45,3.11
			c0.08,0.47,0.13,0.96,0.13,1.46v7.17c0,0.5-0.05,1-0.13,1.47c-0.22,1.16-0.7,2.2-1.45,3.1c-0.08,0.1-0.16,0.18-0.24,0.27
			c-0.07,0.1-0.15,0.18-0.25,0.27c-0.08,0.09-0.17,0.17-0.26,0.25c-0.18,0.16-0.35,0.31-0.54,0.45c-0.09,0.07-0.2,0.14-0.29,0.2
			c-0.19,0.12-0.39,0.24-0.59,0.36c-1.02,0.53-2.15,0.8-3.42,0.8h-1.08l11.63,26.74l2.71,6.23c0.36,0.96,0.63,1.92,0.81,2.87
			C148.73,94.03,148.83,94.98,148.83,95.95z"/>
		<path d="M215.32,103.29l-4.38,6.42c-2.23,3.27-5.93,5.22-9.89,5.22h-34.88c-4.43,0-8.01-3.59-8.01-8.01V95.95
			c0-1.51-0.14-3.05-0.43-4.57c-0.27-1.47-0.68-2.95-1.23-4.42l-0.08-0.23l-2.81-6.47h0c-0.55-1.27-0.04-2.76,1.19-3.42
			c4.07-2.16,8.44-3.59,13.13-4.29h0.01c2.23-0.33,4.55-0.49,6.93-0.49h0.08c4.48,0.01,8.72,0.61,12.7,1.79
			c6.59,1.97,12.49,5.55,17.69,10.75c4.85,4.85,8.3,10.31,10.32,16.37C215.92,101.75,215.78,102.61,215.32,103.29z"/>
		<path d="M257.73,90.09l-16.94,24.83l-6.37,9.34l-17.61,25.82c-0.94,1.38-2.22,2.46-3.71,3.15c-0.67,0.31-1.39,0.54-2.14,0.68
			h-0.01c-0.14,0.03-0.29,0.05-0.43,0.07c-0.06,0.01-0.12,0.02-0.18,0.02c-0.16,0.03-0.31,0.04-0.46,0.06
			c-0.21,0.01-0.43,0.02-0.64,0.02c-0.46,0-0.91-0.04-1.35-0.1c-0.39-0.06-0.77-0.14-1.15-0.25c-0.12-0.03-0.23-0.07-0.35-0.1
			c-0.36-0.13-0.73-0.27-1.08-0.44c-0.41-0.2-0.81-0.43-1.2-0.69c-0.29-0.2-0.56-0.4-0.82-0.63c-0.13-0.1-0.25-0.22-0.37-0.34
			c-0.12-0.12-0.24-0.24-0.35-0.36c-0.11-0.12-0.22-0.25-0.34-0.38c-0.41-0.49-0.76-1.01-1.05-1.56c-0.05-0.08-0.08-0.17-0.12-0.26
			c-1.01-2.06-1.21-4.46-0.52-6.69c0.19-0.64,0.46-1.27,0.8-1.88c0.12-0.2,0.24-0.39,0.37-0.59l10.59-15.53l5.55-8.13l24.77-36.33
			c1.38-2.01,3.45-3.37,5.85-3.83c2.4-0.46,4.83,0.06,6.84,1.43C259.49,80.24,260.57,85.94,257.73,90.09z"/>
		<path d="M174.87,40.09v20.47c0,4.61-4.99,7.69-8.98,5.38c-1.33-0.77-2.58-1.74-3.74-2.9c-3.46-3.46-5.19-7.7-5.19-12.72
			c0-5.02,1.73-9.26,5.19-12.72c1.16-1.16,2.4-2.12,3.74-2.9C169.87,32.4,174.87,35.48,174.87,40.09z"/>
		<path d="M203.01,68.24h-20.45c-4.61,0-7.69-4.99-5.38-8.99c0.77-1.33,1.74-2.58,2.89-3.74c3.46-3.46,7.7-5.19,12.72-5.19
			c5.01,0,9.26,1.73,12.72,5.19c1.05,1.05,1.94,2.18,2.68,3.38C210.69,62.99,207.8,68.24,203.01,68.24z"/>
	</g>
</g>
</svg>
