<?xml version="1.0" encoding="utf-8"?>
<!-- Generator: Adobe Illustrator 23.0.1, SVG Export Plug-In . SVG Version: 6.00 Build 0)  -->
<svg version="1.1" id="Layer_1" xmlns="http://www.w3.org/2000/svg" xmlns:xlink="http://www.w3.org/1999/xlink" x="0px" y="0px"
	 viewBox="0 0 300 300" style="enable-background:new 0 0 300 300;" xml:space="preserve">
<style type="text/css">
	.st0{fill:none;}
	.st1{fill:#FFFFFF;}
</style>
<g>
	<path d="M69.02,119.08H31.34c0.49-16.6,7.08-33.05,19.75-45.72l2.06-2.06c26.36-26.37,69.11-26.37,95.48,0
		c13.19-13.19,30.46-19.78,47.74-19.78c17.29,0,34.56,6.59,47.74,19.78l2.06,2.06c10.8,10.8,17.17,24.33,19.12,38.37
		c-5.14,0.76-9.79,3.04-13.49,6.36h-40.45c-5.46,0-10.58,2.12-14.44,5.98l-21.75,21.75l-52.01-52c-3.85-3.85-8.98-5.98-14.44-5.98
		c-5.45,0-10.58,2.12-14.43,5.98L69.02,119.08z"/>
	<path d="M76.49,146.55H36.28c-2.16-5.32-3.62-10.86-4.36-16.48h37.75c2.5,0,4.9-0.99,6.67-2.76l25.72-25.73
		c3.68-3.68,9.65-3.68,13.34,0l53.1,53.11c3.68,3.68,9.66,3.68,13.34,0l22.85-22.85c1.77-1.77,4.17-2.77,6.68-2.77h33.23
		c-0.88,2.59-1.36,5.36-1.36,8.24c0,2.88,0.48,5.65,1.36,8.24h-26.41c-2.5,0-4.9,1-6.67,2.77L181.84,178
		c-3.68,3.68-9.66,3.68-13.34,0l-53.1-53.11c-3.69-3.68-9.66-3.68-13.34,0l-18.89,18.9C81.39,145.56,78.99,146.55,76.49,146.55z"/>
	<path d="M254.54,158.69c-2.41,3.59-5.19,6.99-8.36,10.15l-9.39,9.39c-0.94-0.2-1.92-0.3-2.91-0.3h-4.25
		c-0.41,0-0.82,0.02-1.24,0.05c-0.09,0.01-0.17,0.01-0.27,0.02c-0.48,0.05-0.94,0.13-1.4,0.23c-0.39,0.07-0.71,0.16-0.88,0.21
		c-0.18,0.05-0.4,0.11-0.58,0.16l-0.13,0.05l-0.12,0.04c-0.71,0.24-1.39,0.53-2.05,0.88c-0.31,0.16-0.56,0.31-0.71,0.39
		c-4.38,2.59-7.09,7.34-7.09,12.43v7.45l0.01,15.49h-71.25l0.01-21.81v-1.14c0-5.08-2.71-9.83-7.08-12.43
		c-0.07-0.05-0.15-0.08-0.22-0.13c-0.14-0.08-0.29-0.16-0.43-0.24c-0.76-0.4-1.57-0.74-2.47-1.03c-0.47-0.15-0.92-0.27-1.39-0.36
		c-0.47-0.09-0.92-0.16-1.39-0.21c-0.49-0.05-0.97-0.07-1.47-0.07h-4.25c-4.28,0-8.31,1.88-11.06,5.15
		c-0.02,0.02-0.04,0.04-0.05,0.05c-0.58,0.7-1.08,1.43-1.51,2.19c-0.01,0.02-0.02,0.04-0.03,0.05c-0.92,1.67-1.49,3.46-1.71,5.34
		c-0.01,0.04-0.01,0.07-0.02,0.1c-0.03,0.28-0.08,0.79-0.08,1.41l-0.01,0.73h-0.47c-0.95,0-1.93,0.1-2.88,0.29
		c-1.43,0.28-2.79,0.78-4.07,1.48c-0.05,0.03-0.09,0.05-0.15,0.08c-0.17,0.1-0.5,0.28-0.91,0.56c-0.79,0.53-1.53,1.14-2.2,1.81
		c-0.58,0.58-1.11,1.2-1.57,1.87c-0.1,0.14-0.2,0.27-0.29,0.42c-0.45,0.69-0.84,1.42-1.18,2.18c-0.01,0.01-0.01,0.03-0.02,0.04
		c-0.79,1.8-1.18,3.73-1.18,5.72v6.22l-44.78-44.78c-3.51-3.51-6.55-7.3-9.11-11.31h34.51c5.46,0,10.59-2.12,14.44-5.98l17.79-17.79
		l52.01,52c3.85,3.85,8.98,5.98,14.44,5.98c5.45,0,10.58-2.12,14.43-5.98l29.23-29.22h32.98
		C252.67,157.31,253.59,158.04,254.54,158.69z"/>
	<g>
		<path d="M244.59,129.07c-0.88,2.59-1.36,5.36-1.36,8.24c0,2.88,0.48,5.65,1.36,8.24h-26.41c-2.5,0-4.9,1-6.67,2.77L181.84,178
			c-3.68,3.68-9.66,3.68-13.34,0l-53.1-53.11c-3.69-3.68-9.66-3.68-13.34,0l-18.89,18.9c-1.78,1.77-4.18,2.76-6.68,2.76h-52
			c-4.13,0-7.82-2.93-8.41-7.01c-0.73-5.1,3.2-9.47,8.15-9.47h45.43c2.5,0,4.9-0.99,6.67-2.76l25.72-25.73
			c3.68-3.68,9.65-3.68,13.34,0l53.1,53.11c3.68,3.68,9.66,3.68,13.34,0l22.85-22.85c1.77-1.77,4.17-2.77,6.68-2.77H244.59z"/>
		<path d="M244.59,129.07c-0.88,2.59-1.36,5.36-1.36,8.24c0,2.88,0.48,5.65,1.36,8.24h-26.41c-2.5,0-4.9,1-6.67,2.77L181.84,178
			c-3.68,3.68-9.66,3.68-13.34,0l-53.1-53.11c-3.69-3.68-9.66-3.68-13.34,0l-18.89,18.9c-1.78,1.77-4.18,2.76-6.68,2.76h-52
			c-4.13,0-7.82-2.93-8.41-7.01c-0.73-5.1,3.2-9.47,8.15-9.47h45.43c2.5,0,4.9-0.99,6.67-2.76l25.72-25.73
			c3.68-3.68,9.65-3.68,13.34,0l53.1,53.11c3.68,3.68,9.66,3.68,13.34,0l22.85-22.85c1.77-1.77,4.17-2.77,6.68-2.77H244.59z"/>
	</g>
	<g>
		<path d="M284,137.32c0,8.22-6.67,14.89-14.89,14.89c-3.47,0-6.66-1.18-9.18-3.17c-1.25-0.98-2.33-2.15-3.21-3.48
			c-1.57-2.36-2.49-5.19-2.49-8.24s0.92-5.88,2.49-8.24c2.11-3.17,5.39-5.48,9.23-6.31c1.03-0.22,2.08-0.34,3.17-0.34
			C277.33,122.43,284,129.09,284,137.32z"/>
	</g>
</g>
<g>
	<path d="M269.12,229.71l-0.01,4.31c0,0.54-0.08,1.06-0.23,1.56c-0.05,0.16-0.11,0.33-0.17,0.49v0.01c-0.15,0.36-0.34,0.69-0.55,1
		c-0.07,0.1-0.15,0.2-0.23,0.3c-0.95,1.17-2.4,1.93-4.03,1.96l-4.6,0.08c-0.18,0-0.36,0.02-0.53,0.04
		c-0.34,0.04-0.66,0.11-0.97,0.21c-0.03,0.01-0.05,0.02-0.08,0.03c-0.31,0.1-0.61,0.24-0.9,0.39c-0.29,0.16-0.57,0.36-0.82,0.57
		c-0.39,0.33-0.73,0.71-1.01,1.14c-0.28,0.42-0.5,0.88-0.65,1.36c-0.16,0.5-0.24,1.03-0.24,1.57v11.6c0,0.37-0.04,0.72-0.11,1.07
		c-0.06,0.29-0.15,0.59-0.27,0.86c-0.26,0.69-0.67,1.3-1.18,1.81c-0.24,0.24-0.5,0.46-0.79,0.65c-0.18,0.13-0.38,0.25-0.59,0.34
		c-0.25,0.14-0.51,0.25-0.8,0.33c-0.49,0.16-1.03,0.24-1.57,0.24h-4.24c-0.2,0-0.4,0.01-0.6,0.04c-0.49,0.05-0.98,0.18-1.43,0.37
		l-0.01,0.01c-0.31,0.13-0.61,0.28-0.89,0.48c-0.28,0.18-0.54,0.39-0.78,0.63c-0.13,0.12-0.24,0.24-0.35,0.37
		c-0.16,0.19-0.31,0.4-0.45,0.61c-0.4,0.65-0.67,1.38-0.76,2.18c-0.02,0.17-0.04,0.35-0.04,0.53l-0.08,4.59
		c-0.01,0.37-0.05,0.71-0.13,1.06c-0.11,0.51-0.29,0.99-0.54,1.44c-0.16,0.29-0.36,0.57-0.58,0.83c-0.97,1.15-2.44,1.89-4.06,1.89
		h-4.24c-2.92,0-5.3-2.38-5.3-5.3v-26.79c0-0.15-0.01-0.29-0.02-0.44c-0.01-0.11-0.02-0.22-0.04-0.32c0-0.04-0.01-0.07-0.02-0.1
		c-0.01-0.11-0.04-0.22-0.06-0.33c-0.03-0.14-0.06-0.27-0.1-0.38c-0.02-0.06-0.04-0.13-0.06-0.19c-0.03-0.09-0.06-0.18-0.11-0.27
		c-0.04-0.11-0.08-0.21-0.14-0.3c-0.04-0.1-0.09-0.2-0.16-0.3c-0.12-0.22-0.27-0.43-0.42-0.63c-0.06-0.08-0.13-0.16-0.2-0.24
		c-0.04-0.04-0.07-0.08-0.11-0.12c-0.06-0.07-0.14-0.15-0.21-0.21c-0.14-0.14-0.29-0.27-0.45-0.38c-0.08-0.07-0.17-0.14-0.27-0.2
		c-0.09-0.06-0.18-0.12-0.28-0.17c-0.07-0.05-0.16-0.1-0.24-0.13c-0.06-0.04-0.14-0.07-0.21-0.1c-0.05-0.03-0.09-0.05-0.14-0.06
		c-0.28-0.13-0.59-0.22-0.89-0.28c-0.05-0.01-0.12-0.03-0.17-0.04c-0.32-0.06-0.66-0.1-1-0.1h-78.94c-0.34,0-0.68,0.04-1,0.1
		c-0.05,0-0.12,0.02-0.17,0.04c-0.3,0.06-0.6,0.16-0.89,0.28c-0.05,0.02-0.09,0.04-0.14,0.06c-0.07,0.03-0.14,0.06-0.21,0.1
		c-0.08,0.03-0.16,0.07-0.24,0.13c-0.1,0.05-0.19,0.11-0.28,0.17c-0.1,0.05-0.19,0.12-0.27,0.2c-0.16,0.11-0.31,0.24-0.45,0.38
		c-0.07,0.06-0.15,0.14-0.21,0.21c-0.04,0.04-0.07,0.07-0.11,0.12c-0.07,0.07-0.14,0.16-0.2,0.24c-0.16,0.2-0.3,0.41-0.42,0.63
		c-0.06,0.1-0.12,0.2-0.16,0.3c-0.05,0.09-0.1,0.19-0.14,0.3c-0.04,0.09-0.07,0.18-0.11,0.27c-0.03,0.06-0.05,0.13-0.06,0.19
		c-0.05,0.13-0.08,0.26-0.1,0.38c-0.03,0.11-0.05,0.22-0.06,0.33c-0.01,0.04-0.02,0.06-0.02,0.1c-0.02,0.1-0.03,0.21-0.04,0.32
		c-0.01,0.15-0.02,0.29-0.02,0.44v26.79c0,2.92-2.38,5.3-5.31,5.3h-4.23c-2.89,0-5.26-2.32-5.3-5.22l-0.08-4.59
		c-0.01-0.37-0.05-0.71-0.13-1.05c-0.22-1.03-0.74-1.93-1.47-2.64c-0.28-0.27-0.6-0.52-0.93-0.73c-0.16-0.1-0.33-0.19-0.49-0.27
		c-0.52-0.25-1.09-0.41-1.68-0.48c-0.2-0.03-0.4-0.04-0.6-0.04h-4.23c-0.35,0-0.68-0.04-1.01-0.09c-0.54-0.11-1.05-0.29-1.52-0.55
		c-0.16-0.08-0.3-0.17-0.44-0.27c-0.28-0.19-0.55-0.41-0.79-0.65c-0.24-0.24-0.46-0.5-0.65-0.79c-0.16-0.23-0.3-0.49-0.41-0.74
		c-0.32-0.68-0.49-1.43-0.49-2.22v-11.6c0-0.21-0.01-0.42-0.04-0.63c-0.02-0.15-0.05-0.29-0.07-0.44c-0.04-0.17-0.07-0.34-0.13-0.5
		c-0.17-0.55-0.43-1.07-0.78-1.54c-0.15-0.22-0.32-0.42-0.5-0.61c-0.12-0.12-0.25-0.24-0.38-0.35c-0.26-0.21-0.53-0.4-0.82-0.57
		c-0.28-0.16-0.59-0.29-0.9-0.39c-0.03-0.01-0.05-0.02-0.08-0.03c-0.31-0.1-0.63-0.17-0.97-0.21c-0.17-0.02-0.36-0.04-0.54-0.04
		l-4.59-0.08c-2.89-0.05-5.21-2.41-5.21-5.3v-4.32c0-2.54,1.78-4.66,4.16-5.18c0.34-0.07,0.69-0.12,1.05-0.12l4.59-0.08
		c0.18,0,0.36-0.02,0.53-0.04c0.36-0.04,0.71-0.12,1.03-0.23c0.25-0.07,0.49-0.17,0.71-0.28c0.23-0.12,0.44-0.25,0.65-0.38
		c0,0,0-0.01,0.01-0.01c0.28-0.19,0.54-0.41,0.77-0.65c0.14-0.14,0.26-0.27,0.38-0.43c0.1-0.12,0.19-0.25,0.27-0.38
		c0.08-0.13,0.16-0.26,0.23-0.39c0.24-0.44,0.42-0.93,0.52-1.45c0.03-0.14,0.05-0.28,0.07-0.43c0.03-0.21,0.04-0.42,0.04-0.64v-11.6
		c0-0.73,0.15-1.44,0.42-2.07c0.14-0.31,0.3-0.61,0.49-0.89c0-0.01,0.01-0.01,0.01-0.01c0.19-0.28,0.41-0.55,0.65-0.79
		c0.27-0.27,0.56-0.5,0.88-0.71c0.1-0.07,0.21-0.13,0.32-0.19c0.45-0.25,0.94-0.43,1.46-0.53c0.36-0.07,0.71-0.11,1.09-0.11
		l4.22-0.01c2.18,0,4.05-1.3,4.86-3.18c0.07-0.16,0.13-0.31,0.18-0.48c0.16-0.49,0.26-1.02,0.27-1.56l0.07-4.58v-0.01
		c0-0.18,0.02-0.36,0.04-0.53c0.08-0.71,0.3-1.36,0.63-1.96c0.16-0.29,0.36-0.57,0.58-0.83c0.97-1.15,2.43-1.89,4.06-1.89h4.23
		c0.01,0,0.01,0,0.02,0c0.18,0,0.36,0.01,0.53,0.03c0.18,0.02,0.36,0.05,0.53,0.08c0.15,0.03,0.29,0.06,0.44,0.11
		c0.32,0.1,0.63,0.22,0.92,0.38c0.09,0.05,0.17,0.1,0.27,0.16c1.56,0.92,2.6,2.62,2.6,4.55v1.14l-0.01,25.66
		c0,0.73,0.15,1.43,0.42,2.07c0.34,0.79,0.86,1.48,1.51,2.02c0.29,0.25,0.61,0.46,0.96,0.63c0.11,0.05,0.23,0.11,0.35,0.16
		c0.64,0.27,1.34,0.42,2.07,0.42h78.94c0.79,0,1.54-0.17,2.22-0.49c0.17-0.07,0.34-0.16,0.5-0.27s0.33-0.21,0.48-0.33
		c0.2-0.14,0.38-0.29,0.55-0.47c0.3-0.29,0.57-0.63,0.79-1c0,0,0,0,0-0.01c0.06-0.09,0.11-0.18,0.16-0.27
		c0.15-0.28,0.27-0.59,0.37-0.9c0.04-0.13,0.07-0.25,0.1-0.38c0.09-0.38,0.15-0.79,0.15-1.2l-0.01-25.66v-1.14
		c0-0.77,0.16-1.5,0.47-2.16c0.45-1.01,1.2-1.84,2.14-2.39c0.09-0.05,0.18-0.11,0.27-0.16c0.07-0.05,0.16-0.08,0.24-0.12
		c0.15-0.06,0.29-0.13,0.46-0.18c0.08-0.03,0.16-0.05,0.25-0.08c0.14-0.04,0.27-0.07,0.41-0.1c0.16-0.04,0.34-0.06,0.51-0.08
		c0.01,0,0.01,0,0.02,0c0.17-0.02,0.35-0.03,0.52-0.03h4.25c1.45,0,2.76,0.58,3.72,1.52c0.36,0.36,0.67,0.76,0.92,1.2
		c0.05,0.09,0.1,0.18,0.15,0.28c0.32,0.67,0.5,1.42,0.52,2.22l0.07,4.58c0.02,0.72,0.17,1.41,0.46,2.03
		c0.13,0.31,0.3,0.61,0.49,0.89c0.19,0.27,0.41,0.53,0.65,0.77c0.96,0.94,2.26,1.52,3.71,1.52h0.01l4.23,0.01
		c0.19,0,0.38,0.01,0.56,0.03c0.17,0.02,0.35,0.05,0.52,0.08c1.03,0.21,1.94,0.72,2.66,1.44c0.24,0.24,0.46,0.5,0.65,0.79
		c0.09,0.14,0.18,0.28,0.27,0.44c0.17,0.34,0.33,0.7,0.44,1.07c0.03,0.12,0.06,0.25,0.09,0.38c0.07,0.35,0.11,0.71,0.11,1.08v11.6
		c0,0.54,0.08,1.06,0.24,1.56c0.05,0.16,0.1,0.33,0.17,0.49c0.13,0.31,0.28,0.61,0.48,0.9c0.09,0.14,0.19,0.27,0.3,0.4v0.01
		c0.24,0.29,0.51,0.57,0.81,0.8c0.49,0.39,1.05,0.71,1.66,0.9c0.32,0.11,0.67,0.19,1.03,0.23c0.17,0.02,0.35,0.04,0.53,0.04
		l4.59,0.08c0.36,0,0.71,0.05,1.05,0.12c1.19,0.27,2.23,0.92,2.98,1.84c0.08,0.1,0.16,0.2,0.23,0.3c0.21,0.31,0.4,0.65,0.55,1
		c0.19,0.48,0.33,0.98,0.38,1.5C269.11,229.35,269.12,229.52,269.12,229.71z"/>
</g>
</svg>
