<?xml version="1.0" encoding="utf-8"?>
<!-- Generator: Adobe Illustrator 23.0.1, SVG Export Plug-In . SVG Version: 6.00 Build 0)  -->
<svg version="1.1" id="Layer_1" xmlns="http://www.w3.org/2000/svg" xmlns:xlink="http://www.w3.org/1999/xlink" x="0px" y="0px"
	 viewBox="0 0 300 300" style="enable-background:new 0 0 300 300;" xml:space="preserve">
<style type="text/css">
	.st0{fill:none;}
	.st1{fill:#FFFFFF;}
</style>
<path d="M167.95,261.12l1.42,1.43l1.8-0.86C170.08,262.2,168.79,261.97,167.95,261.12z M272.56,139.82l-39.17-35.35l-6.1-5.52
	l-33.18-29.93l-19.1-17.25l-0.44-0.39l-15.43-13.93c-0.14-0.13-0.3-0.28-0.45-0.39c-0.31-0.24-0.62-0.48-0.93-0.7
	c-2.29-1.55-5.03-2.3-7.76-2.25c-2.73-0.05-5.47,0.7-7.76,2.25c-0.32,0.22-0.63,0.46-0.93,0.7c-0.15,0.11-0.31,0.26-0.46,0.39
	l-34.97,31.57V49.68c0-4.83-4.34-8.75-9.7-8.75H82.4c-5.35,0-9.7,3.92-9.7,8.75v49.27l-6.09,5.52l-39.17,35.35
	c-4.89,4.4-4.89,11.53,0,15.92c2.43,2.2,5.62,3.3,8.82,3.3c3.2,0,6.38-1.1,8.83-3.3l20.76-18.73v73.6c0.53-3.07,1.99-5.9,4.24-8.15
	l3.93-3.91c2.86-2.87,6.7-4.46,10.79-4.46c4.08,0,7.92,1.59,10.8,4.48l24.11,24.03c2.9,2.9,4.49,6.74,4.49,10.83
	c0,4.09-1.59,7.93-4.48,10.82L98.01,265.9h13.95l0.02-0.22h46.38l-0.4-0.4c-0.16-0.17-0.32-0.32-0.47-0.47
	c-0.14-0.15-0.29-0.3-0.43-0.43c-0.55-0.56-1.02-1.02-1.49-1.49c-0.06-0.07-0.12-0.13-0.18-0.18c-0.06-0.07-0.12-0.13-0.18-0.18
	c-0.06-0.07-0.12-0.13-0.18-0.18l-0.19-0.19c-0.06-0.07-0.12-0.13-0.19-0.19c-0.06-0.06-0.13-0.13-0.2-0.2
	c-0.48-0.49-1.03-1.03-1.72-1.72l-0.31-0.31c-0.2-0.2-0.43-0.42-0.66-0.66l-7.57-7.57l3.87-8.12l4.15-8.72l-9.03-3.22
	c-5.11-1.82-8.55-6.69-8.55-12.11v-14.51c0-5.43,3.44-10.3,8.55-12.12l9.02-3.21l-4.11-8.64c-2.33-4.91-1.32-10.79,2.53-14.62
	l1.13-1.14c3.99-3.98,4-3.99,7.98-7.97l1.14-1.15c2.43-2.43,5.66-3.77,9.1-3.77c1.89,0,3.81,0.44,5.52,1.25l8.65,4.11l3.21-9.02
	c1.81-5.11,6.68-8.55,12.12-8.55h14.5c5.43,0,10.3,3.44,12.12,8.55l3.2,9.02l4.85-2.3v-18.26l20.77,18.73
	c2.45,2.2,5.63,3.3,8.83,3.3c3.19,0,6.39-1.1,8.82-3.3C277.45,151.35,277.45,144.22,272.56,139.82z M137.78,176.71
	c0,5.76-4.67,10.42-10.44,10.42h-28.9c-5.76,0-10.42-4.66-10.42-10.42v-28.92c0-5.75,4.66-10.42,10.42-10.42h28.9
	c1.02,0,2.02,0.15,2.95,0.43c4.33,1.27,7.49,5.26,7.49,9.99V176.71z M114.21,233.43c0-1.42-0.55-2.75-1.55-3.75l-24.12-24.04
	c-2.06-2.06-5.41-2.06-7.47,0l-3.91,3.89c-1,1-1.55,2.33-1.55,3.75c0,1.42,0.55,2.75,1.55,3.75l7.82,7.8
	c0.05,0.05,0.14,0.14,0.07,0.32c-0.08,0.18-0.21,0.18-0.27,0.18H65.85v16.2h18.93c0.06,0,0.19,0,0.27,0.18
	c0.07,0.18-0.02,0.27-0.07,0.32l-7.82,7.8c-1,1-1.55,2.33-1.55,3.75c0,1.42,0.55,2.75,1.55,3.75l3.91,3.89
	c1.03,1.03,2.38,1.54,3.74,1.54c1.35,0,2.7-0.51,3.73-1.54l24.12-24.04C113.66,236.18,114.21,234.85,114.21,233.43z"/>
<g>
	<path d="M167.95,261.12l1.42,1.43l1.8-0.86C170.08,262.2,168.79,261.97,167.95,261.12z"/>
	<path d="M268.8,204.83v14.51c0,1.21-0.76,2.29-1.9,2.7l-16.41,5.83l-0.02,0.06c-0.41,0.98-0.77,1.85-1.15,2.76
		c-0.31,0.75-0.29,1.6,0.06,2.33l6.93,14.58c0.52,1.1,0.3,2.4-0.56,3.26l-9.12,9.12l-1.14,1.13c-0.85,0.86-2.15,1.09-3.25,0.57
		l-11.6-5.52l-2.98-1.42c-0.73-0.34-1.58-0.36-2.33-0.05c-0.55,0.23-1.09,0.45-1.64,0.68c-0.75,0.31-1.34,0.92-1.61,1.68l-2.77,7.79
		l-2.64,7.43c-0.41,1.14-1.49,1.9-2.7,1.9h-14.51c-1.21,0-2.29-0.76-2.7-1.91l-2.26-6.36l-2.51-7.05c-0.65-0.27-1.24-0.52-1.78-0.74
		l9.15-9.15c0.06,0.11,0.11,0.23,0.15,0.35l4.51,12.67c0.4,1.15,1.48,1.91,2.69,1.91h0.01c1.21,0,2.29-0.76,2.7-1.9l4.51-12.69
		c0.27-0.76,0.85-1.37,1.6-1.68l0.94-0.39c3.28-1.36,4.94-2.04,8.21-3.4l0.94-0.39c0.75-0.31,1.59-0.29,2.32,0.06l6.1,2.9l0.61,0.29
		c3.33-3.34,3.34-3.34,6.67-6.68l-3.19-6.7c-0.34-0.73-0.36-1.57-0.06-2.32l0.39-0.94c1.03-2.48,1.67-4.03,2.51-6.05l1.28-3.11
		c0.31-0.74,0.93-1.33,1.69-1.6l12.68-4.5c1.14-0.41,1.9-1.49,1.9-2.7v-0.01c0-1.21-0.76-2.29-1.9-2.69l-12.68-4.52
		c-0.77-0.27-1.38-0.85-1.69-1.6l-0.39-0.93c-0.76-1.84-1.31-3.17-1.88-4.56l-1.91-4.6c-0.31-0.75-0.29-1.59,0.06-2.32l5.78-12.16
		c0.19-0.39,0.28-0.81,0.28-1.22c0-0.74-0.29-1.48-0.84-2.03c-0.86-0.86-2.16-1.08-3.26-0.56l-5.95,2.83l-6.2,2.95
		c-0.73,0.34-1.58,0.37-2.32,0.06l-0.94-0.39c-3.28-1.36-4.94-2.05-8.22-3.41l-0.94-0.38c-0.74-0.31-1.33-0.93-1.6-1.69l-4.5-12.68
		c-0.41-1.14-1.49-1.9-2.7-1.9c-1.21,0-2.29,0.76-2.7,1.9l-4.51,12.69c-0.28,0.76-0.86,1.37-1.61,1.68l-0.93,0.39
		c-3.28,1.35-4.94,2.04-8.22,3.4l-0.93,0.39c-0.75,0.31-1.6,0.29-2.33-0.06l-6.71-3.19c-3.33,3.33-3.34,3.34-6.67,6.67l3.19,6.71
		c0.35,0.73,0.37,1.57,0.06,2.32l-0.39,0.93c-1.04,2.53-1.69,4.1-2.55,6.18l-1.24,2.98c-0.31,0.75-0.92,1.33-1.68,1.61l-12.68,4.5
		c-1.14,0.41-1.91,1.49-1.91,2.7c0,1.22,0.77,2.3,1.91,2.7l12.68,4.52c0.61,0.22,1.13,0.64,1.46,1.19l-7.91,7.91
		c-0.33-0.43-0.78-0.77-1.3-0.95l-15.21-5.42c-1.14-0.4-1.91-1.48-1.91-2.69v-14.51c0-1.21,0.77-2.29,1.91-2.7l13.42-4.77
		c1.31-3.16,1.97-4.76,3.28-7.93l-6.12-12.87c-0.52-1.09-0.29-2.39,0.56-3.25l1.14-1.14c3.99-3.98,4-3.99,7.98-7.98l1.14-1.14
		c0.86-0.85,2.16-1.08,3.25-0.56l14.58,6.93c0.74,0.35,1.58,0.37,2.33,0.06c0.56-0.23,1.09-0.45,1.65-0.68
		c0.75-0.31,1.33-0.92,1.6-1.69l5.42-15.21c0.4-1.14,1.48-1.9,2.7-1.9h14.5c1.21,0,2.29,0.76,2.7,1.9l4.77,13.42
		c3.16,1.31,4.76,1.98,7.92,3.29l4.78-2.27l8.09-3.85c1.09-0.52,2.4-0.3,3.25,0.56l10.26,10.26c0.86,0.85,1.09,2.16,0.57,3.25
		l-6.93,14.58c-0.35,0.73-0.37,1.58-0.06,2.33l0.16,0.38c0.17,0.42,0.34,0.84,0.52,1.26c0.31,0.75,0.92,1.34,1.69,1.61l15.21,5.41
		C268.04,202.54,268.8,203.62,268.8,204.83z"/>
</g>
<g>
	<path d="M171.17,261.69l-1.8,0.86l-1.42-1.43C168.79,261.97,170.08,262.2,171.17,261.69z"/>
	<path d="M229.14,213.2c0,6.29-2.18,11.66-6.5,15.98c-4.22,4.21-9.43,6.39-15.49,6.49c-0.16,0.01-0.32,0.01-0.47,0.01
		c-1.27,0-2.56-0.11-3.86-0.33c-0.72-0.11-1.47-0.29-2.2-0.53c-0.58-0.2-1.22-0.05-1.64,0.37l-9.11,9.11l-16.22,16.21l-2.48,1.18
		c-1.09,0.51-2.38,0.28-3.22-0.57l-1.14-1.14c-3.98-3.99-4-4-7.99-7.98l-2.56-2.57l0.09-0.19l18.79-18.79l7.66-7.66l1.95-1.95
		c0.42-0.41,0.57-1.01,0.41-1.54c-0.2-0.7-0.39-1.42-0.56-2.19c-0.27-1.31-0.4-2.62-0.4-3.91c0-6.28,2.19-11.65,6.51-15.96
		c4.3-4.32,9.68-6.52,15.97-6.52c0.15,0,0.32,0.01,0.47,0.02c1.38,0.02,2.76,0.18,4.11,0.47l0.3,0.08c1.14,0.35,2,1.23,2.34,2.39
		c0.36,1.26,0.02,2.62-0.91,3.55l-10.39,10.39c-0.62,0.62-0.62,1.64,0,2.27l7.39,7.38c0.31,0.31,0.71,0.48,1.13,0.48
		c0.43,0,0.83-0.17,1.13-0.47l10.47-10.45c0.93-0.95,2.31-1.29,3.6-0.9c1.26,0.38,2.16,1.37,2.41,2.65c0.01,0.04,0.01,0.07,0.02,0.1
		C229.01,210.1,229.14,211.61,229.14,213.2z"/>
	<path d="M171.17,261.69l-1.8,0.86l-1.42-1.43C168.79,261.97,170.08,262.2,171.17,261.69z"/>
</g>
<g>
	<path d="M114.21,233.43c0,1.42-0.55,2.75-1.55,3.75l-24.12,24.04c-1.03,1.03-2.38,1.54-3.73,1.54c-1.36,0-2.71-0.51-3.74-1.54
		l-3.91-3.89c-1-1-1.55-2.33-1.55-3.75c0-1.42,0.55-2.75,1.55-3.75l7.82-7.8c0.05-0.05,0.14-0.14,0.07-0.32
		c-0.08-0.18-0.21-0.18-0.27-0.18H56.17c-9.68,0-18.11-3.19-25.05-9.47c-7.02-6.34-10.59-14.35-10.59-23.82l0.01-0.15
		c0.01-2.89,2.38-5.24,5.29-5.24h5.64c1.41,0,2.73,0.55,3.73,1.54c1.01,1.02,1.57,2.37,1.57,3.82c0,4.9,1.85,8.86,5.65,12.12
		c3.92,3.37,8.41,5,13.75,5h28.61c0.06,0,0.19,0,0.27-0.18c0.07-0.18-0.02-0.27-0.07-0.32l-7.82-7.8c-1-1-1.55-2.33-1.55-3.75
		c0-1.42,0.55-2.75,1.55-3.75l3.91-3.89c2.06-2.06,5.41-2.06,7.47,0l24.12,24.04C113.66,230.68,114.21,232.01,114.21,233.43z"/>
	<path d="M114.21,233.43c0,1.42-0.55,2.75-1.55,3.75l-24.12,24.04c-1.03,1.03-2.38,1.54-3.73,1.54c-1.36,0-2.71-0.51-3.74-1.54
		l-3.91-3.89c-1-1-1.55-2.33-1.55-3.75c0-1.42,0.55-2.75,1.55-3.75l7.82-7.8c0.05-0.05,0.14-0.14,0.07-0.32
		c-0.08-0.18-0.21-0.18-0.27-0.18H56.17c-9.68,0-18.11-3.19-25.05-9.47c-7.02-6.34-10.59-14.35-10.59-23.82l0.01-0.15
		c0.01-2.89,2.38-5.24,5.29-5.24h5.64c1.41,0,2.73,0.55,3.73,1.54c1.01,1.02,1.57,2.37,1.57,3.82c0,4.9,1.85,8.86,5.65,12.12
		c3.92,3.37,8.41,5,13.75,5h28.61c0.06,0,0.19,0,0.27-0.18c0.07-0.18-0.02-0.27-0.07-0.32l-7.82-7.8c-1-1-1.55-2.33-1.55-3.75
		c0-1.42,0.55-2.75,1.55-3.75l3.91-3.89c2.06-2.06,5.41-2.06,7.47,0l24.12,24.04C113.66,230.68,114.21,232.01,114.21,233.43z"/>
</g>
</svg>
