<?xml version="1.0" encoding="utf-8"?>
<!-- Generator: Adobe Illustrator 23.0.1, SVG Export Plug-In . SVG Version: 6.00 Build 0)  -->
<svg version="1.1" id="Layer_1" xmlns="http://www.w3.org/2000/svg" xmlns:xlink="http://www.w3.org/1999/xlink" x="0px" y="0px"
	 viewBox="0 0 300 300" style="enable-background:new 0 0 300 300;" xml:space="preserve">
<style type="text/css">
	.st0{stroke:#000000;stroke-width:3;stroke-miterlimit:10;}
	.st1{fill:#E3E3E3;}
</style>
<path d="M128.31,265.49c-0.26,0.41-0.54,0.82-0.82,1.21h-0.01C127.77,266.31,128.04,265.9,128.31,265.49z"/>
<path d="M28.19,140.93c-5.13,4.61-5.13,12.08,0,16.68c2.54,2.31,5.89,3.46,9.24,3.46c1.76,0,3.51-0.31,5.14-0.94v-32.19
	L28.19,140.93z M68.98,254.58h-0.17c0.07,0.36,0.14,0.72,0.24,1.07C69.01,255.3,69,254.94,68.98,254.58z M89.87,202.75
	c-0.65-0.65-1.47-0.98-2.43-0.98s-1.78,0.33-2.44,0.98c-0.65,0.65-0.98,1.46-0.98,2.43c0,0.97,0.33,1.77,0.98,2.43
	c0.66,0.65,1.48,0.98,2.44,0.98s1.78-0.33,2.43-0.98c0.66-0.66,0.98-1.46,0.98-2.43C90.85,204.21,90.53,203.4,89.87,202.75z
	 M96.69,209.57c-0.65-0.66-1.46-0.98-2.43-0.98c-0.97,0-1.77,0.32-2.43,0.98c-0.65,0.65-0.98,1.47-0.98,2.44
	c0,0.95,0.33,1.77,0.98,2.42c0.66,0.66,1.46,0.99,2.43,0.99c0.97,0,1.78-0.33,2.43-0.99c0.65-0.65,0.98-1.47,0.98-2.42
	C97.67,211.04,97.34,210.22,96.69,209.57z M106.93,209.57c-0.66-0.66-1.47-0.98-2.43-0.98c-0.97,0-1.79,0.32-2.44,0.98
	c-0.65,0.65-0.98,1.47-0.98,2.44c0,0.95,0.33,1.77,0.98,2.42c0.65,0.66,1.47,0.99,2.44,0.99c0.96,0,1.77-0.33,2.43-0.99
	c0.65-0.65,0.98-1.47,0.98-2.42C107.91,211.04,107.58,210.22,106.93,209.57z M106.93,199.34c-0.66-0.65-1.47-0.98-2.43-0.98
	c-0.97,0-1.79,0.33-2.44,0.98c-0.65,0.65-0.98,1.46-0.98,2.43s0.33,1.77,0.98,2.43c0.65,0.65,1.47,0.98,2.44,0.98
	c0.96,0,1.77-0.33,2.43-0.98c0.65-0.66,0.98-1.46,0.98-2.43S107.58,199.99,106.93,199.34z M117.15,209.57
	c-0.65-0.66-1.46-0.98-2.42-0.98c-0.97,0-1.78,0.32-2.43,0.98c-0.66,0.65-0.98,1.47-0.98,2.44c0,0.95,0.32,1.77,0.98,2.42
	c0.65,0.66,1.46,0.99,2.43,0.99c0.96,0,1.77-0.33,2.42-0.99c0.66-0.65,0.98-1.47,0.98-2.42
	C118.13,211.04,117.81,210.22,117.15,209.57z M123.98,202.75c-0.65-0.65-1.47-0.98-2.42-0.98c-0.97,0-1.79,0.33-2.44,0.98
	c-0.66,0.65-0.99,1.46-0.99,2.43c0,0.97,0.33,1.77,0.99,2.43c0.65,0.65,1.47,0.98,2.44,0.98c0.95,0,1.77-0.33,2.42-0.98
	c0.66-0.66,0.98-1.46,0.98-2.43C124.96,204.21,124.64,203.4,123.98,202.75z"/>
<path d="M132.24,215.86h0.01c0.09-0.09,0.17-0.18,0.25-0.27C132.41,215.68,132.32,215.77,132.24,215.86z M133.79,273.07h0.01
	c0.28-0.39,0.56-0.8,0.82-1.21C134.35,272.27,134.08,272.68,133.79,273.07z"/>
<path d="M214.14,77.21c0.86-0.25,1.69-0.5,2.48-0.76c0.57-0.19,1.12-0.38,1.66-0.58c0.99-0.36,1.93-0.74,2.82-1.15
	c0.26-0.11,0.52-0.24,0.77-0.36c2.18-1.05,4.03-2.26,5.63-3.67c3.8-3.39,6.18-8.07,8.16-15c0.81-2.89,4.91-2.89,5.72,0
	c3.66,12.84,8.68,17.86,21.53,21.52c2.87,0.81,2.87,4.9,0,5.71c-6.29,1.81-10.72,3.92-14.04,7.15v0.01
	c-2.48,2.43-4.32,5.46-5.87,9.41c0.08,0.03,0.15,0.06,0.23,0.08c-0.12,0.39-0.24,0.79-0.36,1.21c-0.13,0.46-0.38,0.82-0.7,1.06
	c-0.09,0.28-0.18,0.57-0.27,0.86c-0.18,0.57-0.35,1.15-0.52,1.75c-0.32,1.16-1.17,1.85-2.14,2.07c-0.01,0.01-0.02,0.01-0.03,0.01
	c-1.13,0.26-2.4-0.13-3.12-1.15c-0.19-0.27-0.33-0.58-0.43-0.93c-0.51-1.82-1.06-3.47-1.65-4.99c-0.67-1.74-1.41-3.3-2.22-4.7
	c-0.99-1.02-1.85-2.2-2.6-3.61c-1.22-1.37-2.61-2.56-4.2-3.62c-1.64-1.08-3.5-2.03-5.65-2.87h-0.01c-0.4-0.16-0.81-0.32-1.22-0.47
	c-1.23-0.45-2.55-0.87-3.97-1.27C211.26,82.11,211.26,78.02,214.14,77.21z"/>
<path d="M284.44,157.61c-2.55,2.31-5.9,3.46-9.25,3.46s-6.69-1.15-9.25-3.46l-21.76-19.63v112.55c0,12.46-10.08,22.54-22.52,22.54
	h-7.33v-64.9c0-9.76-7.91-17.66-17.65-17.66h-14.77c-9.75,0-17.65,7.9-17.65,17.66v64.9H133.8c0.28-0.39,0.56-0.8,0.82-1.21
	c0.26-0.41,0.52-0.83,0.77-1.26l0.15-0.28l0.08-0.16c0.33-0.58,0.63-1.17,0.92-1.78c0.17-0.35,0.33-0.69,0.48-1.04
	c0.45-1,0.84-2.03,1.21-3.07c0.26-0.79,0.5-1.61,0.71-2.43c0.09-0.36,0.18-0.72,0.25-1.08c0.16-0.69,0.3-1.39,0.41-2.09
	c0.12-0.75,0.21-1.51,0.28-2.27c0.03-0.27,0.05-0.52,0.07-0.79c0.01-0.19,0.03-0.38,0.04-0.57c0.03-0.7,0.06-1.41,0.06-2.11
	c0-6.82-1.86-13.22-5.54-19c-0.56-0.88-1.14-1.72-1.75-2.53c-1.85-2.46-3.98-4.61-6.36-6.47v-2.7c0-0.21,0-0.42-0.01-0.62
	c0.73-0.9,1.36-1.85,1.88-2.89c0.14-0.07,0.28-0.14,0.42-0.23c0.08-0.04,0.16-0.09,0.23-0.13c0.21-0.11,0.41-0.23,0.61-0.35
	c0.28-0.17,0.56-0.35,0.83-0.55c0.66-0.47,1.29-1.01,1.88-1.6h0.01c0.09-0.09,0.17-0.18,0.25-0.27c0.08-0.09,0.17-0.18,0.25-0.27
	c0,0,0.01,0,0.01-0.01c0.5-0.55,0.95-1.13,1.36-1.74l0.01-0.01c0.27-0.41,0.52-0.83,0.74-1.26c1.16-2.16,1.77-4.59,1.77-7.12
	c0-4.05-1.57-7.85-4.4-10.68c-0.25-0.25-0.51-0.49-0.77-0.72c-0.26-0.23-0.53-0.45-0.81-0.65c-0.23-0.19-0.47-0.35-0.71-0.51
	c-0.06-0.04-0.12-0.07-0.16-0.11c-0.25-0.16-0.5-0.3-0.74-0.44c-0.12-0.07-0.25-0.14-0.37-0.21c-0.51-0.27-1.02-0.5-1.54-0.71
	c-0.05-0.03-0.1-0.04-0.16-0.06c-0.29-0.12-0.58-0.21-0.88-0.31c-0.28-0.09-0.56-0.16-0.84-0.23c-0.06-0.02-0.11-0.04-0.17-0.04
	c-0.23-0.07-0.48-0.11-0.72-0.16c-0.11-0.02-0.21-0.03-0.31-0.05c-0.21-0.03-0.42-0.07-0.64-0.09c-0.03-0.01-0.08-0.01-0.11-0.01
	c-0.18-0.02-0.35-0.05-0.53-0.05c-0.15-0.02-0.31-0.03-0.47-0.03c-0.25-0.01-0.5-0.03-0.75-0.03c-0.27,0-0.54,0.02-0.81,0.03
	c-0.19,0.01-0.39,0.02-0.58,0.04c-0.19,0.02-0.38,0.03-0.56,0.06c-0.25,0.03-0.49,0.06-0.74,0.11c-0.01,0-0.03,0-0.06,0.01
	c-0.27,0.05-0.54,0.1-0.8,0.16c-0.02,0-0.03,0-0.04,0.01c-0.86,0.2-1.71,0.5-2.52,0.85l-0.27-0.27c-0.2-0.2-0.41-0.4-0.62-0.58
	c-2.75-2.47-6.29-3.82-10.06-3.82c-2.79,0-5.45,0.73-7.76,2.11c-0.44,0.26-0.84,0.54-1.25,0.83c-0.2,0.15-0.39,0.29-0.57,0.45
	c-0.39,0.32-0.76,0.66-1.11,1.01c-0.1,0.08-0.18,0.17-0.27,0.27c-1.89-0.83-3.96-1.27-6.1-1.27c-4.06,0-7.85,1.57-10.69,4.41
	c-0.21,0.21-0.41,0.42-0.61,0.64v-70.27c0-7.69-5.19-14.18-12.25-16.15l2.76-2.5l2.62-2.37h0.01l6.35-5.76V46.45
	c0-5.07,4.55-9.19,10.17-9.19h14.44c5.61,0,10.17,4.12,10.17,9.19v20.27l36.65-33.1c0.15-0.13,0.32-0.28,0.48-0.4
	c0.32-0.25,0.64-0.5,0.97-0.73c0.09-0.07,0.2-0.13,0.29-0.19c0.12-0.08,0.23-0.16,0.35-0.21c0.19-0.12,0.38-0.23,0.56-0.33
	c0.2-0.11,0.4-0.22,0.61-0.31c0.29-0.13,0.57-0.26,0.86-0.36c0.03-0.03,0.05-0.03,0.07-0.03c0.33-0.12,0.67-0.24,1.01-0.36
	c0.34-0.08,0.66-0.16,1-0.24c0.67-0.14,1.34-0.24,2.02-0.29h0.07c0.3-0.03,0.62-0.05,0.92-0.05h0.08c0.31,0,0.62,0.02,0.93,0.05
	h0.07c0.67,0.05,1.35,0.15,2.02,0.29c0.33,0.08,0.66,0.16,1,0.24c0.36,0.12,0.72,0.25,1.07,0.39c0.3,0.1,0.58,0.23,0.87,0.36
	c0.24,0.12,0.49,0.24,0.73,0.38l0.42,0.25c0.05,0.02,0.11,0.05,0.16,0.09c0.17,0.1,0.33,0.2,0.5,0.32c0.32,0.23,0.65,0.48,0.97,0.73
	c0.16,0.12,0.32,0.27,0.47,0.4l36.66,33.1v-0.09l0.04,0.04l4.07,3.67c-1.02,0.9-1.89,1.96-2.58,3.13c-0.47,0.05-0.93,0.12-1.39,0.22
	c0.01-0.06,0-0.11,0-0.17c-0.27-4.91-3.58-9.03-8.28-10.34l-0.13-0.04l-0.18-0.07l-0.36-0.11c-1.25-0.39-1.66-0.67-1.67-0.67
	c-0.04-0.04-0.41-0.56-0.98-2.53c-1.46-4.88-5.85-8.15-10.94-8.15c-5.13,0-9.53,3.3-10.97,8.27c-0.49,1.73-0.84,2.29-0.88,2.37
	c-0.05,0.04-0.54,0.4-2.4,0.93c-4.94,1.41-8.27,5.8-8.28,10.93c-0.02,5.14,3.29,9.56,8.3,11.02c0.9,0.26,1.48,0.47,1.84,0.63
	c0.36,0.15,0.48,0.24,0.49,0.24c0.02,0.03,0.39,0.51,0.94,2.45c0.09,0.3,0.19,0.6,0.3,0.89c0,0.01,0,0.01,0,0.01
	c0.81,4.4,3.93,8.13,8.22,9.65c0.41,1.16,0.98,2.24,1.69,3.2l-1.97,2.07c-2.55,1.24-5.65,2.35-9.5,3.45
	c-7.05,2.04-11.31,8.78-10.14,16.01c0.88,5.49,4.76,9.87,10.18,11.44c15.01,4.28,19.72,8.98,24,23.98
	c1.77,6.19,7.28,10.35,13.72,10.35c6.46,0,11.98-4.17,13.71-10.36c0.85-2.98,1.7-5.46,2.63-7.64c1.11-2.64,2.32-4.78,3.72-6.57
	c0.66-0.84,1.31-1.56,1.99-2.19c0.16-0.15,0.32-0.29,0.48-0.43l0.1-0.09c3.25-2.83,7.89-5,15.07-7.05l0.15-0.04
	c4.39-1.32,7.79-4.5,9.32-8.73c0.98-2.67,1.15-5.53,0.5-8.25c-0.64-2.73-2.01-5.12-3.93-6.97c0.32-0.44,0.6-0.89,0.85-1.37
	l34.49,31.12C289.56,145.54,289.56,153.01,284.44,157.61z"/>
<path d="M181.17,85.68c-0.4,1.35-2.32,1.35-2.71,0c-1.14-4.03-2.57-6.44-5.19-8.1c-1.31-0.84-2.93-1.49-4.96-2.07
	c-1.37-0.4-1.37-2.32,0-2.71c2.97-0.84,5.06-1.85,6.62-3.37c1.61-1.58,2.65-3.72,3.53-6.81c0.39-1.34,2.31-1.34,2.71,0
	c0.67,2.31,1.42,4.09,2.44,5.5c1.51,2.11,3.61,3.4,6.86,4.4c0.28,0.11,0.57,0.19,0.87,0.28c0.67,0.17,1,0.72,1.03,1.27
	c0.03,0.61-0.32,1.23-1.03,1.44c-0.13,0.04-0.26,0.07-0.39,0.11c-1.61,0.48-2.92,1-4.05,1.65c-0.97,0.54-1.79,1.18-2.49,1.93
	C182.96,80.74,182,82.79,181.17,85.68z"/>
<path d="M206.62,83.55v0.02c1.28,0.36,2.39,1.34,2.83,2.91c0.43,1.52,0.88,2.96,1.35,4.33c0.19,0.59,0.4,1.16,0.6,1.72v0.01
	c0.73,1.98,1.5,3.81,2.33,5.49c0.67,1.31,1.35,2.54,2.09,3.69c0.92,0.68,1.54,1.56,2.09,2.86c1.18,1.45,2.45,2.75,3.87,3.95
	c2.47,2.09,5.34,3.83,8.74,5.35l0.01,0.01c0.02,0.01,0.05,0.02,0.07,0.03c2.17,0.96,4.56,1.84,7.2,2.66c0.01,0,0.02,0.01,0.03,0.01
	c0.01,0.01,0.01,0.01,0.02,0c0.8,0.26,1.62,0.5,2.47,0.74c1.66,0.48,2.65,1.73,2.97,3.1c0.2,0.84,0.14,1.74-0.16,2.55
	c-0.42,1.17-1.35,2.14-2.81,2.58c-8.29,2.36-14.31,5.12-18.91,9.13c-0.27,0.23-0.53,0.47-0.79,0.71c-1.12,1.04-2.14,2.17-3.09,3.39
	c-1.96,2.5-3.61,5.41-5.05,8.83c-1.11,2.61-2.1,5.52-3.03,8.79c-0.13,0.45-0.31,0.85-0.54,1.2c-1.8,2.82-6.41,2.5-7.58-0.97h-0.01
	c-0.02-0.08-0.05-0.15-0.07-0.23C196,138,188.79,130.8,170.37,125.56c-0.1-0.03-0.19-0.06-0.28-0.1c-1.62-0.57-2.53-1.88-2.76-3.3
	c-0.25-1.55,0.32-3.24,1.73-4.21c0.38-0.27,0.81-0.48,1.31-0.62c6.06-1.72,10.91-3.66,14.88-6.13c5.16-3.24,8.82-7.4,11.71-13.21
	c-0.01,0-0.03-0.01-0.04-0.01c0.01-0.01,0.03-0.01,0.04-0.02h0.01v-0.01h0.01c0.2-0.4,0.4-0.8,0.58-1.21
	c0.63-1.36,1.22-2.8,1.78-4.33c0.29-0.81,0.58-1.63,0.87-2.49c0.03-0.1,0.06-0.2,0.09-0.3c0.12-0.38,0.24-0.76,0.36-1.16
	c0.21-0.64,0.4-1.31,0.59-1.98c0.03-0.13,0.08-0.26,0.15-0.38c0.26-0.77,0.72-1.37,1.27-1.8l0.01-0.01c0.05-0.04,0.1-0.08,0.15-0.11
	c0.01-0.01,0.01-0.01,0.01-0.01c0.24-0.17,0.48-0.3,0.74-0.41C204.54,83.32,205.63,83.26,206.62,83.55z"/>
<path d="M68.98,254.58h-0.17c0.07,0.36,0.14,0.72,0.24,1.07C69.01,255.3,69,254.94,68.98,254.58z"/>
<path d="M91.32,265.37l-4.24-16.94v-6.17c0-1.52-0.48-2.86-1.46-3.98c-0.11-0.12-0.23-0.25-0.35-0.37c-1.2-1.2-2.66-1.81-4.34-1.81
	H68.6v-21.57c0-0.61-0.04-1.19-0.15-1.76c-0.33-1.81-1.18-3.41-2.54-4.79c-0.46-0.44-0.94-0.84-1.44-1.18v-81.93
	c0-2.82-2.3-5.11-5.11-5.11c-2.83,0-5.12,2.29-5.12,5.11v81.93c-0.5,0.33-0.99,0.74-1.43,1.18c-1.8,1.81-2.7,3.98-2.7,6.55v21.57
	H37.78c-1.69,0-3.14,0.61-4.34,1.81c-1.21,1.2-1.81,2.66-1.81,4.35v6.17l-4.25,16.94c-0.51,1.96-0.14,3.72,1.09,5.32
	c1.24,1.59,2.85,2.38,4.84,2.38h52.08c0.71,0,1.38-0.09,2-0.28c1.04-0.3,1.93-0.86,2.69-1.68c0.12-0.13,0.25-0.27,0.36-0.42
	C91.69,269.09,91.99,267.33,91.32,265.37z M77.84,266.91v-6.15c0-0.89-0.29-1.62-0.89-2.2c-0.58-0.59-1.32-0.9-2.19-0.9
	s-1.6,0.31-2.2,0.9c-0.58,0.58-0.88,1.31-0.88,2.2v6.15h-9.24v-6.15c0-0.89-0.29-1.62-0.89-2.2c-0.58-0.59-1.33-0.9-2.19-0.9
	c-0.88,0-1.61,0.31-2.2,0.9c-0.59,0.58-0.88,1.31-0.88,2.2v6.15h-9.25v-6.15c0-0.89-0.29-1.62-0.89-2.2
	c-0.58-0.59-1.32-0.9-2.19-0.9c-0.88,0-1.6,0.31-2.2,0.9c-0.58,0.58-0.88,1.31-0.88,2.2v6.15h-7.56l3.1-12.33h45.9l3.08,12.33H77.84
	z"/>
<path d="M90.85,205.17c0,0.97-0.33,1.77-0.98,2.43c-0.65,0.65-1.47,0.98-2.43,0.98c-0.97,0-1.79-0.33-2.44-0.98
	c-0.65-0.65-0.98-1.46-0.98-2.43c0-0.97,0.33-1.77,0.98-2.43c0.65-0.65,1.47-0.98,2.44-0.98c0.96,0,1.77,0.33,2.43,0.98
	C90.53,203.4,90.85,204.2,90.85,205.17z"/>
<path d="M97.67,212c0,0.96-0.33,1.77-0.98,2.43c-0.65,0.65-1.46,0.98-2.43,0.98c-0.97,0-1.77-0.33-2.43-0.98
	c-0.65-0.65-0.98-1.47-0.98-2.43c0-0.97,0.33-1.79,0.98-2.44c0.65-0.65,1.46-0.98,2.43-0.98c0.97,0,1.77,0.33,2.43,0.98
	C97.34,210.22,97.67,211.03,97.67,212z"/>
<path d="M107.91,212c0,0.96-0.33,1.77-0.98,2.43c-0.65,0.65-1.47,0.98-2.43,0.98c-0.97,0-1.79-0.33-2.44-0.98
	c-0.65-0.65-0.98-1.47-0.98-2.43c0-0.97,0.33-1.79,0.98-2.44c0.65-0.65,1.47-0.98,2.44-0.98c0.96,0,1.77,0.33,2.43,0.98
	C107.58,210.22,107.91,211.03,107.91,212z"/>
<path d="M107.91,201.76c0,0.97-0.33,1.77-0.98,2.43c-0.65,0.65-1.47,0.98-2.43,0.98c-0.97,0-1.79-0.33-2.44-0.98
	c-0.65-0.65-0.98-1.46-0.98-2.43c0-0.97,0.33-1.77,0.98-2.43c0.65-0.65,1.47-0.98,2.44-0.98c0.96,0,1.77,0.33,2.43,0.98
	C107.58,199.99,107.91,200.8,107.91,201.76z"/>
<path d="M118.13,212c0,0.96-0.33,1.77-0.98,2.43c-0.65,0.65-1.46,0.98-2.43,0.98c-0.97,0-1.77-0.33-2.43-0.98
	c-0.65-0.65-0.98-1.47-0.98-2.43c0-0.97,0.33-1.79,0.98-2.44c0.65-0.65,1.46-0.98,2.43-0.98c0.97,0,1.77,0.33,2.43,0.98
	C117.81,210.22,118.13,211.03,118.13,212z"/>
<path d="M124.96,205.17c0,0.97-0.33,1.77-0.98,2.43c-0.65,0.65-1.47,0.98-2.43,0.98c-0.97,0-1.79-0.33-2.44-0.98
	c-0.65-0.65-0.98-1.46-0.98-2.43c0-0.97,0.33-1.77,0.98-2.43c0.65-0.65,1.47-0.98,2.44-0.98c0.96,0,1.77,0.33,2.43,0.98
	C124.64,203.4,124.96,204.2,124.96,205.17z"/>
<path d="M90.85,205.17c0,0.97-0.33,1.77-0.98,2.43c-0.65,0.65-1.47,0.98-2.43,0.98c-0.97,0-1.79-0.33-2.44-0.98
	c-0.65-0.65-0.98-1.46-0.98-2.43c0-0.97,0.33-1.77,0.98-2.43c0.65-0.65,1.47-0.98,2.44-0.98c0.96,0,1.77,0.33,2.43,0.98
	C90.53,203.4,90.85,204.2,90.85,205.17z"/>
<path d="M94.26,215.41c-0.97,0-1.77-0.33-2.43-0.98c-0.65-0.65-0.98-1.47-0.98-2.43c0-0.97,0.33-1.79,0.98-2.44
	c0.65-0.65,1.46-0.98,2.43-0.98c0.97,0,1.77,0.33,2.43,0.98c0.65,0.65,0.98,1.47,0.98,2.44c0,0.96-0.33,1.77-0.98,2.43
	C96.04,215.08,95.23,215.41,94.26,215.41z"/>
<path d="M102.06,214.43c-0.65-0.65-0.98-1.47-0.98-2.43c0-0.97,0.33-1.79,0.98-2.44c0.65-0.65,1.47-0.98,2.44-0.98
	c0.96,0,1.77,0.33,2.43,0.98c0.65,0.65,0.98,1.47,0.98,2.44c0,0.96-0.33,1.77-0.98,2.43c-0.65,0.65-1.47,0.98-2.43,0.98
	C103.53,215.41,102.71,215.08,102.06,214.43z"/>
<path d="M102.06,204.19c-0.65-0.65-0.98-1.46-0.98-2.43c0-0.97,0.33-1.77,0.98-2.43c0.65-0.65,1.47-0.98,2.44-0.98
	c0.96,0,1.77,0.33,2.43,0.98c0.65,0.65,0.98,1.46,0.98,2.43c0,0.97-0.33,1.77-0.98,2.43c-0.65,0.65-1.47,0.98-2.43,0.98
	C103.53,205.17,102.71,204.85,102.06,204.19z"/>
<path d="M112.3,214.43c-0.65-0.65-0.98-1.47-0.98-2.43c0-0.97,0.33-1.79,0.98-2.44c0.65-0.65,1.46-0.98,2.43-0.98
	c0.97,0,1.77,0.33,2.43,0.98c0.65,0.65,0.98,1.47,0.98,2.44c0,0.96-0.33,1.77-0.98,2.43c-0.65,0.65-1.46,0.98-2.43,0.98
	C113.76,215.41,112.95,215.08,112.3,214.43z"/>
<path d="M119.11,207.6c-0.65-0.65-0.98-1.46-0.98-2.43c0-0.97,0.33-1.77,0.98-2.43c0.65-0.65,1.47-0.98,2.44-0.98
	c0.96,0,1.77,0.33,2.43,0.98c0.65,0.65,0.98,1.46,0.98,2.43c0,0.97-0.33,1.77-0.98,2.43c-0.65,0.65-1.47,0.98-2.43,0.98
	C120.58,208.58,119.77,208.25,119.11,207.6z"/>
<path d="M124.66,240.18c2.47,3.9,3.71,8.15,3.71,12.75c0,4.2-1.03,8.14-3.07,11.77c-0.02,0.03-0.03,0.07-0.06,0.12
	c-2.49,4.37-6.79,7.3-11.64,8.25c-1.11,0.21-2.26,0.33-3.42,0.33h-8c0.05-0.11,0.09-0.21,0.12-0.33c1.26-3.44,1.37-7.21,0.25-10.89
	l-3.79-15.19v-4.73c0-4.39-1.58-8.53-4.49-11.83v-8.21c0-0.97,0.33-1.77,0.98-2.43c0.65-0.65,1.46-0.98,2.43-0.98h13.65
	c0.97,0,1.77,0.33,2.43,0.98c0.65,0.65,0.98,1.46,0.98,2.43v9.13C118.88,233.34,122.18,236.28,124.66,240.18z"/>
<path d="M132.5,215.59c-0.08,0.09-0.16,0.18-0.25,0.27h-0.01C132.32,215.77,132.41,215.68,132.5,215.59z"/>
<path d="M134.62,271.86c-0.26,0.41-0.54,0.82-0.82,1.21h-0.01C134.08,272.68,134.35,272.27,134.62,271.86z"/>
<path d="M124.66,240.18c-2.47-3.9-5.78-6.84-9.93-8.83v-9.13c0-0.97-0.33-1.77-0.98-2.43c-0.65-0.65-1.46-0.98-2.43-0.98H97.67
	c-0.97,0-1.77,0.33-2.43,0.98c-0.65,0.65-0.98,1.46-0.98,2.43v8.21c2.92,3.29,4.49,7.44,4.49,11.83v4.73l3.79,15.19
	c1.12,3.68,1.02,7.45-0.25,10.89c-0.02,0.12-0.07,0.22-0.12,0.33h8c1.16,0,2.31-0.12,3.42-0.33c4.84-0.96,9.15-3.89,11.64-8.25
	c0.02-0.05,0.04-0.08,0.06-0.12c2.04-3.63,3.07-7.56,3.07-11.77C128.37,248.33,127.13,244.08,124.66,240.18z M106.93,209.56
	c-0.65-0.65-1.47-0.98-2.43-0.98c-0.97,0-1.79,0.33-2.44,0.98c-0.65,0.65-0.98,1.47-0.98,2.44c0,0.96,0.33,1.77,0.98,2.43
	c0.65,0.65,1.47,0.98,2.44,0.98c0.96,0,1.77-0.33,2.43-0.98c0.65-0.65,0.98-1.47,0.98-2.43
	C107.91,211.03,107.58,210.22,106.93,209.56z M106.93,199.34c-0.65-0.65-1.47-0.98-2.43-0.98c-0.97,0-1.79,0.33-2.44,0.98
	c-0.65,0.65-0.98,1.46-0.98,2.43c0,0.97,0.33,1.77,0.98,2.43c0.65,0.65,1.47,0.98,2.44,0.98c0.96,0,1.77-0.33,2.43-0.98
	c0.65-0.65,0.98-1.46,0.98-2.43C107.91,200.8,107.58,199.99,106.93,199.34z M89.87,202.74c-0.65-0.65-1.47-0.98-2.43-0.98
	c-0.97,0-1.79,0.33-2.44,0.98c-0.65,0.65-0.98,1.46-0.98,2.43c0,0.97,0.33,1.77,0.98,2.43c0.65,0.65,1.47,0.98,2.44,0.98
	c0.96,0,1.77-0.33,2.43-0.98c0.65-0.65,0.98-1.46,0.98-2.43C90.85,204.2,90.53,203.4,89.87,202.74z M123.98,202.74
	c-0.65-0.65-1.47-0.98-2.43-0.98c-0.97,0-1.79,0.33-2.44,0.98c-0.65,0.65-0.98,1.46-0.98,2.43c0,0.97,0.33,1.77,0.98,2.43
	c0.65,0.65,1.47,0.98,2.44,0.98c0.96,0,1.77-0.33,2.43-0.98c0.65-0.65,0.98-1.46,0.98-2.43C124.96,204.2,124.64,203.4,123.98,202.74
	z M96.69,209.56c-0.65-0.65-1.46-0.98-2.43-0.98c-0.97,0-1.77,0.33-2.43,0.98c-0.65,0.65-0.98,1.47-0.98,2.44
	c0,0.96,0.33,1.77,0.98,2.43c0.65,0.65,1.46,0.98,2.43,0.98c0.97,0,1.77-0.33,2.43-0.98c0.65-0.65,0.98-1.47,0.98-2.43
	C97.67,211.03,97.34,210.22,96.69,209.56z M117.15,209.56c-0.65-0.65-1.46-0.98-2.43-0.98c-0.97,0-1.77,0.33-2.43,0.98
	c-0.65,0.65-0.98,1.47-0.98,2.44c0,0.96,0.33,1.77,0.98,2.43c0.65,0.65,1.46,0.98,2.43,0.98c0.97,0,1.77-0.33,2.43-0.98
	c0.65-0.65,0.98-1.47,0.98-2.43C118.13,211.03,117.81,210.22,117.15,209.56z"/>
</svg>
