<?xml version="1.0" encoding="utf-8"?>
<!-- Generator: Adobe Illustrator 23.0.1, SVG Export Plug-In . SVG Version: 6.00 Build 0)  -->
<svg version="1.1" id="Layer_1" xmlns="http://www.w3.org/2000/svg" xmlns:xlink="http://www.w3.org/1999/xlink" x="0px" y="0px"
	 viewBox="0 0 300 300" style="enable-background:new 0 0 300 300;" xml:space="preserve">
<style type="text/css">
	.st0{stroke:#000000;stroke-width:3;stroke-miterlimit:10;}
	.st1{fill:#E3E3E3;}
</style>
<path d="M196.04,177.17v8.18c-13.03,3.38-25.07,10.2-34.67,19.85c-2.05-16.26-9.51-31.29-21.4-42.88c-2.34-2.29-4.82-4.4-7.41-6.33
	c6.54-1.27,13.53-1.96,20.8-1.96c5.98,0,11.77,0.46,17.28,1.34c-1.1,4.2-0.6,8.72,1.53,12.66c3.04,5.63,8.91,9.13,15.31,9.13H196.04
	z"/>
<path d="M281.05,258.49H25.65v-44c1.26,0.37,2.5,0.73,3.75,1.09c1.25,0.36,2.49,0.71,3.72,1.05c0.82,0.24,1.63,0.46,2.45,0.68
	c1.09,0.3,2.16,0.6,3.24,0.88c1.07,0.29,2.14,0.58,3.2,0.85c0.13,0.04,0.27,0.08,0.41,0.11c1.04,0.27,2.08,0.54,3.12,0.8
	c1.09,0.28,2.17,0.55,3.25,0.81c0.37,0.09,0.74,0.19,1.11,0.27c0.56,0.14,1.11,0.27,1.66,0.41c0.89,0.21,1.77,0.43,2.65,0.62
	c0.01,0,0.01,0,0.01,0c1.11,0.26,2.19,0.51,3.28,0.76c1,0.24,2,0.45,3,0.67c0.75,0.16,1.48,0.32,2.22,0.47
	c1.47,0.32,2.93,0.61,4.37,0.91c1.35,0.27,2.69,0.54,4.03,0.79c0.78,0.15,1.56,0.29,2.33,0.43c1.42,0.26,2.82,0.51,4.21,0.74
	c1.84,0.31,3.65,0.6,5.43,0.87c1.77,0.27,3.52,0.52,5.26,0.75c0.01,0,0.01,0,0.02,0c1.74,0.23,3.46,0.43,5.14,0.62
	c0.82,0.09,1.64,0.18,2.46,0.26c0.26,0.03,0.51,0.06,0.77,0.08c0.59,0.07,1.17,0.11,1.76,0.16c0.31,0.04,0.63,0.07,0.94,0.09
	c0.43,0.04,0.85,0.08,1.28,0.1c1.21,0.09,2.4,0.18,3.59,0.25c1.06,0.07,2.12,0.12,3.17,0.17c1.43,0.06,2.85,0.1,4.26,0.12
	c0.43,0.02,0.86,0.03,1.29,0.03c0.57,0.01,1.13,0.01,1.7,0.01c0.88,0,1.76-0.01,2.63-0.03c1.59-0.02,3.15-0.08,4.69-0.16
	c0.28-0.01,0.56-0.03,0.84-0.05c1.26-0.07,2.49-0.16,3.72-0.27c0.01,0.01,0.02,0.01,0.03,0c0.09,0,0.19-0.01,0.28-0.03
	c0.3-0.02,0.6-0.05,0.9-0.09c0.09,0,0.2-0.01,0.29-0.03c0.23-0.02,0.44-0.05,0.67-0.08c0.09,0,0.16-0.01,0.24-0.03
	c0.5-0.05,0.99-0.1,1.48-0.17c0.57-0.07,1.13-0.14,1.69-0.23c0.12-0.01,0.24-0.03,0.36-0.05c0.32-0.05,0.65-0.09,0.97-0.15
	c0.02,0,0.03-0.01,0.04-0.01c0.01,0.01,0.01,0.01,0.02,0l0.01-0.01h0.03c0.02,0,0.05,0,0.07-0.01c0.08,0,0.15-0.02,0.23-0.04
	c0.98-0.15,1.95-0.32,2.9-0.51c0.27-0.05,0.55-0.1,0.82-0.17c0.06,0,0.11-0.01,0.17-0.03c0.32-0.07,0.64-0.13,0.95-0.21
	c0.06,0,0.11-0.02,0.16-0.04c0.42-0.08,0.83-0.18,1.24-0.28c0.08-0.01,0.15-0.03,0.23-0.06c0,0.01,0.01,0.01,0.02,0l0.01-0.01
	c0.64-0.14,1.28-0.3,1.91-0.48c0.17-0.04,0.34-0.09,0.51-0.14c0.53-0.14,1.05-0.29,1.57-0.45c0.51-0.14,1.02-0.3,1.52-0.47
	c0,0,0.01,0,0.02-0.01c0.5-0.16,1-0.33,1.49-0.51c0.49-0.18,0.98-0.36,1.46-0.55c0.27-0.1,0.56-0.22,0.84-0.32
	c0.1-0.04,0.2-0.08,0.3-0.12c0.41-0.16,0.8-0.33,1.2-0.51c0.32-0.14,0.64-0.28,0.96-0.43c0.41-0.18,0.8-0.36,1.19-0.56
	c0.27-0.13,0.55-0.26,0.81-0.4c0.04-0.02,0.08-0.04,0.11-0.06c0.02-0.02,0.04-0.03,0.07-0.04c0.42-0.21,0.83-0.43,1.23-0.65
	c0.04-0.02,0.08-0.05,0.11-0.07c0.09-0.05,0.18-0.09,0.26-0.14c0.48-0.26,0.94-0.54,1.41-0.82l0.32-0.19
	c1.53-0.94,2.98-1.97,4.36-3.06c1.4-1.11,2.71-2.31,3.94-3.58c0.06-0.08,0.12-0.14,0.19-0.21c0.24-0.25,0.47-0.49,0.7-0.76
	c7.86-8.32,17.88-14.6,29.14-17.95v16.29h37.8v-16.29C261.13,203.25,281.05,228.55,281.05,258.49z"/>
<path d="M28.32,205.42l-1.94-0.57c4.65-30.45,30.95-53.78,62.7-53.78c11.33,0,21.97,2.98,31.18,8.18
	c18.79,10.63,31.62,30.57,32.22,53.55c-0.44,0.27-0.9,0.53-1.36,0.78c-0.5,0.28-1.02,0.56-1.55,0.81c-0.55,0.27-1.11,0.54-1.67,0.79
	c-0.51,0.23-1.04,0.45-1.57,0.67c-0.07,0.03-0.14,0.06-0.21,0.09c-0.48,0.19-0.97,0.38-1.47,0.56c-0.52,0.19-1.05,0.37-1.59,0.56
	c-0.05,0.02-0.09,0.03-0.15,0.05c-0.6,0.19-1.19,0.38-1.8,0.56c-0.07,0.02-0.12,0.04-0.19,0.06c-0.55,0.15-1.11,0.3-1.68,0.45
	c-0.63,0.16-1.28,0.32-1.93,0.47c-0.6,0.14-1.23,0.27-1.86,0.4c-0.73,0.15-1.47,0.29-2.23,0.42c-0.58,0.09-1.16,0.19-1.75,0.28
	c-0.43,0.07-0.85,0.12-1.29,0.18c-1.12,0.15-2.27,0.28-3.43,0.4c-0.76,0.08-1.52,0.15-2.3,0.21c-0.65,0.05-1.32,0.09-1.99,0.13
	c-0.2,0.02-0.41,0.03-0.6,0.04c-0.71,0.04-1.43,0.08-2.15,0.09c-0.17,0.01-0.34,0.02-0.51,0.02c-0.58,0.02-1.17,0.04-1.77,0.05
	c-0.89,0.02-1.8,0.03-2.71,0.03c-1.8,0-3.64-0.04-5.53-0.1c-16.44-0.59-36.12-3.72-58.79-9.35c-0.88-0.22-1.77-0.44-2.66-0.67
	c-0.89-0.23-1.79-0.46-2.69-0.7c-0.9-0.24-1.8-0.47-2.72-0.71c-0.91-0.25-1.82-0.49-2.75-0.75c-0.92-0.25-1.84-0.5-2.77-0.76
	c-1.86-0.52-3.74-1.05-5.63-1.6C30.23,205.97,29.27,205.7,28.32,205.42z"/>
<g>
	<path d="M203.69,167.73c0.61,0.42,1.21,0.86,1.79,1.3v-1.3H203.69z M224.35,121.45l0.03,0.03v-0.03H224.35z"/>
	<polygon points="224.38,121.44 224.38,121.48 224.35,121.44 	"/>
	<polygon points="224.38,121.44 224.38,121.48 224.35,121.44 	"/>
</g>
<path d="M239.98,167.73h-15.6v34.24h-18.9v-34.24h-18.01c-5.59,0-9.21-5.5-7.57-10.43c0.22-0.64,0.52-1.28,0.92-1.88l16.07-24.52
	l6.2-9.45h-7.02c-1.36,0-2.61-0.32-3.69-0.9c-3.94-2.05-5.7-7.28-2.97-11.42l17.65-26.93c3.15-4.79,10.17-4.79,13.3,0l17.66,26.93
	c3,4.56,0.58,10.43-4.2,11.95c-0.77,0.24-1.58,0.37-2.45,0.37h-7.03l0.03,0.04l9.45,14.41l12.8,19.52
	C250.1,160.7,246.3,167.73,239.98,167.73z"/>
<path d="M164.3,110.98v3.39c0,8.25-6.69,14.93-14.93,14.93H56.24c-8.25,0-14.93-6.69-14.93-14.93v-3.39
	c0-6.41,4.04-11.87,9.71-13.99c-3.03-4.96-4.77-10.78-4.77-17.01c0-9.02,3.66-17.2,9.58-23.12c5.92-5.91,14.09-9.57,23.12-9.57
	c15.47,0,28.43,10.75,31.82,25.19c0.55-0.68,1.13-1.32,1.74-1.93c4.54-4.54,10.8-7.34,17.73-7.34c13.85,0,25.08,11.22,25.08,25.07
	c0,2.97-0.52,5.82-1.47,8.46C159.9,98.63,164.3,104.29,164.3,110.98z"/>
</svg>
