<?xml version="1.0" encoding="UTF-8" standalone="no"?><!DOCTYPE svg PUBLIC "-//W3C//DTD SVG 1.1//EN" "http://www.w3.org/Graphics/SVG/1.1/DTD/svg11.dtd"><svg width="100%" height="100%" viewBox="0 0 1000 1000" version="1.1" xmlns="http://www.w3.org/2000/svg" xmlns:xlink="http://www.w3.org/1999/xlink" xml:space="preserve" xmlns:serif="http://www.serif.com/" style="fill-rule:evenodd;clip-rule:evenodd;stroke-linejoin:round;stroke-miterlimit:2;"><path d="M700.084,618.364c1.24,-0.004 1.24,-0.004 2.504,-0.009c2.761,-0.008 5.521,-0.007 8.283,-0.005c1.983,-0.003 3.966,-0.008 5.949,-0.012c5.382,-0.011 10.764,-0.014 16.147,-0.014c3.365,-0.001 6.73,-0.003 10.096,-0.007c11.748,-0.011 23.496,-0.016 35.242,-0.015c10.937,0.001 21.875,-0.012 32.812,-0.031c9.4,-0.016 18.801,-0.023 28.201,-0.022c5.61,0 11.219,-0.003 16.829,-0.016c5.28,-0.012 10.559,-0.012 15.839,-0.003c1.932,0.001 3.863,-0.001 5.796,-0.009c14.568,-0.052 27.378,-0.014 38.807,10.031c5.191,5.384 9.881,11.209 14.585,17.017c0.954,1.163 1.908,2.325 2.892,3.523c1.765,2.153 3.525,4.311 5.28,6.472c3.111,3.794 6.277,7.538 9.453,11.277c17.825,21.023 34.07,41.379 40.719,68.675c0.409,1.646 0.409,1.646 0.826,3.324c6.064,29.405 0.719,61.824 -15.771,86.957c-2.207,3.213 -4.548,6.308 -6.935,9.391c-0.746,0.969 -1.492,1.94 -2.26,2.939c-12.88,15.549 -30.972,27.404 -49.93,33.906c-0.854,0.295 -1.709,0.591 -2.589,0.894c-14.092,4.529 -28.407,5.166 -43.101,5.138c-1.837,0.005 -3.674,0.012 -5.511,0.018c-4.943,0.016 -9.885,0.017 -14.828,0.014c-4.15,-0.001 -8.299,0.004 -12.449,0.011c-9.804,0.013 -19.607,0.014 -29.411,0.007c-10.059,-0.008 -20.119,0.008 -30.177,0.034c-8.686,0.022 -17.37,0.028 -26.055,0.025c-5.166,-0.002 -10.331,0.001 -15.496,0.017c-4.865,0.015 -9.73,0.013 -14.594,-0.003c-1.767,-0.003 -3.535,0 -5.302,0.011c-34.301,0.183 -63.857,-10.446 -88.637,-34.501c-21.641,-22.038 -31.805,-50.96 -32.059,-81.514c0.299,-32.269 12.638,-59.274 33.971,-83.049c2.512,-2.839 4.897,-5.774 7.28,-8.721c3.969,-4.887 8.002,-9.714 12.079,-14.511c4.228,-4.975 8.41,-9.981 12.535,-15.041c0.887,-1.078 1.774,-2.156 2.688,-3.266c1.457,-1.797 2.89,-3.615 4.273,-5.47c8.02,-10.394 19.361,-13.439 32.018,-13.458l-0,-0.002Zm86.446,36.628c-0.402,7.22 -0.802,14.44 -1.216,21.879c-2.006,0.651 -4.011,1.304 -6.078,1.976c-10.641,3.907 -18.587,9.988 -24.31,19.904c-3.91,9.757 -4.137,21.636 -0.166,31.466c9.132,16.977 28.325,22.876 45.568,28.676c7.944,2.737 14.995,6.193 20.843,12.333c3.185,7.167 2.775,14.202 0.608,21.651c-3.947,5.058 -9.037,6.992 -15.041,8.889c-11.295,1.076 -20.319,0.283 -30.16,-5.698c-5.282,-4.764 -7.849,-11.943 -10.711,-18.309c-6.36,1.993 -12.339,4.12 -18.233,7.293c3.575,13.264 10.016,23.155 21.879,30.388c8.162,4.3 8.162,4.3 17.017,6.078c-0.028,1.463 -0.056,2.927 -0.086,4.434c-0.023,1.915 -0.045,3.83 -0.066,5.745c-0.021,0.965 -0.041,1.93 -0.062,2.924c-0.022,2.521 0.088,5.041 0.214,7.559c2.326,2.864 2.326,2.864 6.391,2.668c1.551,-0.028 10.216,-0.186 13.057,-0.238l0,-23.094c3.209,-0.402 6.418,-0.802 9.724,-1.216c10.123,-3.729 19.394,-8.969 24.642,-18.66c4.938,-11.313 5.534,-21.737 2.098,-33.607c-4.949,-12.354 -13.935,-20.545 -25.824,-26.134c-6.789,-2.841 -13.859,-5.011 -20.897,-7.144c-8.237,-2.571 -16.114,-5.531 -21.422,-12.608c-1.726,-5.984 -1.716,-11.526 1.268,-17.126c3.466,-4.588 6.77,-6.052 12.179,-7.488c9.565,-0.954 18.875,-1.28 26.742,4.862c3.132,3.292 4.644,5.425 6.078,9.724c4.8,-0.763 8.751,-2.267 13.143,-4.33c1.187,-0.554 2.372,-1.106 3.594,-1.676c0.894,-0.424 1.789,-0.849 2.711,-1.286c-5.739,-12.582 -12.834,-20.657 -25.83,-25.906c-3.554,-1.032 -3.554,-1.032 -8.205,-0.836l0,-23.094l-19.448,0l-0.001,-0.001Z" style="fill-rule:nonzero;"/><path d="M103.793,155.275c0.912,-0.001 1.823,-0.002 2.762,-0.003c3.062,-0.002 6.126,0.004 9.188,0.011l6.576,0c5.959,0 11.918,0.007 17.877,0.015c6.225,0.008 12.449,0.009 18.674,0.01c11.791,0.003 23.581,0.014 35.373,0.026c13.422,0.014 26.844,0.021 40.265,0.026c27.613,0.013 55.226,0.034 82.84,0.061c-0.508,1.838 -0.508,1.838 -1.026,3.714c-0.446,1.638 -0.892,3.276 -1.338,4.914c-0.223,0.804 -0.446,1.608 -0.675,2.436c-5.114,18.885 -2.517,36.05 3.041,54.573l-158.015,0c3.611,10.831 7.22,21.66 10.939,32.818c2.02,6.358 4.024,12.714 5.978,19.092c0.51,1.655 1.022,3.31 1.532,4.965c1.074,3.48 2.146,6.961 3.216,10.442c2.896,9.418 5.807,18.832 8.717,28.246c0.299,0.967 0.598,1.934 0.905,2.93c4.513,14.6 9.065,29.186 13.652,43.762c0.296,0.942 0.593,1.885 0.899,2.855c2.851,9.059 5.707,18.117 8.567,27.174c7.566,23.958 14.931,47.972 22.17,72.031c7.622,0.402 15.242,0.802 23.094,1.216c1.276,27.743 -8.691,53.193 -27.356,73.729c-21.822,23.437 -51.417,39.958 -83.856,42.013c-4.691,0.144 -9.368,0.193 -14.061,0.187c-0.828,0 -1.658,0 -2.511,-0.001c-13.442,-0.041 -25.887,-1.204 -38.74,-5.317c-1.381,-0.441 -2.761,-0.88 -4.183,-1.334c-16.091,-5.712 -30.634,-13.845 -43.221,-25.406c-0.597,-0.538 -1.193,-1.078 -1.809,-1.633c-18.479,-16.838 -32.62,-40.079 -35.872,-65.22c-0.251,-5.713 -0.174,-11.293 0,-17.017c9.226,-0.402 18.451,-0.802 27.956,-1.216c1.181,-3.839 2.363,-7.678 3.58,-11.633c10.608,-34.43 21.337,-68.821 32.162,-103.184c5.928,-18.82 11.843,-37.643 17.66,-56.498c0.47,-1.523 0.939,-3.045 1.423,-4.615c2.175,-7.056 4.344,-14.114 6.508,-21.175c4.857,-15.817 9.934,-31.542 15.243,-47.212c-1.206,0.05 -2.413,0.1 -3.656,0.152c-8.968,0.321 -15.645,0.213 -23.084,-5.014c-1.078,-0.702 -2.156,-1.404 -3.266,-2.127c-7.364,-7.165 -10.288,-14.579 -10.483,-24.766c-0.041,-9.641 2.279,-15.855 7.369,-23.854c7.362,-7.362 14.695,-10.217 24.988,-10.174l-0.001,0.001Zm31.228,116.835c-0.276,0.892 -0.551,1.785 -0.835,2.704c-15.331,49.622 -30.769,99.208 -46.369,148.746c-0.759,2.409 -1.517,4.819 -2.275,7.228c-2.027,6.442 -4.056,12.882 -6.101,19.319c-0.294,0.931 -0.589,1.863 -0.892,2.822c-0.725,2.292 -1.454,4.582 -2.182,6.873c-1.017,2.987 -1.017,2.987 -0.904,5.574l120.335,0c-2.805,-10.379 -2.805,-10.379 -5.867,-20.66c-0.401,-1.281 -0.802,-2.562 -1.216,-3.882c-0.428,-1.359 -0.857,-2.717 -1.297,-4.118c-0.71,-2.264 -1.42,-4.53 -2.13,-6.794c-0.758,-2.416 -1.517,-4.832 -2.275,-7.248c-2.716,-8.644 -5.422,-17.293 -8.13,-25.94c-0.282,-0.902 -0.566,-1.805 -0.857,-2.735c-6.672,-21.309 -13.286,-42.636 -19.891,-63.966c-0.875,-2.827 -1.751,-5.654 -2.626,-8.48c-1.647,-5.317 -3.294,-10.635 -4.939,-15.953c-0.368,-1.189 -0.368,-1.189 -0.744,-2.401c-3.207,-10.359 -6.403,-20.721 -9.589,-31.086l-1.216,0l0,-0.001Z" style="fill-rule:nonzero;"/><path d="M477.793,155.421c28.834,-0.114 57.668,-0.2 86.502,-0.252c13.388,-0.025 26.777,-0.06 40.165,-0.115c11.671,-0.049 23.34,-0.08 35.011,-0.091c6.179,-0.007 12.357,-0.022 18.535,-0.056c5.819,-0.033 11.636,-0.043 17.455,-0.036c2.132,-0.001 4.265,-0.011 6.397,-0.029c19.846,-0.165 19.846,-0.165 28.094,5.442c1.078,0.702 2.156,1.404 3.266,2.127c6.637,6.458 10.214,13.565 10.459,22.849c0.081,8.474 -0.042,15.387 -5.217,22.429c-0.702,1.078 -1.404,2.156 -2.127,3.266c-5.375,5.523 -12.068,9.978 -19.918,10.223c-1.424,-0.014 -2.848,-0.028 -4.316,-0.042c-2.15,-0.016 -2.15,-0.016 -4.344,-0.034c-1.099,-0.014 -2.197,-0.028 -3.328,-0.042c0.399,1.178 0.399,1.178 0.808,2.38c7.294,21.546 14.173,43.197 20.859,64.938c2.896,9.418 5.807,18.832 8.717,28.246c0.299,0.967 0.598,1.934 0.905,2.93c4.513,14.6 9.065,29.186 13.652,43.762c0.296,0.942 0.593,1.885 0.899,2.855c2.851,9.059 5.707,18.117 8.567,27.174c5.425,17.173 10.801,34.361 16.046,51.59c0.547,1.796 1.094,3.592 1.644,5.387c0.757,2.477 1.509,4.957 2.26,7.436c0.645,2.123 0.645,2.123 1.303,4.289c0.918,3.328 0.918,3.328 0.918,5.76l25.526,0c0.176,9.252 0.249,16.665 -2.431,25.526c-0.939,0.004 -1.879,0.009 -2.847,0.013c-8.921,0.047 -17.842,0.116 -26.763,0.211c-4.584,0.048 -9.169,0.087 -13.754,0.106c-4.438,0.018 -8.874,0.061 -13.311,0.118c-1.679,0.017 -3.36,0.027 -5.039,0.028c-17.162,0.022 -32.288,3.195 -45.164,15.054c-9.882,10.369 -14.833,24.006 -14.609,38.245c1.013,10.763 4.85,19.163 9.933,28.512c2.16,4.012 2.16,4.012 3.376,7.659c-19.163,0.532 -37.5,1.004 -55.914,-4.862c-1.385,-0.441 -2.77,-0.88 -4.197,-1.334c-16.085,-5.731 -30.618,-13.843 -43.207,-25.406c-0.597,-0.538 -1.193,-1.078 -1.809,-1.633c-18.479,-16.838 -32.62,-40.079 -35.872,-65.22c-0.251,-5.713 -0.174,-11.293 0,-17.017l25.526,0c0.479,-2.006 0.956,-4.013 1.449,-6.08c2.359,-9.422 5.255,-18.653 8.174,-27.911c0.597,-1.903 1.193,-3.807 1.789,-5.71c1.274,-4.068 2.551,-8.133 3.83,-12.199c2.03,-6.453 4.053,-12.907 6.076,-19.363c0.694,-2.213 1.387,-4.427 2.081,-6.64c0.346,-1.105 0.693,-2.211 1.05,-3.35c1.063,-3.391 2.127,-6.781 3.19,-10.173c7.095,-22.619 14.149,-45.25 21.198,-67.883c1.488,-4.78 2.978,-9.56 4.467,-14.34c0.286,-0.915 0.57,-1.829 0.863,-2.771c1.392,-4.466 2.783,-8.933 4.176,-13.399c0.268,-0.859 0.535,-1.717 0.811,-2.602c0.536,-1.721 1.073,-3.441 1.61,-5.162c1.69,-5.42 3.376,-10.843 5.062,-16.265c1.134,-3.651 2.271,-7.3 3.409,-10.951c0.537,-1.727 1.075,-3.454 1.611,-5.182c0.735,-2.369 1.473,-4.736 2.211,-7.104c0.626,-2.014 0.626,-2.014 1.265,-4.068c1.04,-3.162 1.04,-3.162 2.256,-5.593l-159.231,0c1.604,-6.017 3.209,-12.033 4.862,-18.233c1.93,-14.2 1.103,-27.897 -3.097,-41.632c-0.33,-1.084 -0.66,-2.168 -1,-3.285c-0.253,-0.821 -0.505,-1.641 -0.765,-2.487l-0.001,0.001Zm182.325,116.688c-0.276,0.892 -0.551,1.785 -0.835,2.704c-15.331,49.622 -30.769,99.208 -46.369,148.746c-0.759,2.409 -1.517,4.819 -2.275,7.228c-2.027,6.442 -4.056,12.882 -6.101,19.319c-0.294,0.931 -0.589,1.863 -0.892,2.822c-0.725,2.292 -1.454,4.582 -2.182,6.873c-1.017,2.987 -1.017,2.987 -0.904,5.574l120.335,0c-2.805,-10.379 -2.805,-10.379 -5.867,-20.66c-0.401,-1.281 -0.802,-2.562 -1.216,-3.882c-0.428,-1.359 -0.857,-2.717 -1.297,-4.118c-0.71,-2.264 -1.42,-4.53 -2.13,-6.794c-0.758,-2.416 -1.517,-4.832 -2.275,-7.248c-2.716,-8.644 -5.422,-17.293 -8.13,-25.94c-0.282,-0.902 -0.566,-1.805 -0.857,-2.735c-6.672,-21.309 -13.286,-42.636 -19.891,-63.966c-0.875,-2.827 -1.751,-5.654 -2.626,-8.48c-1.647,-5.317 -3.294,-10.635 -4.939,-15.953c-0.368,-1.189 -0.368,-1.189 -0.744,-2.401c-3.207,-10.359 -6.403,-20.721 -9.589,-31.086l-1.216,0l-0,-0.001Z" style="fill-rule:nonzero;"/><path d="M41.874,809.211c0.939,-0.001 1.877,-0.003 2.844,-0.004c3.179,-0.003 6.357,0.002 9.534,0.008c2.288,0 4.577,-0.001 6.865,-0.003c6.314,-0.003 12.628,0.002 18.942,0.009c6.799,0.005 13.599,0.003 20.398,0.002c11.789,-0.001 23.577,0.003 35.366,0.01c17.044,0.01 34.09,0.013 51.134,0.014c27.651,0.002 55.302,0.011 82.954,0.022c26.866,0.011 53.734,0.02 80.6,0.025l2.509,0c8.313,0.001 16.625,0.003 24.938,0.004c69.742,0.013 139.486,0.034 209.228,0.062c0.656,1.323 1.312,2.648 1.989,4.011c0.876,1.761 1.751,3.52 2.627,5.281c0.431,0.87 0.861,1.739 1.305,2.636c7.08,14.213 15.776,25.471 26.898,36.693c1.33,1.354 1.33,1.354 2.688,2.735c7.141,6.785 15.431,11.657 23.83,16.709c1.277,0.803 2.554,1.608 3.87,2.436l0,1.216c-58.765,0.104 -117.531,0.201 -176.296,0.257c-0.87,0.001 -1.739,0.002 -2.635,0.002c-18.895,0.018 -37.79,0.035 -56.685,0.05c-9.266,0.008 -18.531,0.015 -27.798,0.024c-0.922,0.001 -1.844,0.001 -2.794,0.002c-29.897,0.026 -59.796,0.072 -89.693,0.127c-30.719,0.058 -61.437,0.094 -92.156,0.107c-4.337,0.002 -8.674,0.003 -13.01,0.005c-0.853,0 -1.708,0.001 -2.587,0.001c-13.751,0.008 -27.502,0.036 -41.253,0.072c-13.818,0.036 -27.636,0.049 -41.453,0.04c-7.489,-0.004 -14.978,0.002 -22.469,0.035c-6.852,0.029 -13.703,0.031 -20.554,0.01c-2.484,-0.002 -4.967,0.005 -7.45,0.024c-3.367,0.024 -6.734,0.011 -10.101,-0.011c-1.457,0.024 -1.457,0.024 -2.944,0.049c-6.967,-0.105 -10.02,-1.876 -14.889,-6.874c-1.404,-2.806 -1.398,-4.488 -1.45,-7.612c-0.02,-1.071 -0.039,-2.143 -0.06,-3.247c-0.054,-4.908 -0.104,-9.816 -0.132,-14.724c-0.021,-2.587 -0.053,-5.174 -0.1,-7.76c-0.066,-3.732 -0.093,-7.462 -0.111,-11.194c-0.027,-1.151 -0.055,-2.302 -0.084,-3.488c0.017,-5.42 0.158,-9.147 3.646,-13.461c4.852,-4.521 8.186,-4.324 14.538,-4.301l0.001,0.002Z" style="fill-rule:nonzero;"/><path d="M374.475,272.11c1.53,0.19 3.058,0.379 4.634,0.574c13.307,1.548 25.782,2.02 39.124,0.64c1.572,3.144 1.45,5.532 1.555,9.054c0.045,1.416 0.089,2.831 0.136,4.289c0.043,1.569 0.088,3.137 0.132,4.754c0.051,1.673 0.102,3.347 0.153,5.02c0.141,4.615 0.275,9.23 0.407,13.845c0.144,4.973 0.295,9.946 0.445,14.919c0.293,9.759 0.58,19.519 0.865,29.278c0.232,7.952 0.467,15.902 0.702,23.853c0.034,1.132 0.067,2.263 0.102,3.429c0.068,2.299 0.137,4.599 0.205,6.899c0.64,21.606 1.274,43.212 1.906,64.817c0.54,18.462 1.086,36.924 1.636,55.387c0.639,21.47 1.276,42.94 1.906,64.41c0.067,2.302 0.135,4.605 0.203,6.907c0.034,1.132 0.066,2.266 0.101,3.433c0.232,7.905 0.467,15.81 0.703,23.714c0.29,9.69 0.574,19.378 0.854,29.068c0.142,4.926 0.287,9.852 0.435,14.778c0.598,19.754 1.029,39.495 1.068,59.258c0.003,0.884 0.007,1.767 0.01,2.678c0.008,2.467 0.005,4.935 0.002,7.402c-0.001,1.405 -0.001,2.809 -0.002,4.256c-0.155,3.148 -0.155,3.148 -1.371,4.364c-2.089,0.114 -4.183,0.143 -6.274,0.138l-4.056,0c-1.456,-0.007 -2.913,-0.013 -4.413,-0.02c-1.482,-0.002 -2.965,-0.003 -4.491,-0.005c-4.756,-0.007 -9.512,-0.022 -14.269,-0.038c-3.215,-0.007 -6.431,-0.012 -9.645,-0.016c-7.902,-0.012 -15.803,-0.035 -23.704,-0.06c-0.473,-44.343 0.758,-88.658 1.843,-132.984c0.189,-7.736 0.377,-15.47 0.561,-23.206c0.027,-1.113 0.053,-2.224 0.08,-3.371c0.054,-2.261 0.109,-4.521 0.163,-6.783c0.504,-21.012 1.014,-42.024 1.527,-63.036c0.44,-18.018 0.874,-36.036 1.303,-54.054c0.5,-21.023 1.005,-42.046 1.515,-63.067c0.054,-2.237 0.109,-4.474 0.163,-6.711c0.027,-1.101 0.053,-2.2 0.081,-3.334c0.188,-7.747 0.373,-15.494 0.557,-23.241c0.224,-9.407 0.452,-18.814 0.685,-28.22c0.118,-4.796 0.236,-9.592 0.347,-14.389c0.102,-4.385 0.21,-8.768 0.321,-13.153c0.059,-2.345 0.112,-4.691 0.164,-7.035c0.036,-1.382 0.073,-2.765 0.11,-4.188c0.029,-1.197 0.059,-2.395 0.088,-3.629c0.214,-2.983 0.214,-2.983 1.429,-6.629l0,0.003Z" style="fill-rule:nonzero;"/><path d="M143.464,743.574c2.325,-0.003 2.325,-0.003 4.698,-0.008c1.737,0.003 3.473,0.007 5.21,0.011c1.832,0 3.664,-0.001 5.496,-0.003c5.053,-0.003 10.105,0.002 15.159,0.009c5.442,0.005 10.884,0.003 16.326,0.002c9.435,-0.001 18.869,0.003 28.305,0.01c13.641,0.01 27.282,0.013 40.923,0.014c22.13,0.002 44.26,0.011 66.39,0.022c21.502,0.011 43.004,0.02 64.506,0.025c1.987,0 1.987,0 4.014,0.001c6.645,0.001 13.289,0.003 19.934,0.004c55.157,0.013 110.313,0.034 165.47,0.061c-0.007,0.875 -0.013,1.749 -0.02,2.65c-0.026,4.055 -0.041,8.109 -0.056,12.164c-0.01,1.375 -0.021,2.75 -0.03,4.166c-0.027,9.532 0.451,18.933 1.322,28.424c-56.55,0.139 -113.101,0.246 -169.65,0.31c-6.673,0.008 -13.347,0.015 -20.02,0.024c-1.329,0.001 -2.657,0.003 -4.026,0.004c-21.524,0.026 -43.048,0.075 -64.572,0.13c-22.078,0.056 -44.156,0.09 -66.235,0.103c-13.628,0.009 -27.256,0.035 -40.884,0.084c-9.34,0.033 -18.679,0.042 -28.019,0.034c-5.392,-0.004 -10.784,0.002 -16.176,0.035c-4.935,0.029 -9.87,0.031 -14.806,0.01c-1.787,-0.002 -3.574,0.005 -5.359,0.024c-15.021,0.151 -15.021,0.151 -19.808,-3.692c-5.216,-6.28 -4.186,-12.569 -4.284,-20.466c-0.046,-1.378 -0.091,-2.754 -0.138,-4.174c-0.12,-11.399 -0.12,-11.399 3.509,-15.863c4.619,-4.022 6.785,-4.121 12.821,-4.119l0.001,0.004Z" style="fill-rule:nonzero;"/><path d="M713.639,510.168c1.502,-0.009 3.006,-0.017 4.554,-0.026c1.662,-0.003 3.324,-0.007 4.987,-0.01c1.753,-0.008 3.506,-0.015 5.26,-0.024c5.756,-0.026 11.511,-0.038 17.267,-0.05c1.984,-0.005 3.97,-0.01 5.954,-0.015c9.329,-0.023 18.657,-0.04 27.987,-0.051c10.75,-0.012 21.499,-0.043 32.25,-0.093c8.321,-0.037 16.64,-0.054 24.961,-0.059c4.964,-0.003 9.927,-0.014 14.892,-0.045c4.675,-0.028 9.35,-0.034 14.025,-0.021c1.708,0.001 3.416,-0.007 5.124,-0.024c11.726,-0.109 21.866,0.992 31.484,8.193c8.002,8.187 11.164,16.154 11.775,27.652c-0.531,11.421 -6.538,23.555 -14.585,31.603c-11.272,8.981 -24.157,8.87 -38.017,8.823c-1.571,0.004 -3.142,0.009 -4.76,0.013c-4.274,0.011 -8.549,0.007 -12.823,-0.001c-4.494,-0.007 -8.988,0 -13.483,0.003c-7.545,0.004 -15.089,-0.001 -22.633,-0.013c-8.695,-0.013 -17.391,-0.009 -26.087,0.004c-7.495,0.011 -14.989,0.013 -22.484,0.007c-4.464,-0.003 -8.928,-0.004 -13.39,0.003c-4.979,0.009 -9.959,-0.003 -14.939,-0.016c-1.46,0.005 -2.92,0.01 -4.425,0.015c-13.161,-0.066 -24.688,-0.962 -34.808,-10.053c-2.896,-3.431 -5.127,-7.015 -7.293,-10.939c-0.503,-0.809 -1.006,-1.617 -1.524,-2.45c-4.935,-9.01 -5.211,-21.28 -2.45,-31.095c1.138,-2.41 2.387,-4.431 3.974,-6.567c0.877,-1.279 1.755,-2.558 2.659,-3.874c7.652,-7.652 15.874,-10.848 26.553,-10.89l-0.003,-0.001Z" style="fill-rule:nonzero;"/><path d="M438.896,131.111c14.552,11.435 25.276,26.235 27.956,44.973c1.677,22.919 -1.862,41.512 -16.737,59.768c-11.86,12.883 -28.051,21.04 -45.477,22.169c-22.128,0.859 -40.454,-4.137 -57.134,-19.491c-14.316,-15.257 -19.996,-32.425 -19.795,-52.947c0.687,-20.597 8.902,-36.586 23.669,-50.827c23.891,-20.466 62.087,-22.456 87.516,-3.646l0.001,-0Z" style="fill-rule:nonzero;"/></svg>