<?xml version="1.0" encoding="UTF-8" standalone="no"?><!DOCTYPE svg PUBLIC "-//W3C//DTD SVG 1.1//EN" "http://www.w3.org/Graphics/SVG/1.1/DTD/svg11.dtd"><svg width="100%" height="100%" viewBox="0 0 300 300" version="1.1" xmlns="http://www.w3.org/2000/svg" xmlns:xlink="http://www.w3.org/1999/xlink" xml:space="preserve" xmlns:serif="http://www.serif.com/" style="fill-rule:evenodd;clip-rule:evenodd;stroke-linejoin:round;stroke-miterlimit:2;"><path d="M285.363,149.075l-29.985,-39.98c-2.341,-3.132 -6.072,-4.992 -9.974,-4.992l-33.534,0l0,-31.139c0,-10.497 -8.541,-19.038 -19.038,-19.038l-152.297,0c-5.772,0 -10.572,1.999 -14.698,6.115c-4.105,4.116 -6.115,8.926 -6.115,14.698l0,115.995c0,9.76 7.953,17.702 17.713,17.702l7.376,0l0,4.276c0,9.364 3.186,17.093 9.728,23.635c6.542,6.542 14.271,9.728 23.624,9.728c9.364,0 17.093,-3.186 23.635,-9.728c6.542,-6.542 9.728,-14.271 9.728,-23.635l0,-4.276l83.808,0l0,4.276c0,9.364 3.175,17.093 9.717,23.635c6.553,6.542 14.282,9.728 23.635,9.728c9.364,0 17.093,-3.186 23.635,-9.728c6.542,-6.542 9.717,-14.271 9.717,-23.635l0,-4.276l16.227,0c4.885,0 8.862,-3.977 8.862,-8.851l0,-45.228c0,-1.892 -0.62,-3.763 -1.764,-5.281Zm-195.238,75.609c-3.218,3.218 -7.248,4.853 -11.962,4.853c-4.703,0 -8.734,-1.636 -11.951,-4.853c-3.228,-3.228 -4.864,-7.258 -4.864,-11.973c0,-4.703 1.636,-8.734 4.864,-11.951c3.218,-3.228 7.248,-4.864 11.951,-4.864c4.714,0 8.744,1.636 11.962,4.864c3.228,3.218 4.853,7.237 4.853,11.951c-0,4.725 -1.625,8.744 -4.853,11.973Zm81.98,-105.273l-0.064,0.353l-0.128,0.481c-0.118,0.47 -0.289,0.93 -0.513,1.368c-0.128,0.289 -0.257,0.513 -0.363,0.695l-0.107,0.182l-0.118,0.182c-0.706,1.016 -1.636,1.871 -2.694,2.469l-0.898,0.524l0,24.597c0,3.218 -1.732,6.211 -4.5,7.814l-36.698,21.198c-1.39,0.791 -2.94,1.208 -4.511,1.208c-2.052,0 -4.019,-0.706 -5.601,-1.946c-1.582,1.24 -3.56,1.946 -5.612,1.946c-1.571,0 -3.121,-0.417 -4.49,-1.197l-35.618,-20.567l-1.08,-0.62c-2.801,-1.625 -4.532,-4.618 -4.532,-7.836l0,-24.565l-1.026,-0.588c-3.047,-1.71 -4.618,-5.238 -3.848,-8.734c0.331,-1.454 1.037,-2.79 2.074,-3.87l9.471,-9.46c-0.919,-1.7 -1.272,-3.667 -0.983,-5.634c0.406,-2.758 2.02,-5.131 4.447,-6.521l36.666,-21.176c1.368,-0.791 2.929,-1.208 4.522,-1.208c1.593,0 3.153,0.417 4.532,1.219l36.677,21.176c3.036,1.742 4.8,5.131 4.49,8.637c-0.118,1.251 -0.492,2.469 -1.09,3.549l9.332,9.311c0.898,0.909 1.582,2.02 1.967,3.239c0.043,0.128 0.107,0.342 0.171,0.62c0.075,0.278 0.128,0.567 0.16,0.855l0.021,0.107l0,0.064c0.011,0.096 0.021,0.203 0.021,0.299c0.043,0.588 0.021,1.197 -0.075,1.828Zm68.543,105.273c-3.228,3.218 -7.248,4.853 -11.962,4.853c-4.703,0 -8.723,-1.636 -11.962,-4.853c-3.218,-3.228 -4.853,-7.258 -4.853,-11.973c0,-4.714 1.636,-8.734 4.864,-11.962c3.228,-3.218 7.248,-4.853 11.951,-4.853c4.714,0 8.734,1.636 11.973,4.864c3.218,3.228 4.853,7.248 4.853,11.951c-0,4.714 -1.636,8.734 -4.864,11.973Zm25.901,-63.593c-1.764,3.528 -5.324,5.73 -9.268,5.73l-32.101,0c-7.333,0 -13.309,-5.976 -13.309,-13.309l0,-20.952c0,-6.574 5.345,-11.919 11.919,-11.919l11.951,0c4.778,0 9.343,2.277 12.208,6.104l17.627,23.496c2.362,3.153 2.737,7.312 0.973,10.85Z" style="fill-rule:nonzero;"/><g><path d="M155.205,98.972c-0.053,0.588 -0.299,1.154 -0.738,1.593c-0.043,0.043 -0.096,0.096 -0.15,0.139l-0.011,0c-0.118,0.118 -0.257,0.214 -0.406,0.299l-34.432,19.872l-1.775,1.037l-0.481,0.267c-0.203,0.118 -0.417,0.203 -0.631,0.267c-0.043,0.011 -0.096,0.021 -0.139,0.021c-0.353,0.086 -0.727,0.086 -1.08,0.011c-0.053,-0.011 -0.096,-0.021 -0.15,-0.032c-0.032,-0.011 -0.064,-0.021 -0.096,-0.032c-0.192,-0.053 -0.363,-0.128 -0.534,-0.224l-0.684,-0.396l-0.118,-0.075l-1.454,-0.844l-34.432,-19.872c-0.171,-0.096 -0.331,-0.203 -0.46,-0.331c-0.053,-0.043 -0.107,-0.086 -0.15,-0.139c-1.112,-1.176 -0.919,-3.196 0.609,-4.073l36.687,-21.187c0.812,-0.47 1.817,-0.47 2.63,0l36.687,21.187c0.951,0.545 1.39,1.55 1.304,2.512Z" style="fill-rule:nonzero;"/><path d="M112.403,128.177l0,0.075c0,0.043 0,0.086 -0.011,0.128c-0.011,0.086 -0.032,0.171 -0.064,0.257c-0.064,0.235 -0.203,0.46 -0.385,0.652l-9.471,9.471c-0.534,0.534 -1.347,0.641 -2.01,0.267l-29.472,-17.018l-4.233,-2.448c-0.663,-0.374 -0.941,-1.122 -0.791,-1.796c0.064,-0.289 0.203,-0.577 0.438,-0.823l4.586,-4.575l4.821,-4.821c0.043,-0.043 0.086,-0.086 0.128,-0.118c0.043,-0.032 0.075,-0.064 0.118,-0.086c0.043,-0.032 0.096,-0.064 0.15,-0.086c0.064,-0.032 0.118,-0.064 0.182,-0.086c0.107,-0.043 0.203,-0.064 0.31,-0.086c0.374,-0.064 0.77,0 1.122,0.203l32.924,19.006l0.053,0.032l0.812,0.47c0.267,0.15 0.46,0.353 0.588,0.599c0.043,0.075 0.086,0.15 0.107,0.224c0.011,0.032 0.021,0.053 0.021,0.086c0.021,0.064 0.043,0.128 0.053,0.192l0,0.043c0.021,0.086 0.021,0.15 0.021,0.235Z" style="fill-rule:nonzero;"/><path d="M165.777,117.947l0,0.053c0.021,0.128 0.011,0.267 -0.011,0.406c-0.021,0.075 -0.043,0.16 -0.064,0.235c-0.021,0.086 -0.053,0.15 -0.096,0.224c-0.021,0.064 -0.053,0.118 -0.086,0.171c-0.139,0.203 -0.331,0.396 -0.567,0.524l-4.148,2.395l-0.086,0.053l-29.472,17.018c-0.663,0.374 -1.475,0.267 -2.01,-0.267l-4.864,-4.864l-4.49,-4.5c-0.203,-0.192 -0.342,-0.428 -0.417,-0.673c-0.043,-0.118 -0.053,-0.224 -0.075,-0.342c-0.011,-0.053 -0.011,-0.096 -0.011,-0.139c-0.011,-0.192 0.021,-0.385 0.086,-0.567c0.032,-0.086 0.053,-0.15 0.096,-0.224c0.086,-0.171 0.203,-0.331 0.353,-0.46c0.053,-0.043 0.107,-0.086 0.171,-0.128c0.032,-0.011 0.064,-0.043 0.096,-0.064l33.748,-19.477c0.257,-0.15 0.545,-0.224 0.823,-0.224c0.086,0 0.16,0.011 0.235,0.021c0.086,0.011 0.171,0.021 0.246,0.053c0.064,0.021 0.128,0.043 0.192,0.075c0.064,0.021 0.118,0.053 0.171,0.086c0.021,0.011 0.043,0.021 0.075,0.053c0.043,0.011 0.086,0.043 0.128,0.075c0.043,0.043 0.096,0.086 0.139,0.128l3.87,3.87l5.495,5.484c0.182,0.182 0.31,0.396 0.385,0.631c0.021,0.064 0.043,0.128 0.053,0.192l0,0.011c0.021,0.053 0.032,0.107 0.032,0.171Z" style="fill-rule:nonzero;"/><path d="M112.456,172.946c-0.738,1.048 -2.213,1.486 -3.463,0.77l-35.597,-20.556l-1.101,-0.631c-0.812,-0.47 -1.304,-1.336 -1.304,-2.266l0,-20.706l26.222,15.137c1.24,0.716 2.651,1.101 4.083,1.101c2.181,0 4.222,-0.844 5.794,-2.405l5.238,-5.238l0,33.288c0,0.513 0.043,1.016 0.128,1.507Z" style="fill-rule:nonzero;"/><path d="M112.456,172.946c-0.738,1.048 -2.213,1.486 -3.463,0.77l-35.597,-20.556l-1.101,-0.631c-0.812,-0.47 -1.304,-1.336 -1.304,-2.266l0,-20.706l26.222,15.137c1.24,0.716 2.651,1.101 4.083,1.101c2.181,0 4.222,-0.844 5.794,-2.405l5.238,-5.238l0,33.288c0,0.513 0.043,1.016 0.128,1.507Z" style="fill-rule:nonzero;"/><path d="M160.806,129.513l0,20.749c0,0.93 -0.492,1.796 -1.304,2.266l-1.09,0.631l-35.597,20.556c-1.251,0.716 -2.726,0.278 -3.474,-0.77c0.086,-0.492 0.128,-0.994 0.128,-1.507l0,-33.202l3.132,3.132l2.031,2.042c0.064,0.064 0.128,0.128 0.192,0.182c0.032,0.032 0.075,0.064 0.107,0.107c1.507,1.347 3.442,2.095 5.484,2.095c1.4,0 2.801,-0.374 4.041,-1.069c0.021,-0.011 0.043,-0.021 0.064,-0.032l26.286,-15.179Z" style="fill-rule:nonzero;"/><path d="M160.806,129.513l0,20.749c0,0.93 -0.492,1.796 -1.304,2.266l-1.09,0.631l-35.597,20.556c-1.251,0.716 -2.726,0.278 -3.474,-0.77c0.086,-0.492 0.128,-0.994 0.128,-1.507l0,-33.202l3.132,3.132l2.031,2.042c0.064,0.064 0.128,0.128 0.192,0.182c0.032,0.032 0.075,0.064 0.107,0.107c1.507,1.347 3.442,2.095 5.484,2.095c1.4,0 2.801,-0.374 4.041,-1.069c0.021,-0.011 0.043,-0.021 0.064,-0.032l26.286,-15.179Z" style="fill-rule:nonzero;"/></g></svg>