<?xml version="1.0" encoding="utf-8"?>
<!-- Generator: Adobe Illustrator 23.0.1, SVG Export Plug-In . SVG Version: 6.00 Build 0)  -->
<svg version="1.1" id="Layer_1" xmlns="http://www.w3.org/2000/svg" xmlns:xlink="http://www.w3.org/1999/xlink" x="0px" y="0px"
	 viewBox="0 0 300 300" style="enable-background:new 0 0 300 300;" xml:space="preserve">
<style type="text/css">
	.st0{stroke:#000000;stroke-width:3;stroke-miterlimit:10;}
	.st1{fill:#E3E3E3;}
</style>
<path d="M276.85,143.27l-28.05-37.4c-2.19-2.93-5.68-4.67-9.33-4.67H208.1V72.07c0-9.82-7.99-17.81-17.81-17.81H47.82
	c-5.4,0-9.89,1.87-13.75,5.72c-3.84,3.85-5.72,8.35-5.72,13.75v108.51c0,9.13,7.44,16.56,16.57,16.56h6.9v4
	c0,8.76,2.98,15.99,9.1,22.11c6.12,6.12,13.35,9.1,22.1,9.1c8.76,0,15.99-2.98,22.11-9.1c6.12-6.12,9.1-13.35,9.1-22.11v-4h78.4v4
	c0,8.76,2.97,15.99,9.09,22.11c6.13,6.12,13.36,9.1,22.11,9.1c8.76,0,15.99-2.98,22.11-9.1c6.12-6.12,9.09-13.35,9.09-22.11v-4
	h15.18c4.57,0,8.29-3.72,8.29-8.28v-42.31C278.5,146.44,277.92,144.69,276.85,143.27z M94.21,214c-3.01,3.01-6.78,4.54-11.19,4.54
	c-4.4,0-8.17-1.53-11.18-4.54c-3.02-3.02-4.55-6.79-4.55-11.2c0-4.4,1.53-8.17,4.55-11.18c3.01-3.02,6.78-4.55,11.18-4.55
	c4.41,0,8.18,1.53,11.19,4.55c3.02,3.01,4.54,6.77,4.54,11.18C98.75,207.22,97.23,210.98,94.21,214z M170.9,115.52l-0.06,0.33
	l-0.12,0.45c-0.11,0.44-0.27,0.87-0.48,1.28c-0.12,0.27-0.24,0.48-0.34,0.65l-0.1,0.17l-0.11,0.17c-0.66,0.95-1.53,1.75-2.52,2.31
	l-0.84,0.49v23.01c0,3.01-1.62,5.81-4.21,7.31l-34.33,19.83c-1.3,0.74-2.75,1.13-4.22,1.13c-1.92,0-3.76-0.66-5.24-1.82
	c-1.48,1.16-3.33,1.82-5.25,1.82c-1.47,0-2.92-0.39-4.2-1.12l-33.32-19.24l-1.01-0.58c-2.62-1.52-4.24-4.32-4.24-7.33V121.4
	l-0.96-0.55c-2.85-1.6-4.32-4.9-3.6-8.17c0.31-1.36,0.97-2.61,1.94-3.62l8.86-8.85c-0.86-1.59-1.19-3.43-0.92-5.27
	c0.38-2.58,1.89-4.8,4.16-6.1l34.3-19.81c1.28-0.74,2.74-1.13,4.23-1.13s2.95,0.39,4.24,1.14l34.31,19.81
	c2.84,1.63,4.49,4.8,4.2,8.08c-0.11,1.17-0.46,2.31-1.02,3.32l8.73,8.71c0.84,0.85,1.48,1.89,1.84,3.03
	c0.04,0.12,0.1,0.32,0.16,0.58c0.07,0.26,0.12,0.53,0.15,0.8l0.02,0.1v0.06c0.01,0.09,0.02,0.19,0.02,0.28
	C171.01,114.36,170.99,114.93,170.9,115.52z M235.02,214c-3.02,3.01-6.78,4.54-11.19,4.54c-4.4,0-8.16-1.53-11.19-4.54
	c-3.01-3.02-4.54-6.79-4.54-11.2c0-4.41,1.53-8.17,4.55-11.19c3.02-3.01,6.78-4.54,11.18-4.54c4.41,0,8.17,1.53,11.2,4.55
	c3.01,3.02,4.54,6.78,4.54,11.18C239.57,207.21,238.04,210.97,235.02,214z M259.25,154.51c-1.65,3.3-4.98,5.36-8.67,5.36h-30.03
	c-6.86,0-12.45-5.59-12.45-12.45v-19.6c0-6.15,5-11.15,11.15-11.15h11.18c4.47,0,8.74,2.13,11.42,5.71l16.49,21.98
	C260.55,147.31,260.9,151.2,259.25,154.51z"/>
<g>
	<path d="M155.09,96.4c-0.05,0.55-0.28,1.08-0.69,1.49c-0.04,0.04-0.09,0.09-0.14,0.13c0,0,0,0-0.01,0
		c-0.11,0.11-0.24,0.2-0.38,0.28l-32.21,18.59l-1.66,0.97l-0.45,0.25c-0.19,0.11-0.39,0.19-0.59,0.25
		c-0.04,0.01-0.09,0.02-0.13,0.02c-0.33,0.08-0.68,0.08-1.01,0.01c-0.05-0.01-0.09-0.02-0.14-0.03c-0.03-0.01-0.06-0.02-0.09-0.03
		c-0.18-0.05-0.34-0.12-0.5-0.21l-0.64-0.37l-0.11-0.07l-1.36-0.79L82.77,98.3c-0.16-0.09-0.31-0.19-0.43-0.31
		c-0.05-0.04-0.1-0.08-0.14-0.13c-1.04-1.1-0.86-2.99,0.57-3.81l34.32-19.82c0.76-0.44,1.7-0.44,2.46,0l34.32,19.82
		C154.76,94.56,155.17,95.5,155.09,96.4z"/>
	<path d="M115.05,123.72v0.07c0,0.04,0,0.08-0.01,0.12c-0.01,0.08-0.03,0.16-0.06,0.24c-0.06,0.22-0.19,0.43-0.36,0.61l-8.86,8.86
		c-0.5,0.5-1.26,0.6-1.88,0.25l-27.57-15.92l-3.96-2.29c-0.62-0.35-0.88-1.05-0.74-1.68c0.06-0.27,0.19-0.54,0.41-0.77l4.29-4.28
		l4.51-4.51c0.04-0.04,0.08-0.08,0.12-0.11c0.04-0.03,0.07-0.06,0.11-0.08c0.04-0.03,0.09-0.06,0.14-0.08
		c0.06-0.03,0.11-0.06,0.17-0.08c0.1-0.04,0.19-0.06,0.29-0.08c0.35-0.06,0.72,0,1.05,0.19l30.8,17.78l0.05,0.03l0.76,0.44
		c0.25,0.14,0.43,0.33,0.55,0.56c0.04,0.07,0.08,0.14,0.1,0.21c0.01,0.03,0.02,0.05,0.02,0.08c0.02,0.06,0.04,0.12,0.05,0.18v0.04
		C115.05,123.58,115.05,123.64,115.05,123.72z"/>
	<path d="M164.98,114.15v0.05c0.02,0.12,0.01,0.25-0.01,0.38c-0.02,0.07-0.04,0.15-0.06,0.22c-0.02,0.08-0.05,0.14-0.09,0.21
		c-0.02,0.06-0.05,0.11-0.08,0.16c-0.13,0.19-0.31,0.37-0.53,0.49l-3.88,2.24l-0.08,0.05l-27.57,15.92
		c-0.62,0.35-1.38,0.25-1.88-0.25l-4.55-4.55l-4.2-4.21c-0.19-0.18-0.32-0.4-0.39-0.63c-0.04-0.11-0.05-0.21-0.07-0.32
		c-0.01-0.05-0.01-0.09-0.01-0.13c-0.01-0.18,0.02-0.36,0.08-0.53c0.03-0.08,0.05-0.14,0.09-0.21c0.08-0.16,0.19-0.31,0.33-0.43
		c0.05-0.04,0.1-0.08,0.16-0.12c0.03-0.01,0.06-0.04,0.09-0.06l31.57-18.22c0.24-0.14,0.51-0.21,0.77-0.21
		c0.08,0,0.15,0.01,0.22,0.02c0.08,0.01,0.16,0.02,0.23,0.05c0.06,0.02,0.12,0.04,0.18,0.07c0.06,0.02,0.11,0.05,0.16,0.08
		c0.02,0.01,0.04,0.02,0.07,0.05c0.04,0.01,0.08,0.04,0.12,0.07c0.04,0.04,0.09,0.08,0.13,0.12l3.62,3.62l5.14,5.13
		c0.17,0.17,0.29,0.37,0.36,0.59c0.02,0.06,0.04,0.12,0.05,0.18v0.01C164.97,114.04,164.98,114.09,164.98,114.15z"/>
	<path d="M115.1,165.6c-0.69,0.98-2.07,1.39-3.24,0.72l-33.3-19.23l-1.03-0.59c-0.76-0.44-1.22-1.25-1.22-2.12v-19.37l24.53,14.16
		c1.16,0.67,2.48,1.03,3.82,1.03c2.04,0,3.95-0.79,5.42-2.25l4.9-4.9v31.14C114.98,164.67,115.02,165.14,115.1,165.6z"/>
	<path d="M115.1,165.6c-0.69,0.98-2.07,1.39-3.24,0.72l-33.3-19.23l-1.03-0.59c-0.76-0.44-1.22-1.25-1.22-2.12v-19.37l24.53,14.16
		c1.16,0.67,2.48,1.03,3.82,1.03c2.04,0,3.95-0.79,5.42-2.25l4.9-4.9v31.14C114.98,164.67,115.02,165.14,115.1,165.6z"/>
	<path d="M160.33,124.97v19.41c0,0.87-0.46,1.68-1.22,2.12l-1.02,0.59l-33.3,19.23c-1.17,0.67-2.55,0.26-3.25-0.72
		c0.08-0.46,0.12-0.93,0.12-1.41v-31.06l2.93,2.93l1.9,1.91c0.06,0.06,0.12,0.12,0.18,0.17c0.03,0.03,0.07,0.06,0.1,0.1
		c1.41,1.26,3.22,1.96,5.13,1.96c1.31,0,2.62-0.35,3.78-1c0.02-0.01,0.04-0.02,0.06-0.03L160.33,124.97z"/>
	<path d="M160.33,124.97v19.41c0,0.87-0.46,1.68-1.22,2.12l-1.02,0.59l-33.3,19.23c-1.17,0.67-2.55,0.26-3.25-0.72
		c0.08-0.46,0.12-0.93,0.12-1.41v-31.06l2.93,2.93l1.9,1.91c0.06,0.06,0.12,0.12,0.18,0.17c0.03,0.03,0.07,0.06,0.1,0.1
		c1.41,1.26,3.22,1.96,5.13,1.96c1.31,0,2.62-0.35,3.78-1c0.02-0.01,0.04-0.02,0.06-0.03L160.33,124.97z"/>
</g>
</svg>
