<?xml version="1.0" encoding="UTF-8" standalone="no"?><!DOCTYPE svg PUBLIC "-//W3C//DTD SVG 1.1//EN" "http://www.w3.org/Graphics/SVG/1.1/DTD/svg11.dtd"><svg width="100%" height="100%" viewBox="0 0 1000 1000" version="1.1" xmlns="http://www.w3.org/2000/svg" xmlns:xlink="http://www.w3.org/1999/xlink" xml:space="preserve" xmlns:serif="http://www.serif.com/" style="fill-rule:evenodd;clip-rule:evenodd;stroke-linejoin:round;stroke-miterlimit:2;"><path d="M632.473,140.622c7.648,3.933 12.555,9.397 15.306,17.648c0.107,1.706 0.147,3.417 0.142,5.126c-0,1.025 -0,2.05 -0,3.106c-0.006,1.101 -0.013,2.202 -0.02,3.336c-0.003,1.697 -0.003,1.697 -0.005,3.428c-0.007,3.614 -0.023,7.229 -0.039,10.843c-0.006,2.45 -0.012,4.9 -0.017,7.35c-0.014,6.007 -0.035,12.014 -0.061,18.021c0.897,-0.017 1.793,-0.033 2.717,-0.05c8.454,-0.15 16.907,-0.264 25.361,-0.338c4.347,-0.039 8.692,-0.092 13.038,-0.177c4.998,-0.097 9.995,-0.133 14.993,-0.166c1.559,-0.039 3.118,-0.077 4.724,-0.117c4.011,-0.002 7.681,0.049 11.611,0.849c3.348,3.65 3.348,3.65 4.996,7.494c8.493,7.085 18.467,10.365 29.48,9.836c8.008,-1.19 14.39,-4.546 20.482,-9.836c1.406,-1.954 1.406,-1.954 2.84,-3.947c3.406,-3.547 3.406,-3.547 8.036,-4.499c1.71,-0.017 3.42,0.015 5.128,0.093c0.887,0.02 1.775,0.041 2.689,0.062c7.262,0.364 12.254,2.101 17.53,7.042c0.708,0.631 1.417,1.262 2.147,1.913c0.528,0.605 1.056,1.211 1.6,1.835c-0.39,2.732 -0.39,2.732 -1.249,4.996l-2.498,0c-0.346,0.704 -0.692,1.407 -1.049,2.132c-0.969,1.915 -1.975,3.812 -3.015,5.689c-5.594,10.371 -7.123,18.835 -4.406,30.382c3.337,10.31 10.889,18.202 20.265,23.464c4.289,2.06 8.62,4 12.988,5.886c7.785,3.606 11.501,7.158 15.186,14.884c0.424,0.854 0.847,1.709 1.284,2.589c1.669,3.466 3.234,6.975 4.803,10.487c2.218,4.858 4.625,9.396 7.467,13.92c4.39,7.193 7.625,14.81 10.862,22.568c1.998,4.786 4.029,9.558 6.054,14.332c0.444,1.049 0.888,2.098 1.345,3.179c6.211,14.661 12.58,29.254 18.928,43.855c1.255,2.889 2.51,5.778 3.765,8.667c1.824,4.199 3.647,8.397 5.471,12.596c3.331,7.667 6.659,15.335 9.983,23.005c0.361,0.834 0.723,1.668 1.095,2.527c1.639,3.782 3.275,7.566 4.905,11.352c2.926,6.786 5.901,13.544 8.974,20.265c0.89,1.972 0.89,1.972 1.799,3.984c1.093,2.416 2.203,4.825 3.333,7.225c3.566,7.927 5.404,15.116 2.597,23.594c-4.839,7.323 -10.629,11.642 -18.97,14.423c-3.653,0.118 -7.277,0.163 -10.93,0.15c-1.696,0.002 -1.696,0.002 -3.426,0.003c-3.803,0.002 -7.606,-0.005 -11.409,-0.012c-2.72,-0 -5.44,-0 -8.16,0.001c-7.398,0 -14.797,-0.007 -22.195,-0.016c-7.727,-0.008 -15.453,-0.009 -23.18,-0.01c-14.638,-0.004 -29.275,-0.014 -43.913,-0.027c-16.662,-0.014 -33.324,-0.021 -49.986,-0.027c-34.28,-0.013 -68.561,-0.035 -102.841,-0.063c-1.962,-3.707 -3.92,-7.415 -5.877,-11.124c-0.546,-1.032 -1.093,-2.065 -1.656,-3.128c-5.804,-11.003 -11.251,-22.17 -16.667,-33.368c-1.047,-2.158 -2.094,-4.315 -3.142,-6.472c-6.056,-12.479 -12.071,-24.977 -18.06,-37.487c-5.48,-11.435 -11.004,-22.848 -16.546,-34.253c-1.05,-2.161 -2.098,-4.324 -3.146,-6.486c-17.126,-36.309 -17.126,-36.309 -50.091,-57.805c-18.92,-5.341 -37.282,-4.016 -54.685,5.265c-15.254,9.193 -23.883,21.671 -31.695,37.393c-1.413,2.78 -2.826,5.559 -4.24,8.338c-0.685,1.358 -1.371,2.717 -2.077,4.116c-2.701,5.326 -5.485,10.607 -8.282,15.883c-7.1,13.454 -14.125,26.947 -21.156,40.438c-2.55,4.892 -5.1,9.785 -7.65,14.676c-0.621,1.191 -1.242,2.382 -1.882,3.61c-3.461,6.636 -6.941,13.261 -10.44,19.877c-4.452,8.423 -8.854,16.868 -13.128,25.383c-0.408,0.81 -0.816,1.62 -1.236,2.454c-2.077,4.168 -3.932,8.358 -5.634,12.691c-39.886,0.143 -79.772,0.253 -119.658,0.319c-4.712,0.008 -9.424,0.016 -14.136,0.024c-0.938,0.002 -1.876,0.003 -2.843,0.005c-15.176,0.027 -30.353,0.076 -45.529,0.134c-15.58,0.058 -31.159,0.093 -46.739,0.106c-9.609,0.009 -19.217,0.036 -28.826,0.086c-7.376,0.037 -14.751,0.041 -22.127,0.032c-3.02,0.002 -6.04,0.014 -9.06,0.038c-4.131,0.031 -8.261,0.024 -12.392,0.007c-1.188,0.018 -2.377,0.036 -3.601,0.055c-8.611,-0.095 -15.093,-2.381 -22.341,-7.051c-3.123,-3.201 -3.123,-3.201 -4.996,-6.245c-0.515,-0.747 -1.03,-1.494 -1.561,-2.264c-2.133,-6.222 -1.544,-12.038 1.066,-17.94c0.928,-1.888 1.877,-3.765 2.844,-5.633c0.516,-1.035 1.032,-2.071 1.564,-3.138c1.705,-3.41 3.439,-6.805 5.173,-10.2c1.204,-2.392 2.406,-4.786 3.607,-7.18c3.168,-6.306 6.361,-12.599 9.559,-18.891c3.208,-6.322 6.39,-12.657 9.576,-18.991c18.086,-35.905 18.086,-35.905 26.975,-52.703c5.601,-10.588 11.007,-21.264 16.341,-31.989c1.576,-3.168 3.155,-6.335 4.735,-9.501c3.354,-6.722 6.704,-13.447 10.054,-20.172c3.892,-7.813 7.785,-15.625 11.683,-23.435c1.531,-3.069 3.058,-6.14 4.586,-9.212c6.006,-12.052 12.181,-24.004 18.487,-35.902c3.446,-6.508 6.773,-13.073 10.054,-19.666c0.557,-1.109 1.114,-2.219 1.688,-3.362c3.033,-6.075 5.911,-12.181 8.567,-18.431c3.128,-6.593 7.663,-10.689 14.292,-13.864c6.217,-2.083 12.64,-1.699 19.131,-1.635c2.408,-0.006 2.408,-0.006 4.864,-0.013c4.435,-0.011 8.87,0.009 13.305,0.034c4.79,0.022 9.58,0.014 14.37,0.01c8.292,-0.003 16.585,0.013 24.877,0.041c11.989,0.041 23.979,0.054 35.968,0.06c19.453,0.011 38.906,0.044 58.36,0.091c18.894,0.046 37.788,0.081 56.682,0.102c1.165,0.001 2.33,0.003 3.531,0.004c5.845,0.007 11.691,0.013 17.536,0.019c48.473,0.052 96.945,0.14 145.417,0.251c-0.033,-1.492 -0.065,-2.985 -0.099,-4.523c-0.114,-5.58 -0.185,-11.159 -0.244,-16.74c-0.031,-2.407 -0.074,-4.814 -0.128,-7.221c-0.076,-3.476 -0.111,-6.951 -0.139,-10.428c-0.032,-1.062 -0.064,-2.124 -0.098,-3.219c-0.004,-8.013 2.142,-13.881 6.953,-20.323c9.164,-8.437 21.579,-10.158 33.407,-6.406Zm135.215,175.028c-4.462,7.064 -4.462,7.064 -6.245,14.989c-0.725,0.213 -1.449,0.425 -2.196,0.644c-12.627,3.917 -21.338,10.726 -27.626,22.463c-3.427,10.662 -2.904,18.855 1.093,29.353c5.317,9.648 13.631,15.86 23.878,19.736c3.462,2.205 4.357,4.974 6.021,8.68c5.12,10.593 10.069,16.35 20.829,21.366c9.575,3.236 19.276,3.056 28.509,-1.147c10.302,-6.046 16.293,-13.825 20.687,-24.903l0,-2.498c0.725,-0.213 1.449,-0.425 2.196,-0.644c12.627,-3.917 21.338,-10.726 27.626,-22.463c3.427,-10.662 2.904,-18.855 -1.093,-29.353c-5.317,-9.648 -13.631,-15.86 -23.878,-19.736c-3.462,-2.205 -4.357,-4.974 -6.021,-8.68c-5.12,-10.593 -10.069,-16.35 -20.829,-21.366c-16.457,-5.562 -32.594,-0.162 -42.951,13.559Z" style="fill-rule:nonzero;"/><path d="M527.246,389.969c9.546,6.229 14.904,15.624 19.673,25.684c0.588,1.207 1.175,2.414 1.781,3.657c1.817,3.743 3.612,7.497 5.401,11.253c1.034,2.157 2.068,4.313 3.103,6.47c1.598,3.337 3.194,6.676 4.783,10.018c5.8,12.186 11.722,24.312 17.641,36.441c37.071,75.987 37.071,75.987 37.1,83.528c0.007,1.088 0.014,2.177 0.022,3.298c0.001,1.196 0.003,2.393 0.004,3.626c0.006,1.27 0.013,2.541 0.019,3.85c0.02,4.277 0.03,8.555 0.041,12.832c0.012,3.059 0.024,6.118 0.037,9.176c0.036,9.194 0.061,18.389 0.082,27.583c0.006,2.598 0.012,5.195 0.018,7.793c0.039,16.135 0.072,32.269 0.093,48.404c0.005,3.737 0.01,7.474 0.015,11.211c0.001,0.929 0.003,1.858 0.004,2.815c0.021,15.04 0.073,30.079 0.136,45.119c0.065,15.446 0.101,30.891 0.11,46.337c0.006,8.67 0.024,17.34 0.075,26.01c0.047,8.159 0.057,16.317 0.04,24.476c0,2.992 0.013,5.985 0.04,8.977c0.035,4.091 0.023,8.179 -0.001,12.27c0.021,1.18 0.042,2.359 0.064,3.575c-0.123,8.68 -2.79,14.292 -8.468,20.848c-6.751,5.886 -13.804,5.664 -22.439,5.484c-1.291,-0.007 -2.581,-0.014 -3.911,-0.021c-4.098,-0.028 -8.195,-0.091 -12.292,-0.154c-2.788,-0.025 -5.577,-0.048 -8.365,-0.068c-6.814,-0.055 -13.627,-0.138 -20.441,-0.244c-0.01,-0.977 -0.02,-1.953 -0.031,-2.959c-0.098,-9.242 -0.207,-18.485 -0.329,-27.727c-0.062,-4.75 -0.12,-9.501 -0.168,-14.252c-0.046,-4.592 -0.104,-9.184 -0.17,-13.776c-0.023,-1.744 -0.042,-3.489 -0.057,-5.233c-0.106,-19.984 -0.106,-19.984 -9.239,-37.227c-6.455,-5.665 -13.969,-8.199 -22.483,-8.743c-7.516,0.551 -14.269,3.921 -19.985,8.743c-9.738,11.291 -9.142,25.695 -9.261,39.818c-0.023,1.776 -0.048,3.552 -0.073,5.329c-0.064,4.638 -0.113,9.277 -0.16,13.916c-0.05,4.748 -0.114,9.496 -0.176,14.244c-0.12,9.289 -0.226,18.578 -0.322,27.867c-8.332,0.191 -16.664,0.322 -24.998,0.412c-2.831,0.038 -5.662,0.089 -8.493,0.154c-4.084,0.092 -8.166,0.134 -12.251,0.166c-1.88,0.058 -1.88,0.058 -3.798,0.117c-7.805,0.004 -12.764,-1.458 -19.209,-5.876c-6.06,-6.11 -8.007,-11.633 -8.1,-20.027c0.013,-1.118 0.026,-2.235 0.039,-3.387c-0.006,-1.207 -0.012,-2.415 -0.018,-3.659c-0.014,-4.035 0.008,-8.068 0.029,-12.103c-0.003,-2.898 -0.008,-5.795 -0.014,-8.693c-0.012,-7.867 0.007,-15.733 0.032,-23.6c0.02,-7.409 0.018,-14.819 0.017,-22.228c-0.001,-14.696 0.022,-29.391 0.058,-44.086c0.035,-14.222 0.053,-28.444 0.051,-42.667c-0,-1.312 -0,-1.312 -0,-2.65c-0,-0.873 -0,-1.746 -0,-2.645c-0.002,-17.053 0.016,-34.105 0.039,-51.158c0.005,-4.895 0.007,-9.789 0.008,-14.684c0.003,-7.723 0.018,-15.446 0.043,-23.169c0.007,-2.822 0.01,-5.643 0.009,-8.465c-0.013,-41.736 -0.013,-41.736 7.859,-57.742c0.453,-0.961 0.906,-1.922 1.372,-2.912c1.429,-2.98 2.908,-5.929 4.405,-8.876c0.543,-1.077 1.086,-2.153 1.645,-3.263c4.657,-9.2 9.444,-18.33 14.271,-27.442c3.625,-6.845 7.205,-13.715 10.783,-20.585c5.026,-9.646 10.074,-19.281 15.153,-28.899c3.012,-5.711 5.993,-11.437 8.954,-17.175c0.714,-1.382 1.428,-2.763 2.164,-4.187c1.388,-2.688 2.773,-5.377 4.154,-8.069c14.292,-27.655 14.292,-27.655 26.143,-33.681c8.195,-2.527 19.783,-2.705 27.743,0.829Z" style="fill-rule:nonzero;"/><path d="M116.052,599.035c1.069,-0.001 2.138,-0.002 3.24,-0.003c3.596,-0.002 7.192,0.005 10.788,0.012c2.572,0 5.145,0 7.717,-0.001c6.996,-0 13.992,0.007 20.987,0.016c7.307,0.008 14.613,0.009 21.92,0.01c13.841,0.004 27.683,0.014 41.524,0.027c15.756,0.014 31.511,0.021 47.267,0.027c32.416,0.013 64.831,0.035 97.247,0.063c-0.002,1.363 -0.005,2.725 -0.007,4.129c-0.056,33.194 -0.097,66.389 -0.122,99.583c-0.013,16.053 -0.03,32.105 -0.059,48.158c-0.025,13.996 -0.041,27.991 -0.047,41.987c-0.003,7.407 -0.011,14.814 -0.029,22.22c-0.017,6.981 -0.022,13.961 -0.018,20.942c-0.001,2.553 -0.006,5.106 -0.015,7.66c-0.047,13.212 0.15,25.861 2.796,38.856c0.233,1.172 0.466,2.344 0.706,3.551c0.179,0.889 0.358,1.778 0.543,2.694c-34.396,0.088 -68.792,0.154 -103.188,0.194c-15.97,0.019 -31.941,0.046 -47.911,0.089c-13.918,0.037 -27.837,0.062 -41.755,0.07c-7.371,0.005 -14.742,0.016 -22.113,0.044c-6.937,0.025 -13.873,0.033 -20.809,0.028c-2.547,0.001 -5.094,0.008 -7.64,0.023c-3.476,0.019 -6.952,0.014 -10.428,0.004c-1.008,0.011 -2.017,0.022 -3.056,0.033c-7.045,-0.056 -12.277,-1.422 -17.676,-6.29c-0.879,-1.068 -0.879,-1.068 -1.776,-2.157c-0.898,-1.058 -0.898,-1.058 -1.815,-2.137c-4.106,-6.06 -4.481,-11.748 -4.452,-18.898c-0.008,-1.543 -0.008,-1.543 -0.017,-3.117c-0.016,-3.444 -0.014,-6.888 -0.012,-10.332c-0.007,-2.47 -0.016,-4.941 -0.025,-7.411c-0.022,-6.71 -0.028,-13.42 -0.03,-20.13c-0.002,-5.603 -0.012,-11.205 -0.02,-16.808c-0.02,-13.22 -0.026,-26.44 -0.025,-39.66c0.002,-13.633 -0.025,-27.266 -0.064,-40.899c-0.033,-11.708 -0.046,-23.416 -0.044,-35.124c0.001,-6.991 -0.006,-13.982 -0.033,-20.973c-0.024,-6.577 -0.024,-13.153 -0.006,-19.73c0.003,-2.411 -0.003,-4.822 -0.018,-7.232c-0.019,-3.298 -0.008,-6.594 0.012,-9.891c-0.013,-0.948 -0.026,-1.897 -0.039,-2.874c0.102,-7.961 2.629,-14.43 7.922,-20.428c0.72,-0.568 1.439,-1.137 2.181,-1.722c0.723,-0.591 1.446,-1.182 2.191,-1.791c5.04,-3.379 10.401,-2.83 16.211,-2.809Zm63.333,66.35c-6.648,8.409 -7.644,15.932 -7.676,26.549c-0.004,0.874 -0.008,1.749 -0.013,2.65c-0.012,2.871 -0.014,5.743 -0.016,8.614c-0.004,2.01 -0.008,4.019 -0.013,6.029c-0.007,4.206 -0.01,8.412 -0.009,12.618c0,5.37 -0.017,10.74 -0.038,16.11c-0.014,4.149 -0.016,8.298 -0.016,12.447c-0.001,1.979 -0.007,3.958 -0.017,5.937c-0.012,2.776 -0.009,5.552 -0.001,8.328c-0.002,1.575 -0.004,3.15 -0.005,4.773c0.559,8.357 2.287,15.568 7.803,22.1c10.134,8.012 20.148,7.692 32.622,7.704c2.194,0.006 2.194,0.006 4.433,0.013c3.089,0.006 6.177,0.009 9.266,0.009c4.709,0.003 9.418,0.025 14.127,0.049c3.007,0.004 6.014,0.006 9.021,0.007c1.4,0.009 2.801,0.018 4.243,0.027c10.711,-0.031 20.182,-0.607 28.71,-7.809c6.648,-8.409 7.644,-15.932 7.676,-26.549c0.004,-0.874 0.008,-1.749 0.013,-2.65c0.012,-2.871 0.014,-5.743 0.016,-8.614c0.004,-2.01 0.008,-4.019 0.013,-6.029c0.007,-4.206 0.01,-8.412 0.009,-12.618c-0,-5.37 0.017,-10.74 0.038,-16.11c0.014,-4.149 0.016,-8.298 0.016,-12.447c0.001,-1.979 0.007,-3.958 0.017,-5.937c0.012,-2.776 0.009,-5.552 0.001,-8.328c0.002,-1.575 0.004,-3.15 0.005,-4.773c-0.559,-8.357 -2.287,-15.568 -7.803,-22.1c-10.134,-8.012 -20.148,-7.692 -32.622,-7.704c-2.194,-0.006 -2.194,-0.006 -4.433,-0.013c-3.089,-0.006 -6.177,-0.009 -9.266,-0.009c-4.709,-0.003 -9.418,-0.025 -14.127,-0.049c-3.007,-0.004 -6.014,-0.006 -9.021,-0.007c-1.4,-0.009 -2.801,-0.018 -4.243,-0.027c-10.711,0.031 -20.182,0.607 -28.71,7.809Z" style="fill-rule:nonzero;"/><path d="M654.024,599.185c31.4,-0.175 62.8,-0.307 94.2,-0.388c14.58,-0.039 29.16,-0.091 43.74,-0.177c12.709,-0.075 25.418,-0.123 38.128,-0.14c6.728,-0.01 13.456,-0.033 20.184,-0.087c6.337,-0.051 12.673,-0.067 19.01,-0.055c2.322,-0.002 4.643,-0.017 6.965,-0.046c21.159,-0.25 21.159,-0.25 29.394,6.351c7.809,8.209 8.372,17.42 8.349,28.307c0.003,0.989 0.006,1.978 0.009,2.997c0.008,3.302 0.007,6.604 0.006,9.906c0.004,2.372 0.008,4.744 0.013,7.117c0.011,6.436 0.014,12.872 0.015,19.309c0.001,4.023 0.004,8.045 0.007,12.068c0.012,14.038 0.017,28.077 0.016,42.115c-0.001,13.079 0.012,26.158 0.032,39.237c0.016,11.236 0.023,22.472 0.022,33.708c-0,6.708 0.003,13.415 0.016,20.123c0.012,6.309 0.012,12.618 0.003,18.927c-0.001,2.312 0.002,4.624 0.009,6.936c0.01,3.163 0.004,6.326 -0.006,9.489c0.006,0.909 0.013,1.817 0.019,2.753c-0.051,7.678 -0.928,15.889 -5.559,22.273c-0.456,0.663 -0.911,1.327 -1.381,2.01c-6.441,6.19 -12.582,7.782 -21.316,7.646c-1.017,0.004 -2.035,0.009 -3.083,0.013c-3.391,0.008 -6.781,-0.019 -10.172,-0.047c-2.438,-0.001 -4.876,-0.001 -7.313,0.002c-6.606,0.001 -13.212,-0.028 -19.817,-0.063c-6.908,-0.031 -13.816,-0.034 -20.724,-0.04c-13.076,-0.016 -26.152,-0.057 -39.228,-0.107c-14.889,-0.056 -29.778,-0.083 -44.667,-0.108c-30.623,-0.052 -61.245,-0.14 -91.867,-0.251c0.166,-0.681 0.332,-1.362 0.503,-2.064c0.221,-0.942 0.441,-1.884 0.668,-2.854c0.217,-0.913 0.435,-1.826 0.659,-2.766c1.643,-8.744 2.104,-17.417 2.115,-26.298c0.006,-1.101 0.012,-2.202 0.019,-3.337c0.019,-3.659 0.03,-7.318 0.04,-10.977c0.012,-2.635 0.024,-5.27 0.037,-7.905c0.034,-7.132 0.06,-14.264 0.085,-21.396c0.027,-7.462 0.062,-14.923 0.095,-22.385c0.062,-14.12 0.118,-28.24 0.172,-42.36c0.062,-16.079 0.13,-32.158 0.199,-48.237c0.142,-33.067 0.275,-66.134 0.403,-99.201Zm74.943,66.2c-6.648,8.409 -7.644,15.932 -7.676,26.549c-0.004,0.874 -0.008,1.749 -0.013,2.65c-0.012,2.871 -0.014,5.743 -0.016,8.614c-0.004,2.01 -0.008,4.019 -0.013,6.029c-0.007,4.206 -0.01,8.412 -0.009,12.618c0,5.37 -0.017,10.74 -0.038,16.11c-0.014,4.149 -0.016,8.298 -0.016,12.447c-0.001,1.979 -0.007,3.958 -0.017,5.937c-0.012,2.776 -0.009,5.552 -0.001,8.328c-0.002,1.575 -0.004,3.15 -0.005,4.773c0.559,8.357 2.287,15.568 7.803,22.1c10.134,8.012 20.148,7.692 32.622,7.704c2.194,0.006 2.194,0.006 4.433,0.013c3.089,0.006 6.177,0.009 9.266,0.009c4.709,0.003 9.418,0.025 14.127,0.049c3.007,0.004 6.014,0.006 9.021,0.007c1.4,0.009 2.801,0.018 4.243,0.027c10.711,-0.031 20.182,-0.607 28.71,-7.809c6.648,-8.409 7.644,-15.932 7.676,-26.549c0.004,-0.874 0.008,-1.749 0.013,-2.65c0.012,-2.871 0.014,-5.743 0.016,-8.614c0.004,-2.01 0.008,-4.019 0.013,-6.029c0.007,-4.206 0.01,-8.412 0.009,-12.618c-0,-5.37 0.017,-10.74 0.038,-16.11c0.014,-4.149 0.016,-8.298 0.016,-12.447c0.001,-1.979 0.007,-3.958 0.017,-5.937c0.012,-2.776 0.009,-5.552 0.001,-8.328c0.002,-1.575 0.004,-3.15 0.005,-4.773c-0.559,-8.357 -2.287,-15.568 -7.803,-22.1c-10.134,-8.012 -20.148,-7.692 -32.622,-7.704c-2.194,-0.006 -2.194,-0.006 -4.433,-0.013c-3.089,-0.006 -6.177,-0.009 -9.266,-0.009c-4.709,-0.003 -9.418,-0.025 -14.127,-0.049c-3.007,-0.004 -6.014,-0.006 -9.021,-0.007c-1.4,-0.009 -2.801,-0.018 -4.243,-0.027c-10.711,0.031 -20.182,0.607 -28.71,7.809Z" style="fill-rule:nonzero;"/><path d="M895.482,184.109c1.423,-0.07 1.423,-0.07 2.874,-0.141c4.215,0.752 6.122,2.61 9.226,5.528c1.684,3.52 1.684,3.52 3.02,7.567c5.741,15.569 10.106,27.349 25.656,35.296c4.262,1.875 8.553,3.609 12.894,5.294c6.466,2.515 9.807,4.58 13.388,10.549c0.829,2.654 0.829,2.654 0.781,4.996c0.024,1.159 0.024,1.159 0.049,2.342c-1.875,6.001 -5.273,9.122 -10.591,12.153c-4.279,2.089 -8.596,4.045 -12.955,5.959c-1.5,0.681 -3,1.362 -4.545,2.064c-11.037,4.962 -11.037,4.962 -13.957,4.962c-0.515,1.642 -0.515,1.642 -1.04,3.317c-2.297,6.581 -5.584,12.602 -8.796,18.776c-0.662,1.305 -1.324,2.61 -2.005,3.955c-0.649,1.25 -1.298,2.5 -1.966,3.789c-0.586,1.136 -1.172,2.272 -1.775,3.443c-2.005,3.1 -3.776,4.759 -6.9,6.691c-2.727,0.542 -2.727,0.542 -5.543,0.546c-0.926,0.024 -1.852,0.048 -2.805,0.073c-4.103,-0.879 -6.088,-2.758 -9.139,-5.616c-1.684,-3.52 -1.684,-3.52 -3.02,-7.567c-5.741,-15.569 -10.106,-27.349 -25.656,-35.296c-4.262,-1.875 -8.553,-3.609 -12.894,-5.294c-6.473,-2.521 -9.817,-4.559 -13.388,-10.549c-1.258,-4.016 -0.973,-7.174 0,-11.241c5.775,-7.618 15.672,-11.11 24.122,-14.832c1.369,-0.622 2.739,-1.243 4.15,-1.883c10.06,-4.518 10.06,-4.518 12.947,-4.518c0.287,-0.977 0.573,-1.955 0.868,-2.962c2.135,-5.938 4.891,-11.467 7.719,-17.101c0.543,-1.105 1.085,-2.211 1.644,-3.35c8.319,-16.65 8.319,-16.65 17.638,-16.948Z" style="fill-rule:nonzero;"/><path d="M751.997,109.01c0.952,-0.024 1.903,-0.048 2.884,-0.073c4.031,0.887 5.296,2.343 7.811,5.616c1.039,2.42 1.905,4.877 2.788,7.357c4.091,11.01 9.008,16.175 19.617,21.293c3.035,1.381 6.068,2.727 9.158,3.981c2.162,1.093 2.162,1.093 3.411,3.591c0.385,2.483 0.385,2.483 0.546,5.387c0.076,0.948 0.151,1.897 0.229,2.874c-1.198,4.604 -4.402,6.799 -8.27,9.226c-3.02,1.209 -6.067,2.352 -9.134,3.435c-10.641,4.289 -14.205,11.722 -18.677,21.839c-0.498,1.221 -0.498,1.221 -1.006,2.468c-1.316,2.536 -2.732,4.14 -4.907,5.983c-2.649,0.542 -2.649,0.542 -5.543,0.546c-0.952,0.024 -1.903,0.048 -2.884,0.073c-4.031,-0.887 -5.296,-2.343 -7.811,-5.616c-1.039,-2.42 -1.905,-4.877 -2.788,-7.357c-4.091,-11.01 -9.008,-16.175 -19.617,-21.293c-3.035,-1.381 -6.068,-2.727 -9.158,-3.981c-2.162,-1.093 -2.162,-1.093 -3.411,-3.591c-0.385,-2.483 -0.385,-2.483 -0.546,-5.387c-0.114,-1.423 -0.114,-1.423 -0.229,-2.874c1.198,-4.604 4.402,-6.799 8.27,-9.226c3.02,-1.209 6.067,-2.352 9.134,-3.435c10.641,-4.289 14.205,-11.722 18.677,-21.839c0.332,-0.814 0.664,-1.629 1.006,-2.468c2.529,-4.874 4.995,-6.52 10.45,-6.529Z" style="fill-rule:nonzero;"/><path d="M800.12,325.023c3.779,0.921 5.136,2.577 7.538,5.616c0.855,2.165 1.704,4.334 2.471,6.532c3.548,9.791 7.979,14.288 17.358,18.839c1.891,0.865 3.787,1.72 5.689,2.562c4.46,2.044 4.46,2.044 5.709,4.542c0.728,9.025 0.728,9.025 -1.957,12.593c-3.078,2.426 -5.97,3.665 -9.635,4.993c-9.061,3.374 -13.829,7.039 -18.073,15.827c-0.733,1.628 -1.455,3.261 -2.166,4.899c-2.652,5.824 -2.652,5.824 -5.64,7.904c-8.713,0.968 -8.713,0.968 -12.598,-1.971c-2.423,-3.066 -3.583,-5.892 -4.861,-9.557c-3.548,-9.791 -7.979,-14.288 -17.358,-18.839c-1.891,-0.865 -3.787,-1.72 -5.689,-2.562c-4.46,-2.044 -4.46,-2.044 -5.709,-4.542c-0.728,-9.025 -0.728,-9.025 1.957,-12.593c3.078,-2.426 5.97,-3.665 9.635,-4.993c9.061,-3.374 13.829,-7.039 18.073,-15.827c0.733,-1.628 1.455,-3.261 2.166,-4.899c3.244,-7.124 5.161,-8.295 13.091,-8.524Z" style="fill-rule:nonzero;"/></svg>