<?xml version="1.0" encoding="utf-8"?>
<!-- Generator: Adobe Illustrator 23.0.1, SVG Export Plug-In . SVG Version: 6.00 Build 0)  -->
<svg version="1.1" id="Layer_1" xmlns="http://www.w3.org/2000/svg" xmlns:xlink="http://www.w3.org/1999/xlink" x="0px" y="0px"
	 viewBox="0 0 300 300" style="enable-background:new 0 0 300 300;" xml:space="preserve">
<style type="text/css">
	.st0{fill:none;}
	.st1{stroke:#000000;stroke-width:12;stroke-linecap:round;stroke-linejoin:round;stroke-miterlimit:10;}
	.st2{fill:none;stroke:#000000;stroke-width:16;stroke-linecap:round;stroke-linejoin:round;stroke-miterlimit:10;}
	.st3{fill:#E3E3E3;}
	.st4{fill:#00FF00;}
	.st5{fill:#0000FF;}
	.st6{fill:#333333;}
	.st7{stroke:#000000;stroke-miterlimit:10;}
	.st8{fill:none;stroke:#000000;stroke-width:15;stroke-linecap:round;stroke-linejoin:round;stroke-miterlimit:10;}
</style>
<g>
	<path d="M266.84,31.79c-5.44-5.44-11.98-8.16-19.62-8.16H52.78c-7.64,0-14.18,2.72-19.62,8.16C27.72,37.23,25,43.77,25,51.41
		v194.44c0,7.64,2.72,14.18,8.16,19.62c5.44,5.44,11.98,8.16,19.62,8.16h55.45c-0.92-0.8-1.82-1.63-2.69-2.51
		c-4.6-4.6-8.12-9.78-10.45-15.39c-1.31-3.14-2.25-6.44-2.83-9.87H52.78V51.41h27.78v118.06c0,3.94,1.33,7.23,3.99,9.9
		c2.66,2.66,5.96,3.99,9.9,3.99h3.47v30.26c2.06-3.47,4.6-6.73,7.62-9.75c4-4,8.44-7.18,13.21-9.48v-11.04h3.47
		c3.94,0,7.23-1.33,9.9-3.99c2.66-2.66,3.99-5.96,3.99-9.9V51.41h27.78v59.73l55.56-9.26V51.41h27.78v45.84l18.26-3.04
		c0.87-0.14,1.75-0.22,2.62-0.22c2.47,0,4.81,0.57,6.9,1.58V51.41C275,43.77,272.28,37.23,266.84,31.79z"/>
	<path d="M275,108.09V222.4c-0.91,8.85-4.64,16.55-11.2,23.11c-7.61,7.61-16.76,11.42-27.45,11.42c-10.53,0-19.56-3.69-27.11-11.07
		c-0.12-0.11-0.23-0.23-0.35-0.34c-2.77-2.77-5.04-5.75-6.81-8.94c-3.08-5.55-4.61-11.72-4.61-18.52c0-6.79,1.54-12.97,4.61-18.52
		c1.76-3.18,4.03-6.16,6.81-8.94c4.85-4.85,10.33-8.16,16.43-9.92c3.47-1,7.15-1.5,11.03-1.5c0.73,0,1.44,0.02,2.15,0.05
		c0.36,0.02,0.72,0.04,1.08,0.07c0,0,0.01,0,0.01,0c0.03,0,0.05,0,0.08,0.01c0.06,0.01,0.13,0.01,0.19,0.01c0,0,0.01,0,0.01,0
		c0.08,0.01,0.17,0.01,0.25,0.02c0.09,0.01,0.18,0.01,0.27,0.02c0.02,0,0.04,0,0.06,0.01c0.06,0.01,0.12,0.01,0.19,0.02
		c0.01,0,0.01,0,0.02,0c0,0,0,0,0,0c0.05,0,0.09,0.01,0.14,0.01c0.07,0.01,0.14,0.01,0.2,0.02c0.06,0.01,0.12,0.01,0.18,0.02
		c0.12,0.01,0.24,0.03,0.36,0.04c0.06,0.01,0.13,0.01,0.19,0.02c0.02,0,0.03,0,0.05,0.01c0.14,0.02,0.27,0.04,0.4,0.06
		c0.03,0,0.05,0.01,0.08,0.01c0.14,0.02,0.28,0.04,0.43,0.06c0.02,0,0.05,0.01,0.07,0.01c0.02,0,0.05,0.01,0.07,0.01
		c0.05,0.01,0.11,0.02,0.16,0.03c0.04,0.01,0.09,0.01,0.13,0.02c0.01,0,0.02,0,0.03,0.01c0.01,0,0.01,0,0.02,0
		c0.05,0.01,0.1,0.02,0.15,0.03c0.08,0.01,0.16,0.03,0.25,0.04c0.03,0,0.05,0.01,0.08,0.01c0.07,0.01,0.15,0.03,0.22,0.04
		c0.01,0,0.02,0,0.03,0.01c0.05,0.01,0.11,0.02,0.16,0.03c0.06,0.01,0.13,0.02,0.19,0.04c0.03,0.01,0.05,0.01,0.08,0.02
		c0,0,0,0,0.01,0c0.08,0.02,0.16,0.03,0.23,0.05c0.02,0,0.05,0.01,0.07,0.01c0.06,0.01,0.12,0.02,0.17,0.04
		c0.02,0,0.04,0.01,0.06,0.01c0.1,0.02,0.2,0.05,0.31,0.07c0.03,0.01,0.06,0.01,0.09,0.02c0.1,0.02,0.2,0.05,0.31,0.07
		c0.07,0.02,0.14,0.03,0.21,0.05c0.08,0.02,0.16,0.04,0.24,0.06c0.03,0.01,0.05,0.01,0.08,0.02c0.01,0,0.02,0.01,0.03,0.01
		c0.04,0.01,0.08,0.02,0.11,0.03c0.01,0,0.02,0.01,0.04,0.01c0.04,0.01,0.09,0.02,0.13,0.04c0.09,0.02,0.17,0.05,0.26,0.07
		c0.03,0.01,0.06,0.02,0.09,0.03c0.08,0.02,0.15,0.04,0.23,0.06c0.03,0.01,0.05,0.01,0.08,0.02c0,0,0,0,0,0
		c0.02,0.01,0.04,0.01,0.06,0.01c0.02,0.01,0.04,0.01,0.06,0.01c0.01,0,0.02,0,0.02,0.01c4.36,0.95,8.56-2.35,8.56-6.89v-20.66
		c0-4.49-4.1-7.86-8.5-6.99l-0.05,0.01l-8.73,1.72l-10.32,2.03l-8.73,1.72l-35.66,7.02c-3.34,0.66-5.75,3.59-5.75,6.99v71.89
		c0,2.9-0.28,5.69-0.84,8.36c-1.5,7.18-5.03,13.54-10.58,19.09c-3.89,3.89-8.18,6.78-12.87,8.69c-4.49,1.82-9.36,2.73-14.59,2.73
		c-5.23,0-10.09-0.91-14.59-2.73c-4.69-1.9-8.98-4.8-12.87-8.69c-7.61-7.61-11.42-16.76-11.42-27.45c0-10.69,3.81-19.84,11.42-27.45
		c2.22-2.22,4.56-4.11,7.04-5.68c2.75-1.74,5.66-3.09,8.73-4.04c3.67-1.13,7.56-1.7,11.68-1.7c3.73,0,7.17,0.45,10.33,1.34
		c0.03,0.01,0.06,0.02,0.09,0.03c4.52,1.29,9.02-2.08,9.02-6.77v-66.3c0-3.26,2.2-6.06,5.29-6.89c0.22-0.06,0.44-0.11,0.67-0.14
		l54.89-9.15l8.73-1.45l10.32-1.72l8.73-1.45l19.7-3.28C270.66,102.2,274.12,104.6,275,108.09z"/>
</g>
</svg>
