<?xml version="1.0" encoding="utf-8"?>
<!-- Generator: Adobe Illustrator 23.0.1, SVG Export Plug-In . SVG Version: 6.00 Build 0)  -->
<svg version="1.1" id="Layer_1" xmlns="http://www.w3.org/2000/svg" xmlns:xlink="http://www.w3.org/1999/xlink" x="0px" y="0px"
	 viewBox="0 0 300 300" style="enable-background:new 0 0 300 300;" xml:space="preserve">
<style type="text/css">
	.st0{stroke:#000000;stroke-width:3;stroke-miterlimit:10;}
	.st1{fill:#E3E3E3;}
</style>
<path d="M76.34,200.4v73.94c0,3.1-1.03,5.58-3.1,7.64c-2.07,2.07-4.65,3.1-7.64,3.1H44.01c-2.99,0-5.58-1.03-7.64-3.1
	c-2.07-2.07-3.1-4.65-3.1-7.64v-75.39c0-2.99,1.03-5.58,3.1-7.64c2.07-2.07,4.65-3.1,7.64-3.1h20.04
	C70.86,188.11,76.34,193.58,76.34,200.4z"/>
<path d="M177.24,108.39c-1.77-2.17-4.02-4.01-6.66-5.46c-0.84-0.46-1.69-0.89-2.61-1.28l13.82-5.97l-1.76-4.77
	c-0.63-1.73-1.46-3.36-2.43-4.79c-0.66-0.98-1.4-1.91-2.24-2.81c-0.49-0.51-1-0.99-1.52-1.46c-1.84-1.61-3.97-2.88-6.38-3.75v-9.57
	h-18.68v9.58c-2.28,0.9-4.49,2.27-6.62,4.09c-0.43,0.36-0.81,0.72-1.16,1.08c-0.9,0.93-1.7,1.95-2.34,3.04
	c-1.72,2.85-2.59,6.22-2.59,10.03c0,2.86,0.54,5.56,1.61,8c0.72,1.67,1.69,3.21,2.86,4.57c1.58,1.85,3.76,3.5,6.54,4.97l-14.14,5.69
	l1.36,4.67c1.47,5.09,3.9,9.16,7.21,12.06c2.15,1.89,4.59,3.4,7.27,4.48v9.97h18.68v-9.45c0.96-0.3,1.87-0.66,2.74-1.07
	c2.08-0.94,4.02-2.2,5.76-3.73c3.99-3.49,6-8.46,6-14.76C181.96,116.75,180.37,112.25,177.24,108.39z M172.42,132.48
	c-1.33,1.17-2.81,2.14-4.43,2.88c-1.79,0.82-3.75,1.38-5.9,1.69v8.34h-7.93v-8.54c-3.52-0.8-6.54-2.31-9.1-4.57
	c-2.55-2.24-4.41-5.42-5.61-9.53l7.36-2.97c0.98,3.17,2.46,5.59,4.4,7.24c1.97,1.66,4.53,2.48,7.71,2.48c2.71,0,5.01-0.62,6.89-1.84
	c0.98-0.63,1.71-1.43,2.18-2.43c0.44-0.94,0.65-2.03,0.65-3.27c0-1.28-0.21-2.41-0.65-3.4c-0.37-0.79-0.88-1.51-1.52-2.11
	c-1.47-1.36-4.84-2.9-10.14-4.62c-5.69-1.78-9.59-3.92-11.71-6.4c-0.84-0.98-1.52-2.06-2.03-3.23c-0.76-1.76-1.15-3.7-1.15-5.85
	c0-2.83,0.6-5.25,1.81-7.25c0.45-0.74,0.97-1.43,1.59-2.06c0.24-0.25,0.49-0.49,0.78-0.72c2.78-2.39,5.62-3.75,8.54-4.08V73.9h7.93
	v8.34c3.32,0.53,6.04,1.74,8.19,3.64c0.43,0.37,0.83,0.76,1.22,1.16c0.61,0.65,1.15,1.33,1.63,2.06c0.76,1.13,1.38,2.35,1.87,3.66
	l-7.35,3.19c-0.79-2.13-1.92-3.71-3.37-4.77c-1.46-1.06-3.45-1.58-5.96-1.58c-2.92,0-5.13,0.64-6.65,1.93
	c-1.53,1.29-2.28,2.9-2.28,4.82c0,2.17,0.99,3.89,2.98,5.16c0.36,0.22,0.78,0.47,1.23,0.69c2.07,1.05,5.09,2.14,9.08,3.28
	c1.98,0.56,3.75,1.29,5.31,2.15c2.05,1.13,3.74,2.51,5.07,4.15c2.35,2.88,3.53,6.2,3.53,9.97
	C176.59,126.45,175.2,130.04,172.42,132.48z"/>
<path d="M244.98,40.01c-10.84-10.84-24.34-16.26-40.51-16.26c-8.95,0-17.46,1.9-25.55,5.68c-8.08,3.79-15.05,9.12-20.9,16
	c-5.85-6.88-12.82-12.21-20.9-16c-8.09-3.78-16.6-5.68-25.55-5.68c-16.17,0-29.67,5.42-40.51,16.26
	C60.22,50.85,54.8,64.35,54.8,80.53c0,7.91,1.33,15.56,4,22.96c2.67,7.4,7.35,15.48,14.06,24.26c6.71,8.77,15.74,18.66,27.1,29.67
	c6.43,6.23,13.82,13.13,22.19,20.7h49.09c3.61,0,6.97,0.84,9.99,2.51c1.02,0.57,1.89,1.16,2.69,1.78c0.94,0.73,1.8,1.51,2.57,2.34
	c11.46-10.2,21.33-19.31,29.59-27.33c11.36-11.01,20.39-20.9,27.1-29.67c6.71-8.78,11.39-16.86,14.06-24.26
	c2.67-7.4,4-15.05,4-22.96C261.24,64.35,255.82,50.85,244.98,40.01z M182.38,148.22c-4.35,2.77-9.21,4.81-14.39,5.96
	c-3.21,0.71-6.54,1.09-9.97,1.09c-25.19,0-45.62-20.42-45.62-45.63c0-2.52,0.21-5.01,0.61-7.44c0.76-4.64,2.22-9.03,4.27-13.1
	c0.35-0.7,0.71-1.38,1.1-2.06c7.86-13.75,22.67-23.01,39.64-23.01c17.79,0,33.22,10.19,40.74,25.07c3.13,6.18,4.89,13.14,4.89,20.54
	C203.65,125.89,195.16,140.14,182.38,148.22z"/>
<path d="M253.6,204.42c3.43,3.29,3.22,8.85-0.42,11.9l-57.26,48c-3.92,3.2-8.26,5.68-12.91,7.44c-4.64,1.75-9.5,2.58-14.56,2.58
	h-62.53c-4.42,0-8-3.58-8-8.01v-70.22c0-4.42,3.58-8.01,8-8.01h65.32c1.9,0,3.62,0.42,5.16,1.27c0.46,0.26,0.92,0.56,1.34,0.89
	c0.46,0.36,0.88,0.73,1.26,1.11c1.18,1.18,1.99,2.5,2.47,4.06c0.51,1.54,0.72,3.1,0.61,4.75c0,0.52-0.1,1.03-0.2,1.45
	c-0.41,2.16-1.66,4.02-3.62,5.67l-1.86,1.55l-2.6,2.16l-9.22,7.66c-1.44,1.19-3.25,1.85-5.12,1.85h-32.06c-4.42,0-8,3.58-8,8.01v0
	c0,4.42,3.58,8,8,8h37.65c1.86,0,3.67-0.65,5.1-1.84l39.5-32.65l1.75-1.48c0.14-0.12,0.29-0.24,0.44-0.35
	c0.31-0.23,0.6-0.44,0.89-0.63c0.41-0.28,0.82-0.53,1.25-0.75c3.21-1.96,6.61-3.19,10.12-3.81c4.45-0.73,8.79-0.52,13.12,0.51
	c0.13,0.04,0.26,0.07,0.39,0.1c4.19,1.05,8.09,2.87,11.9,5.37C250.97,202.07,252.33,203.2,253.6,204.42z"/>
</svg>
