<?xml version="1.0" encoding="utf-8"?>
<!-- Generator: Adobe Illustrator 23.0.1, SVG Export Plug-In . SVG Version: 6.00 Build 0)  -->
<svg version="1.1" id="Layer_1" xmlns="http://www.w3.org/2000/svg" xmlns:xlink="http://www.w3.org/1999/xlink" x="0px" y="0px"
	 viewBox="0 0 300 300" style="enable-background:new 0 0 300 300;" xml:space="preserve">
<style type="text/css">
	.st0{fill:none;}
	.st1{stroke:#000000;stroke-width:3;stroke-miterlimit:10;}
</style>
<path d="M275.22,135.57l-27.81-9.89l-6.55-2.34c-3.1-7.46-4.65-11.23-7.75-18.71l3-6.3l14.71-30.89
	c-9.09-9.08-9.09-9.08-18.18-18.19l-30.85,14.7l-6.33,3.02c-7.47-3.09-11.24-4.65-18.72-7.75l-2.37-6.63l-9.94-27.82l-1.57-4.39
	h-25.72l-1.57,4.39l-9.93,27.91l-2.31,6.48c-7.48,3.09-11.25,4.65-18.73,7.74L98.48,64L67.43,49.19L49.24,67.38l14.85,31.15
	l2.87,6.03c-3.1,7.47-4.65,11.25-7.75,18.71l-6.26,2.24l-28.17,10.06l-4.43,1.58v25.73l4.43,1.58l28.27,10.05l6.09,2.18
	c0.4,0.96,0.77,1.84,1.12,2.69c0.17,0.4,0.33,0.8,0.48,1.18c0.2,0.46,0.38,0.93,0.57,1.37c0.12,0.29,0.24,0.58,0.36,0.88
	c0.16,0.37,0.31,0.75,0.46,1.12c0.15,0.35,0.3,0.72,0.44,1.07c0.63,1.5,1.24,2.97,1.9,4.56c0.11,0.27,0.22,0.55,0.34,0.82
	c0.63,1.52,1.3,3.17,2.08,5.03l-2.76,5.78l-14.95,31.4l18.18,18.18l31.38-14.95l5.8-2.76c7.47,3.1,11.24,4.65,18.72,7.75l2.18,6.12
	l10.06,28.27l1.57,4.41h25.72l1.57-4.41l10.02-28.14l2.22-6.25c7.48-3.1,11.25-4.65,18.73-7.75l6.05,2.89l9.4,4.48l21.73,10.34
	l18.18-18.18l-14.76-30.96l-2.95-6.22c3.1-7.48,4.64-11.25,7.74-18.72l6.6-2.33l27.9-9.91l4.43-1.57v-25.73L275.22,135.57z
	 M181.74,96.61l12.02-6.94c1.64-0.96,3.76-0.39,4.71,1.26c0.95,1.65,0.38,3.76-1.27,4.71l-12.01,6.93
	c-0.54,0.32-1.15,0.47-1.72,0.47c-1.2,0-2.34-0.62-2.98-1.73C179.52,99.65,180.09,97.56,181.74,96.61z M167.27,84.65l6.93-12.02
	c0.96-1.65,3.07-2.2,4.72-1.26c1.64,0.95,2.21,3.06,1.26,4.71l-6.94,12.02c-0.64,1.1-1.81,1.71-2.99,1.71
	c-0.58,0-1.17-0.15-1.71-0.45C166.89,88.42,166.32,86.31,167.27,84.65z M148.77,67.68c0-1.91,1.54-3.45,3.44-3.45
	c1.9,0,3.44,1.54,3.44,3.45v13.87c0,0.96-0.38,1.82-1.01,2.43c-0.62,0.63-1.49,1.01-2.43,1.01c-1.9,0-3.44-1.54-3.44-3.44V67.68z
	 M125.5,71.37c1.65-0.94,3.76-0.39,4.71,1.26l6.94,12.02c0.31,0.54,0.46,1.13,0.46,1.71c0,1.2-0.62,2.36-1.73,3
	c-1.63,0.95-3.75,0.38-4.7-1.26l-6.93-12.02C123.3,74.43,123.86,72.32,125.5,71.37z M118.23,219.68c0,1.44-0.48,2.59-1.44,3.55
	c-0.96,0.96-2.15,1.44-3.54,1.44h-10.04c-1.39,0-2.6-0.48-3.56-1.44c-0.96-0.96-1.44-2.15-1.44-3.55v-35.05
	c0-1.39,0.48-2.59,1.44-3.55c0.96-0.96,2.17-1.44,3.56-1.44h9.31c3.17-0.05,5.71,2.5,5.71,5.67V219.68z M119.23,102.56l-12.01-6.93
	c-1.65-0.95-2.21-3.06-1.27-4.71c0.95-1.65,3.06-2.22,4.71-1.26l12.02,6.94c1.11,0.64,1.73,1.79,1.73,2.98
	c0,0.58-0.15,1.18-0.47,1.72C122.99,102.95,120.88,103.52,119.23,102.56z M123.51,119.56c0-7.99,2.79-14.76,8.37-20.34
	c5.58-5.58,12.36-8.38,20.33-8.38c7.98,0,14.75,2.8,20.33,8.38s8.38,12.35,8.38,20.34c0,5.16-1.3,9.94-3.88,14.35
	c-2.43,4.13-5.67,7.48-9.7,10.03c-0.5,0.32-1.09,0.48-1.68,0.48h-26.89c-0.59,0-1.19-0.16-1.69-0.48c-4.03-2.55-7.27-5.9-9.69-10.03
	C124.8,129.5,123.51,124.71,123.51,119.56z M140.09,155.89c-1.75,0-3.18-1.43-3.18-3.19v-1.28c0-1.75,1.43-3.18,3.18-3.18h24.24
	c1.76,0,3.19,1.43,3.19,3.18v1.28c0,1.76-1.43,3.19-3.19,3.19H140.09z M157.66,165.08c-0.01,0.01-0.02,0.03-0.05,0.05
	c-1.49,1.49-3.3,2.24-5.4,2.24c-2.1,0-3.91-0.75-5.4-2.24c-0.02-0.02-0.04-0.04-0.05-0.05c-1.96-1.98-0.45-5.36,2.34-5.36h6.22
	C158.12,159.73,159.62,163.11,157.66,165.08z M200.45,192.71l-26.62,22.32c-1.82,1.49-3.84,2.63-5.99,3.46
	c-2.16,0.81-4.43,1.19-6.78,1.19h-29.07c-2.05,0-3.72-1.66-3.72-3.72v-32.65c0-2.06,1.67-3.72,3.72-3.72h30.36
	c0.89,0,1.69,0.2,2.41,0.59c0.22,0.13,0.43,0.26,0.62,0.42c0.87,0.67,1.45,1.44,1.74,2.4c0.24,0.72,0.33,1.44,0.28,2.21
	c0,0.24-0.04,0.48-0.09,0.68c-0.19,0.99-0.78,1.87-1.69,2.63l-0.86,0.72l-1.21,1.01l-4.29,3.56c-0.66,0.55-1.5,0.86-2.37,0.86
	h-14.91c-2.06,0-3.72,1.66-3.72,3.72c0,1.02,0.42,1.96,1.09,2.63c0.67,0.67,1.61,1.09,2.63,1.09h17.5c0.87,0,1.7-0.3,2.38-0.85
	l18.37-15.19l0.81-0.69c0.06-0.05,0.13-0.11,0.2-0.16c0.14-0.1,0.28-0.2,0.42-0.29c0.18-0.13,0.38-0.25,0.57-0.35
	c1.49-0.91,3.08-1.48,4.71-1.77c2.07-0.34,4.09-0.24,6.1,0.24c0.06,0.02,0.12,0.03,0.18,0.04c1.95,0.49,3.76,1.34,5.53,2.5
	c0.68,0.49,1.31,1.02,1.9,1.59C202.25,188.71,202.15,191.29,200.45,192.71z"/>
</svg>
