<?xml version="1.0" encoding="utf-8"?>
<!-- Generator: Adobe Illustrator 23.0.1, SVG Export Plug-In . SVG Version: 6.00 Build 0)  -->
<svg version="1.1" id="Layer_1" xmlns="http://www.w3.org/2000/svg" xmlns:xlink="http://www.w3.org/1999/xlink" x="0px" y="0px"
	 viewBox="0 0 300 300" style="enable-background:new 0 0 300 300;" xml:space="preserve">
<style type="text/css">
	.st0{fill:none;stroke:#000000;stroke-width:6;stroke-miterlimit:10;}
	.st1{fill:none;}
	.st2{stroke:#000000;stroke-width:2;stroke-miterlimit:10;}
	.st3{fill:#FFFFFF;}
</style>
<g>
	<path d="M184.2,91.1c0.1,0.6,0.3,1.1,0.5,1.6l0.1,0L184.2,91.1z"/>
	<path d="M247.8,37.1c-10.8-10.9-24.3-16.3-40.4-16.3c-8.9,0-17.4,1.9-25.5,5.7s-15,9.1-20.9,16c-5.8-6.9-12.8-12.2-20.9-16
		s-16.6-5.7-25.5-5.7c-16.1,0-29.6,5.4-40.4,16.3C63.4,48,58,61.5,58,77.7c0,7.9,1.3,15.6,4,23c1.8,5.1,4.6,10.5,8.4,16.3
		c0.6,1,1.3,1.9,2,2.9c1.1,1.6,2.3,3.2,3.6,4.9c6.7,8.8,15.7,18.7,27.1,29.7c6.4,6.2,13.8,13.1,22.2,20.7h49.1c3.6,0,7,0.8,10,2.5
		c1,0.6,1.9,1.2,2.7,1.8c0.9,0.7,1.8,1.5,2.6,2.3c11.5-10.2,21.3-19.3,29.6-27.3c10.6-10.3,19.3-19.7,25.8-28
		c0.4-0.6,0.9-1.1,1.3-1.7c6.6-8.7,11.2-16.7,13.8-24c2.7-7.4,4-15.1,4-23C264,61.5,258.6,48,247.8,37.1z M164.1,65.5
		c0.6-1.3,1.4-2.6,2.5-3.7c0.2-0.2,0.3-0.3,0.4-0.4c2.1-1.9,4.7-2.9,7.7-2.9c3.2,0,5.9,1.1,8.1,3.3c1.9,1.9,3,4.1,3.3,6.7
		c0,0.5,0.1,1,0.1,1.5c0,3.2-1.1,6-3.3,8.2c-1.2,1.2-2.6,2.1-4.1,2.6c-1.3,0.5-2.6,0.7-4.1,0.7c-3.2,0-5.9-1.1-8.1-3.3
		c-0.6-0.6-1.1-1.2-1.5-1.9c-1.1-1.6-1.6-3.4-1.8-5.4c0-0.3,0-0.6,0-0.9C163.3,68.4,163.6,66.9,164.1,65.5z M135.8,68.6
		c0.3-2.6,1.4-4.8,3.3-6.7c2.2-2.2,4.9-3.3,8.1-3.3c3,0,5.6,1,7.7,2.9c0.2,0.1,0.3,0.3,0.4,0.4c1.1,1.1,1.9,2.3,2.5,3.7
		c0.6,1.4,0.9,2.9,0.9,4.5c0,0.3,0,0.6,0,0.9c-0.1,1.9-0.6,3.5-1.5,5c-0.5,0.8-1.1,1.6-1.8,2.3c-2.2,2.2-4.9,3.3-8.1,3.3
		c-1.4,0-2.7-0.2-3.8-0.6c-1.6-0.5-3-1.5-4.3-2.7c-2.2-2.2-3.3-4.9-3.3-8.2C135.8,69.5,135.8,69.1,135.8,68.6z M117,94.8
		c-1.2-1.8-1.8-4-1.8-6.4c0-3.2,1.1-5.9,3.3-8.2c2.2-2.2,4.8-3.3,7.9-3.3h0.2c3.2,0,5.9,1.1,8.1,3.3c2.2,2.2,3.3,5,3.3,8.2
		c0,3.2-1.1,6-3.3,8.2c-2.2,2.2-4.9,3.3-8.1,3.3c-3.2,0-5.9-1.1-8.1-3.3C117.9,96.1,117.4,95.5,117,94.8z M197.7,133.8
		c-0.2,3.1-1.4,5.9-3.5,8.2c-2.3,2.6-5.2,4-8.7,4c-0.5,0-1,0-1.5,0c-3.6-0.1-7.2-0.4-10.8-1c-0.9-0.2-1.9-0.3-2.8-0.4
		c-3.1-0.4-6.3-0.6-9.5-0.6c-3.1,0-6.2,0.2-9.2,0.6c-1,0.1-2,0.3-3.1,0.5c-3.6,0.6-7.1,0.9-10.8,1c-0.5,0-1,0-1.5,0
		c-3.4,0-6.3-1.3-8.7-4c-2.1-2.4-3.2-5.1-3.5-8.3c0-0.4,0-0.7,0-1.1c0-4,1.3-7.5,4.1-10.5c2.7-3,5.4-5.9,8.1-8.9
		c2.2-2.4,4.1-5,5.7-7.8c0.2-0.3,0.3-0.5,0.5-0.8c1-1.7,2.1-3.3,3.3-4.8c0.6-0.8,1.3-1.6,2-2.3c1.3-1.6,2.8-2.9,4.5-4.1
		c0.4-0.3,0.9-0.6,1.4-0.9c2.2-1.3,4.6-2,7.2-2s5,0.6,7.2,1.8c2.2,1.2,4.1,2.8,5.8,4.7c0,0,0.1,0.1,0.1,0.1c1.7,2,3.3,4.1,4.7,6.3
		c0.3,0.5,0.7,1.1,1,1.6c1.1,1.9,2.4,3.8,3.8,5.5c0.7,0.8,1.3,1.6,2,2.4c2.7,2.9,5.4,5.9,8.1,8.9c2.7,3,4.1,6.5,4.1,10.5
		C197.7,133.1,197.7,133.5,197.7,133.8z M205.1,94.8c-0.4,0.7-1,1.3-1.5,1.9c-2.2,2.2-4.9,3.3-8.1,3.3c-3.2,0-5.9-1.1-8.1-3.3
		c-1.2-1.2-2-2.5-2.6-3.9c-0.2-0.5-0.4-1.1-0.5-1.6c-0.2-0.8-0.3-1.7-0.3-2.6c0-3.2,1.1-5.9,3.3-8.2c2.2-2.2,4.9-3.3,8.1-3.3h0.3
		c3.1,0.1,5.7,1.2,7.9,3.3c2.2,2.2,3.3,5,3.3,8.2C206.9,90.8,206.3,92.9,205.1,94.8z"/>
	<path d="M184.8,92.7L184.8,92.7c-0.3-0.5-0.5-1-0.6-1.6L184.8,92.7z"/>
	<path d="M79.3,197.4v73.9c0,3.1-1,5.6-3.1,7.6c-2.1,2.1-4.6,3.1-7.6,3.1H47c-3,0-5.6-1-7.6-3.1c-2.1-2.1-3.1-4.6-3.1-7.6V196
		c0-3,1-5.6,3.1-7.6c2.1-2.1,4.6-3.1,7.6-3.1h20C73.9,185.1,79.3,190.6,79.3,197.4z"/>
	<path d="M184.2,91.1c0.1,0.6,0.3,1.1,0.5,1.6l0.1,0L184.2,91.1z"/>
	<path d="M184.2,91.1c0.1,0.6,0.3,1.1,0.5,1.6l0.1,0L184.2,91.1z M184.2,91.1c0.1,0.6,0.3,1.1,0.5,1.6l0.1,0L184.2,91.1z M248,37
		c-10.8-10.8-24.3-16.3-40.5-16.3c-8.9,0-17.5,1.9-25.5,5.7c-8.1,3.8-15,9.1-20.9,16c-5.9-6.9-12.8-12.2-20.9-16
		c-8.1-3.8-16.6-5.7-25.5-5.7c-16.2,0-29.7,5.4-40.5,16.3C63.2,47.8,57.8,61.3,57.8,77.5c0,7.9,1.3,15.6,4,23
		c1.9,5.2,4.7,10.7,8.5,16.5c-3.7-5.8-6.5-11.2-8.4-16.3c-2.7-7.4-4-15.1-4-23c0-16.2,5.4-29.7,16.2-40.6
		C85,26.2,98.5,20.8,114.7,20.8c8.9,0,17.4,1.9,25.5,5.7s15,9.1,20.9,16c5.8-6.9,12.8-12.2,20.9-16s16.6-5.7,25.5-5.7
		c16.1,0,29.6,5.4,40.4,16.3C258.6,48,264,61.5,264,77.7c0,7.9-1.3,15.6-4,23c-2.6,7.3-7.2,15.4-13.8,24
		c6.7-8.8,11.4-16.9,14.1-24.3s4-15,4-23C264.2,61.3,258.8,47.8,248,37z"/>
	<path d="M256.2,213.3l-57.3,48c-3.9,3.2-8.3,5.7-12.9,7.4c-4.6,1.8-9.5,2.6-14.6,2.6h-62.5c-4.4,0-8-3.6-8-8v-70.2c0-4.4,3.6-8,8-8
		h65.3c1.9,0,3.6,0.4,5.2,1.3c0.5,0.3,0.9,0.6,1.3,0.9c0.5,0.4,0.9,0.7,1.3,1.1c0.1,0.1,0.1,0.1,0.2,0.2c1.1,1.1,1.8,2.4,2.3,3.9
		c0.5,1.5,0.7,3.1,0.6,4.8c0,0.5-0.1,1-0.2,1.4c-0.4,2.2-1.7,4-3.6,5.7l-1.9,1.5l-2.6,2.2l-9.2,7.7c-1.4,1.2-3.3,1.8-5.1,1.8h-32.1
		c-4.4,0-8,3.6-8,8c0,2.2,0.9,4.2,2.3,5.7c1.5,1.4,3.5,2.3,5.7,2.3h37.7c1.9,0,3.7-0.7,5.1-1.8l39.5-32.6l1.8-1.5
		c0.1-0.1,0.3-0.2,0.4-0.3c0.3-0.2,0.6-0.4,0.9-0.6c0.4-0.3,0.8-0.5,1.3-0.8c3.2-2,6.6-3.2,10.1-3.8c4.5-0.7,8.8-0.5,13.1,0.5
		c0.1,0,0.3,0.1,0.4,0.1c4.2,1.1,8.1,2.9,11.9,5.4c1.4,1.1,2.8,2.2,4.1,3.4C260,204.7,259.8,210.3,256.2,213.3z"/>
</g>
</svg>
