<?xml version="1.0" encoding="utf-8"?>
<!-- Generator: Adobe Illustrator 23.0.1, SVG Export Plug-In . SVG Version: 6.00 Build 0)  -->
<svg version="1.1" id="Layer_1" xmlns="http://www.w3.org/2000/svg" xmlns:xlink="http://www.w3.org/1999/xlink" x="0px" y="0px"
	 viewBox="0 0 300 300" style="enable-background:new 0 0 300 300;" xml:space="preserve">
<style type="text/css">
	.st0{fill:none;}
	.st1{stroke:#000000;stroke-width:12;stroke-linecap:round;stroke-linejoin:round;stroke-miterlimit:10;}
	.st2{fill:none;stroke:#000000;stroke-width:16;stroke-linecap:round;stroke-linejoin:round;stroke-miterlimit:10;}
	.st3{fill:#E3E3E3;}
	.st4{fill:#00FF00;}
	.st5{fill:#0000FF;}
	.st6{fill:#333333;}
	.st7{stroke:#000000;stroke-miterlimit:10;}
	.st8{fill:none;stroke:#000000;stroke-width:15;stroke-linecap:round;stroke-linejoin:round;stroke-miterlimit:10;}
</style>
<g>
	<path d="M146.73,141.46h-5.78v3.41c0,5.76,4.07,10.69,9.68,11.74l0.89,0.17v-28.7L146.73,141.46z M150.63,80.63
		c-5.61,1.06-9.68,5.99-9.68,11.75v22.36c2.51-4.05,6.19-7.45,10.57-9.91V80.47L150.63,80.63z M89.65,66.32
		c2.92,1.16,6.1,1.8,9.43,1.8c3.33,0,6.52-0.64,9.43-1.8H89.65z M44.23,66.32c3.43,2.36,7.6,3.73,12.07,3.73
		c4.49,0,8.64-1.37,12.08-3.73H44.23z"/>
	<path d="M88.24,129.08c0.61-0.23,1.23-0.44,1.85-0.63c0.23-0.29,0.46-0.58,0.7-0.85L88.24,129.08z M148.38,168.77
		c-11.48-2.14-19.8-12.19-19.8-23.9v-9.71h-21.64c-3.48,0-6.29,2.82-6.29,6.3v0.11c-15.17,1.31-27.08,14.04-27.08,29.55v2.62h64.39
		c4.23,0,8-1.93,10.48-4.96L148.38,168.77z M108.51,66.32c-2.91,1.16-6.1,1.8-9.43,1.8c-3.33,0-6.51-0.64-9.43-1.8H68.38
		c-3.44,2.36-7.59,3.73-12.08,3.73c-4.47,0-8.64-1.37-12.07-3.73H32.51c1.93,2.6,4.31,4.91,7.06,6.79
		c4.93,3.4,10.71,5.19,16.73,5.19c6.01,0,11.8-1.79,16.74-5.18c1.79-1.22,3.43-2.64,4.89-4.21c2.6,2.09,5.53,3.82,8.67,5.07
		c3.97,1.58,8.17,2.38,12.48,2.38c4.31,0,8.52-0.8,12.49-2.38c4.45-1.78,8.37-4.41,11.58-7.66H108.51z"/>
	<path d="M146.07,69.02c-10.26,2.96-17.49,12.44-17.49,23.36v27.78h-21.64c-2.06,0-4.05,0.29-5.94,0.85
		c-4.02,1.16-7.55,3.49-10.21,6.59l-2.55,1.48c-3.72,1.33-7.22,3.16-10.41,5.4c-11.64,8.14-19.26,21.66-19.26,36.64v2.62H28.12
		c-7.49,0-13.56-6.06-13.56-13.55V79.87c0-7.48,6.07-13.55,13.56-13.55h4.39c1.93,2.6,4.31,4.91,7.06,6.79
		c4.93,3.4,10.71,5.19,16.73,5.19c6.01,0,11.8-1.79,16.74-5.18c1.79-1.22,3.43-2.64,4.89-4.21c2.6,2.09,5.53,3.82,8.67,5.07
		c3.97,1.58,8.17,2.38,12.48,2.38c4.31,0,8.52-0.8,12.49-2.38c4.45-1.78,8.37-4.41,11.58-7.66h14.81
		C141,66.32,143.81,67.32,146.07,69.02z"/>
	<path d="M140.95,114.74V92.38c0-5.76,4.07-10.69,9.68-11.75l0.89-0.16v24.36C147.14,107.29,143.46,110.69,140.95,114.74z"/>
	<path d="M212.84,139.31v28.94l-61.32-11.47l-0.89-0.17c-5.61-1.05-9.68-5.98-9.68-11.74v-3.41h5.78l4.79-13.38l1.3-3.63
		c1.86-5.19,8.6-8.9,15.27-8.9h24.15c6.67,0,13.41,3.71,15.27,8.9L212.84,139.31z"/>
	<path d="M240.03,141.46v16.66h-4.07c-3.81,0-6.9,3.1-6.9,6.91c0,1.91,0.77,3.64,2.02,4.89c0.17,0.17,0.36,0.34,0.55,0.49
		c-1.75,0.55-3.65,0.68-5.59,0.32l-4.05-0.76v-28.51H240.03z"/>
	<path d="M140.95,114.74V92.38c0-5.76,4.07-10.69,9.68-11.75l0.89-0.16v24.36C147.14,107.29,143.46,110.69,140.95,114.74z"/>
	<path d="M212.84,139.31v28.94l-61.32-11.47l-0.89-0.17c-5.61-1.05-9.68-5.98-9.68-11.74v-3.41h5.78l4.79-13.38l1.3-3.63
		c1.86-5.19,8.6-8.9,15.27-8.9h24.15c6.67,0,13.41,3.71,15.27,8.9L212.84,139.31z"/>
	<path d="M240.03,141.46v16.66h-4.07c-3.81,0-6.9,3.1-6.9,6.91c0,1.91,0.77,3.64,2.02,4.89c0.17,0.17,0.36,0.34,0.55,0.49
		c-1.75,0.55-3.65,0.68-5.59,0.32l-4.05-0.76v-28.51H240.03z"/>
	<path d="M240.03,78.27v48.19h-15.86l-2.18-6.07l-0.36-1c-0.67-1.86-1.56-3.63-2.66-5.28c-5.4-8.2-15.64-13.56-26.73-13.56h-24.15
		c-5.98,0-11.71,1.56-16.57,4.28V80.47l74.52-13.95C233.31,65.16,240.03,70.8,240.03,78.27z"/>
	<path d="M140.95,114.74V92.38c0-5.76,4.07-10.69,9.68-11.75l0.89-0.16v24.36C147.14,107.29,143.46,110.69,140.95,114.74z"/>
	<path d="M212.84,139.31v28.94l-61.32-11.47l-0.89-0.17c-5.61-1.05-9.68-5.98-9.68-11.74v-3.41h5.78l4.79-13.38l1.3-3.63
		c1.86-5.19,8.6-8.9,15.27-8.9h24.15c6.67,0,13.41,3.71,15.27,8.9L212.84,139.31z"/>
	<path d="M240.03,141.46v16.66h-4.07c-3.81,0-6.9,3.1-6.9,6.91c0,1.91,0.77,3.64,2.02,4.89c0.17,0.17,0.36,0.34,0.55,0.49
		c-1.75,0.55-3.65,0.68-5.59,0.32l-4.05-0.76v-28.51H240.03z"/>
	<path d="M85.94,48.67c0,2.96-0.44,5.88-1.3,8.7c-0.5,1.65-1.16,3.24-1.95,4.78c-0.74,1.46-1.61,2.85-2.59,4.17
		c-0.67,0.9-1.39,1.76-2.17,2.59c-1.46,1.57-3.1,2.99-4.89,4.21C68.1,76.51,62.31,78.3,56.3,78.3c-6.02,0-11.8-1.79-16.73-5.19
		c-2.75-1.88-5.13-4.19-7.06-6.79h11.72c-5.62-3.85-9.31-10.32-9.31-17.65c0-11.82,9.58-21.39,21.38-21.39c4.14,0,8,1.17,11.27,3.21
		c2.66,1.65,4.92,3.87,6.63,6.47c0.7-3.11,1.98-6.01,3.7-8.57c1.18,1.24,2.25,2.59,3.2,4.05C84.26,37.24,85.94,42.86,85.94,48.67z"
		/>
	<path d="M77.7,48.67c0,2.18-0.33,4.3-0.94,6.28c-0.92,3.02-2.5,5.75-4.57,8.03c-1.13,1.26-2.41,2.38-3.81,3.34
		c-3.44,2.36-7.59,3.73-12.08,3.73c-4.48,0-8.64-1.38-12.07-3.73c-5.62-3.85-9.32-10.32-9.32-17.65c0-11.81,9.58-21.39,21.39-21.39
		c4.14,0,8,1.17,11.27,3.21c2.65,1.65,4.91,3.87,6.63,6.47C76.42,40.32,77.7,44.34,77.7,48.67z"/>
	<path d="M108.51,66.32h14.64c-3.21,3.25-7.13,5.88-11.58,7.66c-3.97,1.58-8.18,2.38-12.49,2.38c-4.31,0-8.51-0.8-12.48-2.38
		c-3.14-1.25-6.07-2.98-8.67-5.07c-1.01-0.81-1.96-1.68-2.85-2.59c-1.04-1.05-2.01-2.16-2.89-3.34c-0.98-1.28-1.86-2.63-2.65-4.04
		c-2.75-4.97-4.21-10.62-4.21-16.33c0-2.52,0.28-5.04,0.83-7.47c0.37-1.6,0.84-3.16,1.41-4.65c2.66,1.65,4.92,3.87,6.63,6.47
		c0.7-3.11,1.98-6.01,3.7-8.57c4.59-6.81,12.35-11.29,21.18-11.29c14.09,0,25.51,11.42,25.51,25.51
		C124.59,53.37,117.94,62.56,108.51,66.32z"/>
	<path d="M124.59,42.61c0,10.76-6.65,19.95-16.08,23.71c-2.92,1.16-6.1,1.8-9.43,1.8c-3.33,0-6.51-0.63-9.43-1.8
		c-2.56-1.01-4.89-2.43-6.96-4.17c-2.4-2-4.41-4.44-5.94-7.2c-2.03-3.66-3.18-7.87-3.18-12.34c0-1.94,0.21-3.83,0.63-5.65
		c0.7-3.11,1.98-6.01,3.7-8.57c4.58-6.81,12.35-11.29,21.18-11.29C113.17,17.1,124.59,28.52,124.59,42.61z"/>
</g>
<g>
	<path d="M257.09,141.46h-43.48l-0.77-2.15l-5.33-14.86c-1.86-5.19-8.6-8.9-15.27-8.9h-24.15c-6.67,0-13.41,3.71-15.27,8.9
		l-1.3,3.63l-4.79,13.38h-7.48c0-1.74-0.71-3.32-1.84-4.45c-1.14-1.14-2.71-1.85-4.45-1.85h-26.02c-3.48,0-6.29,2.82-6.29,6.3v0.11
		c-15.17,1.31-27.08,14.04-27.08,29.55v83.31c0,16.39,13.28,29.67,29.67,29.67h153.85c16.39,0,29.67-13.28,29.67-29.67v-83.31
		C286.76,154.74,273.48,141.46,257.09,141.46z M180.17,251.03c-21.1,0-38.26-17.16-38.26-38.26c0-17.28,11.52-31.92,27.28-36.65
		c3.48-1.04,7.17-1.6,10.98-1.6c3.81,0,7.5,0.56,10.98,1.6c15.76,4.73,27.27,19.37,27.27,36.65
		C218.42,233.87,201.26,251.03,180.17,251.03z M262.79,171.94h-26.83c-1.64,0-3.15-0.57-4.33-1.53c-0.19-0.15-0.38-0.32-0.55-0.49
		c-1.25-1.25-2.02-2.98-2.02-4.89c0-3.81,3.09-6.91,6.9-6.91h26.83c1.9,0,3.63,0.78,4.88,2.03s2.02,2.97,2.02,4.88
		C269.69,168.85,266.6,171.94,262.79,171.94z"/>
	<path d="M257.09,141.46h-43.48l-0.77-2.15l-5.33-14.86c-1.86-5.19-8.6-8.9-15.27-8.9h-24.15c-6.67,0-13.41,3.71-15.27,8.9
		l-1.3,3.63l-4.79,13.38h-7.48c0-1.74-0.71-3.32-1.84-4.45c-1.14-1.14-2.71-1.85-4.45-1.85h-26.02c-3.48,0-6.29,2.82-6.29,6.3v0.11
		c-15.17,1.31-27.08,14.04-27.08,29.55v83.31c0,16.39,13.28,29.67,29.67,29.67h153.85c16.39,0,29.67-13.28,29.67-29.67v-83.31
		C286.76,154.74,273.48,141.46,257.09,141.46z M180.17,251.03c-21.1,0-38.26-17.16-38.26-38.26c0-17.28,11.52-31.92,27.28-36.65
		c3.48-1.04,7.17-1.6,10.98-1.6c3.81,0,7.5,0.56,10.98,1.6c15.76,4.73,27.27,19.37,27.27,36.65
		C218.42,233.87,201.26,251.03,180.17,251.03z M262.79,171.94h-26.83c-1.64,0-3.15-0.57-4.33-1.53c-0.19-0.15-0.38-0.32-0.55-0.49
		c-1.25-1.25-2.02-2.98-2.02-4.89c0-3.81,3.09-6.91,6.9-6.91h26.83c1.9,0,3.63,0.78,4.88,2.03s2.02,2.97,2.02,4.88
		C269.69,168.85,266.6,171.94,262.79,171.94z"/>
	<path d="M203.42,212.77c0,12.83-10.43,23.26-23.25,23.26c-12.83,0-23.26-10.43-23.26-23.26c0-10.18,6.82-19.35,16.6-22.28
		c2.14-0.64,4.38-0.97,6.66-0.97c2.28,0,4.52,0.33,6.67,0.97C196.6,193.42,203.42,202.58,203.42,212.77z"/>
	<path d="M201.83,212.78c0,11.96-9.7,21.66-21.66,21.66c-11.97,0-21.67-9.7-21.67-21.66c0-11.97,9.7-21.67,21.67-21.67
		C192.13,191.11,201.83,200.81,201.83,212.78z"/>
</g>
</svg>
