<?xml version="1.0" encoding="utf-8"?>
<!-- Generator: Adobe Illustrator 23.0.1, SVG Export Plug-In . SVG Version: 6.00 Build 0)  -->
<svg version="1.1" id="Layer_1" xmlns="http://www.w3.org/2000/svg" xmlns:xlink="http://www.w3.org/1999/xlink" x="0px" y="0px"
	 viewBox="0 0 300 300" style="enable-background:new 0 0 300 300;" xml:space="preserve">
<style type="text/css">
	.st0{fill:#333333;}
	.st1{fill:#FFFFFF;}
	.st2{fill:none;stroke:#FFFFFF;stroke-width:100;stroke-miterlimit:10;}
	.st3{fill:none;}
	.st4{fill:none;stroke:#FFFFFF;stroke-width:30;stroke-miterlimit:10;}
	.st5{fill:#E3E3E3;}
</style>
<g>
	<path class="st0" d="M167.7,79.6c-0.1,0.4-0.2,0.8-0.3,1.2c-0.1,0.3-0.2,0.6-0.2,0.9c-0.1,0.3-0.2,0.6-0.2,1
		c-0.1,0.4-0.2,0.8-0.3,1.2c0,0.1,0,0.2-0.1,0.3c0,0.1-0.1,0.3-0.1,0.4c-0.1,0.3-0.1,0.7-0.2,1c0,0.1,0,0.1,0,0.2l-9.8,1.8l-16.4,3
		c-2.4,0.4-4.6,1.6-6.3,3.3l-60.4,60.4l-5.5,5.5l-4.4,4.4l-5.5,5.5l-4.2,4.2c-4.2,4.2-7.2,9.2-9,14.7l-10.7-29.5
		c-6.1-16.8,2.6-35.4,19.4-41.6l106.5-38.7c1.5-0.5,3.2-0.6,4.8-0.2L167.7,79.6z"/>
	<path class="st0" d="M91.2,220.8c-0.9-0.2-1.6-0.9-2-1.8l-0.1-0.3L91.2,220.8z"/>
	<path class="st0" d="M184.8,144.7l-2.1-1.5l0-0.1C183.4,143.7,184.1,144.2,184.8,144.7z"/>
	<path class="st0" d="M185.8,145.5c-0.3-0.2-0.5-0.4-0.8-0.5l-0.3-0.2C185.1,145,185.5,145.2,185.8,145.5z"/>
	<path class="st0" d="M186.9,146.2L186.9,146.2c-0.4-0.2-0.7-0.5-1.1-0.7C186.2,145.7,186.5,146,186.9,146.2z"/>
	<path class="st0" d="M188.7,147.3c-0.2-0.1-0.3-0.2-0.5-0.3c-0.5-0.3-0.9-0.6-1.4-0.9c0.5,0.3,0.9,0.6,1.4,0.9
		C188.4,147.1,188.6,147.2,188.7,147.3z"/>
	<path class="st1" d="M184.8,144.7l-2.1-1.5l0-0.1C183.4,143.7,184.1,144.2,184.8,144.7z"/>
	<path class="st1" d="M185.8,145.5c-0.3-0.2-0.5-0.4-0.8-0.5l-0.3-0.2C185.1,145,185.5,145.2,185.8,145.5z"/>
	<path class="st1" d="M186.9,146.2L186.9,146.2c-0.4-0.2-0.7-0.5-1.1-0.7C186.2,145.7,186.5,146,186.9,146.2z"/>
	<path class="st1" d="M188.7,147.3c-0.2-0.1-0.3-0.2-0.5-0.3c-0.5-0.3-0.9-0.6-1.4-0.9c0.5,0.3,0.9,0.6,1.4,0.9
		C188.4,147.1,188.6,147.2,188.7,147.3z"/>
	<path class="st1" d="M73.3,154.2l-5.5,5.5l-6.6-18.1c-0.5-1.5,0.2-3.2,1.7-3.7l1.2-0.4c1.5-0.5,3.2,0.2,3.7,1.7L73.3,154.2z"/>
	<path class="st1" d="M91.2,220.8c-0.9-0.2-1.6-0.9-2-1.8l-0.1-0.3L91.2,220.8z"/>
	<path class="st1" d="M63.3,164.2l-5.5,5.5L49.1,146c-0.5-1.5,0.2-3.2,1.7-3.7l1.2-0.4c1.5-0.5,3.2,0.2,3.7,1.7L63.3,164.2z"/>
</g>
<path class="st0" d="M184.8,144.7l-2.1-1.5l0-0.1C183.4,143.7,184.1,144.2,184.8,144.7z"/>
<path class="st0" d="M185.8,145.5c-0.3-0.2-0.5-0.4-0.8-0.5l-0.3-0.2C185.1,145,185.5,145.2,185.8,145.5z"/>
<path class="st0" d="M186.9,146.2L186.9,146.2c-0.4-0.2-0.7-0.5-1.1-0.7C186.2,145.7,186.5,146,186.9,146.2z"/>
<path class="st0" d="M188.7,147.3c-0.2-0.1-0.3-0.2-0.5-0.3c-0.5-0.3-0.9-0.6-1.4-0.9c0.5,0.3,0.9,0.6,1.4,0.9
	C188.4,147.1,188.6,147.2,188.7,147.3z"/>
<path class="st0" d="M91.2,220.8c-0.9-0.2-1.6-0.9-2-1.8l-0.1-0.3L91.2,220.8z"/>
<path class="st0" d="M280.1,65.8c-1.8-15.9-9.3-28.6-21.2-35.8c-11.9-7.2-26.7-7.9-41.6-2.1c-14.7,5.8-27.8,17.2-36.9,32.3
	c-3.9,6.5-6.9,13.4-8.9,20.4c-0.4,1.5-0.8,3-1.1,4.5c-0.3,1.4-0.6,2.8-0.8,4.1l-4.1,0.7h0l-8.4,1.5l-16.4,2.9
	c-1.7,0.3-3.1,1.1-4.3,2.2l-61.7,61.7l-5.6,5.5l-4.4,4.4l-5.5,5.5l-2.9,2.9c-5.3,5.3-8.4,12-9.3,18.9c-1.2,9.6,1.9,19.6,9.3,27
	l20.8,20.8l27.9,27.9c12.7,12.7,33.2,12.7,45.9,0l66.6-66.6c0.1-0.1,0.1-0.1,0.2-0.2l13.4-13.4c1.1-1.1,1.9-2.6,2.2-4.3l3-16.4
	l1.7-9.5l0.7-4.1l1.9-10.7c-0.3,0.2-0.6,0.3-0.8,0.4c0,0,0,0,0,0c-0.4,0.2-0.8,0.4-1.2,0.6c-0.4,0.2-0.8,0.4-1.3,0.6
	c-0.7,0.3-1.3,0.6-2,0.9c-0.3,0.1-0.6,0.3-0.9,0.4c-0.3,0.1-0.6,0.3-0.9,0.4c-7.1,2.8-14.1,4.2-21,4.2c-0.4,0-0.7,0-1.1,0
	c-0.3,0-0.5,0-0.8,0c-0.3,0-0.5,0-0.8,0c-0.9,0-1.8-0.1-2.7-0.2c-0.2,0-0.4-0.1-0.7-0.1c-0.1,0-0.1,0-0.2,0c-0.4,0-0.7-0.1-1.1-0.1
	h0c0,0-0.2,0-0.2,0c-0.3,0-0.6-0.1-0.9-0.1c-0.2,0-0.4-0.1-0.6-0.1c-5.6,6-14.7,8.1-22.6,4.4c-1.3-0.6-2.5-1.3-3.6-2.2
	c0,0-0.1,0-0.1-0.1c-4.9-3.6-8-9.3-8-15.8c0-3.6,1-6.9,2.6-9.8c0.7-1.3,1.6-2.5,2.6-3.5c1.1-1.2,2.3-2.2,3.6-3.1
	c1.1-0.7,2.3-1.3,3.5-1.8c2.2-0.9,4.7-1.4,7.3-1.4c4.4,0,8.5,1.4,11.7,3.9c0,0,0.1,0.1,0.1,0.1c5.7,4,8.7,10.8,8.1,17.6
	c0.3,0,0.5,0,0.8,0.1c0.2,0,0.5,0,0.7,0c0.8,0.1,1.6,0.1,2.3,0.1c5.3,0,10.9-1.1,16.5-3.3c0.4-0.2,0.9-0.4,1.3-0.5
	c0.1,0,0.2-0.1,0.3-0.1c0.4-0.2,0.9-0.4,1.3-0.6c0.4-0.2,0.8-0.4,1.2-0.6c0.2-0.1,0.4-0.2,0.6-0.3c0.7-0.4,1.4-0.7,2.2-1.1
	c0.2-0.1,0.4-0.3,0.7-0.4c0.3-0.2,0.6-0.4,0.9-0.5c0.3-0.1,0.5-0.3,0.8-0.5c0.1-0.1,0.2-0.1,0.3-0.2c0.2-0.1,0.5-0.3,0.7-0.5
	c0,0,0.1-0.1,0.1-0.1c0.3-0.2,0.7-0.4,1-0.7c0,0,0,0,0,0c0.3-0.2,0.5-0.4,0.8-0.5c0.5-0.4,1-0.7,1.5-1.1c0.3-0.2,0.6-0.4,0.9-0.7
	l5-27.7c0.1-0.3,0.1-0.5,0.1-0.8c1.5-12-10.8-24-22.8-21.8l-35.6,6.4l-11.6,2.1l-4.2,0.8c0.3-1.4,0.6-2.8,0.9-4.2
	c0.2-0.8,0.4-1.6,0.7-2.5c1.9-6.5,4.7-13,8.4-19.2c8.6-14.2,20.9-25,34.7-30.4c6.1-2.4,12.1-3.6,17.9-3.6c7.1,0,13.8,1.8,19.6,5.3
	c10.6,6.4,17.4,17.9,19,32.4c0.3,2.2,0.4,4.5,0.4,6.8c0,12.7-3.8,26-11.1,38c-5.9,9.8-13.7,18-22.4,24c-3.9,2.6-8,4.8-12.3,6.5
	c-7.7,3-15.3,4.1-22.5,3.3c-0.2,0-0.3,0-0.5-0.1c-0.3,0-0.5-0.1-0.8-0.1c-1.7-0.2-3.4-0.6-5-1.1c-1-0.3-1.9-0.6-2.8-0.9l-0.6-0.2
	c-0.1,0-0.2-0.1-0.3-0.1c-1.8-0.7-3.4-1.6-5.1-2.5c-1-0.6-1.9-1.2-2.8-1.9c-1.1,1.1-2,2.4-2.5,3.9c1,0.7,1.9,1.3,3,2
	c1.6,1,3.2,1.8,4.9,2.5c0.1,0,0.1,0.1,0.2,0.1c0.2,0.1,0.4,0.2,0.7,0.3c1,0.4,2,0.8,3.1,1.1c2,0.6,4.1,1.1,6.2,1.5
	c0.1,0,0.1,0,0.2,0c0.1,0,0.3,0,0.4,0c2.1,0.3,4.2,0.5,6.4,0.5c6.3,0,12.9-1.3,19.6-3.9c3.3-1.3,6.4-2.8,9.5-4.6c3.9-2.3,7.6-5,11-8
	c6.3-5.5,11.8-12.1,16.4-19.7C277.9,98.4,281.9,81.4,280.1,65.8z M127.8,261.4l-0.9,0.9c-1.1,1.1-3,1.1-4.1,0l-49.3-49.3l-8.9-8.9
	c-1.1-1.1-1.1-3,0-4.1l0.9-0.9c0.7-0.7,1.7-1,2.6-0.8c0.5,0.1,1.1,0.4,1.5,0.8l10,10l9.5,9.5v0l2.1,2.1h0l18.5,18.5l18.1,18
	C128.9,258.5,128.9,260.3,127.8,261.4z M136.8,252.4l-0.9,0.9c-1.1,1.1-3,1.1-4.1,0l-16.2-16.2l-19.5-19.5v0L84.6,206l-9.5-9.5
	l-1.4-1.4c-1-1-1.1-2.5-0.4-3.6c0,0,0,0,0,0c0.1-0.2,0.3-0.4,0.4-0.5l0.9-0.9c1.1-1.1,3-1.1,4.1,0l0.1,0.1l58,58
	C138,249.4,138,251.3,136.8,252.4z"/>
<path class="st1" d="M127.8,261.4l-0.9,0.9c-1.1,1.1-3,1.1-4.1,0l-49.3-49.3l-8.9-8.9c-1.1-1.1-1.1-3,0-4.1l0.9-0.9
	c0.7-0.7,1.7-1,2.6-0.8c0.5,0.1,1.1,0.4,1.5,0.8l10,10l9.5,9.5v0l0.1,0.3c0.3,0.9,1.1,1.6,2,1.8h0l18.5,18.5l18.1,18.1
	C128.9,258.5,128.9,260.3,127.8,261.4z"/>
<path class="st0" d="M184.8,144.7l-2.1-1.5l0-0.1C183.4,143.7,184.1,144.2,184.8,144.7z"/>
<path class="st0" d="M185.8,145.5c-0.3-0.2-0.5-0.4-0.8-0.5l-0.3-0.2C185.1,145,185.5,145.2,185.8,145.5z"/>
<path class="st0" d="M186.9,146.2L186.9,146.2c-0.4-0.2-0.7-0.5-1.1-0.7C186.2,145.7,186.5,146,186.9,146.2z"/>
<path class="st0" d="M188.7,147.3c-0.2-0.1-0.3-0.2-0.5-0.3c-0.5-0.3-0.9-0.6-1.4-0.9c0.5,0.3,0.9,0.6,1.4,0.9
	C188.4,147.1,188.6,147.2,188.7,147.3z"/>
<path class="st0" d="M91.2,220.8c-0.9-0.2-1.6-0.9-2-1.8l-0.1-0.3L91.2,220.8z"/>
<path class="st1" d="M184.8,144.7l-2.1-1.5l0-0.1C183.4,143.7,184.1,144.2,184.8,144.7z"/>
<path class="st1" d="M185.8,145.5c-0.3-0.2-0.5-0.4-0.8-0.5l-0.3-0.2C185.1,145,185.5,145.2,185.8,145.5z"/>
<path class="st1" d="M186.9,146.2L186.9,146.2c-0.4-0.2-0.7-0.5-1.1-0.7C186.2,145.7,186.5,146,186.9,146.2z"/>
<path class="st1" d="M188.7,147.3c-0.2-0.1-0.3-0.2-0.5-0.3c-0.5-0.3-0.9-0.6-1.4-0.9c0.5,0.3,0.9,0.6,1.4,0.9
	C188.4,147.1,188.6,147.2,188.7,147.3z"/>
<path class="st0" d="M184.8,144.7l-2.1-1.5l0-0.1C183.4,143.7,184.1,144.2,184.8,144.7z"/>
<path class="st0" d="M185.8,145.5c-0.3-0.2-0.5-0.4-0.8-0.5l-0.3-0.2C185.1,145,185.5,145.2,185.8,145.5z"/>
<path class="st0" d="M186.9,146.2L186.9,146.2c-0.4-0.2-0.7-0.5-1.1-0.7C186.2,145.7,186.5,146,186.9,146.2z"/>
<path class="st0" d="M188.7,147.3c-0.2-0.1-0.3-0.2-0.5-0.3c-0.5-0.3-0.9-0.6-1.4-0.9c0.5,0.3,0.9,0.6,1.4,0.9
	C188.4,147.1,188.6,147.2,188.7,147.3z"/>
<path class="st0" d="M184.8,144.7l-2.1-1.5l0-0.1C183.4,143.7,184.1,144.2,184.8,144.7z"/>
<path class="st0" d="M185.8,145.5c-0.3-0.2-0.5-0.4-0.8-0.5l-0.3-0.2C185.1,145,185.5,145.2,185.8,145.5z"/>
<path class="st0" d="M186.9,146.2L186.9,146.2c-0.4-0.2-0.7-0.5-1.1-0.7C186.2,145.7,186.5,146,186.9,146.2z"/>
<path class="st0" d="M188.7,147.3c-0.2-0.1-0.3-0.2-0.5-0.3c-0.5-0.3-0.9-0.6-1.4-0.9c0.5,0.3,0.9,0.6,1.4,0.9
	C188.4,147.1,188.6,147.2,188.7,147.3z"/>
<path class="st1" d="M136.8,252.4l-0.9,0.9c-1.1,1.1-3,1.1-4.1,0l-16.2-16.2l-19.5-19.5v0l-11.5-11.5l-9.5-9.5l-1.4-1.4
	c-1-1-1.1-2.5-0.4-3.6c0,0,0,0,0,0c0.1-0.2,0.3-0.4,0.4-0.5l0.9-0.9c1.1-1.1,3-1.1,4.1,0l0.1,0.1l58,58
	C138,249.4,138,251.3,136.8,252.4z"/>
<path class="st1" d="M91.2,220.8c-0.9-0.2-1.6-0.9-2-1.8l-0.1-0.3L91.2,220.8z"/>
<g>
	<path class="st0" d="M184.8,144.7l-2.1-1.5l0-0.1C183.4,143.7,184.1,144.2,184.8,144.7z"/>
	<path class="st0" d="M185.8,145.5c-0.3-0.2-0.5-0.4-0.8-0.5l-0.3-0.2C185.1,145,185.5,145.2,185.8,145.5z"/>
	<path class="st0" d="M186.9,146.2L186.9,146.2c-0.4-0.2-0.7-0.5-1.1-0.7C186.2,145.7,186.5,146,186.9,146.2z"/>
	<path class="st0" d="M188.7,147.3c-0.2-0.1-0.3-0.2-0.5-0.3c-0.5-0.3-0.9-0.6-1.4-0.9c0.5,0.3,0.9,0.6,1.4,0.9
		C188.4,147.1,188.6,147.2,188.7,147.3z"/>
	<path class="st0" d="M207.8,140.9c-0.1,0-0.2,0-0.2,0c0,0,0.1,0,0.1,0L207.8,140.9z"/>
</g>
<path class="st1" d="M207.8,140.9c-0.1,0-0.2,0-0.2,0c0,0,0.1,0,0.1,0L207.8,140.9z"/>
<path class="st3" d="M188.7,147.3c-0.2-0.1-0.3-0.2-0.5-0.3c-0.5-0.3-0.9-0.6-1.4-0.9c0.5,0.3,0.9,0.6,1.4,0.9
	C188.4,147.1,188.6,147.2,188.7,147.3z"/>
<path class="st3" d="M184.8,144.7l-2.1-1.5l0-0.1C183.4,143.7,184.1,144.2,184.8,144.7z"/>
<path class="st3" d="M185.8,145.5c-0.3-0.2-0.5-0.4-0.8-0.5l-0.3-0.2C185.1,145,185.5,145.2,185.8,145.5z"/>
<path class="st3" d="M186.9,146.2L186.9,146.2c-0.4-0.2-0.7-0.5-1.1-0.7C186.2,145.7,186.5,146,186.9,146.2z"/>
<path class="st3" d="M188.7,147.3c-0.2-0.1-0.3-0.2-0.5-0.3c-0.5-0.3-0.9-0.6-1.4-0.9c0.5,0.3,0.9,0.6,1.4,0.9
	C188.4,147.1,188.6,147.2,188.7,147.3z"/>
<path class="st0" d="M199.2,138.7c-0.1,0-0.2-0.1-0.3-0.1c-0.1,0-0.2-0.1-0.4-0.2c-0.1,0-0.2-0.1-0.3-0.1c-0.3-0.1-0.5-0.2-0.8-0.3
	c-0.1,0-0.1-0.1-0.2-0.1c-0.3-0.1-0.6-0.3-0.9-0.4c0,0-0.1,0-0.1,0c-0.3-0.1-0.5-0.3-0.8-0.4c-0.3-0.2-0.6-0.3-0.9-0.5
	c-0.4-0.2-0.8-0.5-1.2-0.8c-0.3-0.2-0.6-0.4-1-0.7c-0.1-0.1-0.2-0.2-0.3-0.2l-2.7-2l-2.4,2.3c-1.6,1.5-2.8,3.4-3.5,5.4l-0.9,2.6
	l0,0.1l2.1,1.5l0.3,0.2c0.3,0.2,0.5,0.4,0.8,0.5c0,0,0,0,0,0c0.4,0.2,0.7,0.5,1.1,0.7c0.4,0.3,0.9,0.6,1.4,0.9
	c0.2,0.1,0.3,0.2,0.5,0.3c0.4,0.2,0.7,0.4,1.1,0.6c0.3,0.2,0.6,0.3,0.9,0.5c0.1,0,0.2,0.1,0.2,0.1h0c0,0,0.1,0,0.1,0l0.2,0.1
	c0.2,0.1,0.4,0.2,0.6,0.3c-1,0.3-2,0.5-3.1,0.5c-5.8,0-10.5-4.7-10.5-10.5c0,0,0-0.1,0-0.1c0.1-4.8,3.4-8.8,7.8-10
	c0.8-0.2,1.7-0.3,2.6-0.3C194.4,128.6,199.1,133.1,199.2,138.7z"/>
<path class="st0" d="M184.8,144.7l-2.1-1.5l0-0.1C183.4,143.7,184.1,144.2,184.8,144.7z"/>
<path class="st0" d="M185.8,145.5c-0.3-0.2-0.5-0.4-0.8-0.5l-0.3-0.2C185.1,145,185.5,145.2,185.8,145.5z"/>
<path class="st0" d="M186.9,146.2L186.9,146.2c-0.4-0.2-0.7-0.5-1.1-0.7C186.2,145.7,186.5,146,186.9,146.2z"/>
<path class="st0" d="M188.7,147.3c-0.2-0.1-0.3-0.2-0.5-0.3c-0.5-0.3-0.9-0.6-1.4-0.9c0.5,0.3,0.9,0.6,1.4,0.9
	C188.4,147.1,188.6,147.2,188.7,147.3z"/>
<path class="st0" d="M199.2,138.7C199.2,138.7,199.2,138.7,199.2,138.7L199.2,138.7c-0.1,0-0.2-0.1-0.3-0.1
	C199,138.6,199.1,138.6,199.2,138.7z"/>
<path class="st1" d="M178.3,185.1v-6.4l-9.7-3.4c-0.8-1.9-1.2-2.8-1.9-4.7l4.4-9.3c-2.3-2.3-2.3-2.3-4.5-4.5l-9.3,4.4
	c-1.9-0.8-2.8-1.2-4.7-1.9l-3.5-9.7h-6.4l-3.4,9.7c-1.9,0.8-2.8,1.2-4.7,1.9l-9.3-4.4l-4.5,4.5l4.4,9.3c-0.8,1.9-1.2,2.8-1.9,4.7
	l-9.7,3.5v6.4l9.7,3.5c0.8,1.9,1.2,2.8,1.9,4.7l-4.4,9.3l4.5,4.5l9.3-4.4c1.9,0.8,2.8,1.2,4.7,1.9l3.4,9.7h6.4l3.5-9.7
	c1.9-0.8,2.8-1.2,4.7-1.9l9.3,4.4l4.5-4.5l-4.4-9.3c0.8-1.9,1.2-2.8,1.9-4.7L178.3,185.1z M146,194.4c-7,0-12.6-5.6-12.6-12.6
	s5.7-12.6,12.6-12.6s12.6,5.6,12.6,12.6S153,194.4,146,194.4z"/>
</svg>
