<?xml version="1.0" encoding="utf-8"?>
<!-- Generator: Adobe Illustrator 23.0.1, SVG Export Plug-In . SVG Version: 6.00 Build 0)  -->
<svg version="1.1" id="Layer_1" xmlns="http://www.w3.org/2000/svg" xmlns:xlink="http://www.w3.org/1999/xlink" x="0px" y="0px"
	 viewBox="0 0 300 300" style="enable-background:new 0 0 300 300;" xml:space="preserve">
<style type="text/css">
	.st0{stroke:#000000;stroke-width:3;stroke-miterlimit:10;}
	.st1{fill:#E3E3E3;}
</style>
<g>
	<path d="M161.47,9.54c-0.02,0-0.04-0.01-0.07-0.01l0.85,0.77l0.04-0.01L161.47,9.54z"/>
	<g>
		<path d="M161.18,138.82c0,4.62-3.74,8.36-8.36,8.36h-23.21c-4.62,0-8.38-3.74-8.38-8.36v-23.21c0-4.63,3.76-8.37,8.38-8.37h23.21
			c0.61,0,1.2,0.06,1.79,0.19c3.76,0.81,6.57,4.16,6.57,8.18V138.82z M236.17,121.6h-24.52l-4.03-11.31l-10.85,5.17L179.4,98.11
			l5.17-10.86l-11.3-4.03V58.7l11.33-4.05l-5.18-10.88l8.06-8.04l-9.65-8.71c-0.11-0.1-0.24-0.23-0.36-0.32
			c-0.25-0.19-0.5-0.38-0.76-0.55c-0.11-0.09-0.24-0.18-0.38-0.25c-0.03-0.03-0.08-0.05-0.11-0.06l-0.33-0.2
			c-0.18-0.11-0.37-0.2-0.56-0.29c-0.21-0.1-0.44-0.2-0.65-0.28c-0.27-0.11-0.55-0.2-0.83-0.29c-0.26-0.07-0.51-0.14-0.77-0.19
			c-0.5-0.1-1.02-0.18-1.55-0.23h-0.04c-0.24-0.01-0.48-0.02-0.71-0.02h-0.07c-0.23,0-0.47,0.01-0.7,0.02h-0.05
			c-0.52,0.05-1.05,0.13-1.56,0.23c-0.25,0.05-0.5,0.12-0.76,0.19c-0.26,0.09-0.53,0.18-0.78,0.28c-0.01,0-0.03,0-0.04,0.01
			c-0.23,0.08-0.44,0.18-0.66,0.28c-0.16,0.07-0.32,0.15-0.48,0.24c-0.14,0.08-0.28,0.16-0.42,0.25c-0.08,0.04-0.17,0.1-0.27,0.16
			c-0.07,0.05-0.15,0.09-0.23,0.15c-0.25,0.17-0.49,0.36-0.73,0.55c-0.14,0.09-0.26,0.22-0.37,0.32l-28.08,25.34V36.84
			c0-3.89-3.49-7.03-7.78-7.03h-11.07c-4.29,0-7.79,3.14-7.79,7.03v39.55l-4.86,4.41h-0.01l-2,1.81L72.61,109.2
			c-3.93,3.54-3.93,9.26,0,12.78c1.94,1.77,4.51,2.66,7.08,2.66c2.56,0,5.13-0.89,7.09-2.66l16.66-15.03v70.56h68.12
			c1.78,0,3.5,0.21,5.15,0.62v-19.48c0-8.21,6.66-14.85,14.87-14.85h6.64c1.41,0,2.8,0.2,4.1,0.58c0.03,0,0.07,0.01,0.1,0.02
			c6.15,1.83,10.64,7.51,10.64,14.25v28.95c3.05-1.42,6.28-2.43,9.64-3.02l0.12-0.02c2.28-0.37,4.59-0.56,6.87-0.56
			c2.76,0,5.57,0.28,8.36,0.83v-68.51L236.17,121.6z"/>
		<path d="M251.61,82.61c-0.25,0.59-0.49,1.17-0.77,1.85l5.51,11.57l-0.98,0.98l-6.39,6.38l-11.56-5.51l-1.94,0.8
			c-0.64,0.27-1.29,0.54-2.07,0.86l-4.29,12.06H218.7l-4.29-12.06l-1.78-0.73c-0.71-0.3-1.39-0.58-2.23-0.93l-11.56,5.51l-7.37-7.36
			l5.51-11.57c-0.04-0.07-0.06-0.14-0.08-0.21l-0.2-0.49c-0.04-0.07-0.07-0.16-0.1-0.25c-0.21-0.48-0.39-0.91-0.58-1.35L196,82.11
			c-0.02-0.08-0.07-0.17-0.1-0.26l-0.05-0.11c-0.02-0.07-0.05-0.15-0.09-0.22l-0.02-0.05c-0.03-0.08-0.06-0.16-0.09-0.23
			c-0.03-0.06-0.06-0.13-0.09-0.21c-0.02-0.06-0.04-0.12-0.07-0.17l-0.03-0.07c-0.03-0.1-0.08-0.2-0.12-0.3l-0.01-0.03l-1.02-0.36
			l-11.04-3.93V65.74l12.08-4.31c0.33-0.81,0.62-1.5,0.91-2.18c0.22-0.58,0.46-1.15,0.74-1.82l-5.51-11.57l3.43-3.42l3.95-3.94
			l11.56,5.51l3.99-1.66l4.3-12.06h10.42l4.32,12.09l1.76,0.73c0.71,0.29,1.4,0.57,2.23,0.92l11.57-5.51l0.97,0.97
			c2.72,2.72,2.72,2.72,5.43,5.43l0.97,0.97l-5.51,11.56l0.69,1.69c0.32,0.73,0.61,1.44,0.96,2.31l12.07,4.29v10.43l-12.12,4.29
			C252.16,81.27,251.89,81.94,251.61,82.61z"/>
		<path d="M251.61,82.61c-0.25,0.59-0.49,1.17-0.77,1.85l5.51,11.57l-0.98,0.98l-6.39,6.38l-11.56-5.51l-1.94,0.8
			c-0.64,0.27-1.29,0.54-2.07,0.86l-4.29,12.06H218.7l-4.29-12.06l-1.78-0.73c-0.71-0.3-1.39-0.58-2.23-0.93l-11.56,5.51l-7.37-7.36
			l5.51-11.57c-0.04-0.07-0.06-0.14-0.08-0.21l-0.2-0.49c-0.04-0.07-0.07-0.16-0.1-0.25c-0.21-0.48-0.39-0.91-0.58-1.35L196,82.11
			c-0.02-0.08-0.07-0.17-0.1-0.26l-0.05-0.11c-0.02-0.07-0.05-0.15-0.09-0.22l-0.02-0.05c-0.03-0.08-0.06-0.16-0.09-0.23
			c-0.03-0.06-0.06-0.13-0.09-0.21c-0.02-0.06-0.04-0.12-0.07-0.17l-0.03-0.07c-0.03-0.1-0.08-0.2-0.12-0.3l-0.01-0.03l-1.02-0.36
			l-11.04-3.93V65.74l12.08-4.31c0.33-0.81,0.62-1.5,0.91-2.18c0.22-0.58,0.46-1.15,0.74-1.82l-5.51-11.57l3.43-3.42l3.95-3.94
			l11.56,5.51l3.99-1.66l4.3-12.06h10.42l4.32,12.09l1.76,0.73c0.71,0.29,1.4,0.57,2.23,0.92l11.57-5.51l0.97,0.97
			c2.72,2.72,2.72,2.72,5.43,5.43l0.97,0.97l-5.51,11.56l0.69,1.69c0.32,0.73,0.61,1.44,0.96,2.31l12.07,4.29v10.43l-12.12,4.29
			C252.16,81.27,251.89,81.94,251.61,82.61z"/>
	</g>
	<g>
		<g>
			<path d="M76.65,199.8v73.94c0,3.1-1.03,5.58-3.1,7.64c-2.07,2.07-4.65,3.1-7.64,3.1H44.33c-2.99,0-5.58-1.03-7.64-3.1
				c-2.07-2.07-3.1-4.65-3.1-7.64v-75.39c0-2.99,1.03-5.58,3.1-7.64c2.07-2.07,4.65-3.1,7.64-3.1h20.04
				C71.18,187.51,76.65,192.98,76.65,199.8z"/>
			<path d="M259.55,210.64l-63.31,53.08c-3.92,3.2-8.26,5.68-12.91,7.44c-4.64,1.75-9.5,2.58-14.56,2.58H98.24v-86.23h73.32
				c1.9,0,3.62,0.42,5.16,1.27c0.46,0.26,0.92,0.56,1.34,0.89c1.87,1.45,3.1,3.1,3.73,5.17c0.51,1.54,0.72,3.1,0.61,4.75
				c0,0.52-0.1,1.03-0.2,1.45c-0.41,2.16-1.66,4.02-3.62,5.67l-1.86,1.55l-2.6,2.16l-11.44,9.51h-42.96v16.01h48.54l41.72-34.49
				l1.96-1.66c0.39-0.29,0.76-0.56,1.12-0.8c0.41-0.28,0.82-0.53,1.25-0.75c3.21-1.96,6.61-3.19,10.12-3.81
				c4.45-0.73,8.79-0.52,13.12,0.51c0.13,0.04,0.26,0.07,0.39,0.1c4.19,1.05,8.09,2.87,11.9,5.37
				C253.66,203.2,256.87,206.51,259.55,210.64z"/>
			<path d="M253.92,203.82c3.43,3.29,3.22,8.85-0.42,11.9l-57.26,48c-3.92,3.2-8.26,5.68-12.91,7.44c-4.64,1.75-9.5,2.58-14.56,2.58
				h-62.53c-4.42,0-8-3.58-8-8v-70.22c0-4.42,3.58-8,8-8h65.32c1.9,0,3.62,0.42,5.16,1.27c0.46,0.26,0.92,0.56,1.34,0.89
				c1.87,1.45,3.1,3.1,3.73,5.17c0.51,1.54,0.72,3.1,0.61,4.75c0,0.52-0.1,1.03-0.2,1.45c-0.41,2.16-1.66,4.02-3.62,5.67l-1.86,1.55
				l-2.6,2.16l-9.22,7.66c-1.44,1.2-3.25,1.85-5.12,1.85h-32.06c-4.42,0-8,3.58-8,8v0c0,4.42,3.58,8.01,8,8.01h37.65
				c1.86,0,3.67-0.65,5.1-1.84l39.5-32.65l1.75-1.48c0.14-0.12,0.29-0.24,0.44-0.35c0.31-0.23,0.6-0.44,0.89-0.63
				c0.41-0.28,0.82-0.53,1.25-0.75c3.21-1.96,6.61-3.19,10.12-3.81c4.45-0.73,8.79-0.52,13.12,0.51c0.13,0.04,0.26,0.07,0.39,0.1
				c4.19,1.05,8.09,2.87,11.9,5.37C251.28,201.47,252.64,202.6,253.92,203.82z"/>
		</g>
	</g>
</g>
</svg>
