<?xml version="1.0" encoding="utf-8"?>
<!-- Generator: Adobe Illustrator 23.0.1, SVG Export Plug-In . SVG Version: 6.00 Build 0)  -->
<svg version="1.1" id="Layer_1" xmlns="http://www.w3.org/2000/svg" xmlns:xlink="http://www.w3.org/1999/xlink" x="0px" y="0px"
	 viewBox="0 0 300 300" style="enable-background:new 0 0 300 300;" xml:space="preserve">
<style type="text/css">
	.st0{fill:none;}
	.st1{stroke:#000000;stroke-width:12;stroke-linecap:round;stroke-linejoin:round;stroke-miterlimit:10;}
	.st2{fill:none;stroke:#000000;stroke-width:16;stroke-linecap:round;stroke-linejoin:round;stroke-miterlimit:10;}
	.st3{fill:#E3E3E3;}
	.st4{fill:#00FF00;}
	.st5{fill:#0000FF;}
	.st6{fill:#333333;}
	.st7{stroke:#000000;stroke-miterlimit:10;}
	.st8{fill:none;stroke:#000000;stroke-width:15;stroke-linecap:round;stroke-linejoin:round;stroke-miterlimit:10;}
</style>
<path d="M176,170.71h12.55c-0.43,0.27-0.87,0.53-1.31,0.78c-6.77,3.88-14.24,6.67-22.18,8.13c0.42-2.13,1.44-4.01,3.07-5.64
	C170.31,171.8,172.94,170.71,176,170.71z"/>
<path d="M222.48,110.55c0,10.66-2.36,20.76-6.61,29.79c-1.38,2.96-2.97,5.8-4.74,8.51h-0.01c-1.56,2.39-3.27,4.68-5.12,6.85h-30
	c-7.07,0-13.46,2.65-18.48,7.67c-4.75,4.76-7.38,10.74-7.63,17.37c-7.27-0.24-14.25-1.58-20.78-3.86c-5.14-1.78-9.99-4.14-14.5-7.01
	c-0.56-0.36-1.12-0.72-1.67-1.1c-5.62-3.79-10.66-8.38-14.95-13.6c-4.07-4.93-7.46-10.44-10.05-16.37c-1.23-2.78-2.27-5.65-3.12-8.6
	c-1.54-5.31-2.48-10.89-2.72-16.65c-0.04-1-0.06-2-0.06-3c0-4.07,0.34-8.07,1.01-11.95c1.69-9.92,5.47-19.13,10.86-27.16
	c2.74-4.1,5.92-7.91,9.45-11.33c0.77-0.75,1.55-1.46,2.36-2.17c0.65-0.58,1.32-1.14,2-1.68c0.32-0.28,0.61-0.52,0.93-0.75
	c0.36-0.28,0.71-0.54,1.07-0.78c0.16-0.12,0.32-0.24,0.48-0.36c3.54-2.68,7.35-5.02,11.38-6.99c9.26-4.51,19.68-7.03,30.68-7.03
	c2.38,0,4.72,0.12,7.04,0.35c20.95,2.07,39.15,13.29,50.56,29.63C217.81,81.72,222.48,95.57,222.48,110.55z"/>
<path d="M269.77,252.87c0.7,1.1,1.33,2.22,1.91,3.36C271.1,255.1,270.46,253.98,269.77,252.87z"/>
<path d="M149.86,268.63c0,1.92,0.26,3.79,0.76,5.58H15.76c0-0.54,0.01-1.07,0.04-1.61c0.01-0.29,0.03-0.58,0.05-0.87
	c0.02-0.2,0.03-0.4,0.05-0.6c0.03-0.37,0.07-0.73,0.11-1.1c0.04-0.4,0.1-0.79,0.16-1.19c0.08-0.6,0.19-1.2,0.31-1.8
	c0.07-0.37,0.15-0.74,0.24-1.11c0.1-0.46,0.21-0.91,0.34-1.36c0.1-0.39,0.21-0.78,0.33-1.16c0.03-0.12,0.07-0.24,0.11-0.37
	c0.12-0.39,0.25-0.77,0.38-1.15c0.12-0.35,0.24-0.69,0.38-1.04c0.07-0.2,0.15-0.41,0.23-0.61c0.13-0.33,0.26-0.66,0.41-0.99
	c0.15-0.37,0.31-0.74,0.48-1.1c0.03-0.07,0.06-0.14,0.1-0.21c0.16-0.36,0.33-0.72,0.52-1.08c0.09-0.21,0.2-0.42,0.31-0.63
	c0.58-1.13,1.22-2.25,1.91-3.36c0.08-0.14,0.17-0.28,0.26-0.42c0.4-0.62,0.81-1.24,1.23-1.86c0.09-0.13,0.18-0.27,0.28-0.4
	c0.24-0.33,0.48-0.66,0.72-0.99c0.34-0.46,0.69-0.91,1.05-1.37c0.33-0.41,0.65-0.82,0.99-1.22c0.34-0.4,0.68-0.8,1.03-1.2
	c0.58-0.67,1.19-1.34,1.82-1.99c3.1-3.27,6.68-6.39,10.68-9.34c17.37-12.8,42.85-22.46,72.64-27.03c1.23-0.19,2.47-0.37,3.71-0.54
	c1.25-0.17,2.5-0.34,3.76-0.49c2.88-0.36,5.79-0.66,8.74-0.92c0.03-0.01,0.06-0.01,0.09-0.01c0.67-0.06,1.34-0.11,2.01-0.17
	c0.08,0,0.17-0.01,0.25-0.02c0.72-0.05,1.43-0.11,2.15-0.16l2.82-0.18c0.95-0.05,1.89-0.1,2.84-0.15c0.46-0.02,0.92-0.04,1.38-0.06
	c0.49-0.03,0.98-0.05,1.48-0.06c0.47-0.02,0.95-0.04,1.43-0.05c0.48-0.02,0.96-0.03,1.44-0.04c0.33-0.01,0.65-0.02,0.98-0.03
	c0.33,0.01,0.66,0.02,0.98,0.03c0.47,0.01,0.95,0.02,1.43,0.04c0.48,0.01,0.96,0.03,1.43,0.05c0.01,0,0.01,0,0.02,0V268.63z"/>
<path d="M272.18,257.25c-2.02,1.7-4.38,2.55-7.09,2.55h-75.65c-1.48,0-2.89,0.59-3.94,1.63l-11.13,11.14
	c-1.13,1.13-2.53,1.64-3.9,1.64c-2.86,0-5.61-2.22-5.61-5.58v-63.35c2.27,0.22,4.51,0.46,6.74,0.74c1.26,0.15,2.51,0.32,3.76,0.49
	s2.48,0.35,3.71,0.54c4.86,0.74,9.6,1.62,14.21,2.63h-0.58c-3.07,0-5.56,2.5-5.56,5.57c0,1.54,0.62,2.93,1.63,3.94
	c1.01,1.01,2.39,1.63,3.93,1.63h35.58c3.98,1.74,7.76,3.6,11.33,5.57H192.7c-3.07,0-5.56,2.49-5.56,5.57c0,1.53,0.62,2.93,1.63,3.94
	c1.01,1.01,2.39,1.63,3.93,1.63h55.69c1.92,0,3.62-0.98,4.63-2.47c3.48,2.66,6.62,5.45,9.38,8.36c1.79,1.88,3.42,3.81,4.88,5.78
	c0.25,0.33,0.48,0.66,0.72,0.99c0.09,0.13,0.19,0.27,0.28,0.4c0.42,0.62,0.84,1.24,1.23,1.86c0.09,0.14,0.18,0.28,0.26,0.42
	c0.35,0.56,0.68,1.11,1,1.67c0.31,0.56,0.62,1.13,0.91,1.69c0.11,0.21,0.22,0.42,0.31,0.63
	C272.06,256.99,272.12,257.12,272.18,257.25z"/>
<path d="M20.31,256.23c0.58-1.14,1.21-2.26,1.91-3.36C21.53,253.98,20.89,255.1,20.31,256.23z"/>
<path d="M29.6,243.42c-0.63,0.65-1.24,1.32-1.82,1.99c0.58-0.67,1.18-1.33,1.81-1.99H29.6z"/>
<path class="st3" d="M272.96,173.98c-2.18-2.18-4.8-3.27-7.87-3.27H176c-3.06,0-5.69,1.09-7.87,3.27c-1.63,1.63-2.65,3.51-3.07,5.64
	c-0.13,0.71-0.2,1.45-0.2,2.22v86.79c0,3.36,2.75,5.58,5.61,5.58c1.37,0,2.77-0.51,3.9-1.64l11.13-11.14
	c1.05-1.04,2.46-1.63,3.94-1.63h75.65c2.71,0,5.07-0.85,7.09-2.55c0.27-0.23,0.53-0.47,0.78-0.72c2.18-2.18,3.27-4.8,3.27-7.87
	v-66.82C276.23,178.78,275.14,176.16,272.96,173.98z M192.7,192.98h55.69c3.07,0,5.57,2.49,5.57,5.57c0,3.07-2.5,5.57-5.57,5.57
	H192.7c-1.54,0-2.92-0.63-3.93-1.63c-1.01-1.01-1.63-2.4-1.63-3.94C187.14,195.47,189.63,192.98,192.7,192.98z M192.7,209.68h55.69
	c3.07,0,5.57,2.5,5.57,5.57c0,3.08-2.5,5.57-5.57,5.57H192.7c-1.54,0-2.92-0.62-3.93-1.63c-1.01-1.01-1.63-2.4-1.63-3.94
	C187.14,212.18,189.63,209.68,192.7,209.68z M248.39,237.53H192.7c-1.54,0-2.92-0.62-3.93-1.63c-1.01-1.01-1.63-2.41-1.63-3.94
	c0-3.08,2.49-5.57,5.56-5.57h55.69c3.07,0,5.57,2.49,5.57,5.57c0,1.14-0.35,2.21-0.94,3.1
	C252.01,236.55,250.31,237.53,248.39,237.53z"/>
<path d="M272.96,173.98c-2.18-2.18-4.8-3.27-7.87-3.27H176c-3.06,0-5.69,1.09-7.87,3.27c-1.63,1.63-2.65,3.51-3.07,5.64
	c-0.13,0.71-0.2,1.45-0.2,2.22v86.79c0,3.36,2.75,5.58,5.61,5.58c1.37,0,2.77-0.51,3.9-1.64l11.13-11.14
	c1.05-1.04,2.46-1.63,3.94-1.63h75.65c2.71,0,5.07-0.85,7.09-2.55c0.27-0.23,0.53-0.47,0.78-0.72c2.18-2.18,3.27-4.8,3.27-7.87
	v-66.82C276.23,178.78,275.14,176.16,272.96,173.98z M192.7,192.98h55.69c3.07,0,5.57,2.49,5.57,5.57c0,3.07-2.5,5.57-5.57,5.57
	H192.7c-1.54,0-2.92-0.63-3.93-1.63c-1.01-1.01-1.63-2.4-1.63-3.94C187.14,195.47,189.63,192.98,192.7,192.98z M192.7,209.68h55.69
	c3.07,0,5.57,2.5,5.57,5.57c0,3.08-2.5,5.57-5.57,5.57H192.7c-1.54,0-2.92-0.62-3.93-1.63c-1.01-1.01-1.63-2.4-1.63-3.94
	C187.14,212.18,189.63,209.68,192.7,209.68z M248.39,237.53H192.7c-1.54,0-2.92-0.62-3.93-1.63c-1.01-1.01-1.63-2.41-1.63-3.94
	c0-3.08,2.49-5.57,5.56-5.57h55.69c3.07,0,5.57,2.49,5.57,5.57c0,1.14-0.35,2.21-0.94,3.1
	C252.01,236.55,250.31,237.53,248.39,237.53z"/>
</svg>
