<?xml version="1.0" encoding="utf-8"?>
<!-- Generator: Adobe Illustrator 23.0.1, SVG Export Plug-In . SVG Version: 6.00 Build 0)  -->
<svg version="1.1" id="Layer_1" xmlns="http://www.w3.org/2000/svg" xmlns:xlink="http://www.w3.org/1999/xlink" x="0px" y="0px"
	 viewBox="0 0 300 300" style="enable-background:new 0 0 300 300;" xml:space="preserve">
<style type="text/css">
	.st0{fill:none;}
	.st1{stroke:#000000;stroke-width:12;stroke-linecap:round;stroke-linejoin:round;stroke-miterlimit:10;}
	.st2{fill:none;stroke:#000000;stroke-width:16;stroke-linecap:round;stroke-linejoin:round;stroke-miterlimit:10;}
	.st3{fill:#E3E3E3;}
	.st4{fill:#00FF00;}
	.st5{fill:#0000FF;}
	.st6{fill:#333333;}
	.st7{fill:none;stroke:#000000;stroke-width:15;stroke-linecap:round;stroke-linejoin:round;stroke-miterlimit:10;}
	.st8{fill:#FFFFFF;}
</style>
<g>
	<path d="M191.03,161.61c1,0.16,2,0.27,3.02,0.31l-10.9,17.21l-53.11-20.18l-3.08-1.16l-4.97-1.89c-0.71-0.27-1.43-0.5-2.15-0.7
		c-0.37-0.1-0.74-0.19-1.1-0.28c-0.28-0.07-0.57-0.13-0.86-0.18c-0.15-0.03-0.3-0.06-0.45-0.08c-0.08-0.01-0.16-0.03-0.25-0.04
		c-0.41-0.07-0.83-0.13-1.25-0.17c-0.47-0.06-0.95-0.1-1.43-0.12c-0.24-0.01-0.48-0.03-0.72-0.03c-0.24-0.02-0.48-0.02-0.72-0.02
		c-2.12,0-4.22,0.26-6.22,0.76c-0.22,0.06-0.44,0.11-0.66,0.17c-0.21,0.06-0.43,0.12-0.64,0.19c-0.43,0.12-0.86,0.26-1.28,0.42
		c-0.42,0.15-0.83,0.31-1.24,0.49c-0.41,0.17-0.82,0.35-1.21,0.55c-0.28,0.14-0.56,0.28-0.84,0.43c-0.39,0.21-0.78,0.42-1.15,0.65
		c-0.03,0.02-0.05,0.04-0.08,0.05c-0.4,0.25-0.8,0.5-1.18,0.77c-0.33,0.23-0.66,0.47-0.98,0.73c-0.09,0.06-0.18,0.13-0.26,0.2
		c-0.02,0.02-0.05,0.04-0.07,0.06c-0.31,0.24-0.6,0.49-0.89,0.75c-0.23,0.21-0.46,0.42-0.68,0.63c-0.18,0.17-0.36,0.35-0.53,0.53
		c-0.52,0.53-1,1.09-1.46,1.67c-0.18,0.24-0.36,0.47-0.54,0.71c-0.09,0.13-0.19,0.27-0.28,0.4c-0.16,0.23-0.32,0.47-0.47,0.71
		l-24.82,39.21v-63.2l-18.83,16.99c-2.22,2-5.11,3-8.01,3c-2.9,0-5.8-1-8-3c-4.43-3.98-4.43-10.45,0-14.44l41.06-37.06v-44.7
		c0-4.38,3.94-7.94,8.8-7.94h12.49c4.86,0,8.8,3.56,8.8,7.94v17.54l31.76-28.67c4.42-3.99,11.59-3.99,16.01,0l67.35,60.78
		l-30.17,8.72c-0.71,0.21-1.4,0.44-2.08,0.71c-0.01,0-0.01,0-0.01,0c-0.67,0.26-1.34,0.55-1.98,0.87h-0.01
		c-0.64,0.31-1.27,0.65-1.88,1.03c0,0,0,0-0.01,0c-0.25,0.14-0.49,0.3-0.73,0.46c-0.12,0.08-0.23,0.16-0.35,0.24
		c-0.03,0.01-0.06,0.03-0.09,0.05c-0.05,0.03-0.09,0.07-0.14,0.11c-0.3,0.19-0.59,0.41-0.87,0.63c-0.35,0.26-0.69,0.54-1.02,0.83
		c-0.17,0.13-0.33,0.28-0.49,0.43c-0.16,0.15-0.32,0.3-0.48,0.45c-0.25,0.24-0.49,0.49-0.73,0.74c-0.01,0-0.01,0.01-0.01,0.01
		c-0.17,0.18-0.34,0.37-0.5,0.55c-0.13,0.14-0.25,0.28-0.36,0.42c-0.03,0.03-0.06,0.06-0.08,0.09c-0.03,0.04-0.06,0.07-0.08,0.11
		c-0.25,0.29-0.48,0.59-0.69,0.89c-0.3,0.39-0.58,0.8-0.85,1.22c-0.35,0.55-0.67,1.12-0.97,1.69c-0.18,0.35-0.35,0.71-0.51,1.07
		c-0.14,0.32-0.27,0.63-0.38,0.95c-0.05,0.1-0.08,0.2-0.12,0.3c0,0.01-0.01,0.01-0.01,0.02c0,0.01-0.01,0.02-0.01,0.03
		c-0.06,0.16-0.12,0.33-0.17,0.5c-0.06,0.16-0.11,0.32-0.15,0.47c-0.04,0.12-0.08,0.24-0.11,0.36c-0.1,0.36-0.2,0.73-0.28,1.09
		c-0.01,0.04-0.02,0.09-0.03,0.13c-0.07,0.31-0.12,0.61-0.18,0.92c0,0.02,0,0.04-0.01,0.06c-0.05,0.35-0.1,0.69-0.14,1.04
		c0,0.02-0.01,0.05-0.01,0.07c-0.03,0.31-0.06,0.61-0.07,0.92c-0.01,0.06-0.01,0.12-0.01,0.17c-0.02,0.33-0.03,0.67-0.03,1.01
		c0,2.47,0.47,4.95,1.41,7.32l0.04,0.1c0.28,0.68,0.59,1.34,0.93,1.98c0.03,0.05,0.05,0.1,0.09,0.15c0.08,0.14,0.15,0.28,0.23,0.41
		c0.07,0.14,0.15,0.27,0.24,0.41c0.22,0.37,0.46,0.73,0.7,1.08c0.05,0.07,0.1,0.13,0.15,0.2c0.1,0.13,0.19,0.27,0.29,0.4
		c0.1,0.14,0.2,0.27,0.32,0.4c0.06,0.1,0.14,0.2,0.24,0.3c0.15,0.19,0.31,0.39,0.48,0.57c0.12,0.14,0.25,0.28,0.38,0.42
		c0.27,0.29,0.56,0.58,0.85,0.86c0.26,0.25,0.54,0.5,0.82,0.74c0.56,0.49,1.15,0.94,1.77,1.37c0.27,0.19,0.53,0.36,0.81,0.53
		c0.21,0.14,0.42,0.27,0.63,0.38c0.07,0.05,0.14,0.09,0.21,0.13c0.09,0.06,0.19,0.11,0.29,0.16c0.01,0.01,0.03,0.01,0.04,0.02
		c0.19,0.11,0.39,0.22,0.6,0.31c0.04,0.03,0.09,0.05,0.13,0.07c0.07,0.04,0.14,0.08,0.21,0.11c0.68,0.35,1.39,0.65,2.12,0.93
		c0.78,0.3,1.58,0.55,2.39,0.77c0.25,0.07,0.51,0.13,0.77,0.2c0.03,0,0.07,0.01,0.1,0.02c0.06,0.01,0.11,0.03,0.17,0.04
		c0.04,0.01,0.09,0.02,0.13,0.02c0.15,0.04,0.31,0.07,0.47,0.1C190.49,161.52,190.76,161.56,191.03,161.61z"/>
	<polygon points="194.05,161.92 183.16,179.13 183.15,179.13 	"/>
	<path d="M227.78,197.5v48.18c0,3.59-2.91,6.5-6.5,6.5h-4.54c-3.59,0-6.5-2.91-6.5-6.5v-22.02c1.5-1.35,2.81-2.89,3.89-4.6
		L227.78,197.5z"/>
</g>
<g>
	<g>
		<g>
			<polygon points="194.05,161.92 183.16,179.13 183.15,179.13 			"/>
		</g>
	</g>
</g>
<path d="M124.21,205.59v40.09c0,3.59-2.91,6.5-6.5,6.5h-4.54c-3.59,0-6.5-2.91-6.5-6.5v-13.42L124.21,205.59z"/>
<path d="M158.77,218.54v27.14c0,3.59-2.91,6.5-6.5,6.5h-4.54c-3.59,0-6.5-2.91-6.5-6.5v-33.81l12.92,4.91L158.77,218.54z"/>
<path d="M193.85,229.93v15.75c0,3.59-2.91,6.5-6.5,6.5h-4.54c-3.59,0-6.5-2.91-6.5-6.5V225.2l8.29,3.15
	c1.83,0.68,3.79,1.16,5.91,1.41c0.99,0.12,1.98,0.18,2.96,0.18C193.6,229.94,193.73,229.94,193.85,229.93z"/>
<path d="M269.41,168.65c-1.28,2.02-3.43,3.54-6.08,4.31c-0.16,0.04-0.31,0.09-0.47,0.12c-4.12,1.03-8.4-0.08-10.89-2.57
	c-0.46-0.46-0.86-0.97-1.19-1.52c-0.18-0.31-0.35-0.63-0.48-0.98l-2.78-6.9l-2.2-5.47l-0.27-0.67c-0.56-1.42-2.16-1.58-2.65-1.6
	c-0.47-0.01-2.1,0.04-2.97,1.42l-1.67,2.63l-9.98,15.78l-5.91,9.34l-2.13,3.36l-9.5,15.01l-7.09,11.2
	c-1.28,2.03-3.44,3.56-6.08,4.32c-1.05,0.31-2.14,0.47-3.22,0.5c-0.62,0.02-1.24-0.01-1.85-0.08c-0.98-0.12-1.94-0.34-2.85-0.68
	l-12.84-4.88l-17.54-6.66l-17.54-6.67l-17.02-6.46l-3.44-1.31c-0.59-0.22-1.24-0.28-1.86-0.18h-0.01l-12.23,18.59l-23,34.96
	c-1.83,2.77-5.05,4.6-8.58,5.16c-0.7,0.11-1.43,0.17-2.15,0.18c-1.78,0.02-3.57-0.28-5.25-0.95c-5.74-2.27-7.89-7.93-4.79-12.63
	l4.68-7.11l7.54-11.46l28.26-44.65c2.63-4.16,8.91-5.97,13.99-4.04l8.07,3.05l50.87,19.33l9.45,3.59c0.56,0.21,1.19,0.27,1.8,0.19
	c0.18-0.03,0.36-0.07,0.53-0.12c0.78-0.22,1.42-0.67,1.79-1.26l3.97-6.3l0.52-0.82l24.52-38.74c0.88-1.36-0.06-2.4-0.37-2.69
	c-0.32-0.27-1.46-1.16-3.26-0.63l-16.52,4.77c-2.64,0.76-5.45,0.67-7.91-0.27c-2.47-0.93-4.28-2.59-5.13-4.68
	c-0.83-2.09-0.6-4.34,0.68-6.36c1.28-2.01,3.44-3.54,6.09-4.31l37.9-10.95l11.12-3.22c1.26-0.36,2.55-0.53,3.83-0.51
	c1.41,0.03,2.79,0.29,4.08,0.77c2.47,0.94,4.28,2.61,5.13,4.69l5.02,12.5l3.31,8.24l7.22,17.96
	C270.93,164.38,270.68,166.64,269.41,168.65z"/>
<path d="M262.86,86.85v25.91c-2.32-2.61-5.33-4.68-8.86-6.02c-2.76-1.04-5.68-1.58-8.68-1.6V86.85c0-2.22,1.8-4.01,4.01-4.01h9.52
	C261.06,82.84,262.86,84.63,262.86,86.85z"/>
<path d="M259.75,186.46c1.04,0,2.08-0.06,3.11-0.19v59.41c0,3.59-2.91,6.5-6.5,6.5h-4.54c-3.59,0-6.5-2.91-6.5-6.5v-63.81
	C249.35,184.82,254.45,186.46,259.75,186.46z"/>
</svg>
