<?xml version="1.0" encoding="utf-8"?>
<!-- Generator: Adobe Illustrator 23.0.1, SVG Export Plug-In . SVG Version: 6.00 Build 0)  -->
<svg version="1.1" id="Layer_1" xmlns="http://www.w3.org/2000/svg" xmlns:xlink="http://www.w3.org/1999/xlink" x="0px" y="0px"
	 viewBox="0 0 300 300" style="enable-background:new 0 0 300 300;" xml:space="preserve">
<style type="text/css">
	.st0{stroke:#000000;stroke-width:3;stroke-miterlimit:10;}
	.st1{fill:#E3E3E3;}
</style>
<path d="M242.6,157.21c-8.79,0-16.75-3.19-22.45-8.31c-0.32,0.28-0.64,0.56-0.96,0.83c-5.82,4.82-13.48,7.48-21.55,7.48
	c-8.8,0-16.76-3.19-22.46-8.31c-0.31,0.28-0.63,0.56-0.95,0.83c-5.84,4.82-13.49,7.48-21.56,7.48c-8.79,0-16.75-3.19-22.45-8.31
	c-0.31,0.28-0.63,0.56-0.95,0.83c-5.84,4.82-13.49,7.48-21.56,7.48c-8.8,0-16.75-3.19-22.45-8.31c-0.31,0.28-0.64,0.56-0.96,0.83
	c-5.83,4.82-13.49,7.48-21.56,7.48c-1.61,0-3.19-0.11-4.73-0.32v92.15c0,2.36,1.91,4.26,4.27,4.26h109.61c2.35,0,4.26-1.9,4.26-4.26
	v-77.17c0-2.35,1.91-4.26,4.27-4.26h30.8c2.35,0,4.27,1.91,4.27,4.26v77.17c0,2.36,1.9,4.26,4.26,4.26h23.32
	c2.35,0,4.27-1.9,4.27-4.26V156.9C245.78,157.1,244.2,157.21,242.6,157.21z M139.79,210.66c0,2.36-1.91,4.26-4.26,4.26H96.74
	c-2.36,0-4.27-1.9-4.27-4.26v-38.79c0-2.35,1.91-4.26,4.27-4.26h38.79c2.35,0,4.26,1.91,4.26,4.26V210.66z M243.07,129.23H62.28
	c-2.36,0-4.27,1.91-4.27,4.26v14.42c0.76,0.13,1.54,0.24,2.33,0.31c0.79,0.07,1.59,0.11,2.4,0.11c1.89,0,3.74-0.19,5.49-0.57
	c0.14-0.03,0.27-0.05,0.4-0.08c1.7-0.37,3.32-0.92,4.83-1.6c0.31-0.15,0.63-0.29,0.94-0.45c0.31-0.15,0.61-0.32,0.91-0.48
	c0.6-0.34,1.17-0.69,1.73-1.07s1.09-0.78,1.6-1.2c4.07-3.36,6.59-8.01,6.59-13.14c0,0.32,0.01,0.63,0.03,0.95
	c0.02,0.31,0.05,0.62,0.09,0.92c0,0.03,0,0.05,0.01,0.07c0.03,0.27,0.07,0.53,0.12,0.79c0,0.06,0.01,0.12,0.03,0.18
	c0.04,0.25,0.09,0.48,0.16,0.72c0.08,0.36,0.18,0.72,0.29,1.07l0.18,0.54c0.47,1.32,1.11,2.58,1.91,3.76
	c0.11,0.17,0.22,0.34,0.35,0.51c0.96,1.34,2.13,2.57,3.47,3.67c0.47,0.39,0.95,0.76,1.46,1.1c0.3,0.21,0.62,0.41,0.93,0.61
	c0.22,0.13,0.44,0.26,0.66,0.39c0.41,0.24,0.83,0.46,1.25,0.67c0.19,0.09,0.38,0.18,0.57,0.27c0.15,0.07,0.29,0.13,0.43,0.2
	c0.23,0.1,0.46,0.19,0.69,0.29c0.06,0.02,0.11,0.04,0.16,0.06c0.31,0.13,0.62,0.25,0.94,0.35c0.33,0.12,0.68,0.23,1.02,0.33
	c0.66,0.21,1.33,0.38,2.02,0.53c0.11,0.02,0.22,0.04,0.33,0.06c0.28,0.06,0.56,0.11,0.85,0.16c0.36,0.06,0.73,0.12,1.11,0.17
	c0.72,0.1,1.45,0.16,2.19,0.19c0.03-0.01,0.05-0.01,0.07,0c0.39,0.02,0.77,0.03,1.16,0.03c1.89,0,3.73-0.19,5.49-0.57
	c0.13-0.03,0.27-0.05,0.4-0.08c0.98-0.21,1.94-0.49,2.86-0.82c0.59-0.2,1.16-0.43,1.72-0.67c0.09-0.04,0.19-0.08,0.28-0.13
	c0.31-0.13,0.61-0.28,0.91-0.43c0.31-0.15,0.61-0.32,0.91-0.48c0.6-0.34,1.18-0.69,1.73-1.07c0.56-0.38,1.09-0.78,1.6-1.2
	c4.06-3.36,6.58-8.01,6.58-13.14c0,0.32,0.01,0.63,0.03,0.95c0.02,0.31,0.05,0.62,0.09,0.92c0,0.03,0,0.05,0.01,0.07
	c0.03,0.27,0.07,0.53,0.12,0.79c0,0.06,0.01,0.12,0.03,0.18c0.04,0.25,0.09,0.48,0.16,0.72c0.08,0.36,0.18,0.72,0.29,1.07
	c0.05,0.18,0.11,0.36,0.18,0.54c0.05,0.14,0.1,0.27,0.15,0.4c0.29,0.76,0.64,1.5,1.04,2.21c0.12,0.22,0.25,0.43,0.38,0.64
	c0.02,0.04,0.05,0.09,0.08,0.13c0.14,0.21,0.28,0.42,0.42,0.63c0.16,0.23,0.32,0.45,0.49,0.67c0.16,0.21,0.32,0.41,0.48,0.61
	c0.06,0.07,0.12,0.14,0.18,0.2c0.13,0.16,0.27,0.32,0.42,0.48c0.64,0.7,1.33,1.36,2.08,1.97c0.49,0.4,0.99,0.78,1.52,1.14
	c0.29,0.19,0.58,0.39,0.88,0.57c0.27,0.17,0.55,0.33,0.83,0.49c0.02,0.01,0.05,0.03,0.07,0.04c0.29,0.16,0.59,0.32,0.89,0.47
	c0.26,0.13,0.53,0.26,0.8,0.38c0.09,0.05,0.19,0.09,0.28,0.13c0.24,0.11,0.48,0.21,0.73,0.31c0.05,0.02,0.11,0.04,0.16,0.06
	c0.3,0.13,0.62,0.25,0.94,0.35c0.33,0.12,0.67,0.23,1.02,0.33c0.66,0.21,1.34,0.39,2.03,0.53c0.09,0.02,0.18,0.04,0.27,0.05
	c0.3,0.07,0.6,0.12,0.9,0.17c0.36,0.06,0.73,0.12,1.11,0.17c0.72,0.1,1.45,0.16,2.19,0.19c0.03-0.01,0.05-0.01,0.07,0
	c0.38,0.02,0.77,0.03,1.16,0.03c1.89,0,3.73-0.19,5.49-0.57c0.13-0.03,0.27-0.05,0.4-0.08c0.98-0.21,1.94-0.49,2.86-0.82
	c0.59-0.2,1.16-0.43,1.72-0.67c0.09-0.04,0.19-0.08,0.28-0.13c0.31-0.13,0.61-0.28,0.91-0.43c0.31-0.15,0.61-0.32,0.91-0.48
	c0.6-0.34,1.18-0.69,1.73-1.07c0.56-0.38,1.09-0.78,1.6-1.2c4.07-3.36,6.58-8.01,6.58-13.14c0,0.32,0.01,0.63,0.03,0.95
	c0.02,0.31,0.05,0.62,0.09,0.92c0,0.03,0,0.05,0.01,0.07c0.03,0.27,0.07,0.53,0.12,0.79c0,0.06,0.01,0.12,0.03,0.18
	c0.04,0.25,0.09,0.48,0.16,0.72c0.08,0.36,0.18,0.72,0.29,1.07l0.18,0.54c0.47,1.32,1.11,2.58,1.91,3.76
	c0.11,0.17,0.22,0.34,0.35,0.51c1.14,1.58,2.56,3.01,4.2,4.24c0.23,0.18,0.46,0.34,0.7,0.5c0.31,0.22,0.63,0.44,0.97,0.64
	c0.27,0.17,0.55,0.33,0.83,0.49c0.02,0.01,0.04,0.03,0.07,0.04c0.29,0.16,0.59,0.32,0.89,0.47c0.29,0.15,0.58,0.29,0.88,0.42
	c0.03,0.02,0.07,0.03,0.1,0.05l0.93,0.39c0.32,0.14,0.66,0.26,1,0.37c0.33,0.12,0.67,0.23,1.02,0.33c0.66,0.21,1.33,0.39,2.02,0.53
	c0.11,0.02,0.22,0.04,0.33,0.06c0.28,0.06,0.56,0.11,0.85,0.16c0.36,0.06,0.73,0.12,1.11,0.17c0.72,0.1,1.45,0.16,2.19,0.19
	c0.03-0.01,0.05-0.01,0.07,0c0.38,0.02,0.77,0.03,1.16,0.03c1.89,0,3.74-0.19,5.49-0.57c0.13-0.03,0.27-0.05,0.4-0.08
	c1.7-0.37,3.32-0.92,4.83-1.6c0.31-0.15,0.63-0.29,0.94-0.45c0.3-0.15,0.61-0.32,0.91-0.48c0.59-0.34,1.17-0.69,1.73-1.07
	c0.55-0.38,1.08-0.78,1.59-1.2c4.08-3.36,6.59-8.01,6.59-13.14c0,0.32,0.01,0.63,0.03,0.95c0.02,0.31,0.05,0.62,0.09,0.92
	c0,0.03,0,0.05,0.01,0.07c0.03,0.27,0.07,0.53,0.12,0.79c0,0.06,0.01,0.12,0.03,0.18c0.05,0.28,0.11,0.56,0.18,0.83
	c0.07,0.3,0.16,0.6,0.25,0.9c0.09,0.3,0.19,0.59,0.3,0.88c0.11,0.29,0.23,0.58,0.35,0.87c0.13,0.28,0.27,0.56,0.41,0.84
	c0.25,0.5,0.53,0.98,0.83,1.45c0.12,0.19,0.25,0.38,0.38,0.57c0.16,0.23,0.32,0.45,0.49,0.67c0.12,0.16,0.24,0.31,0.37,0.47
	c0.2,0.25,0.41,0.49,0.63,0.73c0.86,0.95,1.83,1.84,2.89,2.63c0.23,0.18,0.46,0.34,0.7,0.5c0.31,0.22,0.64,0.44,0.97,0.64
	c0.27,0.17,0.55,0.33,0.83,0.49c0.02,0.01,0.05,0.03,0.07,0.04c0.29,0.16,0.59,0.32,0.89,0.47c0.29,0.15,0.58,0.29,0.88,0.42
	c0.04,0.02,0.07,0.03,0.1,0.05l0.93,0.39c0.32,0.14,0.66,0.26,1,0.37c0.33,0.12,0.67,0.23,1.02,0.33c0.66,0.21,1.33,0.39,2.02,0.53
	l0.33,0.06c0.28,0.06,0.56,0.11,0.85,0.16c0.36,0.06,0.73,0.12,1.11,0.17c0.72,0.1,1.45,0.16,2.19,0.19c0.03-0.01,0.05-0.01,0.07,0
	c0.38,0.02,0.77,0.03,1.16,0.03c0.81,0,1.61-0.04,2.4-0.11c0.8-0.07,1.58-0.18,2.34-0.31v-14.42
	C247.34,131.14,245.42,129.23,243.07,129.23z"/>
<path d="M265.08,125.34v4.39c0,5.13-2.52,9.78-6.59,13.14c-3,2.48-6.85,4.27-11.15,5.03c-1.53,0.27-3.12,0.42-4.74,0.42
	c-12.42,0-22.48-8.32-22.48-18.59c0,5.13-2.51,9.78-6.59,13.14c-4.07,3.37-9.68,5.45-15.89,5.45c-12.42,0-22.49-8.32-22.49-18.59
	c0,5.13-2.51,9.78-6.58,13.14c-4.07,3.37-9.69,5.45-15.9,5.45c-12.42,0-22.48-8.32-22.48-18.59c0,5.13-2.52,9.78-6.58,13.14
	c-4.07,3.37-9.69,5.45-15.9,5.45c-12.41,0-22.48-8.32-22.48-18.59c0,5.13-2.52,9.78-6.59,13.14c-4.07,3.37-9.69,5.45-15.9,5.45
	c-1.62,0-3.21-0.15-4.73-0.42c-10.15-1.79-17.75-9.25-17.75-18.17v-4.39l3.4-14.2l7.84-32.77c1.82-7.62,8.63-13,16.47-13h47.86
	c-0.98,2.63-1.71,5.35-2.16,8.14c-0.39,2.35-0.58,4.76-0.58,7.16c0,24.25,19.72,43.98,43.97,43.98c3.23,0,6.46-0.35,9.59-1.05
	c4.94-1.1,9.62-3.03,13.9-5.75c12.83-8.11,20.49-22.01,20.49-37.18c0-5.38-0.97-10.53-2.75-15.3h39.09c7.84,0,14.65,5.38,16.47,13
	l7.84,32.77L265.08,125.34z"/>
<g>
	<path d="M187.4,65.38c-5.6-11.08-17.09-18.67-30.34-18.67c-12.64,0-23.67,6.9-29.52,17.14c-0.29,0.5-0.56,1.01-0.82,1.53
		c-1.53,3.03-2.62,6.3-3.18,9.76c-0.3,1.81-0.46,3.66-0.46,5.54c0,18.77,15.22,33.98,33.98,33.98c2.55,0,5.03-0.28,7.42-0.81
		c3.86-0.86,7.48-2.38,10.72-4.44c9.52-6.02,15.84-16.63,15.84-28.73C191.04,75.17,189.73,69.98,187.4,65.38z M154.66,74.32
		c0,2.16-0.66,4.09-1.98,5.81c-1.15,1.5-2.61,2.56-4.4,3.17c-0.48,0.17-0.81,0.63-0.81,1.14v19.02c0,1.12-0.91,2.03-2.03,2.03h-0.74
		c-1.12,0-2.03-0.91-2.03-2.03V84.44c0-0.51-0.32-0.97-0.81-1.14c-1.78-0.61-3.25-1.67-4.4-3.17c-1.32-1.72-1.98-3.65-1.98-5.81
		V58.73c0-0.66,0.54-1.2,1.2-1.2h2.4c0.66,0,1.19,0.54,1.19,1.2v11.99c0,0.66,0.54,1.2,1.2,1.2c0.67,0,1.2-0.54,1.2-1.2V58.73
		c0-0.66,0.54-1.2,1.2-1.2h2.4c0.66,0,1.2,0.54,1.2,1.2v11.99c0,0.66,0.54,1.2,1.2,1.2c0.66,0,1.2-0.54,1.2-1.2V58.73
		c0-0.66,0.53-1.2,1.2-1.2h2.39c0.67,0,1.2,0.54,1.2,1.2V74.32z M176.66,78.15c-1.16,2.02-2.66,3.42-4.48,4.22
		c-0.44,0.19-0.73,0.62-0.73,1.1v19.99c0,1.12-0.91,2.03-2.03,2.03h-0.74c-1.12,0-2.03-0.91-2.03-2.03V83.47
		c0-0.48-0.29-0.91-0.73-1.1c-1.82-0.8-3.32-2.21-4.48-4.25c-1.32-2.29-1.98-4.9-1.98-7.82c0-3.56,0.94-6.57,2.82-9.05
		c1.87-2.48,4.13-3.72,6.77-3.72s4.9,1.25,6.77,3.75c1.88,2.5,2.82,5.52,2.82,9.08C178.64,73.28,177.98,75.88,176.66,78.15z"/>
</g>
</svg>
