<?xml version="1.0" encoding="utf-8"?>
<!-- Generator: Adobe Illustrator 23.0.1, SVG Export Plug-In . SVG Version: 6.00 Build 0)  -->
<svg version="1.1" id="Layer_1" xmlns="http://www.w3.org/2000/svg" xmlns:xlink="http://www.w3.org/1999/xlink" x="0px" y="0px"
	 viewBox="0 0 300 300" style="enable-background:new 0 0 300 300;" xml:space="preserve">
<style type="text/css">
	.st0{fill:none;}
	.st1{stroke:#000000;stroke-width:12;stroke-linecap:round;stroke-linejoin:round;stroke-miterlimit:10;}
	.st2{fill:none;stroke:#000000;stroke-width:16;stroke-linecap:round;stroke-linejoin:round;stroke-miterlimit:10;}
	.st3{fill:#E3E3E3;}
	.st4{fill:#00FF00;}
	.st5{fill:#0000FF;}
	.st6{fill:#333333;}
	.st7{fill:none;stroke:#000000;stroke-width:15;stroke-linecap:round;stroke-linejoin:round;stroke-miterlimit:10;}
	.st8{fill:#FFFFFF;}
</style>
<path d="M235.54,147.87c-8.79,0-16.75-3.19-22.45-8.31c-0.32,0.28-0.64,0.56-0.96,0.83c-5.82,4.82-13.48,7.48-21.55,7.48
	c-8.8,0-16.76-3.19-22.46-8.31c-0.31,0.28-0.63,0.56-0.95,0.83c-5.84,4.82-13.49,7.48-21.56,7.48c-8.79,0-16.75-3.19-22.45-8.31
	c-0.31,0.28-0.63,0.56-0.95,0.83c-5.84,4.82-13.49,7.48-21.56,7.48c-8.8,0-16.75-3.19-22.45-8.31c-0.31,0.28-0.64,0.56-0.96,0.83
	c-5.83,4.82-13.49,7.48-21.56,7.48c-1.61,0-3.19-0.11-4.73-0.32v92.15c0,2.36,1.91,4.26,4.27,4.26h109.61c2.35,0,4.26-1.9,4.26-4.26
	v-77.17c0-2.35,1.91-4.26,4.27-4.26h30.8c2.35,0,4.27,1.91,4.27,4.26v77.17c0,2.36,1.9,4.26,4.26,4.26h23.32
	c2.35,0,4.27-1.9,4.27-4.26v-92.14C238.72,147.76,237.14,147.87,235.54,147.87z M132.73,201.32c0,2.36-1.91,4.26-4.26,4.26H89.68
	c-2.36,0-4.27-1.9-4.27-4.26v-38.79c0-2.35,1.91-4.26,4.27-4.26h38.79c2.35,0,4.26,1.91,4.26,4.26V201.32z M236.01,119.89H55.22
	c-2.36,0-4.27,1.91-4.27,4.26v14.42c1.52,0.27,3.11,0.42,4.73,0.42c6.21,0,11.83-2.08,15.9-5.45c4.07-3.36,6.59-8.01,6.59-13.14
	c0,10.27,10.07,18.59,22.48,18.59c6.21,0,11.83-2.08,15.9-5.45c4.06-3.36,6.58-8.01,6.58-13.14c0,10.27,10.06,18.59,22.48,18.59
	c6.21,0,11.83-2.08,15.9-5.45c4.07-3.36,6.58-8.01,6.58-13.14c0,10.27,10.07,18.59,22.49,18.59c6.21,0,11.82-2.08,15.89-5.45
	c4.08-3.36,6.59-8.01,6.59-13.14c0,10.27,10.06,18.59,22.48,18.59c1.62,0,3.21-0.15,4.74-0.42v-14.42
	C240.28,121.8,238.36,119.89,236.01,119.89z"/>
<path d="M258.02,116.01v4.39c0,5.13-2.52,9.78-6.59,13.14c-3,2.48-6.85,4.27-11.15,5.03c-1.53,0.27-3.12,0.42-4.74,0.42
	c-12.42,0-22.48-8.32-22.48-18.59c0,5.13-2.51,9.78-6.59,13.14c-4.07,3.37-9.68,5.45-15.89,5.45c-12.42,0-22.49-8.32-22.49-18.59
	c0,5.13-2.51,9.78-6.58,13.14c-4.07,3.37-9.69,5.45-15.9,5.45c-12.42,0-22.48-8.32-22.48-18.59c0,5.13-2.52,9.78-6.58,13.14
	c-4.07,3.37-9.69,5.45-15.9,5.45c-12.41,0-22.48-8.32-22.48-18.59c0,5.13-2.52,9.78-6.59,13.14c-4.07,3.37-9.69,5.45-15.9,5.45
	c-1.62,0-3.21-0.15-4.73-0.42c-10.15-1.79-17.75-9.25-17.75-18.17v-4.39l3.4-14.2l7.84-32.77c1.82-7.62,8.63-13,16.47-13h47.86
	c-0.98,2.63-1.71,5.35-2.16,8.14c-0.39,2.35-0.58,4.76-0.58,7.16c0,24.25,19.72,43.98,43.97,43.98c3.23,0,6.46-0.35,9.59-1.05
	c4.94-1.1,9.62-3.03,13.9-5.75c12.83-8.11,20.49-22.01,20.49-37.18c0-5.38-0.97-10.53-2.75-15.3h39.09c7.84,0,14.65,5.38,16.47,13
	l7.84,32.77L258.02,116.01z"/>
<path d="M258.02,116.01v4.39c0,5.13-2.52,9.78-6.59,13.14c-3,2.48-6.85,4.27-11.15,5.03c-1.53,0.27-3.12,0.42-4.74,0.42
	c-12.42,0-22.48-8.32-22.48-18.59c0,5.13-2.51,9.78-6.59,13.14c-4.07,3.37-9.68,5.45-15.89,5.45c-12.42,0-22.49-8.32-22.49-18.59
	c0,5.13-2.51,9.78-6.58,13.14c-4.07,3.37-9.69,5.45-15.9,5.45c-12.42,0-22.48-8.32-22.48-18.59c0,5.13-2.52,9.78-6.58,13.14
	c-4.07,3.37-9.69,5.45-15.9,5.45c-12.41,0-22.48-8.32-22.48-18.59c0,5.13-2.52,9.78-6.59,13.14c-4.07,3.37-9.69,5.45-15.9,5.45
	c-1.62,0-3.21-0.15-4.73-0.42c-10.15-1.79-17.75-9.25-17.75-18.17v-4.39l3.4-14.2l7.84-32.77c1.82-7.62,8.63-13,16.47-13h47.86
	c-0.98,2.63-1.71,5.35-2.16,8.14c-0.39,2.35-0.58,4.76-0.58,7.16c0,24.25,19.72,43.98,43.97,43.98c3.23,0,6.46-0.35,9.59-1.05
	c4.94-1.1,9.62-3.03,13.9-5.75c12.83-8.11,20.49-22.01,20.49-37.18c0-5.38-0.97-10.53-2.75-15.3h39.09c7.84,0,14.65,5.38,16.47,13
	l7.84,32.77L258.02,116.01z"/>
<g>
	<path d="M180.34,56.04c-5.6-11.08-17.09-18.67-30.34-18.67c-12.64,0-23.67,6.9-29.52,17.14c-0.29,0.5-0.56,1.01-0.82,1.53
		c-1.53,3.03-2.62,6.3-3.18,9.76c-0.3,1.81-0.46,3.66-0.46,5.54c0,18.77,15.22,33.98,33.98,33.98c2.55,0,5.03-0.28,7.42-0.81
		c3.86-0.86,7.48-2.38,10.72-4.44c9.52-6.02,15.84-16.63,15.84-28.73C183.98,65.83,182.67,60.64,180.34,56.04z M163.36,91.35
		c-1.3,1.14-2.74,2.08-4.29,2.78c-0.65,0.3-1.33,0.57-2.04,0.79v7.04h-13.91v-7.42c-2-0.81-3.82-1.93-5.42-3.34
		c-2.46-2.16-4.27-5.19-5.37-8.98l-1.01-3.48l10.53-4.24c-2.07-1.09-3.69-2.32-4.87-3.7c-0.87-1.01-1.59-2.16-2.13-3.4
		c-0.8-1.82-1.2-3.83-1.2-5.96c0-2.84,0.65-5.35,1.93-7.47c0.48-0.81,1.07-1.57,1.74-2.26c0.26-0.27,0.55-0.54,0.87-0.81
		c1.58-1.35,3.23-2.37,4.93-3.04v-7.14h13.91v7.13c1.79,0.65,3.38,1.59,4.75,2.79c0.39,0.35,0.77,0.71,1.13,1.09
		c0.63,0.67,1.18,1.36,1.67,2.09c0.72,1.07,1.34,2.28,1.81,3.57l1.31,3.55l-10.29,4.45c0.68,0.29,1.32,0.61,1.94,0.95
		c1.97,1.08,3.64,2.45,4.96,4.07c2.33,2.87,3.52,6.22,3.52,9.95C167.83,85.05,166.33,88.75,163.36,91.35z"/>
	<path d="M161.2,72.93c-0.99-1.22-2.25-2.25-3.78-3.09c-1.16-0.64-2.48-1.18-3.95-1.6c-2.97-0.85-5.22-1.66-6.76-2.44
		c-0.34-0.17-0.65-0.35-0.92-0.52c-1.48-0.94-2.22-2.22-2.22-3.84c0-1.43,0.56-2.63,1.7-3.59c1.13-0.96,2.78-1.44,4.95-1.44
		c1.87,0,3.35,0.39,4.44,1.18c1.08,0.79,1.92,1.97,2.51,3.55l5.47-2.37c-0.36-0.98-0.82-1.89-1.39-2.73
		c-0.36-0.54-0.76-1.05-1.21-1.53c-0.29-0.3-0.59-0.59-0.91-0.87c-1.6-1.41-3.63-2.31-6.1-2.71v-6.21h-5.91v6.21
		c-2.17,0.25-4.29,1.26-6.36,3.04c-0.21,0.17-0.4,0.35-0.58,0.54c-0.46,0.47-0.85,0.98-1.18,1.53c-0.9,1.49-1.35,3.29-1.35,5.4
		c0,1.6,0.29,3.05,0.86,4.36c0.38,0.87,0.88,1.67,1.51,2.4c1.58,1.85,4.48,3.44,8.72,4.77c3.95,1.28,6.46,2.43,7.55,3.44
		c0.48,0.45,0.86,0.98,1.13,1.57c0.33,0.74,0.49,1.58,0.49,2.53c0,0.93-0.16,1.74-0.49,2.44c-0.35,0.74-0.89,1.34-1.62,1.81
		c-1.4,0.91-3.11,1.37-5.13,1.37c-2.37,0-4.28-0.61-5.74-1.85c-1.45-1.23-2.55-3.03-3.28-5.39l-5.48,2.21
		c0.89,3.06,2.28,5.43,4.18,7.1c1.9,1.68,4.15,2.81,6.77,3.4v6.36h5.91v-6.21c1.6-0.23,3.06-0.65,4.39-1.26
		c1.21-0.55,2.31-1.27,3.3-2.14c2.07-1.82,3.11-4.49,3.11-7.99C163.83,77.55,162.95,75.08,161.2,72.93z"/>
	<path d="M163.83,80.36c0,3.5-1.04,6.17-3.11,7.99c-0.99,0.87-2.09,1.59-3.3,2.14c-1.33,0.61-2.79,1.03-4.39,1.26v6.21h-5.91V91.6
		c-2.62-0.59-4.87-1.72-6.77-3.4c-1.9-1.67-3.29-4.04-4.18-7.1l5.48-2.21c0.73,2.36,1.83,4.16,3.28,5.39
		c1.46,1.24,3.37,1.85,5.74,1.85c2.02,0,3.73-0.46,5.13-1.37c0.73-0.47,1.27-1.07,1.62-1.81c0.33-0.7,0.49-1.51,0.49-2.44
		c0-0.95-0.16-1.79-0.49-2.53c-0.27-0.59-0.65-1.12-1.13-1.57c-1.09-1.01-3.6-2.16-7.55-3.44c-4.24-1.33-7.14-2.92-8.72-4.77
		c-0.63-0.73-1.13-1.53-1.51-2.4c-0.57-1.31-0.86-2.76-0.86-4.36c0-2.11,0.45-3.91,1.35-5.4c0.33-0.55,0.72-1.06,1.18-1.53
		c0.18-0.19,0.37-0.37,0.58-0.54c2.07-1.78,4.19-2.79,6.36-3.04v-6.21h5.91v6.21c2.47,0.4,4.5,1.3,6.1,2.71
		c0.32,0.28,0.62,0.57,0.91,0.87c0.45,0.48,0.85,0.99,1.21,1.53c0.57,0.84,1.03,1.75,1.39,2.73l-5.47,2.37
		c-0.59-1.58-1.43-2.76-2.51-3.55c-1.09-0.79-2.57-1.18-4.44-1.18c-2.17,0-3.82,0.48-4.95,1.44c-1.14,0.96-1.7,2.16-1.7,3.59
		c0,1.62,0.74,2.9,2.22,3.84c0.27,0.17,0.58,0.35,0.92,0.52c1.54,0.78,3.79,1.59,6.76,2.44c1.47,0.42,2.79,0.96,3.95,1.6
		c1.53,0.84,2.79,1.87,3.78,3.09C162.95,75.08,163.83,77.55,163.83,80.36z"/>
</g>
</svg>
