<?xml version="1.0" encoding="utf-8"?>
<!-- Generator: Adobe Illustrator 23.0.1, SVG Export Plug-In . SVG Version: 6.00 Build 0)  -->
<svg version="1.1" id="Layer_1" xmlns="http://www.w3.org/2000/svg" xmlns:xlink="http://www.w3.org/1999/xlink" x="0px" y="0px"
	 viewBox="0 0 300 300" style="enable-background:new 0 0 300 300;" xml:space="preserve">
<style type="text/css">
	.st0{fill:none;}
	.st1{stroke:#000000;stroke-width:12;stroke-linecap:round;stroke-linejoin:round;stroke-miterlimit:10;}
	.st2{fill:none;stroke:#000000;stroke-width:16;stroke-linecap:round;stroke-linejoin:round;stroke-miterlimit:10;}
	.st3{fill:#E3E3E3;}
	.st4{fill:#00FF00;}
	.st5{fill:#0000FF;}
	.st6{fill:#333333;}
	.st7{stroke:#000000;stroke-miterlimit:10;}
	.st8{fill:none;stroke:#000000;stroke-width:15;stroke-linecap:round;stroke-linejoin:round;stroke-miterlimit:10;}
</style>
<g>
	<g>
		<path d="M179.9,125.28c0,8.92-3.25,17.05-8.68,23.29c-0.14,0.2-0.31,0.38-0.48,0.55c-0.43,0.49-0.88,0.97-1.35,1.43
			c-0.11,0.12-0.23,0.24-0.34,0.35c-0.19,0.18-0.37,0.35-0.56,0.53c-0.08,0.08-0.17,0.15-0.26,0.24
			c-6.33,5.75-14.74,9.25-23.98,9.25c-19.72,0-35.64-15.93-35.64-35.64c0-7.36,2.22-14.18,6.02-19.85c1.39-2.08,3.01-4.01,4.8-5.75
			c0.39-0.38,0.79-0.74,1.2-1.1c0.33-0.29,0.67-0.58,1.01-0.85c0.16-0.14,0.31-0.27,0.48-0.38c0.18-0.14,0.36-0.28,0.54-0.4
			c5.98-4.59,13.47-7.29,21.59-7.29c12.12,0,22.8,6,29.23,15.21C177.53,110.65,179.9,117.68,179.9,125.28z"/>
		<path d="M181.15,186.52c-0.25,0.56-0.45,1.16-0.58,1.78c-1.49,7.06-3.45,9.03-10.52,10.52c-3.99,0.84-6.77,4.28-6.77,8.35
			c0,0.39,0.03,0.78,0.08,1.16H74.99c0.02-7.59,4.62-14.6,12.45-20.37c10.38-7.65,26.45-13.08,45.09-14.71c0.01,0,0.03,0,0.05,0
			c0.34-0.03,0.68-0.06,1.02-0.08c0.04,0,0.08-0.01,0.13-0.01c0.36-0.03,0.73-0.06,1.09-0.08c0.48-0.03,0.95-0.06,1.43-0.09
			c0.48-0.03,0.96-0.05,1.44-0.08c0.23-0.01,0.46-0.02,0.7-0.03c0.25-0.01,0.5-0.02,0.75-0.03c0.24-0.01,0.48-0.02,0.73-0.03
			c0.24-0.01,0.49-0.01,0.73-0.02c0.24-0.01,0.49-0.01,0.73-0.02c0.2,0,0.4-0.01,0.6-0.01c0.78-0.01,1.56-0.02,2.35-0.02
			c0.78,0,1.57,0.01,2.35,0.02c0.2,0,0.4,0.01,0.6,0.01c0.24,0.01,0.49,0.01,0.73,0.02c0.24,0.01,0.49,0.01,0.73,0.02
			c0.24,0.01,0.49,0.02,0.73,0.03c0.25,0.01,0.5,0.02,0.75,0.03c0.23,0.01,0.47,0.02,0.7,0.03c0.48,0.02,0.96,0.05,1.44,0.08
			c0.48,0.03,0.96,0.06,1.43,0.09c0.19,0.01,0.38,0.03,0.57,0.04c0.19,0.01,0.38,0.03,0.57,0.04c0.03,0,0.06,0,0.08,0.01
			c0.34,0.03,0.67,0.05,1.01,0.08c0.01,0,0.02,0,0.04,0c0.1,0.01,0.21,0.02,0.31,0.03c0.03,0,0.05,0,0.08,0.01
			c0.1,0.01,0.19,0.02,0.29,0.03c0.05,0,0.1,0.01,0.15,0.01c0.05,0.01,0.11,0.01,0.16,0.01c0.04,0,0.09,0.01,0.13,0.01
			c0.08,0.01,0.17,0.02,0.25,0.02c0.25,0.02,0.5,0.05,0.74,0.07h0.01c0.02,0,0.05,0.01,0.07,0.01c0.01,0,0.03,0,0.05,0
			c5.48,0.57,10.72,1.48,15.64,2.67c0,0.07,0,0.13,0,0.2C173.85,181.05,176.8,185.07,181.15,186.52z"/>
		<path d="M207.92,208.34c-0.13,0.22-0.31,0.42-0.53,0.59c-0.05-0.2-0.11-0.39-0.16-0.59H207.92z"/>
		<path d="M195.1,184.14c-0.11-0.06-0.21-0.12-0.32-0.18c0.08,0.03,0.17,0.07,0.25,0.11C195.05,184.1,195.07,184.12,195.1,184.14z"
			/>
		<path d="M173.85,176.34c0-0.07,0-0.14,0-0.2c-4.92-1.19-10.16-2.1-15.64-2.67c-0.02,0-0.03,0-0.05,0c-0.03,0-0.05-0.01-0.07-0.01
			h-0.01c-0.25-0.03-0.5-0.05-0.74-0.07c-0.08-0.01-0.16-0.02-0.25-0.02c-0.04,0-0.09-0.01-0.13-0.01
			c-0.05-0.01-0.11-0.01-0.16-0.01c-0.05-0.01-0.1-0.01-0.15-0.01c-0.1-0.01-0.19-0.02-0.29-0.03c-0.03,0-0.05-0.01-0.08-0.01
			c-0.1-0.01-0.21-0.02-0.31-0.03c-0.01,0-0.02,0-0.04,0c-0.33-0.03-0.67-0.06-1.01-0.08c-0.03,0-0.06-0.01-0.08-0.01
			c-0.19-0.01-0.38-0.03-0.57-0.04c-0.19-0.01-0.38-0.03-0.57-0.04c-0.48-0.03-0.95-0.06-1.43-0.09c-0.48-0.03-0.96-0.05-1.44-0.08
			c-0.23-0.01-0.46-0.02-0.7-0.03c-0.25-0.01-0.5-0.02-0.75-0.03c-0.24-0.01-0.48-0.02-0.73-0.03c-0.24-0.01-0.49-0.01-0.73-0.02
			c-0.24-0.01-0.49-0.01-0.73-0.02c-0.2,0-0.4-0.01-0.6-0.01c-0.78-0.01-1.56-0.02-2.35-0.02c-0.78,0-1.57,0.01-2.35,0.02
			c-0.2,0-0.4,0.01-0.6,0.01c-0.24,0.01-0.49,0.01-0.73,0.02c-0.24,0.01-0.49,0.01-0.73,0.02c-0.24,0.01-0.49,0.02-0.73,0.03
			c-0.25,0.01-0.5,0.02-0.75,0.03c-0.23,0.01-0.47,0.02-0.7,0.03c-0.48,0.02-0.96,0.05-1.44,0.08c-0.48,0.03-0.96,0.06-1.43,0.09
			c-0.37,0.03-0.73,0.05-1.09,0.08c-0.04,0-0.08,0.01-0.13,0.01c-0.34,0.03-0.68,0.05-1.02,0.08c-0.02,0-0.03,0-0.05,0
			c-18.64,1.63-34.71,7.06-45.09,14.71c-7.82,5.77-12.43,12.78-12.45,20.37h88.36c-0.05-0.38-0.08-0.77-0.08-1.16
			c0-4.08,2.79-7.51,6.77-8.35c7.06-1.49,9.03-3.45,10.52-10.52c0.13-0.63,0.33-1.22,0.58-1.78
			C176.8,185.07,173.85,181.05,173.85,176.34z"/>
	</g>
	<g>
		<path d="M116.16,270.11c0.44,0.14,0.9,0.21,1.39,0.21h53.53c0.48,0,0.95-0.07,1.39-0.21H116.16z M116.16,270.11
			c0.44,0.14,0.9,0.21,1.39,0.21h53.53c0.48,0,0.95-0.07,1.39-0.21H116.16z M116.16,270.11c0.44,0.14,0.9,0.21,1.39,0.21h53.53
			c0.48,0,0.95-0.07,1.39-0.21H116.16z M116.16,270.11c0.44,0.14,0.9,0.21,1.39,0.21h53.53c0.48,0,0.95-0.07,1.39-0.21H116.16z
			 M116.16,270.11c0.44,0.14,0.9,0.21,1.39,0.21h53.53c0.48,0,0.95-0.07,1.39-0.21H116.16z M116.16,270.11
			c0.44,0.14,0.9,0.21,1.39,0.21h53.53c0.48,0,0.95-0.07,1.39-0.21H116.16z M116.16,270.11c0.44,0.14,0.9,0.21,1.39,0.21h53.53
			c0.48,0,0.95-0.07,1.39-0.21H116.16z M116.16,270.11c0.44,0.14,0.9,0.21,1.39,0.21h53.53c0.48,0,0.95-0.07,1.39-0.21H116.16z
			 M116.16,270.11c0.44,0.14,0.9,0.21,1.39,0.21h53.53c0.48,0,0.95-0.07,1.39-0.21H116.16z M116.16,270.11
			c0.44,0.14,0.9,0.21,1.39,0.21h53.53c0.48,0,0.95-0.07,1.39-0.21H116.16z M116.16,270.11c0.44,0.14,0.9,0.21,1.39,0.21h53.53
			c0.48,0,0.95-0.07,1.39-0.21H116.16z M116.16,270.11c0.44,0.14,0.9,0.21,1.39,0.21h53.53c0.48,0,0.95-0.07,1.39-0.21H116.16z
			 M116.16,270.11c0.44,0.14,0.9,0.21,1.39,0.21h53.53c0.48,0,0.95-0.07,1.39-0.21H116.16z M116.16,270.11
			c0.44,0.14,0.9,0.21,1.39,0.21h53.53c0.48,0,0.95-0.07,1.39-0.21H116.16z M116.16,270.11c0.44,0.14,0.9,0.21,1.39,0.21h53.53
			c0.48,0,0.95-0.07,1.39-0.21H116.16z M116.16,270.11c0.44,0.14,0.9,0.21,1.39,0.21h53.53c0.48,0,0.95-0.07,1.39-0.21H116.16z
			 M116.16,270.11c0.44,0.14,0.9,0.21,1.39,0.21h53.53c0.48,0,0.95-0.07,1.39-0.21H116.16z M116.16,270.11
			c0.44,0.14,0.9,0.21,1.39,0.21h53.53c0.48,0,0.95-0.07,1.39-0.21H116.16z M115.4,276.44c0.69,0.14,1.41,0.21,2.15,0.21h53.53
			c0.73,0,1.45-0.07,2.15-0.21H115.4z M116.16,270.11c0.44,0.14,0.9,0.21,1.39,0.21h53.53c0.48,0,0.95-0.07,1.39-0.21H116.16z
			 M116.16,270.11c0.44,0.14,0.9,0.21,1.39,0.21h53.53c0.48,0,0.95-0.07,1.39-0.21H116.16z M116.16,270.11
			c0.44,0.14,0.9,0.21,1.39,0.21h53.53c0.48,0,0.95-0.07,1.39-0.21H116.16z M116.16,270.11c0.44,0.14,0.9,0.21,1.39,0.21h53.53
			c0.48,0,0.95-0.07,1.39-0.21H116.16z M116.16,270.11c0.44,0.14,0.9,0.21,1.39,0.21h53.53c0.48,0,0.95-0.07,1.39-0.21H116.16z
			 M116.16,270.11c0.44,0.14,0.9,0.21,1.39,0.21h53.53c0.48,0,0.95-0.07,1.39-0.21H116.16z M116.16,270.11
			c0.44,0.14,0.9,0.21,1.39,0.21h53.53c0.48,0,0.95-0.07,1.39-0.21H116.16z M116.16,270.11c0.44,0.14,0.9,0.21,1.39,0.21h53.53
			c0.48,0,0.95-0.07,1.39-0.21H116.16z M116.16,270.11c0.44,0.14,0.9,0.21,1.39,0.21h53.53c0.48,0,0.95-0.07,1.39-0.21H116.16z
			 M116.16,270.11c0.44,0.14,0.9,0.21,1.39,0.21h53.53c0.48,0,0.95-0.07,1.39-0.21H116.16z M116.16,270.11
			c0.44,0.14,0.9,0.21,1.39,0.21h53.53c0.48,0,0.95-0.07,1.39-0.21H116.16z M116.16,270.11c0.44,0.14,0.9,0.21,1.39,0.21h53.53
			c0.48,0,0.95-0.07,1.39-0.21H116.16z M116.16,270.11c0.44,0.14,0.9,0.21,1.39,0.21h53.53c0.48,0,0.95-0.07,1.39-0.21H116.16z
			 M116.16,270.11c0.44,0.14,0.9,0.21,1.39,0.21h53.53c0.48,0,0.95-0.07,1.39-0.21H116.16z M116.16,270.11
			c0.44,0.14,0.9,0.21,1.39,0.21h53.53c0.48,0,0.95-0.07,1.39-0.21H116.16z M116.16,270.11c0.44,0.14,0.9,0.21,1.39,0.21h53.53
			c0.48,0,0.95-0.07,1.39-0.21H116.16z"/>
		<path d="M115.4,276.44c0.69,0.14,1.41,0.21,2.15,0.21h53.53c0.73,0,1.45-0.07,2.15-0.21H115.4z"/>
	</g>
	<path d="M42.58,257.96c0,0.46,0.01,0.92,0.03,1.37h-0.03V257.96z"/>
	<path d="M229.31,139.91c2.07,9.82,4.95,15.87,10.4,19.9V42.04c0-7.76-3.02-15.05-8.5-20.53c-5.48-5.48-12.78-8.5-20.53-8.5H77.95
		c-7.76,0-15.05,3.02-20.53,8.5s-8.5,12.78-8.5,20.53v215.93c0,0.46,0.01,0.92,0.03,1.37c0.33,7.24,3.31,14,8.47,19.16
		c5.48,5.48,12.78,8.5,20.53,8.5h132.73c7.76,0,15.05-3.02,20.53-8.5c5.16-5.16,8.14-11.92,8.47-19.16
		c0.02-0.46,0.03-0.91,0.03-1.37v-65.09c-5.45,4.03-8.33,10.07-10.4,19.9c-0.05,0.22-0.1,0.45-0.16,0.66v25.83H59.47V68.43h169.68
		v70.81C229.21,139.47,229.27,139.69,229.31,139.91z M229.15,253v4.96c0,0.46-0.02,0.92-0.05,1.37c-0.7,9.55-8.7,17.11-18.43,17.11
		h-37.45c-0.69,0.14-1.41,0.21-2.15,0.21h-53.53c-0.73,0-1.45-0.07-2.15-0.21H77.95c-9.73,0-17.72-7.55-18.43-17.11
		c-0.03-0.45-0.05-0.91-0.05-1.37V253H229.15z M59.47,54.71V42.04c0-10.19,8.29-18.48,18.48-18.48h132.73
		c10.19,0,18.48,8.29,18.48,18.48v12.67H59.47z"/>
	<path d="M173.22,276.44c-0.69,0.14-1.41,0.21-2.15,0.21h-53.53c-0.73,0-1.45-0.07-2.15-0.21H173.22z"/>
	<path d="M175.72,265.67c0,1.28-0.52,2.44-1.36,3.28c-0.52,0.52-1.17,0.92-1.9,1.15c-0.44,0.14-0.9,0.21-1.39,0.21h-53.53
		c-0.48,0-0.95-0.07-1.39-0.21c-1.89-0.59-3.26-2.35-3.26-4.43c0-1.28,0.52-2.44,1.36-3.28c0.84-0.84,2-1.36,3.28-1.36h53.53
		C173.64,261.03,175.72,263.11,175.72,265.67z"/>
	<path d="M175.72,265.67c0,1.28-0.52,2.44-1.36,3.28c-0.52,0.52-1.17,0.92-1.9,1.15c-0.44,0.14-0.9,0.21-1.39,0.21h-53.53
		c-0.48,0-0.95-0.07-1.39-0.21c-1.89-0.59-3.26-2.35-3.26-4.43c0-1.28,0.52-2.44,1.36-3.28c0.84-0.84,2-1.36,3.28-1.36h53.53
		C173.64,261.03,175.72,263.11,175.72,265.67z"/>
	<path d="M175.72,39.5c0,1.28-0.52,2.44-1.36,3.28c-0.84,0.84-2,1.36-3.28,1.36h-53.53c-2.57,0-4.65-2.08-4.65-4.65
		c0-1.28,0.52-2.44,1.36-3.28c0.84-0.84,2-1.36,3.28-1.36h53.53C173.64,34.86,175.72,36.94,175.72,39.5z"/>
	<path d="M207.92,208.34c-0.13,0.22-0.31,0.42-0.53,0.59c-0.05-0.2-0.11-0.39-0.16-0.59H207.92z"/>
	<path d="M195.1,184.14c-0.11-0.06-0.21-0.12-0.32-0.18c0.08,0.03,0.17,0.07,0.25,0.11C195.05,184.1,195.07,184.12,195.1,184.14z"/>
	<path d="M253.93,180.65c-2.88,0.61-5.5,1.3-7.88,2.1c-2.32,0.78-4.43,1.67-6.34,2.69c-4.5,2.4-7.91,5.52-10.56,9.67
		c-2.71,4.26-4.61,9.6-6.04,16.36c-0.07,0.34-0.17,0.65-0.3,0.93c-0.99,2.28-3.58,3.03-5.62,2.27c-1.28-0.48-2.35-1.54-2.7-3.2
		c-0.11-0.54-0.23-1.07-0.35-1.6c-0.2-0.88-0.41-1.73-0.63-2.56c0,0,0,0,0,0c-0.68-2.54-1.45-4.86-2.34-6.97
		c-0.96-2.27-2.05-4.31-3.31-6.13c0,0,0,0,0,0c-1.85-2.2-4.13-4.29-6.76-6.23c-1.83-1.35-3.83-2.62-6-3.82
		c-0.02-0.02-0.04-0.05-0.07-0.07c-0.08-0.04-0.17-0.07-0.25-0.11c0,0,0,0,0,0c-2.13-0.89-4.47-1.67-7.04-2.35
		c-1.29-0.34-2.64-0.66-4.05-0.96c-1.65-0.35-2.71-1.41-3.19-2.67c-0.83-2.17,0.06-4.95,2.66-5.81c0.17-0.06,0.35-0.11,0.53-0.14
		c19.03-4.01,26.8-11.78,30.82-30.82c0.91-4.32,6.71-4.63,8.32-0.93c0.13,0.29,0.23,0.6,0.3,0.93c1.43,6.76,3.33,12.1,6.04,16.36
		c2.64,4.15,6.06,7.27,10.56,9.67c1.91,1.02,4.01,1.9,6.34,2.69c2.39,0.8,5.01,1.5,7.88,2.1
		C258.59,173.02,258.59,179.67,253.93,180.65z"/>
	<path d="M195.1,184.14c-0.11-0.06-0.21-0.12-0.32-0.18c0.08,0.03,0.17,0.07,0.25,0.11C195.05,184.1,195.07,184.12,195.1,184.14z"/>
	<path d="M207.92,208.34c-0.13,0.22-0.31,0.42-0.53,0.59c-0.05-0.2-0.11-0.39-0.16-0.59H207.92z"/>
	<path d="M207.92,208.34h-0.69c0.05,0.19,0.11,0.39,0.16,0.59c-0.25,0.19-0.55,0.33-0.9,0.4c-5.05,1.06-8.51,2.66-10.95,5.34
		c-2.16,2.37-3.51,5.6-4.45,10.07c-0.49,2.33-3.82,2.33-4.31,0c-0.94-4.47-2.3-7.69-4.45-10.07c-2.44-2.68-5.9-4.28-10.95-5.34
		c-0.67-0.14-1.15-0.52-1.43-0.99c-0.7-1.18-0.23-2.97,1.43-3.32c9.52-2.01,13.4-5.89,15.41-15.41c0.14-0.67,0.51-1.14,0.99-1.43h0
		c1.09-0.65,2.7-0.3,3.21,1.06h0c0.04,0.12,0.08,0.24,0.11,0.37c1.99,9.42,5.81,13.32,15.1,15.34c0.1,0.02,0.2,0.04,0.3,0.07
		C208.14,205.37,208.62,207.16,207.92,208.34z"/>
	<path d="M207.92,208.34c-0.13,0.22-0.31,0.42-0.53,0.59c-0.05-0.2-0.11-0.39-0.16-0.59H207.92z"/>
</g>
</svg>
