<?xml version="1.0" encoding="utf-8"?>
<!-- Generator: Adobe Illustrator 23.0.1, SVG Export Plug-In . SVG Version: 6.00 Build 0)  -->
<svg version="1.1" id="Layer_1" xmlns="http://www.w3.org/2000/svg" xmlns:xlink="http://www.w3.org/1999/xlink" x="0px" y="0px"
	 viewBox="0 0 300 300" style="enable-background:new 0 0 300 300;" xml:space="preserve">
<style type="text/css">
	.st0{fill:none;}
	.st1{stroke:#000000;stroke-width:12;stroke-linecap:round;stroke-linejoin:round;stroke-miterlimit:10;}
	.st2{fill:none;stroke:#000000;stroke-width:16;stroke-linecap:round;stroke-linejoin:round;stroke-miterlimit:10;}
	.st3{fill:#E3E3E3;}
	.st4{fill:#00FF00;}
	.st5{fill:#0000FF;}
	.st6{fill:#333333;}
	.st7{stroke:#000000;stroke-miterlimit:10;}
	.st8{fill:none;stroke:#000000;stroke-width:15;stroke-linecap:round;stroke-linejoin:round;stroke-miterlimit:10;}
</style>
<g>
	<g>
		<path d="M260.08,81.45c-0.06-0.06-0.11-0.12-0.17-0.18c-0.12-0.13-0.25-0.27-0.38-0.4c-0.2-0.21-0.4-0.43-0.6-0.64
			c-0.2-0.2-0.39-0.41-0.59-0.61c-0.25-0.26-0.51-0.52-0.77-0.78v0c-0.19-0.19-0.38-0.38-0.58-0.57c-0.15-0.15-0.3-0.29-0.45-0.44
			c-0.16-0.16-0.33-0.32-0.49-0.47c-0.08-0.08-0.17-0.16-0.25-0.24c-0.17-0.16-0.33-0.31-0.5-0.47c-0.17-0.16-0.35-0.32-0.52-0.48
			c-0.04-0.04-0.09-0.08-0.13-0.12c-0.17-0.16-0.35-0.31-0.52-0.47c-0.15-0.13-0.3-0.26-0.44-0.39c-0.09-0.07-0.17-0.15-0.25-0.22
			c-0.14-0.13-0.29-0.25-0.43-0.37c-0.17-0.15-0.34-0.29-0.51-0.43c-0.04-0.04-0.09-0.07-0.13-0.11c-0.21-0.18-0.42-0.35-0.63-0.53
			c-0.77-0.64-1.56-1.26-2.36-1.87c-0.19-0.14-0.37-0.29-0.56-0.42c-0.09-0.07-0.18-0.14-0.27-0.2c-0.14-0.11-0.29-0.22-0.43-0.32
			c-0.14-0.1-0.27-0.2-0.41-0.3c-0.14-0.1-0.27-0.2-0.41-0.3c-0.14-0.1-0.29-0.2-0.43-0.31c-0.14-0.1-0.28-0.2-0.42-0.3
			c-0.15-0.11-0.31-0.22-0.47-0.32c-0.12-0.08-0.24-0.17-0.37-0.25c-0.18-0.13-0.37-0.25-0.55-0.37c-0.08-0.06-0.17-0.11-0.25-0.17
			c-0.23-0.15-0.46-0.3-0.69-0.45c-0.04-0.03-0.09-0.06-0.13-0.09c-0.05-0.08-0.1-0.15-0.15-0.23c4.97,3.18,9.59,6.9,13.82,11.12
			c0.82,0.82,1.63,1.66,2.41,2.51C260.07,81.33,260.08,81.39,260.08,81.45z"/>
		<path d="M189.01,74.39c-0.05-0.24-0.09-0.49-0.12-0.73C188.93,73.9,188.97,74.15,189.01,74.39z"/>
		<path d="M191.05,62.97c0,0.01-0.01,0.02-0.02,0.02C191.04,62.99,191.05,62.98,191.05,62.97L191.05,62.97z"/>
		<path d="M217.49,90.83c-0.02-0.01-0.04-0.02-0.06-0.02c-0.02-0.01-0.04-0.02-0.06-0.02C217.41,90.79,217.45,90.81,217.49,90.83z"
			/>
		<path d="M196.75,85.42c0.02,0.02,0.05,0.03,0.07,0.04c-0.01,0-0.01-0.01-0.02-0.01C196.78,85.44,196.77,85.43,196.75,85.42z"/>
		<path d="M196.86,85.48c0.01,0,0.02,0.01,0.02,0.01C196.87,85.49,196.87,85.49,196.86,85.48c-0.01-0.01-0.02-0.01-0.04-0.02
			C196.83,85.47,196.85,85.48,196.86,85.48z"/>
		<path d="M197.26,85.71c0.03,0.02,0.06,0.03,0.09,0.05C197.32,85.74,197.29,85.73,197.26,85.71c-0.01,0-0.02-0.01-0.03-0.02
			C197.24,85.7,197.25,85.7,197.26,85.71z"/>
		<path d="M199.83,95.05c0.05,0.16,0.11,0.32,0.18,0.47h0C199.94,95.37,199.88,95.21,199.83,95.05z"/>
		<path d="M200.33,90.62c0.07-0.13,0.15-0.25,0.24-0.37C200.49,90.36,200.41,90.49,200.33,90.62z"/>
		<path d="M205.84,87.86l0.02,0c-0.01,0-0.03,0-0.04,0L205.84,87.86z"/>
		<path d="M208.43,88.26l0.02,0C208.44,88.26,208.43,88.26,208.43,88.26c-0.03,0-0.06-0.01-0.1-0.02
			C208.36,88.24,208.39,88.25,208.43,88.26z"/>
		<path d="M208.85,88.33l0.11,0.02L208.85,88.33l-0.08-0.02C208.8,88.32,208.82,88.33,208.85,88.33z"/>
		<polygon points="210.82,88.75 210.86,88.76 210.83,88.76 210.77,88.74 		"/>
		<path d="M214.94,89.91c0,0,0.01,0,0.01,0c-0.02,0-0.03-0.01-0.04-0.01L214.94,89.91z"/>
		<path d="M216.93,90.61l0.04,0.02c-0.01,0-0.02-0.01-0.03-0.01L216.93,90.61z"/>
		<path d="M221.62,92.66c0.13,0.07,0.27,0.13,0.4,0.2c-0.18-0.09-0.36-0.18-0.55-0.27C221.52,92.61,221.57,92.63,221.62,92.66z"/>
		<path d="M222.39,93.05c0.03,0.01,0.05,0.03,0.08,0.04c-0.14-0.08-0.29-0.15-0.44-0.23c0,0-0.01,0-0.01-0.01c0,0,0.01,0,0.01,0
			C222.15,92.93,222.27,92.99,222.39,93.05z"/>
		<path d="M222.74,93.23c-0.09-0.05-0.18-0.1-0.27-0.14c0.02,0.01,0.03,0.02,0.05,0.02C222.59,93.15,222.66,93.19,222.74,93.23z"/>
		<path d="M199.59,71.77c0-0.04,0-0.07-0.01-0.11c0,0.01,0,0.02,0,0.04L199.59,71.77z"/>
		<path d="M199.66,70.43c0,0.04-0.01,0.07-0.02,0.11l-0.01,0.06l-0.02,0.09c0-0.02,0-0.04,0.01-0.06c0-0.02,0-0.04,0.01-0.06
			c0-0.01,0-0.01,0-0.02C199.65,70.5,199.65,70.46,199.66,70.43z"/>
		<path d="M199.68,72.41c0-0.01,0-0.02-0.01-0.03l-0.01-0.05C199.67,72.36,199.68,72.39,199.68,72.41z"/>
		<path d="M199.77,72.79c0-0.01-0.01-0.02-0.01-0.02c-0.01-0.03-0.02-0.07-0.02-0.1C199.74,72.7,199.76,72.74,199.77,72.79z"/>
		<path d="M199.89,69.56c0,0.01-0.01,0.02-0.01,0.02C199.88,69.58,199.88,69.57,199.89,69.56
			C199.88,69.56,199.88,69.56,199.89,69.56z"/>
		<path d="M199.97,69.32c-0.01,0.02-0.02,0.04-0.02,0.06c0,0,0-0.01,0-0.01C199.96,69.35,199.97,69.33,199.97,69.32z"/>
		<path d="M200.21,73.93l-0.02-0.04l-0.02-0.05c-0.02-0.03-0.03-0.06-0.04-0.1C200.15,73.8,200.18,73.86,200.21,73.93z"/>
		<path d="M200.32,74.11c-0.05-0.08-0.07-0.12-0.07-0.13l-0.03-0.05C200.25,73.99,200.28,74.05,200.32,74.11z"/>
		<path d="M200.45,74.32l-0.02-0.02c-0.01-0.02-0.02-0.04-0.03-0.05c0-0.01-0.01-0.02-0.02-0.04
			C200.4,74.24,200.42,74.28,200.45,74.32z"/>
		<path d="M200.56,74.49c-0.04-0.05-0.07-0.11-0.11-0.16l0.04,0.06L200.56,74.49z"/>
		<path d="M200.69,74.68l-0.04-0.05l-0.02-0.03C200.65,74.62,200.67,74.65,200.69,74.68z"/>
		<path d="M200.81,67.9l-0.56,0.83c-0.04,0.06-0.07,0.13-0.1,0.19c-0.03,0.06-0.06,0.13-0.09,0.19l-0.04,0.09c0,0,0-0.01,0-0.01
			c0-0.01,0-0.01,0.01-0.02c0,0,0,0,0,0c0.02-0.06,0.05-0.11,0.07-0.17c0,0,0,0,0,0c0,0,0,0,0,0c0-0.01,0.01-0.02,0.01-0.02
			c0-0.01,0.01-0.02,0.02-0.03c0.01-0.02,0.02-0.04,0.03-0.06c0.06-0.12,0.12-0.23,0.19-0.34c0.02-0.03,0.04-0.06,0.05-0.09
			c0.02-0.04,0.04-0.07,0.07-0.11c0.01-0.02,0.02-0.03,0.03-0.05c0,0,0-0.01,0.01-0.01h0c0.03-0.04,0.06-0.09,0.09-0.13
			C200.68,68.06,200.75,67.98,200.81,67.9z"/>
		<path d="M257.7,95.52h-0.14c-2.28-3.19-4.84-6.2-7.65-9.01c-0.63-0.62-1.26-1.24-1.91-1.84h0.16c0.62,0.57,1.23,1.16,1.83,1.76
			C252.82,89.26,255.4,92.3,257.7,95.52z"/>
	</g>
	<path d="M275.53,105.47v0.29c-0.07-0.17-0.13-0.33-0.2-0.48c-0.05-0.13-0.11-0.26-0.16-0.38c0,0,0-0.01,0-0.01
		c-0.11-0.27-0.23-0.54-0.35-0.81c-0.07-0.16-0.14-0.31-0.21-0.47c-0.06-0.14-0.12-0.28-0.19-0.42c-0.06-0.13-0.12-0.27-0.18-0.4
		c-0.06-0.14-0.13-0.29-0.2-0.43c-0.08-0.17-0.16-0.35-0.24-0.52c-0.04-0.08-0.07-0.16-0.11-0.23c-0.11-0.23-0.22-0.47-0.34-0.7
		c-0.13-0.26-0.26-0.53-0.39-0.79c-0.13-0.26-0.26-0.51-0.39-0.77c-0.14-0.27-0.28-0.54-0.42-0.81c-0.26-0.48-0.51-0.96-0.78-1.44
		c-0.17-0.31-0.34-0.61-0.52-0.92c-0.09-0.16-0.18-0.31-0.27-0.47c-0.06-0.11-0.13-0.22-0.19-0.33c-0.1-0.16-0.19-0.33-0.29-0.49
		c-0.06-0.1-0.12-0.2-0.18-0.31c-0.09-0.15-0.18-0.29-0.27-0.44c-0.08-0.13-0.15-0.25-0.23-0.38c-0.1-0.16-0.2-0.32-0.3-0.48
		c-0.02-0.04-0.05-0.07-0.07-0.11c-0.14-0.22-0.28-0.44-0.42-0.66c-0.48-0.74-0.96-1.47-1.46-2.19c-0.12-0.17-0.24-0.34-0.36-0.51
		c-0.06-0.09-0.12-0.17-0.18-0.25c-0.1-0.15-0.21-0.29-0.31-0.44c-0.09-0.12-0.17-0.24-0.26-0.36c-0.08-0.11-0.15-0.21-0.23-0.32
		c-0.15-0.2-0.3-0.4-0.45-0.6c-0.01-0.02-0.02-0.03-0.03-0.04c-0.14-0.2-0.29-0.39-0.44-0.58c-0.09-0.12-0.18-0.23-0.27-0.35
		c-0.37-0.48-0.74-0.95-1.12-1.42c-0.36-0.45-0.73-0.89-1.1-1.33c-0.01-0.01-0.01-0.02-0.02-0.02c-0.13-0.16-0.27-0.31-0.4-0.47
		c-0.08-0.09-0.16-0.19-0.24-0.28c-0.13-0.15-0.26-0.3-0.39-0.45c-0.05-0.07-0.11-0.13-0.17-0.19c-0.12-0.14-0.25-0.28-0.37-0.42
		c-0.11-0.12-0.22-0.24-0.32-0.36c-0.11-0.12-0.22-0.24-0.33-0.36c-0.03-0.03-0.06-0.06-0.09-0.09c-0.06-0.06-0.11-0.12-0.17-0.18
		c-0.12-0.13-0.25-0.27-0.38-0.4c-0.2-0.21-0.4-0.43-0.6-0.64c-0.2-0.2-0.39-0.41-0.59-0.61c-0.25-0.26-0.51-0.52-0.77-0.78v0
		c-0.19-0.19-0.38-0.38-0.58-0.57c-0.15-0.15-0.3-0.29-0.45-0.44c-0.16-0.16-0.33-0.32-0.49-0.47c-0.08-0.08-0.17-0.16-0.25-0.24
		c-0.17-0.16-0.33-0.31-0.5-0.47c-0.17-0.16-0.35-0.32-0.52-0.48c-0.04-0.04-0.09-0.08-0.13-0.12c-0.17-0.16-0.35-0.31-0.52-0.47
		c-0.15-0.13-0.3-0.26-0.44-0.39c-0.09-0.07-0.17-0.15-0.25-0.22c-0.14-0.13-0.29-0.25-0.43-0.37c-0.17-0.15-0.34-0.29-0.51-0.43
		c-0.04-0.04-0.09-0.07-0.13-0.11c-0.21-0.18-0.42-0.35-0.63-0.53c-0.77-0.64-1.56-1.26-2.36-1.87c-0.19-0.14-0.37-0.29-0.56-0.42
		c-0.09-0.07-0.18-0.14-0.27-0.2c-0.14-0.11-0.29-0.22-0.43-0.32c-0.14-0.1-0.27-0.2-0.41-0.3c-0.14-0.1-0.27-0.2-0.41-0.3
		c-0.14-0.1-0.29-0.2-0.43-0.31c-0.14-0.1-0.28-0.2-0.42-0.3c-0.15-0.11-0.31-0.22-0.47-0.32c-0.12-0.08-0.24-0.17-0.37-0.25
		c-0.18-0.13-0.37-0.25-0.55-0.37c-0.08-0.06-0.17-0.11-0.25-0.17c-0.23-0.15-0.46-0.3-0.69-0.45c-0.04-0.03-0.09-0.06-0.13-0.09
		c-0.05-0.08-0.1-0.15-0.15-0.23c4.97,3.18,9.59,6.9,13.82,11.12c0.82,0.82,1.63,1.66,2.41,2.51c6.4,6.95,11.51,14.87,15.21,23.59
		C275.36,105.06,275.45,105.27,275.53,105.47z"/>
	<path d="M196.75,85.42c0.02,0.02,0.05,0.03,0.07,0.04c-0.01,0-0.01-0.01-0.02-0.01C196.78,85.44,196.77,85.43,196.75,85.42z"/>
	<path d="M196.86,85.48c0.01,0,0.02,0.01,0.02,0.01C196.87,85.49,196.87,85.49,196.86,85.48c-0.01-0.01-0.02-0.01-0.04-0.02
		C196.83,85.47,196.85,85.48,196.86,85.48z"/>
	<path d="M197.35,85.76c-0.03-0.02-0.06-0.03-0.09-0.05c-0.01-0.01-0.02-0.01-0.03-0.02c0.01,0.01,0.02,0.01,0.03,0.02
		C197.29,85.72,197.32,85.74,197.35,85.76z"/>
	<path d="M205.86,87.86c-0.01,0-0.03,0-0.04,0l0.02,0L205.86,87.86z"/>
	<path d="M208.44,88.26c0,0-0.01,0-0.01,0c-0.03-0.01-0.07-0.01-0.1-0.02c0.03,0.01,0.06,0.01,0.1,0.02L208.44,88.26z"/>
	<path d="M208.96,88.36l-0.11-0.02l-0.08-0.02c0.03,0,0.06,0.01,0.08,0.02L208.96,88.36z"/>
	<polygon points="210.86,88.76 210.83,88.76 210.77,88.74 210.82,88.75 	"/>
	<path d="M214.95,89.91c-0.02,0-0.03-0.01-0.04-0.01l0.03,0.01C214.94,89.91,214.95,89.91,214.95,89.91z"/>
	<path d="M216.97,90.63c-0.01,0-0.02-0.01-0.03-0.01l-0.01-0.01L216.97,90.63z"/>
	<path d="M217.49,90.83c-0.02-0.01-0.04-0.02-0.06-0.02c-0.02-0.01-0.04-0.02-0.06-0.02C217.41,90.79,217.45,90.81,217.49,90.83z"/>
	<path d="M222.02,92.86c-0.18-0.09-0.36-0.18-0.55-0.27c0.05,0.02,0.09,0.05,0.14,0.07C221.75,92.72,221.89,92.79,222.02,92.86z"/>
	<path d="M222.47,93.09c-0.14-0.08-0.29-0.15-0.44-0.23c0,0-0.01,0-0.01-0.01c0,0,0.01,0,0.01,0c0.12,0.06,0.24,0.12,0.35,0.18
		C222.41,93.06,222.44,93.08,222.47,93.09z"/>
	<path d="M222.74,93.23c-0.09-0.05-0.18-0.1-0.27-0.14c0.02,0.01,0.03,0.02,0.05,0.02C222.59,93.15,222.66,93.19,222.74,93.23z"/>
	<path d="M201.32,97.38l0.24,0.23c-0.68-0.56-1.21-1.27-1.55-2.09c-0.07-0.15-0.12-0.31-0.17-0.47c0.05,0.16,0.11,0.32,0.18,0.47
		C200.3,96.21,200.75,96.84,201.32,97.38z"/>
	<path d="M242.6,125.39c0.07-0.03,0.15-0.07,0.22-0.11c-0.03,0.02-0.06,0.03-0.09,0.05C242.69,125.35,242.65,125.37,242.6,125.39z"
		/>
	<path d="M243.17,125.07c0.16-0.1,0.31-0.21,0.46-0.33c-0.25,0.2-0.52,0.38-0.81,0.54c0.11-0.06,0.22-0.13,0.33-0.19c0,0,0,0,0,0
		C243.16,125.08,243.16,125.07,243.17,125.07z"/>
	<path d="M243.79,124.61c0.05-0.04,0.1-0.08,0.14-0.13c-0.1,0.09-0.2,0.18-0.3,0.26c0.05-0.04,0.1-0.08,0.15-0.12
		C243.78,124.61,243.79,124.61,243.79,124.61z"/>
	<path d="M244.13,124.29c-0.06,0.07-0.13,0.13-0.2,0.19c0.05-0.04,0.09-0.09,0.14-0.13C244.09,124.33,244.11,124.31,244.13,124.29z"
		/>
	<path d="M247.02,123.01c0.02,0.07,0.04,0.14,0.06,0.2l0,0C247.06,123.14,247.04,123.07,247.02,123.01z"/>
	<path d="M247.11,123.31l-0.01-0.02l-0.01-0.03l0,0l-0.01-0.02l0-0.02c0,0.01,0,0.01,0.01,0.02L247.11,123.31z"/>
	<path d="M188.89,73.66c0.04,0.24,0.07,0.49,0.12,0.73C188.97,74.15,188.93,73.9,188.89,73.66z M191.05,62.97
		c0,0.01-0.01,0.02-0.01,0.02C191.04,62.99,191.05,62.98,191.05,62.97L191.05,62.97z M275.46,131.31c-0.03,0.03-0.06,0.06-0.09,0.09
		c-0.06,0.07-0.11,0.13-0.17,0.19c-0.06,0.06-0.12,0.13-0.18,0.19c-0.04,0.04-0.07,0.08-0.11,0.12c-0.05,0.05-0.1,0.1-0.15,0.15
		c-0.04,0.04-0.09,0.09-0.13,0.13c0,0-0.01,0.01-0.01,0.01c-0.03,0.03-0.07,0.07-0.1,0.1c0,0,0,0,0,0c0,0.01-0.01,0.01-0.01,0.01
		l0,0l0,0c0,0,0,0,0,0c0,0,0,0,0,0c0.01,0.01,0.02,0.02,0.04,0.03c0.15,0.15,0.31,0.29,0.47,0.43c0.07,0.06,0.14,0.12,0.22,0.18
		c0.1,0.09,0.21,0.17,0.31,0.26v-1.98C275.51,131.25,275.48,131.28,275.46,131.31z M274.49,132.31
		C274.49,132.31,274.49,132.32,274.49,132.31L274.49,132.31C274.49,132.32,274.49,132.31,274.49,132.31L274.49,132.31z
		 M274.47,132.33c0,0-0.01,0.01-0.01,0.01C274.47,132.34,274.47,132.33,274.47,132.33C274.47,132.33,274.47,132.33,274.47,132.33z
		 M263.25,115.08v10.85h0L263.25,115.08z"/>
	<path d="M220.03,118.52c0.09,0.55,0.13,1.11,0.13,1.69c0,1.87-0.48,3.64-1.33,5.17l-0.01,0.01l-0.17,0.29
		c-0.55,0.92-1.22,1.74-1.98,2.44c-0.07,0.06-0.14,0.13-0.21,0.19c-0.07,0.06-0.13,0.11-0.2,0.17c-0.07,0.05-0.13,0.11-0.2,0.16
		c-0.13,0.11-0.27,0.21-0.41,0.31c-0.14,0.1-0.28,0.2-0.43,0.29c-0.07,0.05-0.15,0.09-0.22,0.14c-0.07,0.04-0.15,0.09-0.22,0.13
		c-0.52,0.3-1.08,0.56-1.65,0.77c-0.07,0.03-0.15,0.05-0.22,0.08c-0.09,0.03-0.18,0.06-0.27,0.09c-0.08,0.03-0.17,0.05-0.25,0.08
		c-0.17,0.05-0.34,0.09-0.51,0.13c-0.07,0.02-0.14,0.03-0.21,0.05c-0.01,0-0.02,0-0.04,0.01c0,0-0.01,0-0.02,0
		c-0.08,0.02-0.16,0.03-0.24,0.04c-0.01,0-0.02,0-0.03,0c-0.09,0.02-0.17,0.03-0.26,0.04c-0.18,0.03-0.36,0.05-0.54,0.07
		c-0.04,0-0.08,0.01-0.12,0.01c-0.01,0-0.02,0-0.02,0c-0.06,0.01-0.12,0.01-0.19,0.02c-0.01,0-0.02,0-0.03,0c-0.02,0-0.04,0-0.06,0
		c-0.11,0.01-0.21,0.01-0.32,0.02c0,0,0,0,0,0c-0.05,0-0.1,0-0.15,0c-0.07,0-0.14,0-0.21,0c-0.08,0-0.16,0-0.24,0
		c-0.06,0-0.13,0-0.19-0.01c-0.06,0-0.11,0-0.17-0.01c-0.07,0-0.14-0.01-0.21-0.01c-0.01,0-0.03,0-0.04,0
		c-0.05,0-0.1-0.01-0.15-0.01c0,0,0,0-0.01,0h0c0,0-0.01,0-0.02,0c0,0-0.01,0-0.02,0c-0.01,0-0.02,0-0.03,0
		c-0.04,0-0.08-0.01-0.12-0.01c-0.06-0.01-0.12-0.01-0.18-0.02c-0.09-0.01-0.18-0.02-0.27-0.04c-0.09-0.01-0.18-0.03-0.27-0.04
		c-0.18-0.03-0.35-0.07-0.52-0.11c-0.09-0.02-0.17-0.04-0.26-0.06c-0.17-0.04-0.34-0.09-0.51-0.14c0,0,0,0,0,0
		c-0.06-0.02-0.11-0.03-0.17-0.05c-0.01,0-0.01,0-0.02-0.01c-0.05-0.02-0.09-0.03-0.14-0.05c-0.09-0.03-0.18-0.06-0.27-0.1
		c-0.03-0.01-0.06-0.02-0.09-0.04c-0.2-0.08-0.4-0.16-0.59-0.25c-0.21-0.09-0.41-0.2-0.61-0.3c-0.14-0.07-0.27-0.15-0.41-0.23
		c-0.13-0.08-0.27-0.16-0.4-0.25c-1.75-1.15-3.14-2.81-3.98-4.75c-0.03-0.07-0.06-0.15-0.09-0.22c-0.02-0.04-0.04-0.09-0.05-0.13
		c-0.01-0.02-0.02-0.05-0.03-0.07c-0.01-0.04-0.03-0.08-0.04-0.11c-0.02-0.05-0.04-0.11-0.06-0.16c-0.02-0.05-0.04-0.11-0.05-0.16
		c-0.07-0.22-0.14-0.44-0.2-0.66c-0.02-0.09-0.04-0.17-0.06-0.26c-0.04-0.17-0.07-0.35-0.11-0.52c-0.02-0.09-0.03-0.18-0.04-0.27
		c-0.01-0.09-0.03-0.18-0.04-0.27c-0.01-0.09-0.02-0.19-0.03-0.29c-0.01-0.08-0.02-0.16-0.02-0.24c0-0.01,0-0.02,0-0.03
		c0-0.07-0.01-0.14-0.01-0.22c0-0.06-0.01-0.11-0.01-0.17c0-0.06,0-0.12-0.01-0.18c0-0.08,0-0.16,0-0.24c0-0.09,0-0.17,0-0.26
		c0-0.06,0-0.13,0.01-0.19c0-0.06,0-0.12,0.01-0.18c0-0.06,0.01-0.11,0.01-0.17c0-0.07,0.01-0.14,0.02-0.21
		c0-0.05,0.01-0.1,0.01-0.14c0-0.05,0.01-0.1,0.02-0.14c0.01-0.08,0.02-0.17,0.03-0.25c0.01-0.09,0.03-0.17,0.04-0.25
		c0.01-0.08,0.03-0.17,0.04-0.25c0.01-0.04,0.02-0.08,0.02-0.12c0.01-0.04,0.02-0.08,0.03-0.13c0.02-0.08,0.04-0.16,0.06-0.24
		c0,0,0,0,0,0c0.02-0.08,0.04-0.16,0.06-0.25c0.02-0.08,0.04-0.16,0.07-0.24c0.02-0.05,0.03-0.1,0.05-0.15
		c0.02-0.06,0.04-0.12,0.06-0.18c0.5-1.5,1.33-2.88,2.45-4.04l0.3-0.31l0,0l0,0l0,0l0.01-0.01c1.08-1.04,2.38-1.85,3.82-2.36
		c1.12-0.4,2.33-0.62,3.58-0.62C214.79,109.49,219.22,113.4,220.03,118.52z"/>
	<path d="M245.34,118.52c0.24,0.65,0.36,1.3,0.36,1.94c0,1.13-0.36,2.22-0.98,3.12c-0.15,0.22-0.32,0.43-0.5,0.62
		c0,0,0,0.01-0.01,0.01c-0.02,0.03-0.05,0.05-0.08,0.08c-0.02,0.02-0.04,0.04-0.06,0.06c-0.04,0.05-0.09,0.09-0.14,0.13
		c-0.05,0.04-0.09,0.09-0.14,0.13c0,0-0.01,0.01-0.01,0.01c-0.05,0.04-0.1,0.08-0.15,0.12c-0.15,0.12-0.3,0.23-0.46,0.33
		c0,0-0.01,0.01-0.01,0.01c0,0,0,0,0,0c-0.11,0.07-0.22,0.13-0.33,0.19c0,0,0,0,0,0c-0.03,0.02-0.06,0.03-0.09,0.05
		c-0.04,0.02-0.08,0.04-0.12,0.06c-0.04,0.02-0.08,0.04-0.13,0.06c-0.07,0.03-0.14,0.06-0.21,0.09c-0.05,0.02-0.11,0.04-0.16,0.06
		l-0.02,0c-0.04,0.01-0.07,0.03-0.11,0.04c-0.04,0.01-0.08,0.03-0.11,0.04l-0.07,0.02c-0.02,0.01-0.05,0.01-0.07,0.02l-0.01,0
		c-0.05,0.02-0.11,0.03-0.16,0.04l-0.19,0.04c-0.07,0.01-0.14,0.03-0.2,0.04c-0.04,0.01-0.09,0.01-0.13,0.02
		c-0.05,0.01-0.11,0.02-0.16,0.02c-0.02,0-0.05,0.01-0.07,0.01c-0.05,0.01-0.11,0.01-0.16,0.01c-0.03,0-0.06,0-0.09,0.01
		c-0.1,0.01-0.21,0.01-0.31,0.01c-0.06,0-0.12,0-0.17,0c-0.03,0-0.05,0-0.08,0c-0.12,0-0.24-0.01-0.36-0.03
		c-0.07-0.01-0.13-0.02-0.2-0.03c-0.07-0.01-0.13-0.02-0.2-0.03c-0.07-0.01-0.13-0.02-0.2-0.04c-1.7-0.38-3.15-1.56-3.83-3.21
		c-0.08-0.19-0.15-0.38-0.24-0.57c-0.06-0.14-0.12-0.29-0.18-0.43c-0.05-0.11-0.1-0.22-0.15-0.34c-0.01-0.02-0.01-0.03-0.02-0.05
		c-0.06-0.14-0.12-0.27-0.19-0.41c-0.21-0.45-0.42-0.89-0.65-1.33c-0.04-0.09-0.09-0.18-0.14-0.27c-0.07-0.14-0.15-0.29-0.22-0.43
		c-0.05-0.1-0.11-0.2-0.16-0.3c-0.04-0.07-0.08-0.15-0.12-0.22c-0.08-0.15-0.16-0.3-0.25-0.44c-0.09-0.16-0.19-0.33-0.29-0.49
		c-0.01-0.02-0.02-0.04-0.04-0.06c-0.09-0.15-0.18-0.29-0.27-0.43c-0.02-0.03-0.03-0.06-0.05-0.09c-0.07-0.1-0.13-0.21-0.2-0.31
		c-0.04-0.07-0.09-0.14-0.13-0.21c-0.28-0.44-0.58-0.88-0.88-1.31c-0.05-0.07-0.09-0.13-0.14-0.2c-0.07-0.1-0.15-0.2-0.22-0.31
		c-0.03-0.04-0.06-0.08-0.08-0.11c-0.06-0.09-0.13-0.17-0.19-0.26c-0.05-0.07-0.11-0.15-0.16-0.22c-0.09-0.12-0.18-0.23-0.27-0.35
		c-2.84-8.6-10.95-14.81-20.48-14.81c-1.33,0-2.64,0.12-3.91,0.35c0,0,0,0,0,0c-0.11-0.02-0.23-0.04-0.35-0.05
		c-0.26-0.04-0.52-0.07-0.79-0.11c-1.07-0.13-2.04-0.57-2.82-1.22c-0.01,0-0.01-0.01-0.02-0.01l-0.24-0.23
		c-0.57-0.54-1.01-1.17-1.31-1.86c-0.07-0.15-0.12-0.31-0.18-0.47c-0.02-0.04-0.03-0.09-0.04-0.13c0-0.01-0.01-0.02-0.01-0.04
		c-0.02-0.05-0.03-0.11-0.04-0.16c-0.02-0.07-0.03-0.13-0.04-0.2c-0.01-0.04-0.02-0.09-0.03-0.14c-0.01-0.04-0.02-0.09-0.02-0.14
		c-0.01-0.04-0.01-0.08-0.02-0.11c-0.01-0.05-0.01-0.11-0.02-0.16c0-0.03-0.01-0.06-0.01-0.08c-0.01-0.07-0.01-0.13-0.01-0.2
		c0-0.02,0-0.03,0-0.05c0-0.08-0.01-0.15-0.01-0.23v-0.01c0-0.04,0-0.08,0-0.12c0-0.02,0-0.04,0-0.06c0-0.02,0-0.04,0-0.06
		c0-0.03,0-0.05,0-0.08c0-0.06,0.01-0.12,0.01-0.17c0.01-0.09,0.02-0.17,0.03-0.25c0.01-0.04,0.01-0.07,0.02-0.11
		c0.01-0.06,0.02-0.12,0.03-0.18c0.01-0.07,0.03-0.14,0.04-0.2c0.02-0.08,0.04-0.16,0.06-0.23c0.02-0.08,0.04-0.15,0.07-0.22
		c0.02-0.07,0.05-0.15,0.08-0.22c0.06-0.15,0.12-0.3,0.19-0.45c0.02-0.04,0.04-0.09,0.07-0.13c0.05-0.09,0.09-0.18,0.14-0.26
		c0.08-0.13,0.16-0.25,0.24-0.37c0.06-0.08,0.12-0.16,0.18-0.24c0.06-0.08,0.12-0.15,0.19-0.23c0.02-0.03,0.04-0.05,0.07-0.08
		l1.96-2.14c0.23,0.03,0.46,0.05,0.69,0.07c0.07,0.01,0.14,0.01,0.21,0.02l0.19,0.02c0.11,0.01,0.22,0.02,0.33,0.03l0.04,0
		l0.22,0.02c0.17,0.02,0.34,0.04,0.51,0.05c0.16,0.02,0.32,0.04,0.47,0.06l0.12,0.02c0.02,0,0.04,0,0.06,0.01c0.01,0,0.03,0,0.04,0
		l0.06,0.01l0.11,0.02l0.09,0.01l0.13,0.02l0.05,0.01l0.25,0.03c0.07,0.01,0.15,0.02,0.22,0.03l0.08,0.01c0,0,0.19,0.03,0.21,0.03
		c0.02,0,0.11,0.02,0.11,0.02l0.11,0.02c0.24,0.04,0.49,0.08,0.73,0.12l0.1,0.02c0.07,0.01,0.14,0.02,0.21,0.04
		c0.03,0.01,0.07,0.01,0.1,0.02c0,0,0.01,0,0.01,0l0.02,0l0.1,0.02l0.12,0.02c0.03,0.01,0.06,0.01,0.09,0.02l0.08,0.02l0.1,0.02
		l0.13,0.02l0.08,0.02l0.11,0.02c0.06,0.01,0.12,0.02,0.17,0.03l0.02,0c0.37,0.07,0.68,0.14,0.96,0.2l0.08,0.02
		c0.06,0.01,0.12,0.03,0.18,0.04l0.07,0.02l0.01,0l0.06,0.02l0.03,0.01l0.02,0l0.17,0.04l0.13,0.03l0.11,0.03l0.14,0.03l0.17,0.04
		l0.08,0.02l0.12,0.03l0.11,0.03c0.18,0.05,0.35,0.09,0.52,0.14l0.08,0.02l0.08,0.02c0.08,0.02,0.16,0.04,0.24,0.07l0.12,0.03
		l0.14,0.04c0.1,0.03,0.19,0.05,0.29,0.08l0.11,0.03l0.07,0.02l0.06,0.02c0.06,0.02,0.12,0.04,0.18,0.05l0.21,0.07l0.11,0.03
		l0.05,0.02c0.21,0.06,0.42,0.13,0.62,0.2l0.07,0.02c0,0,0.01,0,0.02,0.01c0.01,0,0.02,0.01,0.04,0.01
		c0.03,0.01,0.06,0.02,0.07,0.02l0.05,0.02l0.37,0.12c0.1,0.03,0.2,0.07,0.3,0.1l0.09,0.03l0.07,0.02l0.14,0.05l0.13,0.05l0.21,0.07
		l0.1,0.04l0.13,0.05l0.16,0.06c0.06,0.02,0.11,0.04,0.17,0.06c0.01,0,0.02,0.01,0.03,0.01l0.01,0l0.45,0.17l0.09,0.03l0.02,0
		c0,0,0.19,0.08,0.19,0.08c0.1,0.04,0.21,0.08,0.31,0.13l0.12,0.05l0.13,0.05c0.14,0.06,0.29,0.12,0.43,0.18l0.04,0.02
		c0.87,0.37,1.72,0.76,2.56,1.17c0.05,0.02,0.1,0.05,0.14,0.07c0.18,0.09,0.36,0.18,0.55,0.27c0,0,0.01,0,0.01,0.01
		c0.15,0.07,0.29,0.15,0.44,0.23c0.09,0.05,0.18,0.09,0.27,0.14c1.33,0.7,2.62,1.47,3.87,2.29h-0.21c0.03,0.02,0.05,0.03,0.08,0.05
		c0.34,0.22,0.68,0.45,1.01,0.68c0.11,0.07,0.22,0.15,0.33,0.23c0.22,0.15,0.44,0.31,0.66,0.47c0.1,0.07,0.19,0.14,0.29,0.21
		c0.02,0.01,0.03,0.03,0.05,0.04c0.1,0.08,0.21,0.15,0.31,0.23c0.32,0.24,0.64,0.49,0.96,0.74c0.11,0.08,0.21,0.17,0.32,0.25
		c0.1,0.08,0.2,0.17,0.31,0.25c0.13,0.11,0.27,0.22,0.4,0.33c0.08,0.06,0.15,0.13,0.23,0.19c0.1,0.09,0.2,0.17,0.31,0.26
		c0.1,0.09,0.2,0.18,0.31,0.27c0.09,0.08,0.19,0.16,0.28,0.24c0.02,0.02,0.05,0.04,0.07,0.06c0.09,0.07,0.17,0.15,0.26,0.23
		c0.3,0.27,0.6,0.55,0.89,0.82c0.1,0.09,0.2,0.19,0.29,0.28c0.1,0.09,0.19,0.19,0.29,0.28c0.1,0.09,0.19,0.19,0.29,0.28
		c0.09,0.09,0.19,0.19,0.29,0.29c0.05,0.05,0.11,0.11,0.16,0.16c0.09,0.1,0.19,0.19,0.28,0.29c0.33,0.34,0.65,0.69,0.97,1.04
		c0.09,0.09,0.17,0.19,0.25,0.28c0.36,0.4,0.71,0.81,1.06,1.22c0.07,0.09,0.14,0.17,0.21,0.26c0.36,0.43,0.71,0.87,1.06,1.32
		c0.08,0.11,0.16,0.21,0.25,0.32c0.08,0.11,0.16,0.22,0.24,0.32c0.3,0.4,0.59,0.8,0.88,1.21c0.08,0.11,0.16,0.22,0.24,0.34
		c0.05,0.07,0.09,0.14,0.14,0.2c0.13,0.19,0.26,0.38,0.38,0.57c0.05,0.08,0.1,0.15,0.15,0.23c0.15,0.24,0.31,0.48,0.46,0.71
		c0.09,0.14,0.18,0.28,0.26,0.42c0.07,0.11,0.14,0.23,0.21,0.35c0.07,0.11,0.14,0.23,0.21,0.34c0,0,0,0.01,0.01,0.01
		c0.07,0.11,0.13,0.23,0.2,0.34c0.27,0.47,0.54,0.94,0.8,1.42c0.06,0.11,0.12,0.23,0.18,0.34c0.22,0.41,0.43,0.83,0.64,1.25
		c0.06,0.12,0.12,0.24,0.18,0.36c0.15,0.32,0.31,0.65,0.46,0.97c0.06,0.12,0.11,0.25,0.17,0.37c0.22,0.5,0.44,1.01,0.65,1.52
		C245.31,118.43,245.33,118.47,245.34,118.52z"/>
	<path d="M268.57,119.12c0.52,2.03-0.18,4.03-1.56,5.33c0,0,0,0-0.01,0.01l-0.23,0.2c-0.02,0.02-0.04,0.03-0.06,0.05
		c-0.76,0.62-1.7,1.04-2.74,1.18c0,0-0.01,0-0.01,0c-0.05,0.01-0.11,0.01-0.16,0.02c-0.04,0-0.07,0.01-0.11,0.01
		c-0.05,0-0.09,0.01-0.14,0.01c-0.1,0-0.19,0.01-0.29,0.01h0l0-10.85v10.85c-0.07,0-0.13,0-0.2,0h-0.03l-0.04,0l-0.03,0h-0.01
		c-0.06,0-0.12-0.01-0.18-0.01h0l-0.02,0l-0.08,0c0,0,0,0-0.01,0c-0.02,0-0.04,0-0.07-0.01c-0.03,0-0.07-0.01-0.1-0.01l-0.21-0.03
		c-0.12-0.02-0.24-0.05-0.36-0.08c-0.02,0-0.04-0.01-0.06-0.02c-0.03-0.01-0.07-0.02-0.1-0.03l-0.12-0.03l-0.04-0.02l-0.07-0.02
		l-0.09-0.03c-0.03-0.01-0.06-0.02-0.09-0.03c-0.03-0.01-0.07-0.02-0.11-0.04c-0.02-0.01-0.03-0.01-0.05-0.02
		c-0.04-0.01-0.07-0.03-0.11-0.05c-0.02-0.01-0.04-0.02-0.06-0.03c-0.1-0.04-0.19-0.09-0.28-0.14c-0.02-0.01-0.04-0.02-0.06-0.03
		c-0.04-0.02-0.09-0.04-0.13-0.07c-0.04-0.02-0.08-0.05-0.12-0.07l-0.09-0.05c0,0-0.04-0.02-0.07-0.04
		c-0.07-0.05-0.15-0.09-0.22-0.15c-0.04-0.03-0.08-0.06-0.12-0.09c-0.04-0.03-0.07-0.05-0.11-0.08c0,0-0.01-0.01-0.02-0.01
		c-0.02-0.02-0.05-0.04-0.07-0.06c-0.06-0.05-0.12-0.1-0.17-0.15c-0.02-0.02-0.04-0.04-0.06-0.06c0,0-0.01-0.01-0.01-0.01
		c0,0-0.01-0.01-0.01-0.01c-0.03-0.03-0.07-0.06-0.1-0.09c-0.02-0.01-0.03-0.03-0.05-0.05c-0.66-0.67-1.16-1.53-1.41-2.49
		c-0.01-0.02-0.01-0.05-0.02-0.07c-0.03-0.13-0.07-0.27-0.11-0.4c-0.05-0.2-0.11-0.4-0.16-0.6c-0.05-0.17-0.09-0.33-0.14-0.5
		c-0.11-0.39-0.23-0.77-0.35-1.16c-0.05-0.15-0.1-0.31-0.15-0.46c-0.05-0.18-0.11-0.35-0.17-0.53c-0.05-0.15-0.1-0.31-0.15-0.46
		c-0.07-0.21-0.15-0.43-0.22-0.64c-0.05-0.16-0.11-0.31-0.17-0.47c-0.05-0.14-0.1-0.29-0.16-0.43c-0.08-0.22-0.16-0.43-0.24-0.65
		c-0.06-0.16-0.12-0.32-0.18-0.48c-0.2-0.52-0.41-1.03-0.63-1.55c-2.82-6.64-6.75-12.65-11.71-17.89c-0.4-0.42-0.81-0.84-1.22-1.26
		c-3.76-3.76-7.95-6.97-12.49-9.59c-2.14-1.24-4.37-2.34-6.68-3.32c-0.21-0.09-0.43-0.18-0.64-0.27c-0.07-0.03-0.14-0.06-0.21-0.09
		c-0.14-0.06-0.27-0.11-0.41-0.16c-0.08-0.03-0.15-0.06-0.23-0.09c-0.19-0.07-0.37-0.14-0.55-0.21c-0.02-0.01-0.04-0.02-0.07-0.02
		c-0.16-0.06-0.31-0.12-0.47-0.18c-0.06-0.02-0.13-0.05-0.19-0.07c-0.11-0.04-0.22-0.08-0.33-0.12c-0.1-0.04-0.21-0.08-0.31-0.11
		c-0.08-0.03-0.16-0.06-0.24-0.08c-0.18-0.06-0.35-0.12-0.53-0.18c-0.03-0.01-0.05-0.02-0.08-0.03c-0.17-0.06-0.34-0.11-0.5-0.17
		c-0.28-0.09-0.55-0.18-0.83-0.27c-0.1-0.03-0.19-0.06-0.29-0.09c-0.14-0.04-0.28-0.09-0.43-0.13c-0.06-0.02-0.13-0.04-0.19-0.05
		c-0.14-0.04-0.28-0.08-0.42-0.12c-0.09-0.03-0.18-0.05-0.27-0.08c-0.15-0.04-0.3-0.08-0.44-0.12c-0.27-0.08-0.54-0.15-0.81-0.22
		c-0.12-0.03-0.24-0.06-0.36-0.09c-0.11-0.03-0.22-0.06-0.33-0.08c-0.1-0.03-0.2-0.05-0.3-0.07c-0.1-0.03-0.2-0.05-0.3-0.07
		c-0.14-0.03-0.28-0.07-0.42-0.1c-0.4-0.09-0.8-0.18-1.21-0.26c-0.11-0.02-0.21-0.04-0.32-0.06c-0.11-0.02-0.22-0.04-0.33-0.06
		c-0.14-0.03-0.28-0.06-0.42-0.08c-0.04-0.01-0.08-0.02-0.12-0.02c-0.17-0.03-0.35-0.06-0.52-0.09c-0.34-0.06-0.68-0.12-1.02-0.17
		c-0.06-0.01-0.13-0.02-0.19-0.03c-0.09-0.01-0.18-0.03-0.27-0.04c-0.15-0.02-0.3-0.04-0.45-0.07c-0.11-0.02-0.23-0.03-0.34-0.05
		c-0.08-0.01-0.16-0.02-0.24-0.03c-0.13-0.02-0.27-0.04-0.4-0.05c-0.22-0.03-0.43-0.05-0.65-0.08c-0.23-0.02-0.46-0.05-0.68-0.07
		c-0.06-0.01-0.11-0.01-0.16-0.02c-0.18-0.02-0.37-0.04-0.55-0.05c-0.06-0.01-0.13-0.01-0.19-0.02c-0.06,0-0.11-0.01-0.17-0.02
		c-1.38-0.11-2.6-0.73-3.5-1.66c-0.09-0.09-0.17-0.18-0.25-0.28l-0.15-0.19c0-0.01-0.01-0.01-0.02-0.02
		c-0.02-0.03-0.04-0.05-0.06-0.08c-0.03-0.03-0.05-0.07-0.08-0.11l-0.07-0.11l-0.04-0.06c0,0,0,0,0,0
		c-0.02-0.04-0.05-0.08-0.07-0.12c-0.02-0.03-0.04-0.06-0.06-0.09c0,0,0,0,0,0c-0.03-0.06-0.07-0.12-0.1-0.18
		c-0.03-0.06-0.06-0.13-0.09-0.19c-0.03-0.06-0.05-0.11-0.08-0.17c-0.03-0.06-0.05-0.12-0.07-0.18c-0.03-0.08-0.06-0.16-0.09-0.24
		c-0.03-0.09-0.06-0.19-0.09-0.28c0,0,0-0.01,0-0.01c-0.01-0.02-0.01-0.05-0.02-0.07c-0.01-0.04-0.02-0.08-0.03-0.12
		c-0.02-0.08-0.04-0.17-0.06-0.25c0-0.02-0.01-0.05-0.01-0.07c-0.01-0.06-0.02-0.12-0.03-0.18c0-0.02,0-0.03-0.01-0.05
		c0-0.01,0-0.02,0-0.03c-0.01-0.1-0.02-0.21-0.03-0.31l0-0.07c0-0.01,0-0.02,0-0.04c0-0.1-0.01-0.19-0.01-0.29v-0.01
		c0-0.03,0-0.06,0-0.09l0-0.1c0-0.04,0-0.07,0-0.11c0-0.1,0.02-0.2,0.02-0.29c0,0,0,0,0-0.01v0c0-0.02,0-0.03,0.01-0.05
		c0-0.01,0-0.01,0-0.02l0.02-0.09l0.01-0.06c0.01-0.04,0.01-0.07,0.02-0.11c0-0.04,0.01-0.07,0.02-0.11
		c0.01-0.04,0.02-0.09,0.02-0.13c0.02-0.09,0.04-0.17,0.06-0.26c0-0.02,0.01-0.03,0.01-0.05c0.01-0.02,0.01-0.04,0.02-0.07
		l0.06-0.18c0-0.02,0.01-0.04,0.02-0.06c0-0.01,0.01-0.02,0.01-0.02c0-0.01,0.01-0.02,0.01-0.02l0.04-0.1c0-0.01,0-0.02,0.01-0.03
		c0-0.01,0.01-0.02,0.01-0.03c0.01-0.02,0.01-0.03,0.02-0.06c0-0.01,0.01-0.02,0.01-0.03c0.01-0.01,0.01-0.02,0.02-0.04l0.01-0.02
		c0-0.01,0.01-0.02,0.01-0.02c0,0,0,0,0,0l0,0l0.04-0.09c0.03-0.07,0.06-0.13,0.09-0.19c0.03-0.06,0.07-0.13,0.1-0.19l0.56-0.83
		l1.6-2.4c0.53,0.09,1.07,0.15,1.62,0.18l0.11,0.01l0.22,0.02l0.15,0.01l0.09,0.01l0.16,0.01l0.15,0.02l0.02,0l1.05,0.08
		c0.02,0,0.25,0.02,0.25,0.02c0.07,0.01,0.33,0.03,0.33,0.03c0.06,0,0.11,0.01,0.16,0.02l0.09,0.01l0.09,0.01
		c0.19,0.02,0.38,0.04,0.57,0.06l0.35,0.04l0.06,0c0.02,0,0.12,0.02,0.12,0.02l0.07,0.01c0.28,0.03,0.55,0.07,0.83,0.1l0.48,0.06
		c0.11,0.02,0.21,0.03,0.32,0.05l0.11,0.02l0.12,0.02c0.08,0.01,0.15,0.02,0.23,0.03l0.07,0.01c0.12,0.02,0.24,0.03,0.36,0.05
		l0.78,0.13c0.05,0.01,0.1,0.02,0.15,0.02l0.09,0.02c0.11,0.02,0.21,0.04,0.31,0.06l0.08,0.01l0.08,0.01
		c0.1,0.02,0.2,0.04,0.31,0.05l0.06,0.01c0.15,0.03,0.3,0.05,0.44,0.08l0.06,0.01c0.09,0.02,0.18,0.03,0.27,0.05l0.17,0.03
		c0.22,0.04,0.44,0.09,0.65,0.13l0.09,0.02l0.07,0.01l0.36,0.08l0.09,0.02c0.12,0.03,0.25,0.05,0.37,0.08l0.4,0.09
		c0.19,0.04,0.37,0.09,0.56,0.13l0.12,0.03c0.14,0.03,0.28,0.07,0.42,0.1l0.1,0.03l0.04,0.01l0.16,0.04
		c0.17,0.04,0.34,0.08,0.51,0.13c0.17,0.04,0.33,0.09,0.5,0.13l0.02,0.01l0.28,0.07c0.18,0.05,0.35,0.1,0.53,0.15l0.26,0.07
		c0.22,0.06,0.44,0.13,0.66,0.19l0.08,0.02c0.18,0.05,0.37,0.11,0.56,0.17l0.06,0.02c0.2,0.06,0.41,0.12,0.61,0.19l0.17,0.06
		l0.05,0.01c0.15,0.05,0.3,0.1,0.46,0.15l0.13,0.04c0.4,0.13,0.83,0.27,1.31,0.44c0.07,0.02,0.13,0.05,0.2,0.07
		c0.2,0.07,0.4,0.14,0.6,0.21c0.23,0.09,0.47,0.17,0.7,0.26c0.45,0.17,0.92,0.35,1.41,0.54c0.23,0.09,0.45,0.18,0.69,0.28l0.07,0.03
		c0.21,0.08,0.41,0.17,0.61,0.25l0.01,0.01c1.19,0.5,2.35,1.03,3.47,1.58c6.36,3.09,12.19,7.1,17.39,11.94H248
		c0.65,0.6,1.28,1.21,1.91,1.84c2.81,2.81,5.37,5.82,7.65,9.01c3.03,4.23,5.58,8.78,7.63,13.62c0.15,0.35,0.29,0.7,0.44,1.05
		c0.07,0.16,0.13,0.32,0.19,0.48c0.07,0.17,0.14,0.34,0.2,0.51c0.07,0.17,0.13,0.34,0.2,0.51c0.2,0.51,0.38,1.03,0.57,1.55
		c0.06,0.17,0.12,0.34,0.18,0.52c0.06,0.17,0.12,0.34,0.18,0.52c0.07,0.22,0.14,0.43,0.21,0.65c0.1,0.31,0.2,0.61,0.29,0.91
		c0.11,0.35,0.21,0.7,0.32,1.05c0.05,0.16,0.09,0.33,0.14,0.49c0.01,0.03,0.02,0.07,0.03,0.1c0.04,0.15,0.09,0.31,0.13,0.46
		C268.36,118.33,268.47,118.72,268.57,119.12z"/>
	<path d="M286.38,125.89c-0.22,0.03-0.44,0.04-0.66,0.04h-0.01c-1.18,0-2.28-0.38-3.18-1.02c0,0-0.01,0-0.01-0.01l-0.22-0.18
		c-0.12-0.09-0.23-0.19-0.35-0.3l-0.16-0.15c0,0,0,0,0,0c0,0,0,0,0,0c-0.73-0.75-1.25-1.71-1.45-2.8c-0.04-0.22-0.09-0.44-0.13-0.66
		c-0.03-0.13-0.05-0.27-0.08-0.4c-0.04-0.18-0.07-0.36-0.11-0.53c-0.05-0.22-0.1-0.44-0.15-0.67c-0.05-0.22-0.1-0.45-0.15-0.67
		c-0.06-0.26-0.12-0.52-0.18-0.78c-0.15-0.63-0.31-1.25-0.47-1.88c-0.05-0.2-0.11-0.4-0.16-0.6c-0.01-0.05-0.03-0.1-0.04-0.15
		c-0.11-0.4-0.22-0.8-0.34-1.2c0-0.02-0.01-0.03-0.01-0.05c-0.13-0.43-0.26-0.86-0.39-1.29c-0.13-0.43-0.27-0.85-0.41-1.28
		c-0.01-0.03-0.02-0.05-0.03-0.08c-0.05-0.16-0.1-0.31-0.15-0.46c-0.09-0.27-0.19-0.55-0.28-0.82c-0.07-0.2-0.14-0.4-0.21-0.6
		c-0.07-0.21-0.15-0.41-0.22-0.62c-0.01-0.02-0.01-0.04-0.02-0.06c-0.06-0.16-0.12-0.33-0.18-0.49c-0.26-0.71-0.54-1.41-0.82-2.11
		c-0.08-0.19-0.15-0.38-0.23-0.57c0-0.01-0.01-0.02-0.01-0.03c-0.09-0.2-0.17-0.41-0.26-0.61c-3.69-8.72-8.8-16.64-15.21-23.59
		c-0.78-0.85-1.59-1.69-2.41-2.51c-4.23-4.22-8.85-7.94-13.82-11.12c0.05,0.08,0.1,0.15,0.15,0.23c-0.1-0.07-0.21-0.13-0.31-0.2
		c-0.23-0.15-0.46-0.29-0.69-0.44c-0.06-0.04-0.11-0.07-0.17-0.11c-0.24-0.15-0.48-0.3-0.73-0.44c-0.02-0.01-0.03-0.02-0.04-0.03
		c-0.23-0.14-0.47-0.28-0.71-0.42c-0.08-0.05-0.16-0.1-0.24-0.14c-0.21-0.12-0.42-0.24-0.63-0.36c-0.07-0.04-0.14-0.08-0.21-0.12
		c-0.24-0.14-0.48-0.27-0.73-0.41c-0.02-0.01-0.04-0.02-0.06-0.03c-0.28-0.15-0.55-0.31-0.83-0.46c-0.01,0-0.02-0.01-0.02-0.01
		c-0.25-0.13-0.5-0.27-0.74-0.4c-0.49-0.26-0.98-0.51-1.48-0.76c-0.19-0.09-0.37-0.19-0.56-0.28c-0.19-0.09-0.38-0.18-0.56-0.28
		h0.25c-1.31-0.64-2.64-1.24-3.99-1.81c-0.27-0.11-0.54-0.23-0.81-0.33c-0.27-0.11-0.54-0.22-0.81-0.33
		c-0.54-0.21-1.08-0.42-1.62-0.63c-0.27-0.1-0.54-0.2-0.81-0.3c-0.25-0.09-0.5-0.18-0.75-0.27c-0.02-0.01-0.04-0.01-0.07-0.02
		c-0.54-0.19-1.09-0.38-1.64-0.55c-0.24-0.08-0.48-0.16-0.72-0.23c-0.03-0.01-0.07-0.02-0.1-0.03c-0.28-0.09-0.55-0.17-0.83-0.26
		c-0.23-0.07-0.47-0.14-0.7-0.21c-0.28-0.08-0.55-0.16-0.83-0.24c-0.09-0.02-0.18-0.05-0.26-0.07c-0.23-0.07-0.47-0.13-0.7-0.19
		c0,0-0.01,0-0.02,0c-0.27-0.07-0.55-0.14-0.82-0.22c-0.22-0.06-0.44-0.11-0.66-0.17c-0.09-0.02-0.18-0.04-0.26-0.07
		c-0.19-0.05-0.39-0.09-0.58-0.14c-0.25-0.06-0.49-0.12-0.74-0.17c-0.13-0.03-0.27-0.06-0.4-0.09c-0.19-0.04-0.38-0.08-0.56-0.12
		c-0.11-0.02-0.22-0.05-0.33-0.07c-0.09-0.02-0.18-0.04-0.27-0.05c-0.26-0.05-0.52-0.11-0.78-0.16c-0.04-0.01-0.08-0.02-0.12-0.02
		c-0.15-0.03-0.3-0.06-0.44-0.09c-0.18-0.03-0.36-0.07-0.54-0.1c-0.15-0.03-0.31-0.06-0.46-0.08c-0.17-0.03-0.33-0.06-0.5-0.09
		c-0.12-0.02-0.24-0.04-0.36-0.06c-0.1-0.02-0.21-0.03-0.31-0.05c-0.11-0.02-0.23-0.04-0.34-0.05c-0.19-0.03-0.37-0.06-0.56-0.09
		c-0.15-0.02-0.3-0.04-0.45-0.07c-0.17-0.03-0.34-0.05-0.51-0.07c-0.16-0.02-0.32-0.04-0.48-0.06c-0.02,0-0.04-0.01-0.06-0.01
		c-0.33-0.04-0.66-0.08-0.98-0.12c-0.02,0-0.04-0.01-0.07-0.01c-0.14-0.02-0.28-0.04-0.43-0.05c-0.03,0-0.05-0.01-0.08-0.01
		c-0.27-0.03-0.54-0.06-0.81-0.09c-0.14-0.02-0.27-0.03-0.41-0.04c-0.24-0.02-0.49-0.05-0.73-0.07c-0.01,0-0.02,0-0.04,0
		c-0.16-0.01-0.32-0.03-0.47-0.04c-0.18-0.02-0.36-0.03-0.54-0.04c-0.13-0.01-0.26-0.02-0.39-0.03c-0.11-0.01-0.22-0.02-0.33-0.02
		c-0.11-0.01-0.23-0.02-0.34-0.02c-1.89-0.12-3.5-1.19-4.39-2.73c-0.46-0.81-0.73-1.74-0.73-2.74v-0.01c0-3.16,2.66-5.65,5.81-5.46
		c0,0,0.01,0,0.02,0c0.01,0,0.01,0,0.02,0c0.39,0.02,0.78,0.05,1.16,0.08c0.19,0.02,0.39,0.03,0.58,0.04
		c0.17,0.01,0.34,0.03,0.51,0.04c0.22,0.02,0.43,0.04,0.65,0.06c0.17,0.02,0.34,0.03,0.51,0.05c0.42,0.04,0.83,0.09,1.25,0.13
		c0.18,0.02,0.37,0.04,0.55,0.06c0.15,0.02,0.3,0.04,0.46,0.06c0.22,0.03,0.44,0.06,0.66,0.09c0.1,0.01,0.2,0.02,0.3,0.04
		c0.1,0.01,0.2,0.03,0.31,0.04c0.17,0.02,0.33,0.05,0.5,0.07c0.15,0.02,0.3,0.04,0.45,0.07c0,0,0,0,0,0
		c0.61,0.09,1.22,0.19,1.83,0.29c0.16,0.03,0.32,0.06,0.48,0.08c0.16,0.03,0.32,0.06,0.48,0.09c0.16,0.03,0.32,0.06,0.48,0.09
		c0.16,0.03,0.32,0.06,0.48,0.09c0.32,0.06,0.64,0.12,0.96,0.19c0.32,0.07,0.64,0.13,0.96,0.2c0.32,0.07,0.64,0.14,0.95,0.21
		c0.16,0.04,0.32,0.07,0.48,0.11c0.48,0.11,0.95,0.22,1.43,0.34c0.16,0.04,0.32,0.08,0.47,0.12c0.16,0.04,0.32,0.08,0.47,0.12
		c0.16,0.04,0.31,0.08,0.47,0.12c0.31,0.08,0.63,0.17,0.94,0.26c0.16,0.04,0.31,0.09,0.47,0.13c0.3,0.09,0.6,0.17,0.9,0.26
		c0.17,0.05,0.34,0.1,0.51,0.15c0.29,0.09,0.58,0.17,0.87,0.26c0.33,0.1,0.67,0.21,1,0.31c0.15,0.05,0.31,0.1,0.47,0.15
		c0.15,0.05,0.31,0.1,0.47,0.15c0.62,0.2,1.24,0.42,1.86,0.64c0.15,0.05,0.31,0.11,0.46,0.17c0.17,0.06,0.33,0.12,0.5,0.18
		c0.14,0.05,0.28,0.1,0.42,0.16c0.35,0.13,0.7,0.27,1.05,0.4c0.15,0.06,0.3,0.11,0.44,0.17c0.36,0.14,0.72,0.29,1.08,0.44
		c0.15,0.06,0.29,0.12,0.43,0.18c0.22,0.09,0.43,0.18,0.65,0.27c0.81,0.34,1.61,0.69,2.41,1.06c4.58,2.09,8.96,4.53,13.11,7.3
		c0,0,0,0,0,0c5.04,3.37,9.75,7.23,14.09,11.57c8.55,8.53,15.26,18.49,19.96,29.58c0.1,0.24,0.21,0.49,0.31,0.74l0.03,0.07
		c0.09,0.21,0.17,0.42,0.26,0.63c0.14,0.35,0.29,0.71,0.42,1.06c0.09,0.23,0.18,0.46,0.27,0.69c0.08,0.2,0.15,0.4,0.23,0.6
		c0.01,0.03,0.02,0.06,0.03,0.09c0.09,0.25,0.19,0.5,0.28,0.75c0.11,0.29,0.21,0.58,0.31,0.88c0.06,0.17,0.12,0.34,0.18,0.51
		c0.04,0.1,0.07,0.2,0.11,0.31c0.17,0.49,0.33,0.99,0.49,1.49c0.07,0.23,0.15,0.46,0.22,0.69c0,0.01,0.01,0.02,0.01,0.04
		c0.08,0.26,0.16,0.51,0.24,0.77c0,0,0,0.01,0,0.01c0.07,0.24,0.15,0.49,0.22,0.73c0.02,0.05,0.03,0.1,0.04,0.14
		c0.06,0.22,0.13,0.44,0.19,0.65c0.01,0.02,0.01,0.04,0.02,0.06c0.07,0.24,0.14,0.48,0.2,0.72c0.06,0.22,0.12,0.45,0.18,0.67
		c0.05,0.18,0.09,0.35,0.14,0.53c0.01,0.03,0.02,0.07,0.02,0.1c0.05,0.18,0.09,0.36,0.14,0.54c0.11,0.42,0.21,0.83,0.31,1.25
		c0.03,0.15,0.07,0.3,0.1,0.44c0.02,0.06,0.03,0.12,0.04,0.18c0.04,0.16,0.07,0.32,0.11,0.48c0.06,0.25,0.11,0.51,0.17,0.76
		c0.04,0.21,0.09,0.42,0.13,0.63c0.04,0.19,0.08,0.37,0.12,0.56c0.03,0.14,0.06,0.28,0.08,0.41c0.05,0.23,0.09,0.47,0.14,0.7
		C291.7,122.6,289.47,125.52,286.38,125.89z"/>
	<path d="M199.07,122.89c0.06,0.22,0.12,0.45,0.2,0.66C199.19,123.33,199.12,123.11,199.07,122.89z"/>
	<path d="M203.57,129.17c-1.75-1.15-3.15-2.8-3.98-4.75C200.42,126.36,201.82,128.01,203.57,129.17z"/>
	<path d="M201.72,112.8c-1.12,1.17-1.95,2.55-2.45,4.04c0.55-1.67,1.5-3.16,2.75-4.36L201.72,112.8z"/>
	<path d="M204.37,129.65c0.2,0.11,0.4,0.21,0.61,0.3C204.77,129.86,204.57,129.76,204.37,129.65z"/>
	<path d="M204.98,129.95c0.2,0.09,0.39,0.17,0.59,0.25C205.37,130.13,205.17,130.04,204.98,129.95z"/>
	<path d="M218.82,125.39c-0.57,1.03-1.3,1.95-2.16,2.73c0.76-0.7,1.43-1.52,1.98-2.44L218.82,125.39z"/>
	<path d="M275.53,105.47v0.29c-0.07-0.17-0.13-0.33-0.2-0.48c-0.05-0.13-0.11-0.26-0.16-0.38c0,0,0-0.01,0-0.01
		c-0.11-0.27-0.23-0.54-0.35-0.81c-0.07-0.16-0.14-0.31-0.21-0.47c-0.06-0.14-0.12-0.28-0.19-0.42c-0.06-0.13-0.12-0.27-0.18-0.4
		c-0.06-0.14-0.13-0.29-0.2-0.43c-0.08-0.17-0.16-0.35-0.24-0.52c-0.04-0.08-0.07-0.16-0.11-0.23c-0.11-0.23-0.22-0.47-0.34-0.7
		c-0.13-0.26-0.26-0.53-0.39-0.79c-0.13-0.26-0.26-0.51-0.39-0.77c-0.14-0.27-0.28-0.54-0.42-0.81c-0.26-0.48-0.51-0.96-0.78-1.44
		c-0.17-0.31-0.34-0.61-0.52-0.92c-0.09-0.16-0.18-0.31-0.27-0.47c-0.06-0.11-0.13-0.22-0.19-0.33c-0.1-0.16-0.19-0.33-0.29-0.49
		c-0.06-0.1-0.12-0.2-0.18-0.31c-0.09-0.15-0.18-0.29-0.27-0.44c-0.08-0.13-0.15-0.25-0.23-0.38c-0.1-0.16-0.2-0.32-0.3-0.48
		c-0.02-0.04-0.05-0.07-0.07-0.11c-0.14-0.22-0.28-0.44-0.42-0.66c-0.48-0.74-0.96-1.47-1.46-2.19c-0.12-0.17-0.24-0.34-0.36-0.51
		c-0.06-0.09-0.12-0.17-0.18-0.25c-0.1-0.15-0.21-0.29-0.31-0.44c-0.09-0.12-0.17-0.24-0.26-0.36c-0.08-0.11-0.15-0.21-0.23-0.32
		c-0.15-0.2-0.3-0.4-0.45-0.6c-0.01-0.02-0.02-0.03-0.03-0.04c-0.14-0.2-0.29-0.39-0.44-0.58c-0.09-0.12-0.18-0.23-0.27-0.35
		c-0.37-0.48-0.74-0.95-1.12-1.42c-0.36-0.45-0.73-0.89-1.1-1.33c-0.01-0.01-0.01-0.02-0.02-0.02c-0.13-0.16-0.27-0.31-0.4-0.47
		c-0.08-0.09-0.16-0.19-0.24-0.28c-0.13-0.15-0.26-0.3-0.39-0.45c-0.05-0.07-0.11-0.13-0.17-0.19c-0.12-0.14-0.25-0.28-0.37-0.42
		c-0.11-0.12-0.22-0.24-0.32-0.36c-0.11-0.12-0.22-0.24-0.33-0.36c-0.03-0.03-0.06-0.06-0.09-0.09c-0.06-0.06-0.11-0.12-0.17-0.18
		c-0.12-0.13-0.25-0.27-0.38-0.4c-0.2-0.21-0.4-0.43-0.6-0.64c-0.2-0.2-0.39-0.41-0.59-0.61c-0.25-0.26-0.51-0.52-0.77-0.78v0
		c-0.19-0.19-0.38-0.38-0.58-0.57c-0.15-0.15-0.3-0.29-0.45-0.44c-0.16-0.16-0.33-0.32-0.49-0.47c-0.08-0.08-0.17-0.16-0.25-0.24
		c-0.17-0.16-0.33-0.31-0.5-0.47c-0.17-0.16-0.35-0.32-0.52-0.48c-0.04-0.04-0.09-0.08-0.13-0.12c-0.17-0.16-0.35-0.31-0.52-0.47
		c-0.15-0.13-0.3-0.26-0.44-0.39c-0.09-0.07-0.17-0.15-0.25-0.22c-0.14-0.13-0.29-0.25-0.43-0.37c-0.17-0.15-0.34-0.29-0.51-0.43
		c-0.04-0.04-0.09-0.07-0.13-0.11c-0.21-0.18-0.42-0.35-0.63-0.53c-0.77-0.64-1.56-1.26-2.36-1.87c-0.19-0.14-0.37-0.29-0.56-0.42
		c-0.09-0.07-0.18-0.14-0.27-0.2c-0.14-0.11-0.29-0.22-0.43-0.32c-0.14-0.1-0.27-0.2-0.41-0.3c-0.14-0.1-0.27-0.2-0.41-0.3
		c-0.14-0.1-0.29-0.2-0.43-0.31c-0.14-0.1-0.28-0.2-0.42-0.3c-0.15-0.11-0.31-0.22-0.47-0.32c-0.12-0.08-0.24-0.17-0.37-0.25
		c-0.18-0.13-0.37-0.25-0.55-0.37c-0.08-0.06-0.17-0.11-0.25-0.17c-0.23-0.15-0.46-0.3-0.69-0.45c-0.04-0.03-0.09-0.06-0.13-0.09
		c-0.05-0.08-0.1-0.15-0.15-0.23c4.97,3.18,9.59,6.9,13.82,11.12c0.82,0.82,1.63,1.66,2.41,2.51c6.4,6.95,11.51,14.87,15.21,23.59
		C275.36,105.06,275.45,105.27,275.53,105.47z"/>
	<path d="M196.75,85.42c0.02,0.02,0.05,0.03,0.07,0.04c-0.01,0-0.01-0.01-0.02-0.01C196.78,85.44,196.77,85.43,196.75,85.42z"/>
	<path d="M196.86,85.48c0.01,0,0.02,0.01,0.02,0.01C196.87,85.49,196.87,85.49,196.86,85.48c-0.01-0.01-0.02-0.01-0.04-0.02
		C196.83,85.47,196.85,85.48,196.86,85.48z"/>
	<path d="M197.35,85.76c-0.03-0.02-0.06-0.03-0.09-0.05c-0.01-0.01-0.02-0.01-0.03-0.02c0.01,0.01,0.02,0.01,0.03,0.02
		C197.29,85.72,197.32,85.74,197.35,85.76z"/>
	<path d="M205.86,87.86c-0.01,0-0.03,0-0.04,0l0.02,0L205.86,87.86z"/>
	<path d="M208.44,88.26c0,0-0.01,0-0.01,0c-0.03-0.01-0.07-0.01-0.1-0.02c0.03,0.01,0.06,0.01,0.1,0.02L208.44,88.26z"/>
	<path d="M208.96,88.36l-0.11-0.02l-0.08-0.02c0.03,0,0.06,0.01,0.08,0.02L208.96,88.36z"/>
	<polygon points="210.86,88.76 210.83,88.76 210.77,88.74 210.82,88.75 	"/>
	<path d="M214.95,89.91c-0.02,0-0.03-0.01-0.04-0.01l0.03,0.01C214.94,89.91,214.95,89.91,214.95,89.91z"/>
	<path d="M216.97,90.63c-0.01,0-0.02-0.01-0.03-0.01l-0.01-0.01L216.97,90.63z"/>
	<path d="M217.49,90.83c-0.02-0.01-0.04-0.02-0.06-0.02c-0.02-0.01-0.04-0.02-0.06-0.02C217.41,90.79,217.45,90.81,217.49,90.83z"/>
	<path d="M222.02,92.86c-0.18-0.09-0.36-0.18-0.55-0.27c0.05,0.02,0.09,0.05,0.14,0.07C221.75,92.72,221.89,92.79,222.02,92.86z"/>
	<path d="M222.47,93.09c-0.14-0.08-0.29-0.15-0.44-0.23c0,0-0.01,0-0.01-0.01c0,0,0.01,0,0.01,0c0.12,0.06,0.24,0.12,0.35,0.18
		C222.41,93.06,222.44,93.08,222.47,93.09z"/>
	<path d="M222.74,93.23c-0.09-0.05-0.18-0.1-0.27-0.14c0.02,0.01,0.03,0.02,0.05,0.02C222.59,93.15,222.66,93.19,222.74,93.23z"/>
	<path d="M201.32,97.38l0.24,0.23c-0.68-0.56-1.21-1.27-1.55-2.09c-0.07-0.15-0.12-0.31-0.17-0.47c0.05,0.16,0.11,0.32,0.18,0.47
		C200.3,96.21,200.75,96.84,201.32,97.38z"/>
	<path d="M242.6,125.39c0.07-0.03,0.15-0.07,0.22-0.11c-0.03,0.02-0.06,0.03-0.09,0.05C242.69,125.35,242.65,125.37,242.6,125.39z"
		/>
	<path d="M243.17,125.07c0.16-0.1,0.31-0.21,0.46-0.33c-0.25,0.2-0.52,0.38-0.81,0.54c0.11-0.06,0.22-0.13,0.33-0.19c0,0,0,0,0,0
		C243.16,125.08,243.16,125.07,243.17,125.07z"/>
	<path d="M243.79,124.61c0.05-0.04,0.1-0.08,0.14-0.13c-0.1,0.09-0.2,0.18-0.3,0.26c0.05-0.04,0.1-0.08,0.15-0.12
		C243.78,124.61,243.79,124.61,243.79,124.61z"/>
	<path d="M244.13,124.29c-0.06,0.07-0.13,0.13-0.2,0.19c0.05-0.04,0.09-0.09,0.14-0.13C244.09,124.33,244.11,124.31,244.13,124.29z"
		/>
	<path d="M247.02,123.01c0.02,0.07,0.04,0.14,0.06,0.2l0,0C247.06,123.14,247.04,123.07,247.02,123.01z"/>
	<path d="M247.11,123.31l-0.01-0.02l-0.01-0.03l0,0l-0.01-0.02l0-0.02c0,0.01,0,0.01,0.01,0.02L247.11,123.31z"/>
	<path d="M188.89,73.66c0.04,0.24,0.07,0.49,0.12,0.73C188.97,74.15,188.93,73.9,188.89,73.66z M191.05,62.97
		c0,0.01-0.01,0.02-0.01,0.02C191.04,62.99,191.05,62.98,191.05,62.97L191.05,62.97z M275.46,131.31c-0.03,0.03-0.06,0.06-0.09,0.09
		c-0.06,0.07-0.11,0.13-0.17,0.19c-0.06,0.06-0.12,0.13-0.18,0.19c-0.04,0.04-0.07,0.08-0.11,0.12c-0.05,0.05-0.1,0.1-0.15,0.15
		c-0.04,0.04-0.09,0.09-0.13,0.13c0,0-0.01,0.01-0.01,0.01c-0.03,0.03-0.07,0.07-0.1,0.1c0,0,0,0,0,0c0,0.01-0.01,0.01-0.01,0.01
		l0,0l0,0c0,0,0,0,0,0c0,0,0,0,0,0c0.01,0.01,0.02,0.02,0.04,0.03c0.15,0.15,0.31,0.29,0.47,0.43c0.07,0.06,0.14,0.12,0.22,0.18
		c0.1,0.09,0.21,0.17,0.31,0.26v-1.98C275.51,131.25,275.48,131.28,275.46,131.31z M274.49,132.31
		C274.49,132.31,274.49,132.32,274.49,132.31L274.49,132.31C274.49,132.32,274.49,132.31,274.49,132.31L274.49,132.31z
		 M274.47,132.33c0,0-0.01,0.01-0.01,0.01C274.47,132.34,274.47,132.33,274.47,132.33C274.47,132.33,274.47,132.33,274.47,132.33z
		 M263.25,115.08v10.85h0L263.25,115.08z"/>
	<path d="M199.59,71.77c0-0.04,0-0.07-0.01-0.11c0,0.01,0,0.02,0,0.04L199.59,71.77z"/>
	<path d="M199.66,70.43c0,0.04-0.01,0.07-0.02,0.11l-0.01,0.06l-0.02,0.09c0-0.02,0-0.04,0.01-0.06c0-0.02,0-0.04,0.01-0.06
		c0-0.01,0-0.01,0-0.02C199.65,70.5,199.65,70.46,199.66,70.43z"/>
	<path d="M199.61,70.76c-0.01,0.1-0.02,0.2-0.02,0.29C199.59,70.96,199.61,70.86,199.61,70.76z"/>
	<path d="M200.56,74.49c-0.04-0.05-0.07-0.11-0.11-0.16l0.04,0.06L200.56,74.49z"/>
	<path d="M199.93,69.43l-0.04,0.1c0,0.01-0.01,0.01-0.01,0.02c0,0.01-0.01,0.02-0.01,0.02c0,0,0-0.01,0-0.02
		C199.9,69.52,199.91,69.47,199.93,69.43z"/>
	<path d="M199.96,69.36c0.01-0.02,0.01-0.03,0.02-0.04c-0.01,0.02-0.02,0.04-0.02,0.06C199.95,69.37,199.95,69.37,199.96,69.36z"/>
	<path d="M200.01,69.22l-0.01,0.02c-0.01,0.01-0.01,0.03-0.02,0.04C200,69.26,200,69.24,200.01,69.22z"/>
	<path d="M200.81,67.9l-0.56,0.83c-0.04,0.06-0.07,0.13-0.1,0.19c-0.03,0.06-0.06,0.13-0.09,0.19l-0.04,0.09l0,0c0,0,0-0.01,0-0.01
		c0-0.01,0-0.01,0.01-0.02c0,0,0,0,0,0c0.02-0.06,0.05-0.11,0.07-0.17c0,0,0,0,0,0c0-0.01,0.01-0.02,0.01-0.03
		c0-0.01,0.01-0.02,0.02-0.03c0.01-0.02,0.02-0.04,0.03-0.06c0.06-0.12,0.12-0.23,0.19-0.34c0.02-0.03,0.04-0.06,0.05-0.09
		c0.02-0.04,0.04-0.07,0.07-0.11c0.01-0.02,0.02-0.03,0.03-0.05c0,0,0.01-0.01,0.01-0.01c0.03-0.04,0.06-0.09,0.09-0.13
		C200.68,68.06,200.75,67.98,200.81,67.9z"/>
	<path d="M189.01,74.39c-0.05-0.24-0.09-0.49-0.12-0.73C188.93,73.9,188.97,74.15,189.01,74.39z"/>
	<path d="M191.05,62.97c0,0.01-0.01,0.02-0.02,0.02C191.04,62.99,191.05,62.98,191.05,62.97L191.05,62.97z"/>
	<path d="M196.75,85.42c0.02,0.02,0.05,0.03,0.07,0.04c-0.01,0-0.01-0.01-0.02-0.01C196.78,85.44,196.77,85.43,196.75,85.42z"/>
	<path d="M196.86,85.48c0.01,0,0.02,0.01,0.02,0.01C196.87,85.49,196.87,85.49,196.86,85.48c-0.01-0.01-0.02-0.01-0.04-0.02
		C196.83,85.47,196.85,85.48,196.86,85.48z"/>
	<path d="M197.26,85.71c0.03,0.02,0.06,0.03,0.09,0.05C197.32,85.74,197.29,85.73,197.26,85.71c-0.01,0-0.02-0.01-0.03-0.02
		C197.24,85.7,197.25,85.7,197.26,85.71z"/>
	<path d="M199.26,123.55c-0.07-0.22-0.14-0.44-0.2-0.66C199.12,123.11,199.19,123.33,199.26,123.55z"/>
	<path d="M201.56,97.61c-0.68-0.56-1.21-1.27-1.55-2.09c-0.07-0.15-0.12-0.31-0.17-0.47c0.05,0.16,0.11,0.32,0.18,0.47
		c0.29,0.69,0.74,1.32,1.31,1.86L201.56,97.61z"/>
	<path d="M202.02,112.49l-0.3,0.31c-1.12,1.17-1.95,2.55-2.45,4.04C199.82,115.17,200.78,113.68,202.02,112.49z"/>
	<path d="M203.57,129.17c-1.75-1.15-3.15-2.8-3.98-4.75C200.42,126.36,201.82,128.01,203.57,129.17z"/>
	<path d="M204.98,129.95c-0.21-0.09-0.41-0.19-0.61-0.3C204.57,129.75,204.77,129.86,204.98,129.95z"/>
	<path d="M205.57,130.2c-0.2-0.08-0.4-0.16-0.59-0.25C205.17,130.04,205.37,130.12,205.57,130.2z"/>
	<path d="M218.82,125.39c-0.57,1.03-1.3,1.95-2.16,2.73c0.76-0.7,1.43-1.52,1.98-2.44L218.82,125.39z"/>
	<path d="M242.6,125.39c0.07-0.03,0.15-0.07,0.22-0.11c-0.03,0.02-0.06,0.03-0.09,0.05C242.69,125.35,242.65,125.37,242.6,125.39z"
		/>
	<path d="M243.17,125.07c0.16-0.1,0.31-0.21,0.46-0.33c-0.25,0.2-0.52,0.38-0.81,0.54c0.11-0.06,0.22-0.13,0.33-0.19c0,0,0,0,0,0
		C243.16,125.08,243.16,125.07,243.17,125.07z"/>
	<path d="M243.79,124.61c0.05-0.04,0.1-0.08,0.14-0.13c-0.1,0.09-0.2,0.18-0.3,0.26c0.05-0.04,0.1-0.08,0.15-0.12
		C243.78,124.61,243.79,124.61,243.79,124.61z"/>
	<path d="M244.13,124.29c-0.06,0.07-0.13,0.13-0.2,0.19c0.05-0.04,0.09-0.09,0.14-0.13C244.09,124.33,244.11,124.31,244.13,124.29z"
		/>
	<polygon points="242.26,125.54 242.26,125.54 242.26,125.54 	"/>
	<path d="M241.72,125.72c0.02-0.01,0.05-0.01,0.07-0.02c-0.02,0-0.03,0.01-0.05,0.01C241.74,125.72,241.73,125.72,241.72,125.72z"/>
	<path d="M242.26,125.54c-0.04,0.02-0.09,0.03-0.13,0.05c-0.01,0-0.01,0-0.02,0.01c0,0-0.01,0-0.01,0
		C242.16,125.58,242.21,125.56,242.26,125.54z"/>
	<path d="M247.09,123.23l0.02,0.08l-0.01-0.02l-0.01-0.03l0,0L247.09,123.23l-0.01-0.02C247.09,123.22,247.09,123.22,247.09,123.23z
		"/>
	<path d="M252.22,132.48c0.07,0.06,0.13,0.12,0.2,0.18c-0.03-0.02-0.05-0.04-0.08-0.07c-0.01-0.01-0.03-0.02-0.04-0.04
		C252.27,132.53,252.24,132.5,252.22,132.48z"/>
	<path d="M260.57,125.23c-0.17-0.1-0.34-0.2-0.5-0.32c0.07,0.05,0.15,0.1,0.22,0.15c0.03,0.02,0.07,0.04,0.07,0.04l0.09,0.05
		C260.49,125.18,260.53,125.2,260.57,125.23z"/>
	<path d="M261.66,125.69c-0.07-0.02-0.14-0.04-0.2-0.07l0.09,0.03l0.07,0.02L261.66,125.69z"/>
	<path d="M262.76,125.91c-0.03,0-0.06,0-0.09-0.01l0.08,0L262.76,125.91z"/>
	<path d="M263.03,125.93c-0.02,0-0.05,0-0.07-0.01l0.03,0L263.03,125.93z"/>
	<path d="M274.47,132.33C274.47,132.33,274.47,132.33,274.47,132.33c0,0-0.01,0.01-0.01,0.01c-0.01,0.01-0.01,0.01-0.02,0.02
		c0,0-0.01,0-0.01,0.01L274.47,132.33z"/>
	<polygon points="274.49,132.31 274.49,132.31 274.49,132.32 274.49,132.32 	"/>
	<path d="M275.53,131.23v1.98c-0.11-0.08-0.21-0.17-0.31-0.26c-0.07-0.06-0.14-0.12-0.22-0.18c-0.16-0.14-0.32-0.28-0.47-0.43
		c-0.01-0.01-0.02-0.02-0.04-0.03c0,0,0,0,0,0c0,0,0,0,0,0l0,0l0,0c0,0,0.01-0.01,0.01-0.01c0,0,0,0,0,0
		c0.04-0.03,0.07-0.07,0.1-0.1c0,0,0.01-0.01,0.01-0.01c0.04-0.04,0.09-0.09,0.13-0.13c0.05-0.05,0.1-0.1,0.15-0.15
		c0.04-0.04,0.08-0.08,0.11-0.12c0.06-0.06,0.12-0.13,0.18-0.19c0.06-0.06,0.12-0.13,0.17-0.19c0.03-0.03,0.06-0.06,0.09-0.09
		C275.48,131.28,275.51,131.25,275.53,131.23z"/>
	<path d="M282.51,124.9c-0.26-0.19-0.51-0.4-0.73-0.63l0.16,0.15c0.11,0.11,0.23,0.21,0.35,0.3L282.51,124.9z"/>
	<path d="M275.53,133.21v53.8c0,18.13-14.7,32.82-32.82,32.82h-28.76v-24.02c0-8.59-1.69-16.93-5.01-24.79
		c-3.21-7.59-7.8-14.39-13.64-20.24c-5.84-5.84-12.65-10.43-20.24-13.64c-7.86-3.33-16.2-5.01-24.79-5.01
		c-8.59,0-16.93,1.69-24.79,5.01c-7.59,3.21-14.39,7.8-20.24,13.64c-5.84,5.84-10.43,12.65-13.64,20.24
		c-3.32,7.86-5.01,16.2-5.01,24.79v24.02H57.62c-18.13,0-32.82-14.7-32.82-32.82V95.8c0-10.95,5.36-20.64,13.6-26.6v0
		c4.76-3.45,10.49-5.65,16.69-6.12c0.83-0.06,1.68-0.1,2.53-0.1h133.43c0,0.01-0.01,0.02-0.01,0.02s-0.01,0.02-0.01,0.02
		c-0.06,0.1-0.12,0.21-0.18,0.31c-0.04,0.07-0.08,0.14-0.11,0.2c-0.02,0.03-0.03,0.06-0.05,0.09c-0.05,0.09-0.1,0.19-0.15,0.28
		c-0.06,0.11-0.11,0.21-0.16,0.32c-0.07,0.14-0.13,0.28-0.2,0.42c-0.06,0.12-0.11,0.24-0.16,0.36c-0.1,0.23-0.19,0.47-0.28,0.71
		c-0.01,0.03-0.02,0.07-0.04,0.1c-0.04,0.1-0.07,0.2-0.1,0.3c-0.03,0.1-0.07,0.2-0.1,0.3c-0.02,0.06-0.04,0.13-0.06,0.19
		c-0.06,0.2-0.12,0.4-0.17,0.61c-0.01,0.04-0.02,0.09-0.03,0.13c-0.05,0.19-0.09,0.38-0.13,0.56c0,0.02-0.01,0.03-0.01,0.04
		c-0.02,0.07-0.03,0.13-0.04,0.2c-0.02,0.12-0.04,0.23-0.07,0.35c0,0.01,0,0.02-0.01,0.04c-0.02,0.11-0.04,0.23-0.06,0.35
		c-0.01,0.09-0.03,0.18-0.04,0.26c-0.02,0.12-0.03,0.25-0.05,0.37c-0.01,0.09-0.02,0.17-0.03,0.25c-0.04,0.36-0.06,0.73-0.07,1.1
		c0,0.03,0,0.07,0,0.1c0,0.13,0,0.26,0,0.4c0,0.1,0,0.2,0,0.29c0,0.04,0,0.08,0,0.12c0,0.26,0.02,0.52,0.04,0.77
		c0.01,0.09,0.01,0.18,0.02,0.27c0,0.02,0,0.05,0.01,0.07c0,0.02,0,0.05,0.01,0.07c0.01,0.08,0.02,0.16,0.02,0.23
		c0,0.04,0.01,0.07,0.01,0.11c0.01,0.12,0.03,0.24,0.04,0.35c0.04,0.24,0.07,0.49,0.12,0.73c0.02,0.1,0.04,0.2,0.06,0.3
		c0.01,0.06,0.03,0.12,0.04,0.18c0.01,0.05,0.02,0.1,0.04,0.16c0.01,0.06,0.03,0.12,0.04,0.19c0.03,0.12,0.06,0.24,0.09,0.35
		c0.02,0.09,0.05,0.18,0.07,0.27c0.07,0.25,0.15,0.5,0.23,0.75c0.04,0.12,0.08,0.24,0.13,0.37c0.04,0.12,0.09,0.24,0.14,0.37
		c0.05,0.12,0.1,0.24,0.15,0.36c0.09,0.22,0.19,0.45,0.3,0.66c0.05,0.1,0.1,0.2,0.15,0.3c0.17,0.33,0.34,0.66,0.53,0.98
		c0.06,0.11,0.13,0.22,0.19,0.32c0.05,0.07,0.09,0.15,0.14,0.22c0.1,0.16,0.21,0.32,0.32,0.48c0.05,0.07,0.09,0.14,0.14,0.2
		c0.01,0.01,0.02,0.03,0.03,0.04c0.06,0.08,0.11,0.15,0.17,0.23c0.09,0.13,0.19,0.25,0.29,0.37c0.08,0.1,0.16,0.2,0.24,0.3
		c0.04,0.04,0.08,0.09,0.11,0.14c0.13,0.15,0.25,0.29,0.39,0.44c-0.66,0.72-1.24,1.48-1.75,2.3c-1.63,2.58-2.52,5.59-2.52,8.73
		c0,0.72,0.05,1.42,0.14,2.12c0.5,3.8,2.32,7.23,5.02,9.77c-3.72,3.88-6.01,9.14-6.01,14.92c0,11.89,9.67,21.56,21.57,21.56
		c7.86,0,14.75-4.22,18.52-10.52c3.04,3.46,7.46,5.53,12.26,5.53c4.35,0,8.49-1.74,11.52-4.76c0.01,0.01,0.02,0.02,0.02,0.02
		c0.15,0.15,0.3,0.29,0.45,0.43c0.02,0.02,0.05,0.05,0.08,0.07c0.01,0.01,0.03,0.02,0.04,0.04c0.02,0.02,0.05,0.04,0.08,0.07
		c0.07,0.06,0.13,0.11,0.2,0.17c0.09,0.08,0.19,0.16,0.29,0.24c0.01,0.01,0.02,0.02,0.03,0.03c0.3,0.24,0.61,0.48,0.92,0.7
		c0,0,0,0,0,0c0.11,0.07,0.22,0.15,0.33,0.22c0.11,0.07,0.22,0.14,0.33,0.22c0.1,0.07,0.21,0.13,0.32,0.2
		c0.01,0.01,0.02,0.01,0.03,0.02c0.17,0.1,0.34,0.2,0.51,0.29c0.17,0.09,0.34,0.19,0.52,0.27c0.11,0.06,0.23,0.11,0.34,0.17
		c0.02,0.01,0.03,0.02,0.05,0.02c0.11,0.05,0.22,0.1,0.33,0.15c0.24,0.11,0.48,0.21,0.73,0.31c0.15,0.06,0.31,0.12,0.46,0.17
		c0.08,0.03,0.15,0.06,0.23,0.08c0.04,0.02,0.08,0.03,0.12,0.04c0.09,0.03,0.18,0.06,0.27,0.09c0.02,0.01,0.05,0.01,0.07,0.02
		c0.1,0.03,0.2,0.06,0.29,0.09c0.38,0.11,0.76,0.2,1.15,0.29c0.06,0.01,0.12,0.03,0.19,0.04l0.17,0.03
		c0.08,0.02,0.16,0.03,0.24,0.04c0.02,0,0.04,0.01,0.06,0.01c0.09,0.02,0.19,0.03,0.29,0.04c0.22,0.03,0.45,0.06,0.68,0.09
		c0.07,0.01,0.14,0.02,0.21,0.02c0.07,0.01,0.13,0.01,0.2,0.02c0.06,0.01,0.11,0.01,0.17,0.01c0.06,0.01,0.12,0.01,0.18,0.01
		c0.07,0,0.13,0.01,0.2,0.01c0.08,0,0.16,0.01,0.24,0.01c0.17,0,0.34,0.01,0.51,0.01h0.01c0.13,0,0.26,0,0.39,0h0.01
		c0.1,0,0.21-0.01,0.31-0.01c0.04,0,0.08,0,0.13-0.01c0.11,0,0.21-0.01,0.32-0.02c0.05,0,0.11-0.01,0.16-0.01
		c0.05,0,0.11-0.01,0.16-0.01c0.06,0,0.12-0.01,0.18-0.02c0.11-0.01,0.23-0.02,0.34-0.04c0.43-0.05,0.85-0.12,1.27-0.2
		c0.08-0.02,0.15-0.03,0.22-0.05c0.15-0.03,0.3-0.07,0.45-0.1c0.17-0.04,0.34-0.09,0.51-0.13c0.1-0.03,0.2-0.06,0.3-0.09
		c0.07-0.02,0.14-0.04,0.21-0.06c0.08-0.02,0.15-0.05,0.23-0.07c0.08-0.03,0.16-0.05,0.24-0.08c0.07-0.02,0.14-0.05,0.22-0.08
		c0.09-0.03,0.18-0.07,0.27-0.1c0.04-0.02,0.08-0.03,0.12-0.05c0.04-0.01,0.07-0.03,0.11-0.04c0.09-0.04,0.18-0.07,0.27-0.11
		c0.13-0.05,0.26-0.11,0.38-0.17c0.11-0.05,0.22-0.1,0.34-0.16c0.05-0.03,0.11-0.05,0.16-0.08c0.08-0.04,0.16-0.08,0.24-0.13
		c0.01,0,0.01,0,0.02-0.01c0.04-0.02,0.09-0.04,0.13-0.07c0.01,0,0.02-0.01,0.02-0.01c0.07-0.04,0.15-0.08,0.22-0.12
		c0.02-0.01,0.05-0.03,0.07-0.04s0.05-0.03,0.07-0.04c0.11-0.07,0.23-0.13,0.34-0.2c0.09-0.05,0.18-0.11,0.26-0.16
		c0.01-0.01,0.02-0.01,0.03-0.02c0.04-0.02,0.08-0.05,0.12-0.07c0.35-0.22,0.69-0.46,1.02-0.71c0.06-0.04,0.12-0.09,0.17-0.13
		c0.21-0.17,0.43-0.34,0.63-0.52c0.07-0.06,0.14-0.12,0.21-0.18c0.02-0.02,0.05-0.04,0.07-0.07c0.07-0.06,0.14-0.12,0.2-0.19
		c0.01-0.01,0.02-0.02,0.03-0.03c0.01-0.01,0.02-0.01,0.02-0.02c0,0,0.01,0,0.01-0.01c0,0,0.01-0.01,0.01-0.01
		c0.01-0.01,0.01-0.01,0.02-0.02c0,0,0.01-0.01,0.01-0.01c0,0,0,0,0,0c0,0,0,0,0.01,0c0,0,0,0,0.01-0.01c0,0,0,0,0,0
		c0.01,0.01,0.02,0.02,0.04,0.03c0.15,0.15,0.31,0.29,0.47,0.43c0.07,0.06,0.14,0.12,0.22,0.18
		C275.32,133.04,275.43,133.13,275.53,133.21z"/>
	<path d="M232.31,237.64v20.46H68.33v-20.46h36.19v-41.83c0-25.26,20.48-45.74,45.74-45.74c12.63,0,24.07,5.12,32.34,13.4
		c8.28,8.28,13.4,19.71,13.4,32.34v41.83H232.31z"/>
	<g>
		<path d="M205.86,87.86c-0.01,0-0.03,0-0.04,0l0.02,0L205.86,87.86z"/>
		<path d="M208.44,88.26c0,0-0.01,0-0.01,0c-0.03-0.01-0.07-0.01-0.1-0.02c0.03,0.01,0.06,0.01,0.1,0.02L208.44,88.26z"/>
		<polygon points="210.86,88.76 210.83,88.76 210.77,88.74 210.82,88.75 		"/>
		<path d="M216.97,90.63c-0.01,0-0.02-0.01-0.03-0.01l-0.01-0.01L216.97,90.63z"/>
		<path d="M217.49,90.83c-0.02-0.01-0.04-0.02-0.06-0.02c-0.02-0.01-0.04-0.02-0.06-0.02C217.41,90.79,217.45,90.81,217.49,90.83z"
			/>
		<path d="M222.02,92.86c-0.18-0.09-0.36-0.18-0.55-0.27c0.05,0.02,0.09,0.05,0.14,0.07C221.75,92.72,221.89,92.79,222.02,92.86z"/>
		<path d="M222.47,93.09c-0.14-0.08-0.29-0.15-0.44-0.23c0,0-0.01,0-0.01-0.01c0,0,0.01,0,0.01,0c0.12,0.06,0.24,0.12,0.35,0.18
			C222.41,93.06,222.44,93.08,222.47,93.09z"/>
		<path d="M222.74,93.23c-0.09-0.05-0.18-0.1-0.27-0.14c0.02,0.01,0.03,0.02,0.05,0.02C222.59,93.15,222.66,93.19,222.74,93.23z"/>
		<path d="M247.02,123.01c0.02,0.07,0.04,0.14,0.06,0.2l0,0C247.06,123.14,247.04,123.07,247.02,123.01z"/>
		<path d="M247.11,123.31l-0.01-0.02l-0.01-0.03l0,0l-0.01-0.02l0-0.02c0,0.01,0,0.01,0.01,0.02L247.11,123.31z"/>
		<polygon points="263.26,125.93 263.25,125.93 263.25,115.08 		"/>
		<path d="M275.53,105.47v0.29c-0.07-0.17-0.13-0.33-0.2-0.48c-0.05-0.13-0.11-0.26-0.16-0.38c0,0,0-0.01,0-0.01
			c-0.11-0.27-0.23-0.54-0.35-0.81c-0.07-0.16-0.14-0.31-0.21-0.47c-0.06-0.14-0.12-0.28-0.19-0.42c-0.06-0.13-0.12-0.27-0.18-0.4
			c-0.06-0.14-0.13-0.29-0.2-0.43c-0.08-0.17-0.16-0.35-0.24-0.52c-0.04-0.08-0.07-0.16-0.11-0.23c-0.11-0.23-0.22-0.47-0.34-0.7
			c-0.13-0.26-0.26-0.53-0.39-0.79c-0.13-0.26-0.26-0.51-0.39-0.77c-0.14-0.27-0.28-0.54-0.42-0.81c-0.26-0.48-0.51-0.96-0.78-1.44
			c-0.17-0.31-0.34-0.61-0.52-0.92c-0.09-0.16-0.18-0.31-0.27-0.47c-0.06-0.11-0.13-0.22-0.19-0.33c-0.1-0.16-0.19-0.33-0.29-0.49
			c-0.06-0.1-0.12-0.2-0.18-0.31c-0.09-0.15-0.18-0.29-0.27-0.44c-0.08-0.13-0.15-0.25-0.23-0.38c-0.1-0.16-0.2-0.32-0.3-0.48
			c-0.02-0.04-0.05-0.07-0.07-0.11c-0.14-0.22-0.28-0.44-0.42-0.66c-0.48-0.74-0.96-1.47-1.46-2.19c-0.12-0.17-0.24-0.34-0.36-0.51
			c-0.06-0.09-0.12-0.17-0.18-0.25c-0.1-0.15-0.21-0.29-0.31-0.44c-0.09-0.12-0.17-0.24-0.26-0.36c-0.08-0.11-0.15-0.21-0.23-0.32
			c-0.15-0.2-0.3-0.4-0.45-0.6c-0.01-0.02-0.02-0.03-0.03-0.04c-0.14-0.2-0.29-0.39-0.44-0.58c-0.09-0.12-0.18-0.23-0.27-0.35
			c-0.37-0.48-0.74-0.95-1.12-1.42c-0.36-0.45-0.73-0.89-1.1-1.33c-0.01-0.01-0.01-0.02-0.02-0.02c-0.13-0.16-0.27-0.31-0.4-0.47
			c-0.08-0.09-0.16-0.19-0.24-0.28c-0.13-0.15-0.26-0.3-0.39-0.45c-0.05-0.07-0.11-0.13-0.17-0.19c-0.12-0.14-0.25-0.28-0.37-0.42
			c-0.11-0.12-0.22-0.24-0.32-0.36c-0.11-0.12-0.22-0.24-0.33-0.36c-0.03-0.03-0.06-0.06-0.09-0.09c-0.06-0.06-0.11-0.12-0.17-0.18
			c-0.12-0.13-0.25-0.27-0.38-0.4c-0.2-0.21-0.4-0.43-0.6-0.64c-0.2-0.2-0.39-0.41-0.59-0.61c-0.25-0.26-0.51-0.52-0.77-0.78v0
			c-0.19-0.19-0.38-0.38-0.58-0.57c-0.15-0.15-0.3-0.29-0.45-0.44c-0.16-0.16-0.33-0.32-0.49-0.47c-0.08-0.08-0.17-0.16-0.25-0.24
			c-0.17-0.16-0.33-0.31-0.5-0.47c-0.17-0.16-0.35-0.32-0.52-0.48c-0.04-0.04-0.09-0.08-0.13-0.12c-0.17-0.16-0.35-0.31-0.52-0.47
			c-0.15-0.13-0.3-0.26-0.44-0.39c-0.09-0.07-0.17-0.15-0.25-0.22c-0.14-0.13-0.29-0.25-0.43-0.37c-0.17-0.15-0.34-0.29-0.51-0.43
			c-0.04-0.04-0.09-0.07-0.13-0.11c-0.21-0.18-0.42-0.35-0.63-0.53c-0.77-0.64-1.56-1.26-2.36-1.87c-0.19-0.14-0.37-0.29-0.56-0.42
			c-0.09-0.07-0.18-0.14-0.27-0.2c-0.14-0.11-0.29-0.22-0.43-0.32c-0.14-0.1-0.27-0.2-0.41-0.3c-0.14-0.1-0.27-0.2-0.41-0.3
			c-0.14-0.1-0.29-0.2-0.43-0.31c-0.14-0.1-0.28-0.2-0.42-0.3c-0.15-0.11-0.31-0.22-0.47-0.32c-0.12-0.08-0.24-0.17-0.37-0.25
			c-0.18-0.13-0.37-0.25-0.55-0.37c-0.08-0.06-0.17-0.11-0.25-0.17c-0.23-0.15-0.46-0.3-0.69-0.45c-0.04-0.03-0.09-0.06-0.13-0.09
			c-0.05-0.08-0.1-0.15-0.15-0.23c4.97,3.18,9.59,6.9,13.82,11.12c0.82,0.82,1.63,1.66,2.41,2.51c6.4,6.95,11.51,14.87,15.21,23.59
			C275.36,105.06,275.45,105.27,275.53,105.47z"/>
		<path d="M274.47,132.33c0,0-0.01,0.01-0.01,0.01c-0.01,0.01-0.01,0.01-0.02,0.02c0,0-0.01,0-0.01,0.01L274.47,132.33
			C274.47,132.33,274.47,132.33,274.47,132.33z"/>
		<polygon points="274.49,132.31 274.49,132.31 274.49,132.32 274.49,132.32 		"/>
		<path d="M275.53,131.23v1.98c-0.11-0.08-0.21-0.17-0.31-0.26c-0.07-0.06-0.14-0.12-0.22-0.18c-0.16-0.14-0.32-0.28-0.47-0.43
			c-0.01-0.01-0.02-0.02-0.04-0.03c0,0,0,0,0,0c0,0,0,0,0,0l0,0l0,0c0,0,0.01-0.01,0.01-0.01c0,0,0,0,0,0
			c0.04-0.03,0.07-0.07,0.1-0.1c0,0,0.01-0.01,0.01-0.01c0.04-0.04,0.09-0.09,0.13-0.13c0.05-0.05,0.1-0.1,0.15-0.15
			c0.04-0.04,0.08-0.08,0.11-0.12c0.06-0.06,0.12-0.13,0.18-0.19c0.06-0.06,0.12-0.13,0.17-0.19c0.03-0.03,0.06-0.06,0.09-0.09
			C275.48,131.28,275.51,131.25,275.53,131.23z"/>
		<path d="M263.25,115.08v10.85h0L263.25,115.08z"/>
		<path d="M275.53,131.23v1.98c-0.11-0.08-0.21-0.17-0.31-0.26c-0.07-0.06-0.14-0.12-0.22-0.18c-0.16-0.14-0.32-0.28-0.47-0.43
			c-0.01-0.01-0.02-0.02-0.04-0.03v0l0,0c0,0,0.01-0.01,0.01-0.01c0,0,0,0,0,0c0.04-0.03,0.07-0.07,0.1-0.1c0,0,0.01-0.01,0.01-0.01
			c0.04-0.04,0.09-0.09,0.13-0.13c0.05-0.05,0.1-0.1,0.15-0.15c0.04-0.04,0.08-0.08,0.11-0.12c0.06-0.06,0.12-0.13,0.18-0.19
			c0.06-0.06,0.12-0.13,0.17-0.19c0.03-0.03,0.06-0.06,0.09-0.09C275.48,131.28,275.51,131.25,275.53,131.23z"/>
		<path d="M275.53,105.47v0.29c-0.07-0.17-0.13-0.33-0.2-0.48c-0.05-0.13-0.11-0.26-0.16-0.38c0,0,0-0.01,0-0.01
			c-0.11-0.27-0.23-0.54-0.35-0.81c-0.07-0.16-0.14-0.31-0.21-0.47c-0.06-0.14-0.12-0.28-0.19-0.42c-0.06-0.13-0.12-0.27-0.18-0.4
			c-0.06-0.14-0.13-0.29-0.2-0.43c-0.08-0.17-0.16-0.35-0.24-0.52c-0.04-0.08-0.07-0.16-0.11-0.23c-0.11-0.23-0.22-0.47-0.34-0.7
			c-0.13-0.26-0.26-0.53-0.39-0.79c-0.13-0.26-0.26-0.51-0.39-0.77c-0.14-0.27-0.28-0.54-0.42-0.81c-0.26-0.48-0.51-0.96-0.78-1.44
			c-0.17-0.31-0.34-0.61-0.52-0.92c-0.09-0.16-0.18-0.31-0.27-0.47c-0.06-0.11-0.13-0.22-0.19-0.33c-0.1-0.16-0.19-0.33-0.29-0.49
			c-0.06-0.1-0.12-0.2-0.18-0.31c-0.09-0.15-0.18-0.29-0.27-0.44c-0.08-0.13-0.15-0.25-0.23-0.38c-0.1-0.16-0.2-0.32-0.3-0.48
			c-0.02-0.04-0.05-0.07-0.07-0.11c-0.14-0.22-0.28-0.44-0.42-0.66c-0.48-0.74-0.96-1.47-1.46-2.19c-0.12-0.17-0.24-0.34-0.36-0.51
			c-0.06-0.09-0.12-0.17-0.18-0.25c-0.1-0.15-0.21-0.29-0.31-0.44c-0.09-0.12-0.17-0.24-0.26-0.36c-0.08-0.11-0.15-0.21-0.23-0.32
			c-0.15-0.2-0.3-0.4-0.45-0.6c-0.01-0.02-0.02-0.03-0.03-0.04c-0.14-0.2-0.29-0.39-0.44-0.58c-0.09-0.12-0.18-0.23-0.27-0.35
			c-0.37-0.48-0.74-0.95-1.12-1.42c-0.36-0.45-0.73-0.89-1.1-1.33c-0.01-0.01-0.01-0.02-0.02-0.02c-0.13-0.16-0.27-0.31-0.4-0.47
			c-0.08-0.09-0.16-0.19-0.24-0.28c-0.13-0.15-0.26-0.3-0.39-0.45c-0.05-0.07-0.11-0.13-0.17-0.19c-0.12-0.14-0.25-0.28-0.37-0.42
			c-0.11-0.12-0.22-0.24-0.32-0.36c-0.11-0.12-0.22-0.24-0.33-0.36c-0.03-0.03-0.06-0.06-0.09-0.09c-0.06-0.06-0.11-0.12-0.17-0.18
			c-0.12-0.13-0.25-0.27-0.38-0.4c-0.2-0.21-0.4-0.43-0.6-0.64c-0.2-0.2-0.39-0.41-0.59-0.61c-0.25-0.26-0.51-0.52-0.77-0.78v0
			c-0.19-0.19-0.38-0.38-0.58-0.57c-0.15-0.15-0.3-0.29-0.45-0.44c-0.16-0.16-0.33-0.32-0.49-0.47c-0.08-0.08-0.17-0.16-0.25-0.24
			c-0.17-0.16-0.33-0.31-0.5-0.47c-0.17-0.16-0.35-0.32-0.52-0.48c-0.04-0.04-0.09-0.08-0.13-0.12c-0.17-0.16-0.35-0.31-0.52-0.47
			c-0.15-0.13-0.3-0.26-0.44-0.39c-0.09-0.07-0.17-0.15-0.25-0.22c-0.14-0.13-0.29-0.25-0.43-0.37c-0.17-0.15-0.34-0.29-0.51-0.43
			c-0.04-0.04-0.09-0.07-0.13-0.11c-0.21-0.18-0.42-0.35-0.63-0.53c-0.77-0.64-1.56-1.26-2.36-1.87c-0.19-0.14-0.37-0.29-0.56-0.42
			c-0.09-0.07-0.18-0.14-0.27-0.2c-0.14-0.11-0.29-0.22-0.43-0.32c-0.14-0.1-0.27-0.2-0.41-0.3c-0.14-0.1-0.27-0.2-0.41-0.3
			c-0.14-0.1-0.29-0.2-0.43-0.31c-0.14-0.1-0.28-0.2-0.42-0.3c-0.15-0.11-0.31-0.22-0.47-0.32c-0.12-0.08-0.24-0.17-0.37-0.25
			c-0.18-0.13-0.37-0.25-0.55-0.37c-0.08-0.06-0.17-0.11-0.25-0.17c-0.23-0.15-0.46-0.3-0.69-0.45c-0.04-0.03-0.09-0.06-0.13-0.09
			c-0.05-0.08-0.1-0.15-0.15-0.23c4.97,3.18,9.59,6.9,13.82,11.12c0.82,0.82,1.63,1.66,2.41,2.51c6.4,6.95,11.51,14.87,15.21,23.59
			C275.36,105.06,275.45,105.27,275.53,105.47z"/>
		<path d="M282.51,124.9c-0.26-0.19-0.51-0.4-0.73-0.63l0.16,0.15c0.11,0.11,0.23,0.21,0.35,0.3L282.51,124.9z"/>
		<path d="M282.51,124.9c-0.26-0.19-0.51-0.4-0.73-0.63l0.16,0.15c0.11,0.11,0.23,0.21,0.35,0.3L282.51,124.9z"/>
		<path d="M191.05,62.97c0,0.01-0.01,0.02-0.02,0.02C191.04,62.99,191.05,62.98,191.05,62.97L191.05,62.97z"/>
		<path d="M196.75,85.42c0.02,0.02,0.05,0.03,0.07,0.04c-0.01,0-0.01-0.01-0.02-0.01C196.78,85.44,196.77,85.43,196.75,85.42z"/>
		<path d="M196.86,85.48c0.01,0,0.02,0.01,0.02,0.01C196.87,85.49,196.87,85.49,196.86,85.48c-0.01-0.01-0.02-0.01-0.04-0.02
			C196.83,85.47,196.85,85.48,196.86,85.48z"/>
		<path d="M197.35,85.76c-0.03-0.02-0.06-0.03-0.09-0.05c-0.01-0.01-0.02-0.01-0.03-0.02c0.01,0.01,0.02,0.01,0.03,0.02
			C197.29,85.72,197.32,85.74,197.35,85.76z"/>
		<path d="M208.96,88.36l-0.11-0.02l-0.08-0.02c0.03,0,0.06,0.01,0.08,0.02L208.96,88.36z"/>
		<path d="M214.95,89.91c-0.02,0-0.03-0.01-0.04-0.01l0.03,0.01C214.94,89.91,214.95,89.91,214.95,89.91z"/>
		<path d="M189.01,74.39c-0.05-0.24-0.09-0.49-0.12-0.73C188.93,73.9,188.97,74.15,189.01,74.39z"/>
		<polygon points="263.26,125.93 263.25,125.93 263.25,115.08 		"/>
		<path d="M263.25,115.08v10.85h0L263.25,115.08z"/>
		<path d="M196.75,85.42c0.02,0.02,0.05,0.03,0.07,0.04c-0.01,0-0.01-0.01-0.02-0.01C196.78,85.44,196.77,85.43,196.75,85.42z"/>
		<path d="M196.86,85.48c0.01,0,0.02,0.01,0.02,0.01C196.87,85.49,196.87,85.49,196.86,85.48c-0.01-0.01-0.02-0.01-0.04-0.02
			C196.83,85.47,196.85,85.48,196.86,85.48z"/>
		<path d="M197.35,85.76c-0.03-0.02-0.06-0.03-0.09-0.05c-0.01-0.01-0.02-0.01-0.03-0.02c0.01,0.01,0.02,0.01,0.03,0.02
			C197.29,85.72,197.32,85.74,197.35,85.76z"/>
		<path d="M205.86,87.86c-0.01,0-0.03,0-0.04,0l0.02,0L205.86,87.86z"/>
		<path d="M208.44,88.26c0,0-0.01,0-0.01,0c-0.03-0.01-0.07-0.01-0.1-0.02c0.03,0.01,0.06,0.01,0.1,0.02L208.44,88.26z"/>
		<path d="M208.96,88.36l-0.11-0.02l-0.08-0.02c0.03,0,0.06,0.01,0.08,0.02L208.96,88.36z"/>
		<polygon points="210.86,88.76 210.83,88.76 210.77,88.74 210.82,88.75 		"/>
		<path d="M214.95,89.91c-0.02,0-0.03-0.01-0.04-0.01l0.03,0.01C214.94,89.91,214.95,89.91,214.95,89.91z"/>
		<path d="M216.97,90.63c-0.01,0-0.02-0.01-0.03-0.01l-0.01-0.01L216.97,90.63z"/>
		<path d="M217.49,90.83c-0.02-0.01-0.04-0.02-0.06-0.02c-0.02-0.01-0.04-0.02-0.06-0.02C217.41,90.79,217.45,90.81,217.49,90.83z"
			/>
		<path d="M222.02,92.86c-0.18-0.09-0.36-0.18-0.55-0.27c0.05,0.02,0.09,0.05,0.14,0.07C221.75,92.72,221.89,92.79,222.02,92.86z"/>
		<path d="M222.47,93.09c-0.14-0.08-0.29-0.15-0.44-0.23c0,0-0.01,0-0.01-0.01c0,0,0.01,0,0.01,0c0.12,0.06,0.24,0.12,0.35,0.18
			C222.41,93.06,222.44,93.08,222.47,93.09z"/>
		<path d="M222.74,93.23c-0.09-0.05-0.18-0.1-0.27-0.14c0.02,0.01,0.03,0.02,0.05,0.02C222.59,93.15,222.66,93.19,222.74,93.23z"/>
		<path d="M201.32,97.38l0.24,0.23c-0.68-0.56-1.21-1.27-1.55-2.09c-0.07-0.15-0.12-0.31-0.17-0.47c0.05,0.16,0.11,0.32,0.18,0.47
			C200.3,96.21,200.75,96.84,201.32,97.38z"/>
		<path d="M242.6,125.39c0.07-0.03,0.15-0.07,0.22-0.11c-0.03,0.02-0.06,0.03-0.09,0.05C242.69,125.35,242.65,125.37,242.6,125.39z"
			/>
		<path d="M243.17,125.07c0.16-0.1,0.31-0.21,0.46-0.33c-0.25,0.2-0.52,0.38-0.81,0.54c0.11-0.06,0.22-0.13,0.33-0.19c0,0,0,0,0,0
			C243.16,125.08,243.16,125.07,243.17,125.07z"/>
		<path d="M243.79,124.61c0.05-0.04,0.1-0.08,0.14-0.13c-0.1,0.09-0.2,0.18-0.3,0.26c0.05-0.04,0.1-0.08,0.15-0.12
			C243.78,124.61,243.79,124.61,243.79,124.61z"/>
		<path d="M244.13,124.29c-0.06,0.07-0.13,0.13-0.2,0.19c0.05-0.04,0.09-0.09,0.14-0.13C244.09,124.33,244.11,124.31,244.13,124.29z
			"/>
		<path d="M247.02,123.01c0.02,0.07,0.04,0.14,0.06,0.2l0,0C247.06,123.14,247.04,123.07,247.02,123.01z"/>
		<path d="M247.11,123.31l-0.01-0.02l-0.01-0.03l0,0l-0.01-0.02l0-0.02c0,0.01,0,0.01,0.01,0.02L247.11,123.31z"/>
		<path d="M201.32,97.38l0.24,0.23c-0.68-0.56-1.21-1.27-1.55-2.09c-0.07-0.15-0.12-0.31-0.17-0.47c0.05,0.16,0.11,0.32,0.18,0.47
			C200.3,96.21,200.75,96.84,201.32,97.38z"/>
		<path d="M242.6,125.39c0.07-0.03,0.15-0.07,0.22-0.11c-0.03,0.02-0.06,0.03-0.09,0.05C242.69,125.35,242.65,125.37,242.6,125.39z"
			/>
		<path d="M243.17,125.07c0.16-0.1,0.31-0.21,0.46-0.33c-0.25,0.2-0.52,0.38-0.81,0.54c0.11-0.06,0.22-0.13,0.33-0.19c0,0,0,0,0,0
			C243.16,125.08,243.16,125.07,243.17,125.07z"/>
		<path d="M243.79,124.61c0.05-0.04,0.1-0.08,0.14-0.13c-0.1,0.09-0.2,0.18-0.3,0.26c0.05-0.04,0.1-0.08,0.15-0.12
			C243.78,124.61,243.79,124.61,243.79,124.61z"/>
		<path d="M244.13,124.29c-0.06,0.07-0.13,0.13-0.2,0.19c0.05-0.04,0.09-0.09,0.14-0.13C244.09,124.33,244.11,124.31,244.13,124.29z
			"/>
		<path d="M191.05,62.97c0,0.01-0.01,0.02-0.02,0.02C191.04,62.99,191.05,62.98,191.05,62.97L191.05,62.97z"/>
		<path d="M196.75,85.42c0.02,0.02,0.05,0.03,0.07,0.04c-0.01,0-0.01-0.01-0.02-0.01C196.78,85.44,196.77,85.43,196.75,85.42z"/>
		<path d="M196.86,85.48c0.01,0,0.02,0.01,0.02,0.01C196.87,85.49,196.87,85.49,196.86,85.48c-0.01-0.01-0.02-0.01-0.04-0.02
			C196.83,85.47,196.85,85.48,196.86,85.48z"/>
		<path d="M197.35,85.76c-0.03-0.02-0.06-0.03-0.09-0.05c-0.01-0.01-0.02-0.01-0.03-0.02c0.01,0.01,0.02,0.01,0.03,0.02
			C197.29,85.72,197.32,85.74,197.35,85.76z"/>
		<path d="M208.96,88.36l-0.11-0.02l-0.08-0.02c0.03,0,0.06,0.01,0.08,0.02L208.96,88.36z"/>
		<path d="M214.95,89.91c-0.02,0-0.03-0.01-0.04-0.01l0.03,0.01C214.94,89.91,214.95,89.91,214.95,89.91z"/>
		<path d="M189.01,74.39c-0.05-0.24-0.09-0.49-0.12-0.73C188.93,73.9,188.97,74.15,189.01,74.39z"/>
		<polygon points="263.26,125.93 263.25,125.93 263.25,115.08 		"/>
		<path d="M263.25,115.08v10.85h0L263.25,115.08z"/>
		<path d="M188.89,73.66c0.04,0.24,0.08,0.49,0.12,0.73C188.97,74.15,188.93,73.9,188.89,73.66z"/>
		<path d="M191.05,62.97c0,0.01-0.01,0.02-0.02,0.02C191.04,62.99,191.05,62.98,191.05,62.97L191.05,62.97z"/>
		<path d="M263.52,85.44c-0.36-0.45-0.73-0.89-1.1-1.33C262.79,84.55,263.16,84.99,263.52,85.44z"/>
		<path d="M272.15,98.54c-0.26-0.48-0.51-0.96-0.78-1.44C271.64,97.58,271.9,98.06,272.15,98.54z"/>
		<path d="M196.75,85.42c0.02,0.02,0.05,0.03,0.07,0.04c-0.01,0-0.01-0.01-0.02-0.01C196.78,85.44,196.77,85.43,196.75,85.42z"/>
		<path d="M196.86,85.48c0.01,0,0.02,0.01,0.02,0.01C196.87,85.49,196.87,85.49,196.86,85.48L196.86,85.48z"/>
		<path d="M197.35,85.76c-0.03-0.02-0.06-0.03-0.09-0.05v0C197.29,85.72,197.32,85.74,197.35,85.76z"/>
		<path d="M205.86,87.86c-0.01,0-0.03,0-0.04,0l0.02,0L205.86,87.86z"/>
		<path d="M208.44,88.26c0,0-0.01,0-0.01,0l0,0L208.44,88.26z"/>
		<path d="M208.96,88.36l-0.11-0.02l-0.08-0.02c0.03,0,0.06,0.01,0.08,0.02L208.96,88.36z"/>
		<polygon points="210.86,88.76 210.83,88.76 210.77,88.74 210.82,88.75 		"/>
		<path d="M214.95,89.91c-0.02,0-0.03-0.01-0.04-0.01l0.03,0.01C214.94,89.91,214.95,89.91,214.95,89.91z"/>
		<path d="M216.97,90.63c-0.01,0-0.02-0.01-0.03-0.01l-0.01-0.01L216.97,90.63z"/>
		<path d="M217.38,90.78c0.04,0.01,0.08,0.03,0.12,0.05c-0.02-0.01-0.04-0.02-0.06-0.02C217.41,90.8,217.39,90.79,217.38,90.78z"/>
		<path d="M222.03,92.86c0.12,0.06,0.24,0.12,0.35,0.18C222.27,92.99,222.15,92.93,222.03,92.86L222.03,92.86z"/>
		<path d="M247.08,123.21c0,0.01,0,0.01,0.01,0.02h0L247.08,123.21z"/>
		<polygon points="247.09,123.23 247.11,123.31 247.1,123.28 247.1,123.26 247.09,123.25 		"/>
		<path d="M262.74,136.77c0.17,0,0.34,0.01,0.51,0.01h-10.84l0-4.13c0.07,0.06,0.13,0.11,0.2,0.17c0.09,0.08,0.19,0.16,0.29,0.24
			c0.01,0.01,0.02,0.02,0.03,0.03c0.3,0.24,0.61,0.48,0.92,0.7c0,0,0,0,0,0c0.11,0.07,0.22,0.15,0.33,0.22
			c0.11,0.07,0.22,0.14,0.33,0.22c0.1,0.07,0.21,0.13,0.32,0.2c0.01,0.01,0.02,0.01,0.03,0.02c0.17,0.1,0.34,0.2,0.51,0.29
			c0.17,0.09,0.34,0.19,0.52,0.27c0.11,0.06,0.23,0.11,0.34,0.17c0.02,0.01,0.03,0.02,0.05,0.02c0.11,0.05,0.22,0.1,0.33,0.15
			c0.24,0.11,0.48,0.21,0.73,0.31c0.15,0.06,0.31,0.12,0.46,0.17c0.08,0.03,0.15,0.06,0.23,0.08c0.04,0.02,0.08,0.03,0.12,0.04
			c0.09,0.03,0.18,0.06,0.27,0.09c0.02,0.01,0.05,0.01,0.07,0.02c0.1,0.03,0.2,0.06,0.29,0.09c0.38,0.11,0.76,0.2,1.15,0.29
			c0.06,0.01,0.12,0.03,0.19,0.04l0.17,0.03c0.08,0.02,0.16,0.03,0.24,0.04c0.02,0,0.04,0.01,0.06,0.01
			c0.09,0.02,0.19,0.03,0.29,0.04c0.22,0.03,0.45,0.06,0.68,0.09c0.07,0.01,0.14,0.02,0.21,0.02c0.07,0.01,0.13,0.01,0.2,0.02
			c0.06,0.01,0.11,0.01,0.17,0.01c0.06,0.01,0.12,0.01,0.18,0.01c0.07,0,0.13,0.01,0.2,0.01
			C262.58,136.77,262.66,136.77,262.74,136.77z"/>
		<path d="M199.59,71.77c0-0.04,0-0.07-0.01-0.11c0,0.01,0,0.02,0,0.04L199.59,71.77z"/>
		<path d="M199.66,70.43c0,0.04-0.01,0.07-0.02,0.11l-0.01,0.06l-0.02,0.09c0-0.02,0-0.04,0.01-0.06c0-0.02,0-0.04,0.01-0.06
			c0-0.01,0-0.01,0-0.02C199.65,70.5,199.65,70.46,199.66,70.43z"/>
		<path d="M199.68,72.41c0-0.01,0-0.02-0.01-0.03l-0.01-0.05C199.67,72.36,199.68,72.39,199.68,72.41z"/>
		<path d="M199.77,72.79c0-0.01-0.01-0.02-0.01-0.02c-0.01-0.03-0.02-0.07-0.02-0.1C199.74,72.7,199.76,72.74,199.77,72.79z"/>
		<path d="M199.93,69.43l-0.04,0.1c0,0.01-0.01,0.01-0.01,0.02c0,0.01-0.01,0.02-0.01,0.02c0,0,0-0.01,0-0.02
			C199.9,69.52,199.91,69.47,199.93,69.43z"/>
		<path d="M199.96,69.36c0.01-0.02,0.01-0.03,0.02-0.04c-0.01,0.02-0.02,0.04-0.02,0.06C199.95,69.37,199.95,69.37,199.96,69.36z"/>
		<path d="M200.01,69.22l-0.01,0.02c-0.01,0.01-0.01,0.03-0.02,0.04C200,69.26,200,69.24,200.01,69.22z"/>
		<path d="M200.21,73.93l-0.02-0.04l-0.02-0.05c-0.02-0.03-0.03-0.06-0.04-0.1C200.15,73.8,200.18,73.86,200.21,73.93z"/>
		<path d="M200.32,74.11c-0.05-0.08-0.07-0.12-0.07-0.13l-0.03-0.05C200.25,73.99,200.28,74.05,200.32,74.11z"/>
		<path d="M200.45,74.32l-0.02-0.02c-0.01-0.02-0.02-0.04-0.03-0.05c0-0.01-0.01-0.02-0.02-0.04
			C200.4,74.24,200.42,74.28,200.45,74.32z"/>
		<path d="M200.56,74.49c-0.04-0.05-0.07-0.11-0.11-0.16l0.04,0.06L200.56,74.49z"/>
		<path d="M200.81,67.9l-0.56,0.83c-0.04,0.06-0.07,0.13-0.1,0.19c-0.03,0.06-0.06,0.13-0.09,0.19l-0.04,0.09l0,0c0,0,0-0.01,0-0.01
			c0-0.01,0-0.01,0.01-0.02c0,0,0,0,0,0c0.02-0.06,0.05-0.11,0.07-0.17c0,0,0,0,0,0c0-0.01,0.01-0.02,0.01-0.03
			c0-0.01,0.01-0.02,0.02-0.03c0.01-0.02,0.02-0.04,0.03-0.06c0.06-0.12,0.12-0.23,0.19-0.34c0.02-0.03,0.04-0.06,0.05-0.09
			c0.02-0.04,0.04-0.07,0.07-0.11c0.01-0.02,0.02-0.03,0.03-0.05c0,0,0-0.01,0.01-0.01c0.03-0.04,0.06-0.09,0.09-0.13
			C200.68,68.06,200.75,67.98,200.81,67.9z"/>
		<path d="M200.69,74.68l-0.04-0.05l-0.02-0.03C200.65,74.62,200.67,74.65,200.69,74.68z"/>
		<path d="M257.7,95.52h-0.14c-2.28-3.19-4.84-6.2-7.65-9.01c-0.63-0.62-1.26-1.24-1.91-1.84h0.16c0.62,0.57,1.23,1.16,1.83,1.76
			C252.82,89.26,255.4,92.3,257.7,95.52z"/>
		<path d="M260.57,125.23c-0.17-0.1-0.34-0.2-0.5-0.32c0.07,0.05,0.15,0.1,0.22,0.15c0.03,0.02,0.07,0.04,0.07,0.04l0.09,0.05
			C260.49,125.18,260.53,125.2,260.57,125.23z"/>
		<path d="M261.66,125.69c-0.07-0.02-0.14-0.04-0.2-0.07l0.09,0.03l0.07,0.02L261.66,125.69z"/>
		<path d="M262.66,125.9l-0.03,0c-0.01,0-0.03,0-0.04,0C262.62,125.9,262.64,125.9,262.66,125.9z"/>
		<path d="M262.76,125.91c-0.03,0-0.06,0-0.09-0.01l0.08,0L262.76,125.91z"/>
		<path d="M263.03,125.93c-0.02,0-0.05,0-0.07-0.01l0.03,0L263.03,125.93z"/>
		<path d="M263.25,125.93c-0.05,0-0.11,0-0.16,0l-0.04,0C263.12,125.93,263.19,125.93,263.25,125.93z"/>
		<polygon points="263.26,125.93 263.25,125.93 263.25,115.08 		"/>
		<path d="M263.69,125.92l-0.06,0.01l-0.08,0C263.6,125.92,263.64,125.92,263.69,125.92z"/>
		<path d="M263.96,125.89l-0.08,0.01c0,0-0.04,0-0.08,0.01C263.86,125.9,263.91,125.9,263.96,125.89z"/>
		<path d="M266.71,124.71l-0.02,0.02c-0.02,0.02-0.05,0.04-0.08,0.07l-0.08,0.06c-0.08,0.06-0.15,0.11-0.23,0.17l-0.16,0.1
			l-0.04,0.02l-0.02,0.02c-0.03,0.02-0.06,0.04-0.1,0.06l-0.21,0.11l-0.19,0.1c-0.05,0.02-0.09,0.04-0.13,0.06l-0.08,0.04
			l-0.21,0.08l-0.1,0.04l-0.12,0.04l-0.08,0.02l-0.05,0.02l-0.09,0.02c-0.04,0.01-0.08,0.02-0.12,0.03l-0.04,0.01l-0.1,0.02
			l-0.1,0.02c-0.12,0.02-0.24,0.04-0.37,0.06C265.01,125.75,265.95,125.33,266.71,124.71z"/>
		<path d="M273.89,132.86c0.07-0.06,0.14-0.12,0.21-0.18v4.11h-10.84c0.13,0,0.26,0,0.39,0h0.01c0.1,0,0.21-0.01,0.31-0.01
			c0.04,0,0.08,0,0.13-0.01c0.11,0,0.21-0.01,0.32-0.02c0.05,0,0.11-0.01,0.16-0.01c0.05,0,0.11-0.01,0.16-0.01
			c0.06,0,0.12-0.01,0.18-0.02c0.11-0.01,0.23-0.02,0.34-0.04c0.43-0.05,0.85-0.12,1.27-0.2c0.08-0.02,0.15-0.03,0.22-0.05
			c0.15-0.03,0.3-0.07,0.45-0.1c0.17-0.04,0.34-0.09,0.51-0.13c0.1-0.03,0.2-0.06,0.3-0.09c0.07-0.02,0.14-0.04,0.21-0.06
			c0.08-0.02,0.15-0.05,0.23-0.07c0.08-0.03,0.16-0.05,0.24-0.08c0.07-0.02,0.14-0.05,0.22-0.08c0.09-0.03,0.18-0.07,0.27-0.1
			c0.04-0.02,0.08-0.03,0.12-0.05c0.04-0.01,0.07-0.03,0.11-0.04c0.09-0.04,0.18-0.07,0.27-0.11c0.13-0.05,0.26-0.11,0.38-0.17
			c0.11-0.05,0.22-0.1,0.34-0.16c0.05-0.03,0.11-0.05,0.16-0.08c0.08-0.04,0.16-0.08,0.24-0.13c0.01,0,0.01,0,0.02-0.01
			c0.04-0.02,0.09-0.04,0.13-0.07c0.01,0,0.02-0.01,0.02-0.01c0.07-0.04,0.15-0.08,0.22-0.12c0.02-0.01,0.05-0.03,0.07-0.04
			s0.05-0.03,0.07-0.04c0.11-0.07,0.23-0.13,0.34-0.2c0.09-0.05,0.18-0.11,0.26-0.16c0.01-0.01,0.02-0.01,0.03-0.02
			c0.04-0.02,0.08-0.05,0.12-0.07c0.35-0.22,0.69-0.46,1.02-0.71c0.06-0.04,0.12-0.09,0.17-0.13
			C273.47,133.21,273.68,133.03,273.89,132.86z"/>
		<path d="M274.43,132.37l0.04-0.04c0,0-0.01,0.01-0.01,0.01C274.45,132.35,274.45,132.35,274.43,132.37
			C274.44,132.36,274.44,132.36,274.43,132.37z"/>
		<polygon points="274.49,132.31 274.49,132.31 274.49,132.31 274.49,132.31 		"/>
		<path d="M274.51,132.29C274.51,132.29,274.51,132.29,274.51,132.29c0,0.01-0.01,0.01-0.01,0.01
			C274.5,132.3,274.51,132.3,274.51,132.29z"/>
		<path d="M274.63,132.18c0.04-0.04,0.09-0.09,0.13-0.13c-0.05,0.05-0.1,0.1-0.14,0.14C274.62,132.19,274.62,132.18,274.63,132.18z"
			/>
		<path d="M199.59,71.77c0-0.04,0-0.07-0.01-0.11c0,0.01,0,0.02,0,0.04L199.59,71.77z"/>
		<path d="M199.66,70.43c0,0.04-0.01,0.07-0.02,0.11l-0.01,0.06l-0.02,0.09c0-0.02,0-0.04,0.01-0.06c0-0.02,0-0.04,0.01-0.06
			c0-0.01,0-0.01,0-0.02C199.65,70.5,199.65,70.46,199.66,70.43z"/>
		<path d="M199.93,69.43l-0.04,0.1c0,0.01-0.01,0.01-0.01,0.02c0,0.01-0.01,0.02-0.01,0.02c0,0,0-0.01,0-0.02
			C199.9,69.52,199.91,69.47,199.93,69.43z"/>
		<path d="M199.96,69.36c0.01-0.02,0.01-0.03,0.02-0.04c-0.01,0.02-0.02,0.04-0.02,0.06C199.95,69.37,199.95,69.37,199.96,69.36z"/>
		<path d="M200.01,69.22l-0.01,0.02c-0.01,0.01-0.01,0.03-0.02,0.04C200,69.26,200,69.24,200.01,69.22z"/>
		<path d="M200.56,74.49c-0.04-0.05-0.07-0.11-0.11-0.16l0.04,0.06L200.56,74.49z"/>
		<path d="M200.81,67.9l-0.56,0.83c-0.04,0.06-0.07,0.13-0.1,0.19c-0.03,0.06-0.06,0.13-0.09,0.19l-0.04,0.09l0,0c0,0,0-0.01,0-0.01
			c0-0.01,0-0.01,0.01-0.02c0,0,0,0,0,0c0.02-0.06,0.05-0.11,0.07-0.17c0,0,0,0,0,0c0-0.01,0.01-0.02,0.01-0.03
			c0-0.01,0.01-0.02,0.02-0.03c0.01-0.02,0.02-0.04,0.03-0.06c0.06-0.12,0.12-0.23,0.19-0.34c0.02-0.03,0.04-0.06,0.05-0.09
			c0.02-0.04,0.04-0.07,0.07-0.11c0.01-0.02,0.02-0.03,0.03-0.05c0,0,0.01-0.01,0.01-0.01c0.03-0.04,0.06-0.09,0.09-0.13
			C200.68,68.06,200.75,67.98,200.81,67.9z"/>
		<path d="M260.57,125.23c-0.17-0.1-0.34-0.2-0.5-0.32c0.07,0.05,0.15,0.1,0.22,0.15c0.03,0.02,0.07,0.04,0.07,0.04l0.09,0.05
			C260.49,125.18,260.53,125.2,260.57,125.23z"/>
		<path d="M261.66,125.69c-0.07-0.02-0.14-0.04-0.2-0.07l0.09,0.03l0.07,0.02L261.66,125.69z"/>
		<path d="M262.76,125.91c-0.03,0-0.06,0-0.09-0.01l0.08,0L262.76,125.91z"/>
		<path d="M263.03,125.93c-0.02,0-0.05,0-0.07-0.01l0.03,0L263.03,125.93z"/>
		<polygon class="st0" points="263.26,125.93 263.25,125.93 263.25,115.08 		"/>
	</g>
</g>
</svg>
