<?xml version="1.0" encoding="utf-8"?>
<!-- Generator: Adobe Illustrator 23.0.1, SVG Export Plug-In . SVG Version: 6.00 Build 0)  -->
<svg version="1.1" id="Layer_1" xmlns="http://www.w3.org/2000/svg" xmlns:xlink="http://www.w3.org/1999/xlink" x="0px" y="0px"
	 viewBox="0 0 300 300" style="enable-background:new 0 0 300 300;" xml:space="preserve">
<style type="text/css">
	.st0{stroke:#000000;stroke-width:3;stroke-miterlimit:10;}
	.st1{fill:#E3E3E3;}
</style>
<path d="M260.47,71.8v3.65c0,4.27-2.1,8.14-5.48,10.94c-2.5,2.07-5.71,3.56-9.29,4.19c-1.27,0.22-2.59,0.35-3.94,0.35
	c-2.2,0-4.3-0.31-6.26-0.89c-7.26-2.13-12.45-7.86-12.45-14.59c0,4.27-2.09,8.14-5.49,10.94c-0.43,0.36-0.89,0.7-1.36,1.02
	c-3.23,2.2-7.36,3.52-11.87,3.52c-10.33,0-18.72-6.93-18.72-15.48c0,4.27-2.09,8.14-5.47,10.94c-3.39,2.81-8.07,4.54-13.24,4.54
	c-10.34,0-18.71-6.93-18.71-15.48c0,4.27-2.1,8.14-5.48,10.94c-3.39,2.81-8.07,4.54-13.24,4.54c-4.51,0-8.64-1.32-11.87-3.51
	c-4.18-2.84-6.84-7.15-6.84-11.97c0,4.27-2.1,8.14-5.48,10.94c-1.95,1.62-4.33,2.88-6.98,3.65c-1.96,0.58-4.07,0.89-6.26,0.89
	c-1.35,0-2.67-0.13-3.94-0.35c-8.45-1.49-14.77-7.7-14.77-15.13V71.8l2.83-11.82l6.52-27.28c1.52-6.34,7.19-10.82,13.71-10.82
	h141.02c6.53,0,12.2,4.48,13.71,10.82l6.53,27.28L260.47,71.8z"/>
<path d="M260.47,71.8v3.65c0,4.27-2.1,8.14-5.48,10.94c-2.5,2.07-5.71,3.56-9.29,4.19c-1.27,0.22-2.59,0.35-3.94,0.35
	c-2.2,0-4.3-0.31-6.26-0.89c-7.26-2.13-12.45-7.86-12.45-14.59c0,4.27-2.09,8.14-5.49,10.94c-0.43,0.36-0.89,0.7-1.36,1.02
	c-3.23,2.2-7.36,3.52-11.87,3.52c-10.33,0-18.72-6.93-18.72-15.48c0,4.27-2.09,8.14-5.47,10.94c-3.39,2.81-8.07,4.54-13.24,4.54
	c-10.34,0-18.71-6.93-18.71-15.48c0,4.27-2.1,8.14-5.48,10.94c-3.39,2.81-8.07,4.54-13.24,4.54c-4.51,0-8.64-1.32-11.87-3.51
	c-4.18-2.84-6.84-7.15-6.84-11.97c0,4.27-2.1,8.14-5.48,10.94c-1.95,1.62-4.33,2.88-6.98,3.65c-1.96,0.58-4.07,0.89-6.26,0.89
	c-1.35,0-2.67-0.13-3.94-0.35c-8.45-1.49-14.77-7.7-14.77-15.13V71.8l2.83-11.82l6.52-27.28c1.52-6.34,7.19-10.82,13.71-10.82
	h141.02c6.53,0,12.2,4.48,13.71,10.82l6.53,27.28L260.47,71.8z"/>
<path d="M117.6,69.2v18.22c-4.18-2.84-6.84-7.15-6.84-11.97c0,4.27-2.1,8.14-5.48,10.94c-1.95,1.62-4.33,2.88-6.98,3.65V69.2H117.6z
	"/>
<path d="M117.6,98.64v41.38H98.3v-39.7c4.6-0.89,8.89-2.79,12.49-5.54C112.83,96.33,115.12,97.64,117.6,98.64z"/>
<path d="M235.5,69.2v20.84c-7.26-2.13-12.45-7.86-12.45-14.59c0,4.27-2.09,8.14-5.49,10.94c-0.43,0.36-0.89,0.7-1.36,1.02V69.2
	H235.5z"/>
<path d="M235.5,100.31v39.71h-19.3V98.67c2.48-0.99,4.79-2.29,6.87-3.89C226.58,97.45,230.83,99.39,235.5,100.31z"/>
<path d="M215.01,179.11c-0.39-0.38-1.06-0.85-2.05-0.85h-92.12c-0.9,0-1.7,0.41-2.23,1.06c-0.11,0.14-0.22,0.3-0.31,0.46
	c-0.14,0.25-0.23,0.51-0.29,0.8c-0.04,0.18-0.06,0.38-0.06,0.58c0,0.25,0.03,0.47,0.08,0.68c0.12,0.52,0.36,0.91,0.61,1.2
	c0.05,0.06,0.1,0.11,0.15,0.16c0.39,0.39,1.06,0.85,2.05,0.85h92.12c1.59,0,2.89-1.3,2.89-2.89
	C215.85,180.11,215.32,179.42,215.01,179.11z M215.01,179.11c-0.39-0.38-1.06-0.85-2.05-0.85h-92.12c-0.9,0-1.7,0.41-2.23,1.06
	c-0.11,0.14-0.22,0.3-0.31,0.46c-0.14,0.25-0.23,0.51-0.29,0.8c-0.04,0.18-0.06,0.38-0.06,0.58c0,0.25,0.03,0.47,0.08,0.68
	c0.12,0.52,0.36,0.91,0.61,1.2c0.05,0.06,0.1,0.11,0.15,0.16c0.39,0.39,1.06,0.85,2.05,0.85h92.12c1.59,0,2.89-1.3,2.89-2.89
	C215.85,180.11,215.32,179.42,215.01,179.11z M215.01,179.11c-0.39-0.38-1.06-0.85-2.05-0.85h-92.12c-0.9,0-1.7,0.41-2.23,1.06
	c-0.11,0.14-0.22,0.3-0.31,0.46c-0.14,0.25-0.23,0.51-0.29,0.8c-0.04,0.18-0.06,0.38-0.06,0.58c0,0.25,0.03,0.47,0.08,0.68
	c0.12,0.52,0.36,0.91,0.61,1.2c0.05,0.06,0.1,0.11,0.15,0.16c0.39,0.39,1.06,0.85,2.05,0.85h92.12c1.59,0,2.89-1.3,2.89-2.89
	C215.85,180.11,215.32,179.42,215.01,179.11z M215.01,179.11c-0.39-0.38-1.06-0.85-2.05-0.85h-92.12c-0.9,0-1.7,0.41-2.23,1.06
	c-0.11,0.14-0.22,0.3-0.31,0.46c-0.14,0.25-0.23,0.51-0.29,0.8c-0.04,0.18-0.06,0.38-0.06,0.58c0,0.25,0.03,0.47,0.08,0.68
	c0.12,0.52,0.36,0.91,0.61,1.2c0.05,0.06,0.1,0.11,0.15,0.16c0.39,0.39,1.06,0.85,2.05,0.85h92.12c1.59,0,2.89-1.3,2.89-2.89
	C215.85,180.11,215.32,179.42,215.01,179.11z M215.01,179.11c-0.39-0.38-1.06-0.85-2.05-0.85h-92.12c-0.9,0-1.7,0.41-2.23,1.06
	c-0.11,0.14-0.22,0.3-0.31,0.46c-0.14,0.25-0.23,0.51-0.29,0.8c-0.04,0.18-0.06,0.38-0.06,0.58c0,0.25,0.03,0.47,0.08,0.68
	c0.12,0.52,0.36,0.91,0.61,1.2c0.05,0.06,0.1,0.11,0.15,0.16c0.39,0.39,1.06,0.85,2.05,0.85h92.12c1.59,0,2.89-1.3,2.89-2.89
	C215.85,180.11,215.32,179.42,215.01,179.11z M215.01,179.11c-0.39-0.38-1.06-0.85-2.05-0.85h-92.12c-0.9,0-1.7,0.41-2.23,1.06
	c-0.11,0.14-0.22,0.3-0.31,0.46c-0.14,0.25-0.23,0.51-0.29,0.8c-0.04,0.18-0.06,0.38-0.06,0.58c0,0.25,0.03,0.47,0.08,0.68
	c0.12,0.52,0.36,0.91,0.61,1.2c0.05,0.06,0.1,0.11,0.15,0.16c0.39,0.39,1.06,0.85,2.05,0.85h92.12c1.59,0,2.89-1.3,2.89-2.89
	C215.85,180.11,215.32,179.42,215.01,179.11z M215.01,179.11c-0.39-0.38-1.06-0.85-2.05-0.85h-92.12c-0.9,0-1.7,0.41-2.23,1.06
	c-0.11,0.14-0.22,0.3-0.31,0.46c-0.14,0.25-0.23,0.51-0.29,0.8c-0.04,0.18-0.06,0.38-0.06,0.58c0,0.25,0.03,0.47,0.08,0.68
	c0.12,0.52,0.36,0.91,0.61,1.2c0.05,0.06,0.1,0.11,0.15,0.16c0.39,0.39,1.06,0.85,2.05,0.85h92.12c1.59,0,2.89-1.3,2.89-2.89
	C215.85,180.11,215.32,179.42,215.01,179.11z M215.01,179.11c-0.39-0.38-1.06-0.85-2.05-0.85h-92.12c-0.9,0-1.7,0.41-2.23,1.06
	c-0.11,0.14-0.22,0.3-0.31,0.46c-0.14,0.25-0.23,0.51-0.29,0.8c-0.04,0.18-0.06,0.38-0.06,0.58c0,0.25,0.03,0.47,0.08,0.68
	c0.12,0.52,0.36,0.91,0.61,1.2c0.05,0.06,0.1,0.11,0.15,0.16c0.39,0.39,1.06,0.85,2.05,0.85h92.12c1.59,0,2.89-1.3,2.89-2.89
	C215.85,180.11,215.32,179.42,215.01,179.11z M215.01,179.11c-0.39-0.38-1.06-0.85-2.05-0.85h-92.12c-0.9,0-1.7,0.41-2.23,1.06
	c-0.11,0.14-0.22,0.3-0.31,0.46c-0.14,0.25-0.23,0.51-0.29,0.8c-0.04,0.18-0.06,0.38-0.06,0.58c0,0.25,0.03,0.47,0.08,0.68
	c0.12,0.52,0.36,0.91,0.61,1.2c0.05,0.06,0.1,0.11,0.15,0.16c0.39,0.39,1.06,0.85,2.05,0.85h92.12c1.59,0,2.89-1.3,2.89-2.89
	C215.85,180.11,215.32,179.42,215.01,179.11z M215.01,179.11c-0.39-0.38-1.06-0.85-2.05-0.85h-92.12c-0.9,0-1.7,0.41-2.23,1.06
	c-0.11,0.14-0.22,0.3-0.31,0.46c-0.14,0.25-0.23,0.51-0.29,0.8c-0.04,0.18-0.06,0.38-0.06,0.58c0,0.25,0.03,0.47,0.08,0.68
	c0.12,0.52,0.36,0.91,0.61,1.2c0.05,0.06,0.1,0.11,0.15,0.16c0.39,0.39,1.06,0.85,2.05,0.85h92.12c1.59,0,2.89-1.3,2.89-2.89
	C215.85,180.11,215.32,179.42,215.01,179.11z M215.01,179.11c-0.39-0.38-1.06-0.85-2.05-0.85h-92.12c-0.9,0-1.7,0.41-2.23,1.06
	c-0.11,0.14-0.22,0.3-0.31,0.46c-0.14,0.25-0.23,0.51-0.29,0.8c-0.04,0.18-0.06,0.38-0.06,0.58c0,0.25,0.03,0.47,0.08,0.68
	c0.12,0.52,0.36,0.91,0.61,1.2c0.05,0.06,0.1,0.11,0.15,0.16c0.39,0.39,1.06,0.85,2.05,0.85h92.12c1.59,0,2.89-1.3,2.89-2.89
	C215.85,180.11,215.32,179.42,215.01,179.11z M215.01,179.11c-0.39-0.38-1.06-0.85-2.05-0.85h-92.12c-0.9,0-1.7,0.41-2.23,1.06
	c-0.11,0.14-0.22,0.3-0.31,0.46c-0.14,0.25-0.23,0.51-0.29,0.8c-0.04,0.18-0.06,0.38-0.06,0.58c0,0.25,0.03,0.47,0.08,0.68
	c0.12,0.52,0.36,0.91,0.61,1.2c0.05,0.06,0.1,0.11,0.15,0.16c0.39,0.39,1.06,0.85,2.05,0.85h92.12c1.59,0,2.89-1.3,2.89-2.89
	C215.85,180.11,215.32,179.42,215.01,179.11z M215.01,179.11c-0.39-0.38-1.06-0.85-2.05-0.85h-92.12c-0.9,0-1.7,0.41-2.23,1.06
	c-0.11,0.14-0.22,0.3-0.31,0.46c-0.14,0.25-0.23,0.51-0.29,0.8c-0.04,0.18-0.06,0.38-0.06,0.58c0,0.25,0.03,0.47,0.08,0.68
	c0.12,0.52,0.36,0.91,0.61,1.2c0.05,0.06,0.1,0.11,0.15,0.16c0.39,0.39,1.06,0.85,2.05,0.85h92.12c1.59,0,2.89-1.3,2.89-2.89
	C215.85,180.11,215.32,179.42,215.01,179.11z M215.01,179.11c-0.39-0.38-1.06-0.85-2.05-0.85h-92.12c-0.9,0-1.7,0.41-2.23,1.06
	c-0.11,0.14-0.22,0.3-0.31,0.46c-0.14,0.25-0.23,0.51-0.29,0.8c-0.04,0.18-0.06,0.38-0.06,0.58c0,0.25,0.03,0.47,0.08,0.68
	c0.12,0.52,0.36,0.91,0.61,1.2c0.05,0.06,0.1,0.11,0.15,0.16c0.39,0.39,1.06,0.85,2.05,0.85h92.12c1.59,0,2.89-1.3,2.89-2.89
	C215.85,180.11,215.32,179.42,215.01,179.11z M215.01,179.11c-0.39-0.38-1.06-0.85-2.05-0.85h-92.12c-0.9,0-1.7,0.41-2.23,1.06
	c-0.11,0.14-0.22,0.3-0.31,0.46c-0.14,0.25-0.23,0.51-0.29,0.8c-0.04,0.18-0.06,0.38-0.06,0.58c0,0.25,0.03,0.47,0.08,0.68
	c0.12,0.52,0.36,0.91,0.61,1.2c0.05,0.06,0.1,0.11,0.15,0.16c0.39,0.39,1.06,0.85,2.05,0.85h92.12c1.59,0,2.89-1.3,2.89-2.89
	C215.85,180.11,215.32,179.42,215.01,179.11z M215.01,179.11c-0.39-0.38-1.06-0.85-2.05-0.85h-92.12c-0.9,0-1.7,0.41-2.23,1.06
	c-0.11,0.14-0.22,0.3-0.31,0.46c-0.14,0.25-0.23,0.51-0.29,0.8c-0.04,0.18-0.06,0.38-0.06,0.58c0,0.25,0.03,0.47,0.08,0.68
	c0.12,0.52,0.36,0.91,0.61,1.2c0.05,0.06,0.1,0.11,0.15,0.16c0.39,0.39,1.06,0.85,2.05,0.85h92.12c1.59,0,2.89-1.3,2.89-2.89
	C215.85,180.11,215.32,179.42,215.01,179.11z M215.01,179.11c-0.39-0.38-1.06-0.85-2.05-0.85h-92.12c-0.9,0-1.7,0.41-2.23,1.06
	c-0.11,0.14-0.22,0.3-0.31,0.46c-0.14,0.25-0.23,0.51-0.29,0.8c-0.04,0.18-0.06,0.38-0.06,0.58c0,0.25,0.03,0.47,0.08,0.68
	c0.12,0.52,0.36,0.91,0.61,1.2c0.05,0.06,0.1,0.11,0.15,0.16c0.39,0.39,1.06,0.85,2.05,0.85h92.12c1.59,0,2.89-1.3,2.89-2.89
	C215.85,180.11,215.32,179.42,215.01,179.11z M215.01,179.11c-0.39-0.38-1.06-0.85-2.05-0.85h-92.12c-0.9,0-1.7,0.41-2.23,1.06
	c-0.11,0.14-0.22,0.3-0.31,0.46c-0.14,0.25-0.23,0.51-0.29,0.8c-0.04,0.18-0.06,0.38-0.06,0.58c0,0.25,0.03,0.47,0.08,0.68
	c0.12,0.52,0.36,0.91,0.61,1.2c0.05,0.06,0.1,0.11,0.15,0.16c0.39,0.39,1.06,0.85,2.05,0.85h92.12c1.59,0,2.89-1.3,2.89-2.89
	C215.85,180.11,215.32,179.42,215.01,179.11z M215.01,179.11c-0.39-0.38-1.06-0.85-2.05-0.85h-92.12c-0.9,0-1.7,0.41-2.23,1.06
	c-0.11,0.14-0.22,0.3-0.31,0.46c-0.14,0.25-0.23,0.51-0.29,0.8c-0.04,0.18-0.06,0.38-0.06,0.58c0,0.25,0.03,0.47,0.08,0.68
	c0.12,0.52,0.36,0.91,0.61,1.2c0.05,0.06,0.1,0.11,0.15,0.16c0.39,0.39,1.06,0.85,2.05,0.85h92.12c1.59,0,2.89-1.3,2.89-2.89
	C215.85,180.11,215.32,179.42,215.01,179.11z M215.01,179.11c-0.39-0.38-1.06-0.85-2.05-0.85h-92.12c-0.9,0-1.7,0.41-2.23,1.06
	c-0.11,0.14-0.22,0.3-0.31,0.46c-0.14,0.25-0.23,0.51-0.29,0.8c-0.04,0.18-0.06,0.38-0.06,0.58c0,0.25,0.03,0.47,0.08,0.68
	c0.12,0.52,0.36,0.91,0.61,1.2c0.05,0.06,0.1,0.11,0.15,0.16c0.39,0.39,1.06,0.85,2.05,0.85h92.12c1.59,0,2.89-1.3,2.89-2.89
	C215.85,180.11,215.32,179.42,215.01,179.11z M215.01,179.11c-0.39-0.38-1.06-0.85-2.05-0.85h-92.12c-0.9,0-1.7,0.41-2.23,1.06
	c-0.11,0.14-0.22,0.3-0.31,0.46c-0.14,0.25-0.23,0.51-0.29,0.8c-0.04,0.18-0.06,0.38-0.06,0.58c0,0.25,0.03,0.47,0.08,0.68
	c0.12,0.52,0.36,0.91,0.61,1.2c0.05,0.06,0.1,0.11,0.15,0.16c0.39,0.39,1.06,0.85,2.05,0.85h92.12c1.59,0,2.89-1.3,2.89-2.89
	C215.85,180.11,215.32,179.42,215.01,179.11z M215.01,179.11c-0.39-0.38-1.06-0.85-2.05-0.85h-92.12c-0.9,0-1.7,0.41-2.23,1.06
	c-0.11,0.14-0.22,0.3-0.31,0.46c-0.14,0.25-0.23,0.51-0.29,0.8c-0.04,0.18-0.06,0.38-0.06,0.58c0,0.25,0.03,0.47,0.08,0.68
	c0.12,0.52,0.36,0.91,0.61,1.2c0.05,0.06,0.1,0.11,0.15,0.16c0.39,0.39,1.06,0.85,2.05,0.85h92.12c1.59,0,2.89-1.3,2.89-2.89
	C215.85,180.11,215.32,179.42,215.01,179.11z"/>
<path d="M215.01,179.11c-0.39-0.38-1.06-0.85-2.05-0.85h-92.12c-0.9,0-1.7,0.41-2.23,1.06c-0.11,0.14-0.22,0.3-0.31,0.46
	c-0.14,0.25-0.23,0.51-0.29,0.8c-0.04,0.18-0.06,0.38-0.06,0.58c0,0.25,0.03,0.47,0.08,0.68c0.12,0.52,0.36,0.91,0.61,1.2
	c0.05,0.06,0.1,0.11,0.15,0.16c0.39,0.39,1.06,0.85,2.05,0.85h92.12c1.59,0,2.89-1.3,2.89-2.89
	C215.85,180.11,215.32,179.42,215.01,179.11z M218.42,218.65c-0.04,0.01-0.09,0.02-0.13,0.04c0.17-0.05,0.34-0.09,0.51-0.13
	C218.67,218.59,218.54,218.62,218.42,218.65z M232.58,218.49c-0.14-0.03-0.29-0.06-0.44-0.09c0.25,0.05,0.51,0.11,0.76,0.17
	C232.79,218.54,232.69,218.51,232.58,218.49z M233.48,218.71c-0.2-0.05-0.39-0.1-0.58-0.14c0.26,0.06,0.51,0.13,0.77,0.2
	C233.61,218.75,233.54,218.73,233.48,218.71z M239.48,220.99c0.36,0.19,0.72,0.39,1.08,0.59c0-0.01,0-0.01,0-0.01
	C240.2,221.37,239.84,221.18,239.48,220.99z M242.68,222.88c-0.02-0.01-0.04-0.02-0.06-0.03c0.19,0.12,0.38,0.25,0.56,0.38
	C243.02,223.11,242.85,222.99,242.68,222.88z M244.71,224.37c-0.07-0.05-0.15-0.11-0.22-0.16c0.1,0.07,0.2,0.15,0.31,0.24
	C244.77,224.42,244.74,224.39,244.71,224.37z M246.61,226.03c-0.09-0.08-0.19-0.16-0.28-0.25c0.23,0.2,0.45,0.41,0.67,0.63
	C246.87,226.29,246.74,226.16,246.61,226.03z M248.87,228.39l-0.6-0.66h-0.01l0.73,0.81C248.95,228.49,248.91,228.44,248.87,228.39z
	 M215.01,179.11c-0.39-0.38-1.06-0.85-2.05-0.85h-92.12c-0.9,0-1.7,0.41-2.23,1.06c-0.11,0.14-0.22,0.3-0.31,0.46
	c-0.14,0.25-0.23,0.51-0.29,0.8c-0.04,0.18-0.06,0.38-0.06,0.58c0,0.25,0.03,0.47,0.08,0.68c0.12,0.52,0.36,0.91,0.61,1.2
	c0.05,0.06,0.1,0.11,0.15,0.16c0.39,0.39,1.06,0.85,2.05,0.85h92.12c1.59,0,2.89-1.3,2.89-2.89
	C215.85,180.11,215.32,179.42,215.01,179.11z"/>
<path d="M129.78,248.08v21.38c0,4.79-3.89,8.68-8.68,8.68c-4.8,0-8.68-3.89-8.68-8.68v-21.38H129.78z"/>
<path d="M255.17,240.68c-0.87-3.52-2.35-6.8-4.34-9.71c-0.57-0.85-1.18-1.66-1.84-2.43c-0.04-0.05-0.08-0.1-0.12-0.15l-0.6-0.66
	h-0.01c-0.07-0.07-0.12-0.13-0.18-0.19c-0.35-0.38-0.71-0.76-1.08-1.13c-0.13-0.12-0.26-0.25-0.39-0.38
	c-0.09-0.08-0.19-0.16-0.28-0.25c-0.18-0.17-0.36-0.33-0.54-0.49c-0.15-0.14-0.3-0.27-0.46-0.4c-0.17-0.16-0.35-0.3-0.53-0.44
	c-0.03-0.03-0.06-0.06-0.09-0.08c-0.07-0.05-0.15-0.11-0.22-0.16c-0.22-0.17-0.43-0.33-0.65-0.49c-0.21-0.16-0.42-0.32-0.64-0.47
	c-0.01-0.01-0.01-0.02-0.02-0.02c-0.16-0.12-0.33-0.24-0.5-0.35c-0.02-0.01-0.04-0.02-0.06-0.03c-0.01-0.01-0.03-0.03-0.05-0.03
	c0-0.01-0.01-0.01-0.01-0.01c-0.65-0.44-1.32-0.85-2-1.23c0-0.01,0-0.01,0-0.01c-0.36-0.2-0.72-0.39-1.08-0.58
	c-0.11-0.05-0.22-0.1-0.32-0.15c-0.26-0.13-0.53-0.26-0.79-0.38c-0.07-0.03-0.14-0.06-0.21-0.09c-0.3-0.14-0.61-0.27-0.92-0.4
	c-0.38-0.15-0.76-0.3-1.14-0.44c-0.31-0.11-0.62-0.22-0.93-0.32c-0.25-0.08-0.5-0.15-0.75-0.23c-0.17-0.05-0.34-0.1-0.51-0.14
	c-0.08-0.02-0.16-0.05-0.24-0.07c-0.06-0.02-0.13-0.04-0.19-0.06c-0.2-0.05-0.39-0.1-0.58-0.14c-0.11-0.03-0.21-0.06-0.32-0.08
	c-0.14-0.03-0.29-0.06-0.44-0.09c-0.06-0.02-0.12-0.03-0.19-0.04c-0.19-0.05-0.39-0.09-0.59-0.12c-0.51-0.1-1.03-0.18-1.55-0.25
	s-1.05-0.13-1.58-0.16c-0.21-0.02-0.41-0.04-0.62-0.05c-0.26-0.01-0.53-0.03-0.79-0.03c-0.32-0.01-0.65-0.02-0.97-0.02
	c-0.83,0-1.64,0.03-2.45,0.1c-0.48,0.04-0.96,0.09-1.44,0.15c-0.48,0.06-0.94,0.14-1.41,0.22c-0.03,0-0.05,0.01-0.08,0.01
	c-0.27,0.05-0.56,0.11-0.83,0.16c-0.04,0.01-0.08,0.02-0.12,0.03c-0.24,0.05-0.48,0.1-0.72,0.16c-0.13,0.03-0.26,0.06-0.38,0.09
	c-0.04,0.01-0.09,0.02-0.13,0.04c-0.03,0-0.07,0.01-0.1,0.02c-0.25,0.06-0.51,0.13-0.75,0.21c-0.35,0.1-0.71,0.21-1.06,0.33
	c-0.37,0.12-0.74,0.25-1.1,0.39c-0.37,0.13-0.73,0.28-1.09,0.43c-0.36,0.15-0.72,0.31-1.07,0.47c-0.35,0.16-0.7,0.33-1.04,0.51
	c-0.35,0.18-0.69,0.36-1.02,0.55c-0.34,0.19-0.67,0.38-1,0.59c-0.32,0.2-0.65,0.4-0.97,0.62c-0.32,0.21-0.63,0.43-0.94,0.66
	c-1.25,0.9-2.42,1.89-3.51,2.97c-0.28,0.27-0.55,0.54-0.81,0.82c-0.26,0.28-0.51,0.56-0.77,0.85c-0.25,0.29-0.5,0.59-0.74,0.89
	s-0.47,0.6-0.7,0.91c-0.18,0.25-0.37,0.5-0.55,0.76c-0.42,0.6-0.82,1.23-1.19,1.86c-0.08,0.13-0.16,0.25-0.23,0.37
	c-0.07,0.13-0.13,0.26-0.2,0.38c-0.85,1.52-1.57,3.13-2.14,4.8c-0.15,0.42-0.28,0.84-0.41,1.27s-0.24,0.87-0.35,1.3
	c-0.59,2.33-0.9,4.78-0.9,7.29v0.14c0.08,16.62,13.57,30.06,30.2,30.06c16.68,0,30.2-13.52,30.2-30.2
	C256.05,245.43,255.75,243,255.17,240.68z M225.85,268.14c-11.06,0-20.12-8.99-20.2-20.06v-0.14c0-2.26,0.37-4.47,1.1-6.56
	c0.4-1.16,0.89-2.26,1.48-3.3c3.52-6.32,10.22-10.35,17.62-10.35c6.69,0,12.94,3.31,16.71,8.86c0.02,0.03,0.04,0.07,0.07,0.1
	c1.31,1.95,2.27,4.1,2.83,6.39c0.25,0.99,0.42,2,0.5,3.03c0.06,0.6,0.09,1.21,0.09,1.83C246.05,259.08,236.99,268.14,225.85,268.14z
	"/>
<g>
	<path d="M67.75,217.14c0,3.53,0.59,6.93,1.69,10.09l-32.86,45.31c-1.47,2.03-3.75,3.1-6.08,3.1c-1.52,0-3.06-0.46-4.39-1.43
		c-3.36-2.43-4.1-7.12-1.67-10.47l43.31-59.72V217.14z"/>
	<path d="M235.11,150.02H98.69c-11.57,0-20.94,9.37-20.94,20.94v46.18c0,11.57,9.37,20.94,20.94,20.94h88.19
		c4.4-17.42,20.2-30.35,38.97-30.35c11.83,0,22.48,5.14,29.84,13.3c0.24-1.26,0.36-2.56,0.36-3.89v-46.18
		C256.05,159.39,246.68,150.02,235.11,150.02z M212.96,194.05h-92.12c-3.56,0-6.78-1.44-9.12-3.78c-2.33-2.33-3.77-5.55-3.77-9.11
		c0-7.12,5.77-12.9,12.89-12.9h92.12c3.56,0,6.78,1.45,9.12,3.78c2.33,2.33,3.77,5.56,3.77,9.12
		C225.85,188.28,220.08,194.05,212.96,194.05z"/>
</g>
</svg>
