<?xml version="1.0" encoding="UTF-8" standalone="no"?><!DOCTYPE svg PUBLIC "-//W3C//DTD SVG 1.1//EN" "http://www.w3.org/Graphics/SVG/1.1/DTD/svg11.dtd"><svg width="100%" height="100%" viewBox="0 0 300 300" version="1.1" xmlns="http://www.w3.org/2000/svg" xmlns:xlink="http://www.w3.org/1999/xlink" xml:space="preserve" xmlns:serif="http://www.serif.com/" style="fill-rule:evenodd;clip-rule:evenodd;stroke-linejoin:round;stroke-miterlimit:2;"><g><g><path d="M266.802,76.869c-0.064,-0.064 -0.117,-0.128 -0.181,-0.192c-0.128,-0.139 -0.266,-0.288 -0.405,-0.426c-0.213,-0.224 -0.426,-0.458 -0.64,-0.682c-0.213,-0.213 -0.416,-0.437 -0.629,-0.65c-0.266,-0.277 -0.544,-0.554 -0.821,-0.831c-0.203,-0.203 -0.405,-0.405 -0.618,-0.608c-0.16,-0.16 -0.32,-0.309 -0.48,-0.469c-0.171,-0.171 -0.352,-0.341 -0.522,-0.501c-0.085,-0.085 -0.181,-0.171 -0.266,-0.256c-0.181,-0.171 -0.352,-0.33 -0.533,-0.501c-0.181,-0.171 -0.373,-0.341 -0.554,-0.512c-0.043,-0.043 -0.096,-0.085 -0.139,-0.128c-0.181,-0.171 -0.373,-0.33 -0.554,-0.501c-0.16,-0.139 -0.32,-0.277 -0.469,-0.416c-0.096,-0.075 -0.181,-0.16 -0.266,-0.234c-0.149,-0.139 -0.309,-0.266 -0.458,-0.394c-0.181,-0.16 -0.362,-0.309 -0.544,-0.458c-0.043,-0.043 -0.096,-0.075 -0.139,-0.117c-0.224,-0.192 -0.448,-0.373 -0.671,-0.565c-0.821,-0.682 -1.663,-1.343 -2.515,-1.993c-0.203,-0.149 -0.394,-0.309 -0.597,-0.448c-0.096,-0.075 -0.192,-0.149 -0.288,-0.213c-0.149,-0.117 -0.309,-0.234 -0.458,-0.341c-0.149,-0.107 -0.288,-0.213 -0.437,-0.32c-0.149,-0.107 -0.288,-0.213 -0.437,-0.32c-0.149,-0.107 -0.309,-0.213 -0.458,-0.33c-0.149,-0.107 -0.298,-0.213 -0.448,-0.32c-0.16,-0.117 -0.33,-0.234 -0.501,-0.341c-0.128,-0.085 -0.256,-0.181 -0.394,-0.266c-0.192,-0.139 -0.394,-0.266 -0.586,-0.394c-0.085,-0.064 -0.181,-0.117 -0.266,-0.181c-0.245,-0.16 -0.49,-0.32 -0.735,-0.48c-0.043,-0.032 -0.096,-0.064 -0.139,-0.096c-0.053,-0.085 -0.107,-0.16 -0.16,-0.245c5.297,3.389 10.222,7.354 14.73,11.852c0.874,0.874 1.737,1.769 2.569,2.675c0,0.075 0.011,0.139 0.011,0.203Z" style="fill-rule:nonzero;"/><path d="M191.052,69.344c-0.053,-0.256 -0.096,-0.522 -0.128,-0.778c0.043,0.256 0.085,0.522 0.128,0.778Z" style="fill-rule:nonzero;"/><path d="M193.226,57.172c0,0.011 -0.011,0.021 -0.021,0.021c0.011,0 0.021,-0.011 0.021,-0.021Z" style="fill-rule:nonzero;"/><path d="M221.407,86.866c-0.021,-0.011 -0.043,-0.021 -0.064,-0.021c-0.021,-0.011 -0.043,-0.021 -0.064,-0.021c0.043,0 0.085,0.021 0.128,0.043Z" style="fill-rule:nonzero;"/><path d="M199.301,81.1c0.021,0.021 0.053,0.032 0.075,0.043c-0.011,0 -0.011,-0.011 -0.021,-0.011c-0.021,-0.011 -0.032,-0.021 -0.053,-0.032Z" style="fill-rule:nonzero;"/><path d="M199.419,81.164c0.011,0 0.021,0.011 0.021,0.011c-0.011,-0 -0.011,-0 -0.021,-0.011c-0.011,-0.011 -0.021,-0.011 -0.043,-0.021c0.011,0.011 0.032,0.021 0.043,0.021Z" style="fill-rule:nonzero;"/><path d="M199.845,81.409c0.032,0.021 0.064,0.032 0.096,0.053c-0.032,-0.021 -0.064,-0.032 -0.096,-0.053c-0.011,0 -0.021,-0.011 -0.032,-0.021c0.011,0.011 0.021,0.011 0.032,0.021Z" style="fill-rule:nonzero;"/><path d="M202.584,91.364c0.053,0.171 0.117,0.341 0.192,0.501c-0.075,-0.16 -0.139,-0.33 -0.192,-0.501Z" style="fill-rule:nonzero;"/><path d="M203.117,86.643c0.075,-0.139 0.16,-0.266 0.256,-0.394c-0.085,0.117 -0.171,0.256 -0.256,0.394Z" style="fill-rule:nonzero;"/><path d="M208.969,83.701l0.043,0l-0.043,0Z" style="fill-rule:nonzero;"/><path d="M211.751,84.127l0.021,0l-0.021,0c-0.032,0 -0.064,-0.011 -0.107,-0.021c0.032,-0 0.064,0.011 0.107,0.021Z" style="fill-rule:nonzero;"/><path d="M212.198,84.202l0.117,0.021l-0.117,-0.021l-0.085,-0.021c0.032,0.011 0.053,0.021 0.085,0.021Z" style="fill-rule:nonzero;"/><path d="M214.298,84.649l0.043,0.011l-0.032,0l-0.064,-0.021l0.053,0.011Z" style="fill-rule:nonzero;"/><path d="M218.689,85.886l0.011,0c-0.021,0 -0.032,-0.011 -0.043,-0.011l0.032,0.011Z" style="fill-rule:nonzero;"/><path d="M220.81,86.632l0.043,0.021c-0.011,0 -0.021,-0.011 -0.032,-0.011l-0.011,-0.011Z" style="fill-rule:nonzero;"/><path d="M225.809,88.817c0.139,0.075 0.288,0.139 0.426,0.213c-0.192,-0.096 -0.384,-0.192 -0.586,-0.288c0.053,0.021 0.107,0.043 0.16,0.075Z" style="fill-rule:nonzero;"/><path d="M226.63,89.233c0.032,0.011 0.053,0.032 0.085,0.043c-0.149,-0.085 -0.309,-0.16 -0.469,-0.245c0,0 -0.011,0 -0.011,-0.011l0.011,0c0.128,0.085 0.256,0.149 0.384,0.213Z" style="fill-rule:nonzero;"/><path d="M227.003,89.425c-0.096,-0.053 -0.192,-0.107 -0.288,-0.149c0.021,0.011 0.032,0.021 0.053,0.021c0.075,0.043 0.149,0.085 0.234,0.128Z" style="fill-rule:nonzero;"/><path d="M202.328,66.551c0,-0.043 0,-0.075 -0.011,-0.117l0,0.043l0.011,0.075Z" style="fill-rule:nonzero;"/><path d="M202.403,65.123c0,0.043 -0.011,0.075 -0.021,0.117l-0.011,0.064l-0.021,0.096c0,-0.021 0,-0.043 0.011,-0.064c0,-0.021 0,-0.043 0.011,-0.064l0,-0.021c0.021,-0.053 0.021,-0.096 0.032,-0.128Z" style="fill-rule:nonzero;"/><path d="M202.424,67.233c0,-0.011 0,-0.021 -0.011,-0.032l-0.011,-0.053c0.011,0.032 0.021,0.064 0.021,0.085Z" style="fill-rule:nonzero;"/><path d="M202.52,67.638c0,-0.011 -0.011,-0.021 -0.011,-0.021c-0.011,-0.032 -0.021,-0.075 -0.021,-0.107c0,0.032 0.021,0.075 0.032,0.128Z" style="fill-rule:nonzero;"/><path d="M202.648,64.196c0,0.011 -0.011,0.021 -0.011,0.021c0,0 0,-0.011 0.011,-0.021c-0.011,0 -0.011,0 0,0Z" style="fill-rule:nonzero;"/><path d="M202.733,63.94c-0.011,0.021 -0.021,0.043 -0.021,0.064l0,-0.011c0.011,-0.021 0.021,-0.043 0.021,-0.053Z" style="fill-rule:nonzero;"/><path d="M202.989,68.853l-0.021,-0.043l-0.021,-0.053c-0.021,-0.032 -0.032,-0.064 -0.043,-0.107c0.021,0.064 0.053,0.128 0.085,0.203Z" style="fill-rule:nonzero;"/><path d="M203.106,69.045c-0.053,-0.085 -0.075,-0.128 -0.075,-0.139l-0.032,-0.053c0.032,0.064 0.064,0.128 0.107,0.192Z" style="fill-rule:nonzero;"/><path d="M203.245,69.269l-0.021,-0.021c-0.011,-0.021 -0.021,-0.043 -0.032,-0.053c0,-0.011 -0.011,-0.021 -0.021,-0.043c0.021,0.032 0.043,0.075 0.075,0.117Z" style="fill-rule:nonzero;"/><path d="M203.362,69.45c-0.043,-0.053 -0.075,-0.117 -0.117,-0.171l0.043,0.064l0.075,0.107Z" style="fill-rule:nonzero;"/><path d="M203.501,69.653l-0.043,-0.053l-0.021,-0.032c0.021,0.021 0.043,0.053 0.064,0.085Z" style="fill-rule:nonzero;"/><path d="M203.629,62.426l-0.597,0.885c-0.043,0.064 -0.075,0.139 -0.107,0.203c-0.032,0.064 -0.064,0.139 -0.096,0.203l-0.043,0.096l0,-0.011c0,-0.011 0,-0.011 0.011,-0.021c0.021,-0.064 0.053,-0.117 0.075,-0.181c0,-0.011 0.011,-0.021 0.011,-0.021c0,-0.011 0.011,-0.021 0.021,-0.032c0.011,-0.021 0.021,-0.043 0.032,-0.064c0.064,-0.128 0.128,-0.245 0.203,-0.362c0.021,-0.032 0.043,-0.064 0.053,-0.096c0.021,-0.043 0.043,-0.075 0.075,-0.117c0.011,-0.021 0.021,-0.032 0.032,-0.053c0,0 0,-0.011 0.011,-0.011c0.032,-0.043 0.064,-0.096 0.096,-0.139c0.085,-0.107 0.16,-0.192 0.224,-0.277Z" style="fill-rule:nonzero;"/><path d="M264.266,91.865l-0.149,0c-2.43,-3.4 -5.159,-6.608 -8.154,-9.603c-0.671,-0.661 -1.343,-1.322 -2.036,-1.961l0.171,0c0.661,0.608 1.311,1.236 1.951,1.876c3.016,3.016 5.766,6.257 8.218,9.689Z" style="fill-rule:nonzero;"/></g><path d="M283.27,102.471l0,0.309c-0.075,-0.181 -0.139,-0.352 -0.213,-0.512c-0.053,-0.139 -0.117,-0.277 -0.171,-0.405l0,-0.011c-0.117,-0.288 -0.245,-0.576 -0.373,-0.863c-0.075,-0.171 -0.149,-0.33 -0.224,-0.501c-0.064,-0.149 -0.128,-0.298 -0.203,-0.448c-0.064,-0.139 -0.128,-0.288 -0.192,-0.426c-0.064,-0.149 -0.139,-0.309 -0.213,-0.458c-0.085,-0.181 -0.171,-0.373 -0.256,-0.554c-0.043,-0.085 -0.075,-0.171 -0.117,-0.245c-0.117,-0.245 -0.234,-0.501 -0.362,-0.746c-0.139,-0.277 -0.277,-0.565 -0.416,-0.842c-0.139,-0.277 -0.277,-0.544 -0.416,-0.821c-0.149,-0.288 -0.298,-0.576 -0.448,-0.863c-0.277,-0.512 -0.544,-1.023 -0.831,-1.535c-0.181,-0.33 -0.362,-0.65 -0.554,-0.981c-0.096,-0.171 -0.192,-0.33 -0.288,-0.501c-0.064,-0.117 -0.139,-0.234 -0.203,-0.352c-0.107,-0.171 -0.203,-0.352 -0.309,-0.522c-0.064,-0.107 -0.128,-0.213 -0.192,-0.33c-0.096,-0.16 -0.192,-0.309 -0.288,-0.469c-0.085,-0.139 -0.16,-0.266 -0.245,-0.405c-0.107,-0.171 -0.213,-0.341 -0.32,-0.512c-0.021,-0.043 -0.053,-0.075 -0.075,-0.117c-0.149,-0.234 -0.298,-0.469 -0.448,-0.703c-0.512,-0.789 -1.023,-1.567 -1.556,-2.334c-0.128,-0.181 -0.256,-0.362 -0.384,-0.544c-0.064,-0.096 -0.128,-0.181 -0.192,-0.266c-0.107,-0.16 -0.224,-0.309 -0.33,-0.469c-0.096,-0.128 -0.181,-0.256 -0.277,-0.384c-0.085,-0.117 -0.16,-0.224 -0.245,-0.341c-0.16,-0.213 -0.32,-0.426 -0.48,-0.64c-0.011,-0.021 -0.021,-0.032 -0.032,-0.043c-0.149,-0.213 -0.309,-0.416 -0.469,-0.618c-0.096,-0.128 -0.192,-0.245 -0.288,-0.373c-0.394,-0.512 -0.789,-1.013 -1.194,-1.514c-0.384,-0.48 -0.778,-0.949 -1.172,-1.418c-0.011,-0.011 -0.011,-0.021 -0.021,-0.021c-0.139,-0.171 -0.288,-0.33 -0.426,-0.501c-0.085,-0.096 -0.171,-0.203 -0.256,-0.298c-0.139,-0.16 -0.277,-0.32 -0.416,-0.48c-0.053,-0.075 -0.117,-0.139 -0.181,-0.203c-0.128,-0.149 -0.266,-0.298 -0.394,-0.448c-0.117,-0.128 -0.234,-0.256 -0.341,-0.384c-0.117,-0.128 -0.234,-0.256 -0.352,-0.384c-0.032,-0.032 -0.064,-0.064 -0.096,-0.096c-0.064,-0.064 -0.117,-0.128 -0.181,-0.192c-0.128,-0.139 -0.266,-0.288 -0.405,-0.426c-0.213,-0.224 -0.426,-0.458 -0.64,-0.682c-0.213,-0.213 -0.416,-0.437 -0.629,-0.65c-0.266,-0.277 -0.544,-0.554 -0.821,-0.831c-0.203,-0.203 -0.405,-0.405 -0.618,-0.608c-0.16,-0.16 -0.32,-0.309 -0.48,-0.469c-0.171,-0.171 -0.352,-0.341 -0.522,-0.501c-0.085,-0.085 -0.181,-0.171 -0.266,-0.256c-0.181,-0.171 -0.352,-0.33 -0.533,-0.501c-0.181,-0.171 -0.373,-0.341 -0.554,-0.512c-0.043,-0.043 -0.096,-0.085 -0.139,-0.128c-0.181,-0.171 -0.373,-0.33 -0.554,-0.501c-0.16,-0.139 -0.32,-0.277 -0.469,-0.416c-0.096,-0.075 -0.181,-0.16 -0.266,-0.234c-0.149,-0.139 -0.309,-0.266 -0.458,-0.394c-0.181,-0.16 -0.362,-0.309 -0.544,-0.458c-0.043,-0.043 -0.096,-0.075 -0.139,-0.117c-0.224,-0.192 -0.448,-0.373 -0.671,-0.565c-0.821,-0.682 -1.663,-1.343 -2.515,-1.993c-0.203,-0.149 -0.394,-0.309 -0.597,-0.448c-0.096,-0.075 -0.192,-0.149 -0.288,-0.213c-0.149,-0.117 -0.309,-0.234 -0.458,-0.341c-0.149,-0.107 -0.288,-0.213 -0.437,-0.32c-0.149,-0.107 -0.288,-0.213 -0.437,-0.32c-0.149,-0.107 -0.309,-0.213 -0.458,-0.33c-0.149,-0.107 -0.298,-0.213 -0.448,-0.32c-0.16,-0.117 -0.33,-0.234 -0.501,-0.341c-0.128,-0.085 -0.256,-0.181 -0.394,-0.266c-0.192,-0.139 -0.394,-0.266 -0.586,-0.394c-0.085,-0.064 -0.181,-0.117 -0.266,-0.181c-0.245,-0.16 -0.49,-0.32 -0.735,-0.48c-0.043,-0.032 -0.096,-0.064 -0.139,-0.096c-0.053,-0.085 -0.107,-0.16 -0.16,-0.245c5.297,3.389 10.222,7.354 14.73,11.852c0.874,0.874 1.737,1.769 2.569,2.675c6.822,7.408 12.268,15.849 16.212,25.144c0.075,0.192 0.171,0.416 0.256,0.629Z" style="fill-rule:nonzero;"/><path d="M199.301,81.1c0.021,0.021 0.053,0.032 0.075,0.043c-0.011,0 -0.011,-0.011 -0.021,-0.011c-0.021,-0.011 -0.032,-0.021 -0.053,-0.032Z" style="fill-rule:nonzero;"/><path d="M199.419,81.164c0.011,0 0.021,0.011 0.021,0.011c-0.011,-0 -0.011,-0 -0.021,-0.011c-0.011,-0.011 -0.021,-0.011 -0.043,-0.021c0.011,0.011 0.032,0.021 0.043,0.021Z" style="fill-rule:nonzero;"/><path d="M199.941,81.463c-0.032,-0.021 -0.064,-0.032 -0.096,-0.053c-0.011,-0.011 -0.021,-0.011 -0.032,-0.021c0.011,0.011 0.021,0.011 0.032,0.021c0.032,0.011 0.064,0.032 0.096,0.053Z" style="fill-rule:nonzero;"/><path d="M209.011,83.701l-0.043,0l0.043,0Z" style="fill-rule:nonzero;"/><path d="M211.761,84.127l-0.011,0c-0.032,-0.011 -0.075,-0.011 -0.107,-0.021c0.032,0.011 0.064,0.011 0.107,0.021l0.011,0Z" style="fill-rule:nonzero;"/><path d="M212.315,84.234l-0.117,-0.021l-0.085,-0.021c0.032,0 0.064,0.011 0.085,0.021l0.117,0.021Z" style="fill-rule:nonzero;"/><path d="M214.341,84.66l-0.032,0l-0.064,-0.021l0.053,0.011l0.043,0.011Z" style="fill-rule:nonzero;"/><path d="M218.7,85.886c-0.021,0 -0.032,-0.011 -0.043,-0.011l0.032,0.011l0.011,0Z" style="fill-rule:nonzero;"/><path d="M220.853,86.653c-0.011,0 -0.021,-0.011 -0.032,-0.011l-0.011,-0.011l0.043,0.021Z" style="fill-rule:nonzero;"/><path d="M221.407,86.866c-0.021,-0.011 -0.043,-0.021 -0.064,-0.021c-0.021,-0.011 -0.043,-0.021 -0.064,-0.021c0.043,0 0.085,0.021 0.128,0.043Z" style="fill-rule:nonzero;"/><path d="M226.236,89.03c-0.192,-0.096 -0.384,-0.192 -0.586,-0.288c0.053,0.021 0.096,0.053 0.149,0.075c0.149,0.064 0.298,0.139 0.437,0.213Z" style="fill-rule:nonzero;"/><path d="M226.715,89.275c-0.149,-0.085 -0.309,-0.16 -0.469,-0.245c0,0 -0.011,0 -0.011,-0.011l0.011,0c0.128,0.064 0.256,0.128 0.373,0.192c0.032,0.032 0.064,0.053 0.096,0.064Z" style="fill-rule:nonzero;"/><path d="M227.003,89.425c-0.096,-0.053 -0.192,-0.107 -0.288,-0.149c0.021,0.011 0.032,0.021 0.053,0.021c0.075,0.043 0.149,0.085 0.234,0.128Z" style="fill-rule:nonzero;"/><path d="M204.172,93.848l0.256,0.245c-0.725,-0.597 -1.29,-1.354 -1.652,-2.228c-0.075,-0.16 -0.128,-0.33 -0.181,-0.501c0.053,0.171 0.117,0.341 0.192,0.501c0.298,0.735 0.778,1.407 1.386,1.983Z" style="fill-rule:nonzero;"/><path d="M248.171,123.703c0.075,-0.032 0.16,-0.075 0.234,-0.117c-0.032,0.021 -0.064,0.032 -0.096,0.053c-0.043,0.021 -0.085,0.043 -0.139,0.064Z" style="fill-rule:nonzero;"/><path d="M248.779,123.362c0.171,-0.107 0.33,-0.224 0.49,-0.352c-0.266,0.213 -0.554,0.405 -0.863,0.576c0.117,-0.064 0.234,-0.139 0.352,-0.203c0.011,-0.011 0.011,-0.021 0.021,-0.021Z" style="fill-rule:nonzero;"/><path d="M249.439,122.871c0.053,-0.043 0.107,-0.085 0.149,-0.139c-0.107,0.096 -0.213,0.192 -0.32,0.277c0.053,-0.043 0.107,-0.085 0.16,-0.128c0,-0.011 0.011,-0.011 0.011,-0.011Z" style="fill-rule:nonzero;"/><path d="M249.802,122.53c-0.064,0.075 -0.139,0.139 -0.213,0.203c0.053,-0.043 0.096,-0.096 0.149,-0.139c0.021,-0.021 0.043,-0.043 0.064,-0.064Z" style="fill-rule:nonzero;"/><path d="M252.882,121.166c0.021,0.075 0.043,0.149 0.064,0.213c-0.021,-0.075 -0.043,-0.149 -0.064,-0.213Z" style="fill-rule:nonzero;"/><path d="M252.978,121.486l-0.011,-0.021l-0.011,-0.032l-0.011,-0.021l0,-0.021c0,0.011 0,0.011 0.011,0.021l0.021,0.075Z" style="fill-rule:nonzero;"/><path d="M190.924,68.566c0.043,0.256 0.075,0.522 0.128,0.778c-0.043,-0.256 -0.085,-0.522 -0.128,-0.778Zm2.302,-11.394c0,0.011 -0.011,0.021 -0.011,0.021c-0,0 0.011,-0.011 0.011,-0.021Zm89.969,72.841c-0.032,0.032 -0.064,0.064 -0.096,0.096c-0.064,0.075 -0.117,0.139 -0.181,0.203c-0.064,0.064 -0.128,0.139 -0.192,0.203c-0.043,0.043 -0.075,0.085 -0.117,0.128c-0.053,0.053 -0.384,0.384 -0.416,0.416c0,0.011 -0.011,0.011 -0.011,0.011c0.011,0.011 0.021,0.021 0.043,0.032c0.16,0.16 0.33,0.309 0.501,0.458c0.075,0.064 0.149,0.128 0.234,0.192c0.107,0.096 0.224,0.181 0.33,0.277l0,-2.11c-0.043,0.032 -0.075,0.064 -0.096,0.096Zm-1.034,1.066c0,0 0,0.011 0,0c0,0.011 0,0 0,0Zm-0.021,0.021l-0.011,0.011c0.011,0 0.011,-0.011 0.011,-0.011Zm-11.959,-18.386l0,11.565l0,-11.565Z" style="fill-rule:nonzero;"/><path d="M224.115,116.38c0.096,0.586 0.139,1.183 0.139,1.801c0,1.993 -0.512,3.88 -1.418,5.511l-0.011,0.011l-0.181,0.309c-0.586,0.981 -1.3,1.855 -2.11,2.601c-0.075,0.064 -0.149,0.139 -0.224,0.203c-0.075,0.064 -0.139,0.117 -0.213,0.181c-0.075,0.053 -0.139,0.117 -0.213,0.171c-0.139,0.117 -0.288,0.224 -0.437,0.33c-0.149,0.107 -0.298,0.213 -0.458,0.309c-0.075,0.053 -0.16,0.096 -0.234,0.149c-0.075,0.043 -0.16,0.096 -0.234,0.139c-0.554,0.32 -1.151,0.597 -1.759,0.821c-0.075,0.032 -0.16,0.053 -0.234,0.085c-0.096,0.032 -0.192,0.064 -0.288,0.096c-0.085,0.032 -0.181,0.053 -0.266,0.085c-0.181,0.053 -0.362,0.096 -0.544,0.139c-0.075,0.021 -0.149,0.032 -0.224,0.053c-0.011,0 -0.021,0 -0.043,0.011l-0.021,0c-0.085,0.021 -0.171,0.032 -0.256,0.043l-0.032,0c-0.096,0.021 -0.181,0.032 -0.277,0.043c-0.192,0.032 -0.384,0.053 -0.576,0.075c-0.043,0 -0.085,0.011 -0.128,0.011l-0.021,0c-0.064,0.011 -0.128,0.011 -0.203,0.021l-0.096,0c-0.117,0.011 -0.224,0.011 -0.341,0.021l-0.64,0c-0.064,0 -0.139,0 -0.203,-0.011c-0.064,0 -0.117,0 -0.181,-0.011c-0.075,0 -0.149,-0.011 -0.224,-0.011l-0.043,0c-0.053,0 -0.107,-0.011 -0.16,-0.011l-0.085,0c-0.043,0 -0.085,-0.011 -0.128,-0.011c-0.064,-0.011 -0.128,-0.011 -0.192,-0.021c-0.096,-0.011 -0.192,-0.021 -0.288,-0.043c-0.096,-0.011 -0.192,-0.032 -0.288,-0.043c-0.192,-0.032 -0.373,-0.075 -0.554,-0.117c-0.096,-0.021 -0.181,-0.043 -0.277,-0.064c-0.181,-0.043 -0.362,-0.096 -0.544,-0.149c-0.064,-0.021 -0.117,-0.032 -0.181,-0.053c-0.011,0 -0.011,0 -0.021,-0.011c-0.053,-0.021 -0.096,-0.032 -0.149,-0.053c-0.096,-0.032 -0.192,-0.064 -0.288,-0.107c-0.032,-0.011 -0.064,-0.021 -0.096,-0.043c-0.213,-0.085 -0.426,-0.171 -0.629,-0.266c-0.224,-0.096 -0.437,-0.213 -0.65,-0.32c-0.149,-0.075 -0.288,-0.16 -0.437,-0.245c-0.139,-0.085 -0.288,-0.171 -0.426,-0.266c-1.865,-1.226 -3.347,-2.995 -4.242,-5.063c-0.032,-0.075 -0.064,-0.16 -0.096,-0.234c-0.021,-0.043 -0.043,-0.096 -0.053,-0.139c-0.011,-0.021 -0.021,-0.053 -0.032,-0.075c-0.011,-0.043 -0.032,-0.085 -0.043,-0.117c-0.021,-0.053 -0.043,-0.117 -0.064,-0.171c-0.021,-0.053 -0.043,-0.117 -0.053,-0.171c-0.075,-0.234 -0.149,-0.469 -0.213,-0.703c-0.021,-0.096 -0.043,-0.181 -0.064,-0.277c-0.043,-0.181 -0.075,-0.373 -0.117,-0.554c-0.021,-0.096 -0.032,-0.192 -0.043,-0.288c-0.011,-0.096 -0.032,-0.192 -0.043,-0.288c-0.011,-0.096 -0.021,-0.203 -0.032,-0.309c-0.011,-0.085 -0.021,-0.171 -0.021,-0.256l0,-0.032c0,-0.075 -0.011,-0.149 -0.011,-0.234c0,-0.064 -0.011,-0.117 -0.011,-0.181c0,-0.064 0,-0.128 -0.011,-0.192l0,-0.533c0,-0.064 0,-0.139 0.011,-0.203c0,-0.064 0,-0.128 0.011,-0.192c0,-0.064 0.011,-0.117 0.011,-0.181c0,-0.075 0.011,-0.149 0.021,-0.224c0,-0.053 0.011,-0.107 0.011,-0.149c0,-0.053 0.011,-0.107 0.021,-0.149c0.011,-0.085 0.021,-0.181 0.032,-0.266c0.011,-0.096 0.032,-0.181 0.043,-0.266c0.011,-0.085 0.032,-0.181 0.043,-0.266c0.011,-0.043 0.021,-0.085 0.021,-0.128c0.011,-0.043 0.021,-0.085 0.032,-0.139c0.021,-0.085 0.043,-0.171 0.064,-0.256c0.021,-0.085 0.043,-0.171 0.064,-0.266c0.021,-0.085 0.043,-0.171 0.075,-0.256c0.021,-0.053 0.032,-0.107 0.053,-0.16c0.021,-0.064 0.043,-0.128 0.064,-0.192c0.533,-1.599 1.418,-3.07 2.611,-4.306l0.32,-0.33l0.011,-0.011c1.151,-1.108 2.537,-1.972 4.072,-2.515c1.194,-0.426 2.483,-0.661 3.816,-0.661c5.745,-0.053 10.467,4.114 11.33,9.571Z" style="fill-rule:nonzero;"/><path d="M251.091,116.38c0.256,0.693 0.384,1.386 0.384,2.068c0,1.204 -0.384,2.366 -1.045,3.325c-0.16,0.234 -0.341,0.458 -0.533,0.661c0,0 0,0.011 -0.011,0.011c-0.021,0.032 -0.053,0.053 -0.085,0.085c-0.021,0.021 -0.043,0.043 -0.064,0.064c-0.043,0.053 -0.096,0.096 -0.149,0.139c-0.053,0.043 -0.096,0.096 -0.149,0.139l-0.011,0.011c-0.053,0.043 -0.107,0.085 -0.16,0.128c-0.16,0.128 -0.32,0.245 -0.49,0.352l-0.011,0.011c-0.117,0.075 -0.234,0.139 -0.352,0.203c-0.032,0.021 -0.064,0.032 -0.096,0.053c-0.043,0.021 -0.085,0.043 -0.128,0.064c-0.043,0.021 -0.085,0.043 -0.139,0.064c-0.075,0.032 -0.149,0.064 -0.224,0.096c-0.053,0.021 -0.117,0.043 -0.171,0.064l-0.021,0c-0.043,0.011 -0.075,0.032 -0.117,0.043c-0.043,0.011 -0.085,0.032 -0.117,0.043l-0.075,0.021c-0.021,0.011 -0.053,0.011 -0.075,0.021l-0.011,0c-0.053,0.021 -0.117,0.032 -0.171,0.043l-0.203,0.043c-0.075,0.011 -0.149,0.032 -0.213,0.043c-0.043,0.011 -0.096,0.011 -0.139,0.021c-0.053,0.011 -0.117,0.021 -0.171,0.021c-0.021,0 -0.053,0.011 -0.075,0.011c-0.053,0.011 -0.117,0.011 -0.171,0.011c-0.032,0 -0.064,0 -0.096,0.011c-0.107,0.011 -0.224,0.011 -0.33,0.011l-0.266,0c-0.128,0 -0.256,-0.011 -0.384,-0.032c-0.075,-0.011 -0.139,-0.021 -0.213,-0.032c-0.075,-0.011 -0.139,-0.021 -0.213,-0.032c-0.075,-0.011 -0.139,-0.021 -0.213,-0.043c-1.812,-0.405 -3.357,-1.663 -4.082,-3.421c-0.085,-0.203 -0.16,-0.405 -0.256,-0.608c-0.064,-0.149 -0.128,-0.309 -0.192,-0.458c-0.053,-0.117 -0.107,-0.234 -0.16,-0.362c-0.011,-0.021 -0.011,-0.032 -0.021,-0.053c-0.064,-0.149 -0.128,-0.288 -0.203,-0.437c-0.224,-0.48 -0.448,-0.949 -0.693,-1.418c-0.043,-0.096 -0.096,-0.192 -0.149,-0.288c-0.075,-0.149 -0.16,-0.309 -0.234,-0.458c-0.053,-0.107 -0.117,-0.213 -0.171,-0.32c-0.043,-0.075 -0.085,-0.16 -0.128,-0.234c-0.085,-0.16 -0.171,-0.32 -0.266,-0.469c-0.096,-0.171 -0.203,-0.352 -0.309,-0.522c-0.011,-0.021 -0.021,-0.043 -0.043,-0.064c-0.096,-0.16 -0.192,-0.309 -0.288,-0.458c-0.021,-0.032 -0.032,-0.064 -0.053,-0.096c-0.075,-0.107 -0.139,-0.224 -0.213,-0.33c-0.043,-0.075 -0.096,-0.149 -0.139,-0.224c-0.298,-0.469 -0.618,-0.938 -0.938,-1.396c-0.053,-0.075 -0.096,-0.139 -0.149,-0.213c-0.075,-0.107 -0.16,-0.213 -0.234,-0.33c-0.032,-0.043 -0.064,-0.085 -0.085,-0.117c-0.064,-0.096 -0.139,-0.181 -0.203,-0.277c-0.053,-0.075 -0.117,-0.16 -0.171,-0.234c-0.096,-0.128 -0.192,-0.245 -0.288,-0.373c-3.027,-9.166 -11.671,-15.785 -21.829,-15.785c-1.418,0 -2.814,0.128 -4.168,0.373c-0.117,-0.021 -0.245,-0.043 -0.373,-0.053c-0.277,-0.043 -0.554,-0.075 -0.842,-0.117c-1.14,-0.139 -2.174,-0.608 -3.006,-1.3c-0.011,0 -0.011,-0.011 -0.021,-0.011l-0.256,-0.245c-0.608,-0.576 -1.077,-1.247 -1.396,-1.983c-0.075,-0.16 -0.128,-0.33 -0.192,-0.501c-0.021,-0.043 -0.032,-0.096 -0.043,-0.139c0,-0.011 -0.011,-0.021 -0.011,-0.043c-0.021,-0.053 -0.032,-0.117 -0.043,-0.171c-0.021,-0.075 -0.032,-0.139 -0.043,-0.213c-0.011,-0.043 -0.021,-0.096 -0.032,-0.149c-0.011,-0.043 -0.021,-0.096 -0.021,-0.149c-0.011,-0.043 -0.011,-0.085 -0.021,-0.117c-0.011,-0.053 -0.011,-0.117 -0.021,-0.171c0,-0.032 -0.011,-0.064 -0.011,-0.085c-0.011,-0.075 -0.011,-0.139 -0.011,-0.213l0,-0.053c0,-0.085 -0.011,-0.16 -0.011,-0.245l0,-0.352c0,-0.064 0.011,-0.128 0.011,-0.181c0.011,-0.096 0.021,-0.181 0.032,-0.266c0.011,-0.043 0.011,-0.075 0.021,-0.117c0.011,-0.064 0.021,-0.128 0.032,-0.192c0.011,-0.075 0.032,-0.149 0.043,-0.213c0.021,-0.085 0.043,-0.171 0.064,-0.245c0.021,-0.085 0.043,-0.16 0.075,-0.234c0.021,-0.075 0.053,-0.16 0.085,-0.234c0.064,-0.16 0.128,-0.32 0.203,-0.48c0.021,-0.043 0.043,-0.096 0.075,-0.139c0.053,-0.096 0.096,-0.192 0.149,-0.277c0.085,-0.139 0.171,-0.266 0.256,-0.394c0.064,-0.085 0.128,-0.171 0.192,-0.256c0.064,-0.085 0.128,-0.16 0.203,-0.245c0.021,-0.032 0.043,-0.053 0.075,-0.085l2.089,-2.281c0.245,0.032 0.49,0.053 0.735,0.075c0.075,0.011 0.149,0.011 0.224,0.021l0.203,0.021c0.117,0.011 0.234,0.021 0.352,0.032l0.043,0l0.234,0.021c0.181,0.021 0.362,0.043 0.544,0.053c0.171,0.021 0.341,0.043 0.501,0.064l0.128,0.021c0.021,0 0.043,0 0.064,0.011l0.043,0l0.064,0.011l0.117,0.021l0.096,0.011l0.139,0.021l0.053,0.011l0.266,0.032c0.075,0.011 0.16,0.021 0.234,0.032l0.085,0.011c0,0 0.203,0.032 0.224,0.032c0.021,0 0.117,0.021 0.117,0.021l0.117,0.021c0.256,0.043 0.522,0.085 0.778,0.128l0.107,0.021c0.075,0.011 0.149,0.021 0.224,0.043c0.032,0.011 0.075,0.011 0.107,0.021l0.032,0l0.107,0.021l0.128,0.021c0.032,0.011 0.064,0.011 0.096,0.021l0.085,0.021l0.107,0.021l0.139,0.021l0.085,0.021l0.117,0.021c0.064,0.011 0.128,0.021 0.181,0.032l0.021,0c0.394,0.075 0.725,0.149 1.023,0.213l0.085,0.021c0.064,0.011 0.128,0.032 0.192,0.043l0.075,0.021l0.011,0l0.096,0.032l0.021,0l0.181,0.043l0.139,0.032l0.117,0.032l0.149,0.032l0.181,0.043l0.213,0.053l0.117,0.032c0.192,0.053 0.373,0.096 0.554,0.149l0.171,0.043c0.085,0.021 0.171,0.043 0.256,0.075l0.128,0.032l0.149,0.043c0.107,0.032 0.203,0.053 0.309,0.085l0.117,0.032l0.075,0.021l0.064,0.021c0.064,0.021 0.128,0.043 0.192,0.053l0.224,0.075l0.117,0.032l0.053,0.021c0.224,0.064 0.448,0.139 0.661,0.213l0.075,0.021c0,0 0.011,0 0.021,0.011c0.011,0 0.021,0.011 0.043,0.011c0.032,0.011 0.064,0.021 0.075,0.021l0.053,0.021l0.394,0.128c0.107,0.032 0.213,0.075 0.32,0.107l0.096,0.032l0.075,0.021l0.149,0.053l0.139,0.053l0.224,0.075l0.107,0.043l0.139,0.053l0.171,0.064c0.064,0.021 0.117,0.043 0.181,0.064c0.011,0 0.021,0.011 0.032,0.011l0.011,0l0.48,0.181l0.096,0.032l0.021,0l0.203,0.085c0.107,0.043 0.224,0.085 0.33,0.139l0.128,0.053l0.139,0.053c0.149,0.064 0.309,0.128 0.458,0.192l0.043,0.021c0.927,0.394 1.833,0.81 2.729,1.247c0.053,0.021 0.107,0.053 0.149,0.075c0.192,0.096 0.384,0.192 0.586,0.288c0,0 0.011,0 0.011,0.011c0.16,0.075 0.309,0.16 0.469,0.245c0.096,0.053 0.192,0.096 0.288,0.149c1.418,0.746 2.793,1.567 4.125,2.441l-0.224,0c0.032,0.021 0.053,0.032 0.085,0.053c0.362,0.234 0.725,0.48 1.077,0.725c0.117,0.075 0.234,0.16 0.352,0.245c0.234,0.16 0.469,0.33 0.703,0.501c0.107,0.075 0.203,0.149 0.309,0.224c0.021,0.011 0.032,0.032 0.053,0.043c0.107,0.085 0.224,0.16 0.33,0.245c0.341,0.256 0.682,0.522 1.023,0.789c0.117,0.085 0.224,0.181 0.341,0.266c0.107,0.085 0.213,0.181 0.33,0.266c0.139,0.117 0.288,0.234 0.426,0.352c0.085,0.064 0.16,0.139 0.245,0.203c0.107,0.096 0.213,0.181 0.33,0.277c0.107,0.096 0.213,0.192 0.33,0.288c0.096,0.085 0.203,0.171 0.298,0.256c0.021,0.021 0.053,0.043 0.075,0.064c0.096,0.075 0.181,0.16 0.277,0.245c0.32,0.288 0.64,0.586 0.949,0.874c0.107,0.096 0.213,0.203 0.309,0.298c0.107,0.096 0.203,0.203 0.309,0.298c0.107,0.096 0.203,0.203 0.309,0.298c0.096,0.096 0.426,0.426 0.48,0.48c0.096,0.107 0.203,0.203 0.298,0.309c0.352,0.362 0.693,0.735 1.034,1.108c0.096,0.096 0.181,0.203 0.266,0.298c0.384,0.426 0.757,0.863 1.13,1.3c0.075,0.096 0.149,0.181 0.224,0.277c0.384,0.458 0.757,0.927 1.13,1.407c0.085,0.117 0.171,0.224 0.266,0.341c0.085,0.117 0.171,0.234 0.256,0.341c0.32,0.426 0.629,0.853 0.938,1.29c0.085,0.117 0.171,0.234 0.256,0.362c0.053,0.075 0.096,0.149 0.149,0.213c0.139,0.203 0.277,0.405 0.405,0.608c0.053,0.085 0.107,0.16 0.16,0.245c0.16,0.256 0.33,0.512 0.49,0.757c0.096,0.149 0.192,0.298 0.277,0.448c0.075,0.117 0.149,0.245 0.224,0.373c0.075,0.117 0.149,0.245 0.224,0.362c0,0 0,0.011 0.011,0.011c0.075,0.117 0.139,0.245 0.213,0.362c0.288,0.501 0.576,1.002 0.853,1.514c0.064,0.117 0.128,0.245 0.192,0.362c0.234,0.437 0.458,0.885 0.682,1.332c0.064,0.128 0.128,0.256 0.192,0.384c0.16,0.341 0.33,0.693 0.49,1.034c0.064,0.128 0.117,0.266 0.181,0.394c0.234,0.533 0.469,1.077 0.693,1.62c0.011,0.096 0.032,0.139 0.043,0.192Z" style="fill-rule:nonzero;"/><path d="M275.851,117.02c0.554,2.164 -0.192,4.295 -1.663,5.681l-0.011,0.011l-0.245,0.213c-0.021,0.021 -0.043,0.032 -0.064,0.053c-0.81,0.661 -1.812,1.108 -2.92,1.258l-0.011,0c-0.053,0.011 -0.117,0.011 -0.171,0.021c-0.043,0 -0.075,0.011 -0.117,0.011c-0.053,0 -0.096,0.011 -0.149,0.011c-0.107,0 -0.203,0.011 -0.309,0.011l0,-11.565l0,11.565l-0.33,0c-0.064,0 -0.128,-0.011 -0.192,-0.011l-0.117,0c-0.021,0 -0.043,0 -0.075,-0.011c-0.032,0 -0.075,-0.011 -0.107,-0.011l-0.224,-0.032c-0.128,-0.021 -0.256,-0.053 -0.384,-0.085c-0.021,0 -0.043,-0.011 -0.064,-0.021c-0.032,-0.011 -0.075,-0.021 -0.107,-0.032l-0.128,-0.032l-0.043,-0.021l-0.075,-0.021c0,0 -0.16,-0.053 -0.192,-0.064c-0.032,-0.011 -0.075,-0.021 -0.117,-0.043c-0.021,-0.011 -0.032,-0.011 -0.053,-0.021c-0.043,-0.011 -0.075,-0.032 -0.117,-0.053c-0.021,-0.011 -0.043,-0.021 -0.064,-0.032c-0.107,-0.043 -0.203,-0.096 -0.298,-0.149c-0.021,-0.011 -0.043,-0.021 -0.064,-0.032c-0.043,-0.021 -0.096,-0.043 -0.139,-0.075c-0.043,-0.021 -0.085,-0.053 -0.128,-0.075l-0.096,-0.053c0,0 -0.043,-0.021 -0.075,-0.043c-0.075,-0.053 -0.16,-0.096 -0.234,-0.16c-0.043,-0.032 -0.085,-0.064 -0.128,-0.096c-0.043,-0.032 -0.075,-0.053 -0.117,-0.085c0,0 -0.011,-0.011 -0.021,-0.011c-0.021,-0.021 -0.053,-0.043 -0.075,-0.064c-0.064,-0.053 -0.128,-0.107 -0.181,-0.16c-0.021,-0.021 -0.085,-0.085 -0.085,-0.085c-0.032,-0.032 -0.075,-0.064 -0.107,-0.096c-0.021,-0.011 -0.032,-0.032 -0.053,-0.053c-0.703,-0.714 -1.236,-1.631 -1.503,-2.654c-0.011,-0.021 -0.011,-0.053 -0.021,-0.075c-0.032,-0.139 -0.075,-0.288 -0.117,-0.426c-0.053,-0.213 -0.117,-0.426 -0.171,-0.64c-0.053,-0.181 -0.096,-0.352 -0.149,-0.533c-0.117,-0.416 -0.245,-0.821 -0.373,-1.236c-0.053,-0.16 -0.107,-0.33 -0.16,-0.49c-0.053,-0.192 -0.117,-0.373 -0.181,-0.565c-0.053,-0.16 -0.107,-0.33 -0.16,-0.49c-0.075,-0.224 -0.16,-0.458 -0.234,-0.682c-0.053,-0.171 -0.117,-0.33 -0.181,-0.501c-0.053,-0.149 -0.107,-0.309 -0.171,-0.458c-0.085,-0.234 -0.171,-0.458 -0.256,-0.693c-0.064,-0.171 -0.128,-0.341 -0.192,-0.512c-0.213,-0.554 -0.437,-1.098 -0.671,-1.652c-3.006,-7.077 -7.195,-13.483 -12.481,-19.068c-0.426,-0.448 -0.863,-0.895 -1.3,-1.343c-4.008,-4.008 -8.474,-7.429 -13.313,-10.222c-2.281,-1.322 -4.658,-2.494 -7.12,-3.539c-0.224,-0.096 -0.458,-0.192 -0.682,-0.288c-0.075,-0.032 -0.149,-0.064 -0.224,-0.096c-0.149,-0.064 -0.288,-0.117 -0.437,-0.171c-0.085,-0.032 -0.16,-0.064 -0.245,-0.096c-0.203,-0.075 -0.394,-0.149 -0.586,-0.224c-0.021,-0.011 -0.043,-0.021 -0.075,-0.021c-0.171,-0.064 -0.33,-0.128 -0.501,-0.192c-0.064,-0.021 -0.139,-0.053 -0.203,-0.075c-0.117,-0.043 -0.234,-0.085 -0.352,-0.128c-0.107,-0.043 -0.224,-0.085 -0.33,-0.117c-0.085,-0.032 -0.171,-0.064 -0.256,-0.085c-0.192,-0.064 -0.373,-0.128 -0.565,-0.192c-0.032,-0.011 -0.053,-0.021 -0.085,-0.032c-0.181,-0.064 -0.362,-0.117 -0.533,-0.181c-0.298,-0.096 -0.586,-0.192 -0.885,-0.288c-0.107,-0.032 -0.203,-0.064 -0.309,-0.096c-0.149,-0.043 -0.298,-0.096 -0.458,-0.139c-0.064,-0.021 -0.139,-0.043 -0.203,-0.053c-0.149,-0.043 -0.298,-0.085 -0.448,-0.128c-0.096,-0.032 -0.192,-0.053 -0.288,-0.085c-0.16,-0.043 -0.32,-0.085 -0.469,-0.128c-0.288,-0.085 -0.576,-0.16 -0.863,-0.234c-0.128,-0.032 -0.256,-0.064 -0.384,-0.096c-0.117,-0.032 -0.234,-0.064 -0.352,-0.085c-0.107,-0.032 -0.213,-0.053 -0.32,-0.075c-0.107,-0.032 -0.213,-0.053 -0.32,-0.075c-0.149,-0.032 -0.298,-0.075 -0.448,-0.107c-0.426,-0.096 -0.853,-0.192 -1.29,-0.277c-0.117,-0.021 -0.224,-0.043 -0.341,-0.064c-0.117,-0.021 -0.234,-0.043 -0.352,-0.064c-0.149,-0.032 -0.298,-0.064 -0.448,-0.085c-0.043,-0.011 -0.085,-0.021 -0.128,-0.021c-0.181,-0.032 -0.373,-0.064 -0.554,-0.096c-0.362,-0.064 -0.725,-0.128 -1.087,-0.181c-0.064,-0.011 -0.139,-0.021 -0.203,-0.032c-0.096,-0.011 -0.192,-0.032 -0.288,-0.043c-0.16,-0.021 -0.32,-0.043 -0.48,-0.075c-0.117,-0.021 -0.245,-0.032 -0.362,-0.053c-0.085,-0.011 -0.171,-0.021 -0.256,-0.032c-0.139,-0.021 -0.288,-0.043 -0.426,-0.053c-0.234,-0.032 -0.458,-0.053 -0.693,-0.085c-0.245,-0.021 -0.49,-0.053 -0.725,-0.075c-0.064,-0.011 -0.117,-0.011 -0.171,-0.021c-0.192,-0.021 -0.394,-0.043 -0.586,-0.053c-0.064,-0.011 -0.139,-0.011 -0.203,-0.021c-0.064,0 -0.117,-0.011 -0.181,-0.021c-1.471,-0.117 -2.771,-0.778 -3.731,-1.769c-0.096,-0.096 -0.181,-0.192 -0.266,-0.298l-0.16,-0.203c0,-0.011 -0.011,-0.011 -0.021,-0.021c-0.021,-0.032 -0.043,-0.053 -0.064,-0.085c-0.032,-0.032 -0.053,-0.075 -0.085,-0.117l-0.075,-0.117l-0.043,-0.064c-0.021,-0.043 -0.053,-0.085 -0.075,-0.128c-0.021,-0.032 -0.043,-0.064 -0.064,-0.096c-0.032,-0.064 -0.075,-0.128 -0.107,-0.192c-0.032,-0.064 -0.064,-0.139 -0.096,-0.203c-0.032,-0.064 -0.053,-0.117 -0.085,-0.181c-0.032,-0.064 -0.053,-0.128 -0.075,-0.192c-0.032,-0.085 -0.064,-0.171 -0.096,-0.256c-0.032,-0.096 -0.064,-0.203 -0.096,-0.298l0,-0.011c-0.011,-0.021 -0.011,-0.053 -0.021,-0.075c-0.011,-0.043 -0.021,-0.085 -0.032,-0.128c-0.021,-0.085 -0.043,-0.181 -0.064,-0.266c0,-0.021 -0.011,-0.053 -0.011,-0.075c-0.011,-0.064 -0.021,-0.128 -0.032,-0.192c0,-0.021 0,-0.032 -0.011,-0.053l0,-0.032c-0.011,-0.107 -0.021,-0.224 -0.032,-0.33l0,-0.117c0,-0.107 -0.011,-0.203 -0.011,-0.309l0,-0.33c0,-0.107 0.021,-0.213 0.021,-0.309l0,-0.011c0,-0.021 0,-0.032 0.011,-0.053l0,-0.021l0.021,-0.096l0.011,-0.064c0.011,-0.043 0.011,-0.075 0.021,-0.117c0,-0.043 0.011,-0.075 0.021,-0.117c0.011,-0.043 0.021,-0.096 0.021,-0.139c0.021,-0.096 0.043,-0.181 0.064,-0.277c0,-0.021 0.011,-0.032 0.011,-0.053c0.011,-0.021 0.011,-0.043 0.021,-0.075l0.064,-0.192c0,-0.021 0.011,-0.043 0.021,-0.064c0,-0.011 0.011,-0.021 0.011,-0.021c0,-0.011 0.011,-0.021 0.011,-0.021l0.043,-0.107c0,-0.011 0,-0.021 0.011,-0.032c0,-0.011 0.011,-0.021 0.011,-0.032c0.011,-0.021 0.011,-0.032 0.021,-0.064c0,-0.011 0.011,-0.021 0.011,-0.032c0.011,-0.011 0.011,-0.021 0.021,-0.043l0.011,-0.021c0,-0.011 0.011,-0.021 0.011,-0.021l0.043,-0.096c0.032,-0.075 0.064,-0.139 0.096,-0.203c0.032,-0.064 0.075,-0.139 0.107,-0.203l0.597,-0.885l1.705,-2.558c0.565,0.096 1.14,0.16 1.727,0.192l0.352,0.032l0.16,0.011l0.096,0.011l0.171,0.011l0.16,0.021l0.021,0l1.119,0.085c0.021,0 0.266,0.021 0.266,0.021c0.075,0.011 0.352,0.032 0.352,0.032c0.064,0 0.117,0.011 0.171,0.021l0.192,0.021c0.203,0.021 0.405,0.043 0.608,0.064l0.373,0.043l0.064,0c0.021,0 0.128,0.021 0.128,0.021l0.075,0.011c0.298,0.032 0.586,0.075 0.885,0.107l0.512,0.064c0.117,0.021 0.224,0.032 0.341,0.053l0.117,0.021l0.128,0.021c0.085,0.011 0.16,0.021 0.245,0.032l0.075,0.011c0.128,0.021 0.256,0.032 0.384,0.053l0.831,0.139c0.053,0.011 0.107,0.021 0.16,0.021l0.096,0.021c0.117,0.021 0.224,0.043 0.33,0.064l0.171,0.021c0.107,0.021 0.213,0.043 0.33,0.053l0.064,0.011c0.16,0.032 0.32,0.053 0.469,0.085l0.064,0.011c0.096,0.021 0.192,0.032 0.288,0.053l0.181,0.032c0.234,0.043 0.469,0.096 0.693,0.139l0.096,0.021l0.075,0.011l0.48,0.107c0.128,0.032 0.266,0.053 0.394,0.085l0.426,0.096c0.203,0.043 0.394,0.096 0.597,0.139l0.128,0.032c0.149,0.032 0.298,0.075 0.448,0.107l0.107,0.032l0.213,0.053c0.181,0.043 0.362,0.085 0.544,0.139c0.181,0.043 0.352,0.096 0.533,0.139l0.021,0.011l0.298,0.075c0.192,0.053 0.373,0.107 0.565,0.16l0.277,0.075c0.234,0.064 0.469,0.139 0.703,0.203l0.085,0.021c0.192,0.053 0.394,0.117 0.597,0.181l0.064,0.021c0.213,0.064 0.437,0.128 0.65,0.203l0.181,0.064l0.053,0.011c0.16,0.053 0.32,0.107 0.49,0.16l0.139,0.043c0.426,0.139 0.885,0.288 1.396,0.469c0.075,0.021 0.139,0.053 0.213,0.075c0.213,0.075 0.426,0.149 0.64,0.224c0.245,0.096 0.501,0.181 0.746,0.277c0.48,0.181 0.981,0.373 1.503,0.576c0.245,0.096 0.48,0.192 0.735,0.298l0.075,0.032c0.224,0.085 0.437,0.181 0.65,0.266l0.011,0.011c1.268,0.533 2.505,1.098 3.699,1.684c6.779,3.294 12.993,7.568 18.535,12.726l-0.16,0c0.693,0.64 1.364,1.29 2.036,1.961c2.995,2.995 5.724,6.203 8.154,9.603c3.23,4.509 5.948,9.358 8.133,14.517c0.16,0.373 0.309,0.746 0.469,1.119c0.075,0.171 0.139,0.341 0.203,0.512c0.075,0.181 0.149,0.362 0.213,0.544c0.075,0.181 0.139,0.362 0.213,0.544c0.213,0.544 0.405,1.098 0.608,1.652c0.064,0.181 0.128,0.362 0.192,0.554c0.064,0.181 0.128,0.362 0.192,0.554c0.075,0.234 0.149,0.458 0.224,0.693c0.107,0.33 0.213,0.65 0.309,0.97c0.117,0.373 0.224,0.746 0.341,1.119c0.053,0.171 0.096,0.352 0.149,0.522c0.011,0.032 0.021,0.075 0.032,0.107c0.043,0.16 0.096,0.33 0.139,0.49c0.096,0.405 0.213,0.821 0.32,1.247Z" style="fill-rule:nonzero;"/><path d="M294.834,124.236c-0.234,0.032 -0.469,0.043 -0.703,0.043l-0.011,0c-1.258,0 -2.43,-0.405 -3.389,-1.087c0,0 -0.011,0 -0.011,-0.011l-0.234,-0.192c-0.128,-0.096 -0.245,-0.203 -0.373,-0.32l-0.171,-0.16c-0.778,-0.799 -1.332,-1.823 -1.545,-2.984c-0.043,-0.234 -0.096,-0.469 -0.139,-0.703c-0.032,-0.139 -0.053,-0.288 -0.085,-0.426c-0.043,-0.192 -0.075,-0.384 -0.117,-0.565c-0.053,-0.234 -0.107,-0.469 -0.16,-0.714c-0.053,-0.234 -0.107,-0.48 -0.16,-0.714c-0.064,-0.277 -0.128,-0.554 -0.192,-0.831c-0.16,-0.671 -0.33,-1.332 -0.501,-2.004c-0.053,-0.213 -0.117,-0.426 -0.171,-0.64c-0.011,-0.053 -0.032,-0.107 -0.043,-0.16c-0.117,-0.426 -0.234,-0.853 -0.362,-1.279c0,-0.021 -0.011,-0.032 -0.011,-0.053c-0.139,-0.458 -0.277,-0.917 -0.416,-1.375c-0.139,-0.458 -0.288,-0.906 -0.437,-1.364c-0.011,-0.032 -0.021,-0.053 -0.032,-0.085c-0.053,-0.171 -0.107,-0.33 -0.16,-0.49c-0.096,-0.288 -0.203,-0.586 -0.298,-0.874c-0.075,-0.213 -0.149,-0.426 -0.224,-0.64c-0.075,-0.224 -0.16,-0.437 -0.234,-0.661c-0.011,-0.021 -0.011,-0.043 -0.021,-0.064c-0.064,-0.171 -0.128,-0.352 -0.192,-0.522c-0.277,-0.757 -0.576,-1.503 -0.874,-2.249c-0.085,-0.203 -0.16,-0.405 -0.245,-0.608c0,-0.011 -0.011,-0.021 -0.011,-0.032c-0.096,-0.213 -0.181,-0.437 -0.277,-0.65c-3.933,-9.294 -9.38,-17.736 -16.212,-25.144c-0.831,-0.906 -1.695,-1.801 -2.569,-2.675c-4.509,-4.498 -9.433,-8.463 -14.73,-11.852c0.053,0.085 0.107,0.16 0.16,0.245c-0.107,-0.075 -0.224,-0.139 -0.33,-0.213c-0.245,-0.16 -0.49,-0.309 -0.735,-0.469c-0.064,-0.043 -0.117,-0.075 -0.181,-0.117c-0.256,-0.16 -0.512,-0.32 -0.778,-0.469c-0.021,-0.011 -0.032,-0.021 -0.043,-0.032c-0.245,-0.149 -0.501,-0.298 -0.757,-0.448c-0.085,-0.053 -0.171,-0.107 -0.256,-0.149c-0.224,-0.128 -0.821,-0.469 -0.895,-0.512c-0.256,-0.149 -0.512,-0.288 -0.778,-0.437c-0.021,-0.011 -0.043,-0.021 -0.064,-0.032c-0.298,-0.16 -0.586,-0.33 -0.885,-0.49c-0.011,0 -0.021,-0.011 -0.021,-0.011c-0.266,-0.139 -0.533,-0.288 -0.789,-0.426c-0.522,-0.277 -1.045,-0.544 -1.577,-0.81c-0.203,-0.096 -0.394,-0.203 -0.597,-0.298c-0.203,-0.096 -0.405,-0.192 -0.597,-0.298l0.266,0c-1.396,-0.682 -2.814,-1.322 -4.253,-1.929c-0.288,-0.117 -0.576,-0.245 -0.863,-0.352c-0.288,-0.117 -0.576,-0.234 -0.863,-0.352c-0.576,-0.224 -1.151,-0.448 -1.727,-0.671c-0.288,-0.107 -0.576,-0.213 -0.863,-0.32c-0.266,-0.096 -0.533,-0.192 -0.799,-0.288c-0.021,-0.011 -0.043,-0.011 -0.075,-0.021c-0.576,-0.203 -1.162,-0.405 -1.748,-0.586c-0.256,-0.085 -0.512,-0.171 -0.767,-0.245c-0.032,-0.011 -0.075,-0.021 -0.107,-0.032c-0.298,-0.096 -0.586,-0.181 -0.885,-0.277c-0.245,-0.075 -0.501,-0.149 -0.746,-0.224c-0.298,-0.085 -0.586,-0.171 -0.885,-0.256c-0.096,-0.021 -0.192,-0.053 -0.277,-0.075c-0.245,-0.075 -0.501,-0.139 -0.746,-0.203l-0.021,0c-0.288,-0.075 -0.586,-0.149 -0.874,-0.234c-0.234,-0.064 -0.469,-0.117 -0.703,-0.181c-0.096,-0.021 -0.192,-0.043 -0.277,-0.075c-0.203,-0.053 -0.416,-0.096 -0.618,-0.149c-0.266,-0.064 -0.522,-0.128 -0.789,-0.181c-0.139,-0.032 -0.288,-0.064 -0.426,-0.096c-0.203,-0.043 -0.405,-0.085 -0.597,-0.128c-0.117,-0.021 -0.234,-0.053 -0.352,-0.075c-0.096,-0.021 -0.192,-0.043 -0.288,-0.053c-0.277,-0.053 -0.554,-0.117 -0.831,-0.171c-0.043,-0.011 -0.085,-0.021 -0.128,-0.021c-0.16,-0.032 -0.32,-0.064 -0.469,-0.096c-0.192,-0.032 -0.384,-0.075 -0.576,-0.107c-0.16,-0.032 -0.33,-0.064 -0.49,-0.085c-0.181,-0.032 -0.352,-0.064 -0.533,-0.096c-0.128,-0.021 -0.256,-0.043 -0.384,-0.064c-0.107,-0.021 -0.224,-0.032 -0.33,-0.053c-0.117,-0.021 -0.245,-0.043 -0.362,-0.053c-0.203,-0.032 -0.394,-0.064 -0.597,-0.096c-0.16,-0.021 -0.32,-0.043 -0.48,-0.075c-0.181,-0.032 -0.362,-0.053 -0.544,-0.075c-0.171,-0.021 -0.341,-0.043 -0.512,-0.064c-0.021,0 -0.043,-0.011 -0.064,-0.011c-0.352,-0.043 -0.703,-0.085 -1.045,-0.128c-0.021,0 -0.043,-0.011 -0.075,-0.011c-0.149,-0.021 -0.298,-0.043 -0.458,-0.053c-0.032,0 -0.053,-0.011 -0.085,-0.011c-0.288,-0.032 -0.576,-0.064 -0.863,-0.096c-0.149,-0.021 -0.288,-0.032 -0.437,-0.043c-0.256,-0.021 -0.522,-0.053 -0.778,-0.075l-0.043,0c-0.171,-0.011 -0.341,-0.032 -0.501,-0.043c-0.192,-0.021 -0.384,-0.032 -0.576,-0.043c-0.139,-0.011 -0.277,-0.021 -0.416,-0.032c-0.117,-0.011 -0.234,-0.021 -0.352,-0.021c-0.117,-0.011 -0.245,-0.021 -0.362,-0.021c-2.014,-0.128 -3.731,-1.268 -4.679,-2.91c-0.49,-0.863 -0.778,-1.855 -0.778,-2.92l0,-0.011c0,-3.368 2.835,-6.022 6.193,-5.82l0.043,0c0.416,0.021 0.831,0.053 1.236,0.085c0.203,0.021 0.416,0.032 0.618,0.043c0.181,0.011 0.362,0.032 0.544,0.043c0.234,0.021 0.458,0.043 0.693,0.064c0.181,0.021 0.362,0.032 0.544,0.053c0.448,0.043 0.885,0.096 1.332,0.139c0.192,0.021 0.394,0.043 0.586,0.064c0.16,0.021 0.32,0.043 0.49,0.064c0.234,0.032 0.469,0.064 0.703,0.096c0.107,0.011 0.213,0.021 0.32,0.043c0.107,0.011 0.213,0.032 0.33,0.043c0.181,0.021 0.352,0.053 0.533,0.075c0.16,0.021 0.32,0.043 0.48,0.075c0.65,0.096 1.3,0.203 1.951,0.309c0.171,0.032 0.341,0.064 0.512,0.085c0.171,0.032 1.364,0.256 1.535,0.288c0.341,0.064 0.682,0.128 1.023,0.203c0.341,0.075 0.682,0.139 1.023,0.213c0.341,0.075 0.682,0.149 1.013,0.224c0.171,0.043 0.341,0.075 0.512,0.117c0.512,0.117 1.013,0.234 1.524,0.362c0.171,0.043 0.341,0.085 0.501,0.128c0.171,0.043 0.341,0.085 0.501,0.128c0.171,0.043 0.33,0.085 0.501,0.128c0.33,0.085 0.671,0.181 1.002,0.277c0.171,0.043 0.33,0.096 0.501,0.139c0.32,0.096 0.64,0.181 0.959,0.277c0.181,0.053 0.362,0.107 0.544,0.16c0.309,0.096 0.618,0.181 0.927,0.277c0.352,0.107 0.714,0.224 1.066,0.33c0.16,0.053 0.33,0.107 0.501,0.16c0.16,0.053 0.33,0.107 0.501,0.16c0.661,0.213 1.322,0.448 1.983,0.682c0.16,0.053 0.33,0.117 0.49,0.181c0.181,0.064 0.352,0.128 0.533,0.192c0.149,0.053 0.298,0.107 0.448,0.171c0.373,0.139 0.746,0.288 1.119,0.426c0.16,0.064 0.32,0.117 0.469,0.181c0.384,0.149 0.767,0.309 1.151,0.469c0.16,0.064 0.309,0.128 0.458,0.192c0.234,0.096 0.458,0.192 0.693,0.288c0.863,0.362 1.716,0.735 2.569,1.13c4.882,2.228 9.55,4.828 13.973,7.781c5.372,3.592 10.392,7.706 15.018,12.332c9.113,9.092 16.265,19.708 21.275,31.528c0.107,0.256 0.224,0.522 0.33,0.789l0.032,0.075c0.096,0.224 0.181,0.448 0.277,0.671c0.149,0.373 0.309,0.757 0.448,1.13c0.096,0.245 0.192,0.49 0.288,0.735c0.085,0.213 0.16,0.426 0.245,0.64c0.011,0.032 0.021,0.064 0.032,0.096c0.096,0.266 0.203,0.533 0.298,0.799c0.117,0.309 0.224,0.618 0.33,0.938c0.064,0.181 0.128,0.362 0.192,0.544c0.043,0.107 0.075,0.213 0.117,0.33c0.181,0.522 0.352,1.055 0.522,1.588c0.075,0.245 0.16,0.49 0.234,0.735c0,0.011 0.011,0.021 0.011,0.043c0.085,0.277 0.171,0.544 0.256,0.821l0,0.011c0.075,0.256 0.16,0.522 0.234,0.778c0.021,0.053 0.032,0.107 0.043,0.149c0.064,0.234 0.139,0.469 0.203,0.693c0.011,0.021 0.011,0.043 0.021,0.064c0.075,0.256 0.149,0.512 0.213,0.767c0.064,0.234 0.128,0.48 0.192,0.714c0.053,0.192 0.096,0.373 0.149,0.565c0.011,0.032 0.021,0.075 0.021,0.107c0.053,0.192 0.096,0.384 0.149,0.576c0.117,0.448 0.224,0.885 0.33,1.332c0.032,0.16 0.075,0.32 0.107,0.469c0.021,0.064 0.032,0.128 0.043,0.192c0.043,0.171 0.075,0.341 0.117,0.512c0.064,0.266 0.117,0.544 0.181,0.81c0.043,0.224 0.096,0.448 0.139,0.671c0.043,0.203 0.085,0.394 0.128,0.597c0.032,0.149 0.064,0.298 0.085,0.437c0.053,0.245 0.096,0.501 0.149,0.746c0.597,3.325 -1.78,6.438 -5.074,6.832Z" style="fill-rule:nonzero;"/><path d="M201.774,121.038c0.064,0.234 0.128,0.48 0.213,0.703c-0.085,-0.234 -0.16,-0.469 -0.213,-0.703Z" style="fill-rule:nonzero;"/><path d="M206.57,127.732c-1.865,-1.226 -3.357,-2.984 -4.242,-5.063c0.885,2.068 2.377,3.826 4.242,5.063Z" style="fill-rule:nonzero;"/><path d="M204.599,110.283c-1.194,1.247 -2.078,2.718 -2.611,4.306c0.586,-1.78 1.599,-3.368 2.931,-4.647l-0.32,0.341Z" style="fill-rule:nonzero;"/><path d="M207.423,128.243c0.213,0.117 0.426,0.224 0.65,0.32c-0.224,-0.096 -0.437,-0.203 -0.65,-0.32Z" style="fill-rule:nonzero;"/><path d="M208.073,128.563c0.213,0.096 0.416,0.181 0.629,0.266c-0.213,-0.075 -0.426,-0.171 -0.629,-0.266Z" style="fill-rule:nonzero;"/><path d="M222.825,123.703c-0.608,1.098 -1.386,2.078 -2.302,2.91c0.81,-0.746 1.524,-1.62 2.11,-2.601l0.192,-0.309Z" style="fill-rule:nonzero;"/><path d="M283.27,102.471l0,0.309c-0.075,-0.181 -0.139,-0.352 -0.213,-0.512c-0.053,-0.139 -0.117,-0.277 -0.171,-0.405l0,-0.011c-0.117,-0.288 -0.245,-0.576 -0.373,-0.863c-0.075,-0.171 -0.149,-0.33 -0.224,-0.501c-0.064,-0.149 -0.128,-0.298 -0.203,-0.448c-0.064,-0.139 -0.128,-0.288 -0.192,-0.426c-0.064,-0.149 -0.139,-0.309 -0.213,-0.458c-0.085,-0.181 -0.171,-0.373 -0.256,-0.554c-0.043,-0.085 -0.075,-0.171 -0.117,-0.245c-0.117,-0.245 -0.234,-0.501 -0.362,-0.746c-0.139,-0.277 -0.277,-0.565 -0.416,-0.842c-0.139,-0.277 -0.277,-0.544 -0.416,-0.821c-0.149,-0.288 -0.298,-0.576 -0.448,-0.863c-0.277,-0.512 -0.544,-1.023 -0.831,-1.535c-0.181,-0.33 -0.362,-0.65 -0.554,-0.981c-0.096,-0.171 -0.192,-0.33 -0.288,-0.501c-0.064,-0.117 -0.139,-0.234 -0.203,-0.352c-0.107,-0.171 -0.203,-0.352 -0.309,-0.522c-0.064,-0.107 -0.128,-0.213 -0.192,-0.33c-0.096,-0.16 -0.192,-0.309 -0.288,-0.469c-0.085,-0.139 -0.16,-0.266 -0.245,-0.405c-0.107,-0.171 -0.213,-0.341 -0.32,-0.512c-0.021,-0.043 -0.053,-0.075 -0.075,-0.117c-0.149,-0.234 -0.298,-0.469 -0.448,-0.703c-0.512,-0.789 -1.023,-1.567 -1.556,-2.334c-0.128,-0.181 -0.256,-0.362 -0.384,-0.544c-0.064,-0.096 -0.128,-0.181 -0.192,-0.266c-0.107,-0.16 -0.224,-0.309 -0.33,-0.469c-0.096,-0.128 -0.181,-0.256 -0.277,-0.384c-0.085,-0.117 -0.16,-0.224 -0.245,-0.341c-0.16,-0.213 -0.32,-0.426 -0.48,-0.64c-0.011,-0.021 -0.021,-0.032 -0.032,-0.043c-0.149,-0.213 -0.309,-0.416 -0.469,-0.618c-0.096,-0.128 -0.192,-0.245 -0.288,-0.373c-0.394,-0.512 -0.789,-1.013 -1.194,-1.514c-0.384,-0.48 -0.778,-0.949 -1.172,-1.418c-0.011,-0.011 -0.011,-0.021 -0.021,-0.021c-0.139,-0.171 -0.288,-0.33 -0.426,-0.501c-0.085,-0.096 -0.171,-0.203 -0.256,-0.298c-0.139,-0.16 -0.277,-0.32 -0.416,-0.48c-0.053,-0.075 -0.117,-0.139 -0.181,-0.203c-0.128,-0.149 -0.266,-0.298 -0.394,-0.448c-0.117,-0.128 -0.234,-0.256 -0.341,-0.384c-0.117,-0.128 -0.234,-0.256 -0.352,-0.384c-0.032,-0.032 -0.064,-0.064 -0.096,-0.096c-0.064,-0.064 -0.117,-0.128 -0.181,-0.192c-0.128,-0.139 -0.266,-0.288 -0.405,-0.426c-0.213,-0.224 -0.426,-0.458 -0.64,-0.682c-0.213,-0.213 -0.416,-0.437 -0.629,-0.65c-0.266,-0.277 -0.544,-0.554 -0.821,-0.831c-0.203,-0.203 -0.405,-0.405 -0.618,-0.608c-0.16,-0.16 -0.32,-0.309 -0.48,-0.469c-0.171,-0.171 -0.352,-0.341 -0.522,-0.501c-0.085,-0.085 -0.181,-0.171 -0.266,-0.256c-0.181,-0.171 -0.352,-0.33 -0.533,-0.501c-0.181,-0.171 -0.373,-0.341 -0.554,-0.512c-0.043,-0.043 -0.096,-0.085 -0.139,-0.128c-0.181,-0.171 -0.373,-0.33 -0.554,-0.501c-0.16,-0.139 -0.32,-0.277 -0.469,-0.416c-0.096,-0.075 -0.181,-0.16 -0.266,-0.234c-0.149,-0.139 -0.309,-0.266 -0.458,-0.394c-0.181,-0.16 -0.362,-0.309 -0.544,-0.458c-0.043,-0.043 -0.096,-0.075 -0.139,-0.117c-0.224,-0.192 -0.448,-0.373 -0.671,-0.565c-0.821,-0.682 -1.663,-1.343 -2.515,-1.993c-0.203,-0.149 -0.394,-0.309 -0.597,-0.448c-0.096,-0.075 -0.192,-0.149 -0.288,-0.213c-0.149,-0.117 -0.309,-0.234 -0.458,-0.341c-0.149,-0.107 -0.288,-0.213 -0.437,-0.32c-0.149,-0.107 -0.288,-0.213 -0.437,-0.32c-0.149,-0.107 -0.309,-0.213 -0.458,-0.33c-0.149,-0.107 -0.298,-0.213 -0.448,-0.32c-0.16,-0.117 -0.33,-0.234 -0.501,-0.341c-0.128,-0.085 -0.256,-0.181 -0.394,-0.266c-0.192,-0.139 -0.394,-0.266 -0.586,-0.394c-0.085,-0.064 -0.181,-0.117 -0.266,-0.181c-0.245,-0.16 -0.49,-0.32 -0.735,-0.48c-0.043,-0.032 -0.096,-0.064 -0.139,-0.096c-0.053,-0.085 -0.107,-0.16 -0.16,-0.245c5.297,3.389 10.222,7.354 14.73,11.852c0.874,0.874 1.737,1.769 2.569,2.675c6.822,7.408 12.268,15.849 16.212,25.144c0.075,0.192 0.171,0.416 0.256,0.629Z" style="fill-rule:nonzero;"/><path d="M199.301,81.1c0.021,0.021 0.053,0.032 0.075,0.043c-0.011,0 -0.011,-0.011 -0.021,-0.011c-0.021,-0.011 -0.032,-0.021 -0.053,-0.032Z" style="fill-rule:nonzero;"/><path d="M199.419,81.164c0.011,0 0.021,0.011 0.021,0.011c-0.011,-0 -0.011,-0 -0.021,-0.011c-0.011,-0.011 -0.021,-0.011 -0.043,-0.021c0.011,0.011 0.032,0.021 0.043,0.021Z" style="fill-rule:nonzero;"/><path d="M199.941,81.463c-0.032,-0.021 -0.064,-0.032 -0.096,-0.053c-0.011,-0.011 -0.021,-0.011 -0.032,-0.021c0.011,0.011 0.021,0.011 0.032,0.021c0.032,0.011 0.064,0.032 0.096,0.053Z" style="fill-rule:nonzero;"/><path d="M209.011,83.701l-0.043,0l0.043,0Z" style="fill-rule:nonzero;"/><path d="M211.761,84.127l-0.011,0c-0.032,-0.011 -0.075,-0.011 -0.107,-0.021c0.032,0.011 0.064,0.011 0.107,0.021l0.011,0Z" style="fill-rule:nonzero;"/><path d="M212.315,84.234l-0.117,-0.021l-0.085,-0.021c0.032,0 0.064,0.011 0.085,0.021l0.117,0.021Z" style="fill-rule:nonzero;"/><path d="M214.341,84.66l-0.032,0l-0.064,-0.021l0.053,0.011l0.043,0.011Z" style="fill-rule:nonzero;"/><path d="M218.7,85.886c-0.021,0 -0.032,-0.011 -0.043,-0.011l0.032,0.011l0.011,0Z" style="fill-rule:nonzero;"/><path d="M220.853,86.653c-0.011,0 -0.021,-0.011 -0.032,-0.011l-0.011,-0.011l0.043,0.021Z" style="fill-rule:nonzero;"/><path d="M221.407,86.866c-0.021,-0.011 -0.043,-0.021 -0.064,-0.021c-0.021,-0.011 -0.043,-0.021 -0.064,-0.021c0.043,0 0.085,0.021 0.128,0.043Z" style="fill-rule:nonzero;"/><path d="M226.236,89.03c-0.192,-0.096 -0.384,-0.192 -0.586,-0.288c0.053,0.021 0.096,0.053 0.149,0.075c0.149,0.064 0.298,0.139 0.437,0.213Z" style="fill-rule:nonzero;"/><path d="M226.715,89.275c-0.149,-0.085 -0.309,-0.16 -0.469,-0.245c0,0 -0.011,0 -0.011,-0.011l0.011,0c0.128,0.064 0.256,0.128 0.373,0.192c0.032,0.032 0.064,0.053 0.096,0.064Z" style="fill-rule:nonzero;"/><path d="M227.003,89.425c-0.096,-0.053 -0.192,-0.107 -0.288,-0.149c0.021,0.011 0.032,0.021 0.053,0.021c0.075,0.043 0.149,0.085 0.234,0.128Z" style="fill-rule:nonzero;"/><path d="M204.172,93.848l0.256,0.245c-0.725,-0.597 -1.29,-1.354 -1.652,-2.228c-0.075,-0.16 -0.128,-0.33 -0.181,-0.501c0.053,0.171 0.117,0.341 0.192,0.501c0.298,0.735 0.778,1.407 1.386,1.983Z" style="fill-rule:nonzero;"/><path d="M248.171,123.703c0.075,-0.032 0.16,-0.075 0.234,-0.117c-0.032,0.021 -0.064,0.032 -0.096,0.053c-0.043,0.021 -0.085,0.043 -0.139,0.064Z" style="fill-rule:nonzero;"/><path d="M248.779,123.362c0.171,-0.107 0.33,-0.224 0.49,-0.352c-0.266,0.213 -0.554,0.405 -0.863,0.576c0.117,-0.064 0.234,-0.139 0.352,-0.203c0.011,-0.011 0.011,-0.021 0.021,-0.021Z" style="fill-rule:nonzero;"/><path d="M249.439,122.871c0.053,-0.043 0.107,-0.085 0.149,-0.139c-0.107,0.096 -0.213,0.192 -0.32,0.277c0.053,-0.043 0.107,-0.085 0.16,-0.128c0,-0.011 0.011,-0.011 0.011,-0.011Z" style="fill-rule:nonzero;"/><path d="M249.802,122.53c-0.064,0.075 -0.139,0.139 -0.213,0.203c0.053,-0.043 0.096,-0.096 0.149,-0.139c0.021,-0.021 0.043,-0.043 0.064,-0.064Z" style="fill-rule:nonzero;"/><path d="M252.882,121.166c0.021,0.075 0.043,0.149 0.064,0.213c-0.021,-0.075 -0.043,-0.149 -0.064,-0.213Z" style="fill-rule:nonzero;"/><path d="M252.978,121.486l-0.011,-0.021l-0.011,-0.032l-0.011,-0.021l0,-0.021c0,0.011 0,0.011 0.011,0.021l0.021,0.075Z" style="fill-rule:nonzero;"/><path d="M190.924,68.566c0.043,0.256 0.075,0.522 0.128,0.778c-0.043,-0.256 -0.085,-0.522 -0.128,-0.778Zm2.302,-11.394c0,0.011 -0.011,0.021 -0.011,0.021c-0,0 0.011,-0.011 0.011,-0.021Zm89.969,72.841c-0.032,0.032 -0.064,0.064 -0.096,0.096c-0.064,0.075 -0.117,0.139 -0.181,0.203c-0.064,0.064 -0.128,0.139 -0.192,0.203c-0.043,0.043 -0.075,0.085 -0.117,0.128c-0.053,0.053 -0.384,0.384 -0.416,0.416c0,0.011 -0.011,0.011 -0.011,0.011c0.011,0.011 0.021,0.021 0.043,0.032c0.16,0.16 0.33,0.309 0.501,0.458c0.075,0.064 0.149,0.128 0.234,0.192c0.107,0.096 0.224,0.181 0.33,0.277l0,-2.11c-0.043,0.032 -0.075,0.064 -0.096,0.096Zm-1.034,1.066c0,0 0,0.011 0,0c0,0.011 0,0 0,0Zm-0.021,0.021l-0.011,0.011c0.011,0 0.011,-0.011 0.011,-0.011Zm-11.959,-18.386l0,11.565l0,-11.565Z" style="fill-rule:nonzero;"/><path d="M202.328,66.551c0,-0.043 0,-0.075 -0.011,-0.117l0,0.043l0.011,0.075Z" style="fill-rule:nonzero;"/><path d="M202.403,65.123c0,0.043 -0.011,0.075 -0.021,0.117l-0.011,0.064l-0.021,0.096c0,-0.021 0,-0.043 0.011,-0.064c0,-0.021 0,-0.043 0.011,-0.064l0,-0.021c0.021,-0.053 0.021,-0.096 0.032,-0.128Z" style="fill-rule:nonzero;"/><path d="M202.35,65.475c-0.011,0.107 -0.021,0.213 -0.021,0.309c0,-0.096 0.021,-0.203 0.021,-0.309Z" style="fill-rule:nonzero;"/><path d="M203.362,69.45c-0.043,-0.053 -0.075,-0.117 -0.117,-0.171l0.043,0.064l0.075,0.107Z" style="fill-rule:nonzero;"/><path d="M202.691,64.057l-0.043,0.107c0,0.011 -0.011,0.011 -0.011,0.021c0,0.011 -0.011,0.021 -0.011,0.021l0,-0.021c0.032,-0.032 0.043,-0.085 0.064,-0.128Z" style="fill-rule:nonzero;"/><path d="M202.723,63.982c0.011,-0.021 0.011,-0.032 0.021,-0.043c-0.011,0.021 -0.021,0.043 -0.021,0.064c-0.011,-0.011 -0.011,-0.011 0,-0.021Z" style="fill-rule:nonzero;"/><path d="M202.776,63.833l-0.011,0.021c-0.011,0.011 -0.011,0.032 -0.021,0.043c0.021,-0.021 0.021,-0.043 0.032,-0.064Z" style="fill-rule:nonzero;"/><path d="M203.629,62.426l-0.597,0.885c-0.043,0.064 -0.075,0.139 -0.107,0.203c-0.032,0.064 -0.064,0.139 -0.096,0.203l-0.043,0.096l0,-0.011c0,-0.011 0,-0.011 0.011,-0.021c0.021,-0.064 0.053,-0.117 0.075,-0.181c0,-0.011 0.011,-0.021 0.011,-0.032c0,-0.011 0.011,-0.021 0.021,-0.032c0.011,-0.021 0.021,-0.043 0.032,-0.064c0.064,-0.128 0.128,-0.245 0.203,-0.362c0.021,-0.032 0.043,-0.064 0.053,-0.096c0.021,-0.043 0.043,-0.075 0.075,-0.117c0.011,-0.021 0.021,-0.032 0.032,-0.053l0.011,-0.011c0.032,-0.043 0.064,-0.096 0.096,-0.139c0.085,-0.096 0.16,-0.181 0.224,-0.266Z" style="fill-rule:nonzero;"/><path d="M191.052,69.344c-0.053,-0.256 -0.096,-0.522 -0.128,-0.778c0.043,0.256 0.085,0.522 0.128,0.778Z" style="fill-rule:nonzero;"/><path d="M193.226,57.172c0,0.011 -0.011,0.021 -0.021,0.021c0.011,0 0.021,-0.011 0.021,-0.021Z" style="fill-rule:nonzero;"/><path d="M199.301,81.1c0.021,0.021 0.053,0.032 0.075,0.043c-0.011,0 -0.011,-0.011 -0.021,-0.011c-0.021,-0.011 -0.032,-0.021 -0.053,-0.032Z" style="fill-rule:nonzero;"/><path d="M199.419,81.164c0.011,0 0.021,0.011 0.021,0.011c-0.011,-0 -0.011,-0 -0.021,-0.011c-0.011,-0.011 -0.021,-0.011 -0.043,-0.021c0.011,0.011 0.032,0.021 0.043,0.021Z" style="fill-rule:nonzero;"/><path d="M199.845,81.409c0.032,0.021 0.064,0.032 0.096,0.053c-0.032,-0.021 -0.064,-0.032 -0.096,-0.053c-0.011,0 -0.021,-0.011 -0.032,-0.021c0.011,0.011 0.021,0.011 0.032,0.021Z" style="fill-rule:nonzero;"/><path d="M201.977,121.741c-0.075,-0.234 -0.149,-0.469 -0.213,-0.703c0.064,0.234 0.139,0.469 0.213,0.703Z" style="fill-rule:nonzero;"/><path d="M204.428,94.093c-0.725,-0.597 -1.29,-1.354 -1.652,-2.228c-0.075,-0.16 -0.128,-0.33 -0.181,-0.501c0.053,0.171 0.117,0.341 0.192,0.501c0.309,0.735 0.789,1.407 1.396,1.983l0.245,0.245Z" style="fill-rule:nonzero;"/><path d="M204.918,109.953l-0.32,0.33c-1.194,1.247 -2.078,2.718 -2.611,4.306c0.586,-1.78 1.609,-3.368 2.931,-4.636Z" style="fill-rule:nonzero;"/><path d="M206.57,127.732c-1.865,-1.226 -3.357,-2.984 -4.242,-5.063c0.885,2.068 2.377,3.826 4.242,5.063Z" style="fill-rule:nonzero;"/><path d="M208.073,128.563c-0.224,-0.096 -0.437,-0.203 -0.65,-0.32c0.213,0.107 0.426,0.224 0.65,0.32Z" style="fill-rule:nonzero;"/><path d="M208.702,128.829c-0.213,-0.085 -0.426,-0.171 -0.629,-0.266c0.203,0.096 0.416,0.181 0.629,0.266Z" style="fill-rule:nonzero;"/><path d="M222.825,123.703c-0.608,1.098 -1.386,2.078 -2.302,2.91c0.81,-0.746 1.524,-1.62 2.11,-2.601l0.192,-0.309Z" style="fill-rule:nonzero;"/><path d="M248.171,123.703c0.075,-0.032 0.16,-0.075 0.234,-0.117c-0.032,0.021 -0.064,0.032 -0.096,0.053c-0.043,0.021 -0.085,0.043 -0.139,0.064Z" style="fill-rule:nonzero;"/><path d="M248.779,123.362c0.171,-0.107 0.33,-0.224 0.49,-0.352c-0.266,0.213 -0.554,0.405 -0.863,0.576c0.117,-0.064 0.234,-0.139 0.352,-0.203c0.011,-0.011 0.011,-0.021 0.021,-0.021Z" style="fill-rule:nonzero;"/><path d="M249.439,122.871c0.053,-0.043 0.107,-0.085 0.149,-0.139c-0.107,0.096 -0.213,0.192 -0.32,0.277c0.053,-0.043 0.107,-0.085 0.16,-0.128c0,-0.011 0.011,-0.011 0.011,-0.011Z" style="fill-rule:nonzero;"/><path d="M249.802,122.53c-0.064,0.075 -0.139,0.139 -0.213,0.203c0.053,-0.043 0.096,-0.096 0.149,-0.139c0.021,-0.021 0.043,-0.043 0.064,-0.064Z" style="fill-rule:nonzero;"/><path d="M247.233,124.054c0.021,-0.011 0.053,-0.011 0.075,-0.021c-0.021,0 -0.032,0.011 -0.053,0.011c0,0.011 -0.011,0.011 -0.021,0.011Z" style="fill-rule:nonzero;"/><path d="M247.809,123.863c-0.043,0.021 -0.096,0.032 -0.139,0.053c-0.011,0 -0.011,0 -0.021,0.011l-0.011,0c0.064,-0.021 0.117,-0.043 0.171,-0.064Z" style="fill-rule:nonzero;"/><path d="M252.957,121.4l0.021,0.085l-0.011,-0.021l-0.011,-0.032l-0,-0.032l-0.011,-0.021c0.011,0.011 0.011,0.011 0.011,0.021Z" style="fill-rule:nonzero;"/><path d="M258.425,131.26c0.075,0.064 0.139,0.128 0.213,0.192c-0.032,-0.021 -0.053,-0.043 -0.085,-0.075c-0.011,-0.011 -0.032,-0.021 -0.043,-0.043c-0.032,-0.021 -0.064,-0.053 -0.085,-0.075Z" style="fill-rule:nonzero;"/><path d="M267.325,123.532c-0.181,-0.107 -0.362,-0.213 -0.533,-0.341c0.075,0.053 0.16,0.107 0.234,0.16c0.032,0.021 0.075,0.043 0.075,0.043l0.096,0.053c0.043,0.032 0.085,0.053 0.128,0.085Z" style="fill-rule:nonzero;"/><path d="M268.486,124.022c-0.075,-0.021 -0.149,-0.043 -0.213,-0.075l0.096,0.032l0.075,0.021l0.043,0.021Z" style="fill-rule:nonzero;"/><path d="M269.659,124.257c-0.032,0 -0.064,0 -0.096,-0.011l0.085,0l0.011,0.011Z" style="fill-rule:nonzero;"/><path d="M269.947,124.278c-0.021,0 -0.053,0 -0.075,-0.011l0.032,0l0.043,0.011Z" style="fill-rule:nonzero;"/><path d="M282.14,131.1c0,0 -0.021,0.021 -0.032,0.032c0,0 -0.011,0 -0.011,0.011l0.043,-0.043Z" style="fill-rule:nonzero;"/><path d="M282.161,131.078l0,0.011l0,-0.011Z" style="fill-rule:nonzero;"/><path d="M283.27,129.927l0,2.11c-0.117,-0.085 -0.224,-0.181 -0.33,-0.277c-0.075,-0.064 -0.149,-0.128 -0.234,-0.192c-0.171,-0.149 -0.341,-0.298 -0.501,-0.458c-0.011,-0.011 -0.021,-0.021 -0.043,-0.032l0.011,-0.011c0.043,-0.032 0.075,-0.075 0.107,-0.107c0,0 0.256,-0.256 0.309,-0.309c0.043,-0.043 0.085,-0.085 0.117,-0.128c0.064,-0.064 0.128,-0.139 0.192,-0.203c0.064,-0.064 0.128,-0.139 0.181,-0.203c0.032,-0.032 0.171,-0.171 0.192,-0.192Z" style="fill-rule:nonzero;"/><path d="M290.71,123.18c-0.277,-0.203 -0.544,-0.426 -0.778,-0.671l0.171,0.16c0.117,0.117 0.245,0.224 0.373,0.32l0.234,0.192Z" style="fill-rule:nonzero;"/><path d="M283.27,132.038l0,57.343c0,19.324 -15.668,34.982 -34.982,34.982l-30.654,0l0,-25.602c0,-9.156 -1.801,-18.045 -5.34,-26.423c-3.421,-8.09 -8.314,-15.338 -14.538,-21.573c-6.225,-6.225 -13.483,-11.117 -21.573,-14.538c-8.378,-3.549 -17.267,-5.34 -26.423,-5.34c-9.156,0 -18.045,1.801 -26.423,5.34c-8.09,3.421 -15.338,8.314 -21.573,14.538c-6.225,6.225 -11.117,13.483 -14.538,21.573c-3.539,8.378 -5.34,17.267 -5.34,26.423l0,25.602l-30.878,0c-19.324,0 -34.982,-15.668 -34.982,-34.982l0,-97.217c0,-11.671 5.713,-21.999 14.496,-28.352c5.074,-3.677 11.181,-6.022 17.789,-6.523c0.885,-0.064 1.791,-0.107 2.697,-0.107l142.218,0c0,0.011 -0.011,0.021 -0.011,0.021l-0.011,0.021c-0.064,0.107 -0.128,0.224 -0.192,0.33c-0.043,0.075 -0.085,0.149 -0.117,0.213c-0.021,0.032 -0.032,0.064 -0.053,0.096c-0.053,0.096 -0.107,0.203 -0.16,0.298c-0.064,0.117 -0.117,0.224 -0.171,0.341c-0.075,0.149 -0.139,0.298 -0.213,0.448c-0.064,0.128 -0.117,0.256 -0.171,0.384c-0.107,0.245 -0.203,0.501 -0.298,0.757c-0.011,0.032 -0.021,0.075 -0.043,0.107c-0.043,0.107 -0.075,0.213 -0.107,0.32c-0.032,0.107 -0.075,0.213 -0.107,0.32c-0.021,0.064 -0.043,0.139 -0.064,0.203c-0.064,0.213 -0.128,0.426 -0.181,0.65c-0.011,0.043 -0.021,0.096 -0.032,0.139c-0.053,0.203 -0.096,0.405 -0.139,0.597c0,0.021 -0.011,0.032 -0.011,0.043c-0.021,0.075 -0.032,0.139 -0.043,0.213c-0.021,0.128 -0.043,0.245 -0.075,0.373c0,0.011 0,0.021 -0.011,0.043c-0.021,0.117 -0.043,0.245 -0.064,0.373c-0.011,0.096 -0.032,0.192 -0.043,0.277c-0.021,0.128 -0.032,0.266 -0.053,0.394c-0.011,0.096 -0.021,0.181 -0.032,0.266c-0.043,0.384 -0.064,0.778 -0.075,1.172l0,0.97c0,0.277 0.021,0.554 0.043,0.821c0.011,0.096 0.011,0.192 0.021,0.288c0,0.021 0,0.053 0.011,0.075c0,0.021 0,0.053 0.011,0.075c0.011,0.085 0.021,0.171 0.021,0.245c0,0.043 0.011,0.075 0.011,0.117c0.011,0.128 0.032,0.256 0.043,0.373c0.043,0.256 0.075,0.522 0.128,0.778c0.021,0.107 0.043,0.213 0.064,0.32c0.011,0.064 0.032,0.128 0.043,0.192c0.011,0.053 0.021,0.107 0.043,0.171c0.011,0.064 0.032,0.128 0.043,0.203c0.032,0.128 0.064,0.256 0.096,0.373c0.021,0.096 0.053,0.192 0.075,0.288c0.075,0.266 0.16,0.533 0.245,0.799c0.043,0.128 0.085,0.256 0.139,0.394c0.043,0.128 0.096,0.256 0.149,0.394c0.053,0.128 0.107,0.256 0.16,0.384c0.096,0.234 0.203,0.48 0.32,0.703c0.053,0.107 0.107,0.213 0.16,0.32c0.181,0.352 0.362,0.703 0.565,1.045c0.064,0.117 0.139,0.234 0.203,0.341c0.053,0.075 0.096,0.16 0.149,0.234c0.107,0.171 0.224,0.341 0.341,0.512c0.053,0.075 0.096,0.149 0.149,0.213c0.011,0.011 0.021,0.032 0.032,0.043c0.064,0.085 0.117,0.16 0.181,0.245c0.096,0.139 0.203,0.266 0.309,0.394c0.085,0.107 0.171,0.213 0.256,0.32c0.043,0.043 0.085,0.096 0.117,0.149c0.139,0.16 0.266,0.309 0.416,0.469c-0.703,0.767 -1.322,1.577 -1.865,2.451c-1.737,2.75 -2.686,5.958 -2.686,9.305c0,0.767 0.053,1.514 0.149,2.26c0.533,4.05 2.473,7.706 5.351,10.413c-3.965,4.136 -6.406,9.742 -6.406,15.903c0,12.673 10.307,22.98 22.991,22.98c8.378,0 15.721,-4.498 19.74,-11.213c3.24,3.688 7.951,5.894 13.067,5.894c4.636,0 9.049,-1.855 12.279,-5.074c0.011,0.011 0.021,0.021 0.021,0.021c0.16,0.16 0.32,0.309 0.48,0.458c0.021,0.021 0.053,0.053 0.085,0.075c0.011,0.011 0.032,0.021 0.043,0.043c0.021,0.021 0.053,0.043 0.085,0.075c0.075,0.064 0.139,0.117 0.213,0.181c0.096,0.085 0.203,0.171 0.309,0.256c0.011,0.011 0.021,0.021 0.032,0.032c0.32,0.256 0.65,0.512 0.981,0.746c0.117,0.075 0.234,0.16 0.352,0.234c0.117,0.075 0.234,0.149 0.352,0.234c0.107,0.075 0.224,0.139 0.341,0.213c0.011,0.011 0.021,0.011 0.032,0.021c0.181,0.107 0.362,0.213 0.544,0.309c0.181,0.096 0.362,0.203 0.554,0.288c0.117,0.064 0.245,0.117 0.362,0.181c0.021,0.011 0.032,0.021 0.053,0.021c0.117,0.053 0.234,0.107 0.352,0.16c0.256,0.117 0.512,0.224 0.778,0.33c0.16,0.064 0.33,0.128 0.49,0.181c0.085,0.032 0.16,0.064 0.245,0.085c0.043,0.021 0.085,0.032 0.128,0.043c0.096,0.032 0.192,0.064 0.288,0.096c0.021,0.011 0.053,0.011 0.075,0.021c0.107,0.032 0.213,0.064 0.309,0.096c0.405,0.117 0.81,0.213 1.226,0.309c0.064,0.011 0.128,0.032 0.203,0.043l0.181,0.032c0.085,0.021 0.171,0.032 0.256,0.043c0.021,0 0.043,0.011 0.064,0.011c0.096,0.021 0.203,0.032 0.309,0.043c0.234,0.032 0.48,0.064 0.725,0.096c0.075,0.011 0.149,0.021 0.224,0.021c0.075,0.011 0.139,0.011 0.213,0.021c0.064,0.011 0.117,0.011 0.181,0.011c0.064,0.011 0.128,0.011 0.192,0.011c0.075,0 0.139,0.011 0.213,0.011c0.085,0 0.171,0.011 0.256,0.011c0.181,0 0.362,0.011 0.544,0.011l0.437,0c0.107,0 0.224,-0.011 0.33,-0.011c0.043,0 0.085,0 0.139,-0.011c0.117,0 0.224,-0.011 0.341,-0.021c0.053,0 0.117,-0.011 0.171,-0.011c0.053,0 0.117,-0.011 0.171,-0.011c0.064,0 0.128,-0.011 0.192,-0.021c0.117,-0.011 0.245,-0.021 0.362,-0.043c0.458,-0.053 0.906,-0.128 1.354,-0.213c0.085,-0.021 0.16,-0.032 0.234,-0.053c0.16,-0.032 0.32,-0.075 0.48,-0.107c0.181,-0.043 0.362,-0.096 0.544,-0.139c0.107,-0.032 0.213,-0.064 0.32,-0.096c0.075,-0.021 0.149,-0.043 0.224,-0.064c0.085,-0.021 0.16,-0.053 0.245,-0.075c0.085,-0.032 0.171,-0.053 0.256,-0.085c0.075,-0.021 0.149,-0.053 0.234,-0.085c0.096,-0.032 0.192,-0.075 0.288,-0.107c0.043,-0.021 0.085,-0.032 0.128,-0.053c0.043,-0.011 0.075,-0.032 0.117,-0.043c0.096,-0.043 0.192,-0.075 0.288,-0.117c0.139,-0.053 0.277,-0.117 0.405,-0.181c0.117,-0.053 0.234,-0.107 0.362,-0.171c0.053,-0.032 0.117,-0.053 0.171,-0.085c0.085,-0.043 0.171,-0.085 0.256,-0.139c0.011,0 0.011,0 0.021,-0.011c0.043,-0.021 0.096,-0.043 0.139,-0.075c0.011,0 0.021,-0.011 0.021,-0.011c0.075,-0.043 0.16,-0.085 0.234,-0.128c0.021,-0.011 0.053,-0.032 0.075,-0.043c0.021,-0.011 0.053,-0.032 0.075,-0.043c0.117,-0.075 0.245,-0.139 0.362,-0.213c0.096,-0.053 0.192,-0.117 0.277,-0.171c0.011,-0.011 0.021,-0.011 0.032,-0.021c0.043,-0.021 0.085,-0.053 0.128,-0.075c0.373,-0.234 0.735,-0.49 1.087,-0.757c0.064,-0.043 0.128,-0.096 0.181,-0.139c0.224,-0.181 0.458,-0.362 0.671,-0.554c0.075,-0.064 0.149,-0.128 0.224,-0.192c0.021,-0.021 0.053,-0.043 0.075,-0.075c0.075,-0.064 0.149,-0.128 0.213,-0.203c0.011,-0.011 0.021,-0.021 0.032,-0.032c0.011,-0.011 0.021,-0.011 0.021,-0.021c0,0 0.011,0 0.011,-0.011l0.043,-0.043l0.011,0l0.011,-0.011c0.011,0.011 0.021,0.021 0.043,0.032c0.16,0.16 0.33,0.309 0.501,0.458c0.075,0.064 0.149,0.128 0.234,0.192c0.075,0.117 0.192,0.213 0.298,0.298Z" style="fill-rule:nonzero;"/><path d="M237.203,243.346l0,21.808l-174.78,0l0,-21.808l38.574,0l0,-44.585c0,-26.924 21.829,-48.753 48.753,-48.753c13.462,0 25.655,5.457 34.47,14.283c8.825,8.825 14.283,21.008 14.283,34.47l0,44.585l38.701,0Z" style="fill-rule:nonzero;"/><g><path d="M209.011,83.701l-0.043,0l0.043,0Z" style="fill-rule:nonzero;"/><path d="M211.761,84.127l-0.011,0c-0.032,-0.011 -0.075,-0.011 -0.107,-0.021c0.032,0.011 0.064,0.011 0.107,0.021l0.011,0Z" style="fill-rule:nonzero;"/><path d="M214.341,84.66l-0.032,0l-0.064,-0.021l0.053,0.011l0.043,0.011Z" style="fill-rule:nonzero;"/><path d="M220.853,86.653c-0.011,0 -0.021,-0.011 -0.032,-0.011l-0.011,-0.011l0.043,0.021Z" style="fill-rule:nonzero;"/><path d="M221.407,86.866c-0.021,-0.011 -0.043,-0.021 -0.064,-0.021c-0.021,-0.011 -0.043,-0.021 -0.064,-0.021c0.043,0 0.085,0.021 0.128,0.043Z" style="fill-rule:nonzero;"/><path d="M226.236,89.03c-0.192,-0.096 -0.384,-0.192 -0.586,-0.288c0.053,0.021 0.096,0.053 0.149,0.075c0.149,0.064 0.298,0.139 0.437,0.213Z" style="fill-rule:nonzero;"/><path d="M226.715,89.275c-0.149,-0.085 -0.309,-0.16 -0.469,-0.245c0,0 -0.011,0 -0.011,-0.011l0.011,0c0.128,0.064 0.256,0.128 0.373,0.192c0.032,0.032 0.064,0.053 0.096,0.064Z" style="fill-rule:nonzero;"/><path d="M227.003,89.425c-0.096,-0.053 -0.192,-0.107 -0.288,-0.149c0.021,0.011 0.032,0.021 0.053,0.021c0.075,0.043 0.149,0.085 0.234,0.128Z" style="fill-rule:nonzero;"/><path d="M252.882,121.166c0.021,0.075 0.043,0.149 0.064,0.213c-0.021,-0.075 -0.043,-0.149 -0.064,-0.213Z" style="fill-rule:nonzero;"/><path d="M252.978,121.486l-0.011,-0.021l-0.011,-0.032l-0.011,-0.021l0,-0.021c0,0.011 0,0.011 0.011,0.021l0.021,0.075Z" style="fill-rule:nonzero;"/><path d="M270.192,124.278l-0.011,0l0,-11.565l0.011,11.565Z" style="fill-rule:nonzero;"/><path d="M283.27,102.471l0,0.309c-0.075,-0.181 -0.139,-0.352 -0.213,-0.512c-0.053,-0.139 -0.117,-0.277 -0.171,-0.405l0,-0.011c-0.117,-0.288 -0.245,-0.576 -0.373,-0.863c-0.075,-0.171 -0.149,-0.33 -0.224,-0.501c-0.064,-0.149 -0.128,-0.298 -0.203,-0.448c-0.064,-0.139 -0.128,-0.288 -0.192,-0.426c-0.064,-0.149 -0.139,-0.309 -0.213,-0.458c-0.085,-0.181 -0.171,-0.373 -0.256,-0.554c-0.043,-0.085 -0.075,-0.171 -0.117,-0.245c-0.117,-0.245 -0.234,-0.501 -0.362,-0.746c-0.139,-0.277 -0.277,-0.565 -0.416,-0.842c-0.139,-0.277 -0.277,-0.544 -0.416,-0.821c-0.149,-0.288 -0.298,-0.576 -0.448,-0.863c-0.277,-0.512 -0.544,-1.023 -0.831,-1.535c-0.181,-0.33 -0.362,-0.65 -0.554,-0.981c-0.096,-0.171 -0.192,-0.33 -0.288,-0.501c-0.064,-0.117 -0.139,-0.234 -0.203,-0.352c-0.107,-0.171 -0.203,-0.352 -0.309,-0.522c-0.064,-0.107 -0.128,-0.213 -0.192,-0.33c-0.096,-0.16 -0.192,-0.309 -0.288,-0.469c-0.085,-0.139 -0.16,-0.266 -0.245,-0.405c-0.107,-0.171 -0.213,-0.341 -0.32,-0.512c-0.021,-0.043 -0.053,-0.075 -0.075,-0.117c-0.149,-0.234 -0.298,-0.469 -0.448,-0.703c-0.512,-0.789 -1.023,-1.567 -1.556,-2.334c-0.128,-0.181 -0.256,-0.362 -0.384,-0.544c-0.064,-0.096 -0.128,-0.181 -0.192,-0.266c-0.107,-0.16 -0.224,-0.309 -0.33,-0.469c-0.096,-0.128 -0.181,-0.256 -0.277,-0.384c-0.085,-0.117 -0.16,-0.224 -0.245,-0.341c-0.16,-0.213 -0.32,-0.426 -0.48,-0.64c-0.011,-0.021 -0.021,-0.032 -0.032,-0.043c-0.149,-0.213 -0.309,-0.416 -0.469,-0.618c-0.096,-0.128 -0.192,-0.245 -0.288,-0.373c-0.394,-0.512 -0.789,-1.013 -1.194,-1.514c-0.384,-0.48 -0.778,-0.949 -1.172,-1.418c-0.011,-0.011 -0.011,-0.021 -0.021,-0.021c-0.139,-0.171 -0.288,-0.33 -0.426,-0.501c-0.085,-0.096 -0.171,-0.203 -0.256,-0.298c-0.139,-0.16 -0.277,-0.32 -0.416,-0.48c-0.053,-0.075 -0.117,-0.139 -0.181,-0.203c-0.128,-0.149 -0.266,-0.298 -0.394,-0.448c-0.117,-0.128 -0.234,-0.256 -0.341,-0.384c-0.117,-0.128 -0.234,-0.256 -0.352,-0.384c-0.032,-0.032 -0.064,-0.064 -0.096,-0.096c-0.064,-0.064 -0.117,-0.128 -0.181,-0.192c-0.128,-0.139 -0.266,-0.288 -0.405,-0.426c-0.213,-0.224 -0.426,-0.458 -0.64,-0.682c-0.213,-0.213 -0.416,-0.437 -0.629,-0.65c-0.266,-0.277 -0.544,-0.554 -0.821,-0.831c-0.203,-0.203 -0.405,-0.405 -0.618,-0.608c-0.16,-0.16 -0.32,-0.309 -0.48,-0.469c-0.171,-0.171 -0.352,-0.341 -0.522,-0.501c-0.085,-0.085 -0.181,-0.171 -0.266,-0.256c-0.181,-0.171 -0.352,-0.33 -0.533,-0.501c-0.181,-0.171 -0.373,-0.341 -0.554,-0.512c-0.043,-0.043 -0.096,-0.085 -0.139,-0.128c-0.181,-0.171 -0.373,-0.33 -0.554,-0.501c-0.16,-0.139 -0.32,-0.277 -0.469,-0.416c-0.096,-0.075 -0.181,-0.16 -0.266,-0.234c-0.149,-0.139 -0.309,-0.266 -0.458,-0.394c-0.181,-0.16 -0.362,-0.309 -0.544,-0.458c-0.043,-0.043 -0.096,-0.075 -0.139,-0.117c-0.224,-0.192 -0.448,-0.373 -0.671,-0.565c-0.821,-0.682 -1.663,-1.343 -2.515,-1.993c-0.203,-0.149 -0.394,-0.309 -0.597,-0.448c-0.096,-0.075 -0.192,-0.149 -0.288,-0.213c-0.149,-0.117 -0.309,-0.234 -0.458,-0.341c-0.149,-0.107 -0.288,-0.213 -0.437,-0.32c-0.149,-0.107 -0.288,-0.213 -0.437,-0.32c-0.149,-0.107 -0.309,-0.213 -0.458,-0.33c-0.149,-0.107 -0.298,-0.213 -0.448,-0.32c-0.16,-0.117 -0.33,-0.234 -0.501,-0.341c-0.128,-0.085 -0.256,-0.181 -0.394,-0.266c-0.192,-0.139 -0.394,-0.266 -0.586,-0.394c-0.085,-0.064 -0.181,-0.117 -0.266,-0.181c-0.245,-0.16 -0.49,-0.32 -0.735,-0.48c-0.043,-0.032 -0.096,-0.064 -0.139,-0.096c-0.053,-0.085 -0.107,-0.16 -0.16,-0.245c5.297,3.389 10.222,7.354 14.73,11.852c0.874,0.874 1.737,1.769 2.569,2.675c6.822,7.408 12.268,15.849 16.212,25.144c0.075,0.192 0.171,0.416 0.256,0.629Z" style="fill-rule:nonzero;"/><path d="M282.14,131.1c0,0 -0.021,0.021 -0.032,0.032c0,0 -0.011,0 -0.011,0.011l0.043,-0.043Z" style="fill-rule:nonzero;"/><path d="M282.161,131.078l0,0.011l0,-0.011Z" style="fill-rule:nonzero;"/><path d="M283.27,129.927l0,2.11c-0.117,-0.085 -0.224,-0.181 -0.33,-0.277c-0.075,-0.064 -0.149,-0.128 -0.234,-0.192c-0.171,-0.149 -0.341,-0.298 -0.501,-0.458c-0.011,-0.011 -0.021,-0.021 -0.043,-0.032l0.011,-0.011c0.043,-0.032 0.075,-0.075 0.107,-0.107c0,0 0.256,-0.256 0.309,-0.309c0.043,-0.043 0.085,-0.085 0.117,-0.128c0.064,-0.064 0.128,-0.139 0.192,-0.203c0.064,-0.064 0.128,-0.139 0.181,-0.203c0.032,-0.032 0.171,-0.171 0.192,-0.192Z" style="fill-rule:nonzero;"/><path d="M270.181,112.714l0,11.565l0,-11.565Z" style="fill-rule:nonzero;"/><path d="M283.27,129.927l0,2.11c-0.117,-0.085 -0.224,-0.181 -0.33,-0.277c-0.075,-0.064 -0.149,-0.128 -0.234,-0.192c-0.171,-0.149 -0.341,-0.298 -0.501,-0.458c-0.011,-0.011 -0.021,-0.021 -0.043,-0.032l0.011,-0.011c0.043,-0.032 0.075,-0.075 0.107,-0.107c0,0 0.256,-0.256 0.309,-0.309c0.043,-0.043 0.085,-0.085 0.117,-0.128c0.064,-0.064 0.128,-0.139 0.192,-0.203c0.064,-0.064 0.128,-0.139 0.181,-0.203c0.032,-0.032 0.171,-0.171 0.192,-0.192Z" style="fill-rule:nonzero;"/><path d="M283.27,102.471l0,0.309c-0.075,-0.181 -0.139,-0.352 -0.213,-0.512c-0.053,-0.139 -0.117,-0.277 -0.171,-0.405l0,-0.011c-0.117,-0.288 -0.245,-0.576 -0.373,-0.863c-0.075,-0.171 -0.149,-0.33 -0.224,-0.501c-0.064,-0.149 -0.128,-0.298 -0.203,-0.448c-0.064,-0.139 -0.128,-0.288 -0.192,-0.426c-0.064,-0.149 -0.139,-0.309 -0.213,-0.458c-0.085,-0.181 -0.171,-0.373 -0.256,-0.554c-0.043,-0.085 -0.075,-0.171 -0.117,-0.245c-0.117,-0.245 -0.234,-0.501 -0.362,-0.746c-0.139,-0.277 -0.277,-0.565 -0.416,-0.842c-0.139,-0.277 -0.277,-0.544 -0.416,-0.821c-0.149,-0.288 -0.298,-0.576 -0.448,-0.863c-0.277,-0.512 -0.544,-1.023 -0.831,-1.535c-0.181,-0.33 -0.362,-0.65 -0.554,-0.981c-0.096,-0.171 -0.192,-0.33 -0.288,-0.501c-0.064,-0.117 -0.139,-0.234 -0.203,-0.352c-0.107,-0.171 -0.203,-0.352 -0.309,-0.522c-0.064,-0.107 -0.128,-0.213 -0.192,-0.33c-0.096,-0.16 -0.192,-0.309 -0.288,-0.469c-0.085,-0.139 -0.16,-0.266 -0.245,-0.405c-0.107,-0.171 -0.213,-0.341 -0.32,-0.512c-0.021,-0.043 -0.053,-0.075 -0.075,-0.117c-0.149,-0.234 -0.298,-0.469 -0.448,-0.703c-0.512,-0.789 -1.023,-1.567 -1.556,-2.334c-0.128,-0.181 -0.256,-0.362 -0.384,-0.544c-0.064,-0.096 -0.128,-0.181 -0.192,-0.266c-0.107,-0.16 -0.224,-0.309 -0.33,-0.469c-0.096,-0.128 -0.181,-0.256 -0.277,-0.384c-0.085,-0.117 -0.16,-0.224 -0.245,-0.341c-0.16,-0.213 -0.32,-0.426 -0.48,-0.64c-0.011,-0.021 -0.021,-0.032 -0.032,-0.043c-0.149,-0.213 -0.309,-0.416 -0.469,-0.618c-0.096,-0.128 -0.192,-0.245 -0.288,-0.373c-0.394,-0.512 -0.789,-1.013 -1.194,-1.514c-0.384,-0.48 -0.778,-0.949 -1.172,-1.418c-0.011,-0.011 -0.011,-0.021 -0.021,-0.021c-0.139,-0.171 -0.288,-0.33 -0.426,-0.501c-0.085,-0.096 -0.171,-0.203 -0.256,-0.298c-0.139,-0.16 -0.277,-0.32 -0.416,-0.48c-0.053,-0.075 -0.117,-0.139 -0.181,-0.203c-0.128,-0.149 -0.266,-0.298 -0.394,-0.448c-0.117,-0.128 -0.234,-0.256 -0.341,-0.384c-0.117,-0.128 -0.234,-0.256 -0.352,-0.384c-0.032,-0.032 -0.064,-0.064 -0.096,-0.096c-0.064,-0.064 -0.117,-0.128 -0.181,-0.192c-0.128,-0.139 -0.266,-0.288 -0.405,-0.426c-0.213,-0.224 -0.426,-0.458 -0.64,-0.682c-0.213,-0.213 -0.416,-0.437 -0.629,-0.65c-0.266,-0.277 -0.544,-0.554 -0.821,-0.831c-0.203,-0.203 -0.405,-0.405 -0.618,-0.608c-0.16,-0.16 -0.32,-0.309 -0.48,-0.469c-0.171,-0.171 -0.352,-0.341 -0.522,-0.501c-0.085,-0.085 -0.181,-0.171 -0.266,-0.256c-0.181,-0.171 -0.352,-0.33 -0.533,-0.501c-0.181,-0.171 -0.373,-0.341 -0.554,-0.512c-0.043,-0.043 -0.096,-0.085 -0.139,-0.128c-0.181,-0.171 -0.373,-0.33 -0.554,-0.501c-0.16,-0.139 -0.32,-0.277 -0.469,-0.416c-0.096,-0.075 -0.181,-0.16 -0.266,-0.234c-0.149,-0.139 -0.309,-0.266 -0.458,-0.394c-0.181,-0.16 -0.362,-0.309 -0.544,-0.458c-0.043,-0.043 -0.096,-0.075 -0.139,-0.117c-0.224,-0.192 -0.448,-0.373 -0.671,-0.565c-0.821,-0.682 -1.663,-1.343 -2.515,-1.993c-0.203,-0.149 -0.394,-0.309 -0.597,-0.448c-0.096,-0.075 -0.192,-0.149 -0.288,-0.213c-0.149,-0.117 -0.309,-0.234 -0.458,-0.341c-0.149,-0.107 -0.288,-0.213 -0.437,-0.32c-0.149,-0.107 -0.288,-0.213 -0.437,-0.32c-0.149,-0.107 -0.309,-0.213 -0.458,-0.33c-0.149,-0.107 -0.298,-0.213 -0.448,-0.32c-0.16,-0.117 -0.33,-0.234 -0.501,-0.341c-0.128,-0.085 -0.256,-0.181 -0.394,-0.266c-0.192,-0.139 -0.394,-0.266 -0.586,-0.394c-0.085,-0.064 -0.181,-0.117 -0.266,-0.181c-0.245,-0.16 -0.49,-0.32 -0.735,-0.48c-0.043,-0.032 -0.096,-0.064 -0.139,-0.096c-0.053,-0.085 -0.107,-0.16 -0.16,-0.245c5.297,3.389 10.222,7.354 14.73,11.852c0.874,0.874 1.737,1.769 2.569,2.675c6.822,7.408 12.268,15.849 16.212,25.144c0.075,0.192 0.171,0.416 0.256,0.629Z" style="fill-rule:nonzero;"/><path d="M290.71,123.18c-0.277,-0.203 -0.544,-0.426 -0.778,-0.671l0.171,0.16c0.117,0.117 0.245,0.224 0.373,0.32l0.234,0.192Z" style="fill-rule:nonzero;"/><path d="M290.71,123.18c-0.277,-0.203 -0.544,-0.426 -0.778,-0.671l0.171,0.16c0.117,0.117 0.245,0.224 0.373,0.32l0.234,0.192Z" style="fill-rule:nonzero;"/><path d="M193.226,57.172c0,0.011 -0.011,0.021 -0.021,0.021c0.011,0 0.021,-0.011 0.021,-0.021Z" style="fill-rule:nonzero;"/><path d="M199.301,81.1c0.021,0.021 0.053,0.032 0.075,0.043c-0.011,0 -0.011,-0.011 -0.021,-0.011c-0.021,-0.011 -0.032,-0.021 -0.053,-0.032Z" style="fill-rule:nonzero;"/><path d="M199.419,81.164c0.011,0 0.021,0.011 0.021,0.011c-0.011,-0 -0.011,-0 -0.021,-0.011c-0.011,-0.011 -0.021,-0.011 -0.043,-0.021c0.011,0.011 0.032,0.021 0.043,0.021Z" style="fill-rule:nonzero;"/><path d="M199.941,81.463c-0.032,-0.021 -0.064,-0.032 -0.096,-0.053c-0.011,-0.011 -0.021,-0.011 -0.032,-0.021c0.011,0.011 0.021,0.011 0.032,0.021c0.032,0.011 0.064,0.032 0.096,0.053Z" style="fill-rule:nonzero;"/><path d="M212.315,84.234l-0.117,-0.021l-0.085,-0.021c0.032,0 0.064,0.011 0.085,0.021l0.117,0.021Z" style="fill-rule:nonzero;"/><path d="M218.7,85.886c-0.021,0 -0.032,-0.011 -0.043,-0.011l0.032,0.011l0.011,0Z" style="fill-rule:nonzero;"/><path d="M191.052,69.344c-0.053,-0.256 -0.096,-0.522 -0.128,-0.778c0.043,0.256 0.085,0.522 0.128,0.778Z" style="fill-rule:nonzero;"/><path d="M270.192,124.278l-0.011,0l0,-11.565l0.011,11.565Z" style="fill-rule:nonzero;"/><path d="M270.181,112.714l0,11.565l0,-11.565Z" style="fill-rule:nonzero;"/><path d="M199.301,81.1c0.021,0.021 0.053,0.032 0.075,0.043c-0.011,0 -0.011,-0.011 -0.021,-0.011c-0.021,-0.011 -0.032,-0.021 -0.053,-0.032Z" style="fill-rule:nonzero;"/><path d="M199.419,81.164c0.011,0 0.021,0.011 0.021,0.011c-0.011,-0 -0.011,-0 -0.021,-0.011c-0.011,-0.011 -0.021,-0.011 -0.043,-0.021c0.011,0.011 0.032,0.021 0.043,0.021Z" style="fill-rule:nonzero;"/><path d="M199.941,81.463c-0.032,-0.021 -0.064,-0.032 -0.096,-0.053c-0.011,-0.011 -0.021,-0.011 -0.032,-0.021c0.011,0.011 0.021,0.011 0.032,0.021c0.032,0.011 0.064,0.032 0.096,0.053Z" style="fill-rule:nonzero;"/><path d="M209.011,83.701l-0.043,0l0.043,0Z" style="fill-rule:nonzero;"/><path d="M211.761,84.127l-0.011,0c-0.032,-0.011 -0.075,-0.011 -0.107,-0.021c0.032,0.011 0.064,0.011 0.107,0.021l0.011,0Z" style="fill-rule:nonzero;"/><path d="M212.315,84.234l-0.117,-0.021l-0.085,-0.021c0.032,0 0.064,0.011 0.085,0.021l0.117,0.021Z" style="fill-rule:nonzero;"/><path d="M214.341,84.66l-0.032,0l-0.064,-0.021l0.053,0.011l0.043,0.011Z" style="fill-rule:nonzero;"/><path d="M218.7,85.886c-0.021,0 -0.032,-0.011 -0.043,-0.011l0.032,0.011l0.011,0Z" style="fill-rule:nonzero;"/><path d="M220.853,86.653c-0.011,0 -0.021,-0.011 -0.032,-0.011l-0.011,-0.011l0.043,0.021Z" style="fill-rule:nonzero;"/><path d="M221.407,86.866c-0.021,-0.011 -0.043,-0.021 -0.064,-0.021c-0.021,-0.011 -0.043,-0.021 -0.064,-0.021c0.043,0 0.085,0.021 0.128,0.043Z" style="fill-rule:nonzero;"/><path d="M226.236,89.03c-0.192,-0.096 -0.384,-0.192 -0.586,-0.288c0.053,0.021 0.096,0.053 0.149,0.075c0.149,0.064 0.298,0.139 0.437,0.213Z" style="fill-rule:nonzero;"/><path d="M226.715,89.275c-0.149,-0.085 -0.309,-0.16 -0.469,-0.245c0,0 -0.011,0 -0.011,-0.011l0.011,0c0.128,0.064 0.256,0.128 0.373,0.192c0.032,0.032 0.064,0.053 0.096,0.064Z" style="fill-rule:nonzero;"/><path d="M227.003,89.425c-0.096,-0.053 -0.192,-0.107 -0.288,-0.149c0.021,0.011 0.032,0.021 0.053,0.021c0.075,0.043 0.149,0.085 0.234,0.128Z" style="fill-rule:nonzero;"/><path d="M204.172,93.848l0.256,0.245c-0.725,-0.597 -1.29,-1.354 -1.652,-2.228c-0.075,-0.16 -0.128,-0.33 -0.181,-0.501c0.053,0.171 0.117,0.341 0.192,0.501c0.298,0.735 0.778,1.407 1.386,1.983Z" style="fill-rule:nonzero;"/><path d="M248.171,123.703c0.075,-0.032 0.16,-0.075 0.234,-0.117c-0.032,0.021 -0.064,0.032 -0.096,0.053c-0.043,0.021 -0.085,0.043 -0.139,0.064Z" style="fill-rule:nonzero;"/><path d="M248.779,123.362c0.171,-0.107 0.33,-0.224 0.49,-0.352c-0.266,0.213 -0.554,0.405 -0.863,0.576c0.117,-0.064 0.234,-0.139 0.352,-0.203c0.011,-0.011 0.011,-0.021 0.021,-0.021Z" style="fill-rule:nonzero;"/><path d="M249.439,122.871c0.053,-0.043 0.107,-0.085 0.149,-0.139c-0.107,0.096 -0.213,0.192 -0.32,0.277c0.053,-0.043 0.107,-0.085 0.16,-0.128c0,-0.011 0.011,-0.011 0.011,-0.011Z" style="fill-rule:nonzero;"/><path d="M249.802,122.53c-0.064,0.075 -0.139,0.139 -0.213,0.203c0.053,-0.043 0.096,-0.096 0.149,-0.139c0.021,-0.021 0.043,-0.043 0.064,-0.064Z" style="fill-rule:nonzero;"/><path d="M252.882,121.166c0.021,0.075 0.043,0.149 0.064,0.213c-0.021,-0.075 -0.043,-0.149 -0.064,-0.213Z" style="fill-rule:nonzero;"/><path d="M252.978,121.486l-0.011,-0.021l-0.011,-0.032l-0.011,-0.021l0,-0.021c0,0.011 0,0.011 0.011,0.021l0.021,0.075Z" style="fill-rule:nonzero;"/><path d="M204.172,93.848l0.256,0.245c-0.725,-0.597 -1.29,-1.354 -1.652,-2.228c-0.075,-0.16 -0.128,-0.33 -0.181,-0.501c0.053,0.171 0.117,0.341 0.192,0.501c0.298,0.735 0.778,1.407 1.386,1.983Z" style="fill-rule:nonzero;"/><path d="M248.171,123.703c0.075,-0.032 0.16,-0.075 0.234,-0.117c-0.032,0.021 -0.064,0.032 -0.096,0.053c-0.043,0.021 -0.085,0.043 -0.139,0.064Z" style="fill-rule:nonzero;"/><path d="M248.779,123.362c0.171,-0.107 0.33,-0.224 0.49,-0.352c-0.266,0.213 -0.554,0.405 -0.863,0.576c0.117,-0.064 0.234,-0.139 0.352,-0.203c0.011,-0.011 0.011,-0.021 0.021,-0.021Z" style="fill-rule:nonzero;"/><path d="M249.439,122.871c0.053,-0.043 0.107,-0.085 0.149,-0.139c-0.107,0.096 -0.213,0.192 -0.32,0.277c0.053,-0.043 0.107,-0.085 0.16,-0.128c0,-0.011 0.011,-0.011 0.011,-0.011Z" style="fill-rule:nonzero;"/><path d="M249.802,122.53c-0.064,0.075 -0.139,0.139 -0.213,0.203c0.053,-0.043 0.096,-0.096 0.149,-0.139c0.021,-0.021 0.043,-0.043 0.064,-0.064Z" style="fill-rule:nonzero;"/><path d="M193.226,57.172c0,0.011 -0.011,0.021 -0.021,0.021c0.011,0 0.021,-0.011 0.021,-0.021Z" style="fill-rule:nonzero;"/><path d="M199.301,81.1c0.021,0.021 0.053,0.032 0.075,0.043c-0.011,0 -0.011,-0.011 -0.021,-0.011c-0.021,-0.011 -0.032,-0.021 -0.053,-0.032Z" style="fill-rule:nonzero;"/><path d="M199.419,81.164c0.011,0 0.021,0.011 0.021,0.011c-0.011,-0 -0.011,-0 -0.021,-0.011c-0.011,-0.011 -0.021,-0.011 -0.043,-0.021c0.011,0.011 0.032,0.021 0.043,0.021Z" style="fill-rule:nonzero;"/><path d="M199.941,81.463c-0.032,-0.021 -0.064,-0.032 -0.096,-0.053c-0.011,-0.011 -0.021,-0.011 -0.032,-0.021c0.011,0.011 0.021,0.011 0.032,0.021c0.032,0.011 0.064,0.032 0.096,0.053Z" style="fill-rule:nonzero;"/><path d="M212.315,84.234l-0.117,-0.021l-0.085,-0.021c0.032,0 0.064,0.011 0.085,0.021l0.117,0.021Z" style="fill-rule:nonzero;"/><path d="M218.7,85.886c-0.021,0 -0.032,-0.011 -0.043,-0.011l0.032,0.011l0.011,0Z" style="fill-rule:nonzero;"/><path d="M191.052,69.344c-0.053,-0.256 -0.096,-0.522 -0.128,-0.778c0.043,0.256 0.085,0.522 0.128,0.778Z" style="fill-rule:nonzero;"/><path d="M270.192,124.278l-0.011,0l0,-11.565l0.011,11.565Z" style="fill-rule:nonzero;"/><path d="M270.181,112.714l0,11.565l0,-11.565Z" style="fill-rule:nonzero;"/><path d="M190.924,68.566c0.043,0.256 0.085,0.522 0.128,0.778c-0.043,-0.256 -0.085,-0.522 -0.128,-0.778Z" style="fill-rule:nonzero;"/><path d="M193.226,57.172c0,0.011 -0.011,0.021 -0.021,0.021c0.011,0 0.021,-0.011 0.021,-0.021Z" style="fill-rule:nonzero;"/><path d="M270.469,81.121c-0.384,-0.48 -0.778,-0.949 -1.172,-1.418c0.394,0.469 0.789,0.938 1.172,1.418Z" style="fill-rule:nonzero;"/><path d="M279.667,95.084c-0.277,-0.512 -0.544,-1.023 -0.831,-1.535c0.288,0.512 0.565,1.023 0.831,1.535Z" style="fill-rule:nonzero;"/><path d="M199.301,81.1c0.021,0.021 0.053,0.032 0.075,0.043c-0.011,0 -0.011,-0.011 -0.021,-0.011c-0.021,-0.011 -0.032,-0.021 -0.053,-0.032Z" style="fill-rule:nonzero;"/><path d="M199.419,81.164c0.011,0 0.021,0.011 0.021,0.011c-0.011,-0 -0.011,-0 -0.021,-0.011Z" style="fill-rule:nonzero;"/><path d="M199.941,81.463c-0.032,-0.021 -0.064,-0.032 -0.096,-0.053c0.032,0.011 0.064,0.032 0.096,0.053Z" style="fill-rule:nonzero;"/><path d="M209.011,83.701l-0.043,0l0.043,0Z" style="fill-rule:nonzero;"/><path d="M211.761,84.127l-0.011,0l0.011,0Z" style="fill-rule:nonzero;"/><path d="M212.315,84.234l-0.117,-0.021l-0.085,-0.021c0.032,0 0.064,0.011 0.085,0.021l0.117,0.021Z" style="fill-rule:nonzero;"/><path d="M214.341,84.66l-0.032,0l-0.064,-0.021l0.053,0.011l0.043,0.011Z" style="fill-rule:nonzero;"/><path d="M218.7,85.886c-0.021,0 -0.032,-0.011 -0.043,-0.011l0.032,0.011l0.011,0Z" style="fill-rule:nonzero;"/><path d="M220.853,86.653c-0.011,0 -0.021,-0.011 -0.032,-0.011l-0.011,-0.011l0.043,0.021Z" style="fill-rule:nonzero;"/><path d="M221.29,86.813c0.043,0.011 0.085,0.032 0.128,0.053c-0.021,-0.011 -0.043,-0.021 -0.064,-0.021c-0.032,-0.011 -0.053,-0.021 -0.064,-0.032Z" style="fill-rule:nonzero;"/><path d="M226.246,89.03c0.128,0.064 0.256,0.128 0.373,0.192c-0.117,-0.053 -0.245,-0.117 -0.373,-0.192Z" style="fill-rule:nonzero;"/><path d="M252.946,121.379c0,0.011 0,0.011 0.011,0.021l-0.011,-0.021Z" style="fill-rule:nonzero;"/><path d="M252.957,121.4l0.021,0.085l-0.011,-0.032l0,-0.021l-0.011,-0.011l0,-0.021Z" style="fill-rule:nonzero;"/><path d="M269.637,135.832c0.181,0 0.362,0.011 0.544,0.011l-11.554,0l0,-4.402c0.075,0.064 0.139,0.117 0.213,0.181c0.096,0.085 0.203,0.171 0.309,0.256c0.011,0.011 0.021,0.021 0.032,0.032c0.32,0.256 0.65,0.512 0.981,0.746c0.117,0.075 0.234,0.16 0.352,0.234c0.117,0.075 0.234,0.149 0.352,0.234c0.107,0.075 0.224,0.139 0.341,0.213c0.011,0.011 0.021,0.011 0.032,0.021c0.181,0.107 0.362,0.213 0.544,0.309c0.181,0.096 0.362,0.203 0.554,0.288c0.117,0.064 0.245,0.117 0.362,0.181c0.021,0.011 0.032,0.021 0.053,0.021c0.117,0.053 0.234,0.107 0.352,0.16c0.256,0.117 0.512,0.224 0.778,0.33c0.16,0.064 0.33,0.128 0.49,0.181c0.085,0.032 0.16,0.064 0.245,0.085c0.043,0.021 0.085,0.032 0.128,0.043c0.096,0.032 0.192,0.064 0.288,0.096c0.021,0.011 0.053,0.011 0.075,0.021c0.107,0.032 0.213,0.064 0.309,0.096c0.405,0.117 0.81,0.213 1.226,0.309c0.064,0.011 0.128,0.032 0.203,0.043l0.181,0.032c0.085,0.021 0.171,0.032 0.256,0.043c0.021,0 0.043,0.011 0.064,0.011c0.096,0.021 0.203,0.032 0.309,0.043c0.234,0.032 0.48,0.064 0.725,0.096c0.075,0.011 0.149,0.021 0.224,0.021c0.075,0.011 0.139,0.011 0.213,0.021c0.064,0.011 0.117,0.011 0.181,0.011c0.064,0.011 0.128,0.011 0.192,0.011c0.075,0 0.139,0.011 0.213,0.011c0.064,0.011 0.149,0.011 0.234,0.011Z" style="fill-rule:nonzero;"/><path d="M202.328,66.551c0,-0.043 0,-0.075 -0.011,-0.117l0,0.043l0.011,0.075Z" style="fill-rule:nonzero;"/><path d="M202.403,65.123c0,0.043 -0.011,0.075 -0.021,0.117l-0.011,0.064l-0.021,0.096c0,-0.021 0,-0.043 0.011,-0.064c0,-0.021 0,-0.043 0.011,-0.064l0,-0.021c0.021,-0.053 0.021,-0.096 0.032,-0.128Z" style="fill-rule:nonzero;"/><path d="M202.424,67.233c0,-0.011 0,-0.021 -0.011,-0.032l-0.011,-0.053c0.011,0.032 0.021,0.064 0.021,0.085Z" style="fill-rule:nonzero;"/><path d="M202.52,67.638c0,-0.011 -0.011,-0.021 -0.011,-0.021c-0.011,-0.032 -0.021,-0.075 -0.021,-0.107c0,0.032 0.021,0.075 0.032,0.128Z" style="fill-rule:nonzero;"/><path d="M202.691,64.057l-0.043,0.107c0,0.011 -0.011,0.011 -0.011,0.021c0,0.011 -0.011,0.021 -0.011,0.021l0,-0.021c0.032,-0.032 0.043,-0.085 0.064,-0.128Z" style="fill-rule:nonzero;"/><path d="M202.723,63.982c0.011,-0.021 0.011,-0.032 0.021,-0.043c-0.011,0.021 -0.021,0.043 -0.021,0.064c-0.011,-0.011 -0.011,-0.011 0,-0.021Z" style="fill-rule:nonzero;"/><path d="M202.776,63.833l-0.011,0.021c-0.011,0.011 -0.011,0.032 -0.021,0.043c0.021,-0.021 0.021,-0.043 0.032,-0.064Z" style="fill-rule:nonzero;"/><path d="M202.989,68.853l-0.021,-0.043l-0.021,-0.053c-0.021,-0.032 -0.032,-0.064 -0.043,-0.107c0.021,0.064 0.053,0.128 0.085,0.203Z" style="fill-rule:nonzero;"/><path d="M203.106,69.045c-0.053,-0.085 -0.075,-0.128 -0.075,-0.139l-0.032,-0.053c0.032,0.064 0.064,0.128 0.107,0.192Z" style="fill-rule:nonzero;"/><path d="M203.245,69.269l-0.021,-0.021c-0.011,-0.021 -0.021,-0.043 -0.032,-0.053c0,-0.011 -0.011,-0.021 -0.021,-0.043c0.021,0.032 0.043,0.075 0.075,0.117Z" style="fill-rule:nonzero;"/><path d="M203.362,69.45c-0.043,-0.053 -0.075,-0.117 -0.117,-0.171l0.043,0.064l0.075,0.107Z" style="fill-rule:nonzero;"/><path d="M203.629,62.426l-0.597,0.885c-0.043,0.064 -0.075,0.139 -0.107,0.203c-0.032,0.064 -0.064,0.139 -0.096,0.203l-0.043,0.096l0,-0.011c0,-0.011 0,-0.011 0.011,-0.021c0.021,-0.064 0.053,-0.117 0.075,-0.181c0,-0.011 0.011,-0.021 0.011,-0.032c0,-0.011 0.011,-0.021 0.021,-0.032c0.011,-0.021 0.021,-0.043 0.032,-0.064c0.064,-0.128 0.128,-0.245 0.203,-0.362c0.021,-0.032 0.043,-0.064 0.053,-0.096c0.021,-0.043 0.043,-0.075 0.075,-0.117c0.011,-0.021 0.021,-0.032 0.032,-0.053c0,0 0,-0.011 0.011,-0.011c0.032,-0.043 0.064,-0.096 0.096,-0.139c0.085,-0.096 0.16,-0.181 0.224,-0.266Z" style="fill-rule:nonzero;"/><path d="M203.501,69.653l-0.043,-0.053l-0.021,-0.032c0.021,0.021 0.043,0.053 0.064,0.085Z" style="fill-rule:nonzero;"/><path d="M264.266,91.865l-0.149,0c-2.43,-3.4 -5.159,-6.608 -8.154,-9.603c-0.671,-0.661 -1.343,-1.322 -2.036,-1.961l0.171,0c0.661,0.608 1.311,1.236 1.951,1.876c3.016,3.016 5.766,6.257 8.218,9.689Z" style="fill-rule:nonzero;"/><path d="M267.325,123.532c-0.181,-0.107 -0.362,-0.213 -0.533,-0.341c0.075,0.053 0.16,0.107 0.234,0.16c0.032,0.021 0.075,0.043 0.075,0.043l0.096,0.053c0.043,0.032 0.085,0.053 0.128,0.085Z" style="fill-rule:nonzero;"/><path d="M268.486,124.022c-0.075,-0.021 -0.149,-0.043 -0.213,-0.075l0.096,0.032l0.075,0.021l0.043,0.021Z" style="fill-rule:nonzero;"/><path d="M269.552,124.246l-0.075,0l0.075,0Z" style="fill-rule:nonzero;"/><path d="M269.659,124.257c-0.032,0 -0.064,0 -0.096,-0.011l0.085,0l0.011,0.011Z" style="fill-rule:nonzero;"/><path d="M269.947,124.278c-0.021,0 -0.053,0 -0.075,-0.011l0.032,0l0.043,0.011Z" style="fill-rule:nonzero;"/><path d="M270.181,124.278l-0.213,0l0.213,0Z" style="fill-rule:nonzero;"/><path d="M270.192,124.278l-0.011,0l0,-11.565l0.011,11.565Z" style="fill-rule:nonzero;"/><path d="M270.65,124.268l-0.064,0.011l-0.085,0c0.053,-0.011 0.096,-0.011 0.149,-0.011Z" style="fill-rule:nonzero;"/><path d="M270.938,124.236l-0.085,0.011c0,0 -0.043,0 -0.085,0.011c0.064,-0.011 0.117,-0.011 0.171,-0.021Z" style="fill-rule:nonzero;"/><path d="M273.869,122.978l-0.021,0.021c-0.021,0.021 -0.053,0.043 -0.085,0.075l-0.085,0.064c-0.085,0.064 -0.16,0.117 -0.245,0.181l-0.171,0.107l-0.043,0.021l-0.021,0.021c-0.032,0.021 -0.064,0.043 -0.107,0.064l-0.224,0.117l-0.203,0.107c-0.053,0.021 -0.096,0.043 -0.139,0.064l-0.085,0.043l-0.224,0.085l-0.107,0.043l-0.128,0.043l-0.085,0.021l-0.053,0.021l-0.096,0.021c-0.043,0.011 -0.171,0.043 -0.171,0.043l-0.213,0.043c-0.128,0.021 -0.256,0.043 -0.394,0.064c1.087,-0.16 2.089,-0.608 2.899,-1.268Z" style="fill-rule:nonzero;"/><path d="M281.522,131.665c0.075,-0.064 0.149,-0.128 0.224,-0.192l0,4.381l-11.554,0l0.426,0c0.107,0 0.224,-0.011 0.33,-0.011c0.043,0 0.085,0 0.139,-0.011c0.117,0 0.224,-0.011 0.341,-0.021c0.053,0 0.117,-0.011 0.171,-0.011c0.053,0 0.117,-0.011 0.171,-0.011c0.064,0 0.128,-0.011 0.192,-0.021c0.117,-0.011 0.245,-0.021 0.362,-0.043c0.458,-0.053 0.906,-0.128 1.354,-0.213c0.085,-0.021 0.16,-0.032 0.234,-0.053c0.16,-0.032 0.32,-0.075 0.48,-0.107c0.181,-0.043 0.362,-0.096 0.544,-0.139c0.107,-0.032 0.213,-0.064 0.32,-0.096c0.075,-0.021 0.149,-0.043 0.224,-0.064c0.085,-0.021 0.16,-0.053 0.245,-0.075c0.085,-0.032 0.171,-0.053 0.256,-0.085c0.075,-0.021 0.149,-0.053 0.234,-0.085c0.096,-0.032 0.192,-0.075 0.288,-0.107c0.043,-0.021 0.085,-0.032 0.128,-0.053c0.043,-0.011 0.075,-0.032 0.117,-0.043c0.096,-0.043 0.192,-0.075 0.288,-0.117c0.139,-0.053 0.277,-0.117 0.405,-0.181c0.117,-0.053 0.234,-0.107 0.362,-0.171c0.053,-0.032 0.117,-0.053 0.171,-0.085c0.085,-0.043 0.171,-0.085 0.256,-0.139c0.011,0 0.011,0 0.021,-0.011c0.043,-0.021 0.096,-0.043 0.139,-0.075c0.011,0 0.021,-0.011 0.021,-0.011c0.075,-0.043 0.16,-0.085 0.234,-0.128c0.021,-0.011 0.053,-0.032 0.075,-0.043c0.021,-0.011 0.053,-0.032 0.075,-0.043c0.117,-0.075 0.245,-0.139 0.362,-0.213c0.096,-0.053 0.192,-0.117 0.277,-0.171c0.011,-0.011 0.021,-0.011 0.032,-0.021c0.043,-0.021 0.085,-0.053 0.128,-0.075c0.373,-0.234 0.735,-0.49 1.087,-0.757c0.064,-0.043 0.128,-0.096 0.181,-0.139c0.213,-0.192 0.437,-0.384 0.661,-0.565Z" style="fill-rule:nonzero;"/><path d="M282.097,131.142l0.043,-0.043c0,0 -0.032,0.032 -0.043,0.043Z" style="fill-rule:nonzero;"/><path d="M282.183,131.057c0,0.011 -0.011,0.011 -0.011,0.011c0,0 0.011,0 0.011,-0.011Z" style="fill-rule:nonzero;"/><path d="M282.311,130.94c0.043,-0.043 0.096,-0.096 0.139,-0.139c-0.053,0.053 -0.107,0.107 -0.149,0.149c0,0 0,-0.011 0.011,-0.011Z" style="fill-rule:nonzero;"/><path d="M202.328,66.551c0,-0.043 0,-0.075 -0.011,-0.117l0,0.043l0.011,0.075Z" style="fill-rule:nonzero;"/><path d="M202.403,65.123c0,0.043 -0.011,0.075 -0.021,0.117l-0.011,0.064l-0.021,0.096c0,-0.021 0,-0.043 0.011,-0.064c0,-0.021 0,-0.043 0.011,-0.064l0,-0.021c0.021,-0.053 0.021,-0.096 0.032,-0.128Z" style="fill-rule:nonzero;"/><path d="M202.691,64.057l-0.043,0.107c0,0.011 -0.011,0.011 -0.011,0.021c0,0.011 -0.011,0.021 -0.011,0.021l0,-0.021c0.032,-0.032 0.043,-0.085 0.064,-0.128Z" style="fill-rule:nonzero;"/><path d="M202.723,63.982c0.011,-0.021 0.011,-0.032 0.021,-0.043c-0.011,0.021 -0.021,0.043 -0.021,0.064c-0.011,-0.011 -0.011,-0.011 0,-0.021Z" style="fill-rule:nonzero;"/><path d="M202.776,63.833l-0.011,0.021c-0.011,0.011 -0.011,0.032 -0.021,0.043c0.021,-0.021 0.021,-0.043 0.032,-0.064Z" style="fill-rule:nonzero;"/><path d="M203.362,69.45c-0.043,-0.053 -0.075,-0.117 -0.117,-0.171l0.043,0.064l0.075,0.107Z" style="fill-rule:nonzero;"/><path d="M203.629,62.426l-0.597,0.885c-0.043,0.064 -0.075,0.139 -0.107,0.203c-0.032,0.064 -0.064,0.139 -0.096,0.203l-0.043,0.096l0,-0.011c0,-0.011 0,-0.011 0.011,-0.021c0.021,-0.064 0.053,-0.117 0.075,-0.181c0,-0.011 0.011,-0.021 0.011,-0.032c0,-0.011 0.011,-0.021 0.021,-0.032c0.011,-0.021 0.021,-0.043 0.032,-0.064c0.064,-0.128 0.128,-0.245 0.203,-0.362c0.021,-0.032 0.043,-0.064 0.053,-0.096c0.021,-0.043 0.043,-0.075 0.075,-0.117c0.011,-0.021 0.021,-0.032 0.032,-0.053l0.011,-0.011c0.032,-0.043 0.064,-0.096 0.096,-0.139c0.085,-0.096 0.16,-0.181 0.224,-0.266Z" style="fill-rule:nonzero;"/><path d="M267.325,123.532c-0.181,-0.107 -0.362,-0.213 -0.533,-0.341c0.075,0.053 0.16,0.107 0.234,0.16c0.032,0.021 0.075,0.043 0.075,0.043l0.096,0.053c0.043,0.032 0.085,0.053 0.128,0.085Z" style="fill-rule:nonzero;"/><path d="M268.486,124.022c-0.075,-0.021 -0.149,-0.043 -0.213,-0.075l0.096,0.032l0.075,0.021l0.043,0.021Z" style="fill-rule:nonzero;"/><path d="M269.659,124.257c-0.032,0 -0.064,0 -0.096,-0.011l0.085,0l0.011,0.011Z" style="fill-rule:nonzero;"/><path d="M269.947,124.278c-0.021,0 -0.053,0 -0.075,-0.011l0.032,0l0.043,0.011Z" style="fill-rule:nonzero;"/><path d="M270.192,124.278l-0.011,0l0,-11.565l0.011,11.565Z" style="fill:none;fill-rule:nonzero;"/></g></g></svg>