<?xml version="1.0" encoding="utf-8"?>
<!-- Generator: Adobe Illustrator 23.0.1, SVG Export Plug-In . SVG Version: 6.00 Build 0)  -->
<svg version="1.1" id="Layer_1" xmlns="http://www.w3.org/2000/svg" xmlns:xlink="http://www.w3.org/1999/xlink" x="0px" y="0px"
	 viewBox="0 0 300 300" style="enable-background:new 0 0 300 300;" xml:space="preserve">
<style type="text/css">
	.st0{fill:#333333;}
	.st1{fill:#FFFFFF;}
	.st2{fill:none;stroke:#FFFFFF;stroke-width:100;stroke-miterlimit:10;}
	.st3{fill:none;}
	.st4{fill:none;stroke:#FFFFFF;stroke-width:30;stroke-miterlimit:10;}
	.st5{fill:#E6E6E6;}
	.st6{fill:#1F7AC8;}
	.st7{fill:#E3E3E3;}
</style>
<g>
	<path class="st0" d="M139.6,186.5c-0.1,0-0.3,0.1-0.4,0.2C139.3,186.6,139.5,186.5,139.6,186.5z"/>
	<path class="st0" d="M155.1,180.4c-3.1,1.5-6.5,2.9-10.3,4.3C148.5,183.4,152,182,155.1,180.4z"/>
	<path class="st0" d="M172.9,218.6l-0.1,0.3c-0.9-1.1-1.9-2.1-3-3.1L172.9,218.6z"/>
	<path class="st0" d="M180.8,155.5c1.6-3.1,3.1-6.5,4.5-10.2C183.9,149.1,182.4,152.4,180.8,155.5z"/>
	<path class="st0" d="M186.4,142.3c-0.1,0.4-0.3,0.8-0.4,1.2C186.1,143.2,186.2,142.7,186.4,142.3z"/>
	<path class="st0" d="M198.1,134.6c-0.1-0.1-0.2-0.1-0.3-0.2C197.9,134.5,198,134.6,198.1,134.6z"/>
	<path class="st0" d="M221.2,172.5l-0.3,0.1l-2.6-2.8C219.3,170.8,220.2,171.6,221.2,172.5z"/>
	<path class="st0" d="M236.3,157.8c-4.6,1.5-9,3-13.1,4.6c-5.9-6.3-10.1-14.7-13.8-26.5c-1.1-3.4-3.2-6.3-6.1-8.2
		c-2.6-1.8-5.7-2.8-9-2.8c-3.2,0-6.3,1-9,2.8c-2.9,2-5,4.8-6.1,8.2c-7.9,24.8-17.4,34.3-42.2,42.2c-3.4,1.1-6.3,3.2-8.2,6.1
		c-1.8,2.6-2.8,5.7-2.8,9c0,3.2,1,6.3,2.8,9c2,2.9,4.8,5,8.2,6.1c11.1,3.6,19.2,7.4,25.4,12.9c-2.1,5.1-4.1,10.6-5.9,16.5
		c-3.5,11-19,11-22.5,0c-14.7-46-33.7-65.1-79.8-79.8c-11-3.5-11-19,0-22.5c11.7-3.7,21.7-7.8,30.3-12.4
		c14.6-7.9,25.2-17.7,33.6-31.2c6.2-9.8,11.2-21.6,15.9-36.1c3.5-11,19-11,22.5,0c14.7,46,33.7,65.1,79.8,79.8
		C247.3,138.8,247.3,154.3,236.3,157.8z"/>
	<path class="st0" d="M249,199.9c-27.6,8.8-39,20.2-47.9,47.9c-2.1,6.6-11.4,6.6-13.5,0c-4-12.5-8.5-21.7-14.9-28.8l0.1-0.3
		l-3.1-2.7c-1.2-1.1-2.4-2.1-3.6-3.1c-5.3-4.2-11.7-7.5-19.6-10.5c-0.2-0.1-0.4-0.1-0.5-0.2c-0.4-0.1-0.7-0.3-1.1-0.4
		c-0.2-0.1-0.4-0.1-0.6-0.2c-0.4-0.1-0.7-0.3-1.1-0.4c-0.4-0.1-0.8-0.3-1.1-0.4c-0.2-0.1-0.4-0.1-0.6-0.2c-0.6-0.2-1.2-0.4-1.8-0.6
		c-0.3-0.1-0.5-0.2-0.8-0.3c0,0-0.1,0-0.1-0.1c0,0-0.1,0-0.1-0.1c-0.1,0-0.2-0.1-0.3-0.1c-0.7-0.4-1.3-0.9-1.8-1.4
		c-0.1-0.1-0.1-0.1-0.2-0.2c0,0-0.1-0.1-0.1-0.1c0,0-0.1-0.1-0.1-0.1c0,0-0.1-0.1-0.1-0.1c0,0,0,0,0,0c0,0-0.1-0.1-0.1-0.1
		c0,0-0.1-0.1-0.1-0.1c0,0,0-0.1,0-0.1c0,0,0,0,0-0.1c0,0,0,0,0-0.1c0-0.1-0.1-0.1-0.1-0.2c0-0.1-0.1-0.1-0.1-0.2
		c0-0.1-0.1-0.1-0.1-0.2c0,0,0,0,0-0.1c0-0.1-0.1-0.1-0.1-0.2c-0.1-0.3-0.3-0.7-0.4-1c0-0.1,0-0.2-0.1-0.3c0-0.1,0-0.2-0.1-0.3
		c0,0,0-0.1,0-0.1c0-0.1,0-0.1,0-0.2c0,0,0-0.1,0-0.1c0-0.1,0-0.1,0-0.2c0,0,0-0.1,0-0.1c0-0.1,0-0.2,0-0.3c0-0.1,0-0.2,0-0.2
		c0,0,0,0,0,0c0-0.1,0-0.2,0-0.3c0-0.1,0-0.2,0-0.3c0,0,0,0,0,0c0-0.1,0-0.2,0-0.2c0-0.1,0-0.2,0-0.3c0,0,0-0.1,0-0.1
		c0-0.1,0-0.1,0-0.2c0,0,0-0.1,0-0.1c0-0.1,0-0.1,0-0.2c0,0,0-0.1,0-0.1c0-0.1,0-0.2,0.1-0.3c0,0,0,0,0,0c0-0.1,0-0.2,0.1-0.2
		c0.1-0.3,0.2-0.5,0.3-0.8c0-0.1,0.1-0.2,0.1-0.2c0,0,0-0.1,0.1-0.1c0,0,0,0,0-0.1c0,0,0-0.1,0.1-0.1c0,0,0,0,0,0c0,0,0,0,0-0.1
		c0-0.1,0.1-0.1,0.1-0.2c0-0.1,0.1-0.1,0.1-0.2c0,0,0,0,0,0c0-0.1,0.1-0.1,0.1-0.2c0,0,0,0,0,0c0-0.1,0.1-0.1,0.1-0.2
		c0.1-0.1,0.2-0.3,0.3-0.4c0,0,0.1-0.1,0.1-0.1c0,0,0.1-0.1,0.1-0.1c0,0,0.1-0.1,0.1-0.1c0.4-0.4,0.8-0.8,1.4-1.1
		c0.1,0,0.2-0.1,0.3-0.1c0.1,0,0.1-0.1,0.2-0.1c0.1,0,0.1-0.1,0.2-0.1c0,0,0,0,0.1,0c0.1,0,0.2-0.1,0.2-0.1c0.1-0.1,0.3-0.1,0.4-0.2
		c0,0,0.1,0,0.1,0c0.2-0.1,0.4-0.1,0.7-0.2c0.4-0.1,0.7-0.2,1-0.3c0.3-0.1,0.5-0.2,0.8-0.3c0.2-0.1,0.4-0.1,0.6-0.2
		c0.4-0.1,0.8-0.3,1.2-0.4c0.2-0.1,0.4-0.1,0.6-0.2c3.8-1.4,7.2-2.8,10.3-4.3c0.2-0.1,0.4-0.2,0.6-0.3c0.3-0.2,0.7-0.3,1-0.5
		c0.3-0.2,0.6-0.3,0.9-0.5c0.1-0.1,0.3-0.1,0.4-0.2c0.1-0.1,0.3-0.2,0.4-0.2c9.5-5.3,16.2-12,21.5-21.5c0.1-0.3,0.3-0.5,0.4-0.8
		c0.2-0.3,0.3-0.6,0.5-1c1.6-3,3.1-6.4,4.5-10.2c0.1-0.2,0.1-0.3,0.2-0.5c0.1-0.2,0.2-0.4,0.2-0.7c0.1-0.2,0.1-0.4,0.2-0.6
		c0.1-0.4,0.3-0.8,0.4-1.2c0.1-0.2,0.1-0.4,0.2-0.6c0.1-0.2,0.2-0.5,0.3-0.7c0.1-0.3,0.2-0.7,0.3-1c0.2-0.5,0.3-0.9,0.5-1.4
		c0.1-0.3,0.2-0.5,0.3-0.7c0-0.1,0.1-0.2,0.1-0.3c0,0,0-0.1,0.1-0.1c0,0,0-0.1,0.1-0.1c0.4-0.7,0.8-1.2,1.3-1.7c0,0,0.1-0.1,0.1-0.1
		c0,0,0.1-0.1,0.1-0.1c0,0,0,0,0,0c0,0,0.1-0.1,0.1-0.1c0,0,0,0,0.1-0.1c0,0,0.1-0.1,0.1-0.1c0,0,0,0,0.1-0.1c0,0,0,0,0,0
		c0.1,0,0.1-0.1,0.2-0.1c0.1-0.1,0.1-0.1,0.2-0.1c0.1-0.1,0.3-0.2,0.4-0.2c0,0,0.1,0,0.1,0c0.1,0,0.1-0.1,0.2-0.1c0,0,0.1,0,0.1,0
		c0,0,0.1,0,0.1-0.1c0.2-0.1,0.3-0.1,0.5-0.2c0.1,0,0.2-0.1,0.3-0.1c0.1,0,0.2-0.1,0.3-0.1c0.1,0,0.2,0,0.2-0.1c0,0,0,0,0,0
		c0.1,0,0.2,0,0.2-0.1c0,0,0,0,0,0c0,0,0.1,0,0.1,0c0.1,0,0.1,0,0.2,0c0,0,0.1,0,0.1,0c0.1,0,0.1,0,0.2,0c0,0,0.1,0,0.1,0
		c0.1,0,0.2,0,0.3,0c0.1,0,0.2,0,0.2,0c0,0,0,0,0,0c0.1,0,0.2,0,0.3,0c0.1,0,0.2,0,0.3,0c0,0,0,0,0,0c0.1,0,0.2,0,0.2,0
		c0.1,0,0.2,0,0.3,0c0,0,0.1,0,0.1,0c0.1,0,0.1,0,0.2,0c0,0,0.1,0,0.1,0c0.1,0,0.1,0,0.2,0c0,0,0.1,0,0.1,0c0,0,0,0,0,0
		c0.1,0,0.2,0,0.2,0.1c0,0,0,0,0,0c0.1,0,0.2,0,0.2,0.1c0.1,0,0.2,0,0.2,0.1c0.1,0,0.1,0,0.2,0.1c0,0,0.1,0,0.1,0
		c0.1,0,0.1,0,0.2,0.1c0,0,0.1,0,0.1,0c0.1,0.1,0.3,0.1,0.4,0.2c0.1,0,0.1,0.1,0.2,0.1c0.1,0.1,0.2,0.1,0.3,0.2c0,0,0,0,0,0
		c0.1,0,0.1,0.1,0.2,0.1c0.1,0,0.1,0.1,0.2,0.1c0.1,0.1,0.1,0.1,0.2,0.2c0,0,0,0,0,0c0.1,0.1,0.2,0.1,0.2,0.2c0.1,0,0.1,0.1,0.2,0.2
		c0,0,0,0,0,0c0,0,0.1,0,0.1,0.1c0,0,0.1,0.1,0.1,0.1c0,0,0.1,0.1,0.1,0.1c0.5,0.5,0.9,1,1.2,1.6c0,0.1,0.1,0.2,0.1,0.3
		c0,0,0,0.1,0.1,0.1c0,0,0,0.1,0.1,0.1c0.1,0.2,0.1,0.3,0.2,0.5c0,0.1,0.1,0.2,0.1,0.3c0.2,0.7,0.4,1.3,0.6,1.9
		c0.1,0.2,0.1,0.4,0.2,0.6c0.1,0.2,0.1,0.4,0.2,0.6c3.5,10.2,7.4,18,12.6,24.3c1.1,1.4,2.3,2.7,3.6,3.9l2.6,2.8l0.3-0.1
		c7,5.9,15.9,10.1,27.8,13.9C255.6,188.5,255.6,197.8,249,199.9z"/>
	<path class="st0" d="M139.2,186.6c0.1-0.1,0.3-0.1,0.4-0.2C139.5,186.5,139.3,186.6,139.2,186.6z"/>
	<path class="st0" d="M144.8,184.7c3.8-1.3,7.2-2.8,10.3-4.3C152,181.9,148.6,183.4,144.8,184.7z"/>
	<path class="st0" d="M169.8,215.9l3.1,2.7l-0.1,0.3C171.8,217.9,170.9,216.9,169.8,215.9z"/>
	<path class="st0" d="M180.8,155.5c1.6-3.1,3.1-6.5,4.5-10.2C183.9,149.1,182.4,152.4,180.8,155.5z"/>
	<path class="st0" d="M185.9,143.6c0.1-0.4,0.3-0.8,0.4-1.2C186.2,142.8,186.1,143.2,185.9,143.6z"/>
	<path class="st0" d="M197.8,134.4c0.1,0.1,0.2,0.1,0.3,0.2C198,134.6,197.9,134.5,197.8,134.4z"/>
	<path class="st0" d="M221.2,172.5l-0.3,0.1l-2.6-2.8C219.3,170.8,220.2,171.6,221.2,172.5z"/>
	<path class="st0" d="M110.5,87.6c-7.6,12-17.1,20.7-30.3,27.7c-4.7-6.3-11.2-10.2-21.4-13.4c-4-1.3-4-6.8,0-8.1
		c16.6-5.3,23.4-12.1,28.7-28.7c1.3-4,6.8-4,8.1,0C99.1,76.1,103.3,82.8,110.5,87.6z"/>
</g>
</svg>
