<?xml version="1.0" encoding="utf-8"?>
<!-- Generator: Adobe Illustrator 23.0.1, SVG Export Plug-In . SVG Version: 6.00 Build 0)  -->
<svg version="1.1" id="Layer_1" xmlns="http://www.w3.org/2000/svg" xmlns:xlink="http://www.w3.org/1999/xlink" x="0px" y="0px"
	 viewBox="0 0 300 300" style="enable-background:new 0 0 300 300;" xml:space="preserve">
<style type="text/css">
	.st0{stroke:#000000;stroke-width:3;stroke-miterlimit:10;}
	.st1{fill:#E3E3E3;}
</style>
<path d="M257.41,184.46c-3.55,4.64-8.35,6.96-14.46,6.96h-14.44v17.09c0,10.16-3.52,18.76-10.55,25.78
	c-7.05,7.03-15.64,10.55-25.78,10.55h-6.42v3.06c0,10.12-8.21,18.33-18.33,18.33H89.2c-10.12,0-18.32-8.21-18.32-18.33v-32.97
	c-9.97-9.99-17.82-21.53-23.52-34.69c-2.18-5.05-3.95-10.17-5.3-15.37c4.42,0.68,8.98,1.04,13.64,1.04
	c17.64,0,33.98-5.1,45.63-13.97c11.65,8.87,27.98,13.97,45.62,13.97c21.88,0,41.76-7.85,53.18-21l5.69-6.56l-5.69-6.55
	c-7.11-8.19-17.49-14.32-29.6-17.78c10.18-14.62,15.39-30.96,14.37-45.43l-0.62-8.66l-8.65-0.61c-1.2-0.09-2.43-0.13-3.66-0.13
	c-13.13,0-27.38,4.88-40.31,13.53c-2.57-13.67-8.06-25.96-15.74-35.39c8.94-2.37,18.38-3.55,28.34-3.55
	c24.46,0,46.09,7.24,64.87,21.7c18.75,14.49,31.11,33.24,37.01,56.32l14.43,57.17C262,174.66,260.93,179.83,257.41,184.46z"/>
<path d="M118.73,97.64c0.82-0.97,1.67-1.94,2.54-2.89c0.87-0.95,1.78-1.9,2.7-2.82c0.43-0.43,0.86-0.85,1.29-1.26l0.38-0.36
	l0.25-0.24c1.06-1,2.12-1.96,3.21-2.88c14.68-12.58,31.69-18.9,45.82-17.9c0.92,13.05-4.39,28.57-15.12,42.44
	c-4.16-0.62-8.47-0.93-12.85-0.93c-11.54,0-22.53,2.18-32.01,6.17c-2.37,1-4.65,2.12-6.82,3.34c-1.32,0.75-2.6,1.53-3.84,2.36
	c0.7-2.06,1.52-4.13,2.46-6.2c0.84-1.85,1.77-3.7,2.79-5.54l0.06-0.11l0.28-0.5c0.04-0.07,0.09-0.15,0.13-0.22
	c0.31-0.54,0.63-1.08,0.95-1.62c0.22-0.36,0.43-0.71,0.65-1.07c0.03-0.04,0.05-0.08,0.08-0.12c0.18-0.28,0.35-0.55,0.53-0.83
	c0.25-0.39,0.51-0.78,0.77-1.17c0.33-0.5,0.67-0.99,1.01-1.48c0.65-0.93,1.31-1.85,2-2.75c0.28-0.37,0.56-0.73,0.84-1.09
	c0.41-0.53,0.83-1.04,1.26-1.56c0.1-0.13,0.21-0.26,0.31-0.38C118.51,97.9,118.62,97.77,118.73,97.64z"/>
<path d="M42.34,111.05C31.95,97.36,26.82,82.13,27.73,69.29c9.56-0.67,20.43,2,31.01,7.69c4.99,2.68,9.91,6.04,14.6,10.03
	c0.01,0.01,0.01,0.01,0.02,0.02c1,0.84,1.99,1.72,2.96,2.63l1.07,1.02c0.43,0.41,0.86,0.83,1.29,1.26c1.93,1.93,3.68,3.84,5.26,5.74
	c0.41,0.49,0.82,0.99,1.22,1.48c0.4,0.5,0.8,1.01,1.19,1.51c0.39,0.51,0.77,1.02,1.15,1.53c0.01,0.01,0.01,0.02,0.03,0.03
	c0.36,0.5,0.72,1,1.08,1.51c0.36,0.52,0.72,1.04,1.07,1.57c0.35,0.52,0.69,1.05,1.03,1.58c0,0.01,0.01,0.01,0.02,0.02
	c0.32,0.52,0.65,1.04,0.96,1.57c0.33,0.53,0.64,1.07,0.95,1.61l0.13,0.23l0.04,0.06l0.22,0.39c1.06,1.89,2.01,3.8,2.87,5.7
	c0.94,2.07,1.76,4.13,2.46,6.19c-1.24-0.83-2.52-1.61-3.84-2.35c-2.17-1.23-4.44-2.34-6.81-3.34c-9.48-3.99-20.47-6.17-32.01-6.17
	c-4.38,0-8.68,0.31-12.85,0.93C42.68,111.5,42.51,111.28,42.34,111.05z"/>
<path d="M55.7,155.91c-5.5,0-10.8-0.56-15.78-1.6c-12.69-2.66-23.31-8.42-29.85-15.96c6.56-7.55,17.23-13.33,29.96-15.96
	c1.32-0.28,2.67-0.52,4.04-0.73l0.25-0.04c0.37-0.05,0.74-0.11,1.12-0.15c1.85-0.24,3.72-0.42,5.63-0.53
	c1.52-0.09,3.07-0.14,4.63-0.14c1.28,0,2.56,0.03,3.83,0.09c1.2,0.06,2.39,0.14,3.57,0.26c0.05,0,0.09,0,0.14,0.01
	c0.47,0.04,0.94,0.09,1.4,0.14c0.72,0.08,1.44,0.17,2.17,0.28c9.29,1.33,17.66,4.3,24.42,8.42l0.01-0.02c0.54,0.32,1.06,0.66,1.57,1
	l8.52,5.68l8.5-5.67c0.52-0.34,1.04-0.68,1.58-1.01l0.01,0.02c6.47-3.95,14.44-6.84,23.26-8.24c1.06-0.18,2.14-0.32,3.23-0.44
	c0.5-0.06,1.01-0.12,1.51-0.16c0.04-0.01,0.09-0.01,0.13-0.01c1.19-0.12,2.39-0.2,3.6-0.26c1.26-0.06,2.53-0.09,3.8-0.09
	c1.56,0,3.11,0.05,4.63,0.14c0.55,0.03,1.09,0.07,1.64,0.11c16.84,1.32,31.24,7.95,39.35,17.3c-9.1,10.5-26.13,17.56-45.62,17.56
	c-15.02,0-28.56-4.19-38.15-10.91c-0.95-0.66-1.85-1.34-2.72-2.05c-1.73-1.42-3.3-2.93-4.68-4.52c-0.03-0.03-0.06-0.05-0.08-0.08
	c-0.02,0.03-0.05,0.05-0.08,0.08c-1.38,1.59-2.94,3.1-4.67,4.52c-0.87,0.71-1.77,1.39-2.72,2.05
	C84.26,151.72,70.72,155.91,55.7,155.91z"/>
<path d="M81.84,81.25c-0.6-0.57-1.2-1.12-1.8-1.67c2.3-18.32,10.28-33.87,21.28-42.86c11,8.99,18.99,24.53,21.29,42.85
	c-0.6,0.54-1.2,1.1-1.8,1.66c-2.54,2.4-4.99,4.91-7.28,7.47c-4.64,5.2-8.75,10.72-12.21,16.43c-3.45-5.69-7.55-11.2-12.17-16.38
	C86.93,86.24,84.47,83.72,81.84,81.25z"/>
</svg>
