<?xml version="1.0" encoding="utf-8"?>
<!-- Generator: Adobe Illustrator 23.0.1, SVG Export Plug-In . SVG Version: 6.00 Build 0)  -->
<svg version="1.1" id="Layer_1" xmlns="http://www.w3.org/2000/svg" xmlns:xlink="http://www.w3.org/1999/xlink" x="0px" y="0px"
	 viewBox="0 0 300 300" style="enable-background:new 0 0 300 300;" xml:space="preserve">
<style type="text/css">
	.st0{stroke:#000000;stroke-width:3;stroke-miterlimit:10;}
	.st1{fill:#E3E3E3;}
</style>
<g>
	<path d="M115.76,260.86c-19.49-4.45-37.7-14.09-52.42-27.81c6.21-4.47,12.81-8.41,19.68-11.74
		C91.48,236.23,102.65,249.71,115.76,260.86z"/>
	<path d="M134.27,208.21v50.07c-15.82-11.1-29.13-25.57-38.84-42.25C107.91,211.49,120.95,208.86,134.27,208.21z"/>
	<path d="M178.31,213.45v13.85c-8.49,11.69-18.87,21.98-30.64,30.38v-49.44C158.1,208.77,168.36,210.51,178.31,213.45z"/>
	<path d="M190.28,247.74c-0.58,1.57-0.89,3.26-0.89,5.01v0.08c-7.77,3.67-15.95,6.46-24.35,8.29c6.63-5.61,12.76-11.81,18.31-18.5
		C185.25,244.79,187.61,246.55,190.28,247.74z"/>
	<path d="M147.66,155.71h31.72c-0.7,2.04-1.08,4.23-1.08,6.5v37.32c-9.99-2.65-20.23-4.23-30.64-4.7V155.71z"/>
	<path d="M134.27,155.71v39.11c-15.48,0.68-30.59,3.78-45.02,9.23c-6.93-15.28-10.83-31.51-11.61-48.34H134.27z"/>
	<path d="M76.95,209.36c-8.02,3.91-15.72,8.57-22.93,13.91c-16.05-19-25.47-42.79-26.74-67.56h36.95
		C65.02,174.4,69.3,192.42,76.95,209.36z"/>
	<path d="M75.97,91.74c-6.93,16.07-10.86,33.06-11.69,50.58h-36.9c1.57-23.61,10.6-46.39,25.67-64.72
		C60.24,83.01,67.93,87.75,75.97,91.74z"/>
	<path d="M134.27,106.72v35.6H77.69c0.83-15.66,4.37-30.83,10.55-45.18C102.96,102.82,118.42,106.04,134.27,106.72z"/>
	<path d="M192.92,97.25c3.56,8.29,6.24,16.86,8.02,25.64c-4.13,3.17-6.8,8.16-6.8,13.76v5.68h-46.48V106.7
		C163.22,105.98,178.41,102.8,192.92,97.25z"/>
	<path d="M252.14,125.41c-3.18-3.73-7.92-6.11-13.21-6.11h-25.04c-1.97-9.37-4.87-18.54-8.69-27.42c8.26-4.08,16.15-8.95,23.5-14.51
		C240.23,91.34,248.26,107.87,252.14,125.41z"/>
	<path d="M219.51,67.52c-6.34,4.7-13.11,8.82-20.17,12.31c-8.4-15.44-19.65-29.41-32.98-40.96
		C186.18,43.44,204.66,53.37,219.51,67.52z"/>
	<path d="M186.99,85.17c-12.61,4.7-25.81,7.43-39.32,8.14V41.19C163.85,52.72,177.34,67.79,186.99,85.17z"/>
	<path d="M114.43,39.16c-13.14,11.46-24.27,25.27-32.59,40.54c-6.86-3.41-13.43-7.42-19.62-11.97
		C76.81,53.74,94.96,43.85,114.43,39.16z"/>
	<path d="M134.27,40.59v52.74c-13.78-0.66-27.25-3.44-40.1-8.27C103.98,67.43,117.72,52.19,134.27,40.59z"/>
	<path d="M265.69,183.82h-1.43v-21.6c0-6.54-5.3-11.86-11.85-11.86h-4.51v-13.71c0-4.95-4.03-8.98-8.97-8.98h-27.44
		c-4.22,0-7.78,2.93-8.72,6.87c-0.17,0.67-0.25,1.38-0.25,2.11v13.71h-3.99c-4.13,0-7.78,2.14-9.91,5.35
		c-1.22,1.87-1.94,4.1-1.94,6.51v67.07c0,2.42,0.73,4.67,1.97,6.54c1.6,2.41,4.06,4.21,6.93,4.94h0.01
		c0.94,0.25,1.92,0.37,2.94,0.37h53.88c0.87,0,1.73-0.09,2.55-0.28c2.66-0.58,4.99-2.06,6.65-4.1c1.66-2.04,2.65-4.64,2.65-7.47
		v-21.61h1.43c3.86,0,7.02-3.14,7.02-7.02v-9.82C272.71,186.98,269.55,183.82,265.69,183.82z M209.37,220.56
		c0,1.45-0.58,2.78-1.54,3.73c-0.44,0.45-0.96,0.81-1.54,1.07h-0.01c-0.67,0.31-1.4,0.48-2.18,0.48c-2.61,0-4.77-1.89-5.2-4.38
		c-0.06-0.29-0.08-0.59-0.08-0.9v-49.61c0-2.4,1.59-4.41,3.77-5.06c0.03-0.02,0.07-0.02,0.1-0.03c0.45-0.13,0.92-0.19,1.41-0.19
		c2.91,0,5.27,2.36,5.27,5.28V220.56z M230.49,220.56c0,1.45-0.59,2.78-1.55,3.73c-0.95,0.96-2.28,1.55-3.73,1.55
		c-2.91,0-5.28-2.37-5.28-5.28v-49.61c0-1.19,0.4-2.29,1.06-3.17c0.96-1.28,2.49-2.11,4.22-2.11c1.72,0,3.25,0.83,4.22,2.11
		c0.66,0.88,1.06,1.98,1.06,3.17V220.56z M231.54,150.36h-12.67v-1.43c0-2.12,1.73-3.84,3.84-3.84h4.99c2.12,0,3.84,1.72,3.84,3.84
		V150.36z M230.03,142.32c-0.73-0.26-1.52-0.4-2.33-0.4h-4.99c-0.81,0-1.6,0.14-2.32,0.4c-2.72,0.96-4.68,3.57-4.68,6.61v1.43h-7.92
		v-13.71c0-2.04,1.66-3.7,3.7-3.7h27.44c2.04,0,3.7,1.66,3.7,3.7v13.71h-7.92v-1.43C234.71,145.89,232.75,143.28,230.03,142.32z
		 M251.6,220.56c0,1.45-0.59,2.78-1.55,3.73c-0.95,0.96-2.28,1.55-3.73,1.55c-2.91,0-5.28-2.37-5.28-5.28v-49.61
		c0-2.92,2.37-5.28,5.28-5.28c0.48,0,0.95,0.06,1.4,0.19c2.24,0.62,3.88,2.66,3.88,5.09V220.56z M270.06,200.66
		c0,2.42-1.96,4.39-4.37,4.39h-1.43v-18.59h1.43c2.41,0,4.37,1.97,4.37,4.38V200.66z"/>
	<path d="M251.74,249.51c0.59,0.95,0.91,2.05,0.91,3.24c0,3.5-2.84,6.34-6.34,6.34c-3.5,0-6.33-2.84-6.33-6.34
		c0-1.19,0.33-2.29,0.9-3.24c1.1-1.85,3.11-3.09,5.42-3.09S250.65,247.66,251.74,249.51z"/>
	<path d="M209.52,249.51c0.59,0.95,0.91,2.05,0.91,3.24c0,3.5-2.84,6.34-6.34,6.34s-6.34-2.84-6.34-6.34c0-1.19,0.33-2.29,0.91-3.24
		c1.09-1.85,3.11-3.09,5.42-3.09S208.43,247.66,209.52,249.51z"/>
</g>
</svg>
