<?xml version="1.0" encoding="utf-8"?>
<!-- Generator: Adobe Illustrator 23.0.1, SVG Export Plug-In . SVG Version: 6.00 Build 0)  -->
<svg version="1.1" id="Layer_1" xmlns="http://www.w3.org/2000/svg" xmlns:xlink="http://www.w3.org/1999/xlink" x="0px" y="0px"
	 viewBox="0 0 300 300" style="enable-background:new 0 0 300 300;" xml:space="preserve">
<style type="text/css">
	.st0{fill:none;}
	.st1{stroke:#000000;stroke-width:12;stroke-linecap:round;stroke-linejoin:round;stroke-miterlimit:10;}
	.st2{fill:none;stroke:#000000;stroke-width:16;stroke-linecap:round;stroke-linejoin:round;stroke-miterlimit:10;}
	.st3{fill:#E3E3E3;}
	.st4{fill:#00FF00;}
	.st5{fill:#0000FF;}
	.st6{fill:#333333;}
	.st7{stroke:#000000;stroke-miterlimit:10;}
	.st8{fill:none;stroke:#000000;stroke-width:15;stroke-linecap:round;stroke-linejoin:round;stroke-miterlimit:10;}
</style>
<path d="M173.58,200.69l-2.82-0.18c-0.94-0.06-1.89-0.11-2.84-0.15c-0.45-0.02-0.91-0.04-1.37-0.07c-0.49-0.02-0.99-0.03-1.48-0.05
	c-0.48-0.02-0.96-0.04-1.43-0.05c-0.48-0.02-0.96-0.03-1.44-0.05c-0.48-0.01-0.96-0.02-1.44-0.03c-0.39-0.01-0.79-0.02-1.18-0.02
	c-0.83-0.01-1.65-0.02-2.48-0.02c0.32,0.01,0.64,0.01,0.97,0.02c0.39,0,0.79,0.01,1.18,0.02c0.48,0.01,0.96,0.02,1.44,0.03
	c0.48,0.02,0.96,0.03,1.44,0.05c0.48,0.01,0.95,0.03,1.43,0.05c0.5,0.01,0.99,0.03,1.48,0.05c0.46,0.03,0.92,0.05,1.38,0.07
	c0.94,0.04,1.89,0.09,2.83,0.15c0.95,0.06,1.89,0.12,2.82,0.18c0.72,0.05,1.44,0.11,2.16,0.16c0.08,0.01,0.16,0.01,0.25,0.02
	c0.04,0,0.09,0.01,0.13,0.01c0.01-0.04,0.02-0.07,0.03-0.11C174.29,200.74,173.93,200.72,173.58,200.69z"/>
<path d="M176.57,201.05c-0.02-0.01-0.06-0.01-0.09-0.01c-0.62-0.06-1.24-0.1-1.87-0.16c-0.98,3.34-1.7,6.75-2.17,10.21l9.58-9.5
	C180.22,201.39,178.4,201.21,176.57,201.05z M148.83,200.09c-0.4,0-0.79,0.01-1.19,0.02c-0.48,0.01-0.96,0.02-1.44,0.03
	c-0.48,0.02-0.95,0.03-1.43,0.05c-0.48,0.01-0.96,0.03-1.44,0.05c-0.49,0.02-0.99,0.03-1.48,0.05c-0.46,0.03-0.91,0.05-1.37,0.07
	c-0.95,0.04-1.9,0.09-2.84,0.15l-2.82,0.18c-0.35,0.03-0.7,0.05-1.05,0.08c0.01,0.04,0.02,0.07,0.03,0.11
	c0.04,0,0.09-0.01,0.13-0.01c0.08-0.01,0.16-0.01,0.24-0.02c0.72-0.05,1.44-0.11,2.16-0.16l2.82-0.18c0.94-0.06,1.89-0.11,2.84-0.15
	c0.46-0.02,0.91-0.04,1.37-0.07c0.49-0.02,0.99-0.04,1.48-0.05c0.48-0.02,0.96-0.04,1.44-0.05c0.47-0.02,0.95-0.03,1.43-0.05
	c0.48-0.01,0.96-0.02,1.44-0.03c0.4-0.01,0.79-0.02,1.18-0.02c0.33-0.01,0.65-0.01,0.97-0.02
	C150.47,200.07,149.65,200.08,148.83,200.09z"/>
<path d="M161.24,33.42c-2.32-0.23-4.66-0.35-7.04-0.35h6.69C161.08,33.07,161.23,33.22,161.24,33.42z"/>
<path d="M217.81,133.06c-0.47,1.02-0.97,2.02-1.5,3.01c-1.03,0.55-2.04,1.14-3.04,1.77c-3.43,2.17-6.68,4.79-9.67,7.78
	c-4.22,4.22-7.65,8.89-10.16,13.86c-0.5,0.98-0.97,1.98-1.41,3c-0.93,0.6-1.88,1.18-2.85,1.73c0.71-1.92,1.54-3.81,2.47-5.64
	c2.61-5.15,6.16-9.99,10.53-14.36c3.09-3.09,6.46-5.8,10.02-8.06C214.02,135,215.89,133.97,217.81,133.06z"/>
<g>
	<path d="M152.2,231.17c-3.85,3.84-5.88,8.75-5.88,14.2c0,5.36,2.09,10.4,5.88,14.19l10.59,10.6H18.46
		c0.03-14.95,9.11-28.77,24.52-40.13c20.45-15.07,52.12-25.78,88.85-28.98c0.03-0.01,0.06-0.01,0.09-0.01
		c0.63-0.06,1.25-0.1,1.88-0.16c0.04,0,0.09-0.01,0.13-0.01c0.08-0.01,0.16-0.01,0.24-0.02c0.72-0.05,1.44-0.11,2.16-0.16l2.82-0.18
		c0.94-0.06,1.89-0.11,2.84-0.15c0.46-0.02,0.91-0.04,1.37-0.07c0.49-0.02,0.99-0.04,1.48-0.05c0.48-0.02,0.96-0.04,1.44-0.05
		c0.47-0.02,0.95-0.03,1.43-0.05c0.48-0.01,0.96-0.02,1.44-0.03c0.4-0.01,0.79-0.02,1.18-0.02c0.33-0.01,0.65-0.01,0.97-0.02
		c0.32-0.01,0.64-0.01,0.96-0.01c0.4-0.01,0.79-0.01,1.19-0.01h0.75c0.64,0,1.29,0,1.94,0.01c0.32,0,0.64,0,0.96,0.01
		c0.32,0.01,0.64,0.01,0.97,0.02c0.39,0,0.79,0.01,1.18,0.02c0.48,0.01,0.96,0.02,1.44,0.03c0.48,0.02,0.96,0.03,1.44,0.05
		c0.48,0.01,0.95,0.03,1.43,0.05c0.5,0.01,0.99,0.03,1.48,0.05c0.46,0.03,0.92,0.05,1.38,0.07c0.94,0.04,1.89,0.09,2.83,0.15
		c0.95,0.06,1.89,0.12,2.82,0.18c0.72,0.05,1.44,0.11,2.16,0.16c0.08,0.01,0.16,0.01,0.25,0.02c0.04,0,0.09,0.01,0.13,0.01
		c-0.98,3.34-1.7,6.75-2.17,10.21L152.2,231.17z"/>
	<path d="M289.95,270.16h-91.02l32.44-32.71l0.75,0.15c3.16,0.62,6.52,0.93,9.99,0.93c3.84,0,7.59-0.36,11.07-1.06
		c5.29-1.03,10.28-2.83,14.93-5.37C281.88,243.05,289.91,256.1,289.95,270.16z"/>
	<path d="M224.42,103.27c0,10.66-2.36,20.76-6.61,29.79c-0.47,1.02-0.97,2.02-1.5,3.01c-1.03,0.55-2.04,1.14-3.04,1.77
		c-3.43,2.17-6.68,4.79-9.67,7.78c-4.22,4.22-7.65,8.89-10.16,13.86c-0.5,0.98-0.97,1.98-1.41,3c-0.93,0.6-1.88,1.18-2.85,1.73
		c-8.38,4.81-17.85,7.94-27.94,8.94c-2.32,0.23-4.66,0.35-7.04,0.35c-8.12,0-15.91-1.37-23.15-3.9c-5.14-1.78-9.99-4.14-14.5-7.01
		c-0.56-0.36-1.12-0.72-1.67-1.1c-5.62-3.79-10.66-8.38-14.95-13.6c-4.07-4.93-7.46-10.44-10.05-16.37
		c-1.23-2.78-2.27-5.65-3.12-8.6c-1.54-5.31-2.48-10.89-2.72-16.65c-0.04-1-0.06-2-0.06-3c0-4.07,0.34-8.07,1.01-11.95
		c1.69-9.92,5.47-19.13,10.86-27.16c2.74-4.1,5.92-7.91,9.45-11.33c0.77-0.75,1.55-1.46,2.36-2.17c0.65-0.58,1.32-1.14,2-1.68
		c0.32-0.28,0.61-0.52,0.93-0.75c0.36-0.28,0.71-0.54,1.07-0.78c0.16-0.12,0.32-0.24,0.48-0.36c3.54-2.68,7.35-5.02,11.38-6.99
		c9.26-4.51,19.68-7.03,30.68-7.03c2.38,0,4.72,0.12,7.04,0.35c20.95,2.07,39.15,13.29,50.56,29.63
		C219.75,74.44,224.42,88.29,224.42,103.27z"/>
	<path d="M283.51,184.13c0,11.5-4.03,21.28-12.08,29.33c-4.75,4.75-10.11,8.1-16.06,10.03c-1.52,0.5-3.08,0.91-4.68,1.22
		c-2.74,0.55-5.6,0.82-8.58,0.82c-2.65,0-5.15-0.23-7.5-0.69c-2.36-0.46-4.69-1.15-6.99-2.07l-40.91,41.26l-0.83,0.83
		c-1.38,1.38-3.05,2.07-5,2.07c-1.96,0-3.63-0.69-5.01-2.07l-14.48-14.49c-1.38-1.38-2.07-3.05-2.07-5c0-1.96,0.69-3.63,2.07-5.01
		l10.95-10.86l25.82-25.61l0.66-0.66l4.65-4.61c-0.92-2.3-1.61-4.63-2.07-6.98c-0.46-2.36-0.69-4.86-0.69-7.51
		c0-6.87,1.44-13.12,4.31-18.75c1.93-3.81,4.52-7.32,7.77-10.57c2.34-2.34,4.82-4.33,7.44-5.99c6.42-4.05,13.72-6.08,21.88-6.08
		c4.14,0,8.08,0.57,11.81,1.72c3.74,1.15,7.28,2.76,10.61,4.83l-25.18,25.18l12.42,12.42l25.18-25.18
		c2.07,3.33,3.68,6.87,4.83,10.61C282.93,176.05,283.51,179.99,283.51,184.13z"/>
	<path d="M79,148.13l-8.97,12.34l-12.71-16.82l-17.19,22.42h52.32L79,148.13z M108.5,175.25c-3-1.9-5.86-3.98-8.57-6.21v4.51H32.65
		v-67.28h36.38c-0.03-1-0.05-2-0.05-3c0-4.02,0.28-8.01,0.84-11.95H32.65c-4.11,0-7.63,1.47-10.56,4.39
		c-2.93,2.93-4.39,6.45-4.39,10.56v67.28c0,4.11,1.46,7.63,4.39,10.56c2.93,2.93,6.45,4.39,10.56,4.39h67.28
		c4.11,0,7.63-1.46,10.56-4.39c1.67-1.68,2.86-3.54,3.58-5.61C112.17,177.49,110.31,176.41,108.5,175.25z M110.49,95.71
		c-2.93-2.92-6.45-4.39-10.56-4.39H84.99c-0.67,3.88-1.01,7.88-1.01,11.95c0,1,0.02,2,0.06,3h15.89v41.62
		c4.29,5.22,9.33,9.81,14.95,13.6v-55.22C114.88,102.16,113.41,98.64,110.49,95.71z M79,148.13l-8.97,12.34l-12.71-16.82
		l-17.19,22.42h52.32L79,148.13z M79,148.13l-8.97,12.34l-12.71-16.82l-17.19,22.42h52.32L79,148.13z"/>
</g>
<circle cx="49.41" cy="123.79" r="9.27"/>
</svg>
