<?xml version="1.0" encoding="utf-8"?>
<!-- Generator: Adobe Illustrator 23.0.1, SVG Export Plug-In . SVG Version: 6.00 Build 0)  -->
<svg version="1.1" id="Layer_1" xmlns="http://www.w3.org/2000/svg" xmlns:xlink="http://www.w3.org/1999/xlink" x="0px" y="0px"
	 viewBox="0 0 300 300" style="enable-background:new 0 0 300 300;" xml:space="preserve">
<style type="text/css">
	.st0{fill:none;}
	.st1{stroke:#000000;stroke-width:12;stroke-linecap:round;stroke-linejoin:round;stroke-miterlimit:10;}
	.st2{fill:none;stroke:#000000;stroke-width:16;stroke-linecap:round;stroke-linejoin:round;stroke-miterlimit:10;}
	.st3{fill:#E3E3E3;}
	.st4{fill:#00FF00;}
	.st5{fill:#0000FF;}
	.st6{fill:#333333;}
	.st7{stroke:#000000;stroke-miterlimit:10;}
	.st8{fill:none;stroke:#000000;stroke-width:15;stroke-linecap:round;stroke-linejoin:round;stroke-miterlimit:10;}
</style>
<path d="M266.28,100.92c-6.62-15.24-15.65-28.61-27.13-40.07c-11.47-11.47-24.82-20.51-40.08-27.15
	c-15.24-6.62-31.55-9.93-48.92-9.93c-17.35,0-33.71,3.31-49.06,9.93c-15.36,6.64-28.77,15.68-40.24,27.15
	c-11.46,11.46-20.51,24.83-27.13,40.07c-4.87,11.23-7.96,23.02-9.25,35.37c-0.48,4.45-0.7,8.96-0.7,13.54
	c0,9.1,0.91,17.91,2.74,26.43c1.63,7.78,4.05,15.34,7.21,22.66c6.62,15.35,15.67,28.77,27.13,40.22
	c11.32,11.32,24.52,20.26,39.61,26.86c0.21,0.1,0.42,0.19,0.63,0.29c7.9,3.4,16.06,5.93,24.49,7.58l-48.15-48.16
	c-4.14-4.14-6.73-9.35-7.66-14.83c-2.47-3.3-4.76-6.77-6.87-10.4h7.06c0.59-2.76,1.61-5.45,3.07-7.99c1.24-2.14,2.71-4.05,4.4-5.74
	l11.5-11.5H52.17c-1.05-4.22-1.83-8.37-2.36-12.48c-0.53-4.09-0.8-8.35-0.8-12.76c0-4.44,0.27-8.7,0.8-12.79
	c0.04-0.3,0.08-0.63,0.14-0.93c0.51-3.81,1.25-7.65,2.22-11.53h42.92c-0.59,3.88-1.02,7.72-1.35,11.53
	c-0.02,0.3-0.06,0.63-0.07,0.93c-0.31,4.09-0.46,8.35-0.46,12.79c0,4.41,0.15,8.67,0.46,12.76c0.18,2.33,0.41,4.68,0.7,7.05
	l24.13-24.13c0.07-2.9,0.21-5.73,0.41-8.47c0.02-0.3,0.06-0.63,0.08-0.93c0.32-3.81,0.76-7.65,1.35-11.53h59.32
	c0.59,3.88,1.03,7.72,1.35,11.53c0.02,0.3,0.06,0.63,0.08,0.93c0.32,4.09,0.47,8.35,0.47,12.79c0,4.41-0.15,8.67-0.47,12.76
	c-0.33,4.11-0.8,8.26-1.43,12.48h-12.24l-25.23,25.23h31.8c-2.53,9.27-5.78,18-9.78,26.2c-0.86,1.76-1.75,3.5-2.67,5.23l8.5,8.51
	c5.2,5.18,8.07,12.1,8.07,19.46c0.01,5.03-1.33,9.86-3.84,14.08c4.34-0.84,8.61-1.91,12.8-3.22c-4.2-9.49-2.74-20.39,3.73-28.4
	c-2.59,1.09-5.25,2.08-7.98,2.96c3.79-6.94,7.1-14.15,9.95-21.61c2.83-7.48,5.19-15.2,7.1-23.21h21.64l-28.42-28.43
	c-5.21-5.2-8.07-12.12-8.07-19.47c0-7.36,2.86-14.28,8.07-19.49c1.6-1.6,3.4-3,5.34-4.17c2.1-1.24,4.35-2.21,6.67-2.85
	c-0.06-0.43-0.12-0.87-0.19-1.31h42.92c1.05,4.2,1.84,8.35,2.36,12.46c0.53,4.09,0.8,8.35,0.8,12.79c0,0.67-0.01,1.34-0.02,2.01
	l22.83,22.84c1.62-8.09,2.43-16.44,2.43-25.03C276.23,132.48,272.92,116.18,266.28,100.92z M107.25,76.32
	c-2.85,7.46-5.21,15.2-7.12,23.19H62.9c6.11-10.52,13.74-19.67,22.89-27.45c9.15-7.78,19.61-13.59,31.39-17.37
	C113.4,61.63,110.08,68.84,107.25,76.32z M126.03,99.51c2.51-9.26,5.78-18,9.78-26.2c3.99-8.2,8.73-16.09,14.19-23.66
	c5.48,7.57,10.2,15.46,14.21,23.66c4,8.2,7.25,16.94,9.78,26.2H126.03z M199.87,99.51c-1.91-7.99-4.27-15.73-7.1-23.19
	c-2.85-7.48-6.16-14.69-9.95-21.63c11.78,3.78,22.26,9.59,31.41,17.37c9.15,7.78,16.76,16.93,22.87,27.45H199.87z"/>
<line class="st0" x1="94.37" y1="169.82" x2="88.93" y2="175.25"/>
<path d="M158.73,251.73c4.51,4.5,4.51,11.82,0,16.33c-2.25,2.25-5.21,3.38-8.17,3.38c-2.95,0-5.9-1.13-8.16-3.38L88.74,214.4
	c-3.77-3.77-4.39-9.51-1.85-13.92c0.5-0.86,1.11-1.67,1.85-2.41l30.61-30.61l23.05-23.05c4.51-4.51,11.82-4.51,16.33,0l0.29,0.29
	c4.51,4.51,4.51,11.82,0,16.33l-14.22,14.22l-23.11,23.11c-4.51,4.51-4.51,11.82,0,16.33l31.33,31.33L158.73,251.73z"/>
<path d="M158.73,251.73c4.51,4.5,4.51,11.82,0,16.33c-2.25,2.25-5.21,3.38-8.17,3.38c-2.95,0-5.9-1.13-8.16-3.38L88.74,214.4
	c-3.77-3.77-4.39-9.51-1.85-13.92c0.5-0.86,1.11-1.67,1.85-2.41l30.61-30.61l23.05-23.05c4.51-4.51,11.82-4.51,16.33,0l0.29,0.29
	c4.51,4.51,4.51,11.82,0,16.33l-14.22,14.22l-23.11,23.11c-4.51,4.51-4.51,11.82,0,16.33l31.33,31.33L158.73,251.73z"/>
<path d="M274.39,214.4l-53.66,53.66c-4.51,4.51-11.82,4.51-16.33,0l-0.29-0.3c-0.85-0.85-1.53-1.79-2.07-2.8
	c-2.28-4.36-1.59-9.87,2.07-13.53l37.32-37.32c4.51-4.51,4.51-11.82,0-16.33l-22.52-22.53l-14.51-14.51
	c-4.51-4.51-4.51-11.82,0-16.33c0.69-0.69,1.45-1.28,2.25-1.76c1.82-1.08,3.86-1.62,5.91-1.62c2.96,0,5.92,1.12,8.17,3.38
	l27.81,27.81l20.29,20.29l5.56,5.56C278.9,202.58,278.9,209.89,274.39,214.4z"/>
<path d="M274.39,214.4l-53.66,53.66c-4.51,4.51-11.82,4.51-16.33,0l-0.29-0.3c-0.85-0.85-1.53-1.79-2.07-2.8
	c-2.28-4.36-1.59-9.87,2.07-13.53l37.32-37.32c4.51-4.51,4.51-11.82,0-16.33l-22.52-22.53l-14.51-14.51
	c-4.51-4.51-4.51-11.82,0-16.33c0.69-0.69,1.45-1.28,2.25-1.76c1.82-1.08,3.86-1.62,5.91-1.62c2.96,0,5.92,1.12,8.17,3.38
	l27.81,27.81l20.29,20.29l5.56,5.56C278.9,202.58,278.9,209.89,274.39,214.4z"/>
</svg>
