<?xml version="1.0" encoding="utf-8"?>
<!-- Generator: Adobe Illustrator 23.0.1, SVG Export Plug-In . SVG Version: 6.00 Build 0)  -->
<svg version="1.1" id="Layer_1" xmlns="http://www.w3.org/2000/svg" xmlns:xlink="http://www.w3.org/1999/xlink" x="0px" y="0px"
	 viewBox="0 0 300 300" style="enable-background:new 0 0 300 300;" xml:space="preserve">
<style type="text/css">
	.st0{fill:none;}
	.st1{fill:#FFFFFF;}
</style>
<g>
	<path d="M187.87,72.49c-1.42-2.85-2.94-5.61-4.56-8.24c9.4-7.29,19.22-11.98,28.52-13.53c0,0.01,0.01,0.02,0.01,0.03
		c0.04-0.01,0.08-0.02,0.12-0.03c3.59,7.93,5.18,17.75,4.73,28.55c-1.22,0.42-2.44,0.87-3.66,1.36l-2.67,1.08
		c-0.73,0.32-1.47,0.66-2.2,1.02v0.08c-4.37,2.13-8.73,4.78-13.02,7.89c-0.01-0.03-0.02-0.06-0.03-0.09
		c-0.03,0.03-0.06,0.04-0.1,0.07C193.13,84.35,190.74,78.26,187.87,72.49z"/>
	<path d="M85.55,79.28C85.1,68.47,86.7,58.65,90.3,50.72c0.03,0.01,0.07,0.01,0.1,0.02c0-0.01,0.01-0.01,0.01-0.02
		c9.3,1.55,19.12,6.24,28.52,13.53c-1.62,2.63-3.13,5.39-4.56,8.24c-2.87,5.77-5.25,11.88-7.14,18.22c-0.04-0.03-0.07-0.05-0.1-0.08
		c-0.01,0.02-0.01,0.04-0.02,0.06c-5.89-4.27-11.9-7.64-17.9-10.06C87.99,80.14,86.77,79.69,85.55,79.28z"/>
	<path d="M109.72,129.11c-0.01-0.59-0.02-1.19-0.02-1.78c0-0.64,0.01-1.27,0.02-1.9v-0.61c0-0.32,0.01-0.64,0.02-0.96v-0.17
		c0.03-0.89,0.06-1.78,0.11-2.67c0.01-0.38,0.03-0.78,0.06-1.16c0-0.05,0.01-0.1,0.01-0.14c0.08-1.48,0.19-2.95,0.34-4.4
		c0.05-0.56,0.11-1.11,0.17-1.67c0.13-1.26,0.31-2.52,0.47-3.76c0.11-0.69,0.21-1.37,0.32-2.05c0.09-0.6,0.19-1.21,0.31-1.8
		c0.06-0.38,0.13-0.75,0.21-1.13c-0.05-0.03-0.09-0.04-0.14-0.07c0.07-0.35,0.14-0.71,0.21-1.06c0.21-1.07,0.43-2.15,0.68-3.22
		l0.3-1.33c2.58-10.97,6.67-21.07,11.93-29.9c6.96-11.64,15.95-21.07,26.29-27.33c0.01,0.01,0.04,0.03,0.06,0.03
		c0.01,0,0.04-0.02,0.06-0.03c10.34,6.26,19.33,15.69,26.28,27.33c5.26,8.83,9.36,18.93,11.94,29.9l0.3,1.33
		c0.24,1.07,0.47,2.15,0.68,3.22c0.07,0.35,0.14,0.71,0.2,1.06c-0.05,0.03-0.09,0.04-0.13,0.07c0.08,0.38,0.15,0.75,0.21,1.13
		c0.11,0.59,0.22,1.2,0.3,1.8c0.12,0.68,0.21,1.36,0.32,2.05c0.16,1.24,0.34,2.5,0.47,3.76c0.06,0.56,0.12,1.11,0.18,1.67
		c0.14,1.45,0.25,2.92,0.34,4.4c0,0.04,0.01,0.09,0.01,0.14c0.02,0.38,0.04,0.78,0.06,1.16c0.04,0.89,0.08,1.78,0.1,2.67v0.17
		c0.01,0.32,0.02,0.64,0.02,0.96c0,0.15,0.01,0.3,0.01,0.45v0.16c0.01,0.63,0.02,1.26,0.02,1.9c0,0.59-0.01,1.19-0.02,1.78
		c0,0.15-0.01,0.3-0.01,0.45c0,0.32-0.01,0.64-0.02,0.96v0.17c-0.02,0.9-0.06,1.78-0.1,2.67c-0.02,0.39-0.04,0.78-0.06,1.16
		c0,0.05-0.01,0.1-0.01,0.14c-0.09,1.48-0.2,2.95-0.34,4.4c-0.06,0.56-0.12,1.11-0.18,1.67c-0.13,1.26-0.31,2.52-0.47,3.76
		c-0.11,0.7-0.2,1.37-0.32,2.05c-0.08,0.6-0.19,1.21-0.3,1.8c-0.06,0.38-0.13,0.75-0.21,1.13c0.04,0.03,0.08,0.04,0.13,0.07
		c-0.06,0.35-0.13,0.71-0.2,1.06c-0.21,1.07-0.44,2.15-0.68,3.22l-0.3,1.34c-1.94,8.22-4.73,15.96-8.22,23.05
		c-2.21-0.95-4.59-1.42-7.11-1.42h-53.7c-3.17-6.69-5.72-13.95-7.53-21.63l-0.3-1.34c-0.25-1.07-0.47-2.15-0.68-3.22
		c-0.07-0.35-0.14-0.71-0.21-1.06c0.05-0.03,0.09-0.04,0.14-0.07c-0.08-0.38-0.15-0.75-0.21-1.13c-0.12-0.59-0.22-1.2-0.31-1.8
		c-0.11-0.68-0.21-1.35-0.32-2.05c-0.16-1.24-0.34-2.5-0.47-3.76c-0.06-0.56-0.12-1.11-0.17-1.67c-0.15-1.45-0.26-2.92-0.34-4.4
		c0-0.04-0.01-0.09-0.01-0.14c-0.03-0.38-0.05-0.77-0.06-1.16c-0.05-0.89-0.08-1.77-0.11-2.67v-0.17c-0.01-0.32-0.02-0.64-0.02-0.96
		V129.11z"/>
	<path d="M246.05,199.79c3.01,2.88,2.81,7.74-0.37,10.41l-50.08,41.99c-3.43,2.8-7.22,4.96-11.29,6.5
		c-4.06,1.53-8.31,2.26-12.73,2.26H116.9c-3.87,0-7.01-3.14-7.01-7.01v-61.41c0-0.42,0.04-0.84,0.12-1.24
		c0.58-3.28,3.44-5.76,6.89-5.76h57.12c1,0,1.95,0.14,2.84,0.41c0.58,0.17,1.14,0.41,1.67,0.7c0.4,0.23,0.8,0.49,1.17,0.78
		c0.4,0.32,0.77,0.64,1.1,0.97c0.06,0.06,0.11,0.11,0.16,0.17c0.7,0.74,1.25,1.53,1.65,2.43c0.13,0.3,0.25,0.62,0.35,0.95
		c0.45,1.35,0.63,2.72,0.54,4.16c0,0.45-0.09,0.9-0.18,1.27c-0.32,1.69-1.23,3.17-2.64,4.49l-0.01,0.01
		c-0.17,0.16-0.33,0.31-0.51,0.46l-1.63,1.35l-2.28,1.89l-8.05,6.7c-1.26,1.04-2.84,1.62-4.48,1.62h-28.04c-3.86,0-7,3.13-7,6.99
		c0,1.94,0.78,3.69,2.05,4.95c1.27,1.27,3.02,2.06,4.95,2.06h32.93c1.64,0,3.21-0.57,4.46-1.61l27.96-23.11l6.59-5.44l1.53-1.3
		c0.12-0.1,0.25-0.21,0.38-0.31c0.27-0.2,0.54-0.38,0.78-0.55c0.36-0.24,0.72-0.46,1.1-0.65c2.8-1.72,5.78-2.79,8.85-3.33
		c2.73-0.45,5.42-0.49,8.09-0.17c1.13,0.14,2.26,0.34,3.38,0.61c0.11,0.04,0.23,0.06,0.34,0.09c3.67,0.92,7.08,2.51,10.41,4.7
		C243.75,197.73,244.94,198.72,246.05,199.79z"/>
	<path d="M263.35,154.8c-0.12,0.3-0.24,0.61-0.37,0.92c-0.09,0.22-0.17,0.43-0.27,0.65c-0.07,0.18-0.14,0.34-0.22,0.52
		c-0.14,0.33-0.3,0.65-0.45,0.99c0,0,0,0.02-0.01,0.03c-0.17,0.36-0.34,0.71-0.52,1.06c-0.17,0.33-0.33,0.66-0.51,1
		c-0.18,0.35-0.37,0.72-0.57,1.08c-0.18,0.31-0.35,0.61-0.53,0.92c-0.07,0.11-0.13,0.23-0.21,0.34c-0.21,0.38-0.44,0.75-0.67,1.13
		c-0.31,0.49-0.62,0.98-0.95,1.47c-0.2,0.3-0.4,0.6-0.61,0.9c-0.3,0.43-0.6,0.86-0.91,1.28c-0.02,0.04-0.05,0.07-0.08,0.11
		c-0.32,0.44-0.64,0.87-0.98,1.3c-0.22,0.3-0.46,0.6-0.7,0.89c-0.48,0.61-0.98,1.21-1.48,1.81l-0.01,0.01
		c-0.24,0.27-0.47,0.55-0.72,0.83c-0.25,0.28-0.51,0.57-0.78,0.87c-0.26,0.29-0.52,0.58-0.79,0.87c-0.54,0.57-1.09,1.14-1.66,1.71
		c-0.56,0.57-1.14,1.14-1.73,1.7c-0.29,0.29-0.59,0.57-0.9,0.84c-0.3,0.28-0.6,0.55-0.91,0.83c-1.54,1.39-3.15,2.74-4.83,4.06
		c-0.63,0.49-1.26,0.97-1.9,1.46c-0.05,0.04-0.11,0.07-0.16,0.11c-0.2,0.14-0.39,0.29-0.59,0.43c-1.36-0.51-2.73-0.93-4.13-1.28
		l-0.17-0.05l-0.27-0.07c-2.97-0.7-5.96-1.06-8.89-1.06c-2.01,0-4.03,0.17-6.03,0.49l-0.1,0.02c-2.71,0.48-5.32,1.27-7.8,2.35
		c4.73-5.75,9.09-12.05,12.98-18.79c3.81-6.6,7.06-13.44,9.68-20.33c0.26-0.67,0.5-1.34,0.75-2
		C245.86,145.78,255.86,149.4,263.35,154.8z"/>
	<path d="M200.23,127.05c0-9.62-1.06-19.11-3.1-28.21c6.15-4.76,12.47-8.47,18.71-10.98c4.31-1.75,8.59-2.92,12.74-3.47
		c0,0.01,0.01,0.01,0.01,0.02c0.04-0.01,0.08-0.01,0.11-0.02c6.28,15.18,5.25,36.8-3.16,58.97h-0.01c-0.53,1.41-1.09,2.81-1.69,4.22
		l-0.09-0.1c-2.11,5.06-4.61,10.13-7.51,15.14c-6.92,11.99-15.24,22.25-24.13,30.3c-0.15-1.23-0.43-2.44-0.81-3.63
		c-0.78-2.48-2.09-4.72-3.91-6.66c-0.01-0.01-0.01-0.01-0.02-0.02c0.17-0.33,0.33-0.66,0.5-0.99c5.54-11.16,9.3-23.54,11.1-36.5
		c0.57-4.03,0.94-8.11,1.13-12.23C200.18,130.95,200.23,129.01,200.23,127.05z"/>
	<path d="M91.01,196.27v64.67c0,2.71-0.9,4.88-2.71,6.69c-1.8,1.8-4.06,2.71-6.68,2.71H62.74c-2.62,0-4.88-0.91-6.68-2.71
		c-1.81-1.81-2.71-4.07-2.71-6.69v-65.93c0-2.62,0.9-4.88,2.71-6.69c1.8-1.8,4.06-2.71,6.68-2.71h17.52
		C86.23,185.52,91.01,190.31,91.01,196.27z"/>
	<path d="M53.71,175.49c-0.57-0.57-1.12-1.14-1.66-1.71c-0.27-0.29-0.53-0.58-0.79-0.87c-0.27-0.3-0.53-0.59-0.78-0.87
		c-0.25-0.28-0.48-0.56-0.72-0.83l-0.01-0.01c-0.5-0.6-1-1.2-1.48-1.81c-0.24-0.29-0.48-0.59-0.7-0.89
		c-0.34-0.43-0.66-0.86-0.98-1.3c-0.03-0.04-0.06-0.07-0.08-0.11c-0.31-0.42-0.61-0.85-0.91-1.28c-0.21-0.3-0.41-0.6-0.61-0.9
		c-0.33-0.49-0.64-0.98-0.95-1.47c-0.23-0.38-0.46-0.75-0.67-1.13c-0.08-0.11-0.14-0.23-0.21-0.34c-0.18-0.31-0.35-0.61-0.53-0.92
		c-0.2-0.36-0.39-0.73-0.57-1.08c-0.18-0.34-0.34-0.67-0.51-1c-0.18-0.35-0.35-0.7-0.52-1.06c-0.01-0.01-0.01-0.03-0.01-0.03
		c-0.15-0.34-0.31-0.66-0.45-0.99c-0.08-0.18-0.15-0.34-0.22-0.52c-0.1-0.22-0.18-0.43-0.27-0.65c-0.13-0.31-0.25-0.62-0.37-0.92
		c7.49-5.4,17.49-9.02,29-10.6c0.25,0.66,0.49,1.33,0.75,2c2.62,6.89,5.87,13.73,9.68,20.33c2.26,3.92,4.68,7.68,7.25,11.28
		c-1.88-0.61-3.88-0.94-5.96-0.94H62.74c-2.27,0-4.44,0.38-6.44,1.13c-0.3-0.26-0.58-0.53-0.86-0.81
		C54.85,176.63,54.27,176.06,53.71,175.49z"/>
	<path d="M113.88,177.08c-4.46,0.87-8.25,3.62-10.5,7.38c-5.72-6.38-11.05-13.71-15.74-21.84c-2.89-5.01-5.4-10.08-7.52-15.13
		l-0.08,0.09c-0.59-1.41-1.15-2.81-1.69-4.22h-0.01c-8.41-22.17-9.43-43.79-3.16-58.97c0.03,0.01,0.08,0.01,0.11,0.02
		c0-0.01,0.01-0.01,0.01-0.02c4.15,0.55,8.42,1.72,12.74,3.47c6.24,2.51,12.56,6.22,18.71,10.98c-2.05,9.1-3.1,18.59-3.1,28.21
		c0,1.96,0.05,3.9,0.14,5.84c0.18,4.12,0.55,8.2,1.12,12.23C106.47,156.35,109.5,167.14,113.88,177.08z"/>
</g>
</svg>
