<?xml version="1.0" encoding="utf-8"?>
<!-- Generator: Adobe Illustrator 23.0.1, SVG Export Plug-In . SVG Version: 6.00 Build 0)  -->
<svg version="1.1" id="Layer_1" xmlns="http://www.w3.org/2000/svg" xmlns:xlink="http://www.w3.org/1999/xlink" x="0px" y="0px"
	 viewBox="0 0 300 300" style="enable-background:new 0 0 300 300;" xml:space="preserve">
<style type="text/css">
	.st0{fill:none;stroke:#000000;stroke-width:6;stroke-miterlimit:10;}
	.st1{fill:none;}
	.st2{stroke:#000000;stroke-width:2;stroke-miterlimit:10;}
	.st3{fill:#FFFFFF;}
</style>
<g>
	<path d="M109.5,165c0,0-0.1-0.1-0.1-0.2c0,0,0.1,0,0.1,0v0C109.5,164.9,109.5,164.9,109.5,165z"/>
	<path d="M200.1,116.6c-0.1-0.3-0.1-0.6-0.2-0.9c0.1,0.4,0.2,0.8,0.2,1.2l0,0C200.1,116.8,200.1,116.7,200.1,116.6z M110.8,113.1
		c-0.1,0.3-0.1,0.6-0.2,0.9c0,0,0,0.1,0,0.2c-0.2,0.8-0.3,1.6-0.5,2.4c-0.1,0.5-0.2,1.1-0.3,1.7c0.4-2,0.7-4,1.2-6
		C110.9,112.5,110.8,112.8,110.8,113.1z M109.5,164.8c0,0.1,0,0.1,0,0.1c0,0.1,0,0.2,0.1,0.3C109.6,165.1,109.6,165,109.5,164.8z"/>
	<path d="M109.6,165.3c0-0.1,0-0.2-0.1-0.3c0,0-0.1-0.1-0.1-0.2c0,0,0.1,0,0.1,0v0C109.6,165,109.6,165.1,109.6,165.3z"/>
	<path d="M111,112.2c-0.4,2-0.8,4-1.2,6c0.1-0.6,0.2-1.1,0.3-1.7c0.2-0.8,0.3-1.6,0.5-2.4c0-0.1,0-0.1,0-0.2
		c0.1-0.3,0.1-0.6,0.2-0.9C110.8,112.8,110.9,112.5,111,112.2z"/>
	<path d="M109.5,165c0,0-0.1-0.1-0.1-0.2c0,0,0.1,0,0.1,0v0C109.5,164.9,109.5,164.9,109.5,165z"/>
	<path d="M109.5,165c0,0-0.1-0.1-0.1-0.2c0,0,0.1,0,0.1,0v0C109.5,164.9,109.5,164.9,109.5,165z"/>
	<path d="M230,87.6c-1.4,0.5-2.8,1-4.2,1.6l-5.6,2.3v0.2c-5,2.4-10,5.5-14.9,9c-2.2-7.2-4.9-14.2-8.2-20.8c-1.6-3.3-3.4-6.4-5.2-9.4
		c10.7-8.3,22-13.7,32.6-15.5C228.7,64,230.6,75.3,230,87.6z"/>
	<path d="M118.1,70.4c-1.9,3-3.6,6.2-5.2,9.4c-3.3,6.6-6,13.6-8.2,20.8c-6.7-4.9-13.6-8.7-20.5-11.5c-1.4-0.6-2.8-1.1-4.2-1.6
		C79.6,75.3,81.4,64,85.5,55C96.1,56.7,107.4,62.1,118.1,70.4z"/>
	<path d="M109.5,165c0,0-0.1-0.1-0.1-0.2c0,0,0.1,0,0.1,0v0C109.5,164.9,109.5,164.9,109.5,165z"/>
	<path d="M200.1,116.8L200.1,116.8c-0.1-0.4-0.2-0.8-0.2-1.2c0.1,0.3,0.1,0.6,0.2,0.9C200.1,116.7,200.1,116.8,200.1,116.8z"/>
	<path d="M246.3,169.8l2.2-5.7c0.3-0.8,0.6-1.6,0.9-2.5c13.9,1.7,26,5.9,35,12.4c-2.4,6.4-6.3,12.7-11.5,18.8h0
		c-3.2-0.8-6.2-1.8-9-3.3c-6.2-3.1-11.9-7.7-17-13.6l-2.2-2.6c0.5-1.2,1-2.3,1.5-3.5H246.3z"/>
	<path d="M200.6,165C200.6,165,200.6,165,200.6,165c0-0.1,0-0.3,0.1-0.4C200.6,164.7,200.6,164.9,200.6,165z"/>
	<path d="M200.5,165.3c0,0.1,0,0.3-0.1,0.4C200.5,165.6,200.5,165.5,200.5,165.3c-0.1,0-0.2,0-0.2,0.1c0-0.1,0.1-0.2,0.2-0.2
		c0,0,0.1-0.1,0.1-0.1l0,0c0,0.1,0,0.1,0,0.1v0C200.6,165.2,200.5,165.3,200.5,165.3z"/>
	<path d="M208.7,114.2c-0.3-1.4-0.6-2.8-0.9-4.2c7-5.5,14.3-9.7,21.4-12.6v0c4.9-2,9.8-3.3,14.6-4c7.2,17.4,6,42.1-3.6,67.4h0
		c-0.6,1.6-1.3,3.2-1.9,4.8l-2.2-2.6c-1.6-1.9-3.5-3.5-5.5-4.8c4.9-5,7.5-11.3,7.5-18.2c0-7-2.6-13.4-7.6-18.4S219,114,212,114
		C210.9,114,209.8,114.1,208.7,114.2z"/>
	<path d="M284,207.9v8c0,2.3-1.9,4.1-4.2,4c-9.5-0.5-18.4-2.7-26.7-6.6c-0.9-0.4-1.7-0.8-2.6-1.3c-5.7-3-11-6.6-15.8-11.1
		c-2.5-2.4-6.7-0.5-6.7,3v5.4c0,1.6,1,3.1,2.5,3.7l11,4.4l17.7,7c2.7,1.1,4.8,2.8,6.4,5.3c1.6,2.5,2.4,5.1,2.4,7.9
		c0,4-1.4,7.4-4.2,10.2s-6.2,4.2-10.2,4.2H200c-2.2,0-4-1.8-4-4c0-1.7,0.3-3.3,0.8-4.8c0.6-1.4,1.4-2.7,2.6-3.9
		c2.3-2.3,5.1-3.4,8.6-3.4h24c1.2,0,2.2-0.4,2.9-1.1c0.7-0.7,1.1-1.7,1.1-2.9s-0.4-2.2-1.1-2.9c-0.7-0.7-1.7-1.1-2.9-1.1h-24
		c-1.8,0-3.5,0.2-5.1,0.6c-3.4,0.8-6.5,2.6-9.1,5.2c-3.9,3.9-5.8,8.6-5.8,14.2c0,1.1-0.5,2.1-1.2,2.8c-0.7,0.7-1.7,1.2-2.8,1.2
		h-13.6c-4,0-7.4-1.4-10.2-4.2c-2.5-2.5-3.9-5.5-4.1-8.9c0-0.4-0.1-0.9-0.1-1.3c0-2.8,0.8-5.4,2.4-7.9c1.6-2.5,3.7-4.2,6.4-5.3
		l12.7-5l14.9-5.9l1.1-0.4c1.5-0.6,2.5-2.1,2.5-3.7v-5.4c0-3.5-4.1-5.3-6.7-3c-0.1,0.1-0.3,0.2-0.4,0.3c-5.5,4.9-11.5,9-18,12
		c-8.3,3.9-17.2,6.1-26.7,6.6c-2.3,0.1-4.2-1.7-4.2-4v-8c0-2.1,1.7-3.9,3.8-4c7.6-0.5,14.6-2.3,20.9-5.5c7.4-3.7,14.1-9.1,20.1-16
		l10.8-12.8c1.4-1.6,3-2.9,4.9-3.8v0c0.2-0.1,0.5-0.2,0.7-0.3c2.1-0.9,4.4-1.4,6.8-1.4h8c2.4,0,4.7,0.5,6.8,1.4s4,2.3,5.6,4.2
		l5.2,6.1l5.6,6.7c0.2,0.2,0.4,0.4,0.6,0.7c5.8,6.6,12.4,11.7,19.5,15.3c1.8,0.9,3.7,1.7,5.7,2.4c4.8,1.7,9.9,2.7,15.2,3.1
		C282.3,204,284,205.8,284,207.9z"/>
	<path d="M143.2,193.9c-7.4,0.4-13.2,6.6-13.2,14v7.9c-0.1-0.2-0.3-0.4-0.4-0.6c-0.3-0.5-0.7-1-1-1.5c-0.4-0.5-0.7-1-1-1.5
		c-0.5-0.8-1-1.6-1.5-2.4c-0.2-0.2-0.3-0.4-0.4-0.7c-0.3-0.5-0.6-1-0.9-1.4c-0.2-0.3-0.4-0.6-0.5-0.9c-0.5-0.8-0.9-1.6-1.4-2.5
		c-0.4-0.8-0.9-1.6-1.3-2.4c-0.1-0.2-0.2-0.4-0.3-0.6c-0.3-0.7-0.7-1.3-1-2c-0.1-0.2-0.2-0.4-0.3-0.6c-0.4-0.7-0.7-1.5-1-2.2
		c-0.1-0.2-0.2-0.5-0.3-0.7c-0.4-0.9-0.8-1.8-1.1-2.7c-0.4-1-0.8-2-1.2-3c-0.6-1.5-1.1-3-1.6-4.5c-0.3-1-0.7-2-1-3.1
		c-1-3.1-1.8-6.3-2.5-9.5c0,0,0-0.1,0-0.1c-0.1-0.5-0.2-1-0.3-1.5c-0.2-0.8-0.3-1.6-0.5-2.4c-0.1-0.7-0.3-1.4-0.4-2.2
		c0-0.1,0-0.3-0.1-0.4c0-0.3-0.1-0.6-0.2-0.9c0-0.1,0-0.3-0.1-0.5c0-0.1,0-0.3-0.1-0.5v0c-0.1-0.3-0.1-0.6-0.1-0.8
		c-0.1-0.8-0.2-1.5-0.3-2.3c-0.1-0.5-0.2-1.1-0.2-1.6c0-0.4-0.1-0.8-0.2-1.3c-0.1-0.7-0.1-1.3-0.2-2c0-0.2,0-0.5-0.1-0.7
		c-0.1-0.6-0.1-1.3-0.2-1.9c-0.1-0.8-0.1-1.5-0.2-2.3c0-0.5-0.1-1.1-0.1-1.6c0-0.6,0-1.1-0.1-1.7c0-0.5,0-0.9-0.1-1.4
		c0-0.6,0-1.2,0-1.8c0-0.3,0-0.6,0-0.9c0-0.7,0-1.4,0-2.2c0-0.9,0-1.7,0-2.5c0-0.4,0-0.9,0-1.3c0-1,0.1-2,0.1-3c0-0.4,0-0.9,0.1-1.3
		c0,0,0-0.1,0-0.2c0.1-1.7,0.2-3.4,0.4-5c0.1-0.6,0.1-1.3,0.2-1.9c0.2-1.4,0.4-2.9,0.5-4.3c0.1-0.8,0.2-1.6,0.4-2.3
		c0.1-0.7,0.2-1.4,0.3-2.1c0.4-2,0.7-4,1.2-6c0-0.1,0-0.2,0.1-0.2l0.3-1.4c3-12.6,7.6-24.1,13.7-34.3c7.9-13.3,18.2-24.1,30-31.3
		c11.8,7.2,22.1,17.9,30,31.3c6,10.1,10.7,21.6,13.7,34.2l0.3,1.5c0.3,1.2,0.5,2.5,0.8,3.7c0.1,0.4,0.2,0.8,0.2,1.2
		c-2.3,1.2-4.5,2.8-6.5,4.8c-5,5-7.6,11.3-7.6,18.4c0,7,2.6,13.3,7.5,18.2c-2,1.3-3.9,3-5.5,4.9l-10.8,12.8
		c-5.1,5.9-10.8,10.5-17,13.6C155.1,192,149.4,193.5,143.2,193.9z"/>
	<path d="M196,140c0-4.4,1.6-8.2,4.7-11.3c0.3-0.3,0.7-0.6,1-0.9c2.5-2.1,5.3-3.4,8.5-3.7c0.6-0.1,1.2-0.1,1.8-0.1
		c4.4,0,8.2,1.6,11.3,4.7c3.1,3.1,4.7,6.9,4.7,11.3c0,4.4-1.6,8.2-4.7,11.3s-6.9,4.7-11.3,4.7c-0.4,0-0.8,0-1.3,0
		c-3.3-0.2-6.1-1.4-8.7-3.4c-0.5-0.4-0.9-0.8-1.4-1.2C197.6,148.2,196,144.4,196,140z"/>
	<path d="M135.3,235.5c-19.7-8.3-40.1-27-54.8-52.6c-4.2-7.3-7.7-14.6-10.5-21.9c-9.7-25.4-10.8-50.1-3.7-67.5c4.7,0.6,9.6,2,14.6,4
		c7.1,2.9,14.4,7.1,21.4,12.6c-2.3,10.4-3.5,21.3-3.5,32.3c0,2.2,0.1,4.4,0.2,6.7c0.2,4.7,0.6,9.4,1.3,14c2.1,14.8,6.4,29,12.7,41.7
		c3,6,6.3,11.5,10,16.6c0.8,1.1,1.6,2.2,2.5,3.2l0,0C128.5,228.5,131.8,232.1,135.3,235.5z"/>
	<path d="M135.3,235.5c0.1,0,0.2,0.1,0.2,0.1C135.5,235.6,135.5,235.6,135.3,235.5C135.4,235.6,135.4,235.5,135.3,235.5z"/>
	<path d="M112.7,232.8c-4.4-0.9-8.9-2-13.4-3.4c-35.9-10.8-63-32.8-71.6-55.4c8.6-6.2,20-10.3,33.2-12.1c0.3,0.8,0.6,1.5,0.8,2.3
		c3,7.9,6.7,15.7,11.1,23.2C83.6,206.1,97.5,221.8,112.7,232.8z"/>
</g>
</svg>
