<?xml version="1.0" encoding="UTF-8" standalone="no"?><!DOCTYPE svg PUBLIC "-//W3C//DTD SVG 1.1//EN" "http://www.w3.org/Graphics/SVG/1.1/DTD/svg11.dtd"><svg width="100%" height="100%" viewBox="0 0 300 300" version="1.1" xmlns="http://www.w3.org/2000/svg" xmlns:xlink="http://www.w3.org/1999/xlink" xml:space="preserve" xmlns:serif="http://www.serif.com/" style="fill-rule:evenodd;clip-rule:evenodd;stroke-linejoin:round;stroke-miterlimit:2;"><g><path d="M104.63,166.731c0,0 -0.11,-0.11 -0.11,-0.221l0.11,0l0,0.221Z" style="fill-rule:nonzero;"/><path d="M204.708,113.268c-0.11,-0.331 -0.11,-0.663 -0.221,-0.994c0.11,0.442 0.221,0.884 0.221,1.326l0,-0.331Zm-98.642,-3.866c-0.11,0.331 -0.11,0.663 -0.221,0.994l0,0.221c-0.221,0.884 -0.331,1.767 -0.552,2.651c-0.11,0.552 -0.221,1.215 -0.331,1.878c0.442,-2.209 0.773,-4.418 1.326,-6.628c-0.11,0.221 -0.221,0.552 -0.221,0.884Zm-1.436,57.109l0,0.11c0,0.11 0,0.221 0.11,0.331c0,-0.11 0,-0.221 -0.11,-0.442Z" style="fill-rule:nonzero;"/><path d="M104.741,167.063c0,-0.11 0,-0.221 -0.11,-0.331c0,0 -0.11,-0.11 -0.11,-0.221l0.11,0c0.11,0.221 0.11,0.331 0.11,0.552Z" style="fill-rule:nonzero;"/><path d="M106.287,108.408c-0.442,2.209 -0.884,4.418 -1.326,6.628c0.11,-0.663 0.221,-1.215 0.331,-1.878c0.221,-0.884 0.331,-1.767 0.552,-2.651l0,-0.221c0.11,-0.331 0.11,-0.663 0.221,-0.994c0,-0.221 0.11,-0.552 0.221,-0.884Z" style="fill-rule:nonzero;"/><path d="M104.63,166.731c0,0 -0.11,-0.11 -0.11,-0.221l0.11,0l0,0.221Z" style="fill-rule:nonzero;"/><path d="M104.63,166.731c0,0 -0.11,-0.11 -0.11,-0.221l0.11,0l0,0.221Z" style="fill-rule:nonzero;"/><path d="M237.736,81.234c-1.546,0.552 -3.093,1.105 -4.639,1.767l-6.186,2.541l0,0.221c-5.523,2.651 -11.046,6.075 -16.459,9.942c-2.43,-7.953 -5.413,-15.686 -9.058,-22.976c-1.767,-3.645 -3.756,-7.07 -5.744,-10.383c11.819,-9.168 24.302,-15.133 36.01,-17.122c4.639,9.942 6.738,22.424 6.075,36.01Z" style="fill-rule:nonzero;"/><path d="M114.13,62.235c-2.099,3.314 -3.977,6.849 -5.744,10.383c-3.645,7.29 -6.628,15.023 -9.058,22.976c-7.401,-5.413 -15.023,-9.61 -22.645,-12.703c-1.546,-0.663 -3.093,-1.215 -4.639,-1.767c-0.442,-13.476 1.546,-25.958 6.075,-35.9c11.709,1.878 24.191,7.843 36.01,17.011Z" style="fill-rule:nonzero;"/><path d="M104.63,166.731c0,0 -0.11,-0.11 -0.11,-0.221l0.11,0l0,0.221Z" style="fill-rule:nonzero;"/><path d="M204.708,113.489c-0.11,-0.442 -0.221,-0.884 -0.221,-1.326c0.11,0.331 0.11,0.663 0.221,0.994l0,0.331Z" style="fill-rule:nonzero;"/><path d="M255.742,172.034l2.43,-6.296c0.331,-0.884 0.663,-1.767 0.994,-2.762c15.354,1.878 28.72,6.517 38.662,13.697c-2.651,7.07 -6.959,14.029 -12.703,20.767c-3.535,-0.884 -6.849,-1.988 -9.942,-3.645c-6.849,-3.424 -13.145,-8.506 -18.778,-15.023l-2.43,-2.872c0.552,-1.326 1.105,-2.541 1.657,-3.866l0.11,0Z" style="fill-rule:nonzero;"/><path d="M205.261,166.731c0,-0.11 0,-0.331 0.11,-0.442c-0.11,0.11 -0.11,0.331 -0.11,0.442Z" style="fill-rule:nonzero;"/><path d="M205.15,167.063c0,0.11 0,0.331 -0.11,0.442c0.11,-0.11 0.11,-0.221 0.11,-0.442c-0.11,0 -0.221,0 -0.221,0.11c0,-0.11 0.11,-0.221 0.221,-0.221l0.11,-0.11l0,0.11l-0.11,0.11Z" style="fill-rule:nonzero;"/><path d="M214.208,110.617c-0.331,-1.546 -0.663,-3.093 -0.994,-4.639c7.732,-6.075 15.796,-10.715 23.639,-13.918c5.413,-2.209 10.825,-3.645 16.127,-4.418c7.953,19.22 6.628,46.504 -3.977,74.451c-0.663,1.767 -1.436,3.535 -2.099,5.302l-2.43,-2.872c-1.767,-2.099 -3.866,-3.866 -6.075,-5.302c5.413,-5.523 8.285,-12.482 8.285,-20.104c0,-7.732 -2.872,-14.802 -8.395,-20.325c-5.523,-5.523 -12.703,-8.395 -20.435,-8.395c-1.215,0 -2.43,0.11 -3.645,0.221Z" style="fill-rule:nonzero;"/><path d="M297.386,214.119l0,8.837c0,2.541 -2.099,4.529 -4.639,4.418c-10.494,-0.552 -20.325,-2.982 -29.493,-7.29c-0.994,-0.442 -1.878,-0.884 -2.872,-1.436c-6.296,-3.314 -12.151,-7.29 -17.453,-12.261c-2.762,-2.651 -7.401,-0.552 -7.401,3.314l0,5.965c0,1.767 1.105,3.424 2.762,4.087l12.151,4.86l19.552,7.732c2.982,1.215 5.302,3.093 7.07,5.854c1.767,2.762 2.651,5.634 2.651,8.726c0,4.418 -1.546,8.174 -4.639,11.267c-3.093,3.093 -6.849,4.639 -11.267,4.639l-59.207,0c-2.43,0 -4.418,-1.988 -4.418,-4.418c0,-1.878 0.331,-3.645 0.884,-5.302c0.663,-1.546 1.546,-2.982 2.872,-4.308c2.541,-2.541 5.634,-3.756 9.5,-3.756l26.511,0c1.326,0 2.43,-0.442 3.203,-1.215c0.773,-0.773 1.215,-1.878 1.215,-3.203c0,-1.326 -0.442,-2.43 -1.215,-3.203c-0.773,-0.773 -1.878,-1.215 -3.203,-1.215l-26.511,0c-1.988,0 -3.866,0.221 -5.634,0.663c-3.756,0.884 -7.18,2.872 -10.052,5.744c-4.308,4.308 -6.407,9.5 -6.407,15.686c0,1.215 -0.552,2.32 -1.326,3.093c-0.773,0.773 -1.878,1.326 -3.093,1.326l-15.023,0c-4.418,0 -8.174,-1.546 -11.267,-4.639c-2.762,-2.762 -4.308,-6.075 -4.529,-9.831c0,-0.442 -0.11,-0.994 -0.11,-1.436c0,-3.093 0.884,-5.965 2.651,-8.726c1.767,-2.762 4.087,-4.639 7.07,-5.854l14.029,-5.523l16.459,-6.517l1.215,-0.442c1.657,-0.663 2.762,-2.32 2.762,-4.087l0,-5.965c0,-3.866 -4.529,-5.854 -7.401,-3.314c-0.11,0.11 -0.331,0.221 -0.442,0.331c-6.075,5.413 -12.703,9.942 -19.883,13.255c-9.168,4.308 -18.999,6.738 -29.493,7.29c-2.541,0.11 -4.639,-1.878 -4.639,-4.418l0,-8.837c0,-2.32 1.878,-4.308 4.198,-4.418c8.395,-0.552 16.127,-2.541 23.086,-6.075c8.174,-4.087 15.575,-10.052 22.203,-17.674l11.93,-14.139c1.546,-1.767 3.314,-3.203 5.413,-4.198c0.221,-0.11 0.552,-0.221 0.773,-0.331c2.32,-0.994 4.86,-1.546 7.511,-1.546l8.837,0c2.651,0 5.192,0.552 7.511,1.546c2.32,0.994 4.418,2.541 6.186,4.639l5.744,6.738l6.186,7.401c0.221,0.221 0.442,0.442 0.663,0.773c6.407,7.29 13.697,12.924 21.54,16.901c1.988,0.994 4.087,1.878 6.296,2.651c5.302,1.878 10.936,2.982 16.79,3.424c2.32,0.11 4.198,2.099 4.198,4.418Z" style="fill-rule:nonzero;"/><path d="M141.856,198.655c-8.174,0.442 -14.581,7.29 -14.581,15.465l0,8.726c-0.11,-0.221 -0.331,-0.442 -0.442,-0.663c-0.331,-0.552 -0.773,-1.105 -1.105,-1.657c-0.442,-0.552 -0.773,-1.105 -1.105,-1.657c-0.552,-0.884 -1.105,-1.767 -1.657,-2.651c-0.221,-0.221 -0.331,-0.442 -0.442,-0.773c-0.331,-0.552 -0.663,-1.105 -0.994,-1.546c-0.221,-0.331 -0.442,-0.663 -0.552,-0.994c-0.552,-0.884 -0.994,-1.767 -1.546,-2.762c-0.442,-0.884 -0.994,-1.767 -1.436,-2.651c-0.11,-0.221 -0.221,-0.442 -0.331,-0.663c-0.331,-0.773 -0.773,-1.436 -1.105,-2.209c-0.11,-0.221 -0.221,-0.442 -0.331,-0.663c-0.442,-0.773 -0.773,-1.657 -1.105,-2.43c-0.11,-0.221 -0.221,-0.552 -0.331,-0.773c-0.442,-0.994 -0.884,-1.988 -1.215,-2.982c-0.442,-1.105 -0.884,-2.209 -1.326,-3.314c-0.663,-1.657 -1.215,-3.314 -1.767,-4.971c-0.331,-1.105 -0.773,-2.209 -1.105,-3.424c-1.105,-3.424 -1.988,-6.959 -2.762,-10.494l0,-0.11c-0.11,-0.552 -0.221,-1.105 -0.331,-1.657c-0.221,-0.884 -0.331,-1.767 -0.552,-2.651c-0.11,-0.773 -0.331,-1.546 -0.442,-2.43c0,-0.11 0,-0.331 -0.11,-0.442c0,-0.331 -0.11,-0.663 -0.221,-0.994c0,-0.11 0,-0.331 -0.11,-0.552c0,-0.11 0,-0.331 -0.11,-0.552c-0.11,-0.331 -0.11,-0.663 -0.11,-0.884c-0.11,-0.884 -0.221,-1.657 -0.331,-2.541c-0.11,-0.552 -0.221,-1.215 -0.221,-1.767c0,-0.442 -0.11,-0.884 -0.221,-1.436c-0.11,-0.773 -0.11,-1.436 -0.221,-2.209c0,-0.221 0,-0.552 -0.11,-0.773c-0.11,-0.663 -0.11,-1.436 -0.221,-2.099c-0.11,-0.884 -0.11,-1.657 -0.221,-2.541c0,-0.552 -0.11,-1.215 -0.11,-1.767c0,-0.663 0,-1.215 -0.11,-1.878c0,-0.552 0,-0.994 -0.11,-1.546l0,-9.61c0,-1.105 0.11,-2.209 0.11,-3.314c0,-0.442 0,-0.994 0.11,-1.436l0,-0.221c0.11,-1.878 0.221,-3.756 0.442,-5.523c0.11,-0.663 0.11,-1.436 0.221,-2.099c0.221,-1.546 0.442,-3.203 0.552,-4.75c0.11,-0.884 0.221,-1.767 0.442,-2.541c0.11,-0.773 0.221,-1.546 0.331,-2.32c0.442,-2.209 0.773,-4.418 1.326,-6.628c0,-0.11 0,-0.221 0.11,-0.221l0.331,-1.546c3.314,-13.918 8.395,-26.621 15.133,-37.888c8.726,-14.691 20.104,-26.621 33.138,-34.574c13.034,7.953 24.412,19.773 33.138,34.574c6.628,11.157 11.819,23.86 15.133,37.778l0.331,1.657c0.331,1.326 0.552,2.762 0.884,4.087c0.11,0.442 0.221,0.884 0.221,1.326c-2.541,1.326 -4.971,3.093 -7.18,5.302c-5.523,5.523 -8.395,12.482 -8.395,20.325c0,7.732 2.872,14.691 8.285,20.104c-2.209,1.436 -4.308,3.314 -6.075,5.413l-11.93,14.139c-5.634,6.517 -11.93,11.598 -18.778,15.023c-5.634,2.762 -11.93,4.418 -18.778,4.86Z" style="fill-rule:nonzero;"/><path d="M200.179,139.116c0,-4.86 1.767,-9.058 5.192,-12.482c0.331,-0.331 0.773,-0.663 1.105,-0.994c2.762,-2.32 5.854,-3.756 9.389,-4.087c0.663,-0.11 1.326,-0.11 1.988,-0.11c4.86,0 9.058,1.767 12.482,5.192c3.424,3.424 5.192,7.622 5.192,12.482c0,4.86 -1.767,9.058 -5.192,12.482c-3.424,3.424 -7.622,5.192 -12.482,5.192l-1.436,0c-3.645,-0.221 -6.738,-1.546 -9.61,-3.756c-0.552,-0.442 -0.994,-0.884 -1.546,-1.326c-3.314,-3.535 -5.081,-7.732 -5.081,-12.593Z" style="fill-rule:nonzero;"/><path d="M133.129,244.607c-21.761,-9.168 -44.295,-29.825 -60.533,-58.103c-4.639,-8.064 -8.506,-16.127 -11.598,-24.191c-10.715,-28.057 -11.93,-55.341 -4.087,-74.562c5.192,0.663 10.604,2.209 16.127,4.418c7.843,3.203 15.906,7.843 23.639,13.918c-2.541,11.488 -3.866,23.528 -3.866,35.679c0,2.43 0.11,4.86 0.221,7.401c0.221,5.192 0.663,10.383 1.436,15.465c2.32,16.348 7.07,32.034 14.029,46.062c3.314,6.628 6.959,12.703 11.046,18.337c0.884,1.215 1.767,2.43 2.762,3.535c3.314,4.308 6.959,8.285 10.825,12.04Z" style="fill-rule:nonzero;"/><path d="M133.129,244.607c0.11,0 0.221,0.11 0.221,0.11l-0.221,-0.11c0.11,0.11 0.11,0 0,0Z" style="fill-rule:nonzero;"/><path d="M108.165,241.624c-4.86,-0.994 -9.831,-2.209 -14.802,-3.756c-39.656,-11.93 -69.591,-36.231 -79.09,-61.196c9.5,-6.849 22.092,-11.378 36.673,-13.366c0.331,0.884 0.663,1.657 0.884,2.541c3.314,8.726 7.401,17.342 12.261,25.627c11.93,20.656 27.284,37.999 44.074,50.15Z" style="fill-rule:nonzero;"/></g></svg>